M48
;GenerationSoftware,Autodesk,EAGLE,8.7.0*%
;CreationDate,2018-03-19T09:25:07Z*%
FMAT,2
ICI,OFF
METRIC,TZ,000.000
T9C0.813
T8C0.900
T7C1.000
T6C1.016
T5C1.370
T4C1.499
T3C1.651
T2C3.000
T1C3.683
%
G90
M71
T1
X59436Y29972
X38100Y25400
T2
X5080Y34290
X88900Y34290
X88900Y5080
X5080Y5080
T3
X76910Y29210
X6350Y26110
X54610Y19760
X54610Y15800
X69850Y6200
X69850Y10160
X69850Y14120
X87630Y18900
X87630Y22860
X6350Y22150
X87630Y26820
X72950Y29210
T4
X27940Y31750
X12700Y31750
T5
X63246Y28242
X34290Y27130
X41910Y23670
X55626Y31702
T6
X20955Y8890
X23495Y6350
X23495Y8890
X26035Y6350
X20955Y6350
X18415Y8890
X18415Y6350
X15875Y6350
X13335Y8890
X13335Y6350
X26035Y8890
X15875Y8890
T7
X30480Y12700
X30480Y10160
X30480Y7620
T8
X17780Y15280
X17780Y20280
T9
X44450Y2540
X44450Y7620
X44450Y17780
X44450Y12700
M30