G75*
%MOIN*%
%OFA0B0*%
%FSLAX25Y25*%
%IPPOS*%
%LPD*%
%AMOC8*
5,1,8,0,0,1.08239X$1,22.5*
%
%ADD10C,0.00000*%
%ADD11C,0.07600*%
%ADD12R,0.07600X0.07600*%
%ADD13OC8,0.06300*%
%ADD14C,0.08850*%
%ADD15OC8,0.06000*%
%ADD16R,0.10000X0.10000*%
%ADD17C,0.10000*%
%ADD18C,0.08600*%
%ADD19R,0.07400X0.07400*%
%ADD20C,0.07400*%
%ADD21C,0.10000*%
D10*
X0023311Y0011500D02*
X0373390Y0011500D01*
X0373675Y0011503D01*
X0373961Y0011514D01*
X0374246Y0011531D01*
X0374530Y0011555D01*
X0374814Y0011586D01*
X0375097Y0011624D01*
X0375378Y0011669D01*
X0375659Y0011720D01*
X0375939Y0011778D01*
X0376217Y0011843D01*
X0376493Y0011915D01*
X0376767Y0011993D01*
X0377040Y0012078D01*
X0377310Y0012170D01*
X0377578Y0012268D01*
X0377844Y0012372D01*
X0378107Y0012483D01*
X0378367Y0012600D01*
X0378625Y0012723D01*
X0378879Y0012853D01*
X0379130Y0012989D01*
X0379378Y0013130D01*
X0379622Y0013278D01*
X0379863Y0013431D01*
X0380099Y0013591D01*
X0380332Y0013756D01*
X0380561Y0013926D01*
X0380786Y0014102D01*
X0381006Y0014284D01*
X0381222Y0014470D01*
X0381433Y0014662D01*
X0381640Y0014859D01*
X0381842Y0015061D01*
X0382039Y0015268D01*
X0382231Y0015479D01*
X0382417Y0015695D01*
X0382599Y0015915D01*
X0382775Y0016140D01*
X0382945Y0016369D01*
X0383110Y0016602D01*
X0383270Y0016838D01*
X0383423Y0017079D01*
X0383571Y0017323D01*
X0383712Y0017571D01*
X0383848Y0017822D01*
X0383978Y0018076D01*
X0384101Y0018334D01*
X0384218Y0018594D01*
X0384329Y0018857D01*
X0384433Y0019123D01*
X0384531Y0019391D01*
X0384623Y0019661D01*
X0384708Y0019934D01*
X0384786Y0020208D01*
X0384858Y0020484D01*
X0384923Y0020762D01*
X0384981Y0021042D01*
X0385032Y0021323D01*
X0385077Y0021604D01*
X0385115Y0021887D01*
X0385146Y0022171D01*
X0385170Y0022455D01*
X0385187Y0022740D01*
X0385198Y0023026D01*
X0385201Y0023311D01*
X0385201Y0156539D01*
X0385198Y0156824D01*
X0385187Y0157110D01*
X0385170Y0157395D01*
X0385146Y0157679D01*
X0385115Y0157963D01*
X0385077Y0158246D01*
X0385032Y0158527D01*
X0384981Y0158808D01*
X0384923Y0159088D01*
X0384858Y0159366D01*
X0384786Y0159642D01*
X0384708Y0159916D01*
X0384623Y0160189D01*
X0384531Y0160459D01*
X0384433Y0160727D01*
X0384329Y0160993D01*
X0384218Y0161256D01*
X0384101Y0161516D01*
X0383978Y0161774D01*
X0383848Y0162028D01*
X0383712Y0162279D01*
X0383571Y0162527D01*
X0383423Y0162771D01*
X0383270Y0163012D01*
X0383110Y0163248D01*
X0382945Y0163481D01*
X0382775Y0163710D01*
X0382599Y0163935D01*
X0382417Y0164155D01*
X0382231Y0164371D01*
X0382039Y0164582D01*
X0381842Y0164789D01*
X0381640Y0164991D01*
X0381433Y0165188D01*
X0381222Y0165380D01*
X0381006Y0165566D01*
X0380786Y0165748D01*
X0380561Y0165924D01*
X0380332Y0166094D01*
X0380099Y0166259D01*
X0379863Y0166419D01*
X0379622Y0166572D01*
X0379378Y0166720D01*
X0379130Y0166861D01*
X0378879Y0166997D01*
X0378625Y0167127D01*
X0378367Y0167250D01*
X0378107Y0167367D01*
X0377844Y0167478D01*
X0377578Y0167582D01*
X0377310Y0167680D01*
X0377040Y0167772D01*
X0376767Y0167857D01*
X0376493Y0167935D01*
X0376217Y0168007D01*
X0375939Y0168072D01*
X0375659Y0168130D01*
X0375378Y0168181D01*
X0375097Y0168226D01*
X0374814Y0168264D01*
X0374530Y0168295D01*
X0374246Y0168319D01*
X0373961Y0168336D01*
X0373675Y0168347D01*
X0373390Y0168350D01*
X0023311Y0168350D01*
X0023026Y0168347D01*
X0022740Y0168336D01*
X0022455Y0168319D01*
X0022171Y0168295D01*
X0021887Y0168264D01*
X0021604Y0168226D01*
X0021323Y0168181D01*
X0021042Y0168130D01*
X0020762Y0168072D01*
X0020484Y0168007D01*
X0020208Y0167935D01*
X0019934Y0167857D01*
X0019661Y0167772D01*
X0019391Y0167680D01*
X0019123Y0167582D01*
X0018857Y0167478D01*
X0018594Y0167367D01*
X0018334Y0167250D01*
X0018076Y0167127D01*
X0017822Y0166997D01*
X0017571Y0166861D01*
X0017323Y0166720D01*
X0017079Y0166572D01*
X0016838Y0166419D01*
X0016602Y0166259D01*
X0016369Y0166094D01*
X0016140Y0165924D01*
X0015915Y0165748D01*
X0015695Y0165566D01*
X0015479Y0165380D01*
X0015268Y0165188D01*
X0015061Y0164991D01*
X0014859Y0164789D01*
X0014662Y0164582D01*
X0014470Y0164371D01*
X0014284Y0164155D01*
X0014102Y0163935D01*
X0013926Y0163710D01*
X0013756Y0163481D01*
X0013591Y0163248D01*
X0013431Y0163012D01*
X0013278Y0162771D01*
X0013130Y0162527D01*
X0012989Y0162279D01*
X0012853Y0162028D01*
X0012723Y0161774D01*
X0012600Y0161516D01*
X0012483Y0161256D01*
X0012372Y0160993D01*
X0012268Y0160727D01*
X0012170Y0160459D01*
X0012078Y0160189D01*
X0011993Y0159916D01*
X0011915Y0159642D01*
X0011843Y0159366D01*
X0011778Y0159088D01*
X0011720Y0158808D01*
X0011669Y0158527D01*
X0011624Y0158246D01*
X0011586Y0157963D01*
X0011555Y0157679D01*
X0011531Y0157395D01*
X0011514Y0157110D01*
X0011503Y0156824D01*
X0011500Y0156539D01*
X0011500Y0023311D01*
X0011503Y0023026D01*
X0011514Y0022740D01*
X0011531Y0022455D01*
X0011555Y0022171D01*
X0011586Y0021887D01*
X0011624Y0021604D01*
X0011669Y0021323D01*
X0011720Y0021042D01*
X0011778Y0020762D01*
X0011843Y0020484D01*
X0011915Y0020208D01*
X0011993Y0019934D01*
X0012078Y0019661D01*
X0012170Y0019391D01*
X0012268Y0019123D01*
X0012372Y0018857D01*
X0012483Y0018594D01*
X0012600Y0018334D01*
X0012723Y0018076D01*
X0012853Y0017822D01*
X0012989Y0017571D01*
X0013130Y0017323D01*
X0013278Y0017079D01*
X0013431Y0016838D01*
X0013591Y0016602D01*
X0013756Y0016369D01*
X0013926Y0016140D01*
X0014102Y0015915D01*
X0014284Y0015695D01*
X0014470Y0015479D01*
X0014662Y0015268D01*
X0014859Y0015061D01*
X0015061Y0014859D01*
X0015268Y0014662D01*
X0015479Y0014470D01*
X0015695Y0014284D01*
X0015915Y0014102D01*
X0016140Y0013926D01*
X0016369Y0013756D01*
X0016602Y0013591D01*
X0016838Y0013431D01*
X0017079Y0013278D01*
X0017323Y0013130D01*
X0017571Y0012989D01*
X0017822Y0012853D01*
X0018076Y0012723D01*
X0018334Y0012600D01*
X0018594Y0012483D01*
X0018857Y0012372D01*
X0019123Y0012268D01*
X0019391Y0012170D01*
X0019661Y0012078D01*
X0019934Y0011993D01*
X0020208Y0011915D01*
X0020484Y0011843D01*
X0020762Y0011778D01*
X0021042Y0011720D01*
X0021323Y0011669D01*
X0021604Y0011624D01*
X0021887Y0011586D01*
X0022171Y0011555D01*
X0022455Y0011531D01*
X0022740Y0011514D01*
X0023026Y0011503D01*
X0023311Y0011500D01*
X0025594Y0031500D02*
X0025596Y0031653D01*
X0025602Y0031807D01*
X0025612Y0031960D01*
X0025626Y0032112D01*
X0025644Y0032265D01*
X0025666Y0032416D01*
X0025691Y0032567D01*
X0025721Y0032718D01*
X0025755Y0032868D01*
X0025792Y0033016D01*
X0025833Y0033164D01*
X0025878Y0033310D01*
X0025927Y0033456D01*
X0025980Y0033600D01*
X0026036Y0033742D01*
X0026096Y0033883D01*
X0026160Y0034023D01*
X0026227Y0034161D01*
X0026298Y0034297D01*
X0026373Y0034431D01*
X0026450Y0034563D01*
X0026532Y0034693D01*
X0026616Y0034821D01*
X0026704Y0034947D01*
X0026795Y0035070D01*
X0026889Y0035191D01*
X0026987Y0035309D01*
X0027087Y0035425D01*
X0027191Y0035538D01*
X0027297Y0035649D01*
X0027406Y0035757D01*
X0027518Y0035862D01*
X0027632Y0035963D01*
X0027750Y0036062D01*
X0027869Y0036158D01*
X0027991Y0036251D01*
X0028116Y0036340D01*
X0028243Y0036427D01*
X0028372Y0036509D01*
X0028503Y0036589D01*
X0028636Y0036665D01*
X0028771Y0036738D01*
X0028908Y0036807D01*
X0029047Y0036872D01*
X0029187Y0036934D01*
X0029329Y0036992D01*
X0029472Y0037047D01*
X0029617Y0037098D01*
X0029763Y0037145D01*
X0029910Y0037188D01*
X0030058Y0037227D01*
X0030207Y0037263D01*
X0030357Y0037294D01*
X0030508Y0037322D01*
X0030659Y0037346D01*
X0030812Y0037366D01*
X0030964Y0037382D01*
X0031117Y0037394D01*
X0031270Y0037402D01*
X0031423Y0037406D01*
X0031577Y0037406D01*
X0031730Y0037402D01*
X0031883Y0037394D01*
X0032036Y0037382D01*
X0032188Y0037366D01*
X0032341Y0037346D01*
X0032492Y0037322D01*
X0032643Y0037294D01*
X0032793Y0037263D01*
X0032942Y0037227D01*
X0033090Y0037188D01*
X0033237Y0037145D01*
X0033383Y0037098D01*
X0033528Y0037047D01*
X0033671Y0036992D01*
X0033813Y0036934D01*
X0033953Y0036872D01*
X0034092Y0036807D01*
X0034229Y0036738D01*
X0034364Y0036665D01*
X0034497Y0036589D01*
X0034628Y0036509D01*
X0034757Y0036427D01*
X0034884Y0036340D01*
X0035009Y0036251D01*
X0035131Y0036158D01*
X0035250Y0036062D01*
X0035368Y0035963D01*
X0035482Y0035862D01*
X0035594Y0035757D01*
X0035703Y0035649D01*
X0035809Y0035538D01*
X0035913Y0035425D01*
X0036013Y0035309D01*
X0036111Y0035191D01*
X0036205Y0035070D01*
X0036296Y0034947D01*
X0036384Y0034821D01*
X0036468Y0034693D01*
X0036550Y0034563D01*
X0036627Y0034431D01*
X0036702Y0034297D01*
X0036773Y0034161D01*
X0036840Y0034023D01*
X0036904Y0033883D01*
X0036964Y0033742D01*
X0037020Y0033600D01*
X0037073Y0033456D01*
X0037122Y0033310D01*
X0037167Y0033164D01*
X0037208Y0033016D01*
X0037245Y0032868D01*
X0037279Y0032718D01*
X0037309Y0032567D01*
X0037334Y0032416D01*
X0037356Y0032265D01*
X0037374Y0032112D01*
X0037388Y0031960D01*
X0037398Y0031807D01*
X0037404Y0031653D01*
X0037406Y0031500D01*
X0037404Y0031347D01*
X0037398Y0031193D01*
X0037388Y0031040D01*
X0037374Y0030888D01*
X0037356Y0030735D01*
X0037334Y0030584D01*
X0037309Y0030433D01*
X0037279Y0030282D01*
X0037245Y0030132D01*
X0037208Y0029984D01*
X0037167Y0029836D01*
X0037122Y0029690D01*
X0037073Y0029544D01*
X0037020Y0029400D01*
X0036964Y0029258D01*
X0036904Y0029117D01*
X0036840Y0028977D01*
X0036773Y0028839D01*
X0036702Y0028703D01*
X0036627Y0028569D01*
X0036550Y0028437D01*
X0036468Y0028307D01*
X0036384Y0028179D01*
X0036296Y0028053D01*
X0036205Y0027930D01*
X0036111Y0027809D01*
X0036013Y0027691D01*
X0035913Y0027575D01*
X0035809Y0027462D01*
X0035703Y0027351D01*
X0035594Y0027243D01*
X0035482Y0027138D01*
X0035368Y0027037D01*
X0035250Y0026938D01*
X0035131Y0026842D01*
X0035009Y0026749D01*
X0034884Y0026660D01*
X0034757Y0026573D01*
X0034628Y0026491D01*
X0034497Y0026411D01*
X0034364Y0026335D01*
X0034229Y0026262D01*
X0034092Y0026193D01*
X0033953Y0026128D01*
X0033813Y0026066D01*
X0033671Y0026008D01*
X0033528Y0025953D01*
X0033383Y0025902D01*
X0033237Y0025855D01*
X0033090Y0025812D01*
X0032942Y0025773D01*
X0032793Y0025737D01*
X0032643Y0025706D01*
X0032492Y0025678D01*
X0032341Y0025654D01*
X0032188Y0025634D01*
X0032036Y0025618D01*
X0031883Y0025606D01*
X0031730Y0025598D01*
X0031577Y0025594D01*
X0031423Y0025594D01*
X0031270Y0025598D01*
X0031117Y0025606D01*
X0030964Y0025618D01*
X0030812Y0025634D01*
X0030659Y0025654D01*
X0030508Y0025678D01*
X0030357Y0025706D01*
X0030207Y0025737D01*
X0030058Y0025773D01*
X0029910Y0025812D01*
X0029763Y0025855D01*
X0029617Y0025902D01*
X0029472Y0025953D01*
X0029329Y0026008D01*
X0029187Y0026066D01*
X0029047Y0026128D01*
X0028908Y0026193D01*
X0028771Y0026262D01*
X0028636Y0026335D01*
X0028503Y0026411D01*
X0028372Y0026491D01*
X0028243Y0026573D01*
X0028116Y0026660D01*
X0027991Y0026749D01*
X0027869Y0026842D01*
X0027750Y0026938D01*
X0027632Y0027037D01*
X0027518Y0027138D01*
X0027406Y0027243D01*
X0027297Y0027351D01*
X0027191Y0027462D01*
X0027087Y0027575D01*
X0026987Y0027691D01*
X0026889Y0027809D01*
X0026795Y0027930D01*
X0026704Y0028053D01*
X0026616Y0028179D01*
X0026532Y0028307D01*
X0026450Y0028437D01*
X0026373Y0028569D01*
X0026298Y0028703D01*
X0026227Y0028839D01*
X0026160Y0028977D01*
X0026096Y0029117D01*
X0026036Y0029258D01*
X0025980Y0029400D01*
X0025927Y0029544D01*
X0025878Y0029690D01*
X0025833Y0029836D01*
X0025792Y0029984D01*
X0025755Y0030132D01*
X0025721Y0030282D01*
X0025691Y0030433D01*
X0025666Y0030584D01*
X0025644Y0030735D01*
X0025626Y0030888D01*
X0025612Y0031040D01*
X0025602Y0031193D01*
X0025596Y0031347D01*
X0025594Y0031500D01*
X0154250Y0111500D02*
X0154252Y0111678D01*
X0154259Y0111856D01*
X0154270Y0112033D01*
X0154285Y0112211D01*
X0154305Y0112387D01*
X0154328Y0112564D01*
X0154357Y0112739D01*
X0154389Y0112914D01*
X0154426Y0113088D01*
X0154467Y0113262D01*
X0154513Y0113434D01*
X0154562Y0113605D01*
X0154616Y0113774D01*
X0154674Y0113942D01*
X0154736Y0114109D01*
X0154802Y0114274D01*
X0154872Y0114438D01*
X0154946Y0114600D01*
X0155024Y0114760D01*
X0155106Y0114918D01*
X0155192Y0115074D01*
X0155281Y0115227D01*
X0155375Y0115379D01*
X0155472Y0115528D01*
X0155573Y0115675D01*
X0155677Y0115819D01*
X0155784Y0115960D01*
X0155896Y0116099D01*
X0156010Y0116236D01*
X0156128Y0116369D01*
X0156249Y0116499D01*
X0156373Y0116627D01*
X0156501Y0116751D01*
X0156631Y0116872D01*
X0156764Y0116990D01*
X0156901Y0117104D01*
X0157040Y0117216D01*
X0157181Y0117323D01*
X0157325Y0117427D01*
X0157472Y0117528D01*
X0157621Y0117625D01*
X0157773Y0117719D01*
X0157926Y0117808D01*
X0158082Y0117894D01*
X0158240Y0117976D01*
X0158400Y0118054D01*
X0158562Y0118128D01*
X0158726Y0118198D01*
X0158891Y0118264D01*
X0159058Y0118326D01*
X0159226Y0118384D01*
X0159395Y0118438D01*
X0159566Y0118487D01*
X0159738Y0118533D01*
X0159912Y0118574D01*
X0160086Y0118611D01*
X0160261Y0118643D01*
X0160436Y0118672D01*
X0160613Y0118695D01*
X0160789Y0118715D01*
X0160967Y0118730D01*
X0161144Y0118741D01*
X0161322Y0118748D01*
X0161500Y0118750D01*
X0161678Y0118748D01*
X0161856Y0118741D01*
X0162033Y0118730D01*
X0162211Y0118715D01*
X0162387Y0118695D01*
X0162564Y0118672D01*
X0162739Y0118643D01*
X0162914Y0118611D01*
X0163088Y0118574D01*
X0163262Y0118533D01*
X0163434Y0118487D01*
X0163605Y0118438D01*
X0163774Y0118384D01*
X0163942Y0118326D01*
X0164109Y0118264D01*
X0164274Y0118198D01*
X0164438Y0118128D01*
X0164600Y0118054D01*
X0164760Y0117976D01*
X0164918Y0117894D01*
X0165074Y0117808D01*
X0165227Y0117719D01*
X0165379Y0117625D01*
X0165528Y0117528D01*
X0165675Y0117427D01*
X0165819Y0117323D01*
X0165960Y0117216D01*
X0166099Y0117104D01*
X0166236Y0116990D01*
X0166369Y0116872D01*
X0166499Y0116751D01*
X0166627Y0116627D01*
X0166751Y0116499D01*
X0166872Y0116369D01*
X0166990Y0116236D01*
X0167104Y0116099D01*
X0167216Y0115960D01*
X0167323Y0115819D01*
X0167427Y0115675D01*
X0167528Y0115528D01*
X0167625Y0115379D01*
X0167719Y0115227D01*
X0167808Y0115074D01*
X0167894Y0114918D01*
X0167976Y0114760D01*
X0168054Y0114600D01*
X0168128Y0114438D01*
X0168198Y0114274D01*
X0168264Y0114109D01*
X0168326Y0113942D01*
X0168384Y0113774D01*
X0168438Y0113605D01*
X0168487Y0113434D01*
X0168533Y0113262D01*
X0168574Y0113088D01*
X0168611Y0112914D01*
X0168643Y0112739D01*
X0168672Y0112564D01*
X0168695Y0112387D01*
X0168715Y0112211D01*
X0168730Y0112033D01*
X0168741Y0111856D01*
X0168748Y0111678D01*
X0168750Y0111500D01*
X0168748Y0111322D01*
X0168741Y0111144D01*
X0168730Y0110967D01*
X0168715Y0110789D01*
X0168695Y0110613D01*
X0168672Y0110436D01*
X0168643Y0110261D01*
X0168611Y0110086D01*
X0168574Y0109912D01*
X0168533Y0109738D01*
X0168487Y0109566D01*
X0168438Y0109395D01*
X0168384Y0109226D01*
X0168326Y0109058D01*
X0168264Y0108891D01*
X0168198Y0108726D01*
X0168128Y0108562D01*
X0168054Y0108400D01*
X0167976Y0108240D01*
X0167894Y0108082D01*
X0167808Y0107926D01*
X0167719Y0107773D01*
X0167625Y0107621D01*
X0167528Y0107472D01*
X0167427Y0107325D01*
X0167323Y0107181D01*
X0167216Y0107040D01*
X0167104Y0106901D01*
X0166990Y0106764D01*
X0166872Y0106631D01*
X0166751Y0106501D01*
X0166627Y0106373D01*
X0166499Y0106249D01*
X0166369Y0106128D01*
X0166236Y0106010D01*
X0166099Y0105896D01*
X0165960Y0105784D01*
X0165819Y0105677D01*
X0165675Y0105573D01*
X0165528Y0105472D01*
X0165379Y0105375D01*
X0165227Y0105281D01*
X0165074Y0105192D01*
X0164918Y0105106D01*
X0164760Y0105024D01*
X0164600Y0104946D01*
X0164438Y0104872D01*
X0164274Y0104802D01*
X0164109Y0104736D01*
X0163942Y0104674D01*
X0163774Y0104616D01*
X0163605Y0104562D01*
X0163434Y0104513D01*
X0163262Y0104467D01*
X0163088Y0104426D01*
X0162914Y0104389D01*
X0162739Y0104357D01*
X0162564Y0104328D01*
X0162387Y0104305D01*
X0162211Y0104285D01*
X0162033Y0104270D01*
X0161856Y0104259D01*
X0161678Y0104252D01*
X0161500Y0104250D01*
X0161322Y0104252D01*
X0161144Y0104259D01*
X0160967Y0104270D01*
X0160789Y0104285D01*
X0160613Y0104305D01*
X0160436Y0104328D01*
X0160261Y0104357D01*
X0160086Y0104389D01*
X0159912Y0104426D01*
X0159738Y0104467D01*
X0159566Y0104513D01*
X0159395Y0104562D01*
X0159226Y0104616D01*
X0159058Y0104674D01*
X0158891Y0104736D01*
X0158726Y0104802D01*
X0158562Y0104872D01*
X0158400Y0104946D01*
X0158240Y0105024D01*
X0158082Y0105106D01*
X0157926Y0105192D01*
X0157773Y0105281D01*
X0157621Y0105375D01*
X0157472Y0105472D01*
X0157325Y0105573D01*
X0157181Y0105677D01*
X0157040Y0105784D01*
X0156901Y0105896D01*
X0156764Y0106010D01*
X0156631Y0106128D01*
X0156501Y0106249D01*
X0156373Y0106373D01*
X0156249Y0106501D01*
X0156128Y0106631D01*
X0156010Y0106764D01*
X0155896Y0106901D01*
X0155784Y0107040D01*
X0155677Y0107181D01*
X0155573Y0107325D01*
X0155472Y0107472D01*
X0155375Y0107621D01*
X0155281Y0107773D01*
X0155192Y0107926D01*
X0155106Y0108082D01*
X0155024Y0108240D01*
X0154946Y0108400D01*
X0154872Y0108562D01*
X0154802Y0108726D01*
X0154736Y0108891D01*
X0154674Y0109058D01*
X0154616Y0109226D01*
X0154562Y0109395D01*
X0154513Y0109566D01*
X0154467Y0109738D01*
X0154426Y0109912D01*
X0154389Y0110086D01*
X0154357Y0110261D01*
X0154328Y0110436D01*
X0154305Y0110613D01*
X0154285Y0110789D01*
X0154270Y0110967D01*
X0154259Y0111144D01*
X0154252Y0111322D01*
X0154250Y0111500D01*
X0238250Y0129500D02*
X0238252Y0129678D01*
X0238259Y0129856D01*
X0238270Y0130033D01*
X0238285Y0130211D01*
X0238305Y0130387D01*
X0238328Y0130564D01*
X0238357Y0130739D01*
X0238389Y0130914D01*
X0238426Y0131088D01*
X0238467Y0131262D01*
X0238513Y0131434D01*
X0238562Y0131605D01*
X0238616Y0131774D01*
X0238674Y0131942D01*
X0238736Y0132109D01*
X0238802Y0132274D01*
X0238872Y0132438D01*
X0238946Y0132600D01*
X0239024Y0132760D01*
X0239106Y0132918D01*
X0239192Y0133074D01*
X0239281Y0133227D01*
X0239375Y0133379D01*
X0239472Y0133528D01*
X0239573Y0133675D01*
X0239677Y0133819D01*
X0239784Y0133960D01*
X0239896Y0134099D01*
X0240010Y0134236D01*
X0240128Y0134369D01*
X0240249Y0134499D01*
X0240373Y0134627D01*
X0240501Y0134751D01*
X0240631Y0134872D01*
X0240764Y0134990D01*
X0240901Y0135104D01*
X0241040Y0135216D01*
X0241181Y0135323D01*
X0241325Y0135427D01*
X0241472Y0135528D01*
X0241621Y0135625D01*
X0241773Y0135719D01*
X0241926Y0135808D01*
X0242082Y0135894D01*
X0242240Y0135976D01*
X0242400Y0136054D01*
X0242562Y0136128D01*
X0242726Y0136198D01*
X0242891Y0136264D01*
X0243058Y0136326D01*
X0243226Y0136384D01*
X0243395Y0136438D01*
X0243566Y0136487D01*
X0243738Y0136533D01*
X0243912Y0136574D01*
X0244086Y0136611D01*
X0244261Y0136643D01*
X0244436Y0136672D01*
X0244613Y0136695D01*
X0244789Y0136715D01*
X0244967Y0136730D01*
X0245144Y0136741D01*
X0245322Y0136748D01*
X0245500Y0136750D01*
X0245678Y0136748D01*
X0245856Y0136741D01*
X0246033Y0136730D01*
X0246211Y0136715D01*
X0246387Y0136695D01*
X0246564Y0136672D01*
X0246739Y0136643D01*
X0246914Y0136611D01*
X0247088Y0136574D01*
X0247262Y0136533D01*
X0247434Y0136487D01*
X0247605Y0136438D01*
X0247774Y0136384D01*
X0247942Y0136326D01*
X0248109Y0136264D01*
X0248274Y0136198D01*
X0248438Y0136128D01*
X0248600Y0136054D01*
X0248760Y0135976D01*
X0248918Y0135894D01*
X0249074Y0135808D01*
X0249227Y0135719D01*
X0249379Y0135625D01*
X0249528Y0135528D01*
X0249675Y0135427D01*
X0249819Y0135323D01*
X0249960Y0135216D01*
X0250099Y0135104D01*
X0250236Y0134990D01*
X0250369Y0134872D01*
X0250499Y0134751D01*
X0250627Y0134627D01*
X0250751Y0134499D01*
X0250872Y0134369D01*
X0250990Y0134236D01*
X0251104Y0134099D01*
X0251216Y0133960D01*
X0251323Y0133819D01*
X0251427Y0133675D01*
X0251528Y0133528D01*
X0251625Y0133379D01*
X0251719Y0133227D01*
X0251808Y0133074D01*
X0251894Y0132918D01*
X0251976Y0132760D01*
X0252054Y0132600D01*
X0252128Y0132438D01*
X0252198Y0132274D01*
X0252264Y0132109D01*
X0252326Y0131942D01*
X0252384Y0131774D01*
X0252438Y0131605D01*
X0252487Y0131434D01*
X0252533Y0131262D01*
X0252574Y0131088D01*
X0252611Y0130914D01*
X0252643Y0130739D01*
X0252672Y0130564D01*
X0252695Y0130387D01*
X0252715Y0130211D01*
X0252730Y0130033D01*
X0252741Y0129856D01*
X0252748Y0129678D01*
X0252750Y0129500D01*
X0252748Y0129322D01*
X0252741Y0129144D01*
X0252730Y0128967D01*
X0252715Y0128789D01*
X0252695Y0128613D01*
X0252672Y0128436D01*
X0252643Y0128261D01*
X0252611Y0128086D01*
X0252574Y0127912D01*
X0252533Y0127738D01*
X0252487Y0127566D01*
X0252438Y0127395D01*
X0252384Y0127226D01*
X0252326Y0127058D01*
X0252264Y0126891D01*
X0252198Y0126726D01*
X0252128Y0126562D01*
X0252054Y0126400D01*
X0251976Y0126240D01*
X0251894Y0126082D01*
X0251808Y0125926D01*
X0251719Y0125773D01*
X0251625Y0125621D01*
X0251528Y0125472D01*
X0251427Y0125325D01*
X0251323Y0125181D01*
X0251216Y0125040D01*
X0251104Y0124901D01*
X0250990Y0124764D01*
X0250872Y0124631D01*
X0250751Y0124501D01*
X0250627Y0124373D01*
X0250499Y0124249D01*
X0250369Y0124128D01*
X0250236Y0124010D01*
X0250099Y0123896D01*
X0249960Y0123784D01*
X0249819Y0123677D01*
X0249675Y0123573D01*
X0249528Y0123472D01*
X0249379Y0123375D01*
X0249227Y0123281D01*
X0249074Y0123192D01*
X0248918Y0123106D01*
X0248760Y0123024D01*
X0248600Y0122946D01*
X0248438Y0122872D01*
X0248274Y0122802D01*
X0248109Y0122736D01*
X0247942Y0122674D01*
X0247774Y0122616D01*
X0247605Y0122562D01*
X0247434Y0122513D01*
X0247262Y0122467D01*
X0247088Y0122426D01*
X0246914Y0122389D01*
X0246739Y0122357D01*
X0246564Y0122328D01*
X0246387Y0122305D01*
X0246211Y0122285D01*
X0246033Y0122270D01*
X0245856Y0122259D01*
X0245678Y0122252D01*
X0245500Y0122250D01*
X0245322Y0122252D01*
X0245144Y0122259D01*
X0244967Y0122270D01*
X0244789Y0122285D01*
X0244613Y0122305D01*
X0244436Y0122328D01*
X0244261Y0122357D01*
X0244086Y0122389D01*
X0243912Y0122426D01*
X0243738Y0122467D01*
X0243566Y0122513D01*
X0243395Y0122562D01*
X0243226Y0122616D01*
X0243058Y0122674D01*
X0242891Y0122736D01*
X0242726Y0122802D01*
X0242562Y0122872D01*
X0242400Y0122946D01*
X0242240Y0123024D01*
X0242082Y0123106D01*
X0241926Y0123192D01*
X0241773Y0123281D01*
X0241621Y0123375D01*
X0241472Y0123472D01*
X0241325Y0123573D01*
X0241181Y0123677D01*
X0241040Y0123784D01*
X0240901Y0123896D01*
X0240764Y0124010D01*
X0240631Y0124128D01*
X0240501Y0124249D01*
X0240373Y0124373D01*
X0240249Y0124501D01*
X0240128Y0124631D01*
X0240010Y0124764D01*
X0239896Y0124901D01*
X0239784Y0125040D01*
X0239677Y0125181D01*
X0239573Y0125325D01*
X0239472Y0125472D01*
X0239375Y0125621D01*
X0239281Y0125773D01*
X0239192Y0125926D01*
X0239106Y0126082D01*
X0239024Y0126240D01*
X0238946Y0126400D01*
X0238872Y0126562D01*
X0238802Y0126726D01*
X0238736Y0126891D01*
X0238674Y0127058D01*
X0238616Y0127226D01*
X0238562Y0127395D01*
X0238513Y0127566D01*
X0238467Y0127738D01*
X0238426Y0127912D01*
X0238389Y0128086D01*
X0238357Y0128261D01*
X0238328Y0128436D01*
X0238305Y0128613D01*
X0238285Y0128789D01*
X0238270Y0128967D01*
X0238259Y0129144D01*
X0238252Y0129322D01*
X0238250Y0129500D01*
X0355594Y0146500D02*
X0355596Y0146653D01*
X0355602Y0146807D01*
X0355612Y0146960D01*
X0355626Y0147112D01*
X0355644Y0147265D01*
X0355666Y0147416D01*
X0355691Y0147567D01*
X0355721Y0147718D01*
X0355755Y0147868D01*
X0355792Y0148016D01*
X0355833Y0148164D01*
X0355878Y0148310D01*
X0355927Y0148456D01*
X0355980Y0148600D01*
X0356036Y0148742D01*
X0356096Y0148883D01*
X0356160Y0149023D01*
X0356227Y0149161D01*
X0356298Y0149297D01*
X0356373Y0149431D01*
X0356450Y0149563D01*
X0356532Y0149693D01*
X0356616Y0149821D01*
X0356704Y0149947D01*
X0356795Y0150070D01*
X0356889Y0150191D01*
X0356987Y0150309D01*
X0357087Y0150425D01*
X0357191Y0150538D01*
X0357297Y0150649D01*
X0357406Y0150757D01*
X0357518Y0150862D01*
X0357632Y0150963D01*
X0357750Y0151062D01*
X0357869Y0151158D01*
X0357991Y0151251D01*
X0358116Y0151340D01*
X0358243Y0151427D01*
X0358372Y0151509D01*
X0358503Y0151589D01*
X0358636Y0151665D01*
X0358771Y0151738D01*
X0358908Y0151807D01*
X0359047Y0151872D01*
X0359187Y0151934D01*
X0359329Y0151992D01*
X0359472Y0152047D01*
X0359617Y0152098D01*
X0359763Y0152145D01*
X0359910Y0152188D01*
X0360058Y0152227D01*
X0360207Y0152263D01*
X0360357Y0152294D01*
X0360508Y0152322D01*
X0360659Y0152346D01*
X0360812Y0152366D01*
X0360964Y0152382D01*
X0361117Y0152394D01*
X0361270Y0152402D01*
X0361423Y0152406D01*
X0361577Y0152406D01*
X0361730Y0152402D01*
X0361883Y0152394D01*
X0362036Y0152382D01*
X0362188Y0152366D01*
X0362341Y0152346D01*
X0362492Y0152322D01*
X0362643Y0152294D01*
X0362793Y0152263D01*
X0362942Y0152227D01*
X0363090Y0152188D01*
X0363237Y0152145D01*
X0363383Y0152098D01*
X0363528Y0152047D01*
X0363671Y0151992D01*
X0363813Y0151934D01*
X0363953Y0151872D01*
X0364092Y0151807D01*
X0364229Y0151738D01*
X0364364Y0151665D01*
X0364497Y0151589D01*
X0364628Y0151509D01*
X0364757Y0151427D01*
X0364884Y0151340D01*
X0365009Y0151251D01*
X0365131Y0151158D01*
X0365250Y0151062D01*
X0365368Y0150963D01*
X0365482Y0150862D01*
X0365594Y0150757D01*
X0365703Y0150649D01*
X0365809Y0150538D01*
X0365913Y0150425D01*
X0366013Y0150309D01*
X0366111Y0150191D01*
X0366205Y0150070D01*
X0366296Y0149947D01*
X0366384Y0149821D01*
X0366468Y0149693D01*
X0366550Y0149563D01*
X0366627Y0149431D01*
X0366702Y0149297D01*
X0366773Y0149161D01*
X0366840Y0149023D01*
X0366904Y0148883D01*
X0366964Y0148742D01*
X0367020Y0148600D01*
X0367073Y0148456D01*
X0367122Y0148310D01*
X0367167Y0148164D01*
X0367208Y0148016D01*
X0367245Y0147868D01*
X0367279Y0147718D01*
X0367309Y0147567D01*
X0367334Y0147416D01*
X0367356Y0147265D01*
X0367374Y0147112D01*
X0367388Y0146960D01*
X0367398Y0146807D01*
X0367404Y0146653D01*
X0367406Y0146500D01*
X0367404Y0146347D01*
X0367398Y0146193D01*
X0367388Y0146040D01*
X0367374Y0145888D01*
X0367356Y0145735D01*
X0367334Y0145584D01*
X0367309Y0145433D01*
X0367279Y0145282D01*
X0367245Y0145132D01*
X0367208Y0144984D01*
X0367167Y0144836D01*
X0367122Y0144690D01*
X0367073Y0144544D01*
X0367020Y0144400D01*
X0366964Y0144258D01*
X0366904Y0144117D01*
X0366840Y0143977D01*
X0366773Y0143839D01*
X0366702Y0143703D01*
X0366627Y0143569D01*
X0366550Y0143437D01*
X0366468Y0143307D01*
X0366384Y0143179D01*
X0366296Y0143053D01*
X0366205Y0142930D01*
X0366111Y0142809D01*
X0366013Y0142691D01*
X0365913Y0142575D01*
X0365809Y0142462D01*
X0365703Y0142351D01*
X0365594Y0142243D01*
X0365482Y0142138D01*
X0365368Y0142037D01*
X0365250Y0141938D01*
X0365131Y0141842D01*
X0365009Y0141749D01*
X0364884Y0141660D01*
X0364757Y0141573D01*
X0364628Y0141491D01*
X0364497Y0141411D01*
X0364364Y0141335D01*
X0364229Y0141262D01*
X0364092Y0141193D01*
X0363953Y0141128D01*
X0363813Y0141066D01*
X0363671Y0141008D01*
X0363528Y0140953D01*
X0363383Y0140902D01*
X0363237Y0140855D01*
X0363090Y0140812D01*
X0362942Y0140773D01*
X0362793Y0140737D01*
X0362643Y0140706D01*
X0362492Y0140678D01*
X0362341Y0140654D01*
X0362188Y0140634D01*
X0362036Y0140618D01*
X0361883Y0140606D01*
X0361730Y0140598D01*
X0361577Y0140594D01*
X0361423Y0140594D01*
X0361270Y0140598D01*
X0361117Y0140606D01*
X0360964Y0140618D01*
X0360812Y0140634D01*
X0360659Y0140654D01*
X0360508Y0140678D01*
X0360357Y0140706D01*
X0360207Y0140737D01*
X0360058Y0140773D01*
X0359910Y0140812D01*
X0359763Y0140855D01*
X0359617Y0140902D01*
X0359472Y0140953D01*
X0359329Y0141008D01*
X0359187Y0141066D01*
X0359047Y0141128D01*
X0358908Y0141193D01*
X0358771Y0141262D01*
X0358636Y0141335D01*
X0358503Y0141411D01*
X0358372Y0141491D01*
X0358243Y0141573D01*
X0358116Y0141660D01*
X0357991Y0141749D01*
X0357869Y0141842D01*
X0357750Y0141938D01*
X0357632Y0142037D01*
X0357518Y0142138D01*
X0357406Y0142243D01*
X0357297Y0142351D01*
X0357191Y0142462D01*
X0357087Y0142575D01*
X0356987Y0142691D01*
X0356889Y0142809D01*
X0356795Y0142930D01*
X0356704Y0143053D01*
X0356616Y0143179D01*
X0356532Y0143307D01*
X0356450Y0143437D01*
X0356373Y0143569D01*
X0356298Y0143703D01*
X0356227Y0143839D01*
X0356160Y0143977D01*
X0356096Y0144117D01*
X0356036Y0144258D01*
X0355980Y0144400D01*
X0355927Y0144544D01*
X0355878Y0144690D01*
X0355833Y0144836D01*
X0355792Y0144984D01*
X0355755Y0145132D01*
X0355721Y0145282D01*
X0355691Y0145433D01*
X0355666Y0145584D01*
X0355644Y0145735D01*
X0355626Y0145888D01*
X0355612Y0146040D01*
X0355602Y0146193D01*
X0355596Y0146347D01*
X0355594Y0146500D01*
X0355594Y0031500D02*
X0355596Y0031653D01*
X0355602Y0031807D01*
X0355612Y0031960D01*
X0355626Y0032112D01*
X0355644Y0032265D01*
X0355666Y0032416D01*
X0355691Y0032567D01*
X0355721Y0032718D01*
X0355755Y0032868D01*
X0355792Y0033016D01*
X0355833Y0033164D01*
X0355878Y0033310D01*
X0355927Y0033456D01*
X0355980Y0033600D01*
X0356036Y0033742D01*
X0356096Y0033883D01*
X0356160Y0034023D01*
X0356227Y0034161D01*
X0356298Y0034297D01*
X0356373Y0034431D01*
X0356450Y0034563D01*
X0356532Y0034693D01*
X0356616Y0034821D01*
X0356704Y0034947D01*
X0356795Y0035070D01*
X0356889Y0035191D01*
X0356987Y0035309D01*
X0357087Y0035425D01*
X0357191Y0035538D01*
X0357297Y0035649D01*
X0357406Y0035757D01*
X0357518Y0035862D01*
X0357632Y0035963D01*
X0357750Y0036062D01*
X0357869Y0036158D01*
X0357991Y0036251D01*
X0358116Y0036340D01*
X0358243Y0036427D01*
X0358372Y0036509D01*
X0358503Y0036589D01*
X0358636Y0036665D01*
X0358771Y0036738D01*
X0358908Y0036807D01*
X0359047Y0036872D01*
X0359187Y0036934D01*
X0359329Y0036992D01*
X0359472Y0037047D01*
X0359617Y0037098D01*
X0359763Y0037145D01*
X0359910Y0037188D01*
X0360058Y0037227D01*
X0360207Y0037263D01*
X0360357Y0037294D01*
X0360508Y0037322D01*
X0360659Y0037346D01*
X0360812Y0037366D01*
X0360964Y0037382D01*
X0361117Y0037394D01*
X0361270Y0037402D01*
X0361423Y0037406D01*
X0361577Y0037406D01*
X0361730Y0037402D01*
X0361883Y0037394D01*
X0362036Y0037382D01*
X0362188Y0037366D01*
X0362341Y0037346D01*
X0362492Y0037322D01*
X0362643Y0037294D01*
X0362793Y0037263D01*
X0362942Y0037227D01*
X0363090Y0037188D01*
X0363237Y0037145D01*
X0363383Y0037098D01*
X0363528Y0037047D01*
X0363671Y0036992D01*
X0363813Y0036934D01*
X0363953Y0036872D01*
X0364092Y0036807D01*
X0364229Y0036738D01*
X0364364Y0036665D01*
X0364497Y0036589D01*
X0364628Y0036509D01*
X0364757Y0036427D01*
X0364884Y0036340D01*
X0365009Y0036251D01*
X0365131Y0036158D01*
X0365250Y0036062D01*
X0365368Y0035963D01*
X0365482Y0035862D01*
X0365594Y0035757D01*
X0365703Y0035649D01*
X0365809Y0035538D01*
X0365913Y0035425D01*
X0366013Y0035309D01*
X0366111Y0035191D01*
X0366205Y0035070D01*
X0366296Y0034947D01*
X0366384Y0034821D01*
X0366468Y0034693D01*
X0366550Y0034563D01*
X0366627Y0034431D01*
X0366702Y0034297D01*
X0366773Y0034161D01*
X0366840Y0034023D01*
X0366904Y0033883D01*
X0366964Y0033742D01*
X0367020Y0033600D01*
X0367073Y0033456D01*
X0367122Y0033310D01*
X0367167Y0033164D01*
X0367208Y0033016D01*
X0367245Y0032868D01*
X0367279Y0032718D01*
X0367309Y0032567D01*
X0367334Y0032416D01*
X0367356Y0032265D01*
X0367374Y0032112D01*
X0367388Y0031960D01*
X0367398Y0031807D01*
X0367404Y0031653D01*
X0367406Y0031500D01*
X0367404Y0031347D01*
X0367398Y0031193D01*
X0367388Y0031040D01*
X0367374Y0030888D01*
X0367356Y0030735D01*
X0367334Y0030584D01*
X0367309Y0030433D01*
X0367279Y0030282D01*
X0367245Y0030132D01*
X0367208Y0029984D01*
X0367167Y0029836D01*
X0367122Y0029690D01*
X0367073Y0029544D01*
X0367020Y0029400D01*
X0366964Y0029258D01*
X0366904Y0029117D01*
X0366840Y0028977D01*
X0366773Y0028839D01*
X0366702Y0028703D01*
X0366627Y0028569D01*
X0366550Y0028437D01*
X0366468Y0028307D01*
X0366384Y0028179D01*
X0366296Y0028053D01*
X0366205Y0027930D01*
X0366111Y0027809D01*
X0366013Y0027691D01*
X0365913Y0027575D01*
X0365809Y0027462D01*
X0365703Y0027351D01*
X0365594Y0027243D01*
X0365482Y0027138D01*
X0365368Y0027037D01*
X0365250Y0026938D01*
X0365131Y0026842D01*
X0365009Y0026749D01*
X0364884Y0026660D01*
X0364757Y0026573D01*
X0364628Y0026491D01*
X0364497Y0026411D01*
X0364364Y0026335D01*
X0364229Y0026262D01*
X0364092Y0026193D01*
X0363953Y0026128D01*
X0363813Y0026066D01*
X0363671Y0026008D01*
X0363528Y0025953D01*
X0363383Y0025902D01*
X0363237Y0025855D01*
X0363090Y0025812D01*
X0362942Y0025773D01*
X0362793Y0025737D01*
X0362643Y0025706D01*
X0362492Y0025678D01*
X0362341Y0025654D01*
X0362188Y0025634D01*
X0362036Y0025618D01*
X0361883Y0025606D01*
X0361730Y0025598D01*
X0361577Y0025594D01*
X0361423Y0025594D01*
X0361270Y0025598D01*
X0361117Y0025606D01*
X0360964Y0025618D01*
X0360812Y0025634D01*
X0360659Y0025654D01*
X0360508Y0025678D01*
X0360357Y0025706D01*
X0360207Y0025737D01*
X0360058Y0025773D01*
X0359910Y0025812D01*
X0359763Y0025855D01*
X0359617Y0025902D01*
X0359472Y0025953D01*
X0359329Y0026008D01*
X0359187Y0026066D01*
X0359047Y0026128D01*
X0358908Y0026193D01*
X0358771Y0026262D01*
X0358636Y0026335D01*
X0358503Y0026411D01*
X0358372Y0026491D01*
X0358243Y0026573D01*
X0358116Y0026660D01*
X0357991Y0026749D01*
X0357869Y0026842D01*
X0357750Y0026938D01*
X0357632Y0027037D01*
X0357518Y0027138D01*
X0357406Y0027243D01*
X0357297Y0027351D01*
X0357191Y0027462D01*
X0357087Y0027575D01*
X0356987Y0027691D01*
X0356889Y0027809D01*
X0356795Y0027930D01*
X0356704Y0028053D01*
X0356616Y0028179D01*
X0356532Y0028307D01*
X0356450Y0028437D01*
X0356373Y0028569D01*
X0356298Y0028703D01*
X0356227Y0028839D01*
X0356160Y0028977D01*
X0356096Y0029117D01*
X0356036Y0029258D01*
X0355980Y0029400D01*
X0355927Y0029544D01*
X0355878Y0029690D01*
X0355833Y0029836D01*
X0355792Y0029984D01*
X0355755Y0030132D01*
X0355721Y0030282D01*
X0355691Y0030433D01*
X0355666Y0030584D01*
X0355644Y0030735D01*
X0355626Y0030888D01*
X0355612Y0031040D01*
X0355602Y0031193D01*
X0355596Y0031347D01*
X0355594Y0031500D01*
X0025594Y0146500D02*
X0025596Y0146653D01*
X0025602Y0146807D01*
X0025612Y0146960D01*
X0025626Y0147112D01*
X0025644Y0147265D01*
X0025666Y0147416D01*
X0025691Y0147567D01*
X0025721Y0147718D01*
X0025755Y0147868D01*
X0025792Y0148016D01*
X0025833Y0148164D01*
X0025878Y0148310D01*
X0025927Y0148456D01*
X0025980Y0148600D01*
X0026036Y0148742D01*
X0026096Y0148883D01*
X0026160Y0149023D01*
X0026227Y0149161D01*
X0026298Y0149297D01*
X0026373Y0149431D01*
X0026450Y0149563D01*
X0026532Y0149693D01*
X0026616Y0149821D01*
X0026704Y0149947D01*
X0026795Y0150070D01*
X0026889Y0150191D01*
X0026987Y0150309D01*
X0027087Y0150425D01*
X0027191Y0150538D01*
X0027297Y0150649D01*
X0027406Y0150757D01*
X0027518Y0150862D01*
X0027632Y0150963D01*
X0027750Y0151062D01*
X0027869Y0151158D01*
X0027991Y0151251D01*
X0028116Y0151340D01*
X0028243Y0151427D01*
X0028372Y0151509D01*
X0028503Y0151589D01*
X0028636Y0151665D01*
X0028771Y0151738D01*
X0028908Y0151807D01*
X0029047Y0151872D01*
X0029187Y0151934D01*
X0029329Y0151992D01*
X0029472Y0152047D01*
X0029617Y0152098D01*
X0029763Y0152145D01*
X0029910Y0152188D01*
X0030058Y0152227D01*
X0030207Y0152263D01*
X0030357Y0152294D01*
X0030508Y0152322D01*
X0030659Y0152346D01*
X0030812Y0152366D01*
X0030964Y0152382D01*
X0031117Y0152394D01*
X0031270Y0152402D01*
X0031423Y0152406D01*
X0031577Y0152406D01*
X0031730Y0152402D01*
X0031883Y0152394D01*
X0032036Y0152382D01*
X0032188Y0152366D01*
X0032341Y0152346D01*
X0032492Y0152322D01*
X0032643Y0152294D01*
X0032793Y0152263D01*
X0032942Y0152227D01*
X0033090Y0152188D01*
X0033237Y0152145D01*
X0033383Y0152098D01*
X0033528Y0152047D01*
X0033671Y0151992D01*
X0033813Y0151934D01*
X0033953Y0151872D01*
X0034092Y0151807D01*
X0034229Y0151738D01*
X0034364Y0151665D01*
X0034497Y0151589D01*
X0034628Y0151509D01*
X0034757Y0151427D01*
X0034884Y0151340D01*
X0035009Y0151251D01*
X0035131Y0151158D01*
X0035250Y0151062D01*
X0035368Y0150963D01*
X0035482Y0150862D01*
X0035594Y0150757D01*
X0035703Y0150649D01*
X0035809Y0150538D01*
X0035913Y0150425D01*
X0036013Y0150309D01*
X0036111Y0150191D01*
X0036205Y0150070D01*
X0036296Y0149947D01*
X0036384Y0149821D01*
X0036468Y0149693D01*
X0036550Y0149563D01*
X0036627Y0149431D01*
X0036702Y0149297D01*
X0036773Y0149161D01*
X0036840Y0149023D01*
X0036904Y0148883D01*
X0036964Y0148742D01*
X0037020Y0148600D01*
X0037073Y0148456D01*
X0037122Y0148310D01*
X0037167Y0148164D01*
X0037208Y0148016D01*
X0037245Y0147868D01*
X0037279Y0147718D01*
X0037309Y0147567D01*
X0037334Y0147416D01*
X0037356Y0147265D01*
X0037374Y0147112D01*
X0037388Y0146960D01*
X0037398Y0146807D01*
X0037404Y0146653D01*
X0037406Y0146500D01*
X0037404Y0146347D01*
X0037398Y0146193D01*
X0037388Y0146040D01*
X0037374Y0145888D01*
X0037356Y0145735D01*
X0037334Y0145584D01*
X0037309Y0145433D01*
X0037279Y0145282D01*
X0037245Y0145132D01*
X0037208Y0144984D01*
X0037167Y0144836D01*
X0037122Y0144690D01*
X0037073Y0144544D01*
X0037020Y0144400D01*
X0036964Y0144258D01*
X0036904Y0144117D01*
X0036840Y0143977D01*
X0036773Y0143839D01*
X0036702Y0143703D01*
X0036627Y0143569D01*
X0036550Y0143437D01*
X0036468Y0143307D01*
X0036384Y0143179D01*
X0036296Y0143053D01*
X0036205Y0142930D01*
X0036111Y0142809D01*
X0036013Y0142691D01*
X0035913Y0142575D01*
X0035809Y0142462D01*
X0035703Y0142351D01*
X0035594Y0142243D01*
X0035482Y0142138D01*
X0035368Y0142037D01*
X0035250Y0141938D01*
X0035131Y0141842D01*
X0035009Y0141749D01*
X0034884Y0141660D01*
X0034757Y0141573D01*
X0034628Y0141491D01*
X0034497Y0141411D01*
X0034364Y0141335D01*
X0034229Y0141262D01*
X0034092Y0141193D01*
X0033953Y0141128D01*
X0033813Y0141066D01*
X0033671Y0141008D01*
X0033528Y0140953D01*
X0033383Y0140902D01*
X0033237Y0140855D01*
X0033090Y0140812D01*
X0032942Y0140773D01*
X0032793Y0140737D01*
X0032643Y0140706D01*
X0032492Y0140678D01*
X0032341Y0140654D01*
X0032188Y0140634D01*
X0032036Y0140618D01*
X0031883Y0140606D01*
X0031730Y0140598D01*
X0031577Y0140594D01*
X0031423Y0140594D01*
X0031270Y0140598D01*
X0031117Y0140606D01*
X0030964Y0140618D01*
X0030812Y0140634D01*
X0030659Y0140654D01*
X0030508Y0140678D01*
X0030357Y0140706D01*
X0030207Y0140737D01*
X0030058Y0140773D01*
X0029910Y0140812D01*
X0029763Y0140855D01*
X0029617Y0140902D01*
X0029472Y0140953D01*
X0029329Y0141008D01*
X0029187Y0141066D01*
X0029047Y0141128D01*
X0028908Y0141193D01*
X0028771Y0141262D01*
X0028636Y0141335D01*
X0028503Y0141411D01*
X0028372Y0141491D01*
X0028243Y0141573D01*
X0028116Y0141660D01*
X0027991Y0141749D01*
X0027869Y0141842D01*
X0027750Y0141938D01*
X0027632Y0142037D01*
X0027518Y0142138D01*
X0027406Y0142243D01*
X0027297Y0142351D01*
X0027191Y0142462D01*
X0027087Y0142575D01*
X0026987Y0142691D01*
X0026889Y0142809D01*
X0026795Y0142930D01*
X0026704Y0143053D01*
X0026616Y0143179D01*
X0026532Y0143307D01*
X0026450Y0143437D01*
X0026373Y0143569D01*
X0026298Y0143703D01*
X0026227Y0143839D01*
X0026160Y0143977D01*
X0026096Y0144117D01*
X0026036Y0144258D01*
X0025980Y0144400D01*
X0025927Y0144544D01*
X0025878Y0144690D01*
X0025833Y0144836D01*
X0025792Y0144984D01*
X0025755Y0145132D01*
X0025721Y0145282D01*
X0025691Y0145433D01*
X0025666Y0145584D01*
X0025644Y0145735D01*
X0025626Y0145888D01*
X0025612Y0146040D01*
X0025602Y0146193D01*
X0025596Y0146347D01*
X0025594Y0146500D01*
D11*
X0081500Y0071657D03*
D12*
X0081500Y0091343D03*
D13*
X0186500Y0081500D03*
X0186500Y0061500D03*
X0186500Y0041500D03*
X0186500Y0021500D03*
D14*
X0125925Y0136500D02*
X0117075Y0136500D01*
X0065925Y0136500D02*
X0057075Y0136500D01*
D15*
X0064000Y0046500D03*
X0074000Y0046500D03*
X0084000Y0046500D03*
X0094000Y0046500D03*
X0104000Y0046500D03*
X0114000Y0046500D03*
X0114000Y0036500D03*
X0104000Y0036500D03*
X0094000Y0036500D03*
X0084000Y0036500D03*
X0074000Y0036500D03*
X0064000Y0036500D03*
D16*
X0036500Y0114295D03*
X0226500Y0073705D03*
X0286500Y0067091D03*
X0356500Y0117091D03*
X0314295Y0126500D03*
D17*
X0298705Y0126500D03*
X0356500Y0101500D03*
X0356500Y0085909D03*
X0286500Y0051500D03*
X0286500Y0035909D03*
X0226500Y0089295D03*
X0036500Y0098705D03*
D18*
X0146500Y0118311D03*
X0176500Y0104689D03*
X0230500Y0136311D03*
X0260500Y0122689D03*
D19*
X0131500Y0061500D03*
D20*
X0131500Y0051500D03*
X0131500Y0041500D03*
D21*
X0126500Y0041500D01*
X0121500Y0046500D01*
X0114000Y0046500D01*
X0104000Y0046500D01*
X0094000Y0046500D01*
X0084000Y0046500D01*
X0074000Y0046500D01*
X0064000Y0046500D01*
X0131500Y0041500D02*
X0186500Y0041500D01*
X0226500Y0041500D01*
X0232091Y0035909D01*
X0286500Y0035909D01*
X0336500Y0085909D01*
X0356500Y0085909D01*
X0336500Y0117091D02*
X0314295Y0094886D01*
X0314295Y0126500D01*
X0298705Y0126500D02*
X0293705Y0131500D01*
X0269311Y0131500D01*
X0260500Y0122689D01*
X0230500Y0136311D02*
X0215311Y0151500D01*
X0136500Y0151500D01*
X0121500Y0136500D01*
X0121500Y0126500D01*
X0121500Y0106500D01*
X0106343Y0091343D01*
X0081500Y0091343D01*
X0081343Y0091500D01*
X0076500Y0091500D01*
X0054295Y0114295D02*
X0036500Y0114295D01*
X0054295Y0114295D02*
X0061500Y0121500D01*
X0061500Y0136500D01*
X0121500Y0126500D02*
X0128830Y0119170D01*
X0145641Y0119170D01*
X0146500Y0118311D01*
X0176500Y0104689D02*
X0211106Y0104689D01*
X0226500Y0089295D01*
X0226500Y0073705D02*
X0203705Y0073705D01*
X0191500Y0061500D01*
X0186500Y0061500D01*
X0131500Y0061500D01*
X0286500Y0067091D02*
X0314295Y0094886D01*
X0336500Y0117091D02*
X0356500Y0117091D01*
M02*
