G75*
%MOIN*%
%OFA0B0*%
%FSLAX25Y25*%
%IPPOS*%
%LPD*%
%AMOC8*
5,1,8,0,0,1.08239X$1,22.5*
%
%ADD10C,0.01000*%
%ADD11C,0.00600*%
%ADD12C,0.00400*%
%ADD13C,0.00500*%
%ADD14C,0.00300*%
%ADD15C,0.00800*%
%ADD16C,0.01200*%
%ADD17C,0.00700*%
%ADD18R,0.02000X0.36000*%
%ADD19R,0.05000X0.05000*%
D10*
X0019689Y0031500D02*
X0019693Y0031790D01*
X0019703Y0032080D01*
X0019721Y0032369D01*
X0019746Y0032658D01*
X0019778Y0032946D01*
X0019817Y0033233D01*
X0019863Y0033519D01*
X0019916Y0033804D01*
X0019976Y0034088D01*
X0020043Y0034370D01*
X0020117Y0034650D01*
X0020198Y0034929D01*
X0020285Y0035205D01*
X0020379Y0035479D01*
X0020480Y0035751D01*
X0020588Y0036020D01*
X0020702Y0036286D01*
X0020823Y0036550D01*
X0020950Y0036810D01*
X0021084Y0037068D01*
X0021223Y0037322D01*
X0021369Y0037572D01*
X0021521Y0037819D01*
X0021680Y0038062D01*
X0021844Y0038301D01*
X0022013Y0038536D01*
X0022189Y0038767D01*
X0022370Y0038993D01*
X0022557Y0039215D01*
X0022749Y0039432D01*
X0022946Y0039644D01*
X0023148Y0039852D01*
X0023356Y0040054D01*
X0023568Y0040251D01*
X0023785Y0040443D01*
X0024007Y0040630D01*
X0024233Y0040811D01*
X0024464Y0040987D01*
X0024699Y0041156D01*
X0024938Y0041320D01*
X0025181Y0041479D01*
X0025428Y0041631D01*
X0025678Y0041777D01*
X0025932Y0041916D01*
X0026190Y0042050D01*
X0026450Y0042177D01*
X0026714Y0042298D01*
X0026980Y0042412D01*
X0027249Y0042520D01*
X0027521Y0042621D01*
X0027795Y0042715D01*
X0028071Y0042802D01*
X0028350Y0042883D01*
X0028630Y0042957D01*
X0028912Y0043024D01*
X0029196Y0043084D01*
X0029481Y0043137D01*
X0029767Y0043183D01*
X0030054Y0043222D01*
X0030342Y0043254D01*
X0030631Y0043279D01*
X0030920Y0043297D01*
X0031210Y0043307D01*
X0031500Y0043311D01*
X0031790Y0043307D01*
X0032080Y0043297D01*
X0032369Y0043279D01*
X0032658Y0043254D01*
X0032946Y0043222D01*
X0033233Y0043183D01*
X0033519Y0043137D01*
X0033804Y0043084D01*
X0034088Y0043024D01*
X0034370Y0042957D01*
X0034650Y0042883D01*
X0034929Y0042802D01*
X0035205Y0042715D01*
X0035479Y0042621D01*
X0035751Y0042520D01*
X0036020Y0042412D01*
X0036286Y0042298D01*
X0036550Y0042177D01*
X0036810Y0042050D01*
X0037068Y0041916D01*
X0037322Y0041777D01*
X0037572Y0041631D01*
X0037819Y0041479D01*
X0038062Y0041320D01*
X0038301Y0041156D01*
X0038536Y0040987D01*
X0038767Y0040811D01*
X0038993Y0040630D01*
X0039215Y0040443D01*
X0039432Y0040251D01*
X0039644Y0040054D01*
X0039852Y0039852D01*
X0040054Y0039644D01*
X0040251Y0039432D01*
X0040443Y0039215D01*
X0040630Y0038993D01*
X0040811Y0038767D01*
X0040987Y0038536D01*
X0041156Y0038301D01*
X0041320Y0038062D01*
X0041479Y0037819D01*
X0041631Y0037572D01*
X0041777Y0037322D01*
X0041916Y0037068D01*
X0042050Y0036810D01*
X0042177Y0036550D01*
X0042298Y0036286D01*
X0042412Y0036020D01*
X0042520Y0035751D01*
X0042621Y0035479D01*
X0042715Y0035205D01*
X0042802Y0034929D01*
X0042883Y0034650D01*
X0042957Y0034370D01*
X0043024Y0034088D01*
X0043084Y0033804D01*
X0043137Y0033519D01*
X0043183Y0033233D01*
X0043222Y0032946D01*
X0043254Y0032658D01*
X0043279Y0032369D01*
X0043297Y0032080D01*
X0043307Y0031790D01*
X0043311Y0031500D01*
X0043307Y0031210D01*
X0043297Y0030920D01*
X0043279Y0030631D01*
X0043254Y0030342D01*
X0043222Y0030054D01*
X0043183Y0029767D01*
X0043137Y0029481D01*
X0043084Y0029196D01*
X0043024Y0028912D01*
X0042957Y0028630D01*
X0042883Y0028350D01*
X0042802Y0028071D01*
X0042715Y0027795D01*
X0042621Y0027521D01*
X0042520Y0027249D01*
X0042412Y0026980D01*
X0042298Y0026714D01*
X0042177Y0026450D01*
X0042050Y0026190D01*
X0041916Y0025932D01*
X0041777Y0025678D01*
X0041631Y0025428D01*
X0041479Y0025181D01*
X0041320Y0024938D01*
X0041156Y0024699D01*
X0040987Y0024464D01*
X0040811Y0024233D01*
X0040630Y0024007D01*
X0040443Y0023785D01*
X0040251Y0023568D01*
X0040054Y0023356D01*
X0039852Y0023148D01*
X0039644Y0022946D01*
X0039432Y0022749D01*
X0039215Y0022557D01*
X0038993Y0022370D01*
X0038767Y0022189D01*
X0038536Y0022013D01*
X0038301Y0021844D01*
X0038062Y0021680D01*
X0037819Y0021521D01*
X0037572Y0021369D01*
X0037322Y0021223D01*
X0037068Y0021084D01*
X0036810Y0020950D01*
X0036550Y0020823D01*
X0036286Y0020702D01*
X0036020Y0020588D01*
X0035751Y0020480D01*
X0035479Y0020379D01*
X0035205Y0020285D01*
X0034929Y0020198D01*
X0034650Y0020117D01*
X0034370Y0020043D01*
X0034088Y0019976D01*
X0033804Y0019916D01*
X0033519Y0019863D01*
X0033233Y0019817D01*
X0032946Y0019778D01*
X0032658Y0019746D01*
X0032369Y0019721D01*
X0032080Y0019703D01*
X0031790Y0019693D01*
X0031500Y0019689D01*
X0031210Y0019693D01*
X0030920Y0019703D01*
X0030631Y0019721D01*
X0030342Y0019746D01*
X0030054Y0019778D01*
X0029767Y0019817D01*
X0029481Y0019863D01*
X0029196Y0019916D01*
X0028912Y0019976D01*
X0028630Y0020043D01*
X0028350Y0020117D01*
X0028071Y0020198D01*
X0027795Y0020285D01*
X0027521Y0020379D01*
X0027249Y0020480D01*
X0026980Y0020588D01*
X0026714Y0020702D01*
X0026450Y0020823D01*
X0026190Y0020950D01*
X0025932Y0021084D01*
X0025678Y0021223D01*
X0025428Y0021369D01*
X0025181Y0021521D01*
X0024938Y0021680D01*
X0024699Y0021844D01*
X0024464Y0022013D01*
X0024233Y0022189D01*
X0024007Y0022370D01*
X0023785Y0022557D01*
X0023568Y0022749D01*
X0023356Y0022946D01*
X0023148Y0023148D01*
X0022946Y0023356D01*
X0022749Y0023568D01*
X0022557Y0023785D01*
X0022370Y0024007D01*
X0022189Y0024233D01*
X0022013Y0024464D01*
X0021844Y0024699D01*
X0021680Y0024938D01*
X0021521Y0025181D01*
X0021369Y0025428D01*
X0021223Y0025678D01*
X0021084Y0025932D01*
X0020950Y0026190D01*
X0020823Y0026450D01*
X0020702Y0026714D01*
X0020588Y0026980D01*
X0020480Y0027249D01*
X0020379Y0027521D01*
X0020285Y0027795D01*
X0020198Y0028071D01*
X0020117Y0028350D01*
X0020043Y0028630D01*
X0019976Y0028912D01*
X0019916Y0029196D01*
X0019863Y0029481D01*
X0019817Y0029767D01*
X0019778Y0030054D01*
X0019746Y0030342D01*
X0019721Y0030631D01*
X0019703Y0030920D01*
X0019693Y0031210D01*
X0019689Y0031500D01*
X0019689Y0146500D02*
X0019693Y0146790D01*
X0019703Y0147080D01*
X0019721Y0147369D01*
X0019746Y0147658D01*
X0019778Y0147946D01*
X0019817Y0148233D01*
X0019863Y0148519D01*
X0019916Y0148804D01*
X0019976Y0149088D01*
X0020043Y0149370D01*
X0020117Y0149650D01*
X0020198Y0149929D01*
X0020285Y0150205D01*
X0020379Y0150479D01*
X0020480Y0150751D01*
X0020588Y0151020D01*
X0020702Y0151286D01*
X0020823Y0151550D01*
X0020950Y0151810D01*
X0021084Y0152068D01*
X0021223Y0152322D01*
X0021369Y0152572D01*
X0021521Y0152819D01*
X0021680Y0153062D01*
X0021844Y0153301D01*
X0022013Y0153536D01*
X0022189Y0153767D01*
X0022370Y0153993D01*
X0022557Y0154215D01*
X0022749Y0154432D01*
X0022946Y0154644D01*
X0023148Y0154852D01*
X0023356Y0155054D01*
X0023568Y0155251D01*
X0023785Y0155443D01*
X0024007Y0155630D01*
X0024233Y0155811D01*
X0024464Y0155987D01*
X0024699Y0156156D01*
X0024938Y0156320D01*
X0025181Y0156479D01*
X0025428Y0156631D01*
X0025678Y0156777D01*
X0025932Y0156916D01*
X0026190Y0157050D01*
X0026450Y0157177D01*
X0026714Y0157298D01*
X0026980Y0157412D01*
X0027249Y0157520D01*
X0027521Y0157621D01*
X0027795Y0157715D01*
X0028071Y0157802D01*
X0028350Y0157883D01*
X0028630Y0157957D01*
X0028912Y0158024D01*
X0029196Y0158084D01*
X0029481Y0158137D01*
X0029767Y0158183D01*
X0030054Y0158222D01*
X0030342Y0158254D01*
X0030631Y0158279D01*
X0030920Y0158297D01*
X0031210Y0158307D01*
X0031500Y0158311D01*
X0031790Y0158307D01*
X0032080Y0158297D01*
X0032369Y0158279D01*
X0032658Y0158254D01*
X0032946Y0158222D01*
X0033233Y0158183D01*
X0033519Y0158137D01*
X0033804Y0158084D01*
X0034088Y0158024D01*
X0034370Y0157957D01*
X0034650Y0157883D01*
X0034929Y0157802D01*
X0035205Y0157715D01*
X0035479Y0157621D01*
X0035751Y0157520D01*
X0036020Y0157412D01*
X0036286Y0157298D01*
X0036550Y0157177D01*
X0036810Y0157050D01*
X0037068Y0156916D01*
X0037322Y0156777D01*
X0037572Y0156631D01*
X0037819Y0156479D01*
X0038062Y0156320D01*
X0038301Y0156156D01*
X0038536Y0155987D01*
X0038767Y0155811D01*
X0038993Y0155630D01*
X0039215Y0155443D01*
X0039432Y0155251D01*
X0039644Y0155054D01*
X0039852Y0154852D01*
X0040054Y0154644D01*
X0040251Y0154432D01*
X0040443Y0154215D01*
X0040630Y0153993D01*
X0040811Y0153767D01*
X0040987Y0153536D01*
X0041156Y0153301D01*
X0041320Y0153062D01*
X0041479Y0152819D01*
X0041631Y0152572D01*
X0041777Y0152322D01*
X0041916Y0152068D01*
X0042050Y0151810D01*
X0042177Y0151550D01*
X0042298Y0151286D01*
X0042412Y0151020D01*
X0042520Y0150751D01*
X0042621Y0150479D01*
X0042715Y0150205D01*
X0042802Y0149929D01*
X0042883Y0149650D01*
X0042957Y0149370D01*
X0043024Y0149088D01*
X0043084Y0148804D01*
X0043137Y0148519D01*
X0043183Y0148233D01*
X0043222Y0147946D01*
X0043254Y0147658D01*
X0043279Y0147369D01*
X0043297Y0147080D01*
X0043307Y0146790D01*
X0043311Y0146500D01*
X0043307Y0146210D01*
X0043297Y0145920D01*
X0043279Y0145631D01*
X0043254Y0145342D01*
X0043222Y0145054D01*
X0043183Y0144767D01*
X0043137Y0144481D01*
X0043084Y0144196D01*
X0043024Y0143912D01*
X0042957Y0143630D01*
X0042883Y0143350D01*
X0042802Y0143071D01*
X0042715Y0142795D01*
X0042621Y0142521D01*
X0042520Y0142249D01*
X0042412Y0141980D01*
X0042298Y0141714D01*
X0042177Y0141450D01*
X0042050Y0141190D01*
X0041916Y0140932D01*
X0041777Y0140678D01*
X0041631Y0140428D01*
X0041479Y0140181D01*
X0041320Y0139938D01*
X0041156Y0139699D01*
X0040987Y0139464D01*
X0040811Y0139233D01*
X0040630Y0139007D01*
X0040443Y0138785D01*
X0040251Y0138568D01*
X0040054Y0138356D01*
X0039852Y0138148D01*
X0039644Y0137946D01*
X0039432Y0137749D01*
X0039215Y0137557D01*
X0038993Y0137370D01*
X0038767Y0137189D01*
X0038536Y0137013D01*
X0038301Y0136844D01*
X0038062Y0136680D01*
X0037819Y0136521D01*
X0037572Y0136369D01*
X0037322Y0136223D01*
X0037068Y0136084D01*
X0036810Y0135950D01*
X0036550Y0135823D01*
X0036286Y0135702D01*
X0036020Y0135588D01*
X0035751Y0135480D01*
X0035479Y0135379D01*
X0035205Y0135285D01*
X0034929Y0135198D01*
X0034650Y0135117D01*
X0034370Y0135043D01*
X0034088Y0134976D01*
X0033804Y0134916D01*
X0033519Y0134863D01*
X0033233Y0134817D01*
X0032946Y0134778D01*
X0032658Y0134746D01*
X0032369Y0134721D01*
X0032080Y0134703D01*
X0031790Y0134693D01*
X0031500Y0134689D01*
X0031210Y0134693D01*
X0030920Y0134703D01*
X0030631Y0134721D01*
X0030342Y0134746D01*
X0030054Y0134778D01*
X0029767Y0134817D01*
X0029481Y0134863D01*
X0029196Y0134916D01*
X0028912Y0134976D01*
X0028630Y0135043D01*
X0028350Y0135117D01*
X0028071Y0135198D01*
X0027795Y0135285D01*
X0027521Y0135379D01*
X0027249Y0135480D01*
X0026980Y0135588D01*
X0026714Y0135702D01*
X0026450Y0135823D01*
X0026190Y0135950D01*
X0025932Y0136084D01*
X0025678Y0136223D01*
X0025428Y0136369D01*
X0025181Y0136521D01*
X0024938Y0136680D01*
X0024699Y0136844D01*
X0024464Y0137013D01*
X0024233Y0137189D01*
X0024007Y0137370D01*
X0023785Y0137557D01*
X0023568Y0137749D01*
X0023356Y0137946D01*
X0023148Y0138148D01*
X0022946Y0138356D01*
X0022749Y0138568D01*
X0022557Y0138785D01*
X0022370Y0139007D01*
X0022189Y0139233D01*
X0022013Y0139464D01*
X0021844Y0139699D01*
X0021680Y0139938D01*
X0021521Y0140181D01*
X0021369Y0140428D01*
X0021223Y0140678D01*
X0021084Y0140932D01*
X0020950Y0141190D01*
X0020823Y0141450D01*
X0020702Y0141714D01*
X0020588Y0141980D01*
X0020480Y0142249D01*
X0020379Y0142521D01*
X0020285Y0142795D01*
X0020198Y0143071D01*
X0020117Y0143350D01*
X0020043Y0143630D01*
X0019976Y0143912D01*
X0019916Y0144196D01*
X0019863Y0144481D01*
X0019817Y0144767D01*
X0019778Y0145054D01*
X0019746Y0145342D01*
X0019721Y0145631D01*
X0019703Y0145920D01*
X0019693Y0146210D01*
X0019689Y0146500D01*
X0349689Y0146500D02*
X0349693Y0146790D01*
X0349703Y0147080D01*
X0349721Y0147369D01*
X0349746Y0147658D01*
X0349778Y0147946D01*
X0349817Y0148233D01*
X0349863Y0148519D01*
X0349916Y0148804D01*
X0349976Y0149088D01*
X0350043Y0149370D01*
X0350117Y0149650D01*
X0350198Y0149929D01*
X0350285Y0150205D01*
X0350379Y0150479D01*
X0350480Y0150751D01*
X0350588Y0151020D01*
X0350702Y0151286D01*
X0350823Y0151550D01*
X0350950Y0151810D01*
X0351084Y0152068D01*
X0351223Y0152322D01*
X0351369Y0152572D01*
X0351521Y0152819D01*
X0351680Y0153062D01*
X0351844Y0153301D01*
X0352013Y0153536D01*
X0352189Y0153767D01*
X0352370Y0153993D01*
X0352557Y0154215D01*
X0352749Y0154432D01*
X0352946Y0154644D01*
X0353148Y0154852D01*
X0353356Y0155054D01*
X0353568Y0155251D01*
X0353785Y0155443D01*
X0354007Y0155630D01*
X0354233Y0155811D01*
X0354464Y0155987D01*
X0354699Y0156156D01*
X0354938Y0156320D01*
X0355181Y0156479D01*
X0355428Y0156631D01*
X0355678Y0156777D01*
X0355932Y0156916D01*
X0356190Y0157050D01*
X0356450Y0157177D01*
X0356714Y0157298D01*
X0356980Y0157412D01*
X0357249Y0157520D01*
X0357521Y0157621D01*
X0357795Y0157715D01*
X0358071Y0157802D01*
X0358350Y0157883D01*
X0358630Y0157957D01*
X0358912Y0158024D01*
X0359196Y0158084D01*
X0359481Y0158137D01*
X0359767Y0158183D01*
X0360054Y0158222D01*
X0360342Y0158254D01*
X0360631Y0158279D01*
X0360920Y0158297D01*
X0361210Y0158307D01*
X0361500Y0158311D01*
X0361790Y0158307D01*
X0362080Y0158297D01*
X0362369Y0158279D01*
X0362658Y0158254D01*
X0362946Y0158222D01*
X0363233Y0158183D01*
X0363519Y0158137D01*
X0363804Y0158084D01*
X0364088Y0158024D01*
X0364370Y0157957D01*
X0364650Y0157883D01*
X0364929Y0157802D01*
X0365205Y0157715D01*
X0365479Y0157621D01*
X0365751Y0157520D01*
X0366020Y0157412D01*
X0366286Y0157298D01*
X0366550Y0157177D01*
X0366810Y0157050D01*
X0367068Y0156916D01*
X0367322Y0156777D01*
X0367572Y0156631D01*
X0367819Y0156479D01*
X0368062Y0156320D01*
X0368301Y0156156D01*
X0368536Y0155987D01*
X0368767Y0155811D01*
X0368993Y0155630D01*
X0369215Y0155443D01*
X0369432Y0155251D01*
X0369644Y0155054D01*
X0369852Y0154852D01*
X0370054Y0154644D01*
X0370251Y0154432D01*
X0370443Y0154215D01*
X0370630Y0153993D01*
X0370811Y0153767D01*
X0370987Y0153536D01*
X0371156Y0153301D01*
X0371320Y0153062D01*
X0371479Y0152819D01*
X0371631Y0152572D01*
X0371777Y0152322D01*
X0371916Y0152068D01*
X0372050Y0151810D01*
X0372177Y0151550D01*
X0372298Y0151286D01*
X0372412Y0151020D01*
X0372520Y0150751D01*
X0372621Y0150479D01*
X0372715Y0150205D01*
X0372802Y0149929D01*
X0372883Y0149650D01*
X0372957Y0149370D01*
X0373024Y0149088D01*
X0373084Y0148804D01*
X0373137Y0148519D01*
X0373183Y0148233D01*
X0373222Y0147946D01*
X0373254Y0147658D01*
X0373279Y0147369D01*
X0373297Y0147080D01*
X0373307Y0146790D01*
X0373311Y0146500D01*
X0373307Y0146210D01*
X0373297Y0145920D01*
X0373279Y0145631D01*
X0373254Y0145342D01*
X0373222Y0145054D01*
X0373183Y0144767D01*
X0373137Y0144481D01*
X0373084Y0144196D01*
X0373024Y0143912D01*
X0372957Y0143630D01*
X0372883Y0143350D01*
X0372802Y0143071D01*
X0372715Y0142795D01*
X0372621Y0142521D01*
X0372520Y0142249D01*
X0372412Y0141980D01*
X0372298Y0141714D01*
X0372177Y0141450D01*
X0372050Y0141190D01*
X0371916Y0140932D01*
X0371777Y0140678D01*
X0371631Y0140428D01*
X0371479Y0140181D01*
X0371320Y0139938D01*
X0371156Y0139699D01*
X0370987Y0139464D01*
X0370811Y0139233D01*
X0370630Y0139007D01*
X0370443Y0138785D01*
X0370251Y0138568D01*
X0370054Y0138356D01*
X0369852Y0138148D01*
X0369644Y0137946D01*
X0369432Y0137749D01*
X0369215Y0137557D01*
X0368993Y0137370D01*
X0368767Y0137189D01*
X0368536Y0137013D01*
X0368301Y0136844D01*
X0368062Y0136680D01*
X0367819Y0136521D01*
X0367572Y0136369D01*
X0367322Y0136223D01*
X0367068Y0136084D01*
X0366810Y0135950D01*
X0366550Y0135823D01*
X0366286Y0135702D01*
X0366020Y0135588D01*
X0365751Y0135480D01*
X0365479Y0135379D01*
X0365205Y0135285D01*
X0364929Y0135198D01*
X0364650Y0135117D01*
X0364370Y0135043D01*
X0364088Y0134976D01*
X0363804Y0134916D01*
X0363519Y0134863D01*
X0363233Y0134817D01*
X0362946Y0134778D01*
X0362658Y0134746D01*
X0362369Y0134721D01*
X0362080Y0134703D01*
X0361790Y0134693D01*
X0361500Y0134689D01*
X0361210Y0134693D01*
X0360920Y0134703D01*
X0360631Y0134721D01*
X0360342Y0134746D01*
X0360054Y0134778D01*
X0359767Y0134817D01*
X0359481Y0134863D01*
X0359196Y0134916D01*
X0358912Y0134976D01*
X0358630Y0135043D01*
X0358350Y0135117D01*
X0358071Y0135198D01*
X0357795Y0135285D01*
X0357521Y0135379D01*
X0357249Y0135480D01*
X0356980Y0135588D01*
X0356714Y0135702D01*
X0356450Y0135823D01*
X0356190Y0135950D01*
X0355932Y0136084D01*
X0355678Y0136223D01*
X0355428Y0136369D01*
X0355181Y0136521D01*
X0354938Y0136680D01*
X0354699Y0136844D01*
X0354464Y0137013D01*
X0354233Y0137189D01*
X0354007Y0137370D01*
X0353785Y0137557D01*
X0353568Y0137749D01*
X0353356Y0137946D01*
X0353148Y0138148D01*
X0352946Y0138356D01*
X0352749Y0138568D01*
X0352557Y0138785D01*
X0352370Y0139007D01*
X0352189Y0139233D01*
X0352013Y0139464D01*
X0351844Y0139699D01*
X0351680Y0139938D01*
X0351521Y0140181D01*
X0351369Y0140428D01*
X0351223Y0140678D01*
X0351084Y0140932D01*
X0350950Y0141190D01*
X0350823Y0141450D01*
X0350702Y0141714D01*
X0350588Y0141980D01*
X0350480Y0142249D01*
X0350379Y0142521D01*
X0350285Y0142795D01*
X0350198Y0143071D01*
X0350117Y0143350D01*
X0350043Y0143630D01*
X0349976Y0143912D01*
X0349916Y0144196D01*
X0349863Y0144481D01*
X0349817Y0144767D01*
X0349778Y0145054D01*
X0349746Y0145342D01*
X0349721Y0145631D01*
X0349703Y0145920D01*
X0349693Y0146210D01*
X0349689Y0146500D01*
X0349689Y0031500D02*
X0349693Y0031790D01*
X0349703Y0032080D01*
X0349721Y0032369D01*
X0349746Y0032658D01*
X0349778Y0032946D01*
X0349817Y0033233D01*
X0349863Y0033519D01*
X0349916Y0033804D01*
X0349976Y0034088D01*
X0350043Y0034370D01*
X0350117Y0034650D01*
X0350198Y0034929D01*
X0350285Y0035205D01*
X0350379Y0035479D01*
X0350480Y0035751D01*
X0350588Y0036020D01*
X0350702Y0036286D01*
X0350823Y0036550D01*
X0350950Y0036810D01*
X0351084Y0037068D01*
X0351223Y0037322D01*
X0351369Y0037572D01*
X0351521Y0037819D01*
X0351680Y0038062D01*
X0351844Y0038301D01*
X0352013Y0038536D01*
X0352189Y0038767D01*
X0352370Y0038993D01*
X0352557Y0039215D01*
X0352749Y0039432D01*
X0352946Y0039644D01*
X0353148Y0039852D01*
X0353356Y0040054D01*
X0353568Y0040251D01*
X0353785Y0040443D01*
X0354007Y0040630D01*
X0354233Y0040811D01*
X0354464Y0040987D01*
X0354699Y0041156D01*
X0354938Y0041320D01*
X0355181Y0041479D01*
X0355428Y0041631D01*
X0355678Y0041777D01*
X0355932Y0041916D01*
X0356190Y0042050D01*
X0356450Y0042177D01*
X0356714Y0042298D01*
X0356980Y0042412D01*
X0357249Y0042520D01*
X0357521Y0042621D01*
X0357795Y0042715D01*
X0358071Y0042802D01*
X0358350Y0042883D01*
X0358630Y0042957D01*
X0358912Y0043024D01*
X0359196Y0043084D01*
X0359481Y0043137D01*
X0359767Y0043183D01*
X0360054Y0043222D01*
X0360342Y0043254D01*
X0360631Y0043279D01*
X0360920Y0043297D01*
X0361210Y0043307D01*
X0361500Y0043311D01*
X0361790Y0043307D01*
X0362080Y0043297D01*
X0362369Y0043279D01*
X0362658Y0043254D01*
X0362946Y0043222D01*
X0363233Y0043183D01*
X0363519Y0043137D01*
X0363804Y0043084D01*
X0364088Y0043024D01*
X0364370Y0042957D01*
X0364650Y0042883D01*
X0364929Y0042802D01*
X0365205Y0042715D01*
X0365479Y0042621D01*
X0365751Y0042520D01*
X0366020Y0042412D01*
X0366286Y0042298D01*
X0366550Y0042177D01*
X0366810Y0042050D01*
X0367068Y0041916D01*
X0367322Y0041777D01*
X0367572Y0041631D01*
X0367819Y0041479D01*
X0368062Y0041320D01*
X0368301Y0041156D01*
X0368536Y0040987D01*
X0368767Y0040811D01*
X0368993Y0040630D01*
X0369215Y0040443D01*
X0369432Y0040251D01*
X0369644Y0040054D01*
X0369852Y0039852D01*
X0370054Y0039644D01*
X0370251Y0039432D01*
X0370443Y0039215D01*
X0370630Y0038993D01*
X0370811Y0038767D01*
X0370987Y0038536D01*
X0371156Y0038301D01*
X0371320Y0038062D01*
X0371479Y0037819D01*
X0371631Y0037572D01*
X0371777Y0037322D01*
X0371916Y0037068D01*
X0372050Y0036810D01*
X0372177Y0036550D01*
X0372298Y0036286D01*
X0372412Y0036020D01*
X0372520Y0035751D01*
X0372621Y0035479D01*
X0372715Y0035205D01*
X0372802Y0034929D01*
X0372883Y0034650D01*
X0372957Y0034370D01*
X0373024Y0034088D01*
X0373084Y0033804D01*
X0373137Y0033519D01*
X0373183Y0033233D01*
X0373222Y0032946D01*
X0373254Y0032658D01*
X0373279Y0032369D01*
X0373297Y0032080D01*
X0373307Y0031790D01*
X0373311Y0031500D01*
X0373307Y0031210D01*
X0373297Y0030920D01*
X0373279Y0030631D01*
X0373254Y0030342D01*
X0373222Y0030054D01*
X0373183Y0029767D01*
X0373137Y0029481D01*
X0373084Y0029196D01*
X0373024Y0028912D01*
X0372957Y0028630D01*
X0372883Y0028350D01*
X0372802Y0028071D01*
X0372715Y0027795D01*
X0372621Y0027521D01*
X0372520Y0027249D01*
X0372412Y0026980D01*
X0372298Y0026714D01*
X0372177Y0026450D01*
X0372050Y0026190D01*
X0371916Y0025932D01*
X0371777Y0025678D01*
X0371631Y0025428D01*
X0371479Y0025181D01*
X0371320Y0024938D01*
X0371156Y0024699D01*
X0370987Y0024464D01*
X0370811Y0024233D01*
X0370630Y0024007D01*
X0370443Y0023785D01*
X0370251Y0023568D01*
X0370054Y0023356D01*
X0369852Y0023148D01*
X0369644Y0022946D01*
X0369432Y0022749D01*
X0369215Y0022557D01*
X0368993Y0022370D01*
X0368767Y0022189D01*
X0368536Y0022013D01*
X0368301Y0021844D01*
X0368062Y0021680D01*
X0367819Y0021521D01*
X0367572Y0021369D01*
X0367322Y0021223D01*
X0367068Y0021084D01*
X0366810Y0020950D01*
X0366550Y0020823D01*
X0366286Y0020702D01*
X0366020Y0020588D01*
X0365751Y0020480D01*
X0365479Y0020379D01*
X0365205Y0020285D01*
X0364929Y0020198D01*
X0364650Y0020117D01*
X0364370Y0020043D01*
X0364088Y0019976D01*
X0363804Y0019916D01*
X0363519Y0019863D01*
X0363233Y0019817D01*
X0362946Y0019778D01*
X0362658Y0019746D01*
X0362369Y0019721D01*
X0362080Y0019703D01*
X0361790Y0019693D01*
X0361500Y0019689D01*
X0361210Y0019693D01*
X0360920Y0019703D01*
X0360631Y0019721D01*
X0360342Y0019746D01*
X0360054Y0019778D01*
X0359767Y0019817D01*
X0359481Y0019863D01*
X0359196Y0019916D01*
X0358912Y0019976D01*
X0358630Y0020043D01*
X0358350Y0020117D01*
X0358071Y0020198D01*
X0357795Y0020285D01*
X0357521Y0020379D01*
X0357249Y0020480D01*
X0356980Y0020588D01*
X0356714Y0020702D01*
X0356450Y0020823D01*
X0356190Y0020950D01*
X0355932Y0021084D01*
X0355678Y0021223D01*
X0355428Y0021369D01*
X0355181Y0021521D01*
X0354938Y0021680D01*
X0354699Y0021844D01*
X0354464Y0022013D01*
X0354233Y0022189D01*
X0354007Y0022370D01*
X0353785Y0022557D01*
X0353568Y0022749D01*
X0353356Y0022946D01*
X0353148Y0023148D01*
X0352946Y0023356D01*
X0352749Y0023568D01*
X0352557Y0023785D01*
X0352370Y0024007D01*
X0352189Y0024233D01*
X0352013Y0024464D01*
X0351844Y0024699D01*
X0351680Y0024938D01*
X0351521Y0025181D01*
X0351369Y0025428D01*
X0351223Y0025678D01*
X0351084Y0025932D01*
X0350950Y0026190D01*
X0350823Y0026450D01*
X0350702Y0026714D01*
X0350588Y0026980D01*
X0350480Y0027249D01*
X0350379Y0027521D01*
X0350285Y0027795D01*
X0350198Y0028071D01*
X0350117Y0028350D01*
X0350043Y0028630D01*
X0349976Y0028912D01*
X0349916Y0029196D01*
X0349863Y0029481D01*
X0349817Y0029767D01*
X0349778Y0030054D01*
X0349746Y0030342D01*
X0349721Y0030631D01*
X0349703Y0030920D01*
X0349693Y0031210D01*
X0349689Y0031500D01*
D11*
X0192500Y0018000D02*
X0192500Y0045000D01*
X0192498Y0045060D01*
X0192493Y0045121D01*
X0192484Y0045180D01*
X0192471Y0045239D01*
X0192455Y0045298D01*
X0192435Y0045355D01*
X0192412Y0045410D01*
X0192385Y0045465D01*
X0192356Y0045517D01*
X0192323Y0045568D01*
X0192287Y0045617D01*
X0192249Y0045663D01*
X0192207Y0045707D01*
X0192163Y0045749D01*
X0192117Y0045787D01*
X0192068Y0045823D01*
X0192017Y0045856D01*
X0191965Y0045885D01*
X0191910Y0045912D01*
X0191855Y0045935D01*
X0191798Y0045955D01*
X0191739Y0045971D01*
X0191680Y0045984D01*
X0191621Y0045993D01*
X0191560Y0045998D01*
X0191500Y0046000D01*
X0181500Y0046000D01*
X0181440Y0045998D01*
X0181379Y0045993D01*
X0181320Y0045984D01*
X0181261Y0045971D01*
X0181202Y0045955D01*
X0181145Y0045935D01*
X0181090Y0045912D01*
X0181035Y0045885D01*
X0180983Y0045856D01*
X0180932Y0045823D01*
X0180883Y0045787D01*
X0180837Y0045749D01*
X0180793Y0045707D01*
X0180751Y0045663D01*
X0180713Y0045617D01*
X0180677Y0045568D01*
X0180644Y0045517D01*
X0180615Y0045465D01*
X0180588Y0045410D01*
X0180565Y0045355D01*
X0180545Y0045298D01*
X0180529Y0045239D01*
X0180516Y0045180D01*
X0180507Y0045121D01*
X0180502Y0045060D01*
X0180500Y0045000D01*
X0180500Y0018000D01*
X0180502Y0017940D01*
X0180507Y0017879D01*
X0180516Y0017820D01*
X0180529Y0017761D01*
X0180545Y0017702D01*
X0180565Y0017645D01*
X0180588Y0017590D01*
X0180615Y0017535D01*
X0180644Y0017483D01*
X0180677Y0017432D01*
X0180713Y0017383D01*
X0180751Y0017337D01*
X0180793Y0017293D01*
X0180837Y0017251D01*
X0180883Y0017213D01*
X0180932Y0017177D01*
X0180983Y0017144D01*
X0181035Y0017115D01*
X0181090Y0017088D01*
X0181145Y0017065D01*
X0181202Y0017045D01*
X0181261Y0017029D01*
X0181320Y0017016D01*
X0181379Y0017007D01*
X0181440Y0017002D01*
X0181500Y0017000D01*
X0191500Y0017000D01*
X0191560Y0017002D01*
X0191621Y0017007D01*
X0191680Y0017016D01*
X0191739Y0017029D01*
X0191798Y0017045D01*
X0191855Y0017065D01*
X0191910Y0017088D01*
X0191965Y0017115D01*
X0192017Y0017144D01*
X0192068Y0017177D01*
X0192117Y0017213D01*
X0192163Y0017251D01*
X0192207Y0017293D01*
X0192249Y0017337D01*
X0192287Y0017383D01*
X0192323Y0017432D01*
X0192356Y0017483D01*
X0192385Y0017535D01*
X0192412Y0017590D01*
X0192435Y0017645D01*
X0192455Y0017702D01*
X0192471Y0017761D01*
X0192484Y0017820D01*
X0192493Y0017879D01*
X0192498Y0017940D01*
X0192500Y0018000D01*
X0186500Y0025500D02*
X0186500Y0030200D01*
X0186500Y0032700D02*
X0186500Y0037500D01*
X0181500Y0057000D02*
X0191500Y0057000D01*
X0191560Y0057002D01*
X0191621Y0057007D01*
X0191680Y0057016D01*
X0191739Y0057029D01*
X0191798Y0057045D01*
X0191855Y0057065D01*
X0191910Y0057088D01*
X0191965Y0057115D01*
X0192017Y0057144D01*
X0192068Y0057177D01*
X0192117Y0057213D01*
X0192163Y0057251D01*
X0192207Y0057293D01*
X0192249Y0057337D01*
X0192287Y0057383D01*
X0192323Y0057432D01*
X0192356Y0057483D01*
X0192385Y0057535D01*
X0192412Y0057590D01*
X0192435Y0057645D01*
X0192455Y0057702D01*
X0192471Y0057761D01*
X0192484Y0057820D01*
X0192493Y0057879D01*
X0192498Y0057940D01*
X0192500Y0058000D01*
X0192500Y0085000D01*
X0192498Y0085060D01*
X0192493Y0085121D01*
X0192484Y0085180D01*
X0192471Y0085239D01*
X0192455Y0085298D01*
X0192435Y0085355D01*
X0192412Y0085410D01*
X0192385Y0085465D01*
X0192356Y0085517D01*
X0192323Y0085568D01*
X0192287Y0085617D01*
X0192249Y0085663D01*
X0192207Y0085707D01*
X0192163Y0085749D01*
X0192117Y0085787D01*
X0192068Y0085823D01*
X0192017Y0085856D01*
X0191965Y0085885D01*
X0191910Y0085912D01*
X0191855Y0085935D01*
X0191798Y0085955D01*
X0191739Y0085971D01*
X0191680Y0085984D01*
X0191621Y0085993D01*
X0191560Y0085998D01*
X0191500Y0086000D01*
X0181500Y0086000D01*
X0181440Y0085998D01*
X0181379Y0085993D01*
X0181320Y0085984D01*
X0181261Y0085971D01*
X0181202Y0085955D01*
X0181145Y0085935D01*
X0181090Y0085912D01*
X0181035Y0085885D01*
X0180983Y0085856D01*
X0180932Y0085823D01*
X0180883Y0085787D01*
X0180837Y0085749D01*
X0180793Y0085707D01*
X0180751Y0085663D01*
X0180713Y0085617D01*
X0180677Y0085568D01*
X0180644Y0085517D01*
X0180615Y0085465D01*
X0180588Y0085410D01*
X0180565Y0085355D01*
X0180545Y0085298D01*
X0180529Y0085239D01*
X0180516Y0085180D01*
X0180507Y0085121D01*
X0180502Y0085060D01*
X0180500Y0085000D01*
X0180500Y0058000D01*
X0180502Y0057940D01*
X0180507Y0057879D01*
X0180516Y0057820D01*
X0180529Y0057761D01*
X0180545Y0057702D01*
X0180565Y0057645D01*
X0180588Y0057590D01*
X0180615Y0057535D01*
X0180644Y0057483D01*
X0180677Y0057432D01*
X0180713Y0057383D01*
X0180751Y0057337D01*
X0180793Y0057293D01*
X0180837Y0057251D01*
X0180883Y0057213D01*
X0180932Y0057177D01*
X0180983Y0057144D01*
X0181035Y0057115D01*
X0181090Y0057088D01*
X0181145Y0057065D01*
X0181202Y0057045D01*
X0181261Y0057029D01*
X0181320Y0057016D01*
X0181379Y0057007D01*
X0181440Y0057002D01*
X0181500Y0057000D01*
X0186500Y0065500D02*
X0186500Y0070300D01*
X0186500Y0072800D02*
X0186500Y0077500D01*
X0119000Y0049000D02*
X0119000Y0034000D01*
X0116500Y0031500D01*
X0111500Y0031500D01*
X0109000Y0034000D01*
X0109000Y0049000D01*
X0111500Y0051500D01*
X0116500Y0051500D01*
X0119000Y0049000D01*
X0109000Y0049000D02*
X0106500Y0051500D01*
X0101500Y0051500D01*
X0099000Y0049000D01*
X0099000Y0034000D01*
X0101500Y0031500D01*
X0106500Y0031500D01*
X0109000Y0034000D01*
X0099000Y0034000D02*
X0096500Y0031500D01*
X0091500Y0031500D01*
X0089000Y0034000D01*
X0089000Y0049000D01*
X0091500Y0051500D01*
X0096500Y0051500D01*
X0099000Y0049000D01*
X0089000Y0049000D02*
X0086500Y0051500D01*
X0081500Y0051500D01*
X0079000Y0049000D01*
X0079000Y0034000D01*
X0081500Y0031500D01*
X0086500Y0031500D01*
X0089000Y0034000D01*
X0079000Y0034000D02*
X0076500Y0031500D01*
X0071500Y0031500D01*
X0069000Y0034000D01*
X0069000Y0049000D01*
X0071500Y0051500D01*
X0076500Y0051500D01*
X0079000Y0049000D01*
X0069000Y0049000D02*
X0066500Y0051500D01*
X0061500Y0051500D01*
X0059000Y0049000D01*
X0059000Y0034000D01*
X0061500Y0031500D01*
X0066500Y0031500D01*
X0069000Y0034000D01*
X0073000Y0118500D02*
X0110000Y0118500D01*
X0110000Y0154500D01*
X0073000Y0154500D01*
X0073000Y0118500D01*
X0086500Y0134000D02*
X0086500Y0139000D01*
X0091500Y0136500D01*
X0091500Y0139000D01*
X0090000Y0139000D01*
X0090000Y0138500D01*
X0091500Y0136500D02*
X0091500Y0134000D01*
X0093000Y0134000D01*
X0093000Y0134500D01*
X0091500Y0136500D02*
X0081500Y0136500D01*
X0086500Y0134000D02*
X0091500Y0136500D01*
X0096000Y0136500D01*
X0181800Y0156800D02*
X0181800Y0163200D01*
X0183933Y0159644D01*
X0186067Y0163200D01*
X0186067Y0156800D01*
X0189206Y0158400D02*
X0191339Y0161600D01*
X0191340Y0161600D02*
X0191372Y0161655D01*
X0191400Y0161712D01*
X0191426Y0161770D01*
X0191447Y0161830D01*
X0191465Y0161891D01*
X0191479Y0161953D01*
X0191489Y0162016D01*
X0191495Y0162079D01*
X0191498Y0162143D01*
X0191497Y0162207D01*
X0191491Y0162270D01*
X0191482Y0162333D01*
X0191470Y0162395D01*
X0191453Y0162457D01*
X0191433Y0162517D01*
X0191409Y0162576D01*
X0191381Y0162633D01*
X0191350Y0162689D01*
X0191316Y0162743D01*
X0191279Y0162794D01*
X0191238Y0162843D01*
X0191195Y0162890D01*
X0191149Y0162934D01*
X0191100Y0162975D01*
X0191049Y0163012D01*
X0190996Y0163047D01*
X0190940Y0163079D01*
X0190883Y0163107D01*
X0190824Y0163131D01*
X0190764Y0163152D01*
X0190703Y0163169D01*
X0190641Y0163183D01*
X0190578Y0163192D01*
X0190515Y0163198D01*
X0190451Y0163200D01*
X0190387Y0163198D01*
X0190324Y0163192D01*
X0190261Y0163183D01*
X0190199Y0163169D01*
X0190138Y0163152D01*
X0190078Y0163131D01*
X0190019Y0163107D01*
X0189962Y0163079D01*
X0189906Y0163047D01*
X0189853Y0163012D01*
X0189802Y0162975D01*
X0189753Y0162934D01*
X0189707Y0162890D01*
X0189664Y0162843D01*
X0189623Y0162794D01*
X0189586Y0162743D01*
X0189552Y0162689D01*
X0189521Y0162633D01*
X0189493Y0162576D01*
X0189469Y0162517D01*
X0189449Y0162457D01*
X0189432Y0162395D01*
X0189420Y0162333D01*
X0189411Y0162270D01*
X0189405Y0162207D01*
X0189404Y0162143D01*
X0189407Y0162079D01*
X0189413Y0162016D01*
X0189423Y0161953D01*
X0189437Y0161891D01*
X0189455Y0161830D01*
X0189476Y0161770D01*
X0189502Y0161712D01*
X0189530Y0161655D01*
X0189562Y0161600D01*
X0192584Y0156800D01*
X0190628Y0156978D02*
X0193295Y0158933D01*
X0195257Y0158400D02*
X0198457Y0158400D01*
X0198990Y0156800D02*
X0196857Y0163200D01*
X0194723Y0156800D01*
X0190628Y0156978D02*
X0190582Y0156945D01*
X0190533Y0156915D01*
X0190482Y0156889D01*
X0190430Y0156865D01*
X0190376Y0156846D01*
X0190321Y0156829D01*
X0190266Y0156817D01*
X0190209Y0156807D01*
X0190152Y0156802D01*
X0190095Y0156800D01*
X0190031Y0156802D01*
X0189966Y0156808D01*
X0189903Y0156817D01*
X0189840Y0156831D01*
X0189778Y0156848D01*
X0189717Y0156869D01*
X0189657Y0156894D01*
X0189599Y0156922D01*
X0189543Y0156954D01*
X0189489Y0156989D01*
X0189437Y0157027D01*
X0189387Y0157068D01*
X0189341Y0157113D01*
X0189296Y0157159D01*
X0189255Y0157209D01*
X0189217Y0157261D01*
X0189182Y0157315D01*
X0189150Y0157371D01*
X0189122Y0157429D01*
X0189097Y0157489D01*
X0189076Y0157550D01*
X0189059Y0157612D01*
X0189045Y0157675D01*
X0189036Y0157738D01*
X0189030Y0157803D01*
X0189028Y0157867D01*
X0189030Y0157924D01*
X0189035Y0157981D01*
X0189045Y0158038D01*
X0189057Y0158093D01*
X0189074Y0158148D01*
X0189093Y0158202D01*
X0189117Y0158254D01*
X0189143Y0158305D01*
X0189173Y0158354D01*
X0189206Y0158400D01*
D12*
X0231700Y0151300D02*
X0231700Y0146700D01*
X0233233Y0148744D02*
X0234767Y0151300D01*
X0234767Y0146700D01*
X0236861Y0147722D02*
X0236861Y0148744D01*
X0236863Y0148807D01*
X0236869Y0148870D01*
X0236878Y0148932D01*
X0236892Y0148993D01*
X0236909Y0149054D01*
X0236930Y0149113D01*
X0236955Y0149171D01*
X0236983Y0149228D01*
X0237014Y0149282D01*
X0237049Y0149334D01*
X0237087Y0149385D01*
X0237128Y0149433D01*
X0237172Y0149478D01*
X0237218Y0149520D01*
X0237267Y0149560D01*
X0237318Y0149596D01*
X0237372Y0149629D01*
X0237427Y0149659D01*
X0237485Y0149685D01*
X0237543Y0149708D01*
X0237603Y0149727D01*
X0237664Y0149742D01*
X0237726Y0149754D01*
X0237789Y0149762D01*
X0237852Y0149766D01*
X0237914Y0149766D01*
X0237977Y0149762D01*
X0238040Y0149754D01*
X0238102Y0149742D01*
X0238163Y0149727D01*
X0238223Y0149708D01*
X0238281Y0149685D01*
X0238339Y0149659D01*
X0238394Y0149629D01*
X0238448Y0149596D01*
X0238499Y0149560D01*
X0238548Y0149520D01*
X0238594Y0149478D01*
X0238638Y0149433D01*
X0238679Y0149385D01*
X0238717Y0149334D01*
X0238752Y0149282D01*
X0238783Y0149228D01*
X0238811Y0149171D01*
X0238836Y0149113D01*
X0238857Y0149054D01*
X0238874Y0148993D01*
X0238888Y0148932D01*
X0238897Y0148870D01*
X0238903Y0148807D01*
X0238905Y0148744D01*
X0238906Y0148744D02*
X0238906Y0147722D01*
X0238905Y0147722D02*
X0238903Y0147659D01*
X0238897Y0147596D01*
X0238888Y0147534D01*
X0238874Y0147473D01*
X0238857Y0147412D01*
X0238836Y0147353D01*
X0238811Y0147295D01*
X0238783Y0147238D01*
X0238752Y0147184D01*
X0238717Y0147132D01*
X0238679Y0147081D01*
X0238638Y0147033D01*
X0238594Y0146988D01*
X0238548Y0146946D01*
X0238499Y0146906D01*
X0238448Y0146870D01*
X0238394Y0146837D01*
X0238339Y0146807D01*
X0238281Y0146781D01*
X0238223Y0146758D01*
X0238163Y0146739D01*
X0238102Y0146724D01*
X0238040Y0146712D01*
X0237977Y0146704D01*
X0237914Y0146700D01*
X0237852Y0146700D01*
X0237789Y0146704D01*
X0237726Y0146712D01*
X0237664Y0146724D01*
X0237603Y0146739D01*
X0237543Y0146758D01*
X0237485Y0146781D01*
X0237427Y0146807D01*
X0237372Y0146837D01*
X0237318Y0146870D01*
X0237267Y0146906D01*
X0237218Y0146946D01*
X0237172Y0146988D01*
X0237128Y0147033D01*
X0237087Y0147081D01*
X0237049Y0147132D01*
X0237014Y0147184D01*
X0236983Y0147238D01*
X0236955Y0147295D01*
X0236930Y0147353D01*
X0236909Y0147412D01*
X0236892Y0147473D01*
X0236878Y0147534D01*
X0236869Y0147596D01*
X0236863Y0147659D01*
X0236861Y0147722D01*
X0233233Y0148744D02*
X0231700Y0151300D01*
X0240380Y0149767D02*
X0241914Y0149767D01*
X0240891Y0151300D02*
X0240891Y0147467D01*
X0240893Y0147412D01*
X0240899Y0147358D01*
X0240909Y0147304D01*
X0240922Y0147251D01*
X0240939Y0147199D01*
X0240960Y0147148D01*
X0240985Y0147099D01*
X0241013Y0147052D01*
X0241044Y0147007D01*
X0241078Y0146965D01*
X0241116Y0146925D01*
X0241156Y0146887D01*
X0241198Y0146853D01*
X0241243Y0146822D01*
X0241290Y0146794D01*
X0241339Y0146769D01*
X0241390Y0146748D01*
X0241442Y0146731D01*
X0241495Y0146718D01*
X0241549Y0146708D01*
X0241603Y0146702D01*
X0241658Y0146700D01*
X0241914Y0146700D01*
X0243611Y0147722D02*
X0243611Y0148744D01*
X0243613Y0148807D01*
X0243619Y0148870D01*
X0243628Y0148932D01*
X0243642Y0148993D01*
X0243659Y0149054D01*
X0243680Y0149113D01*
X0243705Y0149171D01*
X0243733Y0149228D01*
X0243764Y0149282D01*
X0243799Y0149334D01*
X0243837Y0149385D01*
X0243878Y0149433D01*
X0243922Y0149478D01*
X0243968Y0149520D01*
X0244017Y0149560D01*
X0244068Y0149596D01*
X0244122Y0149629D01*
X0244177Y0149659D01*
X0244235Y0149685D01*
X0244293Y0149708D01*
X0244353Y0149727D01*
X0244414Y0149742D01*
X0244476Y0149754D01*
X0244539Y0149762D01*
X0244602Y0149766D01*
X0244664Y0149766D01*
X0244727Y0149762D01*
X0244790Y0149754D01*
X0244852Y0149742D01*
X0244913Y0149727D01*
X0244973Y0149708D01*
X0245031Y0149685D01*
X0245089Y0149659D01*
X0245144Y0149629D01*
X0245198Y0149596D01*
X0245249Y0149560D01*
X0245298Y0149520D01*
X0245344Y0149478D01*
X0245388Y0149433D01*
X0245429Y0149385D01*
X0245467Y0149334D01*
X0245502Y0149282D01*
X0245533Y0149228D01*
X0245561Y0149171D01*
X0245586Y0149113D01*
X0245607Y0149054D01*
X0245624Y0148993D01*
X0245638Y0148932D01*
X0245647Y0148870D01*
X0245653Y0148807D01*
X0245655Y0148744D01*
X0245656Y0148744D02*
X0245656Y0147722D01*
X0245655Y0147722D02*
X0245653Y0147659D01*
X0245647Y0147596D01*
X0245638Y0147534D01*
X0245624Y0147473D01*
X0245607Y0147412D01*
X0245586Y0147353D01*
X0245561Y0147295D01*
X0245533Y0147238D01*
X0245502Y0147184D01*
X0245467Y0147132D01*
X0245429Y0147081D01*
X0245388Y0147033D01*
X0245344Y0146988D01*
X0245298Y0146946D01*
X0245249Y0146906D01*
X0245198Y0146870D01*
X0245144Y0146837D01*
X0245089Y0146807D01*
X0245031Y0146781D01*
X0244973Y0146758D01*
X0244913Y0146739D01*
X0244852Y0146724D01*
X0244790Y0146712D01*
X0244727Y0146704D01*
X0244664Y0146700D01*
X0244602Y0146700D01*
X0244539Y0146704D01*
X0244476Y0146712D01*
X0244414Y0146724D01*
X0244353Y0146739D01*
X0244293Y0146758D01*
X0244235Y0146781D01*
X0244177Y0146807D01*
X0244122Y0146837D01*
X0244068Y0146870D01*
X0244017Y0146906D01*
X0243968Y0146946D01*
X0243922Y0146988D01*
X0243878Y0147033D01*
X0243837Y0147081D01*
X0243799Y0147132D01*
X0243764Y0147184D01*
X0243733Y0147238D01*
X0243705Y0147295D01*
X0243680Y0147353D01*
X0243659Y0147412D01*
X0243642Y0147473D01*
X0243628Y0147534D01*
X0243619Y0147596D01*
X0243613Y0147659D01*
X0243611Y0147722D01*
X0247687Y0146700D02*
X0247687Y0149767D01*
X0249221Y0149767D01*
X0249221Y0149256D01*
X0253264Y0149256D02*
X0255309Y0149256D01*
X0257111Y0149767D02*
X0257111Y0147467D01*
X0257113Y0147412D01*
X0257119Y0147358D01*
X0257129Y0147304D01*
X0257142Y0147251D01*
X0257159Y0147199D01*
X0257180Y0147148D01*
X0257205Y0147099D01*
X0257233Y0147052D01*
X0257264Y0147007D01*
X0257298Y0146965D01*
X0257336Y0146925D01*
X0257376Y0146887D01*
X0257418Y0146853D01*
X0257463Y0146822D01*
X0257510Y0146794D01*
X0257559Y0146769D01*
X0257610Y0146748D01*
X0257662Y0146731D01*
X0257715Y0146718D01*
X0257769Y0146708D01*
X0257823Y0146702D01*
X0257878Y0146700D01*
X0259156Y0146700D01*
X0259156Y0149767D01*
X0261544Y0148489D02*
X0262822Y0147978D01*
X0262822Y0147979D02*
X0262869Y0147958D01*
X0262914Y0147933D01*
X0262957Y0147906D01*
X0262997Y0147875D01*
X0263036Y0147841D01*
X0263071Y0147804D01*
X0263104Y0147765D01*
X0263133Y0147723D01*
X0263159Y0147679D01*
X0263182Y0147633D01*
X0263201Y0147586D01*
X0263216Y0147537D01*
X0263227Y0147487D01*
X0263235Y0147436D01*
X0263239Y0147385D01*
X0263238Y0147334D01*
X0263234Y0147283D01*
X0263226Y0147233D01*
X0263214Y0147183D01*
X0263198Y0147135D01*
X0263179Y0147087D01*
X0263156Y0147042D01*
X0263130Y0146998D01*
X0263100Y0146957D01*
X0263067Y0146917D01*
X0263031Y0146881D01*
X0262993Y0146847D01*
X0262952Y0146817D01*
X0262909Y0146789D01*
X0262863Y0146766D01*
X0262816Y0146745D01*
X0262768Y0146728D01*
X0262719Y0146716D01*
X0262668Y0146706D01*
X0262618Y0146701D01*
X0262567Y0146700D01*
X0262950Y0149511D02*
X0262860Y0149550D01*
X0262767Y0149586D01*
X0262674Y0149619D01*
X0262580Y0149648D01*
X0262485Y0149675D01*
X0262389Y0149698D01*
X0262292Y0149718D01*
X0262194Y0149734D01*
X0262096Y0149747D01*
X0261998Y0149757D01*
X0261899Y0149764D01*
X0261800Y0149767D01*
X0261749Y0149766D01*
X0261699Y0149761D01*
X0261648Y0149751D01*
X0261599Y0149739D01*
X0261551Y0149722D01*
X0261504Y0149701D01*
X0261458Y0149678D01*
X0261415Y0149650D01*
X0261374Y0149620D01*
X0261336Y0149586D01*
X0261300Y0149550D01*
X0261267Y0149510D01*
X0261237Y0149469D01*
X0261211Y0149425D01*
X0261188Y0149380D01*
X0261169Y0149332D01*
X0261153Y0149284D01*
X0261141Y0149234D01*
X0261133Y0149184D01*
X0261129Y0149133D01*
X0261128Y0149082D01*
X0261132Y0149031D01*
X0261140Y0148980D01*
X0261151Y0148930D01*
X0261166Y0148881D01*
X0261185Y0148834D01*
X0261208Y0148788D01*
X0261234Y0148744D01*
X0261263Y0148702D01*
X0261296Y0148663D01*
X0261331Y0148626D01*
X0261370Y0148592D01*
X0261410Y0148561D01*
X0261453Y0148534D01*
X0261498Y0148509D01*
X0261545Y0148488D01*
X0261162Y0146956D02*
X0261285Y0146914D01*
X0261410Y0146875D01*
X0261535Y0146840D01*
X0261662Y0146809D01*
X0261790Y0146782D01*
X0261918Y0146759D01*
X0262047Y0146739D01*
X0262177Y0146724D01*
X0262306Y0146712D01*
X0262437Y0146704D01*
X0262567Y0146700D01*
X0265061Y0147467D02*
X0265061Y0148744D01*
X0265061Y0148233D02*
X0267106Y0148233D01*
X0267106Y0148744D01*
X0267105Y0148744D02*
X0267103Y0148807D01*
X0267097Y0148870D01*
X0267088Y0148932D01*
X0267074Y0148993D01*
X0267057Y0149054D01*
X0267036Y0149113D01*
X0267011Y0149171D01*
X0266983Y0149228D01*
X0266952Y0149282D01*
X0266917Y0149334D01*
X0266879Y0149385D01*
X0266838Y0149433D01*
X0266794Y0149478D01*
X0266748Y0149520D01*
X0266699Y0149560D01*
X0266648Y0149596D01*
X0266594Y0149629D01*
X0266539Y0149659D01*
X0266481Y0149685D01*
X0266423Y0149708D01*
X0266363Y0149727D01*
X0266302Y0149742D01*
X0266240Y0149754D01*
X0266177Y0149762D01*
X0266114Y0149766D01*
X0266052Y0149766D01*
X0265989Y0149762D01*
X0265926Y0149754D01*
X0265864Y0149742D01*
X0265803Y0149727D01*
X0265743Y0149708D01*
X0265685Y0149685D01*
X0265627Y0149659D01*
X0265572Y0149629D01*
X0265518Y0149596D01*
X0265467Y0149560D01*
X0265418Y0149520D01*
X0265372Y0149478D01*
X0265328Y0149433D01*
X0265287Y0149385D01*
X0265249Y0149334D01*
X0265214Y0149282D01*
X0265183Y0149228D01*
X0265155Y0149171D01*
X0265130Y0149113D01*
X0265109Y0149054D01*
X0265092Y0148993D01*
X0265078Y0148932D01*
X0265069Y0148870D01*
X0265063Y0148807D01*
X0265061Y0148744D01*
X0265061Y0147467D02*
X0265063Y0147412D01*
X0265069Y0147358D01*
X0265079Y0147304D01*
X0265092Y0147251D01*
X0265109Y0147199D01*
X0265130Y0147148D01*
X0265155Y0147099D01*
X0265183Y0147052D01*
X0265214Y0147007D01*
X0265248Y0146965D01*
X0265286Y0146925D01*
X0265326Y0146887D01*
X0265368Y0146853D01*
X0265413Y0146822D01*
X0265460Y0146794D01*
X0265509Y0146769D01*
X0265560Y0146748D01*
X0265612Y0146731D01*
X0265665Y0146718D01*
X0265719Y0146708D01*
X0265773Y0146702D01*
X0265828Y0146700D01*
X0267106Y0146700D01*
X0255309Y0151300D02*
X0253264Y0151300D01*
X0253264Y0146700D01*
X0286700Y0151700D02*
X0286700Y0156300D01*
X0288233Y0153744D01*
X0289767Y0156300D01*
X0289767Y0151700D01*
X0291861Y0152722D02*
X0291861Y0153744D01*
X0291863Y0153807D01*
X0291869Y0153870D01*
X0291878Y0153932D01*
X0291892Y0153993D01*
X0291909Y0154054D01*
X0291930Y0154113D01*
X0291955Y0154171D01*
X0291983Y0154228D01*
X0292014Y0154282D01*
X0292049Y0154334D01*
X0292087Y0154385D01*
X0292128Y0154433D01*
X0292172Y0154478D01*
X0292218Y0154520D01*
X0292267Y0154560D01*
X0292318Y0154596D01*
X0292372Y0154629D01*
X0292427Y0154659D01*
X0292485Y0154685D01*
X0292543Y0154708D01*
X0292603Y0154727D01*
X0292664Y0154742D01*
X0292726Y0154754D01*
X0292789Y0154762D01*
X0292852Y0154766D01*
X0292914Y0154766D01*
X0292977Y0154762D01*
X0293040Y0154754D01*
X0293102Y0154742D01*
X0293163Y0154727D01*
X0293223Y0154708D01*
X0293281Y0154685D01*
X0293339Y0154659D01*
X0293394Y0154629D01*
X0293448Y0154596D01*
X0293499Y0154560D01*
X0293548Y0154520D01*
X0293594Y0154478D01*
X0293638Y0154433D01*
X0293679Y0154385D01*
X0293717Y0154334D01*
X0293752Y0154282D01*
X0293783Y0154228D01*
X0293811Y0154171D01*
X0293836Y0154113D01*
X0293857Y0154054D01*
X0293874Y0153993D01*
X0293888Y0153932D01*
X0293897Y0153870D01*
X0293903Y0153807D01*
X0293905Y0153744D01*
X0293906Y0153744D02*
X0293906Y0152722D01*
X0293905Y0152722D02*
X0293903Y0152659D01*
X0293897Y0152596D01*
X0293888Y0152534D01*
X0293874Y0152473D01*
X0293857Y0152412D01*
X0293836Y0152353D01*
X0293811Y0152295D01*
X0293783Y0152238D01*
X0293752Y0152184D01*
X0293717Y0152132D01*
X0293679Y0152081D01*
X0293638Y0152033D01*
X0293594Y0151988D01*
X0293548Y0151946D01*
X0293499Y0151906D01*
X0293448Y0151870D01*
X0293394Y0151837D01*
X0293339Y0151807D01*
X0293281Y0151781D01*
X0293223Y0151758D01*
X0293163Y0151739D01*
X0293102Y0151724D01*
X0293040Y0151712D01*
X0292977Y0151704D01*
X0292914Y0151700D01*
X0292852Y0151700D01*
X0292789Y0151704D01*
X0292726Y0151712D01*
X0292664Y0151724D01*
X0292603Y0151739D01*
X0292543Y0151758D01*
X0292485Y0151781D01*
X0292427Y0151807D01*
X0292372Y0151837D01*
X0292318Y0151870D01*
X0292267Y0151906D01*
X0292218Y0151946D01*
X0292172Y0151988D01*
X0292128Y0152033D01*
X0292087Y0152081D01*
X0292049Y0152132D01*
X0292014Y0152184D01*
X0291983Y0152238D01*
X0291955Y0152295D01*
X0291930Y0152353D01*
X0291909Y0152412D01*
X0291892Y0152473D01*
X0291878Y0152534D01*
X0291869Y0152596D01*
X0291863Y0152659D01*
X0291861Y0152722D01*
X0295891Y0152467D02*
X0295891Y0156300D01*
X0295380Y0154767D02*
X0296914Y0154767D01*
X0298611Y0153744D02*
X0298611Y0152722D01*
X0298613Y0152659D01*
X0298619Y0152596D01*
X0298628Y0152534D01*
X0298642Y0152473D01*
X0298659Y0152412D01*
X0298680Y0152353D01*
X0298705Y0152295D01*
X0298733Y0152238D01*
X0298764Y0152184D01*
X0298799Y0152132D01*
X0298837Y0152081D01*
X0298878Y0152033D01*
X0298922Y0151988D01*
X0298968Y0151946D01*
X0299017Y0151906D01*
X0299068Y0151870D01*
X0299122Y0151837D01*
X0299177Y0151807D01*
X0299235Y0151781D01*
X0299293Y0151758D01*
X0299353Y0151739D01*
X0299414Y0151724D01*
X0299476Y0151712D01*
X0299539Y0151704D01*
X0299602Y0151700D01*
X0299664Y0151700D01*
X0299727Y0151704D01*
X0299790Y0151712D01*
X0299852Y0151724D01*
X0299913Y0151739D01*
X0299973Y0151758D01*
X0300031Y0151781D01*
X0300089Y0151807D01*
X0300144Y0151837D01*
X0300198Y0151870D01*
X0300249Y0151906D01*
X0300298Y0151946D01*
X0300344Y0151988D01*
X0300388Y0152033D01*
X0300429Y0152081D01*
X0300467Y0152132D01*
X0300502Y0152184D01*
X0300533Y0152238D01*
X0300561Y0152295D01*
X0300586Y0152353D01*
X0300607Y0152412D01*
X0300624Y0152473D01*
X0300638Y0152534D01*
X0300647Y0152596D01*
X0300653Y0152659D01*
X0300655Y0152722D01*
X0300656Y0152722D02*
X0300656Y0153744D01*
X0300655Y0153744D02*
X0300653Y0153807D01*
X0300647Y0153870D01*
X0300638Y0153932D01*
X0300624Y0153993D01*
X0300607Y0154054D01*
X0300586Y0154113D01*
X0300561Y0154171D01*
X0300533Y0154228D01*
X0300502Y0154282D01*
X0300467Y0154334D01*
X0300429Y0154385D01*
X0300388Y0154433D01*
X0300344Y0154478D01*
X0300298Y0154520D01*
X0300249Y0154560D01*
X0300198Y0154596D01*
X0300144Y0154629D01*
X0300089Y0154659D01*
X0300031Y0154685D01*
X0299973Y0154708D01*
X0299913Y0154727D01*
X0299852Y0154742D01*
X0299790Y0154754D01*
X0299727Y0154762D01*
X0299664Y0154766D01*
X0299602Y0154766D01*
X0299539Y0154762D01*
X0299476Y0154754D01*
X0299414Y0154742D01*
X0299353Y0154727D01*
X0299293Y0154708D01*
X0299235Y0154685D01*
X0299177Y0154659D01*
X0299122Y0154629D01*
X0299068Y0154596D01*
X0299017Y0154560D01*
X0298968Y0154520D01*
X0298922Y0154478D01*
X0298878Y0154433D01*
X0298837Y0154385D01*
X0298799Y0154334D01*
X0298764Y0154282D01*
X0298733Y0154228D01*
X0298705Y0154171D01*
X0298680Y0154113D01*
X0298659Y0154054D01*
X0298642Y0153993D01*
X0298628Y0153932D01*
X0298619Y0153870D01*
X0298613Y0153807D01*
X0298611Y0153744D01*
X0296658Y0151700D02*
X0296603Y0151702D01*
X0296549Y0151708D01*
X0296495Y0151718D01*
X0296442Y0151731D01*
X0296390Y0151748D01*
X0296339Y0151769D01*
X0296290Y0151794D01*
X0296243Y0151822D01*
X0296198Y0151853D01*
X0296156Y0151887D01*
X0296116Y0151925D01*
X0296078Y0151965D01*
X0296044Y0152007D01*
X0296013Y0152052D01*
X0295985Y0152099D01*
X0295960Y0152148D01*
X0295939Y0152199D01*
X0295922Y0152251D01*
X0295909Y0152304D01*
X0295899Y0152358D01*
X0295893Y0152412D01*
X0295891Y0152467D01*
X0296658Y0151700D02*
X0296914Y0151700D01*
X0302687Y0151700D02*
X0302687Y0154767D01*
X0304221Y0154767D01*
X0304221Y0154256D01*
X0308594Y0154383D02*
X0310000Y0153617D01*
X0309489Y0151700D02*
X0309399Y0151702D01*
X0309310Y0151707D01*
X0309221Y0151717D01*
X0309132Y0151730D01*
X0309044Y0151746D01*
X0308956Y0151767D01*
X0308870Y0151791D01*
X0308784Y0151818D01*
X0308700Y0151849D01*
X0308617Y0151884D01*
X0308536Y0151922D01*
X0308456Y0151963D01*
X0308379Y0152007D01*
X0308303Y0152055D01*
X0308229Y0152106D01*
X0308157Y0152160D01*
X0308088Y0152217D01*
X0308020Y0152276D01*
X0307956Y0152339D01*
X0310000Y0153616D02*
X0310054Y0153582D01*
X0310105Y0153545D01*
X0310154Y0153505D01*
X0310201Y0153462D01*
X0310244Y0153416D01*
X0310285Y0153368D01*
X0310323Y0153317D01*
X0310358Y0153264D01*
X0310390Y0153209D01*
X0310418Y0153152D01*
X0310442Y0153094D01*
X0310463Y0153034D01*
X0310480Y0152973D01*
X0310494Y0152911D01*
X0310503Y0152848D01*
X0310509Y0152785D01*
X0310511Y0152722D01*
X0310509Y0152660D01*
X0310504Y0152599D01*
X0310494Y0152538D01*
X0310481Y0152477D01*
X0310465Y0152418D01*
X0310445Y0152360D01*
X0310421Y0152303D01*
X0310394Y0152247D01*
X0310364Y0152193D01*
X0310330Y0152141D01*
X0310294Y0152092D01*
X0310254Y0152044D01*
X0310212Y0151999D01*
X0310167Y0151957D01*
X0310119Y0151917D01*
X0310070Y0151881D01*
X0310018Y0151847D01*
X0309964Y0151817D01*
X0309908Y0151790D01*
X0309851Y0151766D01*
X0309793Y0151746D01*
X0309734Y0151730D01*
X0309673Y0151717D01*
X0309612Y0151707D01*
X0309551Y0151702D01*
X0309489Y0151700D01*
X0310256Y0155917D02*
X0310189Y0155965D01*
X0310121Y0156010D01*
X0310050Y0156052D01*
X0309977Y0156090D01*
X0309903Y0156126D01*
X0309828Y0156159D01*
X0309751Y0156188D01*
X0309673Y0156214D01*
X0309594Y0156237D01*
X0309514Y0156256D01*
X0309433Y0156272D01*
X0309352Y0156284D01*
X0309270Y0156293D01*
X0309188Y0156298D01*
X0309106Y0156300D01*
X0309044Y0156298D01*
X0308983Y0156293D01*
X0308922Y0156283D01*
X0308861Y0156270D01*
X0308802Y0156254D01*
X0308744Y0156234D01*
X0308687Y0156210D01*
X0308631Y0156183D01*
X0308577Y0156153D01*
X0308525Y0156119D01*
X0308476Y0156083D01*
X0308428Y0156043D01*
X0308383Y0156001D01*
X0308341Y0155956D01*
X0308302Y0155908D01*
X0308265Y0155859D01*
X0308231Y0155807D01*
X0308201Y0155753D01*
X0308174Y0155697D01*
X0308150Y0155640D01*
X0308130Y0155582D01*
X0308114Y0155523D01*
X0308101Y0155462D01*
X0308091Y0155401D01*
X0308086Y0155340D01*
X0308084Y0155278D01*
X0308083Y0155278D02*
X0308085Y0155215D01*
X0308091Y0155152D01*
X0308100Y0155089D01*
X0308114Y0155027D01*
X0308131Y0154966D01*
X0308152Y0154906D01*
X0308176Y0154848D01*
X0308204Y0154791D01*
X0308236Y0154736D01*
X0308271Y0154683D01*
X0308309Y0154632D01*
X0308350Y0154584D01*
X0308393Y0154538D01*
X0308440Y0154495D01*
X0308489Y0154455D01*
X0308540Y0154418D01*
X0308594Y0154384D01*
X0312200Y0154767D02*
X0312967Y0151700D01*
X0313733Y0153744D01*
X0314500Y0151700D01*
X0315267Y0154767D01*
X0317033Y0154767D02*
X0317033Y0151700D01*
X0318991Y0152467D02*
X0318991Y0156300D01*
X0318480Y0154767D02*
X0320014Y0154767D01*
X0321716Y0154000D02*
X0321716Y0152467D01*
X0321718Y0152412D01*
X0321724Y0152358D01*
X0321734Y0152304D01*
X0321747Y0152251D01*
X0321764Y0152199D01*
X0321785Y0152148D01*
X0321810Y0152099D01*
X0321838Y0152052D01*
X0321869Y0152007D01*
X0321903Y0151965D01*
X0321941Y0151925D01*
X0321981Y0151887D01*
X0322023Y0151853D01*
X0322068Y0151822D01*
X0322115Y0151794D01*
X0322164Y0151769D01*
X0322215Y0151748D01*
X0322267Y0151731D01*
X0322320Y0151718D01*
X0322374Y0151708D01*
X0322428Y0151702D01*
X0322483Y0151700D01*
X0323505Y0151700D01*
X0325311Y0151700D02*
X0325311Y0156300D01*
X0325311Y0154767D02*
X0326589Y0154767D01*
X0326644Y0154765D01*
X0326698Y0154759D01*
X0326752Y0154749D01*
X0326805Y0154736D01*
X0326857Y0154719D01*
X0326908Y0154698D01*
X0326957Y0154673D01*
X0327004Y0154645D01*
X0327049Y0154614D01*
X0327091Y0154580D01*
X0327131Y0154542D01*
X0327169Y0154502D01*
X0327203Y0154460D01*
X0327234Y0154415D01*
X0327262Y0154368D01*
X0327287Y0154319D01*
X0327308Y0154268D01*
X0327325Y0154216D01*
X0327338Y0154163D01*
X0327348Y0154109D01*
X0327354Y0154055D01*
X0327356Y0154000D01*
X0327355Y0154000D02*
X0327355Y0151700D01*
X0323505Y0154767D02*
X0322483Y0154767D01*
X0322428Y0154765D01*
X0322374Y0154759D01*
X0322320Y0154749D01*
X0322267Y0154736D01*
X0322215Y0154719D01*
X0322164Y0154698D01*
X0322115Y0154673D01*
X0322068Y0154645D01*
X0322023Y0154614D01*
X0321981Y0154580D01*
X0321941Y0154542D01*
X0321903Y0154502D01*
X0321869Y0154460D01*
X0321838Y0154415D01*
X0321810Y0154368D01*
X0321785Y0154319D01*
X0321764Y0154268D01*
X0321747Y0154216D01*
X0321734Y0154163D01*
X0321724Y0154109D01*
X0321718Y0154055D01*
X0321716Y0154000D01*
X0319758Y0151700D02*
X0319703Y0151702D01*
X0319649Y0151708D01*
X0319595Y0151718D01*
X0319542Y0151731D01*
X0319490Y0151748D01*
X0319439Y0151769D01*
X0319390Y0151794D01*
X0319343Y0151822D01*
X0319298Y0151853D01*
X0319256Y0151887D01*
X0319216Y0151925D01*
X0319178Y0151965D01*
X0319144Y0152007D01*
X0319113Y0152052D01*
X0319085Y0152099D01*
X0319060Y0152148D01*
X0319039Y0152199D01*
X0319022Y0152251D01*
X0319009Y0152304D01*
X0318999Y0152358D01*
X0318993Y0152412D01*
X0318991Y0152467D01*
X0319758Y0151700D02*
X0320014Y0151700D01*
X0317161Y0156044D02*
X0316906Y0156044D01*
X0316906Y0156300D01*
X0317161Y0156300D01*
X0317161Y0156044D01*
X0352200Y0130278D02*
X0353478Y0131300D01*
X0353478Y0126700D01*
X0352200Y0126700D02*
X0354756Y0126700D01*
X0356700Y0126700D02*
X0358872Y0129256D01*
X0358106Y0131300D02*
X0358032Y0131298D01*
X0357958Y0131293D01*
X0357884Y0131283D01*
X0357811Y0131270D01*
X0357738Y0131254D01*
X0357667Y0131233D01*
X0357597Y0131209D01*
X0357528Y0131182D01*
X0357460Y0131151D01*
X0357394Y0131117D01*
X0357330Y0131080D01*
X0357268Y0131039D01*
X0357208Y0130995D01*
X0357150Y0130949D01*
X0357094Y0130899D01*
X0357041Y0130847D01*
X0356991Y0130792D01*
X0356944Y0130735D01*
X0356900Y0130675D01*
X0356858Y0130613D01*
X0356820Y0130550D01*
X0356785Y0130484D01*
X0356754Y0130417D01*
X0356726Y0130348D01*
X0356701Y0130278D01*
X0358872Y0129256D02*
X0358919Y0129303D01*
X0358963Y0129353D01*
X0359005Y0129405D01*
X0359044Y0129459D01*
X0359079Y0129515D01*
X0359112Y0129573D01*
X0359142Y0129633D01*
X0359168Y0129694D01*
X0359191Y0129757D01*
X0359210Y0129821D01*
X0359226Y0129885D01*
X0359239Y0129951D01*
X0359248Y0130017D01*
X0359253Y0130083D01*
X0359255Y0130150D01*
X0359256Y0130150D02*
X0359254Y0130217D01*
X0359248Y0130284D01*
X0359239Y0130350D01*
X0359225Y0130415D01*
X0359208Y0130480D01*
X0359187Y0130543D01*
X0359162Y0130605D01*
X0359134Y0130666D01*
X0359102Y0130725D01*
X0359067Y0130782D01*
X0359028Y0130837D01*
X0358987Y0130889D01*
X0358942Y0130939D01*
X0358895Y0130986D01*
X0358845Y0131031D01*
X0358793Y0131072D01*
X0358738Y0131111D01*
X0358681Y0131146D01*
X0358622Y0131178D01*
X0358561Y0131206D01*
X0358499Y0131231D01*
X0358436Y0131252D01*
X0358371Y0131269D01*
X0358306Y0131283D01*
X0358240Y0131292D01*
X0358173Y0131298D01*
X0358106Y0131300D01*
X0360944Y0131300D02*
X0362478Y0126700D01*
X0364011Y0131300D01*
X0359256Y0126700D02*
X0356700Y0126700D01*
X0330578Y0102800D02*
X0329300Y0102800D01*
X0329300Y0098200D01*
X0330578Y0098200D01*
X0330647Y0098202D01*
X0330716Y0098207D01*
X0330785Y0098217D01*
X0330853Y0098230D01*
X0330920Y0098247D01*
X0330986Y0098267D01*
X0331051Y0098291D01*
X0331115Y0098318D01*
X0331177Y0098349D01*
X0331237Y0098383D01*
X0331295Y0098420D01*
X0331351Y0098461D01*
X0331405Y0098504D01*
X0331457Y0098550D01*
X0331506Y0098599D01*
X0331552Y0098651D01*
X0331595Y0098705D01*
X0331636Y0098761D01*
X0331673Y0098819D01*
X0331707Y0098879D01*
X0331738Y0098941D01*
X0331765Y0099005D01*
X0331789Y0099070D01*
X0331809Y0099136D01*
X0331826Y0099203D01*
X0331839Y0099271D01*
X0331849Y0099340D01*
X0331854Y0099409D01*
X0331856Y0099478D01*
X0331856Y0101522D01*
X0331854Y0101591D01*
X0331849Y0101660D01*
X0331839Y0101729D01*
X0331826Y0101797D01*
X0331809Y0101864D01*
X0331789Y0101930D01*
X0331765Y0101995D01*
X0331738Y0102059D01*
X0331707Y0102121D01*
X0331673Y0102181D01*
X0331636Y0102239D01*
X0331595Y0102295D01*
X0331552Y0102349D01*
X0331506Y0102401D01*
X0331457Y0102450D01*
X0331405Y0102496D01*
X0331351Y0102539D01*
X0331295Y0102580D01*
X0331237Y0102617D01*
X0331177Y0102651D01*
X0331115Y0102682D01*
X0331051Y0102709D01*
X0330986Y0102733D01*
X0330920Y0102753D01*
X0330853Y0102770D01*
X0330785Y0102783D01*
X0330716Y0102793D01*
X0330647Y0102798D01*
X0330578Y0102800D01*
X0327056Y0102800D02*
X0327056Y0098200D01*
X0324500Y0102800D01*
X0324500Y0098200D01*
X0322256Y0098200D02*
X0320722Y0098200D01*
X0320660Y0098202D01*
X0320599Y0098207D01*
X0320538Y0098217D01*
X0320477Y0098230D01*
X0320418Y0098246D01*
X0320360Y0098266D01*
X0320303Y0098290D01*
X0320247Y0098317D01*
X0320193Y0098347D01*
X0320141Y0098381D01*
X0320092Y0098417D01*
X0320044Y0098457D01*
X0319999Y0098499D01*
X0319957Y0098544D01*
X0319917Y0098592D01*
X0319881Y0098641D01*
X0319847Y0098693D01*
X0319817Y0098747D01*
X0319790Y0098803D01*
X0319766Y0098860D01*
X0319746Y0098918D01*
X0319730Y0098977D01*
X0319717Y0099038D01*
X0319707Y0099099D01*
X0319702Y0099160D01*
X0319700Y0099222D01*
X0319700Y0101778D01*
X0319702Y0101840D01*
X0319707Y0101901D01*
X0319717Y0101962D01*
X0319730Y0102023D01*
X0319746Y0102082D01*
X0319766Y0102140D01*
X0319790Y0102197D01*
X0319817Y0102253D01*
X0319847Y0102307D01*
X0319881Y0102359D01*
X0319917Y0102408D01*
X0319957Y0102456D01*
X0319999Y0102501D01*
X0320044Y0102543D01*
X0320092Y0102582D01*
X0320141Y0102619D01*
X0320193Y0102653D01*
X0320247Y0102683D01*
X0320303Y0102710D01*
X0320360Y0102734D01*
X0320418Y0102754D01*
X0320477Y0102770D01*
X0320538Y0102783D01*
X0320599Y0102793D01*
X0320660Y0102798D01*
X0320722Y0102800D01*
X0322256Y0102800D01*
X0322256Y0100756D02*
X0321489Y0100756D01*
X0322256Y0100756D02*
X0322256Y0098200D01*
X0292511Y0083300D02*
X0290978Y0078700D01*
X0289444Y0083300D01*
X0287372Y0081256D02*
X0285200Y0078700D01*
X0287756Y0078700D01*
X0285201Y0082278D02*
X0285226Y0082348D01*
X0285254Y0082417D01*
X0285285Y0082484D01*
X0285320Y0082550D01*
X0285358Y0082613D01*
X0285400Y0082675D01*
X0285444Y0082735D01*
X0285491Y0082792D01*
X0285541Y0082847D01*
X0285594Y0082899D01*
X0285650Y0082949D01*
X0285708Y0082995D01*
X0285768Y0083039D01*
X0285830Y0083080D01*
X0285894Y0083117D01*
X0285960Y0083151D01*
X0286028Y0083182D01*
X0286097Y0083209D01*
X0286167Y0083233D01*
X0286238Y0083254D01*
X0286311Y0083270D01*
X0286384Y0083283D01*
X0286458Y0083293D01*
X0286532Y0083298D01*
X0286606Y0083300D01*
X0286673Y0083298D01*
X0286740Y0083292D01*
X0286806Y0083283D01*
X0286871Y0083269D01*
X0286936Y0083252D01*
X0286999Y0083231D01*
X0287061Y0083206D01*
X0287122Y0083178D01*
X0287181Y0083146D01*
X0287238Y0083111D01*
X0287293Y0083072D01*
X0287345Y0083031D01*
X0287395Y0082986D01*
X0287442Y0082939D01*
X0287487Y0082889D01*
X0287528Y0082837D01*
X0287567Y0082782D01*
X0287602Y0082725D01*
X0287634Y0082666D01*
X0287662Y0082605D01*
X0287687Y0082543D01*
X0287708Y0082480D01*
X0287725Y0082415D01*
X0287739Y0082350D01*
X0287748Y0082284D01*
X0287754Y0082217D01*
X0287756Y0082150D01*
X0287755Y0082150D02*
X0287753Y0082083D01*
X0287748Y0082017D01*
X0287739Y0081951D01*
X0287726Y0081885D01*
X0287710Y0081821D01*
X0287691Y0081757D01*
X0287668Y0081694D01*
X0287642Y0081633D01*
X0287612Y0081573D01*
X0287579Y0081515D01*
X0287544Y0081459D01*
X0287505Y0081405D01*
X0287463Y0081353D01*
X0287419Y0081303D01*
X0287372Y0081256D01*
X0283256Y0078700D02*
X0280700Y0078700D01*
X0281978Y0078700D02*
X0281978Y0083300D01*
X0280700Y0082278D01*
X0248791Y0099700D02*
X0248791Y0102000D01*
X0248789Y0102055D01*
X0248783Y0102109D01*
X0248773Y0102163D01*
X0248760Y0102216D01*
X0248743Y0102268D01*
X0248722Y0102319D01*
X0248697Y0102368D01*
X0248669Y0102415D01*
X0248638Y0102460D01*
X0248604Y0102502D01*
X0248566Y0102542D01*
X0248526Y0102580D01*
X0248484Y0102614D01*
X0248439Y0102645D01*
X0248392Y0102673D01*
X0248343Y0102698D01*
X0248292Y0102719D01*
X0248240Y0102736D01*
X0248187Y0102749D01*
X0248133Y0102759D01*
X0248079Y0102765D01*
X0248024Y0102767D01*
X0246747Y0102767D01*
X0246747Y0104300D02*
X0246747Y0099700D01*
X0244941Y0099700D02*
X0243918Y0099700D01*
X0243863Y0099702D01*
X0243809Y0099708D01*
X0243755Y0099718D01*
X0243702Y0099731D01*
X0243650Y0099748D01*
X0243599Y0099769D01*
X0243550Y0099794D01*
X0243503Y0099822D01*
X0243458Y0099853D01*
X0243416Y0099887D01*
X0243376Y0099925D01*
X0243338Y0099965D01*
X0243304Y0100007D01*
X0243273Y0100052D01*
X0243245Y0100099D01*
X0243220Y0100148D01*
X0243199Y0100199D01*
X0243182Y0100251D01*
X0243169Y0100304D01*
X0243159Y0100358D01*
X0243153Y0100412D01*
X0243151Y0100467D01*
X0243152Y0100467D02*
X0243152Y0102000D01*
X0243151Y0102000D02*
X0243153Y0102055D01*
X0243159Y0102109D01*
X0243169Y0102163D01*
X0243182Y0102216D01*
X0243199Y0102268D01*
X0243220Y0102319D01*
X0243245Y0102368D01*
X0243273Y0102415D01*
X0243304Y0102460D01*
X0243338Y0102502D01*
X0243376Y0102542D01*
X0243416Y0102580D01*
X0243458Y0102614D01*
X0243503Y0102645D01*
X0243550Y0102673D01*
X0243599Y0102698D01*
X0243650Y0102719D01*
X0243702Y0102736D01*
X0243755Y0102749D01*
X0243809Y0102759D01*
X0243863Y0102765D01*
X0243918Y0102767D01*
X0244941Y0102767D01*
X0241449Y0102767D02*
X0239916Y0102767D01*
X0238469Y0102767D02*
X0238469Y0099700D01*
X0240427Y0100467D02*
X0240427Y0104300D01*
X0238597Y0104300D02*
X0238597Y0104044D01*
X0238341Y0104044D01*
X0238341Y0104300D01*
X0238597Y0104300D01*
X0236702Y0102767D02*
X0235936Y0099700D01*
X0235169Y0101744D01*
X0234402Y0099700D01*
X0233636Y0102767D01*
X0231436Y0101617D02*
X0230030Y0102383D01*
X0230541Y0104300D02*
X0230623Y0104298D01*
X0230705Y0104293D01*
X0230787Y0104284D01*
X0230868Y0104272D01*
X0230949Y0104256D01*
X0231029Y0104237D01*
X0231108Y0104214D01*
X0231186Y0104188D01*
X0231263Y0104159D01*
X0231338Y0104126D01*
X0231412Y0104090D01*
X0231485Y0104052D01*
X0231556Y0104010D01*
X0231624Y0103965D01*
X0231691Y0103917D01*
X0230030Y0102384D02*
X0229976Y0102418D01*
X0229925Y0102455D01*
X0229876Y0102495D01*
X0229829Y0102538D01*
X0229786Y0102584D01*
X0229745Y0102632D01*
X0229707Y0102683D01*
X0229672Y0102736D01*
X0229640Y0102791D01*
X0229612Y0102848D01*
X0229588Y0102906D01*
X0229567Y0102966D01*
X0229550Y0103027D01*
X0229536Y0103089D01*
X0229527Y0103152D01*
X0229521Y0103215D01*
X0229519Y0103278D01*
X0229521Y0103340D01*
X0229526Y0103401D01*
X0229536Y0103462D01*
X0229549Y0103523D01*
X0229565Y0103582D01*
X0229585Y0103640D01*
X0229609Y0103697D01*
X0229636Y0103753D01*
X0229666Y0103807D01*
X0229700Y0103859D01*
X0229737Y0103908D01*
X0229776Y0103956D01*
X0229818Y0104001D01*
X0229863Y0104043D01*
X0229911Y0104083D01*
X0229960Y0104119D01*
X0230012Y0104153D01*
X0230066Y0104183D01*
X0230122Y0104210D01*
X0230179Y0104234D01*
X0230237Y0104254D01*
X0230296Y0104270D01*
X0230357Y0104283D01*
X0230418Y0104293D01*
X0230479Y0104298D01*
X0230541Y0104300D01*
X0229391Y0100339D02*
X0229455Y0100276D01*
X0229523Y0100217D01*
X0229592Y0100160D01*
X0229664Y0100106D01*
X0229738Y0100055D01*
X0229814Y0100007D01*
X0229891Y0099963D01*
X0229971Y0099922D01*
X0230052Y0099884D01*
X0230135Y0099849D01*
X0230219Y0099818D01*
X0230305Y0099791D01*
X0230391Y0099767D01*
X0230479Y0099746D01*
X0230567Y0099730D01*
X0230656Y0099717D01*
X0230745Y0099707D01*
X0230834Y0099702D01*
X0230924Y0099700D01*
X0230986Y0099702D01*
X0231047Y0099707D01*
X0231108Y0099717D01*
X0231169Y0099730D01*
X0231228Y0099746D01*
X0231286Y0099766D01*
X0231343Y0099790D01*
X0231399Y0099817D01*
X0231453Y0099847D01*
X0231505Y0099881D01*
X0231554Y0099917D01*
X0231602Y0099957D01*
X0231647Y0099999D01*
X0231689Y0100044D01*
X0231729Y0100092D01*
X0231765Y0100141D01*
X0231799Y0100193D01*
X0231829Y0100247D01*
X0231856Y0100303D01*
X0231880Y0100360D01*
X0231900Y0100418D01*
X0231916Y0100477D01*
X0231929Y0100538D01*
X0231939Y0100599D01*
X0231944Y0100660D01*
X0231946Y0100722D01*
X0231944Y0100785D01*
X0231938Y0100848D01*
X0231929Y0100911D01*
X0231915Y0100973D01*
X0231898Y0101034D01*
X0231877Y0101094D01*
X0231853Y0101152D01*
X0231825Y0101209D01*
X0231793Y0101264D01*
X0231758Y0101317D01*
X0231720Y0101368D01*
X0231679Y0101416D01*
X0231636Y0101462D01*
X0231589Y0101505D01*
X0231540Y0101545D01*
X0231489Y0101582D01*
X0231435Y0101616D01*
X0225441Y0102767D02*
X0224419Y0102767D01*
X0224364Y0102765D01*
X0224310Y0102759D01*
X0224256Y0102749D01*
X0224203Y0102736D01*
X0224151Y0102719D01*
X0224100Y0102698D01*
X0224051Y0102673D01*
X0224004Y0102645D01*
X0223959Y0102614D01*
X0223917Y0102580D01*
X0223877Y0102542D01*
X0223839Y0102502D01*
X0223805Y0102460D01*
X0223774Y0102415D01*
X0223746Y0102368D01*
X0223721Y0102319D01*
X0223700Y0102268D01*
X0223683Y0102216D01*
X0223670Y0102163D01*
X0223660Y0102109D01*
X0223654Y0102055D01*
X0223652Y0102000D01*
X0223652Y0100467D01*
X0223654Y0100412D01*
X0223660Y0100358D01*
X0223670Y0100304D01*
X0223683Y0100251D01*
X0223700Y0100199D01*
X0223721Y0100148D01*
X0223746Y0100099D01*
X0223774Y0100052D01*
X0223805Y0100007D01*
X0223839Y0099965D01*
X0223877Y0099925D01*
X0223917Y0099887D01*
X0223959Y0099853D01*
X0224004Y0099822D01*
X0224051Y0099794D01*
X0224100Y0099769D01*
X0224151Y0099748D01*
X0224203Y0099731D01*
X0224256Y0099718D01*
X0224310Y0099708D01*
X0224364Y0099702D01*
X0224419Y0099700D01*
X0225441Y0099700D01*
X0221819Y0099700D02*
X0221819Y0102767D01*
X0221947Y0104044D02*
X0221691Y0104044D01*
X0221691Y0104300D01*
X0221947Y0104300D01*
X0221947Y0104044D01*
X0219818Y0102767D02*
X0219818Y0098933D01*
X0219816Y0098878D01*
X0219810Y0098824D01*
X0219800Y0098770D01*
X0219787Y0098717D01*
X0219770Y0098665D01*
X0219749Y0098614D01*
X0219724Y0098565D01*
X0219696Y0098518D01*
X0219665Y0098473D01*
X0219631Y0098431D01*
X0219593Y0098391D01*
X0219553Y0098353D01*
X0219511Y0098319D01*
X0219466Y0098288D01*
X0219419Y0098260D01*
X0219370Y0098235D01*
X0219319Y0098214D01*
X0219267Y0098197D01*
X0219214Y0098184D01*
X0219160Y0098174D01*
X0219106Y0098168D01*
X0219051Y0098166D01*
X0219051Y0098167D02*
X0218029Y0098167D01*
X0218540Y0099700D02*
X0219818Y0099700D01*
X0218540Y0099700D02*
X0218485Y0099702D01*
X0218431Y0099708D01*
X0218377Y0099718D01*
X0218324Y0099731D01*
X0218272Y0099748D01*
X0218221Y0099769D01*
X0218172Y0099794D01*
X0218125Y0099822D01*
X0218080Y0099853D01*
X0218038Y0099887D01*
X0217998Y0099925D01*
X0217960Y0099965D01*
X0217926Y0100007D01*
X0217895Y0100052D01*
X0217867Y0100099D01*
X0217842Y0100148D01*
X0217821Y0100199D01*
X0217804Y0100251D01*
X0217791Y0100304D01*
X0217781Y0100358D01*
X0217775Y0100412D01*
X0217773Y0100467D01*
X0217773Y0102000D01*
X0217775Y0102055D01*
X0217781Y0102109D01*
X0217791Y0102163D01*
X0217804Y0102216D01*
X0217821Y0102268D01*
X0217842Y0102319D01*
X0217867Y0102368D01*
X0217895Y0102415D01*
X0217926Y0102460D01*
X0217960Y0102502D01*
X0217998Y0102542D01*
X0218038Y0102580D01*
X0218080Y0102614D01*
X0218125Y0102645D01*
X0218172Y0102673D01*
X0218221Y0102698D01*
X0218272Y0102719D01*
X0218324Y0102736D01*
X0218377Y0102749D01*
X0218431Y0102759D01*
X0218485Y0102765D01*
X0218540Y0102767D01*
X0219818Y0102767D01*
X0215941Y0101744D02*
X0215941Y0100722D01*
X0215939Y0100659D01*
X0215933Y0100596D01*
X0215924Y0100534D01*
X0215910Y0100473D01*
X0215893Y0100412D01*
X0215872Y0100353D01*
X0215847Y0100295D01*
X0215819Y0100238D01*
X0215788Y0100184D01*
X0215753Y0100132D01*
X0215715Y0100081D01*
X0215674Y0100033D01*
X0215630Y0099988D01*
X0215584Y0099946D01*
X0215535Y0099906D01*
X0215484Y0099870D01*
X0215430Y0099837D01*
X0215375Y0099807D01*
X0215317Y0099781D01*
X0215259Y0099758D01*
X0215199Y0099739D01*
X0215138Y0099724D01*
X0215076Y0099712D01*
X0215013Y0099704D01*
X0214950Y0099700D01*
X0214888Y0099700D01*
X0214825Y0099704D01*
X0214762Y0099712D01*
X0214700Y0099724D01*
X0214639Y0099739D01*
X0214579Y0099758D01*
X0214521Y0099781D01*
X0214463Y0099807D01*
X0214408Y0099837D01*
X0214354Y0099870D01*
X0214303Y0099906D01*
X0214254Y0099946D01*
X0214208Y0099988D01*
X0214164Y0100033D01*
X0214123Y0100081D01*
X0214085Y0100132D01*
X0214050Y0100184D01*
X0214019Y0100238D01*
X0213991Y0100295D01*
X0213966Y0100353D01*
X0213945Y0100412D01*
X0213928Y0100473D01*
X0213914Y0100534D01*
X0213905Y0100596D01*
X0213899Y0100659D01*
X0213897Y0100722D01*
X0213897Y0101744D01*
X0213899Y0101807D01*
X0213905Y0101870D01*
X0213914Y0101932D01*
X0213928Y0101993D01*
X0213945Y0102054D01*
X0213966Y0102113D01*
X0213991Y0102171D01*
X0214019Y0102228D01*
X0214050Y0102282D01*
X0214085Y0102334D01*
X0214123Y0102385D01*
X0214164Y0102433D01*
X0214208Y0102478D01*
X0214254Y0102520D01*
X0214303Y0102560D01*
X0214354Y0102596D01*
X0214408Y0102629D01*
X0214463Y0102659D01*
X0214521Y0102685D01*
X0214579Y0102708D01*
X0214639Y0102727D01*
X0214700Y0102742D01*
X0214762Y0102754D01*
X0214825Y0102762D01*
X0214888Y0102766D01*
X0214950Y0102766D01*
X0215013Y0102762D01*
X0215076Y0102754D01*
X0215138Y0102742D01*
X0215199Y0102727D01*
X0215259Y0102708D01*
X0215317Y0102685D01*
X0215375Y0102659D01*
X0215430Y0102629D01*
X0215484Y0102596D01*
X0215535Y0102560D01*
X0215584Y0102520D01*
X0215630Y0102478D01*
X0215674Y0102433D01*
X0215715Y0102385D01*
X0215753Y0102334D01*
X0215788Y0102282D01*
X0215819Y0102228D01*
X0215847Y0102171D01*
X0215872Y0102113D01*
X0215893Y0102054D01*
X0215910Y0101993D01*
X0215924Y0101932D01*
X0215933Y0101870D01*
X0215939Y0101807D01*
X0215941Y0101744D01*
X0212244Y0099700D02*
X0210200Y0099700D01*
X0210200Y0104300D01*
X0240427Y0100467D02*
X0240429Y0100412D01*
X0240435Y0100358D01*
X0240445Y0100304D01*
X0240458Y0100251D01*
X0240475Y0100199D01*
X0240496Y0100148D01*
X0240521Y0100099D01*
X0240549Y0100052D01*
X0240580Y0100007D01*
X0240614Y0099965D01*
X0240652Y0099925D01*
X0240692Y0099887D01*
X0240734Y0099853D01*
X0240779Y0099822D01*
X0240826Y0099794D01*
X0240875Y0099769D01*
X0240926Y0099748D01*
X0240978Y0099731D01*
X0241031Y0099718D01*
X0241085Y0099708D01*
X0241139Y0099702D01*
X0241194Y0099700D01*
X0241449Y0099700D01*
X0181041Y0129700D02*
X0179763Y0129700D01*
X0179708Y0129702D01*
X0179654Y0129708D01*
X0179600Y0129718D01*
X0179547Y0129731D01*
X0179495Y0129748D01*
X0179444Y0129769D01*
X0179395Y0129794D01*
X0179348Y0129822D01*
X0179303Y0129853D01*
X0179261Y0129887D01*
X0179221Y0129925D01*
X0179183Y0129965D01*
X0179149Y0130007D01*
X0179118Y0130052D01*
X0179090Y0130099D01*
X0179065Y0130148D01*
X0179044Y0130199D01*
X0179027Y0130251D01*
X0179014Y0130304D01*
X0179004Y0130358D01*
X0178998Y0130412D01*
X0178996Y0130467D01*
X0178997Y0130467D02*
X0178997Y0131744D01*
X0178997Y0131233D02*
X0181041Y0131233D01*
X0181041Y0131744D01*
X0181039Y0131807D01*
X0181033Y0131870D01*
X0181024Y0131932D01*
X0181010Y0131993D01*
X0180993Y0132054D01*
X0180972Y0132113D01*
X0180947Y0132171D01*
X0180919Y0132228D01*
X0180888Y0132282D01*
X0180853Y0132334D01*
X0180815Y0132385D01*
X0180774Y0132433D01*
X0180730Y0132478D01*
X0180684Y0132520D01*
X0180635Y0132560D01*
X0180584Y0132596D01*
X0180530Y0132629D01*
X0180475Y0132659D01*
X0180417Y0132685D01*
X0180359Y0132708D01*
X0180299Y0132727D01*
X0180238Y0132742D01*
X0180176Y0132754D01*
X0180113Y0132762D01*
X0180050Y0132766D01*
X0179988Y0132766D01*
X0179925Y0132762D01*
X0179862Y0132754D01*
X0179800Y0132742D01*
X0179739Y0132727D01*
X0179679Y0132708D01*
X0179621Y0132685D01*
X0179563Y0132659D01*
X0179508Y0132629D01*
X0179454Y0132596D01*
X0179403Y0132560D01*
X0179354Y0132520D01*
X0179308Y0132478D01*
X0179264Y0132433D01*
X0179223Y0132385D01*
X0179185Y0132334D01*
X0179150Y0132282D01*
X0179119Y0132228D01*
X0179091Y0132171D01*
X0179066Y0132113D01*
X0179045Y0132054D01*
X0179028Y0131993D01*
X0179014Y0131932D01*
X0179005Y0131870D01*
X0178999Y0131807D01*
X0178997Y0131744D01*
X0176758Y0130978D02*
X0175480Y0131489D01*
X0175480Y0131488D02*
X0175433Y0131509D01*
X0175388Y0131534D01*
X0175345Y0131561D01*
X0175305Y0131592D01*
X0175266Y0131626D01*
X0175231Y0131663D01*
X0175198Y0131702D01*
X0175169Y0131744D01*
X0175143Y0131788D01*
X0175120Y0131834D01*
X0175101Y0131881D01*
X0175086Y0131930D01*
X0175075Y0131980D01*
X0175067Y0132031D01*
X0175063Y0132082D01*
X0175064Y0132133D01*
X0175068Y0132184D01*
X0175076Y0132234D01*
X0175088Y0132284D01*
X0175104Y0132332D01*
X0175123Y0132380D01*
X0175146Y0132425D01*
X0175172Y0132469D01*
X0175202Y0132510D01*
X0175235Y0132550D01*
X0175271Y0132586D01*
X0175309Y0132620D01*
X0175350Y0132650D01*
X0175393Y0132678D01*
X0175439Y0132701D01*
X0175486Y0132722D01*
X0175534Y0132739D01*
X0175583Y0132751D01*
X0175634Y0132761D01*
X0175684Y0132766D01*
X0175735Y0132767D01*
X0175097Y0129956D02*
X0175220Y0129914D01*
X0175345Y0129875D01*
X0175470Y0129840D01*
X0175597Y0129809D01*
X0175725Y0129782D01*
X0175853Y0129759D01*
X0175982Y0129739D01*
X0176112Y0129724D01*
X0176241Y0129712D01*
X0176372Y0129704D01*
X0176502Y0129700D01*
X0176503Y0129700D02*
X0176554Y0129701D01*
X0176604Y0129706D01*
X0176655Y0129716D01*
X0176704Y0129728D01*
X0176752Y0129745D01*
X0176799Y0129766D01*
X0176845Y0129789D01*
X0176888Y0129817D01*
X0176929Y0129847D01*
X0176967Y0129881D01*
X0177003Y0129917D01*
X0177036Y0129957D01*
X0177066Y0129998D01*
X0177092Y0130042D01*
X0177115Y0130087D01*
X0177134Y0130135D01*
X0177150Y0130183D01*
X0177162Y0130233D01*
X0177170Y0130283D01*
X0177174Y0130334D01*
X0177175Y0130385D01*
X0177171Y0130436D01*
X0177163Y0130487D01*
X0177152Y0130537D01*
X0177137Y0130586D01*
X0177118Y0130633D01*
X0177095Y0130679D01*
X0177069Y0130723D01*
X0177040Y0130765D01*
X0177007Y0130804D01*
X0176972Y0130841D01*
X0176933Y0130875D01*
X0176893Y0130906D01*
X0176850Y0130933D01*
X0176805Y0130958D01*
X0176758Y0130979D01*
X0176885Y0132511D02*
X0176795Y0132550D01*
X0176702Y0132586D01*
X0176609Y0132619D01*
X0176515Y0132648D01*
X0176420Y0132675D01*
X0176324Y0132698D01*
X0176227Y0132718D01*
X0176129Y0132734D01*
X0176031Y0132747D01*
X0175933Y0132757D01*
X0175834Y0132764D01*
X0175735Y0132767D01*
X0173091Y0132767D02*
X0173091Y0129700D01*
X0171813Y0129700D01*
X0171758Y0129702D01*
X0171704Y0129708D01*
X0171650Y0129718D01*
X0171597Y0129731D01*
X0171545Y0129748D01*
X0171494Y0129769D01*
X0171445Y0129794D01*
X0171398Y0129822D01*
X0171353Y0129853D01*
X0171311Y0129887D01*
X0171271Y0129925D01*
X0171233Y0129965D01*
X0171199Y0130007D01*
X0171168Y0130052D01*
X0171140Y0130099D01*
X0171115Y0130148D01*
X0171094Y0130199D01*
X0171077Y0130251D01*
X0171064Y0130304D01*
X0171054Y0130358D01*
X0171048Y0130412D01*
X0171046Y0130467D01*
X0171047Y0130467D02*
X0171047Y0132767D01*
X0169244Y0132256D02*
X0167200Y0132256D01*
X0167200Y0134300D02*
X0167200Y0129700D01*
X0162941Y0129700D02*
X0161919Y0129700D01*
X0161864Y0129702D01*
X0161810Y0129708D01*
X0161756Y0129718D01*
X0161703Y0129731D01*
X0161651Y0129748D01*
X0161600Y0129769D01*
X0161551Y0129794D01*
X0161504Y0129822D01*
X0161459Y0129853D01*
X0161417Y0129887D01*
X0161377Y0129925D01*
X0161339Y0129965D01*
X0161305Y0130007D01*
X0161274Y0130052D01*
X0161246Y0130099D01*
X0161221Y0130148D01*
X0161200Y0130199D01*
X0161183Y0130251D01*
X0161170Y0130304D01*
X0161160Y0130358D01*
X0161154Y0130412D01*
X0161152Y0130467D01*
X0161152Y0132000D01*
X0161154Y0132055D01*
X0161160Y0132109D01*
X0161170Y0132163D01*
X0161183Y0132216D01*
X0161200Y0132268D01*
X0161221Y0132319D01*
X0161246Y0132368D01*
X0161274Y0132415D01*
X0161305Y0132460D01*
X0161339Y0132502D01*
X0161377Y0132542D01*
X0161417Y0132580D01*
X0161459Y0132614D01*
X0161504Y0132645D01*
X0161551Y0132673D01*
X0161600Y0132698D01*
X0161651Y0132719D01*
X0161703Y0132736D01*
X0161756Y0132749D01*
X0161810Y0132759D01*
X0161864Y0132765D01*
X0161919Y0132767D01*
X0162941Y0132767D01*
X0159319Y0132767D02*
X0159319Y0129700D01*
X0157318Y0129700D02*
X0156040Y0129700D01*
X0155985Y0129702D01*
X0155931Y0129708D01*
X0155877Y0129718D01*
X0155824Y0129731D01*
X0155772Y0129748D01*
X0155721Y0129769D01*
X0155672Y0129794D01*
X0155625Y0129822D01*
X0155580Y0129853D01*
X0155538Y0129887D01*
X0155498Y0129925D01*
X0155460Y0129965D01*
X0155426Y0130007D01*
X0155395Y0130052D01*
X0155367Y0130099D01*
X0155342Y0130148D01*
X0155321Y0130199D01*
X0155304Y0130251D01*
X0155291Y0130304D01*
X0155281Y0130358D01*
X0155275Y0130412D01*
X0155273Y0130467D01*
X0155273Y0132000D01*
X0155275Y0132055D01*
X0155281Y0132109D01*
X0155291Y0132163D01*
X0155304Y0132216D01*
X0155321Y0132268D01*
X0155342Y0132319D01*
X0155367Y0132368D01*
X0155395Y0132415D01*
X0155426Y0132460D01*
X0155460Y0132502D01*
X0155498Y0132542D01*
X0155538Y0132580D01*
X0155580Y0132614D01*
X0155625Y0132645D01*
X0155672Y0132673D01*
X0155721Y0132698D01*
X0155772Y0132719D01*
X0155824Y0132736D01*
X0155877Y0132749D01*
X0155931Y0132759D01*
X0155985Y0132765D01*
X0156040Y0132767D01*
X0157318Y0132767D01*
X0157318Y0128933D01*
X0157316Y0128878D01*
X0157310Y0128824D01*
X0157300Y0128770D01*
X0157287Y0128717D01*
X0157270Y0128665D01*
X0157249Y0128614D01*
X0157224Y0128565D01*
X0157196Y0128518D01*
X0157165Y0128473D01*
X0157131Y0128431D01*
X0157093Y0128391D01*
X0157053Y0128353D01*
X0157011Y0128319D01*
X0156966Y0128288D01*
X0156919Y0128260D01*
X0156870Y0128235D01*
X0156819Y0128214D01*
X0156767Y0128197D01*
X0156714Y0128184D01*
X0156660Y0128174D01*
X0156606Y0128168D01*
X0156551Y0128166D01*
X0156551Y0128167D02*
X0155529Y0128167D01*
X0153441Y0130722D02*
X0153441Y0131744D01*
X0153439Y0131807D01*
X0153433Y0131870D01*
X0153424Y0131932D01*
X0153410Y0131993D01*
X0153393Y0132054D01*
X0153372Y0132113D01*
X0153347Y0132171D01*
X0153319Y0132228D01*
X0153288Y0132282D01*
X0153253Y0132334D01*
X0153215Y0132385D01*
X0153174Y0132433D01*
X0153130Y0132478D01*
X0153084Y0132520D01*
X0153035Y0132560D01*
X0152984Y0132596D01*
X0152930Y0132629D01*
X0152875Y0132659D01*
X0152817Y0132685D01*
X0152759Y0132708D01*
X0152699Y0132727D01*
X0152638Y0132742D01*
X0152576Y0132754D01*
X0152513Y0132762D01*
X0152450Y0132766D01*
X0152388Y0132766D01*
X0152325Y0132762D01*
X0152262Y0132754D01*
X0152200Y0132742D01*
X0152139Y0132727D01*
X0152079Y0132708D01*
X0152021Y0132685D01*
X0151963Y0132659D01*
X0151908Y0132629D01*
X0151854Y0132596D01*
X0151803Y0132560D01*
X0151754Y0132520D01*
X0151708Y0132478D01*
X0151664Y0132433D01*
X0151623Y0132385D01*
X0151585Y0132334D01*
X0151550Y0132282D01*
X0151519Y0132228D01*
X0151491Y0132171D01*
X0151466Y0132113D01*
X0151445Y0132054D01*
X0151428Y0131993D01*
X0151414Y0131932D01*
X0151405Y0131870D01*
X0151399Y0131807D01*
X0151397Y0131744D01*
X0151397Y0130722D01*
X0151399Y0130659D01*
X0151405Y0130596D01*
X0151414Y0130534D01*
X0151428Y0130473D01*
X0151445Y0130412D01*
X0151466Y0130353D01*
X0151491Y0130295D01*
X0151519Y0130238D01*
X0151550Y0130184D01*
X0151585Y0130132D01*
X0151623Y0130081D01*
X0151664Y0130033D01*
X0151708Y0129988D01*
X0151754Y0129946D01*
X0151803Y0129906D01*
X0151854Y0129870D01*
X0151908Y0129837D01*
X0151963Y0129807D01*
X0152021Y0129781D01*
X0152079Y0129758D01*
X0152139Y0129739D01*
X0152200Y0129724D01*
X0152262Y0129712D01*
X0152325Y0129704D01*
X0152388Y0129700D01*
X0152450Y0129700D01*
X0152513Y0129704D01*
X0152576Y0129712D01*
X0152638Y0129724D01*
X0152699Y0129739D01*
X0152759Y0129758D01*
X0152817Y0129781D01*
X0152875Y0129807D01*
X0152930Y0129837D01*
X0152984Y0129870D01*
X0153035Y0129906D01*
X0153084Y0129946D01*
X0153130Y0129988D01*
X0153174Y0130033D01*
X0153215Y0130081D01*
X0153253Y0130132D01*
X0153288Y0130184D01*
X0153319Y0130238D01*
X0153347Y0130295D01*
X0153372Y0130353D01*
X0153393Y0130412D01*
X0153410Y0130473D01*
X0153424Y0130534D01*
X0153433Y0130596D01*
X0153439Y0130659D01*
X0153441Y0130722D01*
X0149744Y0129700D02*
X0147700Y0129700D01*
X0147700Y0134300D01*
X0159191Y0134300D02*
X0159447Y0134300D01*
X0159447Y0134044D01*
X0159191Y0134044D01*
X0159191Y0134300D01*
X0167200Y0134300D02*
X0169244Y0134300D01*
X0159397Y0087800D02*
X0156841Y0087800D01*
X0156841Y0085756D01*
X0158374Y0085756D01*
X0158374Y0085755D02*
X0158436Y0085753D01*
X0158497Y0085748D01*
X0158558Y0085738D01*
X0158619Y0085725D01*
X0158678Y0085709D01*
X0158736Y0085689D01*
X0158793Y0085665D01*
X0158849Y0085638D01*
X0158903Y0085608D01*
X0158955Y0085574D01*
X0159004Y0085538D01*
X0159052Y0085498D01*
X0159097Y0085456D01*
X0159139Y0085411D01*
X0159179Y0085363D01*
X0159215Y0085314D01*
X0159249Y0085262D01*
X0159279Y0085208D01*
X0159306Y0085152D01*
X0159330Y0085095D01*
X0159350Y0085037D01*
X0159366Y0084978D01*
X0159379Y0084917D01*
X0159389Y0084856D01*
X0159394Y0084795D01*
X0159396Y0084733D01*
X0159397Y0084733D02*
X0159397Y0084222D01*
X0159396Y0084222D02*
X0159394Y0084160D01*
X0159389Y0084099D01*
X0159379Y0084038D01*
X0159366Y0083977D01*
X0159350Y0083918D01*
X0159330Y0083860D01*
X0159306Y0083803D01*
X0159279Y0083747D01*
X0159249Y0083693D01*
X0159215Y0083641D01*
X0159179Y0083592D01*
X0159139Y0083544D01*
X0159097Y0083499D01*
X0159052Y0083457D01*
X0159004Y0083417D01*
X0158955Y0083381D01*
X0158903Y0083347D01*
X0158849Y0083317D01*
X0158793Y0083290D01*
X0158736Y0083266D01*
X0158678Y0083246D01*
X0158619Y0083230D01*
X0158558Y0083217D01*
X0158497Y0083207D01*
X0158436Y0083202D01*
X0158374Y0083200D01*
X0156841Y0083200D01*
X0152724Y0083839D02*
X0152676Y0083943D01*
X0152630Y0084048D01*
X0152588Y0084154D01*
X0152549Y0084262D01*
X0152513Y0084371D01*
X0152481Y0084481D01*
X0152451Y0084592D01*
X0152426Y0084704D01*
X0152403Y0084816D01*
X0152384Y0084929D01*
X0152369Y0085043D01*
X0152357Y0085157D01*
X0152348Y0085271D01*
X0152343Y0085385D01*
X0152341Y0085500D01*
X0154897Y0085500D02*
X0154895Y0085615D01*
X0154890Y0085729D01*
X0154881Y0085843D01*
X0154869Y0085957D01*
X0154854Y0086071D01*
X0154835Y0086184D01*
X0154812Y0086296D01*
X0154787Y0086408D01*
X0154757Y0086519D01*
X0154725Y0086629D01*
X0154689Y0086738D01*
X0154650Y0086846D01*
X0154608Y0086952D01*
X0154562Y0087057D01*
X0154514Y0087161D01*
X0154641Y0086778D02*
X0152597Y0084222D01*
X0153619Y0083200D02*
X0153678Y0083202D01*
X0153736Y0083207D01*
X0153794Y0083216D01*
X0153851Y0083229D01*
X0153908Y0083245D01*
X0153963Y0083265D01*
X0154017Y0083288D01*
X0154069Y0083314D01*
X0154120Y0083344D01*
X0154169Y0083376D01*
X0154216Y0083412D01*
X0154260Y0083450D01*
X0154302Y0083491D01*
X0154341Y0083535D01*
X0154378Y0083581D01*
X0154411Y0083629D01*
X0154442Y0083679D01*
X0154469Y0083731D01*
X0154493Y0083784D01*
X0154514Y0083839D01*
X0153619Y0083200D02*
X0153560Y0083202D01*
X0153502Y0083207D01*
X0153444Y0083216D01*
X0153387Y0083229D01*
X0153330Y0083245D01*
X0153275Y0083265D01*
X0153221Y0083288D01*
X0153169Y0083314D01*
X0153118Y0083344D01*
X0153069Y0083376D01*
X0153022Y0083412D01*
X0152978Y0083450D01*
X0152936Y0083491D01*
X0152897Y0083535D01*
X0152860Y0083581D01*
X0152827Y0083629D01*
X0152796Y0083679D01*
X0152769Y0083731D01*
X0152745Y0083784D01*
X0152724Y0083839D01*
X0154514Y0083839D02*
X0154562Y0083943D01*
X0154608Y0084048D01*
X0154650Y0084154D01*
X0154689Y0084262D01*
X0154725Y0084371D01*
X0154757Y0084481D01*
X0154787Y0084592D01*
X0154812Y0084704D01*
X0154835Y0084816D01*
X0154854Y0084929D01*
X0154869Y0085043D01*
X0154881Y0085157D01*
X0154890Y0085271D01*
X0154895Y0085385D01*
X0154897Y0085500D01*
X0152341Y0085500D02*
X0152343Y0085615D01*
X0152348Y0085729D01*
X0152357Y0085843D01*
X0152369Y0085957D01*
X0152384Y0086071D01*
X0152403Y0086184D01*
X0152426Y0086296D01*
X0152451Y0086408D01*
X0152481Y0086519D01*
X0152513Y0086629D01*
X0152549Y0086738D01*
X0152588Y0086846D01*
X0152630Y0086952D01*
X0152676Y0087057D01*
X0152724Y0087161D01*
X0153619Y0087800D02*
X0153678Y0087798D01*
X0153736Y0087793D01*
X0153794Y0087784D01*
X0153851Y0087771D01*
X0153908Y0087755D01*
X0153963Y0087735D01*
X0154017Y0087712D01*
X0154069Y0087686D01*
X0154120Y0087656D01*
X0154169Y0087624D01*
X0154216Y0087588D01*
X0154260Y0087550D01*
X0154302Y0087509D01*
X0154341Y0087465D01*
X0154378Y0087419D01*
X0154411Y0087371D01*
X0154442Y0087321D01*
X0154469Y0087269D01*
X0154493Y0087216D01*
X0154514Y0087161D01*
X0153619Y0087800D02*
X0153560Y0087798D01*
X0153502Y0087793D01*
X0153444Y0087784D01*
X0153387Y0087771D01*
X0153330Y0087755D01*
X0153275Y0087735D01*
X0153221Y0087712D01*
X0153169Y0087686D01*
X0153118Y0087656D01*
X0153069Y0087624D01*
X0153022Y0087588D01*
X0152978Y0087550D01*
X0152936Y0087509D01*
X0152897Y0087465D01*
X0152860Y0087419D01*
X0152827Y0087371D01*
X0152796Y0087321D01*
X0152769Y0087269D01*
X0152745Y0087216D01*
X0152724Y0087161D01*
X0150141Y0086778D02*
X0150139Y0086715D01*
X0150133Y0086652D01*
X0150124Y0086590D01*
X0150110Y0086529D01*
X0150093Y0086468D01*
X0150072Y0086409D01*
X0150047Y0086351D01*
X0150019Y0086294D01*
X0149988Y0086240D01*
X0149953Y0086188D01*
X0149915Y0086137D01*
X0149874Y0086089D01*
X0149830Y0086044D01*
X0149784Y0086002D01*
X0149735Y0085962D01*
X0149684Y0085926D01*
X0149630Y0085893D01*
X0149575Y0085863D01*
X0149517Y0085837D01*
X0149459Y0085814D01*
X0149399Y0085795D01*
X0149338Y0085780D01*
X0149276Y0085768D01*
X0149213Y0085760D01*
X0149150Y0085756D01*
X0149088Y0085756D01*
X0149025Y0085760D01*
X0148962Y0085768D01*
X0148900Y0085780D01*
X0148839Y0085795D01*
X0148779Y0085814D01*
X0148721Y0085837D01*
X0148663Y0085863D01*
X0148608Y0085893D01*
X0148554Y0085926D01*
X0148503Y0085962D01*
X0148454Y0086002D01*
X0148408Y0086044D01*
X0148364Y0086089D01*
X0148323Y0086137D01*
X0148285Y0086188D01*
X0148250Y0086240D01*
X0148219Y0086294D01*
X0148191Y0086351D01*
X0148166Y0086409D01*
X0148145Y0086468D01*
X0148128Y0086529D01*
X0148114Y0086590D01*
X0148105Y0086652D01*
X0148099Y0086715D01*
X0148097Y0086778D01*
X0148099Y0086841D01*
X0148105Y0086904D01*
X0148114Y0086966D01*
X0148128Y0087027D01*
X0148145Y0087088D01*
X0148166Y0087147D01*
X0148191Y0087205D01*
X0148219Y0087262D01*
X0148250Y0087316D01*
X0148285Y0087368D01*
X0148323Y0087419D01*
X0148364Y0087467D01*
X0148408Y0087512D01*
X0148454Y0087554D01*
X0148503Y0087594D01*
X0148554Y0087630D01*
X0148608Y0087663D01*
X0148663Y0087693D01*
X0148721Y0087719D01*
X0148779Y0087742D01*
X0148839Y0087761D01*
X0148900Y0087776D01*
X0148962Y0087788D01*
X0149025Y0087796D01*
X0149088Y0087800D01*
X0149150Y0087800D01*
X0149213Y0087796D01*
X0149276Y0087788D01*
X0149338Y0087776D01*
X0149399Y0087761D01*
X0149459Y0087742D01*
X0149517Y0087719D01*
X0149575Y0087693D01*
X0149630Y0087663D01*
X0149684Y0087630D01*
X0149735Y0087594D01*
X0149784Y0087554D01*
X0149830Y0087512D01*
X0149874Y0087467D01*
X0149915Y0087419D01*
X0149953Y0087368D01*
X0149988Y0087316D01*
X0150019Y0087262D01*
X0150047Y0087205D01*
X0150072Y0087147D01*
X0150093Y0087088D01*
X0150110Y0087027D01*
X0150124Y0086966D01*
X0150133Y0086904D01*
X0150139Y0086841D01*
X0150141Y0086778D01*
X0150397Y0084478D02*
X0150395Y0084408D01*
X0150389Y0084337D01*
X0150380Y0084268D01*
X0150366Y0084199D01*
X0150349Y0084130D01*
X0150328Y0084063D01*
X0150303Y0083997D01*
X0150275Y0083933D01*
X0150243Y0083870D01*
X0150208Y0083809D01*
X0150169Y0083750D01*
X0150128Y0083693D01*
X0150083Y0083639D01*
X0150035Y0083587D01*
X0149985Y0083538D01*
X0149931Y0083491D01*
X0149876Y0083448D01*
X0149818Y0083408D01*
X0149758Y0083371D01*
X0149696Y0083338D01*
X0149632Y0083308D01*
X0149567Y0083281D01*
X0149501Y0083258D01*
X0149433Y0083239D01*
X0149364Y0083224D01*
X0149295Y0083212D01*
X0149225Y0083204D01*
X0149154Y0083200D01*
X0149084Y0083200D01*
X0149013Y0083204D01*
X0148943Y0083212D01*
X0148874Y0083224D01*
X0148805Y0083239D01*
X0148737Y0083258D01*
X0148671Y0083281D01*
X0148606Y0083308D01*
X0148542Y0083338D01*
X0148480Y0083371D01*
X0148420Y0083408D01*
X0148362Y0083448D01*
X0148307Y0083491D01*
X0148253Y0083538D01*
X0148203Y0083587D01*
X0148155Y0083639D01*
X0148110Y0083693D01*
X0148069Y0083750D01*
X0148030Y0083809D01*
X0147995Y0083870D01*
X0147963Y0083933D01*
X0147935Y0083997D01*
X0147910Y0084063D01*
X0147889Y0084130D01*
X0147872Y0084199D01*
X0147858Y0084268D01*
X0147849Y0084337D01*
X0147843Y0084408D01*
X0147841Y0084478D01*
X0147843Y0084548D01*
X0147849Y0084619D01*
X0147858Y0084688D01*
X0147872Y0084757D01*
X0147889Y0084826D01*
X0147910Y0084893D01*
X0147935Y0084959D01*
X0147963Y0085023D01*
X0147995Y0085086D01*
X0148030Y0085147D01*
X0148069Y0085206D01*
X0148110Y0085263D01*
X0148155Y0085317D01*
X0148203Y0085369D01*
X0148253Y0085418D01*
X0148307Y0085465D01*
X0148362Y0085508D01*
X0148420Y0085548D01*
X0148480Y0085585D01*
X0148542Y0085618D01*
X0148606Y0085648D01*
X0148671Y0085675D01*
X0148737Y0085698D01*
X0148805Y0085717D01*
X0148874Y0085732D01*
X0148943Y0085744D01*
X0149013Y0085752D01*
X0149084Y0085756D01*
X0149154Y0085756D01*
X0149225Y0085752D01*
X0149295Y0085744D01*
X0149364Y0085732D01*
X0149433Y0085717D01*
X0149501Y0085698D01*
X0149567Y0085675D01*
X0149632Y0085648D01*
X0149696Y0085618D01*
X0149758Y0085585D01*
X0149818Y0085548D01*
X0149876Y0085508D01*
X0149931Y0085465D01*
X0149985Y0085418D01*
X0150035Y0085369D01*
X0150083Y0085317D01*
X0150128Y0085263D01*
X0150169Y0085206D01*
X0150208Y0085147D01*
X0150243Y0085086D01*
X0150275Y0085023D01*
X0150303Y0084959D01*
X0150328Y0084893D01*
X0150349Y0084826D01*
X0150366Y0084757D01*
X0150380Y0084688D01*
X0150389Y0084619D01*
X0150395Y0084548D01*
X0150397Y0084478D01*
X0145897Y0087800D02*
X0144619Y0083200D01*
X0141202Y0083200D02*
X0141202Y0087800D01*
X0139669Y0085244D01*
X0138136Y0087800D01*
X0138136Y0083200D01*
X0136244Y0083200D02*
X0134200Y0083200D01*
X0134200Y0087800D01*
X0143341Y0087800D02*
X0145897Y0087800D01*
X0143341Y0087800D02*
X0143341Y0087289D01*
X0056511Y0048300D02*
X0054978Y0043700D01*
X0053444Y0048300D01*
X0051756Y0048300D02*
X0049200Y0048300D01*
X0049200Y0046256D01*
X0050733Y0046256D01*
X0050733Y0046255D02*
X0050795Y0046253D01*
X0050856Y0046248D01*
X0050917Y0046238D01*
X0050978Y0046225D01*
X0051037Y0046209D01*
X0051095Y0046189D01*
X0051152Y0046165D01*
X0051208Y0046138D01*
X0051262Y0046108D01*
X0051314Y0046074D01*
X0051363Y0046038D01*
X0051411Y0045998D01*
X0051456Y0045956D01*
X0051498Y0045911D01*
X0051538Y0045863D01*
X0051574Y0045814D01*
X0051608Y0045762D01*
X0051638Y0045708D01*
X0051665Y0045652D01*
X0051689Y0045595D01*
X0051709Y0045537D01*
X0051725Y0045478D01*
X0051738Y0045417D01*
X0051748Y0045356D01*
X0051753Y0045295D01*
X0051755Y0045233D01*
X0051756Y0045233D02*
X0051756Y0044722D01*
X0051755Y0044722D02*
X0051753Y0044660D01*
X0051748Y0044599D01*
X0051738Y0044538D01*
X0051725Y0044477D01*
X0051709Y0044418D01*
X0051689Y0044360D01*
X0051665Y0044303D01*
X0051638Y0044247D01*
X0051608Y0044193D01*
X0051574Y0044141D01*
X0051538Y0044092D01*
X0051498Y0044044D01*
X0051456Y0043999D01*
X0051411Y0043957D01*
X0051363Y0043917D01*
X0051314Y0043881D01*
X0051262Y0043847D01*
X0051208Y0043817D01*
X0051152Y0043790D01*
X0051095Y0043766D01*
X0051037Y0043746D01*
X0050978Y0043730D01*
X0050917Y0043717D01*
X0050856Y0043707D01*
X0050795Y0043702D01*
X0050733Y0043700D01*
X0049200Y0043700D01*
X0049500Y0037800D02*
X0052056Y0033200D01*
X0052056Y0037800D01*
X0054300Y0037800D02*
X0055578Y0037800D01*
X0055647Y0037798D01*
X0055716Y0037793D01*
X0055785Y0037783D01*
X0055853Y0037770D01*
X0055920Y0037753D01*
X0055986Y0037733D01*
X0056051Y0037709D01*
X0056115Y0037682D01*
X0056177Y0037651D01*
X0056237Y0037617D01*
X0056295Y0037580D01*
X0056351Y0037539D01*
X0056405Y0037496D01*
X0056457Y0037450D01*
X0056506Y0037401D01*
X0056552Y0037349D01*
X0056595Y0037295D01*
X0056636Y0037239D01*
X0056673Y0037181D01*
X0056707Y0037121D01*
X0056738Y0037059D01*
X0056765Y0036995D01*
X0056789Y0036930D01*
X0056809Y0036864D01*
X0056826Y0036797D01*
X0056839Y0036729D01*
X0056849Y0036660D01*
X0056854Y0036591D01*
X0056856Y0036522D01*
X0056856Y0034478D01*
X0056854Y0034409D01*
X0056849Y0034340D01*
X0056839Y0034271D01*
X0056826Y0034203D01*
X0056809Y0034136D01*
X0056789Y0034070D01*
X0056765Y0034005D01*
X0056738Y0033941D01*
X0056707Y0033879D01*
X0056673Y0033819D01*
X0056636Y0033761D01*
X0056595Y0033705D01*
X0056552Y0033651D01*
X0056506Y0033599D01*
X0056457Y0033550D01*
X0056405Y0033504D01*
X0056351Y0033461D01*
X0056295Y0033420D01*
X0056237Y0033383D01*
X0056177Y0033349D01*
X0056115Y0033318D01*
X0056051Y0033291D01*
X0055986Y0033267D01*
X0055920Y0033247D01*
X0055853Y0033230D01*
X0055785Y0033217D01*
X0055716Y0033207D01*
X0055647Y0033202D01*
X0055578Y0033200D01*
X0054300Y0033200D01*
X0054300Y0037800D01*
X0049500Y0037800D02*
X0049500Y0033200D01*
X0047256Y0033200D02*
X0045722Y0033200D01*
X0045660Y0033202D01*
X0045599Y0033207D01*
X0045538Y0033217D01*
X0045477Y0033230D01*
X0045418Y0033246D01*
X0045360Y0033266D01*
X0045303Y0033290D01*
X0045247Y0033317D01*
X0045193Y0033347D01*
X0045141Y0033381D01*
X0045092Y0033417D01*
X0045044Y0033457D01*
X0044999Y0033499D01*
X0044957Y0033544D01*
X0044917Y0033592D01*
X0044881Y0033641D01*
X0044847Y0033693D01*
X0044817Y0033747D01*
X0044790Y0033803D01*
X0044766Y0033860D01*
X0044746Y0033918D01*
X0044730Y0033977D01*
X0044717Y0034038D01*
X0044707Y0034099D01*
X0044702Y0034160D01*
X0044700Y0034222D01*
X0044700Y0036778D01*
X0044702Y0036840D01*
X0044707Y0036901D01*
X0044717Y0036962D01*
X0044730Y0037023D01*
X0044746Y0037082D01*
X0044766Y0037140D01*
X0044790Y0037197D01*
X0044817Y0037253D01*
X0044847Y0037307D01*
X0044881Y0037359D01*
X0044917Y0037408D01*
X0044957Y0037456D01*
X0044999Y0037501D01*
X0045044Y0037543D01*
X0045092Y0037582D01*
X0045141Y0037619D01*
X0045193Y0037653D01*
X0045247Y0037683D01*
X0045303Y0037710D01*
X0045360Y0037734D01*
X0045418Y0037754D01*
X0045477Y0037770D01*
X0045538Y0037783D01*
X0045599Y0037793D01*
X0045660Y0037798D01*
X0045722Y0037800D01*
X0047256Y0037800D01*
X0047256Y0035756D02*
X0047256Y0033200D01*
X0047256Y0035756D02*
X0046489Y0035756D01*
X0042078Y0084200D02*
X0040800Y0084200D01*
X0040800Y0088800D01*
X0042078Y0088800D01*
X0042147Y0088798D01*
X0042216Y0088793D01*
X0042285Y0088783D01*
X0042353Y0088770D01*
X0042420Y0088753D01*
X0042486Y0088733D01*
X0042551Y0088709D01*
X0042615Y0088682D01*
X0042677Y0088651D01*
X0042737Y0088617D01*
X0042795Y0088580D01*
X0042851Y0088539D01*
X0042905Y0088496D01*
X0042957Y0088450D01*
X0043006Y0088401D01*
X0043052Y0088349D01*
X0043095Y0088295D01*
X0043136Y0088239D01*
X0043173Y0088181D01*
X0043207Y0088121D01*
X0043238Y0088059D01*
X0043265Y0087995D01*
X0043289Y0087930D01*
X0043309Y0087864D01*
X0043326Y0087797D01*
X0043339Y0087729D01*
X0043349Y0087660D01*
X0043354Y0087591D01*
X0043356Y0087522D01*
X0043356Y0085478D01*
X0043354Y0085409D01*
X0043349Y0085340D01*
X0043339Y0085271D01*
X0043326Y0085203D01*
X0043309Y0085136D01*
X0043289Y0085070D01*
X0043265Y0085005D01*
X0043238Y0084941D01*
X0043207Y0084879D01*
X0043173Y0084819D01*
X0043136Y0084761D01*
X0043095Y0084705D01*
X0043052Y0084651D01*
X0043006Y0084599D01*
X0042957Y0084550D01*
X0042905Y0084504D01*
X0042851Y0084461D01*
X0042795Y0084420D01*
X0042737Y0084383D01*
X0042677Y0084349D01*
X0042615Y0084318D01*
X0042551Y0084291D01*
X0042486Y0084267D01*
X0042420Y0084247D01*
X0042353Y0084230D01*
X0042285Y0084217D01*
X0042216Y0084207D01*
X0042147Y0084202D01*
X0042078Y0084200D01*
X0038556Y0084200D02*
X0038556Y0088800D01*
X0036000Y0088800D02*
X0038556Y0084200D01*
X0036000Y0084200D02*
X0036000Y0088800D01*
X0033756Y0088800D02*
X0032222Y0088800D01*
X0032160Y0088798D01*
X0032099Y0088793D01*
X0032038Y0088783D01*
X0031977Y0088770D01*
X0031918Y0088754D01*
X0031860Y0088734D01*
X0031803Y0088710D01*
X0031747Y0088683D01*
X0031693Y0088653D01*
X0031641Y0088619D01*
X0031592Y0088582D01*
X0031544Y0088543D01*
X0031499Y0088501D01*
X0031457Y0088456D01*
X0031417Y0088408D01*
X0031381Y0088359D01*
X0031347Y0088307D01*
X0031317Y0088253D01*
X0031290Y0088197D01*
X0031266Y0088140D01*
X0031246Y0088082D01*
X0031230Y0088023D01*
X0031217Y0087962D01*
X0031207Y0087901D01*
X0031202Y0087840D01*
X0031200Y0087778D01*
X0031200Y0085222D01*
X0031202Y0085160D01*
X0031207Y0085099D01*
X0031217Y0085038D01*
X0031230Y0084977D01*
X0031246Y0084918D01*
X0031266Y0084860D01*
X0031290Y0084803D01*
X0031317Y0084747D01*
X0031347Y0084693D01*
X0031381Y0084641D01*
X0031417Y0084592D01*
X0031457Y0084544D01*
X0031499Y0084499D01*
X0031544Y0084457D01*
X0031592Y0084417D01*
X0031641Y0084381D01*
X0031693Y0084347D01*
X0031747Y0084317D01*
X0031803Y0084290D01*
X0031860Y0084266D01*
X0031918Y0084246D01*
X0031977Y0084230D01*
X0032038Y0084217D01*
X0032099Y0084207D01*
X0032160Y0084202D01*
X0032222Y0084200D01*
X0033756Y0084200D01*
X0033756Y0086756D01*
X0032989Y0086756D01*
X0033700Y0124700D02*
X0036256Y0124700D01*
X0034978Y0124700D02*
X0034978Y0129300D01*
X0033700Y0128278D01*
X0038200Y0124700D02*
X0040372Y0127256D01*
X0039606Y0129300D02*
X0039532Y0129298D01*
X0039458Y0129293D01*
X0039384Y0129283D01*
X0039311Y0129270D01*
X0039238Y0129254D01*
X0039167Y0129233D01*
X0039097Y0129209D01*
X0039028Y0129182D01*
X0038960Y0129151D01*
X0038894Y0129117D01*
X0038830Y0129080D01*
X0038768Y0129039D01*
X0038708Y0128995D01*
X0038650Y0128949D01*
X0038594Y0128899D01*
X0038541Y0128847D01*
X0038491Y0128792D01*
X0038444Y0128735D01*
X0038400Y0128675D01*
X0038358Y0128613D01*
X0038320Y0128550D01*
X0038285Y0128484D01*
X0038254Y0128417D01*
X0038226Y0128348D01*
X0038201Y0128278D01*
X0040372Y0127256D02*
X0040419Y0127303D01*
X0040463Y0127353D01*
X0040505Y0127405D01*
X0040544Y0127459D01*
X0040579Y0127515D01*
X0040612Y0127573D01*
X0040642Y0127633D01*
X0040668Y0127694D01*
X0040691Y0127757D01*
X0040710Y0127821D01*
X0040726Y0127885D01*
X0040739Y0127951D01*
X0040748Y0128017D01*
X0040753Y0128083D01*
X0040755Y0128150D01*
X0040756Y0128150D02*
X0040754Y0128217D01*
X0040748Y0128284D01*
X0040739Y0128350D01*
X0040725Y0128415D01*
X0040708Y0128480D01*
X0040687Y0128543D01*
X0040662Y0128605D01*
X0040634Y0128666D01*
X0040602Y0128725D01*
X0040567Y0128782D01*
X0040528Y0128837D01*
X0040487Y0128889D01*
X0040442Y0128939D01*
X0040395Y0128986D01*
X0040345Y0129031D01*
X0040293Y0129072D01*
X0040238Y0129111D01*
X0040181Y0129146D01*
X0040122Y0129178D01*
X0040061Y0129206D01*
X0039999Y0129231D01*
X0039936Y0129252D01*
X0039871Y0129269D01*
X0039806Y0129283D01*
X0039740Y0129292D01*
X0039673Y0129298D01*
X0039606Y0129300D01*
X0042444Y0129300D02*
X0043978Y0124700D01*
X0045511Y0129300D01*
X0040756Y0124700D02*
X0038200Y0124700D01*
X0281700Y0026300D02*
X0281700Y0024256D01*
X0283233Y0024256D01*
X0283233Y0024255D02*
X0283295Y0024253D01*
X0283356Y0024248D01*
X0283417Y0024238D01*
X0283478Y0024225D01*
X0283537Y0024209D01*
X0283595Y0024189D01*
X0283652Y0024165D01*
X0283708Y0024138D01*
X0283762Y0024108D01*
X0283814Y0024074D01*
X0283863Y0024038D01*
X0283911Y0023998D01*
X0283956Y0023956D01*
X0283998Y0023911D01*
X0284038Y0023863D01*
X0284074Y0023814D01*
X0284108Y0023762D01*
X0284138Y0023708D01*
X0284165Y0023652D01*
X0284189Y0023595D01*
X0284209Y0023537D01*
X0284225Y0023478D01*
X0284238Y0023417D01*
X0284248Y0023356D01*
X0284253Y0023295D01*
X0284255Y0023233D01*
X0284256Y0023233D02*
X0284256Y0022722D01*
X0284255Y0022722D02*
X0284253Y0022660D01*
X0284248Y0022599D01*
X0284238Y0022538D01*
X0284225Y0022477D01*
X0284209Y0022418D01*
X0284189Y0022360D01*
X0284165Y0022303D01*
X0284138Y0022247D01*
X0284108Y0022193D01*
X0284074Y0022141D01*
X0284038Y0022092D01*
X0283998Y0022044D01*
X0283956Y0021999D01*
X0283911Y0021957D01*
X0283863Y0021917D01*
X0283814Y0021881D01*
X0283762Y0021847D01*
X0283708Y0021817D01*
X0283652Y0021790D01*
X0283595Y0021766D01*
X0283537Y0021746D01*
X0283478Y0021730D01*
X0283417Y0021717D01*
X0283356Y0021707D01*
X0283295Y0021702D01*
X0283233Y0021700D01*
X0281700Y0021700D01*
X0287478Y0021700D02*
X0289011Y0026300D01*
X0285944Y0026300D02*
X0287478Y0021700D01*
X0284256Y0026300D02*
X0281700Y0026300D01*
X0305222Y0049700D02*
X0306756Y0049700D01*
X0306756Y0052256D01*
X0305989Y0052256D01*
X0304200Y0053278D02*
X0304202Y0053340D01*
X0304207Y0053401D01*
X0304217Y0053462D01*
X0304230Y0053523D01*
X0304246Y0053582D01*
X0304266Y0053640D01*
X0304290Y0053697D01*
X0304317Y0053753D01*
X0304347Y0053807D01*
X0304381Y0053859D01*
X0304417Y0053908D01*
X0304457Y0053956D01*
X0304499Y0054001D01*
X0304544Y0054043D01*
X0304592Y0054082D01*
X0304641Y0054119D01*
X0304693Y0054153D01*
X0304747Y0054183D01*
X0304803Y0054210D01*
X0304860Y0054234D01*
X0304918Y0054254D01*
X0304977Y0054270D01*
X0305038Y0054283D01*
X0305099Y0054293D01*
X0305160Y0054298D01*
X0305222Y0054300D01*
X0306756Y0054300D01*
X0309000Y0054300D02*
X0311556Y0049700D01*
X0311556Y0054300D01*
X0313800Y0054300D02*
X0315078Y0054300D01*
X0315147Y0054298D01*
X0315216Y0054293D01*
X0315285Y0054283D01*
X0315353Y0054270D01*
X0315420Y0054253D01*
X0315486Y0054233D01*
X0315551Y0054209D01*
X0315615Y0054182D01*
X0315677Y0054151D01*
X0315737Y0054117D01*
X0315795Y0054080D01*
X0315851Y0054039D01*
X0315905Y0053996D01*
X0315957Y0053950D01*
X0316006Y0053901D01*
X0316052Y0053849D01*
X0316095Y0053795D01*
X0316136Y0053739D01*
X0316173Y0053681D01*
X0316207Y0053621D01*
X0316238Y0053559D01*
X0316265Y0053495D01*
X0316289Y0053430D01*
X0316309Y0053364D01*
X0316326Y0053297D01*
X0316339Y0053229D01*
X0316349Y0053160D01*
X0316354Y0053091D01*
X0316356Y0053022D01*
X0316356Y0050978D01*
X0316354Y0050909D01*
X0316349Y0050840D01*
X0316339Y0050771D01*
X0316326Y0050703D01*
X0316309Y0050636D01*
X0316289Y0050570D01*
X0316265Y0050505D01*
X0316238Y0050441D01*
X0316207Y0050379D01*
X0316173Y0050319D01*
X0316136Y0050261D01*
X0316095Y0050205D01*
X0316052Y0050151D01*
X0316006Y0050099D01*
X0315957Y0050050D01*
X0315905Y0050004D01*
X0315851Y0049961D01*
X0315795Y0049920D01*
X0315737Y0049883D01*
X0315677Y0049849D01*
X0315615Y0049818D01*
X0315551Y0049791D01*
X0315486Y0049767D01*
X0315420Y0049747D01*
X0315353Y0049730D01*
X0315285Y0049717D01*
X0315216Y0049707D01*
X0315147Y0049702D01*
X0315078Y0049700D01*
X0313800Y0049700D01*
X0313800Y0054300D01*
X0309000Y0054300D02*
X0309000Y0049700D01*
X0305222Y0049700D02*
X0305160Y0049702D01*
X0305099Y0049707D01*
X0305038Y0049717D01*
X0304977Y0049730D01*
X0304918Y0049746D01*
X0304860Y0049766D01*
X0304803Y0049790D01*
X0304747Y0049817D01*
X0304693Y0049847D01*
X0304641Y0049881D01*
X0304592Y0049917D01*
X0304544Y0049957D01*
X0304499Y0049999D01*
X0304457Y0050044D01*
X0304417Y0050092D01*
X0304381Y0050141D01*
X0304347Y0050193D01*
X0304317Y0050247D01*
X0304290Y0050303D01*
X0304266Y0050360D01*
X0304246Y0050418D01*
X0304230Y0050477D01*
X0304217Y0050538D01*
X0304207Y0050599D01*
X0304202Y0050660D01*
X0304200Y0050722D01*
X0304200Y0053278D01*
X0354700Y0071200D02*
X0356233Y0071200D01*
X0356295Y0071202D01*
X0356356Y0071207D01*
X0356417Y0071217D01*
X0356478Y0071230D01*
X0356537Y0071246D01*
X0356595Y0071266D01*
X0356652Y0071290D01*
X0356708Y0071317D01*
X0356762Y0071347D01*
X0356814Y0071381D01*
X0356863Y0071417D01*
X0356911Y0071457D01*
X0356956Y0071499D01*
X0356998Y0071544D01*
X0357038Y0071592D01*
X0357074Y0071641D01*
X0357108Y0071693D01*
X0357138Y0071747D01*
X0357165Y0071803D01*
X0357189Y0071860D01*
X0357209Y0071918D01*
X0357225Y0071977D01*
X0357238Y0072038D01*
X0357248Y0072099D01*
X0357253Y0072160D01*
X0357255Y0072222D01*
X0357256Y0072222D02*
X0357256Y0072733D01*
X0357255Y0072733D02*
X0357253Y0072795D01*
X0357248Y0072856D01*
X0357238Y0072917D01*
X0357225Y0072978D01*
X0357209Y0073037D01*
X0357189Y0073095D01*
X0357165Y0073152D01*
X0357138Y0073208D01*
X0357108Y0073262D01*
X0357074Y0073314D01*
X0357038Y0073363D01*
X0356998Y0073411D01*
X0356956Y0073456D01*
X0356911Y0073498D01*
X0356863Y0073538D01*
X0356814Y0073574D01*
X0356762Y0073608D01*
X0356708Y0073638D01*
X0356652Y0073665D01*
X0356595Y0073689D01*
X0356537Y0073709D01*
X0356478Y0073725D01*
X0356417Y0073738D01*
X0356356Y0073748D01*
X0356295Y0073753D01*
X0356233Y0073755D01*
X0356233Y0073756D02*
X0354700Y0073756D01*
X0354700Y0075800D01*
X0357256Y0075800D01*
X0358944Y0075800D02*
X0360478Y0071200D01*
X0362011Y0075800D01*
D13*
X0198250Y0073800D02*
X0198250Y0072550D01*
X0198250Y0073800D02*
X0198248Y0073869D01*
X0198242Y0073938D01*
X0198233Y0074006D01*
X0198220Y0074073D01*
X0198203Y0074140D01*
X0198182Y0074206D01*
X0198158Y0074270D01*
X0198130Y0074333D01*
X0198099Y0074395D01*
X0198065Y0074455D01*
X0198027Y0074512D01*
X0197986Y0074568D01*
X0197943Y0074621D01*
X0197896Y0074672D01*
X0197847Y0074720D01*
X0197795Y0074765D01*
X0197740Y0074807D01*
X0197684Y0074846D01*
X0197625Y0074883D01*
X0197564Y0074915D01*
X0197502Y0074945D01*
X0197438Y0074971D01*
X0197373Y0074993D01*
X0197307Y0075012D01*
X0197240Y0075027D01*
X0197172Y0075038D01*
X0197103Y0075046D01*
X0197034Y0075050D01*
X0196966Y0075050D01*
X0196897Y0075046D01*
X0196828Y0075038D01*
X0196760Y0075027D01*
X0196693Y0075012D01*
X0196627Y0074993D01*
X0196562Y0074971D01*
X0196498Y0074945D01*
X0196436Y0074915D01*
X0196375Y0074883D01*
X0196316Y0074846D01*
X0196260Y0074807D01*
X0196205Y0074765D01*
X0196153Y0074720D01*
X0196104Y0074672D01*
X0196057Y0074621D01*
X0196014Y0074568D01*
X0195973Y0074512D01*
X0195935Y0074455D01*
X0195901Y0074395D01*
X0195870Y0074333D01*
X0195842Y0074270D01*
X0195818Y0074206D01*
X0195797Y0074140D01*
X0195780Y0074073D01*
X0195767Y0074006D01*
X0195758Y0073938D01*
X0195752Y0073869D01*
X0195750Y0073800D01*
X0195750Y0074050D02*
X0195750Y0073050D01*
X0195750Y0074050D02*
X0195748Y0074112D01*
X0195742Y0074173D01*
X0195733Y0074234D01*
X0195720Y0074294D01*
X0195703Y0074353D01*
X0195682Y0074411D01*
X0195658Y0074468D01*
X0195631Y0074523D01*
X0195600Y0074576D01*
X0195566Y0074628D01*
X0195529Y0074677D01*
X0195489Y0074724D01*
X0195446Y0074768D01*
X0195401Y0074809D01*
X0195353Y0074848D01*
X0195302Y0074884D01*
X0195250Y0074916D01*
X0195196Y0074945D01*
X0195140Y0074971D01*
X0195082Y0074993D01*
X0195024Y0075012D01*
X0194964Y0075027D01*
X0194903Y0075038D01*
X0194842Y0075046D01*
X0194781Y0075050D01*
X0194719Y0075050D01*
X0194658Y0075046D01*
X0194597Y0075038D01*
X0194536Y0075027D01*
X0194476Y0075012D01*
X0194418Y0074993D01*
X0194360Y0074971D01*
X0194304Y0074945D01*
X0194250Y0074916D01*
X0194198Y0074884D01*
X0194147Y0074848D01*
X0194099Y0074809D01*
X0194054Y0074768D01*
X0194011Y0074724D01*
X0193971Y0074677D01*
X0193934Y0074628D01*
X0193900Y0074576D01*
X0193869Y0074523D01*
X0193842Y0074468D01*
X0193818Y0074411D01*
X0193797Y0074353D01*
X0193780Y0074294D01*
X0193767Y0074234D01*
X0193758Y0074173D01*
X0193752Y0074112D01*
X0193750Y0074050D01*
X0193750Y0072550D01*
X0193750Y0069550D02*
X0193750Y0068050D01*
X0193750Y0069550D02*
X0193752Y0069612D01*
X0193758Y0069673D01*
X0193767Y0069734D01*
X0193780Y0069794D01*
X0193797Y0069853D01*
X0193818Y0069911D01*
X0193842Y0069968D01*
X0193869Y0070023D01*
X0193900Y0070076D01*
X0193934Y0070128D01*
X0193971Y0070177D01*
X0194011Y0070224D01*
X0194054Y0070268D01*
X0194099Y0070309D01*
X0194147Y0070348D01*
X0194198Y0070384D01*
X0194250Y0070416D01*
X0194304Y0070445D01*
X0194360Y0070471D01*
X0194418Y0070493D01*
X0194476Y0070512D01*
X0194536Y0070527D01*
X0194597Y0070538D01*
X0194658Y0070546D01*
X0194719Y0070550D01*
X0194781Y0070550D01*
X0194842Y0070546D01*
X0194903Y0070538D01*
X0194964Y0070527D01*
X0195024Y0070512D01*
X0195082Y0070493D01*
X0195140Y0070471D01*
X0195196Y0070445D01*
X0195250Y0070416D01*
X0195302Y0070384D01*
X0195353Y0070348D01*
X0195401Y0070309D01*
X0195446Y0070268D01*
X0195489Y0070224D01*
X0195529Y0070177D01*
X0195566Y0070128D01*
X0195600Y0070076D01*
X0195631Y0070023D01*
X0195658Y0069968D01*
X0195682Y0069911D01*
X0195703Y0069853D01*
X0195720Y0069794D01*
X0195733Y0069734D01*
X0195742Y0069673D01*
X0195748Y0069612D01*
X0195750Y0069550D01*
X0195750Y0068550D01*
X0195750Y0069300D02*
X0195752Y0069369D01*
X0195758Y0069438D01*
X0195767Y0069506D01*
X0195780Y0069573D01*
X0195797Y0069640D01*
X0195818Y0069706D01*
X0195842Y0069770D01*
X0195870Y0069833D01*
X0195901Y0069895D01*
X0195935Y0069955D01*
X0195973Y0070012D01*
X0196014Y0070068D01*
X0196057Y0070121D01*
X0196104Y0070172D01*
X0196153Y0070220D01*
X0196205Y0070265D01*
X0196260Y0070307D01*
X0196316Y0070346D01*
X0196375Y0070383D01*
X0196436Y0070415D01*
X0196498Y0070445D01*
X0196562Y0070471D01*
X0196627Y0070493D01*
X0196693Y0070512D01*
X0196760Y0070527D01*
X0196828Y0070538D01*
X0196897Y0070546D01*
X0196966Y0070550D01*
X0197034Y0070550D01*
X0197103Y0070546D01*
X0197172Y0070538D01*
X0197240Y0070527D01*
X0197307Y0070512D01*
X0197373Y0070493D01*
X0197438Y0070471D01*
X0197502Y0070445D01*
X0197564Y0070415D01*
X0197625Y0070383D01*
X0197684Y0070346D01*
X0197740Y0070307D01*
X0197795Y0070265D01*
X0197847Y0070220D01*
X0197896Y0070172D01*
X0197943Y0070121D01*
X0197986Y0070068D01*
X0198027Y0070012D01*
X0198065Y0069955D01*
X0198099Y0069895D01*
X0198130Y0069833D01*
X0198158Y0069770D01*
X0198182Y0069706D01*
X0198203Y0069640D01*
X0198220Y0069573D01*
X0198233Y0069506D01*
X0198242Y0069438D01*
X0198248Y0069369D01*
X0198250Y0069300D01*
X0198250Y0068050D01*
X0198250Y0066275D02*
X0198250Y0066025D01*
X0198000Y0066025D01*
X0198000Y0066275D01*
X0198250Y0066275D01*
X0197625Y0062125D02*
X0197516Y0062074D01*
X0197406Y0062027D01*
X0197294Y0061983D01*
X0197180Y0061943D01*
X0197066Y0061907D01*
X0196950Y0061874D01*
X0196834Y0061845D01*
X0196716Y0061820D01*
X0196598Y0061799D01*
X0196479Y0061781D01*
X0196360Y0061768D01*
X0196240Y0061758D01*
X0196120Y0061752D01*
X0196000Y0061750D01*
X0196000Y0064250D02*
X0196120Y0064248D01*
X0196240Y0064242D01*
X0196360Y0064232D01*
X0196479Y0064219D01*
X0196598Y0064201D01*
X0196716Y0064180D01*
X0196834Y0064155D01*
X0196950Y0064126D01*
X0197066Y0064093D01*
X0197180Y0064057D01*
X0197294Y0064017D01*
X0197406Y0063973D01*
X0197516Y0063926D01*
X0197625Y0063875D01*
X0197681Y0063854D01*
X0197736Y0063828D01*
X0197790Y0063800D01*
X0197841Y0063768D01*
X0197890Y0063733D01*
X0197936Y0063694D01*
X0197980Y0063653D01*
X0198022Y0063609D01*
X0198060Y0063562D01*
X0198095Y0063513D01*
X0198127Y0063461D01*
X0198155Y0063408D01*
X0198180Y0063353D01*
X0198201Y0063297D01*
X0198219Y0063239D01*
X0198232Y0063180D01*
X0198242Y0063120D01*
X0198248Y0063060D01*
X0198250Y0063000D01*
X0198248Y0062940D01*
X0198242Y0062880D01*
X0198232Y0062820D01*
X0198219Y0062761D01*
X0198201Y0062703D01*
X0198180Y0062647D01*
X0198155Y0062592D01*
X0198127Y0062539D01*
X0198095Y0062487D01*
X0198060Y0062438D01*
X0198022Y0062391D01*
X0197980Y0062347D01*
X0197936Y0062306D01*
X0197890Y0062267D01*
X0197841Y0062232D01*
X0197790Y0062200D01*
X0197736Y0062172D01*
X0197681Y0062146D01*
X0197625Y0062125D01*
X0197250Y0062000D02*
X0194750Y0064000D01*
X0194375Y0063875D02*
X0194319Y0063854D01*
X0194264Y0063828D01*
X0194210Y0063800D01*
X0194159Y0063768D01*
X0194110Y0063733D01*
X0194064Y0063694D01*
X0194020Y0063653D01*
X0193978Y0063609D01*
X0193940Y0063562D01*
X0193905Y0063513D01*
X0193873Y0063461D01*
X0193845Y0063408D01*
X0193820Y0063353D01*
X0193799Y0063297D01*
X0193781Y0063239D01*
X0193768Y0063180D01*
X0193758Y0063120D01*
X0193752Y0063060D01*
X0193750Y0063000D01*
X0193752Y0062940D01*
X0193758Y0062880D01*
X0193768Y0062820D01*
X0193781Y0062761D01*
X0193799Y0062703D01*
X0193820Y0062647D01*
X0193845Y0062592D01*
X0193873Y0062539D01*
X0193905Y0062487D01*
X0193940Y0062438D01*
X0193978Y0062391D01*
X0194020Y0062347D01*
X0194064Y0062306D01*
X0194110Y0062267D01*
X0194159Y0062232D01*
X0194210Y0062200D01*
X0194264Y0062172D01*
X0194319Y0062146D01*
X0194375Y0062125D01*
X0194375Y0063875D02*
X0194484Y0063926D01*
X0194594Y0063973D01*
X0194706Y0064017D01*
X0194820Y0064057D01*
X0194934Y0064093D01*
X0195050Y0064126D01*
X0195166Y0064155D01*
X0195284Y0064180D01*
X0195402Y0064201D01*
X0195521Y0064219D01*
X0195640Y0064232D01*
X0195760Y0064242D01*
X0195880Y0064248D01*
X0196000Y0064250D01*
X0196000Y0061750D02*
X0195880Y0061752D01*
X0195760Y0061758D01*
X0195640Y0061768D01*
X0195521Y0061781D01*
X0195402Y0061799D01*
X0195284Y0061820D01*
X0195166Y0061845D01*
X0195050Y0061874D01*
X0194934Y0061907D01*
X0194820Y0061943D01*
X0194706Y0061983D01*
X0194594Y0062027D01*
X0194484Y0062074D01*
X0194375Y0062125D01*
X0179250Y0062750D02*
X0179250Y0063750D01*
X0179250Y0062750D02*
X0179248Y0062690D01*
X0179243Y0062629D01*
X0179234Y0062570D01*
X0179221Y0062511D01*
X0179205Y0062452D01*
X0179185Y0062395D01*
X0179162Y0062340D01*
X0179135Y0062285D01*
X0179106Y0062233D01*
X0179073Y0062182D01*
X0179037Y0062133D01*
X0178999Y0062087D01*
X0178957Y0062043D01*
X0178913Y0062001D01*
X0178867Y0061963D01*
X0178818Y0061927D01*
X0178767Y0061894D01*
X0178715Y0061865D01*
X0178660Y0061838D01*
X0178605Y0061815D01*
X0178548Y0061795D01*
X0178489Y0061779D01*
X0178430Y0061766D01*
X0178371Y0061757D01*
X0178310Y0061752D01*
X0178250Y0061750D01*
X0175750Y0061750D01*
X0175690Y0061752D01*
X0175629Y0061757D01*
X0175570Y0061766D01*
X0175511Y0061779D01*
X0175452Y0061795D01*
X0175395Y0061815D01*
X0175340Y0061838D01*
X0175285Y0061865D01*
X0175233Y0061894D01*
X0175182Y0061927D01*
X0175133Y0061963D01*
X0175087Y0062001D01*
X0175043Y0062043D01*
X0175001Y0062087D01*
X0174963Y0062133D01*
X0174927Y0062182D01*
X0174894Y0062233D01*
X0174865Y0062285D01*
X0174838Y0062340D01*
X0174815Y0062395D01*
X0174795Y0062452D01*
X0174779Y0062511D01*
X0174766Y0062570D01*
X0174757Y0062629D01*
X0174752Y0062690D01*
X0174750Y0062750D01*
X0174750Y0063750D01*
X0176750Y0067639D02*
X0176704Y0067685D01*
X0176655Y0067729D01*
X0176604Y0067769D01*
X0176551Y0067807D01*
X0176496Y0067842D01*
X0176439Y0067874D01*
X0176381Y0067903D01*
X0176321Y0067929D01*
X0176259Y0067951D01*
X0176197Y0067970D01*
X0176134Y0067986D01*
X0176070Y0067998D01*
X0176005Y0068007D01*
X0175940Y0068012D01*
X0175875Y0068014D01*
X0176750Y0067640D02*
X0179250Y0065515D01*
X0179250Y0068015D01*
X0175750Y0065515D02*
X0175681Y0065539D01*
X0175614Y0065567D01*
X0175548Y0065598D01*
X0175484Y0065632D01*
X0175422Y0065669D01*
X0175361Y0065710D01*
X0175303Y0065753D01*
X0175247Y0065799D01*
X0175193Y0065849D01*
X0175142Y0065900D01*
X0175094Y0065954D01*
X0175048Y0066011D01*
X0175005Y0066070D01*
X0174966Y0066131D01*
X0174929Y0066193D01*
X0174896Y0066258D01*
X0174865Y0066324D01*
X0174839Y0066392D01*
X0174815Y0066460D01*
X0174795Y0066530D01*
X0174779Y0066601D01*
X0174766Y0066673D01*
X0174757Y0066745D01*
X0174752Y0066817D01*
X0174750Y0066890D01*
X0174752Y0066955D01*
X0174758Y0067021D01*
X0174767Y0067085D01*
X0174780Y0067149D01*
X0174797Y0067213D01*
X0174818Y0067275D01*
X0174842Y0067336D01*
X0174870Y0067395D01*
X0174901Y0067453D01*
X0174935Y0067508D01*
X0174973Y0067562D01*
X0175013Y0067613D01*
X0175057Y0067662D01*
X0175103Y0067708D01*
X0175152Y0067752D01*
X0175203Y0067792D01*
X0175257Y0067830D01*
X0175313Y0067864D01*
X0175370Y0067895D01*
X0175429Y0067923D01*
X0175490Y0067947D01*
X0175552Y0067968D01*
X0175616Y0067985D01*
X0175680Y0067998D01*
X0175744Y0068007D01*
X0175810Y0068013D01*
X0175875Y0068015D01*
X0195250Y0077150D02*
X0197500Y0077150D01*
X0197554Y0077152D01*
X0197607Y0077158D01*
X0197659Y0077167D01*
X0197711Y0077180D01*
X0197762Y0077197D01*
X0197812Y0077218D01*
X0197859Y0077242D01*
X0197905Y0077269D01*
X0197949Y0077300D01*
X0197991Y0077333D01*
X0198030Y0077370D01*
X0198067Y0077409D01*
X0198100Y0077451D01*
X0198131Y0077495D01*
X0198158Y0077541D01*
X0198182Y0077588D01*
X0198203Y0077638D01*
X0198220Y0077689D01*
X0198233Y0077741D01*
X0198242Y0077793D01*
X0198248Y0077846D01*
X0198250Y0077900D01*
X0198250Y0079150D01*
X0195250Y0079150D01*
X0195750Y0081410D02*
X0195750Y0083410D01*
X0193750Y0083410D02*
X0193750Y0081410D01*
X0198250Y0081410D01*
X0195750Y0040250D02*
X0195750Y0039250D01*
X0195750Y0040250D02*
X0195748Y0040312D01*
X0195742Y0040373D01*
X0195733Y0040434D01*
X0195720Y0040494D01*
X0195703Y0040553D01*
X0195682Y0040611D01*
X0195658Y0040668D01*
X0195631Y0040723D01*
X0195600Y0040776D01*
X0195566Y0040828D01*
X0195529Y0040877D01*
X0195489Y0040924D01*
X0195446Y0040968D01*
X0195401Y0041009D01*
X0195353Y0041048D01*
X0195302Y0041084D01*
X0195250Y0041116D01*
X0195196Y0041145D01*
X0195140Y0041171D01*
X0195082Y0041193D01*
X0195024Y0041212D01*
X0194964Y0041227D01*
X0194903Y0041238D01*
X0194842Y0041246D01*
X0194781Y0041250D01*
X0194719Y0041250D01*
X0194658Y0041246D01*
X0194597Y0041238D01*
X0194536Y0041227D01*
X0194476Y0041212D01*
X0194418Y0041193D01*
X0194360Y0041171D01*
X0194304Y0041145D01*
X0194250Y0041116D01*
X0194198Y0041084D01*
X0194147Y0041048D01*
X0194099Y0041009D01*
X0194054Y0040968D01*
X0194011Y0040924D01*
X0193971Y0040877D01*
X0193934Y0040828D01*
X0193900Y0040776D01*
X0193869Y0040723D01*
X0193842Y0040668D01*
X0193818Y0040611D01*
X0193797Y0040553D01*
X0193780Y0040494D01*
X0193767Y0040434D01*
X0193758Y0040373D01*
X0193752Y0040312D01*
X0193750Y0040250D01*
X0193750Y0038750D01*
X0193750Y0036985D02*
X0193750Y0035985D01*
X0193752Y0035925D01*
X0193757Y0035864D01*
X0193766Y0035805D01*
X0193779Y0035746D01*
X0193795Y0035687D01*
X0193815Y0035630D01*
X0193838Y0035575D01*
X0193865Y0035520D01*
X0193894Y0035468D01*
X0193927Y0035417D01*
X0193963Y0035368D01*
X0194001Y0035322D01*
X0194043Y0035278D01*
X0194087Y0035236D01*
X0194133Y0035198D01*
X0194182Y0035162D01*
X0194233Y0035129D01*
X0194285Y0035100D01*
X0194340Y0035073D01*
X0194395Y0035050D01*
X0194452Y0035030D01*
X0194511Y0035014D01*
X0194570Y0035001D01*
X0194629Y0034992D01*
X0194690Y0034987D01*
X0194750Y0034985D01*
X0197250Y0034985D01*
X0197310Y0034987D01*
X0197371Y0034992D01*
X0197430Y0035001D01*
X0197489Y0035014D01*
X0197548Y0035030D01*
X0197605Y0035050D01*
X0197660Y0035073D01*
X0197715Y0035100D01*
X0197767Y0035129D01*
X0197818Y0035162D01*
X0197867Y0035198D01*
X0197913Y0035236D01*
X0197957Y0035278D01*
X0197999Y0035322D01*
X0198037Y0035368D01*
X0198073Y0035417D01*
X0198106Y0035468D01*
X0198135Y0035520D01*
X0198162Y0035575D01*
X0198185Y0035630D01*
X0198205Y0035687D01*
X0198221Y0035746D01*
X0198234Y0035805D01*
X0198243Y0035864D01*
X0198248Y0035925D01*
X0198250Y0035985D01*
X0198250Y0036985D01*
X0198250Y0038750D02*
X0198250Y0040000D01*
X0198248Y0040069D01*
X0198242Y0040138D01*
X0198233Y0040206D01*
X0198220Y0040273D01*
X0198203Y0040340D01*
X0198182Y0040406D01*
X0198158Y0040470D01*
X0198130Y0040533D01*
X0198099Y0040595D01*
X0198065Y0040655D01*
X0198027Y0040712D01*
X0197986Y0040768D01*
X0197943Y0040821D01*
X0197896Y0040872D01*
X0197847Y0040920D01*
X0197795Y0040965D01*
X0197740Y0041007D01*
X0197684Y0041046D01*
X0197625Y0041083D01*
X0197564Y0041115D01*
X0197502Y0041145D01*
X0197438Y0041171D01*
X0197373Y0041193D01*
X0197307Y0041212D01*
X0197240Y0041227D01*
X0197172Y0041238D01*
X0197103Y0041246D01*
X0197034Y0041250D01*
X0196966Y0041250D01*
X0196897Y0041246D01*
X0196828Y0041238D01*
X0196760Y0041227D01*
X0196693Y0041212D01*
X0196627Y0041193D01*
X0196562Y0041171D01*
X0196498Y0041145D01*
X0196436Y0041115D01*
X0196375Y0041083D01*
X0196316Y0041046D01*
X0196260Y0041007D01*
X0196205Y0040965D01*
X0196153Y0040920D01*
X0196104Y0040872D01*
X0196057Y0040821D01*
X0196014Y0040768D01*
X0195973Y0040712D01*
X0195935Y0040655D01*
X0195901Y0040595D01*
X0195870Y0040533D01*
X0195842Y0040470D01*
X0195818Y0040406D01*
X0195797Y0040340D01*
X0195780Y0040273D01*
X0195767Y0040206D01*
X0195758Y0040138D01*
X0195752Y0040069D01*
X0195750Y0040000D01*
X0179250Y0039250D02*
X0174750Y0039250D01*
X0174750Y0041250D01*
X0176750Y0041250D02*
X0176750Y0039250D01*
X0176250Y0036990D02*
X0179250Y0036990D01*
X0179250Y0035740D01*
X0179248Y0035686D01*
X0179242Y0035633D01*
X0179233Y0035581D01*
X0179220Y0035529D01*
X0179203Y0035478D01*
X0179182Y0035428D01*
X0179158Y0035381D01*
X0179131Y0035335D01*
X0179100Y0035291D01*
X0179067Y0035249D01*
X0179030Y0035210D01*
X0178991Y0035173D01*
X0178949Y0035140D01*
X0178905Y0035109D01*
X0178859Y0035082D01*
X0178812Y0035058D01*
X0178762Y0035037D01*
X0178711Y0035020D01*
X0178659Y0035007D01*
X0178607Y0034998D01*
X0178554Y0034992D01*
X0178500Y0034990D01*
X0176250Y0034990D01*
X0179250Y0032890D02*
X0179250Y0030390D01*
X0179250Y0031640D02*
X0174750Y0031640D01*
X0175750Y0030390D01*
X0177000Y0024090D02*
X0177120Y0024092D01*
X0177240Y0024098D01*
X0177360Y0024108D01*
X0177479Y0024121D01*
X0177598Y0024139D01*
X0177716Y0024160D01*
X0177834Y0024185D01*
X0177950Y0024214D01*
X0178066Y0024247D01*
X0178180Y0024283D01*
X0178294Y0024323D01*
X0178406Y0024367D01*
X0178516Y0024414D01*
X0178625Y0024465D01*
X0178250Y0024340D02*
X0175750Y0026340D01*
X0175375Y0026215D02*
X0175319Y0026194D01*
X0175264Y0026168D01*
X0175210Y0026140D01*
X0175159Y0026108D01*
X0175110Y0026073D01*
X0175064Y0026034D01*
X0175020Y0025993D01*
X0174978Y0025949D01*
X0174940Y0025902D01*
X0174905Y0025853D01*
X0174873Y0025801D01*
X0174845Y0025748D01*
X0174820Y0025693D01*
X0174799Y0025637D01*
X0174781Y0025579D01*
X0174768Y0025520D01*
X0174758Y0025460D01*
X0174752Y0025400D01*
X0174750Y0025340D01*
X0174752Y0025280D01*
X0174758Y0025220D01*
X0174768Y0025160D01*
X0174781Y0025101D01*
X0174799Y0025043D01*
X0174820Y0024987D01*
X0174845Y0024932D01*
X0174873Y0024879D01*
X0174905Y0024827D01*
X0174940Y0024778D01*
X0174978Y0024731D01*
X0175020Y0024687D01*
X0175064Y0024646D01*
X0175110Y0024607D01*
X0175159Y0024572D01*
X0175210Y0024540D01*
X0175264Y0024512D01*
X0175319Y0024486D01*
X0175375Y0024465D01*
X0177000Y0026590D02*
X0177120Y0026588D01*
X0177240Y0026582D01*
X0177360Y0026572D01*
X0177479Y0026559D01*
X0177598Y0026541D01*
X0177716Y0026520D01*
X0177834Y0026495D01*
X0177950Y0026466D01*
X0178066Y0026433D01*
X0178180Y0026397D01*
X0178294Y0026357D01*
X0178406Y0026313D01*
X0178516Y0026266D01*
X0178625Y0026215D01*
X0178681Y0026194D01*
X0178736Y0026168D01*
X0178790Y0026140D01*
X0178841Y0026108D01*
X0178890Y0026073D01*
X0178936Y0026034D01*
X0178980Y0025993D01*
X0179022Y0025949D01*
X0179060Y0025902D01*
X0179095Y0025853D01*
X0179127Y0025801D01*
X0179155Y0025748D01*
X0179180Y0025693D01*
X0179201Y0025637D01*
X0179219Y0025579D01*
X0179232Y0025520D01*
X0179242Y0025460D01*
X0179248Y0025400D01*
X0179250Y0025340D01*
X0179248Y0025280D01*
X0179242Y0025220D01*
X0179232Y0025160D01*
X0179219Y0025101D01*
X0179201Y0025043D01*
X0179180Y0024987D01*
X0179155Y0024932D01*
X0179127Y0024879D01*
X0179095Y0024827D01*
X0179060Y0024778D01*
X0179022Y0024731D01*
X0178980Y0024687D01*
X0178936Y0024646D01*
X0178890Y0024607D01*
X0178841Y0024572D01*
X0178790Y0024540D01*
X0178736Y0024512D01*
X0178681Y0024486D01*
X0178625Y0024465D01*
X0177000Y0026590D02*
X0176880Y0026588D01*
X0176760Y0026582D01*
X0176640Y0026572D01*
X0176521Y0026559D01*
X0176402Y0026541D01*
X0176284Y0026520D01*
X0176166Y0026495D01*
X0176050Y0026466D01*
X0175934Y0026433D01*
X0175820Y0026397D01*
X0175706Y0026357D01*
X0175594Y0026313D01*
X0175484Y0026266D01*
X0175375Y0026215D01*
X0175375Y0024465D02*
X0175484Y0024414D01*
X0175594Y0024367D01*
X0175706Y0024323D01*
X0175820Y0024283D01*
X0175934Y0024247D01*
X0176050Y0024214D01*
X0176166Y0024185D01*
X0176284Y0024160D01*
X0176402Y0024139D01*
X0176521Y0024121D01*
X0176640Y0024108D01*
X0176760Y0024098D01*
X0176880Y0024092D01*
X0177000Y0024090D01*
X0179000Y0028365D02*
X0179000Y0028615D01*
X0179250Y0028615D01*
X0179250Y0028365D01*
X0179000Y0028365D01*
X0170837Y0150478D02*
X0170726Y0150526D01*
X0170613Y0150570D01*
X0170499Y0150611D01*
X0170384Y0150648D01*
X0170268Y0150682D01*
X0170151Y0150712D01*
X0170033Y0150738D01*
X0169914Y0150761D01*
X0169794Y0150779D01*
X0169674Y0150794D01*
X0169554Y0150806D01*
X0169433Y0150813D01*
X0169312Y0150817D01*
X0169253Y0150816D01*
X0169196Y0150811D01*
X0169138Y0150802D01*
X0169081Y0150790D01*
X0169026Y0150773D01*
X0168971Y0150754D01*
X0168918Y0150730D01*
X0168867Y0150703D01*
X0168817Y0150673D01*
X0168769Y0150640D01*
X0168724Y0150603D01*
X0168682Y0150564D01*
X0168642Y0150522D01*
X0168605Y0150477D01*
X0168571Y0150430D01*
X0168540Y0150381D01*
X0168512Y0150330D01*
X0168488Y0150277D01*
X0168467Y0150222D01*
X0168450Y0150167D01*
X0168437Y0150110D01*
X0168428Y0150053D01*
X0168422Y0149995D01*
X0168420Y0149937D01*
X0168422Y0149879D01*
X0168428Y0149821D01*
X0168437Y0149764D01*
X0168451Y0149708D01*
X0168468Y0149652D01*
X0168488Y0149598D01*
X0168513Y0149545D01*
X0168540Y0149494D01*
X0168571Y0149445D01*
X0168605Y0149398D01*
X0168643Y0149353D01*
X0168683Y0149311D01*
X0168725Y0149272D01*
X0168771Y0149236D01*
X0168818Y0149202D01*
X0168868Y0149172D01*
X0168919Y0149145D01*
X0168973Y0149122D01*
X0170667Y0148444D01*
X0170667Y0148445D02*
X0170721Y0148422D01*
X0170772Y0148395D01*
X0170822Y0148365D01*
X0170869Y0148331D01*
X0170915Y0148295D01*
X0170957Y0148256D01*
X0170997Y0148214D01*
X0171035Y0148169D01*
X0171069Y0148122D01*
X0171100Y0148073D01*
X0171127Y0148022D01*
X0171152Y0147969D01*
X0171172Y0147915D01*
X0171189Y0147859D01*
X0171203Y0147803D01*
X0171212Y0147746D01*
X0171218Y0147688D01*
X0171220Y0147630D01*
X0171218Y0147572D01*
X0171212Y0147514D01*
X0171203Y0147457D01*
X0171190Y0147400D01*
X0171173Y0147345D01*
X0171152Y0147290D01*
X0171128Y0147237D01*
X0171100Y0147186D01*
X0171069Y0147137D01*
X0171035Y0147090D01*
X0170998Y0147045D01*
X0170958Y0147003D01*
X0170916Y0146964D01*
X0170871Y0146927D01*
X0170823Y0146894D01*
X0170773Y0146864D01*
X0170722Y0146837D01*
X0170669Y0146813D01*
X0170614Y0146794D01*
X0170559Y0146777D01*
X0170502Y0146765D01*
X0170444Y0146756D01*
X0170387Y0146751D01*
X0170328Y0146750D01*
X0166356Y0146750D02*
X0165000Y0146750D01*
X0164939Y0146752D01*
X0164877Y0146757D01*
X0164817Y0146767D01*
X0164757Y0146780D01*
X0164697Y0146796D01*
X0164639Y0146816D01*
X0164583Y0146840D01*
X0164527Y0146866D01*
X0164474Y0146897D01*
X0164422Y0146930D01*
X0164373Y0146966D01*
X0164326Y0147006D01*
X0164281Y0147048D01*
X0164239Y0147093D01*
X0164199Y0147140D01*
X0164163Y0147189D01*
X0164130Y0147241D01*
X0164099Y0147294D01*
X0164073Y0147350D01*
X0164049Y0147406D01*
X0164029Y0147464D01*
X0164013Y0147524D01*
X0164000Y0147584D01*
X0163990Y0147644D01*
X0163985Y0147706D01*
X0163983Y0147767D01*
X0163984Y0147767D02*
X0163984Y0149800D01*
X0163983Y0149800D02*
X0163985Y0149861D01*
X0163990Y0149923D01*
X0164000Y0149983D01*
X0164013Y0150043D01*
X0164029Y0150103D01*
X0164049Y0150161D01*
X0164073Y0150217D01*
X0164099Y0150273D01*
X0164130Y0150326D01*
X0164163Y0150378D01*
X0164199Y0150427D01*
X0164239Y0150474D01*
X0164281Y0150519D01*
X0164326Y0150561D01*
X0164373Y0150601D01*
X0164422Y0150637D01*
X0164474Y0150670D01*
X0164527Y0150701D01*
X0164583Y0150727D01*
X0164639Y0150751D01*
X0164697Y0150771D01*
X0164757Y0150787D01*
X0164817Y0150800D01*
X0164877Y0150810D01*
X0164939Y0150815D01*
X0165000Y0150817D01*
X0166356Y0150817D01*
X0168464Y0147089D02*
X0168603Y0147042D01*
X0168742Y0146997D01*
X0168883Y0146957D01*
X0169024Y0146920D01*
X0169167Y0146886D01*
X0169310Y0146856D01*
X0169454Y0146830D01*
X0169599Y0146808D01*
X0169744Y0146789D01*
X0169889Y0146774D01*
X0170035Y0146762D01*
X0170182Y0146755D01*
X0170328Y0146751D01*
X0161626Y0146750D02*
X0161626Y0150817D01*
X0161796Y0152511D02*
X0161457Y0152511D01*
X0161457Y0152850D01*
X0161796Y0152850D01*
X0161796Y0152511D01*
X0159479Y0150817D02*
X0157446Y0150817D01*
X0158123Y0152850D02*
X0158123Y0147767D01*
X0158125Y0147706D01*
X0158130Y0147644D01*
X0158140Y0147584D01*
X0158153Y0147524D01*
X0158169Y0147464D01*
X0158189Y0147406D01*
X0158213Y0147350D01*
X0158239Y0147294D01*
X0158270Y0147241D01*
X0158303Y0147189D01*
X0158339Y0147140D01*
X0158379Y0147093D01*
X0158421Y0147048D01*
X0158466Y0147006D01*
X0158513Y0146966D01*
X0158562Y0146930D01*
X0158614Y0146897D01*
X0158667Y0146866D01*
X0158723Y0146840D01*
X0158779Y0146816D01*
X0158837Y0146796D01*
X0158897Y0146780D01*
X0158957Y0146767D01*
X0159017Y0146757D01*
X0159079Y0146752D01*
X0159140Y0146750D01*
X0159479Y0146750D01*
X0155569Y0148106D02*
X0155569Y0149461D01*
X0155567Y0149533D01*
X0155561Y0149605D01*
X0155552Y0149677D01*
X0155538Y0149748D01*
X0155521Y0149818D01*
X0155500Y0149887D01*
X0155476Y0149955D01*
X0155448Y0150021D01*
X0155416Y0150086D01*
X0155381Y0150149D01*
X0155343Y0150211D01*
X0155301Y0150270D01*
X0155257Y0150326D01*
X0155209Y0150381D01*
X0155159Y0150433D01*
X0155106Y0150481D01*
X0155050Y0150528D01*
X0154992Y0150571D01*
X0154932Y0150611D01*
X0154870Y0150647D01*
X0154806Y0150680D01*
X0154740Y0150710D01*
X0154673Y0150737D01*
X0154604Y0150759D01*
X0154535Y0150778D01*
X0154464Y0150794D01*
X0154393Y0150805D01*
X0154321Y0150813D01*
X0154249Y0150817D01*
X0154177Y0150817D01*
X0154105Y0150813D01*
X0154033Y0150805D01*
X0153962Y0150794D01*
X0153891Y0150778D01*
X0153822Y0150759D01*
X0153753Y0150737D01*
X0153686Y0150710D01*
X0153620Y0150680D01*
X0153556Y0150647D01*
X0153494Y0150611D01*
X0153434Y0150571D01*
X0153376Y0150528D01*
X0153320Y0150481D01*
X0153267Y0150433D01*
X0153217Y0150381D01*
X0153169Y0150326D01*
X0153125Y0150270D01*
X0153083Y0150211D01*
X0153045Y0150149D01*
X0153010Y0150086D01*
X0152978Y0150021D01*
X0152950Y0149955D01*
X0152926Y0149887D01*
X0152905Y0149818D01*
X0152888Y0149748D01*
X0152874Y0149677D01*
X0152865Y0149605D01*
X0152859Y0149533D01*
X0152857Y0149461D01*
X0152857Y0148106D01*
X0152859Y0148034D01*
X0152865Y0147962D01*
X0152874Y0147890D01*
X0152888Y0147819D01*
X0152905Y0147749D01*
X0152926Y0147680D01*
X0152950Y0147612D01*
X0152978Y0147546D01*
X0153010Y0147481D01*
X0153045Y0147418D01*
X0153083Y0147356D01*
X0153125Y0147297D01*
X0153169Y0147241D01*
X0153217Y0147186D01*
X0153267Y0147134D01*
X0153320Y0147086D01*
X0153376Y0147039D01*
X0153434Y0146996D01*
X0153494Y0146956D01*
X0153556Y0146920D01*
X0153620Y0146887D01*
X0153686Y0146857D01*
X0153753Y0146830D01*
X0153822Y0146808D01*
X0153891Y0146789D01*
X0153962Y0146773D01*
X0154033Y0146762D01*
X0154105Y0146754D01*
X0154177Y0146750D01*
X0154249Y0146750D01*
X0154321Y0146754D01*
X0154393Y0146762D01*
X0154464Y0146773D01*
X0154535Y0146789D01*
X0154604Y0146808D01*
X0154673Y0146830D01*
X0154740Y0146857D01*
X0154806Y0146887D01*
X0154870Y0146920D01*
X0154932Y0146956D01*
X0154992Y0146996D01*
X0155050Y0147039D01*
X0155106Y0147086D01*
X0155159Y0147134D01*
X0155209Y0147186D01*
X0155257Y0147241D01*
X0155301Y0147297D01*
X0155343Y0147356D01*
X0155381Y0147418D01*
X0155416Y0147481D01*
X0155448Y0147546D01*
X0155476Y0147612D01*
X0155500Y0147680D01*
X0155521Y0147749D01*
X0155538Y0147819D01*
X0155552Y0147890D01*
X0155561Y0147962D01*
X0155567Y0148034D01*
X0155569Y0148106D01*
X0150523Y0147767D02*
X0150523Y0149800D01*
X0150521Y0149861D01*
X0150516Y0149923D01*
X0150506Y0149983D01*
X0150493Y0150043D01*
X0150477Y0150103D01*
X0150457Y0150161D01*
X0150433Y0150217D01*
X0150407Y0150273D01*
X0150376Y0150326D01*
X0150343Y0150378D01*
X0150307Y0150427D01*
X0150267Y0150474D01*
X0150225Y0150519D01*
X0150180Y0150561D01*
X0150133Y0150601D01*
X0150084Y0150637D01*
X0150032Y0150670D01*
X0149979Y0150701D01*
X0149923Y0150727D01*
X0149867Y0150751D01*
X0149809Y0150771D01*
X0149749Y0150787D01*
X0149689Y0150800D01*
X0149629Y0150810D01*
X0149567Y0150815D01*
X0149506Y0150817D01*
X0147812Y0150817D01*
X0147812Y0152850D02*
X0147812Y0146750D01*
X0149506Y0146750D01*
X0149567Y0146752D01*
X0149629Y0146757D01*
X0149689Y0146767D01*
X0149749Y0146780D01*
X0149809Y0146796D01*
X0149867Y0146816D01*
X0149923Y0146840D01*
X0149979Y0146866D01*
X0150032Y0146897D01*
X0150084Y0146930D01*
X0150133Y0146966D01*
X0150180Y0147006D01*
X0150225Y0147048D01*
X0150267Y0147093D01*
X0150307Y0147140D01*
X0150343Y0147189D01*
X0150376Y0147241D01*
X0150407Y0147294D01*
X0150433Y0147350D01*
X0150457Y0147406D01*
X0150477Y0147464D01*
X0150493Y0147524D01*
X0150506Y0147584D01*
X0150516Y0147644D01*
X0150521Y0147706D01*
X0150523Y0147767D01*
X0145229Y0148106D02*
X0145229Y0149461D01*
X0145227Y0149533D01*
X0145221Y0149605D01*
X0145212Y0149677D01*
X0145198Y0149748D01*
X0145181Y0149818D01*
X0145160Y0149887D01*
X0145136Y0149955D01*
X0145108Y0150021D01*
X0145076Y0150086D01*
X0145041Y0150149D01*
X0145003Y0150211D01*
X0144961Y0150270D01*
X0144917Y0150326D01*
X0144869Y0150381D01*
X0144819Y0150433D01*
X0144766Y0150481D01*
X0144710Y0150528D01*
X0144652Y0150571D01*
X0144592Y0150611D01*
X0144530Y0150647D01*
X0144466Y0150680D01*
X0144400Y0150710D01*
X0144333Y0150737D01*
X0144264Y0150759D01*
X0144195Y0150778D01*
X0144124Y0150794D01*
X0144053Y0150805D01*
X0143981Y0150813D01*
X0143909Y0150817D01*
X0143837Y0150817D01*
X0143765Y0150813D01*
X0143693Y0150805D01*
X0143622Y0150794D01*
X0143551Y0150778D01*
X0143482Y0150759D01*
X0143413Y0150737D01*
X0143346Y0150710D01*
X0143280Y0150680D01*
X0143216Y0150647D01*
X0143154Y0150611D01*
X0143094Y0150571D01*
X0143036Y0150528D01*
X0142980Y0150481D01*
X0142927Y0150433D01*
X0142877Y0150381D01*
X0142829Y0150326D01*
X0142785Y0150270D01*
X0142743Y0150211D01*
X0142705Y0150149D01*
X0142670Y0150086D01*
X0142638Y0150021D01*
X0142610Y0149955D01*
X0142586Y0149887D01*
X0142565Y0149818D01*
X0142548Y0149748D01*
X0142534Y0149677D01*
X0142525Y0149605D01*
X0142519Y0149533D01*
X0142517Y0149461D01*
X0142518Y0149461D02*
X0142518Y0148106D01*
X0142517Y0148106D02*
X0142519Y0148034D01*
X0142525Y0147962D01*
X0142534Y0147890D01*
X0142548Y0147819D01*
X0142565Y0147749D01*
X0142586Y0147680D01*
X0142610Y0147612D01*
X0142638Y0147546D01*
X0142670Y0147481D01*
X0142705Y0147418D01*
X0142743Y0147356D01*
X0142785Y0147297D01*
X0142829Y0147241D01*
X0142877Y0147186D01*
X0142927Y0147134D01*
X0142980Y0147086D01*
X0143036Y0147039D01*
X0143094Y0146996D01*
X0143154Y0146956D01*
X0143216Y0146920D01*
X0143280Y0146887D01*
X0143346Y0146857D01*
X0143413Y0146830D01*
X0143482Y0146808D01*
X0143551Y0146789D01*
X0143622Y0146773D01*
X0143693Y0146762D01*
X0143765Y0146754D01*
X0143837Y0146750D01*
X0143909Y0146750D01*
X0143981Y0146754D01*
X0144053Y0146762D01*
X0144124Y0146773D01*
X0144195Y0146789D01*
X0144264Y0146808D01*
X0144333Y0146830D01*
X0144400Y0146857D01*
X0144466Y0146887D01*
X0144530Y0146920D01*
X0144592Y0146956D01*
X0144652Y0146996D01*
X0144710Y0147039D01*
X0144766Y0147086D01*
X0144819Y0147134D01*
X0144869Y0147186D01*
X0144917Y0147241D01*
X0144961Y0147297D01*
X0145003Y0147356D01*
X0145041Y0147418D01*
X0145076Y0147481D01*
X0145108Y0147546D01*
X0145136Y0147612D01*
X0145160Y0147680D01*
X0145181Y0147749D01*
X0145198Y0147819D01*
X0145212Y0147890D01*
X0145221Y0147962D01*
X0145227Y0148034D01*
X0145229Y0148106D01*
X0140139Y0146750D02*
X0138783Y0149461D01*
X0138444Y0149461D02*
X0136750Y0149461D01*
X0138444Y0149462D02*
X0138525Y0149464D01*
X0138605Y0149470D01*
X0138685Y0149479D01*
X0138765Y0149493D01*
X0138843Y0149510D01*
X0138921Y0149531D01*
X0138998Y0149555D01*
X0139074Y0149583D01*
X0139148Y0149615D01*
X0139220Y0149650D01*
X0139291Y0149689D01*
X0139360Y0149731D01*
X0139427Y0149776D01*
X0139491Y0149824D01*
X0139553Y0149876D01*
X0139613Y0149930D01*
X0139670Y0149987D01*
X0139724Y0150047D01*
X0139776Y0150109D01*
X0139824Y0150173D01*
X0139869Y0150240D01*
X0139911Y0150309D01*
X0139950Y0150380D01*
X0139985Y0150452D01*
X0140017Y0150526D01*
X0140045Y0150602D01*
X0140069Y0150679D01*
X0140090Y0150757D01*
X0140107Y0150835D01*
X0140121Y0150915D01*
X0140130Y0150995D01*
X0140136Y0151075D01*
X0140138Y0151156D01*
X0140136Y0151237D01*
X0140130Y0151317D01*
X0140121Y0151397D01*
X0140107Y0151477D01*
X0140090Y0151555D01*
X0140069Y0151633D01*
X0140045Y0151710D01*
X0140017Y0151786D01*
X0139985Y0151860D01*
X0139950Y0151932D01*
X0139911Y0152003D01*
X0139869Y0152072D01*
X0139824Y0152139D01*
X0139776Y0152203D01*
X0139724Y0152265D01*
X0139670Y0152325D01*
X0139613Y0152382D01*
X0139553Y0152436D01*
X0139491Y0152488D01*
X0139427Y0152536D01*
X0139360Y0152581D01*
X0139291Y0152623D01*
X0139220Y0152662D01*
X0139148Y0152697D01*
X0139074Y0152729D01*
X0138998Y0152757D01*
X0138921Y0152781D01*
X0138843Y0152802D01*
X0138765Y0152819D01*
X0138685Y0152833D01*
X0138605Y0152842D01*
X0138525Y0152848D01*
X0138444Y0152850D01*
X0136750Y0152850D01*
X0136750Y0146750D01*
X0136750Y0156650D02*
X0136750Y0162750D01*
X0138444Y0162750D01*
X0138516Y0162748D01*
X0138588Y0162742D01*
X0138660Y0162733D01*
X0138731Y0162719D01*
X0138801Y0162702D01*
X0138870Y0162681D01*
X0138938Y0162657D01*
X0139004Y0162629D01*
X0139069Y0162597D01*
X0139132Y0162562D01*
X0139194Y0162524D01*
X0139253Y0162482D01*
X0139309Y0162438D01*
X0139364Y0162390D01*
X0139416Y0162340D01*
X0139464Y0162287D01*
X0139511Y0162231D01*
X0139554Y0162173D01*
X0139594Y0162113D01*
X0139630Y0162051D01*
X0139663Y0161987D01*
X0139693Y0161921D01*
X0139720Y0161854D01*
X0139742Y0161785D01*
X0139761Y0161716D01*
X0139777Y0161645D01*
X0139788Y0161574D01*
X0139796Y0161502D01*
X0139800Y0161430D01*
X0139800Y0161358D01*
X0139796Y0161286D01*
X0139788Y0161214D01*
X0139777Y0161143D01*
X0139761Y0161072D01*
X0139742Y0161003D01*
X0139720Y0160934D01*
X0139693Y0160867D01*
X0139663Y0160801D01*
X0139630Y0160737D01*
X0139594Y0160675D01*
X0139554Y0160615D01*
X0139511Y0160557D01*
X0139464Y0160501D01*
X0139416Y0160448D01*
X0139364Y0160398D01*
X0139309Y0160350D01*
X0139253Y0160306D01*
X0139194Y0160264D01*
X0139132Y0160226D01*
X0139069Y0160191D01*
X0139004Y0160159D01*
X0138938Y0160131D01*
X0138870Y0160107D01*
X0138801Y0160086D01*
X0138731Y0160069D01*
X0138660Y0160055D01*
X0138588Y0160046D01*
X0138516Y0160040D01*
X0138444Y0160038D01*
X0138444Y0160039D02*
X0136750Y0160039D01*
X0138444Y0160038D02*
X0138525Y0160036D01*
X0138605Y0160030D01*
X0138685Y0160021D01*
X0138765Y0160007D01*
X0138843Y0159990D01*
X0138921Y0159969D01*
X0138998Y0159945D01*
X0139074Y0159917D01*
X0139148Y0159885D01*
X0139220Y0159850D01*
X0139291Y0159811D01*
X0139360Y0159769D01*
X0139427Y0159724D01*
X0139491Y0159676D01*
X0139553Y0159624D01*
X0139613Y0159570D01*
X0139670Y0159513D01*
X0139724Y0159453D01*
X0139776Y0159391D01*
X0139824Y0159327D01*
X0139869Y0159260D01*
X0139911Y0159191D01*
X0139950Y0159120D01*
X0139985Y0159048D01*
X0140017Y0158974D01*
X0140045Y0158898D01*
X0140069Y0158821D01*
X0140090Y0158743D01*
X0140107Y0158665D01*
X0140121Y0158585D01*
X0140130Y0158505D01*
X0140136Y0158425D01*
X0140138Y0158344D01*
X0140136Y0158263D01*
X0140130Y0158183D01*
X0140121Y0158103D01*
X0140107Y0158023D01*
X0140090Y0157945D01*
X0140069Y0157867D01*
X0140045Y0157790D01*
X0140017Y0157714D01*
X0139985Y0157640D01*
X0139950Y0157568D01*
X0139911Y0157497D01*
X0139869Y0157428D01*
X0139824Y0157361D01*
X0139776Y0157297D01*
X0139724Y0157235D01*
X0139670Y0157175D01*
X0139613Y0157118D01*
X0139553Y0157064D01*
X0139491Y0157012D01*
X0139427Y0156964D01*
X0139360Y0156919D01*
X0139291Y0156877D01*
X0139220Y0156838D01*
X0139148Y0156803D01*
X0139074Y0156771D01*
X0138998Y0156743D01*
X0138921Y0156719D01*
X0138843Y0156698D01*
X0138765Y0156681D01*
X0138685Y0156667D01*
X0138605Y0156658D01*
X0138525Y0156652D01*
X0138444Y0156650D01*
X0136750Y0156650D01*
X0142603Y0156650D02*
X0142603Y0162750D01*
X0144297Y0162750D01*
X0144369Y0162748D01*
X0144441Y0162742D01*
X0144513Y0162733D01*
X0144584Y0162719D01*
X0144654Y0162702D01*
X0144723Y0162681D01*
X0144791Y0162657D01*
X0144857Y0162629D01*
X0144922Y0162597D01*
X0144985Y0162562D01*
X0145047Y0162524D01*
X0145106Y0162482D01*
X0145162Y0162438D01*
X0145217Y0162390D01*
X0145269Y0162340D01*
X0145317Y0162287D01*
X0145364Y0162231D01*
X0145407Y0162173D01*
X0145447Y0162113D01*
X0145483Y0162051D01*
X0145516Y0161987D01*
X0145546Y0161921D01*
X0145573Y0161854D01*
X0145595Y0161785D01*
X0145614Y0161716D01*
X0145630Y0161645D01*
X0145641Y0161574D01*
X0145649Y0161502D01*
X0145653Y0161430D01*
X0145653Y0161358D01*
X0145649Y0161286D01*
X0145641Y0161214D01*
X0145630Y0161143D01*
X0145614Y0161072D01*
X0145595Y0161003D01*
X0145573Y0160934D01*
X0145546Y0160867D01*
X0145516Y0160801D01*
X0145483Y0160737D01*
X0145447Y0160675D01*
X0145407Y0160615D01*
X0145364Y0160557D01*
X0145317Y0160501D01*
X0145269Y0160448D01*
X0145217Y0160398D01*
X0145162Y0160350D01*
X0145106Y0160306D01*
X0145047Y0160264D01*
X0144985Y0160226D01*
X0144922Y0160191D01*
X0144857Y0160159D01*
X0144791Y0160131D01*
X0144723Y0160107D01*
X0144654Y0160086D01*
X0144584Y0160069D01*
X0144513Y0160055D01*
X0144441Y0160046D01*
X0144369Y0160040D01*
X0144297Y0160038D01*
X0144297Y0160039D02*
X0142603Y0160039D01*
X0144297Y0160038D02*
X0144378Y0160036D01*
X0144458Y0160030D01*
X0144538Y0160021D01*
X0144618Y0160007D01*
X0144696Y0159990D01*
X0144774Y0159969D01*
X0144851Y0159945D01*
X0144927Y0159917D01*
X0145001Y0159885D01*
X0145073Y0159850D01*
X0145144Y0159811D01*
X0145213Y0159769D01*
X0145280Y0159724D01*
X0145344Y0159676D01*
X0145406Y0159624D01*
X0145466Y0159570D01*
X0145523Y0159513D01*
X0145577Y0159453D01*
X0145629Y0159391D01*
X0145677Y0159327D01*
X0145722Y0159260D01*
X0145764Y0159191D01*
X0145803Y0159120D01*
X0145838Y0159048D01*
X0145870Y0158974D01*
X0145898Y0158898D01*
X0145922Y0158821D01*
X0145943Y0158743D01*
X0145960Y0158665D01*
X0145974Y0158585D01*
X0145983Y0158505D01*
X0145989Y0158425D01*
X0145991Y0158344D01*
X0145989Y0158263D01*
X0145983Y0158183D01*
X0145974Y0158103D01*
X0145960Y0158023D01*
X0145943Y0157945D01*
X0145922Y0157867D01*
X0145898Y0157790D01*
X0145870Y0157714D01*
X0145838Y0157640D01*
X0145803Y0157568D01*
X0145764Y0157497D01*
X0145722Y0157428D01*
X0145677Y0157361D01*
X0145629Y0157297D01*
X0145577Y0157235D01*
X0145523Y0157175D01*
X0145466Y0157118D01*
X0145406Y0157064D01*
X0145344Y0157012D01*
X0145280Y0156964D01*
X0145213Y0156919D01*
X0145144Y0156877D01*
X0145073Y0156838D01*
X0145001Y0156803D01*
X0144927Y0156771D01*
X0144851Y0156743D01*
X0144774Y0156719D01*
X0144696Y0156698D01*
X0144618Y0156681D01*
X0144538Y0156667D01*
X0144458Y0156658D01*
X0144378Y0156652D01*
X0144297Y0156650D01*
X0142603Y0156650D01*
X0148168Y0158006D02*
X0148168Y0161394D01*
X0148170Y0161467D01*
X0148176Y0161541D01*
X0148186Y0161613D01*
X0148200Y0161685D01*
X0148217Y0161757D01*
X0148239Y0161827D01*
X0148264Y0161896D01*
X0148293Y0161963D01*
X0148326Y0162029D01*
X0148362Y0162093D01*
X0148402Y0162155D01*
X0148444Y0162215D01*
X0148491Y0162272D01*
X0148540Y0162327D01*
X0148591Y0162378D01*
X0148646Y0162427D01*
X0148703Y0162473D01*
X0148763Y0162516D01*
X0148825Y0162556D01*
X0148889Y0162592D01*
X0148955Y0162625D01*
X0149022Y0162654D01*
X0149091Y0162679D01*
X0149161Y0162701D01*
X0149232Y0162718D01*
X0149305Y0162732D01*
X0149377Y0162742D01*
X0149451Y0162748D01*
X0149524Y0162750D01*
X0150879Y0162750D01*
X0148168Y0158006D02*
X0148170Y0157935D01*
X0148175Y0157864D01*
X0148185Y0157794D01*
X0148198Y0157724D01*
X0148214Y0157655D01*
X0148234Y0157587D01*
X0148258Y0157520D01*
X0148285Y0157454D01*
X0148316Y0157390D01*
X0148350Y0157328D01*
X0148387Y0157267D01*
X0148427Y0157209D01*
X0148470Y0157153D01*
X0148516Y0157099D01*
X0148565Y0157047D01*
X0148617Y0156998D01*
X0148671Y0156952D01*
X0148727Y0156909D01*
X0148785Y0156869D01*
X0148846Y0156832D01*
X0148908Y0156798D01*
X0148972Y0156767D01*
X0149038Y0156740D01*
X0149105Y0156716D01*
X0149173Y0156696D01*
X0149242Y0156680D01*
X0149312Y0156667D01*
X0149382Y0156657D01*
X0149453Y0156652D01*
X0149524Y0156650D01*
X0150879Y0156650D01*
D14*
X0322650Y0055350D02*
X0323883Y0053294D01*
X0325117Y0055350D01*
X0325117Y0051650D01*
X0327483Y0051650D02*
X0328408Y0051650D01*
X0328408Y0053500D01*
X0328408Y0053089D02*
X0327483Y0053089D01*
X0328408Y0053500D02*
X0328406Y0053548D01*
X0328400Y0053597D01*
X0328391Y0053644D01*
X0328378Y0053691D01*
X0328361Y0053736D01*
X0328341Y0053780D01*
X0328317Y0053822D01*
X0328290Y0053863D01*
X0328260Y0053901D01*
X0328227Y0053936D01*
X0328192Y0053969D01*
X0328154Y0053999D01*
X0328113Y0054026D01*
X0328071Y0054050D01*
X0328027Y0054070D01*
X0327982Y0054087D01*
X0327935Y0054100D01*
X0327888Y0054109D01*
X0327839Y0054115D01*
X0327791Y0054117D01*
X0326969Y0054117D01*
X0327483Y0053088D02*
X0327431Y0053086D01*
X0327378Y0053080D01*
X0327327Y0053071D01*
X0327276Y0053058D01*
X0327226Y0053041D01*
X0327178Y0053020D01*
X0327131Y0052996D01*
X0327086Y0052969D01*
X0327044Y0052938D01*
X0327003Y0052904D01*
X0326965Y0052868D01*
X0326930Y0052829D01*
X0326898Y0052787D01*
X0326869Y0052744D01*
X0326844Y0052698D01*
X0326821Y0052650D01*
X0326803Y0052601D01*
X0326787Y0052551D01*
X0326776Y0052500D01*
X0326768Y0052448D01*
X0326764Y0052395D01*
X0326764Y0052343D01*
X0326768Y0052290D01*
X0326776Y0052238D01*
X0326787Y0052187D01*
X0326803Y0052137D01*
X0326821Y0052088D01*
X0326844Y0052040D01*
X0326869Y0051994D01*
X0326898Y0051951D01*
X0326930Y0051909D01*
X0326965Y0051870D01*
X0327003Y0051834D01*
X0327044Y0051800D01*
X0327086Y0051769D01*
X0327131Y0051742D01*
X0327178Y0051718D01*
X0327226Y0051697D01*
X0327276Y0051680D01*
X0327327Y0051667D01*
X0327378Y0051658D01*
X0327431Y0051652D01*
X0327483Y0051650D01*
X0326587Y0049117D02*
X0325559Y0049117D01*
X0325559Y0045417D01*
X0325559Y0046650D02*
X0326587Y0046650D01*
X0326635Y0046652D01*
X0326684Y0046658D01*
X0326731Y0046667D01*
X0326778Y0046680D01*
X0326823Y0046697D01*
X0326867Y0046717D01*
X0326909Y0046741D01*
X0326950Y0046768D01*
X0326988Y0046798D01*
X0327023Y0046831D01*
X0327056Y0046866D01*
X0327086Y0046904D01*
X0327113Y0046945D01*
X0327137Y0046987D01*
X0327157Y0047031D01*
X0327174Y0047076D01*
X0327187Y0047123D01*
X0327196Y0047170D01*
X0327202Y0047219D01*
X0327204Y0047267D01*
X0327203Y0047267D02*
X0327203Y0048500D01*
X0327204Y0048500D02*
X0327202Y0048548D01*
X0327196Y0048597D01*
X0327187Y0048644D01*
X0327174Y0048691D01*
X0327157Y0048736D01*
X0327137Y0048780D01*
X0327113Y0048822D01*
X0327086Y0048863D01*
X0327056Y0048901D01*
X0327023Y0048936D01*
X0326988Y0048969D01*
X0326950Y0048999D01*
X0326909Y0049026D01*
X0326867Y0049050D01*
X0326823Y0049070D01*
X0326778Y0049087D01*
X0326731Y0049100D01*
X0326684Y0049109D01*
X0326635Y0049115D01*
X0326587Y0049117D01*
X0328849Y0049117D02*
X0329671Y0049117D01*
X0329719Y0049115D01*
X0329768Y0049109D01*
X0329815Y0049100D01*
X0329862Y0049087D01*
X0329907Y0049070D01*
X0329951Y0049050D01*
X0329993Y0049026D01*
X0330034Y0048999D01*
X0330072Y0048969D01*
X0330107Y0048936D01*
X0330140Y0048901D01*
X0330170Y0048863D01*
X0330197Y0048822D01*
X0330221Y0048780D01*
X0330241Y0048736D01*
X0330258Y0048691D01*
X0330271Y0048644D01*
X0330280Y0048597D01*
X0330286Y0048548D01*
X0330288Y0048500D01*
X0330288Y0046650D01*
X0329363Y0046650D01*
X0329311Y0046652D01*
X0329258Y0046658D01*
X0329207Y0046667D01*
X0329156Y0046680D01*
X0329106Y0046697D01*
X0329058Y0046718D01*
X0329011Y0046742D01*
X0328966Y0046769D01*
X0328924Y0046800D01*
X0328883Y0046834D01*
X0328845Y0046870D01*
X0328810Y0046909D01*
X0328778Y0046951D01*
X0328749Y0046994D01*
X0328724Y0047040D01*
X0328701Y0047088D01*
X0328683Y0047137D01*
X0328667Y0047187D01*
X0328656Y0047238D01*
X0328648Y0047290D01*
X0328644Y0047343D01*
X0328644Y0047395D01*
X0328648Y0047448D01*
X0328656Y0047500D01*
X0328667Y0047551D01*
X0328683Y0047601D01*
X0328701Y0047650D01*
X0328724Y0047698D01*
X0328749Y0047744D01*
X0328778Y0047787D01*
X0328810Y0047829D01*
X0328845Y0047868D01*
X0328883Y0047904D01*
X0328924Y0047938D01*
X0328966Y0047969D01*
X0329011Y0047996D01*
X0329058Y0048020D01*
X0329106Y0048041D01*
X0329156Y0048058D01*
X0329207Y0048071D01*
X0329258Y0048080D01*
X0329311Y0048086D01*
X0329363Y0048088D01*
X0329363Y0048089D02*
X0330288Y0048089D01*
X0332041Y0049117D02*
X0332041Y0046650D01*
X0333275Y0048706D02*
X0333275Y0049117D01*
X0332041Y0049117D01*
X0334609Y0049117D02*
X0335431Y0049117D01*
X0335479Y0049115D01*
X0335528Y0049109D01*
X0335575Y0049100D01*
X0335622Y0049087D01*
X0335667Y0049070D01*
X0335711Y0049050D01*
X0335753Y0049026D01*
X0335794Y0048999D01*
X0335832Y0048969D01*
X0335867Y0048936D01*
X0335900Y0048901D01*
X0335930Y0048863D01*
X0335957Y0048822D01*
X0335981Y0048780D01*
X0336001Y0048736D01*
X0336018Y0048691D01*
X0336031Y0048644D01*
X0336040Y0048597D01*
X0336046Y0048548D01*
X0336048Y0048500D01*
X0336047Y0048500D02*
X0336047Y0046650D01*
X0335122Y0046650D01*
X0335070Y0046652D01*
X0335017Y0046658D01*
X0334966Y0046667D01*
X0334915Y0046680D01*
X0334865Y0046697D01*
X0334817Y0046718D01*
X0334770Y0046742D01*
X0334725Y0046769D01*
X0334683Y0046800D01*
X0334642Y0046834D01*
X0334604Y0046870D01*
X0334569Y0046909D01*
X0334537Y0046951D01*
X0334508Y0046994D01*
X0334483Y0047040D01*
X0334460Y0047088D01*
X0334442Y0047137D01*
X0334426Y0047187D01*
X0334415Y0047238D01*
X0334407Y0047290D01*
X0334403Y0047343D01*
X0334403Y0047395D01*
X0334407Y0047448D01*
X0334415Y0047500D01*
X0334426Y0047551D01*
X0334442Y0047601D01*
X0334460Y0047650D01*
X0334483Y0047698D01*
X0334508Y0047744D01*
X0334537Y0047787D01*
X0334569Y0047829D01*
X0334604Y0047868D01*
X0334642Y0047904D01*
X0334683Y0047938D01*
X0334725Y0047969D01*
X0334770Y0047996D01*
X0334817Y0048020D01*
X0334865Y0048041D01*
X0334915Y0048058D01*
X0334966Y0048071D01*
X0335017Y0048080D01*
X0335070Y0048086D01*
X0335122Y0048088D01*
X0335122Y0048089D02*
X0336047Y0048089D01*
X0337583Y0049117D02*
X0337583Y0046033D01*
X0337581Y0045985D01*
X0337575Y0045936D01*
X0337566Y0045889D01*
X0337553Y0045842D01*
X0337536Y0045797D01*
X0337516Y0045753D01*
X0337492Y0045711D01*
X0337465Y0045670D01*
X0337435Y0045632D01*
X0337402Y0045597D01*
X0337367Y0045564D01*
X0337329Y0045534D01*
X0337288Y0045507D01*
X0337246Y0045483D01*
X0337202Y0045463D01*
X0337157Y0045446D01*
X0337110Y0045433D01*
X0337063Y0045424D01*
X0337014Y0045418D01*
X0336966Y0045416D01*
X0336966Y0045417D02*
X0336761Y0045417D01*
X0341227Y0046650D02*
X0341227Y0050350D01*
X0342255Y0050350D01*
X0342311Y0050348D01*
X0342367Y0050342D01*
X0342422Y0050333D01*
X0342477Y0050320D01*
X0342530Y0050303D01*
X0342582Y0050282D01*
X0342633Y0050258D01*
X0342682Y0050230D01*
X0342729Y0050200D01*
X0342774Y0050166D01*
X0342816Y0050129D01*
X0342856Y0050089D01*
X0342893Y0050047D01*
X0342927Y0050002D01*
X0342957Y0049955D01*
X0342985Y0049906D01*
X0343009Y0049855D01*
X0343030Y0049803D01*
X0343047Y0049750D01*
X0343060Y0049695D01*
X0343069Y0049640D01*
X0343075Y0049584D01*
X0343077Y0049528D01*
X0343075Y0049472D01*
X0343069Y0049416D01*
X0343060Y0049361D01*
X0343047Y0049306D01*
X0343030Y0049253D01*
X0343009Y0049201D01*
X0342985Y0049150D01*
X0342957Y0049101D01*
X0342927Y0049054D01*
X0342893Y0049009D01*
X0342856Y0048967D01*
X0342816Y0048927D01*
X0342774Y0048890D01*
X0342729Y0048856D01*
X0342682Y0048826D01*
X0342633Y0048798D01*
X0342582Y0048774D01*
X0342530Y0048753D01*
X0342477Y0048736D01*
X0342422Y0048723D01*
X0342367Y0048714D01*
X0342311Y0048708D01*
X0342255Y0048706D01*
X0341227Y0048706D01*
X0342255Y0048706D02*
X0342318Y0048704D01*
X0342381Y0048698D01*
X0342444Y0048688D01*
X0342506Y0048675D01*
X0342567Y0048658D01*
X0342626Y0048637D01*
X0342685Y0048612D01*
X0342741Y0048584D01*
X0342796Y0048552D01*
X0342849Y0048517D01*
X0342899Y0048479D01*
X0342948Y0048438D01*
X0342993Y0048394D01*
X0343036Y0048347D01*
X0343075Y0048298D01*
X0343112Y0048246D01*
X0343145Y0048192D01*
X0343175Y0048136D01*
X0343202Y0048079D01*
X0343225Y0048020D01*
X0343244Y0047959D01*
X0343259Y0047898D01*
X0343271Y0047836D01*
X0343279Y0047773D01*
X0343283Y0047710D01*
X0343283Y0047646D01*
X0343279Y0047583D01*
X0343271Y0047520D01*
X0343259Y0047458D01*
X0343244Y0047397D01*
X0343225Y0047336D01*
X0343202Y0047277D01*
X0343175Y0047220D01*
X0343145Y0047164D01*
X0343112Y0047110D01*
X0343075Y0047058D01*
X0343036Y0047009D01*
X0342993Y0046962D01*
X0342948Y0046918D01*
X0342899Y0046877D01*
X0342849Y0046839D01*
X0342796Y0046804D01*
X0342741Y0046772D01*
X0342685Y0046744D01*
X0342626Y0046719D01*
X0342567Y0046698D01*
X0342506Y0046681D01*
X0342444Y0046668D01*
X0342381Y0046658D01*
X0342318Y0046652D01*
X0342255Y0046650D01*
X0341227Y0046650D01*
X0344621Y0047472D02*
X0344621Y0048294D01*
X0344623Y0048350D01*
X0344629Y0048406D01*
X0344638Y0048461D01*
X0344651Y0048516D01*
X0344668Y0048569D01*
X0344689Y0048621D01*
X0344713Y0048672D01*
X0344741Y0048721D01*
X0344771Y0048768D01*
X0344805Y0048813D01*
X0344842Y0048855D01*
X0344882Y0048895D01*
X0344924Y0048932D01*
X0344969Y0048966D01*
X0345016Y0048996D01*
X0345065Y0049024D01*
X0345116Y0049048D01*
X0345168Y0049069D01*
X0345221Y0049086D01*
X0345276Y0049099D01*
X0345331Y0049108D01*
X0345387Y0049114D01*
X0345443Y0049116D01*
X0345499Y0049114D01*
X0345555Y0049108D01*
X0345610Y0049099D01*
X0345665Y0049086D01*
X0345718Y0049069D01*
X0345770Y0049048D01*
X0345821Y0049024D01*
X0345870Y0048996D01*
X0345917Y0048966D01*
X0345962Y0048932D01*
X0346004Y0048895D01*
X0346044Y0048855D01*
X0346081Y0048813D01*
X0346115Y0048768D01*
X0346145Y0048721D01*
X0346173Y0048672D01*
X0346197Y0048621D01*
X0346218Y0048569D01*
X0346235Y0048516D01*
X0346248Y0048461D01*
X0346257Y0048406D01*
X0346263Y0048350D01*
X0346265Y0048294D01*
X0346265Y0047472D01*
X0346263Y0047416D01*
X0346257Y0047360D01*
X0346248Y0047305D01*
X0346235Y0047250D01*
X0346218Y0047197D01*
X0346197Y0047145D01*
X0346173Y0047094D01*
X0346145Y0047045D01*
X0346115Y0046998D01*
X0346081Y0046953D01*
X0346044Y0046911D01*
X0346004Y0046871D01*
X0345962Y0046834D01*
X0345917Y0046800D01*
X0345870Y0046770D01*
X0345821Y0046742D01*
X0345770Y0046718D01*
X0345718Y0046697D01*
X0345665Y0046680D01*
X0345610Y0046667D01*
X0345555Y0046658D01*
X0345499Y0046652D01*
X0345443Y0046650D01*
X0345387Y0046652D01*
X0345331Y0046658D01*
X0345276Y0046667D01*
X0345221Y0046680D01*
X0345168Y0046697D01*
X0345116Y0046718D01*
X0345065Y0046742D01*
X0345016Y0046770D01*
X0344969Y0046800D01*
X0344924Y0046834D01*
X0344882Y0046871D01*
X0344842Y0046911D01*
X0344805Y0046953D01*
X0344771Y0046998D01*
X0344741Y0047045D01*
X0344713Y0047094D01*
X0344689Y0047145D01*
X0344668Y0047197D01*
X0344651Y0047250D01*
X0344638Y0047305D01*
X0344629Y0047360D01*
X0344623Y0047416D01*
X0344621Y0047472D01*
X0347723Y0047267D02*
X0347723Y0048500D01*
X0347725Y0048548D01*
X0347731Y0048597D01*
X0347740Y0048644D01*
X0347753Y0048691D01*
X0347770Y0048736D01*
X0347790Y0048780D01*
X0347814Y0048822D01*
X0347841Y0048863D01*
X0347871Y0048901D01*
X0347904Y0048936D01*
X0347939Y0048969D01*
X0347977Y0048999D01*
X0348018Y0049026D01*
X0348060Y0049050D01*
X0348104Y0049070D01*
X0348149Y0049087D01*
X0348196Y0049100D01*
X0348243Y0049109D01*
X0348292Y0049115D01*
X0348340Y0049117D01*
X0349367Y0049117D01*
X0349367Y0046033D01*
X0349368Y0046033D02*
X0349366Y0045985D01*
X0349360Y0045936D01*
X0349351Y0045889D01*
X0349338Y0045842D01*
X0349321Y0045797D01*
X0349301Y0045753D01*
X0349277Y0045711D01*
X0349250Y0045670D01*
X0349220Y0045632D01*
X0349187Y0045597D01*
X0349152Y0045564D01*
X0349114Y0045534D01*
X0349073Y0045507D01*
X0349031Y0045483D01*
X0348987Y0045463D01*
X0348942Y0045446D01*
X0348895Y0045433D01*
X0348848Y0045424D01*
X0348799Y0045418D01*
X0348751Y0045416D01*
X0348751Y0045417D02*
X0347929Y0045417D01*
X0348340Y0046650D02*
X0349367Y0046650D01*
X0348340Y0046650D02*
X0348292Y0046652D01*
X0348243Y0046658D01*
X0348196Y0046667D01*
X0348149Y0046680D01*
X0348104Y0046697D01*
X0348060Y0046717D01*
X0348018Y0046741D01*
X0347977Y0046768D01*
X0347939Y0046798D01*
X0347904Y0046831D01*
X0347871Y0046866D01*
X0347841Y0046904D01*
X0347814Y0046945D01*
X0347790Y0046987D01*
X0347770Y0047031D01*
X0347753Y0047076D01*
X0347740Y0047123D01*
X0347731Y0047170D01*
X0347725Y0047219D01*
X0347723Y0047267D01*
X0351168Y0049117D02*
X0351991Y0049117D01*
X0352039Y0049115D01*
X0352088Y0049109D01*
X0352135Y0049100D01*
X0352182Y0049087D01*
X0352227Y0049070D01*
X0352271Y0049050D01*
X0352313Y0049026D01*
X0352354Y0048999D01*
X0352392Y0048969D01*
X0352427Y0048936D01*
X0352460Y0048901D01*
X0352490Y0048863D01*
X0352517Y0048822D01*
X0352541Y0048780D01*
X0352561Y0048736D01*
X0352578Y0048691D01*
X0352591Y0048644D01*
X0352600Y0048597D01*
X0352606Y0048548D01*
X0352608Y0048500D01*
X0352607Y0048500D02*
X0352607Y0046650D01*
X0351682Y0046650D01*
X0351630Y0046652D01*
X0351577Y0046658D01*
X0351526Y0046667D01*
X0351475Y0046680D01*
X0351425Y0046697D01*
X0351377Y0046718D01*
X0351330Y0046742D01*
X0351285Y0046769D01*
X0351243Y0046800D01*
X0351202Y0046834D01*
X0351164Y0046870D01*
X0351129Y0046909D01*
X0351097Y0046951D01*
X0351068Y0046994D01*
X0351043Y0047040D01*
X0351020Y0047088D01*
X0351002Y0047137D01*
X0350986Y0047187D01*
X0350975Y0047238D01*
X0350967Y0047290D01*
X0350963Y0047343D01*
X0350963Y0047395D01*
X0350967Y0047448D01*
X0350975Y0047500D01*
X0350986Y0047551D01*
X0351002Y0047601D01*
X0351020Y0047650D01*
X0351043Y0047698D01*
X0351068Y0047744D01*
X0351097Y0047787D01*
X0351129Y0047829D01*
X0351164Y0047868D01*
X0351202Y0047904D01*
X0351243Y0047938D01*
X0351285Y0047969D01*
X0351330Y0047996D01*
X0351377Y0048020D01*
X0351425Y0048041D01*
X0351475Y0048058D01*
X0351526Y0048071D01*
X0351577Y0048080D01*
X0351630Y0048086D01*
X0351682Y0048088D01*
X0351682Y0048089D02*
X0352607Y0048089D01*
X0354341Y0049117D02*
X0355369Y0049117D01*
X0355417Y0049115D01*
X0355466Y0049109D01*
X0355513Y0049100D01*
X0355560Y0049087D01*
X0355605Y0049070D01*
X0355649Y0049050D01*
X0355691Y0049026D01*
X0355732Y0048999D01*
X0355770Y0048969D01*
X0355805Y0048936D01*
X0355838Y0048901D01*
X0355868Y0048863D01*
X0355895Y0048822D01*
X0355919Y0048780D01*
X0355939Y0048736D01*
X0355956Y0048691D01*
X0355969Y0048644D01*
X0355978Y0048597D01*
X0355984Y0048548D01*
X0355986Y0048500D01*
X0355985Y0048500D02*
X0355985Y0046650D01*
X0354341Y0046650D02*
X0354341Y0050350D01*
X0353201Y0051650D02*
X0353201Y0054117D01*
X0354435Y0054117D01*
X0354435Y0053706D01*
X0355581Y0053294D02*
X0355581Y0052472D01*
X0355583Y0052416D01*
X0355589Y0052360D01*
X0355598Y0052305D01*
X0355611Y0052250D01*
X0355628Y0052197D01*
X0355649Y0052145D01*
X0355673Y0052094D01*
X0355701Y0052045D01*
X0355731Y0051998D01*
X0355765Y0051953D01*
X0355802Y0051911D01*
X0355842Y0051871D01*
X0355884Y0051834D01*
X0355929Y0051800D01*
X0355976Y0051770D01*
X0356025Y0051742D01*
X0356076Y0051718D01*
X0356128Y0051697D01*
X0356181Y0051680D01*
X0356236Y0051667D01*
X0356291Y0051658D01*
X0356347Y0051652D01*
X0356403Y0051650D01*
X0356459Y0051652D01*
X0356515Y0051658D01*
X0356570Y0051667D01*
X0356625Y0051680D01*
X0356678Y0051697D01*
X0356730Y0051718D01*
X0356781Y0051742D01*
X0356830Y0051770D01*
X0356877Y0051800D01*
X0356922Y0051834D01*
X0356964Y0051871D01*
X0357004Y0051911D01*
X0357041Y0051953D01*
X0357075Y0051998D01*
X0357105Y0052045D01*
X0357133Y0052094D01*
X0357157Y0052145D01*
X0357178Y0052197D01*
X0357195Y0052250D01*
X0357208Y0052305D01*
X0357217Y0052360D01*
X0357223Y0052416D01*
X0357225Y0052472D01*
X0357225Y0053294D01*
X0357223Y0053350D01*
X0357217Y0053406D01*
X0357208Y0053461D01*
X0357195Y0053516D01*
X0357178Y0053569D01*
X0357157Y0053621D01*
X0357133Y0053672D01*
X0357105Y0053721D01*
X0357075Y0053768D01*
X0357041Y0053813D01*
X0357004Y0053855D01*
X0356964Y0053895D01*
X0356922Y0053932D01*
X0356877Y0053966D01*
X0356830Y0053996D01*
X0356781Y0054024D01*
X0356730Y0054048D01*
X0356678Y0054069D01*
X0356625Y0054086D01*
X0356570Y0054099D01*
X0356515Y0054108D01*
X0356459Y0054114D01*
X0356403Y0054116D01*
X0356347Y0054114D01*
X0356291Y0054108D01*
X0356236Y0054099D01*
X0356181Y0054086D01*
X0356128Y0054069D01*
X0356076Y0054048D01*
X0356025Y0054024D01*
X0355976Y0053996D01*
X0355929Y0053966D01*
X0355884Y0053932D01*
X0355842Y0053895D01*
X0355802Y0053855D01*
X0355765Y0053813D01*
X0355731Y0053768D01*
X0355701Y0053721D01*
X0355673Y0053672D01*
X0355649Y0053621D01*
X0355628Y0053569D01*
X0355611Y0053516D01*
X0355598Y0053461D01*
X0355589Y0053406D01*
X0355583Y0053350D01*
X0355581Y0053294D01*
X0359009Y0053089D02*
X0360037Y0052678D01*
X0360078Y0052659D01*
X0360117Y0052638D01*
X0360154Y0052613D01*
X0360189Y0052585D01*
X0360222Y0052554D01*
X0360252Y0052520D01*
X0360278Y0052485D01*
X0360302Y0052447D01*
X0360323Y0052407D01*
X0360340Y0052365D01*
X0360353Y0052323D01*
X0360363Y0052279D01*
X0360369Y0052235D01*
X0360372Y0052190D01*
X0360371Y0052145D01*
X0360366Y0052101D01*
X0360357Y0052057D01*
X0360344Y0052014D01*
X0360328Y0051972D01*
X0360309Y0051931D01*
X0360286Y0051893D01*
X0360260Y0051856D01*
X0360231Y0051822D01*
X0360199Y0051790D01*
X0360165Y0051761D01*
X0360129Y0051736D01*
X0360090Y0051713D01*
X0360050Y0051693D01*
X0360008Y0051677D01*
X0359965Y0051665D01*
X0359921Y0051656D01*
X0359876Y0051651D01*
X0359831Y0051650D01*
X0360139Y0053911D02*
X0360051Y0053949D01*
X0359962Y0053982D01*
X0359872Y0054012D01*
X0359780Y0054039D01*
X0359687Y0054061D01*
X0359594Y0054080D01*
X0359500Y0054095D01*
X0359405Y0054106D01*
X0359310Y0054113D01*
X0359214Y0054117D01*
X0359215Y0054117D02*
X0359170Y0054116D01*
X0359125Y0054111D01*
X0359081Y0054102D01*
X0359038Y0054090D01*
X0358996Y0054074D01*
X0358956Y0054054D01*
X0358917Y0054031D01*
X0358881Y0054006D01*
X0358847Y0053977D01*
X0358815Y0053945D01*
X0358786Y0053911D01*
X0358760Y0053874D01*
X0358737Y0053836D01*
X0358718Y0053795D01*
X0358702Y0053753D01*
X0358689Y0053710D01*
X0358680Y0053666D01*
X0358675Y0053622D01*
X0358674Y0053577D01*
X0358677Y0053532D01*
X0358683Y0053488D01*
X0358693Y0053444D01*
X0358706Y0053402D01*
X0358723Y0053360D01*
X0358744Y0053320D01*
X0358768Y0053282D01*
X0358794Y0053247D01*
X0358824Y0053213D01*
X0358857Y0053182D01*
X0358892Y0053154D01*
X0358929Y0053129D01*
X0358968Y0053108D01*
X0359009Y0053089D01*
X0358701Y0051855D02*
X0358810Y0051818D01*
X0358920Y0051784D01*
X0359032Y0051754D01*
X0359144Y0051728D01*
X0359257Y0051705D01*
X0359371Y0051686D01*
X0359486Y0051671D01*
X0359601Y0051660D01*
X0359716Y0051653D01*
X0359831Y0051649D01*
X0360770Y0049117D02*
X0361386Y0046650D01*
X0362003Y0048294D01*
X0362620Y0046650D01*
X0363236Y0049117D01*
X0364848Y0049117D02*
X0365671Y0049117D01*
X0365719Y0049115D01*
X0365768Y0049109D01*
X0365815Y0049100D01*
X0365862Y0049087D01*
X0365907Y0049070D01*
X0365951Y0049050D01*
X0365993Y0049026D01*
X0366034Y0048999D01*
X0366072Y0048969D01*
X0366107Y0048936D01*
X0366140Y0048901D01*
X0366170Y0048863D01*
X0366197Y0048822D01*
X0366221Y0048780D01*
X0366241Y0048736D01*
X0366258Y0048691D01*
X0366271Y0048644D01*
X0366280Y0048597D01*
X0366286Y0048548D01*
X0366288Y0048500D01*
X0366287Y0048500D02*
X0366287Y0046650D01*
X0365362Y0046650D01*
X0365310Y0046652D01*
X0365257Y0046658D01*
X0365206Y0046667D01*
X0365155Y0046680D01*
X0365105Y0046697D01*
X0365057Y0046718D01*
X0365010Y0046742D01*
X0364965Y0046769D01*
X0364923Y0046800D01*
X0364882Y0046834D01*
X0364844Y0046870D01*
X0364809Y0046909D01*
X0364777Y0046951D01*
X0364748Y0046994D01*
X0364723Y0047040D01*
X0364700Y0047088D01*
X0364682Y0047137D01*
X0364666Y0047187D01*
X0364655Y0047238D01*
X0364647Y0047290D01*
X0364643Y0047343D01*
X0364643Y0047395D01*
X0364647Y0047448D01*
X0364655Y0047500D01*
X0364666Y0047551D01*
X0364682Y0047601D01*
X0364700Y0047650D01*
X0364723Y0047698D01*
X0364748Y0047744D01*
X0364777Y0047787D01*
X0364809Y0047829D01*
X0364844Y0047868D01*
X0364882Y0047904D01*
X0364923Y0047938D01*
X0364965Y0047969D01*
X0365010Y0047996D01*
X0365057Y0048020D01*
X0365105Y0048041D01*
X0365155Y0048058D01*
X0365206Y0048071D01*
X0365257Y0048080D01*
X0365310Y0048086D01*
X0365362Y0048088D01*
X0365362Y0048089D02*
X0366287Y0048089D01*
X0367598Y0049117D02*
X0368832Y0049117D01*
X0369878Y0049117D02*
X0371111Y0049117D01*
X0370289Y0050350D02*
X0370289Y0047267D01*
X0370291Y0047219D01*
X0370297Y0047170D01*
X0370306Y0047123D01*
X0370319Y0047076D01*
X0370336Y0047031D01*
X0370356Y0046987D01*
X0370380Y0046945D01*
X0370407Y0046904D01*
X0370437Y0046866D01*
X0370470Y0046831D01*
X0370505Y0046798D01*
X0370543Y0046768D01*
X0370584Y0046741D01*
X0370626Y0046717D01*
X0370670Y0046697D01*
X0370715Y0046680D01*
X0370762Y0046667D01*
X0370809Y0046658D01*
X0370858Y0046652D01*
X0370906Y0046650D01*
X0371111Y0046650D01*
X0373162Y0046650D02*
X0374087Y0046650D01*
X0374087Y0048500D01*
X0374087Y0048089D02*
X0373162Y0048089D01*
X0374088Y0048500D02*
X0374086Y0048548D01*
X0374080Y0048597D01*
X0374071Y0048644D01*
X0374058Y0048691D01*
X0374041Y0048736D01*
X0374021Y0048780D01*
X0373997Y0048822D01*
X0373970Y0048863D01*
X0373940Y0048901D01*
X0373907Y0048936D01*
X0373872Y0048969D01*
X0373834Y0048999D01*
X0373793Y0049026D01*
X0373751Y0049050D01*
X0373707Y0049070D01*
X0373662Y0049087D01*
X0373615Y0049100D01*
X0373568Y0049109D01*
X0373519Y0049115D01*
X0373471Y0049117D01*
X0372648Y0049117D01*
X0373162Y0048088D02*
X0373110Y0048086D01*
X0373057Y0048080D01*
X0373006Y0048071D01*
X0372955Y0048058D01*
X0372905Y0048041D01*
X0372857Y0048020D01*
X0372810Y0047996D01*
X0372765Y0047969D01*
X0372723Y0047938D01*
X0372682Y0047904D01*
X0372644Y0047868D01*
X0372609Y0047829D01*
X0372577Y0047787D01*
X0372548Y0047744D01*
X0372523Y0047698D01*
X0372500Y0047650D01*
X0372482Y0047601D01*
X0372466Y0047551D01*
X0372455Y0047500D01*
X0372447Y0047448D01*
X0372443Y0047395D01*
X0372443Y0047343D01*
X0372447Y0047290D01*
X0372455Y0047238D01*
X0372466Y0047187D01*
X0372482Y0047137D01*
X0372500Y0047088D01*
X0372523Y0047040D01*
X0372548Y0046994D01*
X0372577Y0046951D01*
X0372609Y0046909D01*
X0372644Y0046870D01*
X0372682Y0046834D01*
X0372723Y0046800D01*
X0372765Y0046769D01*
X0372810Y0046742D01*
X0372857Y0046718D01*
X0372905Y0046697D01*
X0372955Y0046680D01*
X0373006Y0046667D01*
X0373057Y0046658D01*
X0373110Y0046652D01*
X0373162Y0046650D01*
X0368832Y0046650D02*
X0368626Y0046650D01*
X0368578Y0046652D01*
X0368529Y0046658D01*
X0368482Y0046667D01*
X0368435Y0046680D01*
X0368390Y0046697D01*
X0368346Y0046717D01*
X0368304Y0046741D01*
X0368263Y0046768D01*
X0368225Y0046798D01*
X0368190Y0046831D01*
X0368157Y0046866D01*
X0368127Y0046904D01*
X0368100Y0046945D01*
X0368076Y0046987D01*
X0368056Y0047031D01*
X0368039Y0047076D01*
X0368026Y0047123D01*
X0368017Y0047170D01*
X0368011Y0047219D01*
X0368009Y0047267D01*
X0368009Y0050350D01*
X0359207Y0048500D02*
X0359207Y0046650D01*
X0358282Y0046650D01*
X0358230Y0046652D01*
X0358177Y0046658D01*
X0358126Y0046667D01*
X0358075Y0046680D01*
X0358025Y0046697D01*
X0357977Y0046718D01*
X0357930Y0046742D01*
X0357885Y0046769D01*
X0357843Y0046800D01*
X0357802Y0046834D01*
X0357764Y0046870D01*
X0357729Y0046909D01*
X0357697Y0046951D01*
X0357668Y0046994D01*
X0357643Y0047040D01*
X0357620Y0047088D01*
X0357602Y0047137D01*
X0357586Y0047187D01*
X0357575Y0047238D01*
X0357567Y0047290D01*
X0357563Y0047343D01*
X0357563Y0047395D01*
X0357567Y0047448D01*
X0357575Y0047500D01*
X0357586Y0047551D01*
X0357602Y0047601D01*
X0357620Y0047650D01*
X0357643Y0047698D01*
X0357668Y0047744D01*
X0357697Y0047787D01*
X0357729Y0047829D01*
X0357764Y0047868D01*
X0357802Y0047904D01*
X0357843Y0047938D01*
X0357885Y0047969D01*
X0357930Y0047996D01*
X0357977Y0048020D01*
X0358025Y0048041D01*
X0358075Y0048058D01*
X0358126Y0048071D01*
X0358177Y0048080D01*
X0358230Y0048086D01*
X0358282Y0048088D01*
X0358282Y0048089D02*
X0359207Y0048089D01*
X0359208Y0048500D02*
X0359206Y0048548D01*
X0359200Y0048597D01*
X0359191Y0048644D01*
X0359178Y0048691D01*
X0359161Y0048736D01*
X0359141Y0048780D01*
X0359117Y0048822D01*
X0359090Y0048863D01*
X0359060Y0048901D01*
X0359027Y0048936D01*
X0358992Y0048969D01*
X0358954Y0048999D01*
X0358913Y0049026D01*
X0358871Y0049050D01*
X0358827Y0049070D01*
X0358782Y0049087D01*
X0358735Y0049100D01*
X0358688Y0049109D01*
X0358639Y0049115D01*
X0358591Y0049117D01*
X0357768Y0049117D01*
X0351585Y0051650D02*
X0350558Y0051650D01*
X0350510Y0051652D01*
X0350461Y0051658D01*
X0350414Y0051667D01*
X0350367Y0051680D01*
X0350322Y0051697D01*
X0350278Y0051717D01*
X0350236Y0051741D01*
X0350195Y0051768D01*
X0350157Y0051798D01*
X0350122Y0051831D01*
X0350089Y0051866D01*
X0350059Y0051904D01*
X0350032Y0051945D01*
X0350008Y0051987D01*
X0349988Y0052031D01*
X0349971Y0052076D01*
X0349958Y0052123D01*
X0349949Y0052170D01*
X0349943Y0052219D01*
X0349941Y0052267D01*
X0349941Y0053294D01*
X0349941Y0052883D02*
X0351585Y0052883D01*
X0351585Y0053294D01*
X0351583Y0053350D01*
X0351577Y0053406D01*
X0351568Y0053461D01*
X0351555Y0053516D01*
X0351538Y0053569D01*
X0351517Y0053621D01*
X0351493Y0053672D01*
X0351465Y0053721D01*
X0351435Y0053768D01*
X0351401Y0053813D01*
X0351364Y0053855D01*
X0351324Y0053895D01*
X0351282Y0053932D01*
X0351237Y0053966D01*
X0351190Y0053996D01*
X0351141Y0054024D01*
X0351090Y0054048D01*
X0351038Y0054069D01*
X0350985Y0054086D01*
X0350930Y0054099D01*
X0350875Y0054108D01*
X0350819Y0054114D01*
X0350763Y0054116D01*
X0350707Y0054114D01*
X0350651Y0054108D01*
X0350596Y0054099D01*
X0350541Y0054086D01*
X0350488Y0054069D01*
X0350436Y0054048D01*
X0350385Y0054024D01*
X0350336Y0053996D01*
X0350289Y0053966D01*
X0350244Y0053932D01*
X0350202Y0053895D01*
X0350162Y0053855D01*
X0350125Y0053813D01*
X0350091Y0053768D01*
X0350061Y0053721D01*
X0350033Y0053672D01*
X0350009Y0053621D01*
X0349988Y0053569D01*
X0349971Y0053516D01*
X0349958Y0053461D01*
X0349949Y0053406D01*
X0349943Y0053350D01*
X0349941Y0053294D01*
X0348627Y0053706D02*
X0346982Y0053706D01*
X0346982Y0055350D02*
X0348627Y0055350D01*
X0346982Y0055350D02*
X0346982Y0051650D01*
X0342860Y0051650D02*
X0343477Y0054117D01*
X0342243Y0053294D02*
X0342860Y0051650D01*
X0341627Y0051650D02*
X0341010Y0054117D01*
X0342243Y0053294D02*
X0341627Y0051650D01*
X0339585Y0051650D02*
X0338558Y0051650D01*
X0338510Y0051652D01*
X0338461Y0051658D01*
X0338414Y0051667D01*
X0338367Y0051680D01*
X0338322Y0051697D01*
X0338278Y0051717D01*
X0338236Y0051741D01*
X0338195Y0051768D01*
X0338157Y0051798D01*
X0338122Y0051831D01*
X0338089Y0051866D01*
X0338059Y0051904D01*
X0338032Y0051945D01*
X0338008Y0051987D01*
X0337988Y0052031D01*
X0337971Y0052076D01*
X0337958Y0052123D01*
X0337949Y0052170D01*
X0337943Y0052219D01*
X0337941Y0052267D01*
X0337941Y0053294D01*
X0337941Y0052883D02*
X0339585Y0052883D01*
X0339585Y0053294D01*
X0339583Y0053350D01*
X0339577Y0053406D01*
X0339568Y0053461D01*
X0339555Y0053516D01*
X0339538Y0053569D01*
X0339517Y0053621D01*
X0339493Y0053672D01*
X0339465Y0053721D01*
X0339435Y0053768D01*
X0339401Y0053813D01*
X0339364Y0053855D01*
X0339324Y0053895D01*
X0339282Y0053932D01*
X0339237Y0053966D01*
X0339190Y0053996D01*
X0339141Y0054024D01*
X0339090Y0054048D01*
X0339038Y0054069D01*
X0338985Y0054086D01*
X0338930Y0054099D01*
X0338875Y0054108D01*
X0338819Y0054114D01*
X0338763Y0054116D01*
X0338707Y0054114D01*
X0338651Y0054108D01*
X0338596Y0054099D01*
X0338541Y0054086D01*
X0338488Y0054069D01*
X0338436Y0054048D01*
X0338385Y0054024D01*
X0338336Y0053996D01*
X0338289Y0053966D01*
X0338244Y0053932D01*
X0338202Y0053895D01*
X0338162Y0053855D01*
X0338125Y0053813D01*
X0338091Y0053768D01*
X0338061Y0053721D01*
X0338033Y0053672D01*
X0338009Y0053621D01*
X0337988Y0053569D01*
X0337971Y0053516D01*
X0337958Y0053461D01*
X0337949Y0053406D01*
X0337943Y0053350D01*
X0337941Y0053294D01*
X0336345Y0053500D02*
X0336345Y0051650D01*
X0334701Y0051650D02*
X0334701Y0055350D01*
X0334701Y0054117D02*
X0335729Y0054117D01*
X0335777Y0054115D01*
X0335826Y0054109D01*
X0335873Y0054100D01*
X0335920Y0054087D01*
X0335965Y0054070D01*
X0336009Y0054050D01*
X0336051Y0054026D01*
X0336092Y0053999D01*
X0336130Y0053969D01*
X0336165Y0053936D01*
X0336198Y0053901D01*
X0336228Y0053863D01*
X0336255Y0053822D01*
X0336279Y0053780D01*
X0336299Y0053736D01*
X0336316Y0053691D01*
X0336329Y0053644D01*
X0336338Y0053597D01*
X0336344Y0053548D01*
X0336346Y0053500D01*
X0333232Y0054117D02*
X0331998Y0054117D01*
X0330952Y0054117D02*
X0329718Y0054117D01*
X0330130Y0055350D02*
X0330130Y0052267D01*
X0330129Y0052267D02*
X0330131Y0052219D01*
X0330137Y0052170D01*
X0330146Y0052123D01*
X0330159Y0052076D01*
X0330176Y0052031D01*
X0330196Y0051987D01*
X0330220Y0051945D01*
X0330247Y0051904D01*
X0330277Y0051866D01*
X0330310Y0051831D01*
X0330345Y0051798D01*
X0330383Y0051768D01*
X0330424Y0051741D01*
X0330466Y0051717D01*
X0330510Y0051697D01*
X0330555Y0051680D01*
X0330602Y0051667D01*
X0330649Y0051658D01*
X0330698Y0051652D01*
X0330746Y0051650D01*
X0330952Y0051650D01*
X0332410Y0052267D02*
X0332410Y0055350D01*
X0332409Y0052267D02*
X0332411Y0052219D01*
X0332417Y0052170D01*
X0332426Y0052123D01*
X0332439Y0052076D01*
X0332456Y0052031D01*
X0332476Y0051987D01*
X0332500Y0051945D01*
X0332527Y0051904D01*
X0332557Y0051866D01*
X0332590Y0051831D01*
X0332625Y0051798D01*
X0332663Y0051768D01*
X0332704Y0051741D01*
X0332746Y0051717D01*
X0332790Y0051697D01*
X0332835Y0051680D01*
X0332882Y0051667D01*
X0332929Y0051658D01*
X0332978Y0051652D01*
X0333026Y0051650D01*
X0333232Y0051650D01*
X0337480Y0050350D02*
X0337686Y0050350D01*
X0337686Y0050144D01*
X0337480Y0050144D01*
X0337480Y0050350D01*
X0324117Y0046650D02*
X0322883Y0050350D01*
X0321650Y0046650D01*
X0321958Y0047575D02*
X0323808Y0047575D01*
X0322650Y0051650D02*
X0322650Y0055350D01*
D15*
X0302248Y0074768D02*
X0302248Y0028232D01*
X0264846Y0028232D01*
X0264846Y0074768D01*
X0302248Y0074768D01*
X0294374Y0074768D02*
X0294374Y0028232D01*
X0248154Y0066028D02*
X0210752Y0066028D01*
X0210752Y0096972D01*
X0248154Y0096972D01*
X0248154Y0066028D01*
X0218626Y0066028D02*
X0218626Y0096972D01*
X0195555Y0096539D02*
X0127445Y0096539D01*
X0127445Y0126461D01*
X0195555Y0126461D01*
X0195555Y0096539D01*
X0211445Y0114539D02*
X0211445Y0144461D01*
X0279555Y0144461D01*
X0279555Y0114539D01*
X0211445Y0114539D01*
X0291028Y0110752D02*
X0291028Y0148154D01*
X0321972Y0148154D01*
X0321972Y0110752D01*
X0291028Y0110752D01*
X0291028Y0118626D02*
X0321972Y0118626D01*
X0334846Y0124768D02*
X0334846Y0078232D01*
X0372248Y0078232D01*
X0372248Y0124768D01*
X0334846Y0124768D01*
X0364374Y0124768D02*
X0364374Y0078232D01*
X0141500Y0071500D02*
X0141500Y0031500D01*
X0139000Y0031500D01*
X0139000Y0071500D01*
X0141500Y0071500D01*
X0139000Y0071500D02*
X0124000Y0071500D01*
X0124000Y0031500D01*
X0139000Y0031500D01*
X0071500Y0069000D02*
X0071500Y0074000D01*
X0061815Y0081500D02*
X0061821Y0081983D01*
X0061839Y0082466D01*
X0061868Y0082948D01*
X0061910Y0083429D01*
X0061963Y0083910D01*
X0062028Y0084388D01*
X0062105Y0084865D01*
X0062193Y0085340D01*
X0062293Y0085813D01*
X0062405Y0086283D01*
X0062528Y0086750D01*
X0062663Y0087214D01*
X0062809Y0087675D01*
X0062966Y0088132D01*
X0063134Y0088585D01*
X0063313Y0089033D01*
X0063504Y0089477D01*
X0063705Y0089916D01*
X0063917Y0090351D01*
X0064139Y0090779D01*
X0064372Y0091203D01*
X0064616Y0091620D01*
X0064869Y0092031D01*
X0065133Y0092436D01*
X0065406Y0092835D01*
X0065689Y0093226D01*
X0065981Y0093611D01*
X0066283Y0093988D01*
X0066594Y0094358D01*
X0066914Y0094720D01*
X0067243Y0095074D01*
X0067581Y0095419D01*
X0067926Y0095757D01*
X0068280Y0096086D01*
X0068642Y0096406D01*
X0069012Y0096717D01*
X0069389Y0097019D01*
X0069774Y0097311D01*
X0070165Y0097594D01*
X0070564Y0097867D01*
X0070969Y0098131D01*
X0071380Y0098384D01*
X0071797Y0098628D01*
X0072221Y0098861D01*
X0072649Y0099083D01*
X0073084Y0099295D01*
X0073523Y0099496D01*
X0073967Y0099687D01*
X0074415Y0099866D01*
X0074868Y0100034D01*
X0075325Y0100191D01*
X0075786Y0100337D01*
X0076250Y0100472D01*
X0076717Y0100595D01*
X0077187Y0100707D01*
X0077660Y0100807D01*
X0078135Y0100895D01*
X0078612Y0100972D01*
X0079090Y0101037D01*
X0079571Y0101090D01*
X0080052Y0101132D01*
X0080534Y0101161D01*
X0081017Y0101179D01*
X0081500Y0101185D01*
X0081983Y0101179D01*
X0082466Y0101161D01*
X0082948Y0101132D01*
X0083429Y0101090D01*
X0083910Y0101037D01*
X0084388Y0100972D01*
X0084865Y0100895D01*
X0085340Y0100807D01*
X0085813Y0100707D01*
X0086283Y0100595D01*
X0086750Y0100472D01*
X0087214Y0100337D01*
X0087675Y0100191D01*
X0088132Y0100034D01*
X0088585Y0099866D01*
X0089033Y0099687D01*
X0089477Y0099496D01*
X0089916Y0099295D01*
X0090351Y0099083D01*
X0090779Y0098861D01*
X0091203Y0098628D01*
X0091620Y0098384D01*
X0092031Y0098131D01*
X0092436Y0097867D01*
X0092835Y0097594D01*
X0093226Y0097311D01*
X0093611Y0097019D01*
X0093988Y0096717D01*
X0094358Y0096406D01*
X0094720Y0096086D01*
X0095074Y0095757D01*
X0095419Y0095419D01*
X0095757Y0095074D01*
X0096086Y0094720D01*
X0096406Y0094358D01*
X0096717Y0093988D01*
X0097019Y0093611D01*
X0097311Y0093226D01*
X0097594Y0092835D01*
X0097867Y0092436D01*
X0098131Y0092031D01*
X0098384Y0091620D01*
X0098628Y0091203D01*
X0098861Y0090779D01*
X0099083Y0090351D01*
X0099295Y0089916D01*
X0099496Y0089477D01*
X0099687Y0089033D01*
X0099866Y0088585D01*
X0100034Y0088132D01*
X0100191Y0087675D01*
X0100337Y0087214D01*
X0100472Y0086750D01*
X0100595Y0086283D01*
X0100707Y0085813D01*
X0100807Y0085340D01*
X0100895Y0084865D01*
X0100972Y0084388D01*
X0101037Y0083910D01*
X0101090Y0083429D01*
X0101132Y0082948D01*
X0101161Y0082466D01*
X0101179Y0081983D01*
X0101185Y0081500D01*
X0101179Y0081017D01*
X0101161Y0080534D01*
X0101132Y0080052D01*
X0101090Y0079571D01*
X0101037Y0079090D01*
X0100972Y0078612D01*
X0100895Y0078135D01*
X0100807Y0077660D01*
X0100707Y0077187D01*
X0100595Y0076717D01*
X0100472Y0076250D01*
X0100337Y0075786D01*
X0100191Y0075325D01*
X0100034Y0074868D01*
X0099866Y0074415D01*
X0099687Y0073967D01*
X0099496Y0073523D01*
X0099295Y0073084D01*
X0099083Y0072649D01*
X0098861Y0072221D01*
X0098628Y0071797D01*
X0098384Y0071380D01*
X0098131Y0070969D01*
X0097867Y0070564D01*
X0097594Y0070165D01*
X0097311Y0069774D01*
X0097019Y0069389D01*
X0096717Y0069012D01*
X0096406Y0068642D01*
X0096086Y0068280D01*
X0095757Y0067926D01*
X0095419Y0067581D01*
X0095074Y0067243D01*
X0094720Y0066914D01*
X0094358Y0066594D01*
X0093988Y0066283D01*
X0093611Y0065981D01*
X0093226Y0065689D01*
X0092835Y0065406D01*
X0092436Y0065133D01*
X0092031Y0064869D01*
X0091620Y0064616D01*
X0091203Y0064372D01*
X0090779Y0064139D01*
X0090351Y0063917D01*
X0089916Y0063705D01*
X0089477Y0063504D01*
X0089033Y0063313D01*
X0088585Y0063134D01*
X0088132Y0062966D01*
X0087675Y0062809D01*
X0087214Y0062663D01*
X0086750Y0062528D01*
X0086283Y0062405D01*
X0085813Y0062293D01*
X0085340Y0062193D01*
X0084865Y0062105D01*
X0084388Y0062028D01*
X0083910Y0061963D01*
X0083429Y0061910D01*
X0082948Y0061868D01*
X0082466Y0061839D01*
X0081983Y0061821D01*
X0081500Y0061815D01*
X0081017Y0061821D01*
X0080534Y0061839D01*
X0080052Y0061868D01*
X0079571Y0061910D01*
X0079090Y0061963D01*
X0078612Y0062028D01*
X0078135Y0062105D01*
X0077660Y0062193D01*
X0077187Y0062293D01*
X0076717Y0062405D01*
X0076250Y0062528D01*
X0075786Y0062663D01*
X0075325Y0062809D01*
X0074868Y0062966D01*
X0074415Y0063134D01*
X0073967Y0063313D01*
X0073523Y0063504D01*
X0073084Y0063705D01*
X0072649Y0063917D01*
X0072221Y0064139D01*
X0071797Y0064372D01*
X0071380Y0064616D01*
X0070969Y0064869D01*
X0070564Y0065133D01*
X0070165Y0065406D01*
X0069774Y0065689D01*
X0069389Y0065981D01*
X0069012Y0066283D01*
X0068642Y0066594D01*
X0068280Y0066914D01*
X0067926Y0067243D01*
X0067581Y0067581D01*
X0067243Y0067926D01*
X0066914Y0068280D01*
X0066594Y0068642D01*
X0066283Y0069012D01*
X0065981Y0069389D01*
X0065689Y0069774D01*
X0065406Y0070165D01*
X0065133Y0070564D01*
X0064869Y0070969D01*
X0064616Y0071380D01*
X0064372Y0071797D01*
X0064139Y0072221D01*
X0063917Y0072649D01*
X0063705Y0073084D01*
X0063504Y0073523D01*
X0063313Y0073967D01*
X0063134Y0074415D01*
X0062966Y0074868D01*
X0062809Y0075325D01*
X0062663Y0075786D01*
X0062528Y0076250D01*
X0062405Y0076717D01*
X0062293Y0077187D01*
X0062193Y0077660D01*
X0062105Y0078135D01*
X0062028Y0078612D01*
X0061963Y0079090D01*
X0061910Y0079571D01*
X0061868Y0080052D01*
X0061839Y0080534D01*
X0061821Y0081017D01*
X0061815Y0081500D01*
X0071500Y0089000D02*
X0071500Y0094000D01*
X0069000Y0091500D02*
X0074000Y0091500D01*
X0076763Y0103400D02*
X0078540Y0103400D01*
X0077652Y0103400D02*
X0077652Y0106600D01*
X0076763Y0105889D01*
X0076398Y0108900D02*
X0074620Y0108900D01*
X0075509Y0108900D02*
X0075509Y0112100D01*
X0074620Y0111389D01*
X0073024Y0112100D02*
X0072313Y0112100D01*
X0072260Y0112098D01*
X0072207Y0112092D01*
X0072155Y0112082D01*
X0072103Y0112068D01*
X0072053Y0112051D01*
X0072005Y0112030D01*
X0071957Y0112005D01*
X0071912Y0111976D01*
X0071870Y0111945D01*
X0071829Y0111910D01*
X0071792Y0111873D01*
X0071757Y0111832D01*
X0071726Y0111790D01*
X0071697Y0111744D01*
X0071672Y0111697D01*
X0071651Y0111649D01*
X0071634Y0111599D01*
X0071620Y0111547D01*
X0071610Y0111495D01*
X0071604Y0111442D01*
X0071602Y0111389D01*
X0071602Y0109611D01*
X0071604Y0109560D01*
X0071609Y0109510D01*
X0071618Y0109460D01*
X0071631Y0109411D01*
X0071647Y0109363D01*
X0071666Y0109316D01*
X0071689Y0109270D01*
X0071715Y0109227D01*
X0071744Y0109185D01*
X0071776Y0109145D01*
X0071810Y0109108D01*
X0071847Y0109074D01*
X0071887Y0109042D01*
X0071929Y0109013D01*
X0071972Y0108987D01*
X0072018Y0108964D01*
X0072065Y0108945D01*
X0072113Y0108929D01*
X0072162Y0108916D01*
X0072212Y0108907D01*
X0072262Y0108902D01*
X0072313Y0108900D01*
X0073024Y0108900D01*
X0080545Y0105533D02*
X0080545Y0103400D01*
X0081612Y0103400D02*
X0081612Y0105533D01*
X0082145Y0105533D02*
X0080545Y0105533D01*
X0082145Y0105533D02*
X0082189Y0105531D01*
X0082233Y0105526D01*
X0082276Y0105517D01*
X0082318Y0105504D01*
X0082359Y0105488D01*
X0082399Y0105469D01*
X0082437Y0105446D01*
X0082472Y0105421D01*
X0082506Y0105392D01*
X0082537Y0105361D01*
X0082566Y0105327D01*
X0082591Y0105292D01*
X0082614Y0105254D01*
X0082633Y0105214D01*
X0082649Y0105173D01*
X0082662Y0105131D01*
X0082671Y0105088D01*
X0082676Y0105044D01*
X0082678Y0105000D01*
X0082678Y0103400D01*
X0084815Y0103400D02*
X0084815Y0106600D01*
X0086237Y0106600D01*
X0086237Y0105178D02*
X0084815Y0105178D01*
X0052248Y0091028D02*
X0014846Y0091028D01*
X0014846Y0121972D01*
X0052248Y0121972D01*
X0052248Y0091028D01*
X0044374Y0091028D02*
X0044374Y0121972D01*
D16*
X0184000Y0072800D02*
X0186500Y0072800D01*
X0189000Y0072800D01*
X0189000Y0070300D02*
X0186500Y0070300D01*
X0184000Y0070300D01*
X0184000Y0032700D02*
X0186500Y0032700D01*
X0189000Y0032700D01*
X0189000Y0030200D02*
X0186500Y0030200D01*
X0184000Y0030200D01*
D17*
X0109550Y0110750D02*
X0106050Y0110750D01*
X0107800Y0110750D02*
X0107800Y0117050D01*
X0106050Y0115650D01*
X0103191Y0115300D02*
X0103191Y0112500D01*
X0103189Y0112419D01*
X0103184Y0112339D01*
X0103174Y0112258D01*
X0103161Y0112178D01*
X0103145Y0112099D01*
X0103124Y0112021D01*
X0103100Y0111944D01*
X0103073Y0111868D01*
X0103042Y0111793D01*
X0103008Y0111720D01*
X0102970Y0111648D01*
X0102929Y0111579D01*
X0102885Y0111511D01*
X0102838Y0111445D01*
X0102787Y0111382D01*
X0102734Y0111321D01*
X0102678Y0111263D01*
X0102620Y0111207D01*
X0102559Y0111154D01*
X0102496Y0111103D01*
X0102430Y0111056D01*
X0102362Y0111012D01*
X0102293Y0110971D01*
X0102221Y0110933D01*
X0102148Y0110899D01*
X0102073Y0110868D01*
X0101997Y0110841D01*
X0101920Y0110817D01*
X0101842Y0110796D01*
X0101763Y0110780D01*
X0101683Y0110767D01*
X0101602Y0110757D01*
X0101522Y0110752D01*
X0101441Y0110750D01*
X0099691Y0110750D01*
X0099691Y0117050D01*
X0101441Y0117050D01*
X0101522Y0117048D01*
X0101602Y0117043D01*
X0101683Y0117033D01*
X0101763Y0117020D01*
X0101842Y0117004D01*
X0101920Y0116983D01*
X0101997Y0116959D01*
X0102073Y0116932D01*
X0102148Y0116901D01*
X0102221Y0116867D01*
X0102293Y0116829D01*
X0102362Y0116788D01*
X0102430Y0116744D01*
X0102496Y0116697D01*
X0102559Y0116646D01*
X0102620Y0116593D01*
X0102678Y0116537D01*
X0102734Y0116479D01*
X0102787Y0116418D01*
X0102838Y0116355D01*
X0102885Y0116289D01*
X0102929Y0116221D01*
X0102970Y0116152D01*
X0103008Y0116080D01*
X0103042Y0116007D01*
X0103073Y0115932D01*
X0103100Y0115856D01*
X0103124Y0115779D01*
X0103145Y0115701D01*
X0103161Y0115622D01*
X0103174Y0115542D01*
X0103184Y0115461D01*
X0103189Y0115381D01*
X0103191Y0115300D01*
D18*
X0104000Y0136500D03*
D19*
X0112500Y0136500D03*
X0070500Y0136500D03*
M02*
