G75*
%MOIN*%
%OFA0B0*%
%FSLAX25Y25*%
%IPPOS*%
%LPD*%
%AMOC8*
5,1,8,0,0,1.08239X$1,22.5*
%
%ADD10C,0.12611*%
%ADD11C,0.08400*%
%ADD12R,0.08400X0.08400*%
%ADD13OC8,0.07100*%
%ADD14C,0.09650*%
%ADD15OC8,0.06800*%
%ADD16R,0.10800X0.10800*%
%ADD17C,0.10800*%
%ADD18C,0.15300*%
%ADD19C,0.09400*%
%ADD20R,0.08200X0.08200*%
%ADD21C,0.08200*%
D10*
X0031500Y0031500D03*
X0031500Y0146500D03*
X0361500Y0146500D03*
X0361500Y0031500D03*
D11*
X0081500Y0071657D03*
D12*
X0081500Y0091343D03*
D13*
X0186500Y0081500D03*
X0186500Y0061500D03*
X0186500Y0041500D03*
X0186500Y0021500D03*
D14*
X0125925Y0136500D02*
X0117075Y0136500D01*
X0065925Y0136500D02*
X0057075Y0136500D01*
D15*
X0064000Y0046500D03*
X0074000Y0046500D03*
X0084000Y0046500D03*
X0094000Y0046500D03*
X0104000Y0046500D03*
X0114000Y0046500D03*
X0114000Y0036500D03*
X0104000Y0036500D03*
X0094000Y0036500D03*
X0084000Y0036500D03*
X0074000Y0036500D03*
X0064000Y0036500D03*
D16*
X0036500Y0114295D03*
X0226500Y0073705D03*
X0286500Y0067091D03*
X0356500Y0117091D03*
X0314295Y0126500D03*
D17*
X0298705Y0126500D03*
X0356500Y0101500D03*
X0356500Y0085909D03*
X0286500Y0051500D03*
X0286500Y0035909D03*
X0226500Y0089295D03*
X0036500Y0098705D03*
D18*
X0161500Y0111500D03*
X0245500Y0129500D03*
D19*
X0230500Y0136311D03*
X0260500Y0122689D03*
X0176500Y0104689D03*
X0146500Y0118311D03*
D20*
X0131500Y0061500D03*
D21*
X0131500Y0051500D03*
X0131500Y0041500D03*
M02*
