G75*
%MOIN*%
%OFA0B0*%
%FSLAX25Y25*%
%IPPOS*%
%LPD*%
%AMOC8*
5,1,8,0,0,1.08239X$1,22.5*
%
%ADD10C,0.07600*%
%ADD11R,0.07600X0.07600*%
%ADD12OC8,0.06300*%
%ADD13C,0.08850*%
%ADD14OC8,0.06000*%
%ADD15R,0.10000X0.10000*%
%ADD16C,0.10000*%
%ADD17C,0.08600*%
%ADD18R,0.07400X0.07400*%
%ADD19C,0.07400*%
%ADD20C,0.01000*%
D10*
X0081500Y0071657D03*
D11*
X0081500Y0091343D03*
D12*
X0186500Y0081500D03*
X0186500Y0061500D03*
X0186500Y0041500D03*
X0186500Y0021500D03*
D13*
X0125925Y0136500D02*
X0117075Y0136500D01*
X0065925Y0136500D02*
X0057075Y0136500D01*
D14*
X0064000Y0046500D03*
X0074000Y0046500D03*
X0084000Y0046500D03*
X0094000Y0046500D03*
X0104000Y0046500D03*
X0114000Y0046500D03*
X0114000Y0036500D03*
X0104000Y0036500D03*
X0094000Y0036500D03*
X0084000Y0036500D03*
X0074000Y0036500D03*
X0064000Y0036500D03*
D15*
X0036500Y0114295D03*
X0226500Y0073705D03*
X0286500Y0067091D03*
X0356500Y0117091D03*
X0314295Y0126500D03*
D16*
X0298705Y0126500D03*
X0356500Y0101500D03*
X0356500Y0085909D03*
X0286500Y0051500D03*
X0286500Y0035909D03*
X0226500Y0089295D03*
X0036500Y0098705D03*
D17*
X0146500Y0118311D03*
X0176500Y0104689D03*
X0230500Y0136311D03*
X0260500Y0122689D03*
D18*
X0131500Y0061500D03*
D19*
X0131500Y0051500D03*
X0131500Y0041500D03*
D20*
X0018860Y0017511D02*
X0017511Y0018860D01*
X0016557Y0020513D01*
X0016063Y0022357D01*
X0016000Y0023311D01*
X0016000Y0156539D01*
X0016063Y0157494D01*
X0016557Y0159337D01*
X0017511Y0160990D01*
X0018860Y0162340D01*
X0020513Y0163294D01*
X0022357Y0163788D01*
X0023311Y0163850D01*
X0373390Y0163850D01*
X0374344Y0163788D01*
X0376188Y0163294D01*
X0377840Y0162340D01*
X0379190Y0160990D01*
X0380144Y0159337D01*
X0380638Y0157494D01*
X0380701Y0156539D01*
X0380701Y0023311D01*
X0380638Y0022357D01*
X0380144Y0020513D01*
X0379190Y0018860D01*
X0377840Y0017511D01*
X0376188Y0016557D01*
X0374344Y0016063D01*
X0373390Y0016000D01*
X0372495Y0016000D01*
X0023311Y0016000D01*
X0022357Y0016063D01*
X0020513Y0016556D01*
X0020513Y0016557D01*
X0018860Y0017511D01*
X0018895Y0017491D02*
X0183933Y0017491D01*
X0184574Y0016850D02*
X0181850Y0019574D01*
X0181850Y0021200D01*
X0186200Y0021200D01*
X0186200Y0021800D01*
X0186200Y0026150D01*
X0184574Y0026150D01*
X0181850Y0023426D01*
X0181850Y0021800D01*
X0186200Y0021800D01*
X0186800Y0021800D01*
X0186800Y0026150D01*
X0188426Y0026150D01*
X0191150Y0023426D01*
X0191150Y0021800D01*
X0186800Y0021800D01*
X0186800Y0021200D01*
X0191150Y0021200D01*
X0191150Y0019574D01*
X0188426Y0016850D01*
X0186800Y0016850D01*
X0186800Y0021200D01*
X0186200Y0021200D01*
X0186200Y0016850D01*
X0184574Y0016850D01*
X0186200Y0017491D02*
X0186800Y0017491D01*
X0186800Y0018490D02*
X0186200Y0018490D01*
X0186200Y0019488D02*
X0186800Y0019488D01*
X0186800Y0020487D02*
X0186200Y0020487D01*
X0186200Y0021485D02*
X0034328Y0021485D01*
X0035516Y0021804D02*
X0037889Y0023174D01*
X0039826Y0025111D01*
X0041196Y0027484D01*
X0041905Y0030130D01*
X0041905Y0032870D01*
X0041196Y0035516D01*
X0039826Y0037889D01*
X0037889Y0039826D01*
X0035516Y0041196D01*
X0032870Y0041905D01*
X0030130Y0041905D01*
X0027484Y0041196D01*
X0025111Y0039826D01*
X0023174Y0037889D01*
X0021804Y0035516D01*
X0021094Y0032870D01*
X0021094Y0030130D01*
X0021804Y0027484D01*
X0023174Y0025111D01*
X0025111Y0023174D01*
X0027484Y0021804D01*
X0030130Y0021094D01*
X0032870Y0021094D01*
X0035516Y0021804D01*
X0036694Y0022484D02*
X0181850Y0022484D01*
X0181906Y0023482D02*
X0038198Y0023482D01*
X0039196Y0024481D02*
X0182905Y0024481D01*
X0183903Y0025479D02*
X0040039Y0025479D01*
X0040616Y0026478D02*
X0352384Y0026478D01*
X0351808Y0027476D02*
X0041192Y0027476D01*
X0041462Y0028475D02*
X0351538Y0028475D01*
X0351804Y0027484D02*
X0353174Y0025111D01*
X0355111Y0023174D01*
X0357484Y0021804D01*
X0360130Y0021094D01*
X0362870Y0021094D01*
X0365516Y0021804D01*
X0367889Y0023174D01*
X0369826Y0025111D01*
X0371196Y0027484D01*
X0371905Y0030130D01*
X0371905Y0032870D01*
X0371196Y0035516D01*
X0369826Y0037889D01*
X0367889Y0039826D01*
X0365516Y0041196D01*
X0362870Y0041905D01*
X0360130Y0041905D01*
X0357484Y0041196D01*
X0355111Y0039826D01*
X0353174Y0037889D01*
X0351804Y0035516D01*
X0351094Y0032870D01*
X0351094Y0030130D01*
X0351804Y0027484D01*
X0351270Y0029473D02*
X0289515Y0029473D01*
X0290522Y0029890D02*
X0292519Y0031888D01*
X0293600Y0034497D01*
X0293600Y0037322D01*
X0292519Y0039931D01*
X0290522Y0041929D01*
X0287912Y0043009D01*
X0285088Y0043009D01*
X0282478Y0041929D01*
X0280481Y0039931D01*
X0279400Y0037322D01*
X0279400Y0034497D01*
X0280481Y0031888D01*
X0282478Y0029890D01*
X0285088Y0028809D01*
X0287912Y0028809D01*
X0290522Y0029890D01*
X0291103Y0030472D02*
X0351094Y0030472D01*
X0351094Y0031470D02*
X0292102Y0031470D01*
X0292760Y0032469D02*
X0351094Y0032469D01*
X0351255Y0033467D02*
X0293173Y0033467D01*
X0293587Y0034466D02*
X0351522Y0034466D01*
X0351790Y0035464D02*
X0293600Y0035464D01*
X0293600Y0036463D02*
X0352350Y0036463D01*
X0352927Y0037461D02*
X0293542Y0037461D01*
X0293129Y0038460D02*
X0353744Y0038460D01*
X0354743Y0039458D02*
X0292715Y0039458D01*
X0291994Y0040457D02*
X0356203Y0040457D01*
X0358450Y0041455D02*
X0290995Y0041455D01*
X0289254Y0042454D02*
X0380701Y0042454D01*
X0380701Y0043452D02*
X0191750Y0043452D01*
X0191750Y0043675D02*
X0188675Y0046750D01*
X0184325Y0046750D01*
X0181250Y0043675D01*
X0181250Y0039325D01*
X0184325Y0036250D01*
X0188675Y0036250D01*
X0191750Y0039325D01*
X0191750Y0043675D01*
X0190974Y0044451D02*
X0380701Y0044451D01*
X0380701Y0045449D02*
X0288878Y0045449D01*
X0288594Y0045332D02*
X0289381Y0045658D01*
X0290119Y0046084D01*
X0290795Y0046603D01*
X0291397Y0047205D01*
X0291916Y0047881D01*
X0292342Y0048619D01*
X0292668Y0049406D01*
X0292889Y0050229D01*
X0292990Y0051000D01*
X0287000Y0051000D01*
X0287000Y0052000D01*
X0286000Y0052000D01*
X0286000Y0057990D01*
X0285229Y0057889D01*
X0284406Y0057668D01*
X0283619Y0057342D01*
X0282881Y0056916D01*
X0282205Y0056397D01*
X0281603Y0055795D01*
X0281084Y0055119D01*
X0280658Y0054381D01*
X0280332Y0053594D01*
X0280111Y0052771D01*
X0280010Y0052000D01*
X0286000Y0052000D01*
X0286000Y0051000D01*
X0280010Y0051000D01*
X0280111Y0050229D01*
X0280332Y0049406D01*
X0280658Y0048619D01*
X0281084Y0047881D01*
X0281603Y0047205D01*
X0282205Y0046603D01*
X0282881Y0046084D01*
X0283619Y0045658D01*
X0284406Y0045332D01*
X0285229Y0045111D01*
X0286000Y0045010D01*
X0286000Y0051000D01*
X0287000Y0051000D01*
X0287000Y0045010D01*
X0287771Y0045111D01*
X0288594Y0045332D01*
X0287000Y0045449D02*
X0286000Y0045449D01*
X0286000Y0046448D02*
X0287000Y0046448D01*
X0287000Y0047446D02*
X0286000Y0047446D01*
X0286000Y0048445D02*
X0287000Y0048445D01*
X0287000Y0049443D02*
X0286000Y0049443D01*
X0286000Y0050442D02*
X0287000Y0050442D01*
X0287000Y0051440D02*
X0380701Y0051440D01*
X0380701Y0050442D02*
X0292917Y0050442D01*
X0292678Y0049443D02*
X0380701Y0049443D01*
X0380701Y0048445D02*
X0292242Y0048445D01*
X0291583Y0047446D02*
X0380701Y0047446D01*
X0380701Y0046448D02*
X0290593Y0046448D01*
X0284122Y0045449D02*
X0189975Y0045449D01*
X0188977Y0046448D02*
X0282407Y0046448D01*
X0281417Y0047446D02*
X0134767Y0047446D01*
X0134888Y0047534D02*
X0135466Y0048112D01*
X0135947Y0048775D01*
X0136319Y0049504D01*
X0136572Y0050282D01*
X0136688Y0051016D01*
X0131984Y0051016D01*
X0131984Y0051984D01*
X0136688Y0051984D01*
X0136572Y0052718D01*
X0136319Y0053496D01*
X0135947Y0054225D01*
X0135466Y0054888D01*
X0134888Y0055466D01*
X0134566Y0055700D01*
X0136070Y0055700D01*
X0137300Y0056930D01*
X0137300Y0066070D01*
X0136070Y0067300D01*
X0126930Y0067300D01*
X0125700Y0066070D01*
X0125700Y0056930D01*
X0126930Y0055700D01*
X0128434Y0055700D01*
X0128112Y0055466D01*
X0127534Y0054888D01*
X0127053Y0054225D01*
X0126681Y0053496D01*
X0126428Y0052718D01*
X0126312Y0051984D01*
X0131016Y0051984D01*
X0131016Y0051016D01*
X0126312Y0051016D01*
X0126428Y0050282D01*
X0126681Y0049504D01*
X0127053Y0048775D01*
X0127534Y0048112D01*
X0128112Y0047534D01*
X0128775Y0047053D01*
X0129212Y0046830D01*
X0128215Y0046417D01*
X0126583Y0044785D01*
X0125700Y0042654D01*
X0125700Y0040346D01*
X0126583Y0038215D01*
X0128215Y0036583D01*
X0130346Y0035700D01*
X0132654Y0035700D01*
X0134785Y0036583D01*
X0136417Y0038215D01*
X0137300Y0040346D01*
X0137300Y0042654D01*
X0136417Y0044785D01*
X0134785Y0046417D01*
X0133788Y0046830D01*
X0134225Y0047053D01*
X0134888Y0047534D01*
X0134711Y0046448D02*
X0184023Y0046448D01*
X0183025Y0045449D02*
X0135753Y0045449D01*
X0136556Y0044451D02*
X0182026Y0044451D01*
X0181250Y0043452D02*
X0136969Y0043452D01*
X0137300Y0042454D02*
X0181250Y0042454D01*
X0181250Y0041455D02*
X0137300Y0041455D01*
X0137300Y0040457D02*
X0181250Y0040457D01*
X0181250Y0039458D02*
X0136932Y0039458D01*
X0136519Y0038460D02*
X0182116Y0038460D01*
X0183114Y0037461D02*
X0135664Y0037461D01*
X0134495Y0036463D02*
X0184113Y0036463D01*
X0188887Y0036463D02*
X0279400Y0036463D01*
X0279400Y0035464D02*
X0118500Y0035464D01*
X0118500Y0036000D02*
X0118500Y0034636D01*
X0115864Y0032000D01*
X0114500Y0032000D01*
X0114500Y0036000D01*
X0114500Y0037000D01*
X0118500Y0037000D01*
X0118500Y0038364D01*
X0115864Y0041000D01*
X0114500Y0041000D01*
X0114500Y0037000D01*
X0113500Y0037000D01*
X0113500Y0041000D01*
X0112136Y0041000D01*
X0109500Y0038364D01*
X0109500Y0037000D01*
X0113500Y0037000D01*
X0113500Y0036000D01*
X0114500Y0036000D01*
X0118500Y0036000D01*
X0118500Y0037461D02*
X0127336Y0037461D01*
X0126481Y0038460D02*
X0118404Y0038460D01*
X0117406Y0039458D02*
X0126068Y0039458D01*
X0125700Y0040457D02*
X0116407Y0040457D01*
X0116112Y0041400D02*
X0119100Y0044388D01*
X0119100Y0048612D01*
X0116112Y0051600D01*
X0111888Y0051600D01*
X0109000Y0048712D01*
X0106112Y0051600D01*
X0101888Y0051600D01*
X0099000Y0048712D01*
X0096112Y0051600D01*
X0091888Y0051600D01*
X0089000Y0048712D01*
X0086112Y0051600D01*
X0081888Y0051600D01*
X0079000Y0048712D01*
X0076112Y0051600D01*
X0071888Y0051600D01*
X0069000Y0048712D01*
X0066112Y0051600D01*
X0061888Y0051600D01*
X0058900Y0048612D01*
X0058900Y0044388D01*
X0061888Y0041400D01*
X0066112Y0041400D01*
X0069000Y0044288D01*
X0071888Y0041400D01*
X0076112Y0041400D01*
X0079000Y0044288D01*
X0081888Y0041400D01*
X0086112Y0041400D01*
X0089000Y0044288D01*
X0091888Y0041400D01*
X0096112Y0041400D01*
X0099000Y0044288D01*
X0101888Y0041400D01*
X0106112Y0041400D01*
X0109000Y0044288D01*
X0111888Y0041400D01*
X0116112Y0041400D01*
X0116168Y0041455D02*
X0125700Y0041455D01*
X0125700Y0042454D02*
X0117166Y0042454D01*
X0118165Y0043452D02*
X0126031Y0043452D01*
X0126444Y0044451D02*
X0119100Y0044451D01*
X0119100Y0045449D02*
X0127247Y0045449D01*
X0128289Y0046448D02*
X0119100Y0046448D01*
X0119100Y0047446D02*
X0128233Y0047446D01*
X0127292Y0048445D02*
X0119100Y0048445D01*
X0118269Y0049443D02*
X0126712Y0049443D01*
X0126403Y0050442D02*
X0117271Y0050442D01*
X0116272Y0051440D02*
X0131016Y0051440D01*
X0131984Y0051440D02*
X0286000Y0051440D01*
X0286000Y0052439D02*
X0287000Y0052439D01*
X0287000Y0052000D02*
X0287000Y0057990D01*
X0287771Y0057889D01*
X0288594Y0057668D01*
X0289381Y0057342D01*
X0290119Y0056916D01*
X0290795Y0056397D01*
X0291397Y0055795D01*
X0291916Y0055119D01*
X0292342Y0054381D01*
X0292668Y0053594D01*
X0292889Y0052771D01*
X0292990Y0052000D01*
X0287000Y0052000D01*
X0287000Y0053437D02*
X0286000Y0053437D01*
X0286000Y0054436D02*
X0287000Y0054436D01*
X0287000Y0055434D02*
X0286000Y0055434D01*
X0286000Y0056433D02*
X0287000Y0056433D01*
X0287000Y0057432D02*
X0286000Y0057432D01*
X0283835Y0057432D02*
X0189856Y0057432D01*
X0190855Y0058430D02*
X0380701Y0058430D01*
X0380701Y0057432D02*
X0289165Y0057432D01*
X0290749Y0056433D02*
X0380701Y0056433D01*
X0380701Y0055434D02*
X0291674Y0055434D01*
X0292310Y0054436D02*
X0380701Y0054436D01*
X0380701Y0053437D02*
X0292710Y0053437D01*
X0292932Y0052439D02*
X0380701Y0052439D01*
X0380701Y0059429D02*
X0191750Y0059429D01*
X0191750Y0059325D02*
X0188675Y0056250D01*
X0184325Y0056250D01*
X0181250Y0059325D01*
X0181250Y0063675D01*
X0184325Y0066750D01*
X0188675Y0066750D01*
X0191750Y0063675D01*
X0191750Y0059325D01*
X0191750Y0060427D02*
X0280194Y0060427D01*
X0280630Y0059991D02*
X0279400Y0061221D01*
X0279400Y0072960D01*
X0280630Y0074191D01*
X0292370Y0074191D01*
X0293600Y0072960D01*
X0293600Y0061221D01*
X0292370Y0059991D01*
X0280630Y0059991D01*
X0279400Y0061426D02*
X0191750Y0061426D01*
X0191750Y0062424D02*
X0279400Y0062424D01*
X0279400Y0063423D02*
X0191750Y0063423D01*
X0191003Y0064421D02*
X0279400Y0064421D01*
X0279400Y0065420D02*
X0190005Y0065420D01*
X0189006Y0066418D02*
X0279400Y0066418D01*
X0279400Y0067417D02*
X0233182Y0067417D01*
X0233600Y0067835D02*
X0233600Y0079575D01*
X0232370Y0080805D01*
X0220630Y0080805D01*
X0219400Y0079575D01*
X0219400Y0067835D01*
X0220630Y0066605D01*
X0232370Y0066605D01*
X0233600Y0067835D01*
X0233600Y0068415D02*
X0279400Y0068415D01*
X0279400Y0069414D02*
X0233600Y0069414D01*
X0233600Y0070412D02*
X0279400Y0070412D01*
X0279400Y0071411D02*
X0233600Y0071411D01*
X0233600Y0072409D02*
X0279400Y0072409D01*
X0279847Y0073408D02*
X0233600Y0073408D01*
X0233600Y0074406D02*
X0380701Y0074406D01*
X0380701Y0073408D02*
X0293153Y0073408D01*
X0293600Y0072409D02*
X0380701Y0072409D01*
X0380701Y0071411D02*
X0293600Y0071411D01*
X0293600Y0070412D02*
X0380701Y0070412D01*
X0380701Y0069414D02*
X0293600Y0069414D01*
X0293600Y0068415D02*
X0380701Y0068415D01*
X0380701Y0067417D02*
X0293600Y0067417D01*
X0293600Y0066418D02*
X0380701Y0066418D01*
X0380701Y0065420D02*
X0293600Y0065420D01*
X0293600Y0064421D02*
X0380701Y0064421D01*
X0380701Y0063423D02*
X0293600Y0063423D01*
X0293600Y0062424D02*
X0380701Y0062424D01*
X0380701Y0061426D02*
X0293600Y0061426D01*
X0292806Y0060427D02*
X0380701Y0060427D01*
X0380701Y0075405D02*
X0233600Y0075405D01*
X0233600Y0076403D02*
X0380701Y0076403D01*
X0380701Y0077402D02*
X0233600Y0077402D01*
X0233600Y0078400D02*
X0380701Y0078400D01*
X0380701Y0079399D02*
X0359335Y0079399D01*
X0360522Y0079890D02*
X0357912Y0078809D01*
X0355088Y0078809D01*
X0352478Y0079890D01*
X0350481Y0081888D01*
X0349400Y0084497D01*
X0349400Y0087322D01*
X0350481Y0089931D01*
X0352478Y0091929D01*
X0355088Y0093009D01*
X0357912Y0093009D01*
X0360522Y0091929D01*
X0362519Y0089931D01*
X0363600Y0087322D01*
X0363600Y0084497D01*
X0362519Y0081888D01*
X0360522Y0079890D01*
X0361029Y0080397D02*
X0380701Y0080397D01*
X0380701Y0081396D02*
X0362027Y0081396D01*
X0362729Y0082394D02*
X0380701Y0082394D01*
X0380701Y0083393D02*
X0363143Y0083393D01*
X0363556Y0084391D02*
X0380701Y0084391D01*
X0380701Y0085390D02*
X0363600Y0085390D01*
X0363600Y0086388D02*
X0380701Y0086388D01*
X0380701Y0087387D02*
X0363573Y0087387D01*
X0363159Y0088385D02*
X0380701Y0088385D01*
X0380701Y0089384D02*
X0362746Y0089384D01*
X0362068Y0090382D02*
X0380701Y0090382D01*
X0380701Y0091381D02*
X0361069Y0091381D01*
X0359433Y0092379D02*
X0380701Y0092379D01*
X0380701Y0093378D02*
X0232458Y0093378D01*
X0232519Y0093317D02*
X0230522Y0095314D01*
X0227912Y0096395D01*
X0225088Y0096395D01*
X0222478Y0095314D01*
X0220481Y0093317D01*
X0219400Y0090708D01*
X0219400Y0087883D01*
X0220481Y0085273D01*
X0222478Y0083276D01*
X0225088Y0082195D01*
X0227912Y0082195D01*
X0230522Y0083276D01*
X0232519Y0085273D01*
X0233600Y0087883D01*
X0233600Y0090708D01*
X0232519Y0093317D01*
X0232907Y0092379D02*
X0353567Y0092379D01*
X0351931Y0091381D02*
X0233321Y0091381D01*
X0233600Y0090382D02*
X0350932Y0090382D01*
X0350254Y0089384D02*
X0233600Y0089384D01*
X0233600Y0088385D02*
X0349841Y0088385D01*
X0349427Y0087387D02*
X0233394Y0087387D01*
X0232981Y0086388D02*
X0349400Y0086388D01*
X0349400Y0085390D02*
X0232567Y0085390D01*
X0231637Y0084391D02*
X0349444Y0084391D01*
X0349857Y0083393D02*
X0230638Y0083393D01*
X0228393Y0082394D02*
X0350271Y0082394D01*
X0350973Y0081396D02*
X0186800Y0081396D01*
X0186800Y0081200D02*
X0186800Y0081800D01*
X0186200Y0081800D01*
X0186200Y0086150D01*
X0184574Y0086150D01*
X0181850Y0083426D01*
X0181850Y0081800D01*
X0186200Y0081800D01*
X0186200Y0081200D01*
X0181850Y0081200D01*
X0181850Y0079574D01*
X0184574Y0076850D01*
X0186200Y0076850D01*
X0186200Y0081200D01*
X0186800Y0081200D01*
X0191150Y0081200D01*
X0191150Y0079574D01*
X0188426Y0076850D01*
X0186800Y0076850D01*
X0186800Y0081200D01*
X0186800Y0081800D02*
X0191150Y0081800D01*
X0191150Y0083426D01*
X0188426Y0086150D01*
X0186800Y0086150D01*
X0186800Y0081800D01*
X0186800Y0082394D02*
X0186200Y0082394D01*
X0186200Y0081396D02*
X0016000Y0081396D01*
X0016000Y0082394D02*
X0181850Y0082394D01*
X0181850Y0083393D02*
X0016000Y0083393D01*
X0016000Y0084391D02*
X0182815Y0084391D01*
X0183814Y0085390D02*
X0016000Y0085390D01*
X0016000Y0086388D02*
X0075884Y0086388D01*
X0075600Y0086673D02*
X0076830Y0085443D01*
X0086170Y0085443D01*
X0087400Y0086673D01*
X0087400Y0096012D01*
X0086170Y0097243D01*
X0076830Y0097243D01*
X0075600Y0096012D01*
X0075600Y0086673D01*
X0075600Y0087387D02*
X0016000Y0087387D01*
X0016000Y0088385D02*
X0075600Y0088385D01*
X0075600Y0089384D02*
X0016000Y0089384D01*
X0016000Y0090382D02*
X0075600Y0090382D01*
X0075600Y0091381D02*
X0016000Y0091381D01*
X0016000Y0092379D02*
X0034992Y0092379D01*
X0035229Y0092316D02*
X0034406Y0092536D01*
X0033619Y0092863D01*
X0032881Y0093289D01*
X0032205Y0093807D01*
X0031603Y0094410D01*
X0031084Y0095086D01*
X0030658Y0095824D01*
X0030332Y0096611D01*
X0030111Y0097434D01*
X0030010Y0098205D01*
X0036000Y0098205D01*
X0036000Y0099205D01*
X0036000Y0105195D01*
X0035229Y0105093D01*
X0034406Y0104873D01*
X0033619Y0104547D01*
X0032881Y0104121D01*
X0032205Y0103602D01*
X0031603Y0103000D01*
X0031084Y0102324D01*
X0030658Y0101586D01*
X0030332Y0100799D01*
X0030111Y0099976D01*
X0030010Y0099205D01*
X0036000Y0099205D01*
X0037000Y0099205D01*
X0037000Y0105195D01*
X0037771Y0105093D01*
X0038594Y0104873D01*
X0039381Y0104547D01*
X0040119Y0104121D01*
X0040795Y0103602D01*
X0041397Y0103000D01*
X0041916Y0102324D01*
X0042342Y0101586D01*
X0042668Y0100799D01*
X0042889Y0099976D01*
X0042990Y0099205D01*
X0037000Y0099205D01*
X0037000Y0098205D01*
X0042990Y0098205D01*
X0042889Y0097434D01*
X0042668Y0096611D01*
X0042342Y0095824D01*
X0041916Y0095086D01*
X0041397Y0094410D01*
X0040795Y0093807D01*
X0040119Y0093289D01*
X0039381Y0092863D01*
X0038594Y0092536D01*
X0037771Y0092316D01*
X0037000Y0092214D01*
X0037000Y0098205D01*
X0036000Y0098205D01*
X0036000Y0092214D01*
X0035229Y0092316D01*
X0036000Y0092379D02*
X0037000Y0092379D01*
X0037000Y0093378D02*
X0036000Y0093378D01*
X0036000Y0094376D02*
X0037000Y0094376D01*
X0037000Y0095375D02*
X0036000Y0095375D01*
X0036000Y0096373D02*
X0037000Y0096373D01*
X0037000Y0097372D02*
X0036000Y0097372D01*
X0036000Y0098370D02*
X0016000Y0098370D01*
X0016000Y0097372D02*
X0030128Y0097372D01*
X0030430Y0096373D02*
X0016000Y0096373D01*
X0016000Y0095375D02*
X0030917Y0095375D01*
X0031636Y0094376D02*
X0016000Y0094376D01*
X0016000Y0093378D02*
X0032765Y0093378D01*
X0038008Y0092379D02*
X0075600Y0092379D01*
X0075600Y0093378D02*
X0040235Y0093378D01*
X0041364Y0094376D02*
X0075600Y0094376D01*
X0075600Y0095375D02*
X0042083Y0095375D01*
X0042570Y0096373D02*
X0075961Y0096373D01*
X0087039Y0096373D02*
X0225035Y0096373D01*
X0222624Y0095375D02*
X0087400Y0095375D01*
X0087400Y0094376D02*
X0221540Y0094376D01*
X0220542Y0093378D02*
X0087400Y0093378D01*
X0087400Y0092379D02*
X0220093Y0092379D01*
X0219679Y0091381D02*
X0087400Y0091381D01*
X0087400Y0090382D02*
X0219400Y0090382D01*
X0219400Y0089384D02*
X0087400Y0089384D01*
X0087400Y0088385D02*
X0219400Y0088385D01*
X0219605Y0087387D02*
X0087400Y0087387D01*
X0087116Y0086388D02*
X0220019Y0086388D01*
X0220433Y0085390D02*
X0189186Y0085390D01*
X0190185Y0084391D02*
X0221363Y0084391D01*
X0222362Y0083393D02*
X0191150Y0083393D01*
X0191150Y0082394D02*
X0224607Y0082394D01*
X0220223Y0080397D02*
X0191150Y0080397D01*
X0190975Y0079399D02*
X0219400Y0079399D01*
X0219400Y0078400D02*
X0189976Y0078400D01*
X0188978Y0077402D02*
X0219400Y0077402D01*
X0219400Y0076403D02*
X0083860Y0076403D01*
X0083534Y0076569D02*
X0084278Y0076190D01*
X0084953Y0075700D01*
X0085543Y0075110D01*
X0086033Y0074435D01*
X0086412Y0073692D01*
X0086669Y0072899D01*
X0086800Y0072075D01*
X0086800Y0072043D01*
X0081886Y0072043D01*
X0081886Y0071272D01*
X0086800Y0071272D01*
X0086800Y0071240D01*
X0086669Y0070416D01*
X0086412Y0069623D01*
X0086033Y0068880D01*
X0085543Y0068205D01*
X0084953Y0067615D01*
X0084278Y0067125D01*
X0083534Y0066746D01*
X0082741Y0066488D01*
X0081917Y0066357D01*
X0081886Y0066357D01*
X0081886Y0071272D01*
X0081114Y0071272D01*
X0076200Y0071272D01*
X0076200Y0071240D01*
X0076330Y0070416D01*
X0076588Y0069623D01*
X0076967Y0068880D01*
X0077457Y0068205D01*
X0078047Y0067615D01*
X0078722Y0067125D01*
X0079466Y0066746D01*
X0080259Y0066488D01*
X0081083Y0066357D01*
X0081114Y0066357D01*
X0081114Y0071272D01*
X0081114Y0072043D01*
X0076200Y0072043D01*
X0076200Y0072075D01*
X0076330Y0072899D01*
X0076588Y0073692D01*
X0076967Y0074435D01*
X0077457Y0075110D01*
X0078047Y0075700D01*
X0078722Y0076190D01*
X0079466Y0076569D01*
X0080259Y0076827D01*
X0081083Y0076957D01*
X0081114Y0076957D01*
X0081114Y0072043D01*
X0081886Y0072043D01*
X0081886Y0076957D01*
X0081917Y0076957D01*
X0082741Y0076827D01*
X0083534Y0076569D01*
X0081886Y0076403D02*
X0081114Y0076403D01*
X0081114Y0075405D02*
X0081886Y0075405D01*
X0081886Y0074406D02*
X0081114Y0074406D01*
X0081114Y0073408D02*
X0081886Y0073408D01*
X0081886Y0072409D02*
X0081114Y0072409D01*
X0081114Y0071411D02*
X0016000Y0071411D01*
X0016000Y0072409D02*
X0076253Y0072409D01*
X0076496Y0073408D02*
X0016000Y0073408D01*
X0016000Y0074406D02*
X0076952Y0074406D01*
X0077752Y0075405D02*
X0016000Y0075405D01*
X0016000Y0076403D02*
X0079140Y0076403D01*
X0081886Y0071411D02*
X0219400Y0071411D01*
X0219400Y0072409D02*
X0086747Y0072409D01*
X0086504Y0073408D02*
X0219400Y0073408D01*
X0219400Y0074406D02*
X0086048Y0074406D01*
X0085248Y0075405D02*
X0219400Y0075405D01*
X0219400Y0070412D02*
X0086668Y0070412D01*
X0086305Y0069414D02*
X0219400Y0069414D01*
X0219400Y0068415D02*
X0085695Y0068415D01*
X0084680Y0067417D02*
X0219818Y0067417D01*
X0233600Y0079399D02*
X0353665Y0079399D01*
X0351971Y0080397D02*
X0232777Y0080397D01*
X0231460Y0094376D02*
X0380701Y0094376D01*
X0380701Y0095375D02*
X0358698Y0095375D01*
X0358594Y0095332D02*
X0359381Y0095658D01*
X0360119Y0096084D01*
X0360795Y0096603D01*
X0361397Y0097205D01*
X0361916Y0097881D01*
X0362342Y0098619D01*
X0362668Y0099406D01*
X0362889Y0100229D01*
X0362990Y0101000D01*
X0357000Y0101000D01*
X0357000Y0102000D01*
X0356000Y0102000D01*
X0356000Y0107990D01*
X0355229Y0107889D01*
X0354406Y0107668D01*
X0353619Y0107342D01*
X0352881Y0106916D01*
X0352205Y0106397D01*
X0351603Y0105795D01*
X0351084Y0105119D01*
X0350658Y0104381D01*
X0350332Y0103594D01*
X0350111Y0102771D01*
X0350010Y0102000D01*
X0356000Y0102000D01*
X0356000Y0101000D01*
X0350010Y0101000D01*
X0350111Y0100229D01*
X0350332Y0099406D01*
X0350658Y0098619D01*
X0351084Y0097881D01*
X0351603Y0097205D01*
X0352205Y0096603D01*
X0352881Y0096084D01*
X0353619Y0095658D01*
X0354406Y0095332D01*
X0355229Y0095111D01*
X0356000Y0095010D01*
X0356000Y0101000D01*
X0357000Y0101000D01*
X0357000Y0095010D01*
X0357771Y0095111D01*
X0358594Y0095332D01*
X0357000Y0095375D02*
X0356000Y0095375D01*
X0356000Y0096373D02*
X0357000Y0096373D01*
X0357000Y0097372D02*
X0356000Y0097372D01*
X0356000Y0098370D02*
X0357000Y0098370D01*
X0357000Y0099369D02*
X0356000Y0099369D01*
X0356000Y0100368D02*
X0357000Y0100368D01*
X0357000Y0101366D02*
X0380701Y0101366D01*
X0380701Y0100368D02*
X0362907Y0100368D01*
X0362653Y0099369D02*
X0380701Y0099369D01*
X0380701Y0098370D02*
X0362199Y0098370D01*
X0361526Y0097372D02*
X0380701Y0097372D01*
X0380701Y0096373D02*
X0360496Y0096373D01*
X0362990Y0102000D02*
X0357000Y0102000D01*
X0357000Y0107990D01*
X0357771Y0107889D01*
X0358594Y0107668D01*
X0359381Y0107342D01*
X0360119Y0106916D01*
X0360795Y0106397D01*
X0361397Y0105795D01*
X0361916Y0105119D01*
X0362342Y0104381D01*
X0362668Y0103594D01*
X0362889Y0102771D01*
X0362990Y0102000D01*
X0362942Y0102365D02*
X0380701Y0102365D01*
X0380701Y0103363D02*
X0362730Y0103363D01*
X0362350Y0104362D02*
X0380701Y0104362D01*
X0380701Y0105360D02*
X0361731Y0105360D01*
X0360834Y0106359D02*
X0380701Y0106359D01*
X0380701Y0107357D02*
X0359345Y0107357D01*
X0357000Y0107357D02*
X0356000Y0107357D01*
X0356000Y0106359D02*
X0357000Y0106359D01*
X0357000Y0105360D02*
X0356000Y0105360D01*
X0356000Y0104362D02*
X0357000Y0104362D01*
X0357000Y0103363D02*
X0356000Y0103363D01*
X0356000Y0102365D02*
X0357000Y0102365D01*
X0356000Y0101366D02*
X0182051Y0101366D01*
X0181926Y0101064D02*
X0182900Y0103416D01*
X0182900Y0105962D01*
X0181926Y0108314D01*
X0180125Y0110115D01*
X0177773Y0111089D01*
X0175227Y0111089D01*
X0173250Y0110270D01*
X0173250Y0113047D01*
X0172449Y0116035D01*
X0170902Y0118715D01*
X0168715Y0120902D01*
X0166035Y0122449D01*
X0163047Y0123250D01*
X0159953Y0123250D01*
X0156965Y0122449D01*
X0154285Y0120902D01*
X0152900Y0119517D01*
X0152900Y0119584D01*
X0151926Y0121936D01*
X0150125Y0123737D01*
X0147773Y0124711D01*
X0145227Y0124711D01*
X0142875Y0123737D01*
X0141074Y0121936D01*
X0140100Y0119584D01*
X0140100Y0117038D01*
X0141074Y0114686D01*
X0142875Y0112885D01*
X0145227Y0111911D01*
X0147773Y0111911D01*
X0149750Y0112730D01*
X0149750Y0109953D01*
X0150551Y0106965D01*
X0152098Y0104285D01*
X0154285Y0102098D01*
X0156965Y0100551D01*
X0159953Y0099750D01*
X0163047Y0099750D01*
X0166035Y0100551D01*
X0168715Y0102098D01*
X0170100Y0103483D01*
X0170100Y0103416D01*
X0171074Y0101064D01*
X0172875Y0099263D01*
X0175227Y0098289D01*
X0177773Y0098289D01*
X0180125Y0099263D01*
X0181926Y0101064D01*
X0181230Y0100368D02*
X0350093Y0100368D01*
X0350347Y0099369D02*
X0180231Y0099369D01*
X0177970Y0098370D02*
X0350801Y0098370D01*
X0351474Y0097372D02*
X0042872Y0097372D01*
X0042969Y0099369D02*
X0172769Y0099369D01*
X0171770Y0100368D02*
X0165351Y0100368D01*
X0167447Y0101366D02*
X0170949Y0101366D01*
X0170535Y0102365D02*
X0168982Y0102365D01*
X0169980Y0103363D02*
X0170122Y0103363D01*
X0175030Y0098370D02*
X0037000Y0098370D01*
X0037000Y0099369D02*
X0036000Y0099369D01*
X0036000Y0100368D02*
X0037000Y0100368D01*
X0037000Y0101366D02*
X0036000Y0101366D01*
X0036000Y0102365D02*
X0037000Y0102365D01*
X0037000Y0103363D02*
X0036000Y0103363D01*
X0036000Y0104362D02*
X0037000Y0104362D01*
X0039702Y0104362D02*
X0152054Y0104362D01*
X0151477Y0105360D02*
X0016000Y0105360D01*
X0016000Y0104362D02*
X0033298Y0104362D01*
X0031966Y0103363D02*
X0016000Y0103363D01*
X0016000Y0102365D02*
X0031115Y0102365D01*
X0030567Y0101366D02*
X0016000Y0101366D01*
X0016000Y0100368D02*
X0030216Y0100368D01*
X0030031Y0099369D02*
X0016000Y0099369D01*
X0016000Y0106359D02*
X0150901Y0106359D01*
X0150446Y0107357D02*
X0042532Y0107357D01*
X0042370Y0107195D02*
X0043600Y0108425D01*
X0043600Y0120165D01*
X0042370Y0121395D01*
X0030630Y0121395D01*
X0029400Y0120165D01*
X0029400Y0108425D01*
X0030630Y0107195D01*
X0042370Y0107195D01*
X0043530Y0108356D02*
X0150178Y0108356D01*
X0149910Y0109354D02*
X0043600Y0109354D01*
X0043600Y0110353D02*
X0149750Y0110353D01*
X0149750Y0111351D02*
X0043600Y0111351D01*
X0043600Y0112350D02*
X0144168Y0112350D01*
X0142412Y0113348D02*
X0043600Y0113348D01*
X0043600Y0114347D02*
X0141413Y0114347D01*
X0140801Y0115345D02*
X0043600Y0115345D01*
X0043600Y0116344D02*
X0140388Y0116344D01*
X0140100Y0117342D02*
X0043600Y0117342D01*
X0043600Y0118341D02*
X0140100Y0118341D01*
X0140100Y0119339D02*
X0043600Y0119339D01*
X0043427Y0120338D02*
X0140412Y0120338D01*
X0140826Y0121336D02*
X0042429Y0121336D01*
X0030571Y0121336D02*
X0016000Y0121336D01*
X0016000Y0120338D02*
X0029573Y0120338D01*
X0029400Y0119339D02*
X0016000Y0119339D01*
X0016000Y0118341D02*
X0029400Y0118341D01*
X0029400Y0117342D02*
X0016000Y0117342D01*
X0016000Y0116344D02*
X0029400Y0116344D01*
X0029400Y0115345D02*
X0016000Y0115345D01*
X0016000Y0114347D02*
X0029400Y0114347D01*
X0029400Y0113348D02*
X0016000Y0113348D01*
X0016000Y0112350D02*
X0029400Y0112350D01*
X0029400Y0111351D02*
X0016000Y0111351D01*
X0016000Y0110353D02*
X0029400Y0110353D01*
X0029400Y0109354D02*
X0016000Y0109354D01*
X0016000Y0108356D02*
X0029470Y0108356D01*
X0030468Y0107357D02*
X0016000Y0107357D01*
X0016000Y0122335D02*
X0141473Y0122335D01*
X0142471Y0123333D02*
X0016000Y0123333D01*
X0016000Y0124332D02*
X0144311Y0124332D01*
X0148689Y0124332D02*
X0234916Y0124332D01*
X0234551Y0124965D02*
X0236098Y0122285D01*
X0238285Y0120098D01*
X0240965Y0118551D01*
X0243953Y0117750D01*
X0247047Y0117750D01*
X0250035Y0118551D01*
X0252715Y0120098D01*
X0254100Y0121483D01*
X0254100Y0121416D01*
X0255074Y0119064D01*
X0256875Y0117263D01*
X0259227Y0116289D01*
X0261773Y0116289D01*
X0264125Y0117263D01*
X0265926Y0119064D01*
X0266900Y0121416D01*
X0266900Y0123962D01*
X0265926Y0126314D01*
X0264125Y0128115D01*
X0261773Y0129089D01*
X0259227Y0129089D01*
X0257250Y0128270D01*
X0257250Y0131047D01*
X0256449Y0134035D01*
X0254902Y0136715D01*
X0252715Y0138902D01*
X0250035Y0140449D01*
X0247047Y0141250D01*
X0243953Y0141250D01*
X0240965Y0140449D01*
X0238285Y0138902D01*
X0236900Y0137517D01*
X0236900Y0137584D01*
X0235926Y0139936D01*
X0234125Y0141737D01*
X0231773Y0142711D01*
X0229227Y0142711D01*
X0226875Y0141737D01*
X0225074Y0139936D01*
X0224100Y0137584D01*
X0224100Y0135038D01*
X0225074Y0132686D01*
X0226875Y0130885D01*
X0229227Y0129911D01*
X0231773Y0129911D01*
X0233750Y0130730D01*
X0233750Y0127953D01*
X0234551Y0124965D01*
X0234453Y0125330D02*
X0016000Y0125330D01*
X0016000Y0126329D02*
X0234185Y0126329D01*
X0233918Y0127327D02*
X0016000Y0127327D01*
X0016000Y0128326D02*
X0233750Y0128326D01*
X0233750Y0129324D02*
X0016000Y0129324D01*
X0016000Y0130323D02*
X0054937Y0130323D01*
X0055777Y0129975D02*
X0053379Y0130968D01*
X0051543Y0132804D01*
X0050550Y0135202D01*
X0050550Y0137798D01*
X0051543Y0140196D01*
X0053379Y0142032D01*
X0055777Y0143025D01*
X0067223Y0143025D01*
X0069621Y0142032D01*
X0071457Y0140196D01*
X0072450Y0137798D01*
X0072450Y0135202D01*
X0071457Y0132804D01*
X0069621Y0130968D01*
X0067223Y0129975D01*
X0055777Y0129975D01*
X0053026Y0131321D02*
X0016000Y0131321D01*
X0016000Y0132320D02*
X0052027Y0132320D01*
X0051330Y0133318D02*
X0016000Y0133318D01*
X0016000Y0134317D02*
X0050917Y0134317D01*
X0050550Y0135315D02*
X0016000Y0135315D01*
X0016000Y0136314D02*
X0029311Y0136314D01*
X0030130Y0136094D02*
X0032870Y0136094D01*
X0035516Y0136804D01*
X0037889Y0138174D01*
X0039826Y0140111D01*
X0041196Y0142484D01*
X0041905Y0145130D01*
X0041905Y0147870D01*
X0041196Y0150516D01*
X0039826Y0152889D01*
X0037889Y0154826D01*
X0035516Y0156196D01*
X0032870Y0156905D01*
X0030130Y0156905D01*
X0027484Y0156196D01*
X0025111Y0154826D01*
X0023174Y0152889D01*
X0021804Y0150516D01*
X0021094Y0147870D01*
X0021094Y0145130D01*
X0021804Y0142484D01*
X0023174Y0140111D01*
X0025111Y0138174D01*
X0027484Y0136804D01*
X0030130Y0136094D01*
X0033689Y0136314D02*
X0050550Y0136314D01*
X0050550Y0137312D02*
X0036398Y0137312D01*
X0038027Y0138311D02*
X0050763Y0138311D01*
X0051176Y0139309D02*
X0039025Y0139309D01*
X0039940Y0140308D02*
X0051655Y0140308D01*
X0052654Y0141306D02*
X0040517Y0141306D01*
X0041093Y0142305D02*
X0054039Y0142305D01*
X0041905Y0145301D02*
X0351094Y0145301D01*
X0351094Y0145130D02*
X0351804Y0142484D01*
X0353174Y0140111D01*
X0355111Y0138174D01*
X0357484Y0136804D01*
X0360130Y0136094D01*
X0362870Y0136094D01*
X0365516Y0136804D01*
X0367889Y0138174D01*
X0369826Y0140111D01*
X0371196Y0142484D01*
X0371905Y0145130D01*
X0371905Y0147870D01*
X0371196Y0150516D01*
X0369826Y0152889D01*
X0367889Y0154826D01*
X0365516Y0156196D01*
X0362870Y0156905D01*
X0360130Y0156905D01*
X0357484Y0156196D01*
X0355111Y0154826D01*
X0353174Y0152889D01*
X0351804Y0150516D01*
X0351094Y0147870D01*
X0351094Y0145130D01*
X0351316Y0144302D02*
X0041684Y0144302D01*
X0041416Y0143303D02*
X0351584Y0143303D01*
X0351907Y0142305D02*
X0232753Y0142305D01*
X0234556Y0141306D02*
X0352483Y0141306D01*
X0353060Y0140308D02*
X0250280Y0140308D01*
X0252010Y0139309D02*
X0353975Y0139309D01*
X0354973Y0138311D02*
X0253306Y0138311D01*
X0254305Y0137312D02*
X0356602Y0137312D01*
X0359311Y0136314D02*
X0255134Y0136314D01*
X0255710Y0135315D02*
X0380701Y0135315D01*
X0380701Y0134317D02*
X0256287Y0134317D01*
X0256641Y0133318D02*
X0296613Y0133318D01*
X0297292Y0133600D02*
X0294683Y0132519D01*
X0292686Y0130522D01*
X0291605Y0127912D01*
X0291605Y0125088D01*
X0292686Y0122478D01*
X0294683Y0120481D01*
X0297292Y0119400D01*
X0300117Y0119400D01*
X0302727Y0120481D01*
X0304724Y0122478D01*
X0305805Y0125088D01*
X0305805Y0127912D01*
X0304724Y0130522D01*
X0302727Y0132519D01*
X0300117Y0133600D01*
X0297292Y0133600D01*
X0294484Y0132320D02*
X0256909Y0132320D01*
X0257176Y0131321D02*
X0293485Y0131321D01*
X0292603Y0130323D02*
X0257250Y0130323D01*
X0257250Y0129324D02*
X0292190Y0129324D01*
X0291776Y0128326D02*
X0263615Y0128326D01*
X0264913Y0127327D02*
X0291605Y0127327D01*
X0291605Y0126329D02*
X0265911Y0126329D01*
X0266333Y0125330D02*
X0291605Y0125330D01*
X0291918Y0124332D02*
X0266747Y0124332D01*
X0266900Y0123333D02*
X0292331Y0123333D01*
X0292829Y0122335D02*
X0266900Y0122335D01*
X0266867Y0121336D02*
X0293828Y0121336D01*
X0295029Y0120338D02*
X0266453Y0120338D01*
X0266040Y0119339D02*
X0349400Y0119339D01*
X0349400Y0118341D02*
X0265203Y0118341D01*
X0264204Y0117342D02*
X0349400Y0117342D01*
X0349400Y0116344D02*
X0261905Y0116344D01*
X0259095Y0116344D02*
X0172271Y0116344D01*
X0172634Y0115345D02*
X0349400Y0115345D01*
X0349400Y0114347D02*
X0172902Y0114347D01*
X0173169Y0113348D02*
X0349400Y0113348D01*
X0349400Y0112350D02*
X0173250Y0112350D01*
X0173250Y0111351D02*
X0349400Y0111351D01*
X0349400Y0111221D02*
X0350630Y0109991D01*
X0362370Y0109991D01*
X0363600Y0111221D01*
X0363600Y0122960D01*
X0362370Y0124191D01*
X0350630Y0124191D01*
X0349400Y0122960D01*
X0349400Y0111221D01*
X0350268Y0110353D02*
X0179551Y0110353D01*
X0180886Y0109354D02*
X0380701Y0109354D01*
X0380701Y0108356D02*
X0181884Y0108356D01*
X0182322Y0107357D02*
X0353655Y0107357D01*
X0352166Y0106359D02*
X0182736Y0106359D01*
X0182900Y0105360D02*
X0351269Y0105360D01*
X0350650Y0104362D02*
X0182900Y0104362D01*
X0182878Y0103363D02*
X0350270Y0103363D01*
X0350058Y0102365D02*
X0182464Y0102365D01*
X0173449Y0110353D02*
X0173250Y0110353D01*
X0171695Y0117342D02*
X0256796Y0117342D01*
X0255797Y0118341D02*
X0249251Y0118341D01*
X0251401Y0119339D02*
X0254960Y0119339D01*
X0254547Y0120338D02*
X0252955Y0120338D01*
X0253953Y0121336D02*
X0254133Y0121336D01*
X0257250Y0128326D02*
X0257385Y0128326D01*
X0241748Y0118341D02*
X0171118Y0118341D01*
X0170278Y0119339D02*
X0239599Y0119339D01*
X0238045Y0120338D02*
X0169279Y0120338D01*
X0167963Y0121336D02*
X0237047Y0121336D01*
X0236069Y0122335D02*
X0166234Y0122335D01*
X0156766Y0122335D02*
X0151527Y0122335D01*
X0152174Y0121336D02*
X0155037Y0121336D01*
X0153721Y0120338D02*
X0152588Y0120338D01*
X0150529Y0123333D02*
X0235493Y0123333D01*
X0233750Y0130323D02*
X0232767Y0130323D01*
X0228233Y0130323D02*
X0128063Y0130323D01*
X0127223Y0129975D02*
X0129621Y0130968D01*
X0131457Y0132804D01*
X0132450Y0135202D01*
X0132450Y0137798D01*
X0131457Y0140196D01*
X0129621Y0142032D01*
X0127223Y0143025D01*
X0115777Y0143025D01*
X0113379Y0142032D01*
X0111543Y0140196D01*
X0110550Y0137798D01*
X0110550Y0135202D01*
X0111543Y0132804D01*
X0113379Y0130968D01*
X0115777Y0129975D01*
X0127223Y0129975D01*
X0129974Y0131321D02*
X0226439Y0131321D01*
X0225440Y0132320D02*
X0130973Y0132320D01*
X0131670Y0133318D02*
X0224812Y0133318D01*
X0224399Y0134317D02*
X0132083Y0134317D01*
X0132450Y0135315D02*
X0224100Y0135315D01*
X0224100Y0136314D02*
X0132450Y0136314D01*
X0132450Y0137312D02*
X0224100Y0137312D01*
X0224401Y0138311D02*
X0132237Y0138311D01*
X0131824Y0139309D02*
X0224815Y0139309D01*
X0225446Y0140308D02*
X0131345Y0140308D01*
X0130346Y0141306D02*
X0226444Y0141306D01*
X0228247Y0142305D02*
X0128961Y0142305D01*
X0114039Y0142305D02*
X0068961Y0142305D01*
X0070346Y0141306D02*
X0112654Y0141306D01*
X0111655Y0140308D02*
X0071345Y0140308D01*
X0071824Y0139309D02*
X0111176Y0139309D01*
X0110763Y0138311D02*
X0072237Y0138311D01*
X0072450Y0137312D02*
X0110550Y0137312D01*
X0110550Y0136314D02*
X0072450Y0136314D01*
X0072450Y0135315D02*
X0110550Y0135315D01*
X0110917Y0134317D02*
X0072083Y0134317D01*
X0071670Y0133318D02*
X0111330Y0133318D01*
X0112027Y0132320D02*
X0070973Y0132320D01*
X0069974Y0131321D02*
X0113026Y0131321D01*
X0114937Y0130323D02*
X0068063Y0130323D01*
X0041905Y0146299D02*
X0351094Y0146299D01*
X0351094Y0147298D02*
X0041905Y0147298D01*
X0041791Y0148296D02*
X0351209Y0148296D01*
X0351476Y0149295D02*
X0041524Y0149295D01*
X0041256Y0150293D02*
X0351744Y0150293D01*
X0352251Y0151292D02*
X0040749Y0151292D01*
X0040172Y0152290D02*
X0352828Y0152290D01*
X0353573Y0153289D02*
X0039427Y0153289D01*
X0038428Y0154287D02*
X0354572Y0154287D01*
X0355906Y0155286D02*
X0037094Y0155286D01*
X0035189Y0156284D02*
X0357811Y0156284D01*
X0365189Y0156284D02*
X0380701Y0156284D01*
X0380701Y0155286D02*
X0367094Y0155286D01*
X0368428Y0154287D02*
X0380701Y0154287D01*
X0380701Y0153289D02*
X0369427Y0153289D01*
X0370172Y0152290D02*
X0380701Y0152290D01*
X0380701Y0151292D02*
X0370749Y0151292D01*
X0371256Y0150293D02*
X0380701Y0150293D01*
X0380701Y0149295D02*
X0371524Y0149295D01*
X0371791Y0148296D02*
X0380701Y0148296D01*
X0380701Y0147298D02*
X0371905Y0147298D01*
X0371905Y0146299D02*
X0380701Y0146299D01*
X0380701Y0145301D02*
X0371905Y0145301D01*
X0371684Y0144302D02*
X0380701Y0144302D01*
X0380701Y0143303D02*
X0371416Y0143303D01*
X0371093Y0142305D02*
X0380701Y0142305D01*
X0380701Y0141306D02*
X0370517Y0141306D01*
X0369940Y0140308D02*
X0380701Y0140308D01*
X0380701Y0139309D02*
X0369025Y0139309D01*
X0368027Y0138311D02*
X0380701Y0138311D01*
X0380701Y0137312D02*
X0366398Y0137312D01*
X0363689Y0136314D02*
X0380701Y0136314D01*
X0380701Y0133318D02*
X0320447Y0133318D01*
X0320165Y0133600D02*
X0308425Y0133600D01*
X0307195Y0132370D01*
X0307195Y0120630D01*
X0308425Y0119400D01*
X0320165Y0119400D01*
X0321395Y0120630D01*
X0321395Y0132370D01*
X0320165Y0133600D01*
X0321395Y0132320D02*
X0380701Y0132320D01*
X0380701Y0131321D02*
X0321395Y0131321D01*
X0321395Y0130323D02*
X0380701Y0130323D01*
X0380701Y0129324D02*
X0321395Y0129324D01*
X0321395Y0128326D02*
X0380701Y0128326D01*
X0380701Y0127327D02*
X0321395Y0127327D01*
X0321395Y0126329D02*
X0380701Y0126329D01*
X0380701Y0125330D02*
X0321395Y0125330D01*
X0321395Y0124332D02*
X0380701Y0124332D01*
X0380701Y0123333D02*
X0363227Y0123333D01*
X0363600Y0122335D02*
X0380701Y0122335D01*
X0380701Y0121336D02*
X0363600Y0121336D01*
X0363600Y0120338D02*
X0380701Y0120338D01*
X0380701Y0119339D02*
X0363600Y0119339D01*
X0363600Y0118341D02*
X0380701Y0118341D01*
X0380701Y0117342D02*
X0363600Y0117342D01*
X0363600Y0116344D02*
X0380701Y0116344D01*
X0380701Y0115345D02*
X0363600Y0115345D01*
X0363600Y0114347D02*
X0380701Y0114347D01*
X0380701Y0113348D02*
X0363600Y0113348D01*
X0363600Y0112350D02*
X0380701Y0112350D01*
X0380701Y0111351D02*
X0363600Y0111351D01*
X0362732Y0110353D02*
X0380701Y0110353D01*
X0354302Y0095375D02*
X0230376Y0095375D01*
X0227965Y0096373D02*
X0352504Y0096373D01*
X0349400Y0120338D02*
X0321103Y0120338D01*
X0321395Y0121336D02*
X0349400Y0121336D01*
X0349400Y0122335D02*
X0321395Y0122335D01*
X0321395Y0123333D02*
X0349773Y0123333D01*
X0307488Y0120338D02*
X0302381Y0120338D01*
X0303582Y0121336D02*
X0307195Y0121336D01*
X0307195Y0122335D02*
X0304580Y0122335D01*
X0305078Y0123333D02*
X0307195Y0123333D01*
X0307195Y0124332D02*
X0305492Y0124332D01*
X0305805Y0125330D02*
X0307195Y0125330D01*
X0307195Y0126329D02*
X0305805Y0126329D01*
X0305805Y0127327D02*
X0307195Y0127327D01*
X0307195Y0128326D02*
X0305633Y0128326D01*
X0305220Y0129324D02*
X0307195Y0129324D01*
X0307195Y0130323D02*
X0304806Y0130323D01*
X0303924Y0131321D02*
X0307195Y0131321D01*
X0307195Y0132320D02*
X0302926Y0132320D01*
X0300797Y0133318D02*
X0308144Y0133318D01*
X0240720Y0140308D02*
X0235554Y0140308D01*
X0236185Y0139309D02*
X0238990Y0139309D01*
X0237694Y0138311D02*
X0236599Y0138311D01*
X0157648Y0100368D02*
X0042784Y0100368D01*
X0042433Y0101366D02*
X0155553Y0101366D01*
X0154018Y0102365D02*
X0041885Y0102365D01*
X0041034Y0103363D02*
X0153020Y0103363D01*
X0149750Y0112350D02*
X0148832Y0112350D01*
X0186200Y0085390D02*
X0186800Y0085390D01*
X0186800Y0084391D02*
X0186200Y0084391D01*
X0186200Y0083393D02*
X0186800Y0083393D01*
X0186800Y0080397D02*
X0186200Y0080397D01*
X0186200Y0079399D02*
X0186800Y0079399D01*
X0186800Y0078400D02*
X0186200Y0078400D01*
X0186200Y0077402D02*
X0186800Y0077402D01*
X0184022Y0077402D02*
X0016000Y0077402D01*
X0016000Y0078400D02*
X0183024Y0078400D01*
X0182025Y0079399D02*
X0016000Y0079399D01*
X0016000Y0080397D02*
X0181850Y0080397D01*
X0183994Y0066418D02*
X0136952Y0066418D01*
X0137300Y0065420D02*
X0182995Y0065420D01*
X0181996Y0064421D02*
X0137300Y0064421D01*
X0137300Y0063423D02*
X0181250Y0063423D01*
X0181250Y0062424D02*
X0137300Y0062424D01*
X0137300Y0061426D02*
X0181250Y0061426D01*
X0181250Y0060427D02*
X0137300Y0060427D01*
X0137300Y0059429D02*
X0181250Y0059429D01*
X0182145Y0058430D02*
X0137300Y0058430D01*
X0137300Y0057432D02*
X0183144Y0057432D01*
X0184142Y0056433D02*
X0136803Y0056433D01*
X0134919Y0055434D02*
X0281326Y0055434D01*
X0280690Y0054436D02*
X0135794Y0054436D01*
X0136338Y0053437D02*
X0280290Y0053437D01*
X0280068Y0052439D02*
X0136616Y0052439D01*
X0136597Y0050442D02*
X0280083Y0050442D01*
X0280322Y0049443D02*
X0136288Y0049443D01*
X0135708Y0048445D02*
X0280758Y0048445D01*
X0283746Y0042454D02*
X0191750Y0042454D01*
X0191750Y0041455D02*
X0282005Y0041455D01*
X0281006Y0040457D02*
X0191750Y0040457D01*
X0191750Y0039458D02*
X0280285Y0039458D01*
X0279871Y0038460D02*
X0190884Y0038460D01*
X0189886Y0037461D02*
X0279458Y0037461D01*
X0279413Y0034466D02*
X0118330Y0034466D01*
X0117331Y0033467D02*
X0279827Y0033467D01*
X0280240Y0032469D02*
X0116333Y0032469D01*
X0114500Y0032469D02*
X0113500Y0032469D01*
X0113500Y0032000D02*
X0113500Y0036000D01*
X0109500Y0036000D01*
X0109500Y0034636D01*
X0112136Y0032000D01*
X0113500Y0032000D01*
X0113500Y0033467D02*
X0114500Y0033467D01*
X0114500Y0034466D02*
X0113500Y0034466D01*
X0113500Y0035464D02*
X0114500Y0035464D01*
X0114500Y0036463D02*
X0128505Y0036463D01*
X0114500Y0037461D02*
X0113500Y0037461D01*
X0113500Y0036463D02*
X0104500Y0036463D01*
X0104500Y0036000D02*
X0104500Y0037000D01*
X0108500Y0037000D01*
X0108500Y0038364D01*
X0105864Y0041000D01*
X0104500Y0041000D01*
X0104500Y0037000D01*
X0103500Y0037000D01*
X0103500Y0041000D01*
X0102136Y0041000D01*
X0099500Y0038364D01*
X0099500Y0037000D01*
X0103500Y0037000D01*
X0103500Y0036000D01*
X0104500Y0036000D01*
X0108500Y0036000D01*
X0108500Y0034636D01*
X0105864Y0032000D01*
X0104500Y0032000D01*
X0104500Y0036000D01*
X0104500Y0035464D02*
X0103500Y0035464D01*
X0103500Y0036000D02*
X0103500Y0032000D01*
X0102136Y0032000D01*
X0099500Y0034636D01*
X0099500Y0036000D01*
X0103500Y0036000D01*
X0103500Y0036463D02*
X0094500Y0036463D01*
X0094500Y0036000D02*
X0094500Y0037000D01*
X0098500Y0037000D01*
X0098500Y0038364D01*
X0095864Y0041000D01*
X0094500Y0041000D01*
X0094500Y0037000D01*
X0093500Y0037000D01*
X0093500Y0041000D01*
X0092136Y0041000D01*
X0089500Y0038364D01*
X0089500Y0037000D01*
X0093500Y0037000D01*
X0093500Y0036000D01*
X0094500Y0036000D01*
X0098500Y0036000D01*
X0098500Y0034636D01*
X0095864Y0032000D01*
X0094500Y0032000D01*
X0094500Y0036000D01*
X0094500Y0035464D02*
X0093500Y0035464D01*
X0093500Y0036000D02*
X0093500Y0032000D01*
X0092136Y0032000D01*
X0089500Y0034636D01*
X0089500Y0036000D01*
X0093500Y0036000D01*
X0093500Y0036463D02*
X0084500Y0036463D01*
X0084500Y0036000D02*
X0084500Y0037000D01*
X0088500Y0037000D01*
X0088500Y0038364D01*
X0085864Y0041000D01*
X0084500Y0041000D01*
X0084500Y0037000D01*
X0083500Y0037000D01*
X0083500Y0041000D01*
X0082136Y0041000D01*
X0079500Y0038364D01*
X0079500Y0037000D01*
X0083500Y0037000D01*
X0083500Y0036000D01*
X0084500Y0036000D01*
X0088500Y0036000D01*
X0088500Y0034636D01*
X0085864Y0032000D01*
X0084500Y0032000D01*
X0084500Y0036000D01*
X0084500Y0035464D02*
X0083500Y0035464D01*
X0083500Y0036000D02*
X0083500Y0032000D01*
X0082136Y0032000D01*
X0079500Y0034636D01*
X0079500Y0036000D01*
X0083500Y0036000D01*
X0083500Y0036463D02*
X0074500Y0036463D01*
X0074500Y0036000D02*
X0074500Y0037000D01*
X0078500Y0037000D01*
X0078500Y0038364D01*
X0075864Y0041000D01*
X0074500Y0041000D01*
X0074500Y0037000D01*
X0073500Y0037000D01*
X0073500Y0041000D01*
X0072136Y0041000D01*
X0069500Y0038364D01*
X0069500Y0037000D01*
X0073500Y0037000D01*
X0073500Y0036000D01*
X0074500Y0036000D01*
X0078500Y0036000D01*
X0078500Y0034636D01*
X0075864Y0032000D01*
X0074500Y0032000D01*
X0074500Y0036000D01*
X0074500Y0035464D02*
X0073500Y0035464D01*
X0073500Y0036000D02*
X0073500Y0032000D01*
X0072136Y0032000D01*
X0069500Y0034636D01*
X0069500Y0036000D01*
X0073500Y0036000D01*
X0073500Y0036463D02*
X0064500Y0036463D01*
X0064500Y0036000D02*
X0064500Y0037000D01*
X0068500Y0037000D01*
X0068500Y0038364D01*
X0065864Y0041000D01*
X0064500Y0041000D01*
X0064500Y0037000D01*
X0063500Y0037000D01*
X0063500Y0041000D01*
X0062136Y0041000D01*
X0059500Y0038364D01*
X0059500Y0037000D01*
X0063500Y0037000D01*
X0063500Y0036000D01*
X0064500Y0036000D01*
X0068500Y0036000D01*
X0068500Y0034636D01*
X0065864Y0032000D01*
X0064500Y0032000D01*
X0064500Y0036000D01*
X0064500Y0035464D02*
X0063500Y0035464D01*
X0063500Y0036000D02*
X0063500Y0032000D01*
X0062136Y0032000D01*
X0059500Y0034636D01*
X0059500Y0036000D01*
X0063500Y0036000D01*
X0063500Y0036463D02*
X0040650Y0036463D01*
X0041210Y0035464D02*
X0059500Y0035464D01*
X0059670Y0034466D02*
X0041478Y0034466D01*
X0041745Y0033467D02*
X0060669Y0033467D01*
X0061667Y0032469D02*
X0041905Y0032469D01*
X0041905Y0031470D02*
X0280898Y0031470D01*
X0281897Y0030472D02*
X0041905Y0030472D01*
X0041729Y0029473D02*
X0283485Y0029473D01*
X0282251Y0056433D02*
X0188858Y0056433D01*
X0189097Y0025479D02*
X0352961Y0025479D01*
X0353804Y0024481D02*
X0190095Y0024481D01*
X0191094Y0023482D02*
X0354802Y0023482D01*
X0356306Y0022484D02*
X0191150Y0022484D01*
X0191150Y0020487D02*
X0380129Y0020487D01*
X0380405Y0021485D02*
X0364328Y0021485D01*
X0366694Y0022484D02*
X0380647Y0022484D01*
X0380701Y0023482D02*
X0368198Y0023482D01*
X0369196Y0024481D02*
X0380701Y0024481D01*
X0380701Y0025479D02*
X0370039Y0025479D01*
X0370616Y0026478D02*
X0380701Y0026478D01*
X0380701Y0027476D02*
X0371192Y0027476D01*
X0371462Y0028475D02*
X0380701Y0028475D01*
X0380701Y0029473D02*
X0371729Y0029473D01*
X0371905Y0030472D02*
X0380701Y0030472D01*
X0380701Y0031470D02*
X0371905Y0031470D01*
X0371905Y0032469D02*
X0380701Y0032469D01*
X0380701Y0033467D02*
X0371745Y0033467D01*
X0371478Y0034466D02*
X0380701Y0034466D01*
X0380701Y0035464D02*
X0371210Y0035464D01*
X0370650Y0036463D02*
X0380701Y0036463D01*
X0380701Y0037461D02*
X0370073Y0037461D01*
X0369256Y0038460D02*
X0380701Y0038460D01*
X0380701Y0039458D02*
X0368257Y0039458D01*
X0366797Y0040457D02*
X0380701Y0040457D01*
X0380701Y0041455D02*
X0364550Y0041455D01*
X0358672Y0021485D02*
X0186800Y0021485D01*
X0186800Y0022484D02*
X0186200Y0022484D01*
X0186200Y0023482D02*
X0186800Y0023482D01*
X0186800Y0024481D02*
X0186200Y0024481D01*
X0186200Y0025479D02*
X0186800Y0025479D01*
X0181850Y0020487D02*
X0016572Y0020487D01*
X0016296Y0021485D02*
X0028672Y0021485D01*
X0026306Y0022484D02*
X0016054Y0022484D01*
X0016000Y0023482D02*
X0024802Y0023482D01*
X0023804Y0024481D02*
X0016000Y0024481D01*
X0016000Y0025479D02*
X0022961Y0025479D01*
X0022384Y0026478D02*
X0016000Y0026478D01*
X0016000Y0027476D02*
X0021808Y0027476D01*
X0021538Y0028475D02*
X0016000Y0028475D01*
X0016000Y0029473D02*
X0021270Y0029473D01*
X0021094Y0030472D02*
X0016000Y0030472D01*
X0016000Y0031470D02*
X0021094Y0031470D01*
X0021094Y0032469D02*
X0016000Y0032469D01*
X0016000Y0033467D02*
X0021255Y0033467D01*
X0021522Y0034466D02*
X0016000Y0034466D01*
X0016000Y0035464D02*
X0021790Y0035464D01*
X0022350Y0036463D02*
X0016000Y0036463D01*
X0016000Y0037461D02*
X0022927Y0037461D01*
X0023744Y0038460D02*
X0016000Y0038460D01*
X0016000Y0039458D02*
X0024743Y0039458D01*
X0026203Y0040457D02*
X0016000Y0040457D01*
X0016000Y0041455D02*
X0028450Y0041455D01*
X0034550Y0041455D02*
X0061832Y0041455D01*
X0061593Y0040457D02*
X0036797Y0040457D01*
X0038257Y0039458D02*
X0060594Y0039458D01*
X0059596Y0038460D02*
X0039256Y0038460D01*
X0040073Y0037461D02*
X0059500Y0037461D01*
X0063500Y0037461D02*
X0064500Y0037461D01*
X0064500Y0038460D02*
X0063500Y0038460D01*
X0063500Y0039458D02*
X0064500Y0039458D01*
X0064500Y0040457D02*
X0063500Y0040457D01*
X0066168Y0041455D02*
X0071832Y0041455D01*
X0071593Y0040457D02*
X0066407Y0040457D01*
X0067406Y0039458D02*
X0070594Y0039458D01*
X0069596Y0038460D02*
X0068404Y0038460D01*
X0068500Y0037461D02*
X0069500Y0037461D01*
X0069500Y0035464D02*
X0068500Y0035464D01*
X0068330Y0034466D02*
X0069670Y0034466D01*
X0070669Y0033467D02*
X0067331Y0033467D01*
X0066333Y0032469D02*
X0071667Y0032469D01*
X0073500Y0032469D02*
X0074500Y0032469D01*
X0074500Y0033467D02*
X0073500Y0033467D01*
X0073500Y0034466D02*
X0074500Y0034466D01*
X0076333Y0032469D02*
X0081667Y0032469D01*
X0080669Y0033467D02*
X0077331Y0033467D01*
X0078330Y0034466D02*
X0079670Y0034466D01*
X0079500Y0035464D02*
X0078500Y0035464D01*
X0078500Y0037461D02*
X0079500Y0037461D01*
X0079596Y0038460D02*
X0078404Y0038460D01*
X0077406Y0039458D02*
X0080594Y0039458D01*
X0081593Y0040457D02*
X0076407Y0040457D01*
X0076168Y0041455D02*
X0081832Y0041455D01*
X0080834Y0042454D02*
X0077166Y0042454D01*
X0078165Y0043452D02*
X0079835Y0043452D01*
X0083500Y0040457D02*
X0084500Y0040457D01*
X0084500Y0039458D02*
X0083500Y0039458D01*
X0083500Y0038460D02*
X0084500Y0038460D01*
X0084500Y0037461D02*
X0083500Y0037461D01*
X0083500Y0034466D02*
X0084500Y0034466D01*
X0084500Y0033467D02*
X0083500Y0033467D01*
X0083500Y0032469D02*
X0084500Y0032469D01*
X0086333Y0032469D02*
X0091667Y0032469D01*
X0090669Y0033467D02*
X0087331Y0033467D01*
X0088330Y0034466D02*
X0089670Y0034466D01*
X0089500Y0035464D02*
X0088500Y0035464D01*
X0088500Y0037461D02*
X0089500Y0037461D01*
X0089596Y0038460D02*
X0088404Y0038460D01*
X0087406Y0039458D02*
X0090594Y0039458D01*
X0091593Y0040457D02*
X0086407Y0040457D01*
X0086168Y0041455D02*
X0091832Y0041455D01*
X0090834Y0042454D02*
X0087166Y0042454D01*
X0088165Y0043452D02*
X0089835Y0043452D01*
X0093500Y0040457D02*
X0094500Y0040457D01*
X0094500Y0039458D02*
X0093500Y0039458D01*
X0093500Y0038460D02*
X0094500Y0038460D01*
X0094500Y0037461D02*
X0093500Y0037461D01*
X0093500Y0034466D02*
X0094500Y0034466D01*
X0094500Y0033467D02*
X0093500Y0033467D01*
X0093500Y0032469D02*
X0094500Y0032469D01*
X0096333Y0032469D02*
X0101667Y0032469D01*
X0100669Y0033467D02*
X0097331Y0033467D01*
X0098330Y0034466D02*
X0099670Y0034466D01*
X0099500Y0035464D02*
X0098500Y0035464D01*
X0098500Y0037461D02*
X0099500Y0037461D01*
X0099596Y0038460D02*
X0098404Y0038460D01*
X0097406Y0039458D02*
X0100594Y0039458D01*
X0101593Y0040457D02*
X0096407Y0040457D01*
X0096168Y0041455D02*
X0101832Y0041455D01*
X0100834Y0042454D02*
X0097166Y0042454D01*
X0098165Y0043452D02*
X0099835Y0043452D01*
X0103500Y0040457D02*
X0104500Y0040457D01*
X0104500Y0039458D02*
X0103500Y0039458D01*
X0103500Y0038460D02*
X0104500Y0038460D01*
X0104500Y0037461D02*
X0103500Y0037461D01*
X0103500Y0034466D02*
X0104500Y0034466D01*
X0104500Y0033467D02*
X0103500Y0033467D01*
X0103500Y0032469D02*
X0104500Y0032469D01*
X0106333Y0032469D02*
X0111667Y0032469D01*
X0110669Y0033467D02*
X0107331Y0033467D01*
X0108330Y0034466D02*
X0109670Y0034466D01*
X0109500Y0035464D02*
X0108500Y0035464D01*
X0108500Y0037461D02*
X0109500Y0037461D01*
X0109596Y0038460D02*
X0108404Y0038460D01*
X0107406Y0039458D02*
X0110594Y0039458D01*
X0111593Y0040457D02*
X0106407Y0040457D01*
X0106168Y0041455D02*
X0111832Y0041455D01*
X0110834Y0042454D02*
X0107166Y0042454D01*
X0108165Y0043452D02*
X0109835Y0043452D01*
X0113500Y0040457D02*
X0114500Y0040457D01*
X0114500Y0039458D02*
X0113500Y0039458D01*
X0113500Y0038460D02*
X0114500Y0038460D01*
X0109731Y0049443D02*
X0108269Y0049443D01*
X0107271Y0050442D02*
X0110729Y0050442D01*
X0111728Y0051440D02*
X0106272Y0051440D01*
X0101728Y0051440D02*
X0096272Y0051440D01*
X0097271Y0050442D02*
X0100729Y0050442D01*
X0099731Y0049443D02*
X0098269Y0049443D01*
X0091728Y0051440D02*
X0086272Y0051440D01*
X0087271Y0050442D02*
X0090729Y0050442D01*
X0089731Y0049443D02*
X0088269Y0049443D01*
X0081728Y0051440D02*
X0076272Y0051440D01*
X0077271Y0050442D02*
X0080729Y0050442D01*
X0079731Y0049443D02*
X0078269Y0049443D01*
X0071728Y0051440D02*
X0066272Y0051440D01*
X0067271Y0050442D02*
X0070729Y0050442D01*
X0069731Y0049443D02*
X0068269Y0049443D01*
X0061728Y0051440D02*
X0016000Y0051440D01*
X0016000Y0050442D02*
X0060729Y0050442D01*
X0059731Y0049443D02*
X0016000Y0049443D01*
X0016000Y0048445D02*
X0058900Y0048445D01*
X0058900Y0047446D02*
X0016000Y0047446D01*
X0016000Y0046448D02*
X0058900Y0046448D01*
X0058900Y0045449D02*
X0016000Y0045449D01*
X0016000Y0044451D02*
X0058900Y0044451D01*
X0059835Y0043452D02*
X0016000Y0043452D01*
X0016000Y0042454D02*
X0060834Y0042454D01*
X0067166Y0042454D02*
X0070834Y0042454D01*
X0069835Y0043452D02*
X0068165Y0043452D01*
X0073500Y0040457D02*
X0074500Y0040457D01*
X0074500Y0039458D02*
X0073500Y0039458D01*
X0073500Y0038460D02*
X0074500Y0038460D01*
X0074500Y0037461D02*
X0073500Y0037461D01*
X0064500Y0034466D02*
X0063500Y0034466D01*
X0063500Y0033467D02*
X0064500Y0033467D01*
X0064500Y0032469D02*
X0063500Y0032469D01*
X0020752Y0016493D02*
X0375949Y0016493D01*
X0377806Y0017491D02*
X0189067Y0017491D01*
X0190066Y0018490D02*
X0378819Y0018490D01*
X0379552Y0019488D02*
X0191064Y0019488D01*
X0182934Y0018490D02*
X0017882Y0018490D01*
X0017148Y0019488D02*
X0181936Y0019488D01*
X0126384Y0052439D02*
X0016000Y0052439D01*
X0016000Y0053437D02*
X0126662Y0053437D01*
X0127206Y0054436D02*
X0016000Y0054436D01*
X0016000Y0055434D02*
X0128081Y0055434D01*
X0126197Y0056433D02*
X0016000Y0056433D01*
X0016000Y0057432D02*
X0125700Y0057432D01*
X0125700Y0058430D02*
X0016000Y0058430D01*
X0016000Y0059429D02*
X0125700Y0059429D01*
X0125700Y0060427D02*
X0016000Y0060427D01*
X0016000Y0061426D02*
X0125700Y0061426D01*
X0125700Y0062424D02*
X0016000Y0062424D01*
X0016000Y0063423D02*
X0125700Y0063423D01*
X0125700Y0064421D02*
X0016000Y0064421D01*
X0016000Y0065420D02*
X0125700Y0065420D01*
X0126048Y0066418D02*
X0082300Y0066418D01*
X0081886Y0066418D02*
X0081114Y0066418D01*
X0080700Y0066418D02*
X0016000Y0066418D01*
X0016000Y0067417D02*
X0078320Y0067417D01*
X0077305Y0068415D02*
X0016000Y0068415D01*
X0016000Y0069414D02*
X0076695Y0069414D01*
X0076332Y0070412D02*
X0016000Y0070412D01*
X0081114Y0070412D02*
X0081886Y0070412D01*
X0081886Y0069414D02*
X0081114Y0069414D01*
X0081114Y0068415D02*
X0081886Y0068415D01*
X0081886Y0067417D02*
X0081114Y0067417D01*
X0026602Y0137312D02*
X0016000Y0137312D01*
X0016000Y0138311D02*
X0024973Y0138311D01*
X0023975Y0139309D02*
X0016000Y0139309D01*
X0016000Y0140308D02*
X0023060Y0140308D01*
X0022483Y0141306D02*
X0016000Y0141306D01*
X0016000Y0142305D02*
X0021907Y0142305D01*
X0021584Y0143303D02*
X0016000Y0143303D01*
X0016000Y0144302D02*
X0021316Y0144302D01*
X0021094Y0145301D02*
X0016000Y0145301D01*
X0016000Y0146299D02*
X0021094Y0146299D01*
X0021094Y0147298D02*
X0016000Y0147298D01*
X0016000Y0148296D02*
X0021209Y0148296D01*
X0021476Y0149295D02*
X0016000Y0149295D01*
X0016000Y0150293D02*
X0021744Y0150293D01*
X0022251Y0151292D02*
X0016000Y0151292D01*
X0016000Y0152290D02*
X0022828Y0152290D01*
X0023573Y0153289D02*
X0016000Y0153289D01*
X0016000Y0154287D02*
X0024572Y0154287D01*
X0025906Y0155286D02*
X0016000Y0155286D01*
X0016000Y0156284D02*
X0027811Y0156284D01*
X0018796Y0162275D02*
X0377905Y0162275D01*
X0378903Y0161277D02*
X0017797Y0161277D01*
X0017100Y0160278D02*
X0379601Y0160278D01*
X0380160Y0159280D02*
X0016541Y0159280D01*
X0016274Y0158281D02*
X0380427Y0158281D01*
X0380652Y0157283D02*
X0016049Y0157283D01*
X0020478Y0163274D02*
X0376222Y0163274D01*
M02*
