M48
;GenerationSoftware,Autodesk,EAGLE,8.6.0*%
;CreationDate,2019-04-04T15:37:13Z*%
FMAT,2
ICI,OFF
METRIC,TZ,000.000
T18C0.508
T17C0.610
T16C0.800
T15C0.813
T14C0.850
T13C0.900
T12C1.000
T11C1.016
T10C1.240
T9C1.250
T8C1.270
T7C1.370
T6C1.700
T5C2.000
T4C3.000
T3C3.880
T2C4.572
T1C6.000
%
G90
M71
T1
X-64444Y-8484
X64444Y-8484
X39569Y51568
X24874Y-60052
X-24874Y-60052
X-39569Y51568
T2
X-3810Y-40640
X3353Y-40640
T3
X26670Y-24130
X17780Y-24130
T4
X-64444Y8484
X-14986Y50800
X-39569Y-51568
X39569Y-51568
X64444Y8484
X-15000Y25981
X29000Y0
X-15000Y-25981
X14986Y50800
X5207Y14478
X5207Y-14478
X24874Y60052
X-24874Y60052
T5
X-58420Y-5715
X-35560Y-5715
T6
X10290Y-9020
X7490Y-6220
T7
X28400Y-20320
X24940Y-27940
X19510Y-20320
X16050Y-27940
T8
X17780Y-13970
X20828Y-27940
X17780Y-17780
X19812Y-15748
X13970Y-6350
X-31750Y2540
T9
X24690Y-8890
X15800Y-8890
T10
X19760Y-8890
X28650Y-8890
T11
X49530Y16510
X46990Y16510
X46990Y19050
X46990Y21590
X49530Y21590
X49530Y24130
X46990Y26670
X49530Y26670
X49530Y29210
X34290Y29210
X-34417Y-16129
X-31877Y-16129
X49530Y3810
X-16637Y16129
X-19177Y16129
X-21717Y16129
X-24257Y16129
X-26797Y16129
X-29337Y16129
X-31877Y16129
X-34417Y16129
X-16637Y-16129
X-19177Y-16129
X-21717Y-16129
X-24257Y-16129
X-26797Y-16129
X33020Y44069
X33020Y41529
X33020Y38989
X33020Y36449
X49530Y6350
X-3810Y-7620
X-6350Y-7620
X2540Y-7620
X0Y-7620
X-21526Y-2604
X-19730Y-4400
X-17934Y-6196
X-16138Y-7992
X-14342Y-9788
X-12546Y-11584
X-10750Y-13380
X-8954Y-15176
X17780Y45720
X20320Y45720
X17780Y40640
X20320Y40640
X13970Y41910
X13970Y44450
X3810Y50800
X1270Y50800
X-1270Y50800
X-3810Y50800
X-6350Y50800
X-27940Y44450
X-30480Y44450
X-33020Y44450
X-35560Y44450
X-38100Y44450
X-40640Y44450
X6350Y50800
X44450Y6350
X41910Y6350
X41910Y8890
X44450Y8890
X44450Y11430
X41910Y11430
X41910Y13970
X44450Y13970
X41910Y-8890
X44450Y-8890
X44450Y-11430
X41910Y-11430
X41910Y-13970
X44450Y-13970
X41910Y-24130
X41910Y-19050
X41910Y-21590
X49530Y8890
X49530Y11430
X49530Y13970
X49530Y19050
X41910Y-26670
X41910Y-29210
X44450Y-26670
X44450Y-29210
X44450Y-24130
X44450Y-19050
X44450Y-21590
X49530Y-3810
X49530Y-6350
X49530Y-8890
X49530Y-11430
X49530Y-13970
X49530Y-16510
X49530Y-19050
X49530Y-21590
X49530Y-24130
X49530Y-26670
X49530Y-29210
X46990Y-16510
X44450Y-16510
X41910Y-16510
X39370Y-16510
X36830Y-16510
X34290Y-29210
X34290Y-26670
X34290Y-24130
X34290Y-21590
X34290Y-19050
X34290Y-16510
X34290Y-13970
X34290Y-11430
X34290Y-8890
X34290Y-6350
X34290Y-3810
X34290Y-1270
X34290Y1270
X34290Y3810
X34290Y6350
X34290Y8890
X34290Y11430
X34290Y13970
X34290Y16510
X34290Y19050
X-29337Y-16129
X34290Y21590
X34290Y24130
X34290Y26670
X49530Y1270
X49530Y-1270
T12
X-20245Y54320
X-26745Y49820
X-20245Y49820
X-12752Y33310
X-19252Y33310
X-12752Y37810
X-19252Y37810
X-19252Y45430
X-12752Y45430
X-19252Y40930
X-12752Y40930
X-26745Y54320
T13
X26670Y-38140
X26670Y-43140
T14
X65000Y0
X65000Y-2540
X65000Y2540
X62785Y-16823
X62128Y-19277
X63443Y-14370
X56292Y-32500
X55022Y-34700
X57562Y-30300
X45962Y-45962
X44166Y-47758
X47758Y-44166
X32500Y-56292
X30300Y-57562
X34700Y-55022
X16823Y-62785
X14370Y-63443
X19277Y-62128
X-2540Y-65000
X2540Y-65000
X-16823Y-62785
X-19277Y-62128
X-14370Y-63443
X-32500Y-56292
X-34700Y-55022
X-30300Y-57562
X-45962Y-45962
X-47758Y-44166
X-44166Y-47758
X-56292Y-32500
X-57562Y-30300
X-55022Y-34700
X-62785Y-16823
X-63443Y-14370
X-62128Y-19277
X-65000Y0
X-65000Y2540
X-65000Y-2540
X-62785Y16823
X-62128Y19277
X-63443Y14370
X-56292Y32500
X-55022Y34700
X-57562Y30300
X-45962Y45962
X-44166Y47758
X-47758Y44166
X-32500Y56292
X-30300Y57562
X-34700Y55022
X-16823Y62785
X-14370Y63443
X-19277Y62128
X0Y-65000
X0Y65000
X2540Y65000
X-2540Y65000
X16823Y62785
X19277Y62128
X14370Y63443
X32500Y56292
X34700Y55022
X30300Y57562
X45962Y45962
X47758Y44166
X44166Y47758
X56292Y32500
X57562Y30300
X55022Y34700
X62785Y16823
X63443Y14370
X62128Y19277
T15
X13970Y-12113
X-30480Y28702
X-30480Y32258
X-47625Y29480
X-47625Y31480
X-41910Y10160
X-41910Y6604
X-56388Y9160
X-56388Y11160
X-19939Y-24130
X-23495Y-24130
X-32385Y-36560
X-32385Y-34560
X-29972Y-24130
X-33528Y-24130
X-48895Y-23860
X-48895Y-21860
X13970Y-18113
X13970Y-16113
X13970Y-14113
T16
X27940Y6350
X27940Y8890
X27940Y11430
T17
X-11430Y21590
X-7620Y21590
X5080Y-6350
X11430Y26670
X19050Y24130
X24130Y44450
T18
X-24130Y46990
X35560Y12700
X39370Y-8890
X16510Y5080
X31242Y15240
X-1905Y-9525
X-52070Y-15240
X-43434Y23876
X-52578Y3302
X-55372Y16510
X-46990Y36830
X-48260Y-26924
X-47752Y-19304
X-4191Y34798
X-29210Y-28702
X-30988Y-40767
X16510Y26670
X29210Y26670
X15240Y27940
X29210Y27940
X46863Y35560
X13970Y57150
X22860Y57150
X58420Y-10160
X55753Y-19050
X59690Y-10160
X30480Y33020
X5080Y33020
X29210Y31750
X3810Y31750
X-1270Y40640
X24130Y36830
X8890Y5080
X-3810Y5080
X27940Y-29210
X24511Y-30480
X46990Y-10160
X46990Y-6350
X-9652Y34798
X-4699Y28575
X31750Y24130
X36830Y19050
X43180Y20320
X31750Y-10160
X44577Y16637
X-54356Y-17653
X-53340Y-21590
X-50800Y-25400
X-36830Y-25908
X-22733Y-43307
X-20828Y-32512
X-44323Y7112
X-44323Y13335
X-49530Y0
X3810Y8890
X-34290Y8890
X-41783Y17018
X-38862Y21463
X-31750Y19050
X-1905Y6350
X-16510Y13843
X13462Y3048
X22225Y-8636
X26797Y-11430
X-50673Y2540
X-35179Y10668
X-31496Y10287
X30099Y-6477
X-35052Y33909
X-35179Y26162
X-36576Y23622
X-41910Y22860
X24511Y2540
X24384Y4953
X32385Y2667
X19685Y-1905
X-36830Y-7620
X-44450Y-8890
X-36830Y-3810
X-36703Y-1143
X-34798Y-3175
X-50800Y17780
X53340Y-6731
X-24130Y52070
X-15240Y46990
X-10160Y46990
X52070Y-12700
X52070Y-19050
X52070Y-21590
X-13970Y-43180
X-33528Y-31750
X-55880Y-21590
X-59690Y0
X-45212Y19812
X-31496Y35814
X-9017Y6350
X-24257Y27178
X-21717Y24511
X-5080Y-3810
X10160Y11430
X-16510Y-43180
X-12700Y-59690
X53848Y41275
X40640Y32766
X6350Y35560
X39370Y31750
X5080Y34290
X39624Y10160
X-34417Y127
X-22860Y7620
X15240Y2794
X7366Y10160
X15240Y0
X-41910Y19050
X29920Y2592
X7747Y3937
X0Y-3810
X-42545Y21590
X-34544Y13843
X-13970Y13970
X1270Y16510
X29083Y17780
X24638Y21590
X-27432Y-28194
X-24130Y-44450
X31750Y-19050
X-635Y-45720
X22860Y-41910
X-19431Y-44450
X-28067Y-45593
X26670Y-31750
X57150Y-15621
X38100Y-10160
X43180Y5080
X635Y-44450
X-51943Y-19431
X-59690Y-11557
X25527Y-40640
X-35687Y-30480
X-41910Y-36830
X34290Y-31750
X33020Y-33020
X27940Y36830
X26035Y36830
X-7620Y25400
X21590Y22860
X-8636Y22860
X22860Y21590
X47117Y7493
X43180Y17653
X43180Y22860
X-63500Y12065
X-20193Y24638
X43180Y19050
X31762Y-48272
X31750Y48260
X22860Y52070
X46609Y34290
X58420Y25019
X62230Y24130
X-19050Y6350
X35560Y-33020
X-55880Y22860
X-43180Y-32512
X43180Y21590
X55880Y-10160
X-21590Y-57150
X46990Y-19050
X33020Y-49530
X-16510Y6350
X-16510Y10160
X-19050Y10160
X45720Y-2540
X48260Y-2540
X0Y43180
X-2540Y43180
X43180Y27940
X44450Y33020
X31750Y5588
X36830Y5080
X11430Y-36830
X39370Y-5207
X-20320Y57150
X-8890Y48260
X54610Y39370
X52070Y-8128
X45720Y-40640
X-6350Y47752
X-12700Y4826
X-12827Y-5080
X-18288Y22860
M30