G04 EAGLE Gerber X2 export*
%TF.Part,Single*%
%TF.FileFunction,Profile,NP*%
%TF.FilePolarity,Positive*%
%TF.GenerationSoftware,Autodesk,EAGLE,8.6.0*%
%TF.CreationDate,2019-04-04T15:37:23Z*%
G75*
%MOMM*%
%FSLAX34Y34*%
%LPD*%
%AMOC8*
5,1,8,0,0,1.08239X$1,22.5*%
G01*
%ADD10C,0.254000*%


D10*
X700000Y-8591D02*
X699578Y-25767D01*
X698735Y-42928D01*
X697471Y-60063D01*
X695787Y-77161D01*
X693684Y-94214D01*
X691163Y-111209D01*
X688226Y-128138D01*
X684874Y-144989D01*
X681109Y-161753D01*
X676935Y-178419D01*
X672352Y-194978D01*
X667364Y-211420D01*
X661975Y-227734D01*
X656187Y-243911D01*
X650003Y-259942D01*
X643428Y-275815D01*
X636466Y-291523D01*
X629120Y-307055D01*
X621395Y-322401D01*
X613295Y-337554D01*
X604827Y-352503D01*
X595994Y-367240D01*
X586801Y-381756D01*
X577256Y-396042D01*
X567363Y-410089D01*
X557128Y-423890D01*
X546557Y-437435D01*
X535657Y-450716D01*
X524435Y-463726D01*
X512897Y-476457D01*
X501049Y-488900D01*
X488900Y-501049D01*
X476457Y-512897D01*
X463726Y-524435D01*
X450716Y-535657D01*
X437435Y-546557D01*
X423890Y-557128D01*
X410089Y-567363D01*
X396042Y-577256D01*
X381756Y-586801D01*
X367240Y-595994D01*
X352503Y-604827D01*
X337554Y-613295D01*
X322401Y-621395D01*
X307055Y-629120D01*
X291523Y-636466D01*
X275815Y-643428D01*
X259942Y-650003D01*
X243911Y-656187D01*
X227734Y-661975D01*
X211420Y-667364D01*
X194978Y-672352D01*
X178419Y-676935D01*
X161753Y-681109D01*
X144989Y-684874D01*
X128138Y-688226D01*
X111209Y-691163D01*
X94214Y-693684D01*
X77161Y-695787D01*
X60063Y-697471D01*
X42928Y-698735D01*
X25767Y-699578D01*
X8591Y-700000D01*
X-8591Y-700000D01*
X-25767Y-699578D01*
X-42928Y-698735D01*
X-60063Y-697471D01*
X-77161Y-695787D01*
X-94214Y-693684D01*
X-111209Y-691163D01*
X-128138Y-688226D01*
X-144989Y-684874D01*
X-161753Y-681109D01*
X-178419Y-676935D01*
X-194978Y-672352D01*
X-211420Y-667364D01*
X-227734Y-661975D01*
X-243911Y-656187D01*
X-259942Y-650003D01*
X-275815Y-643428D01*
X-291523Y-636466D01*
X-307055Y-629120D01*
X-322401Y-621395D01*
X-337554Y-613295D01*
X-352503Y-604827D01*
X-367240Y-595994D01*
X-381756Y-586801D01*
X-396042Y-577256D01*
X-410089Y-567363D01*
X-423890Y-557128D01*
X-437435Y-546557D01*
X-450716Y-535657D01*
X-463726Y-524435D01*
X-476457Y-512897D01*
X-488900Y-501049D01*
X-501049Y-488900D01*
X-512897Y-476457D01*
X-524435Y-463726D01*
X-535657Y-450716D01*
X-546557Y-437435D01*
X-557128Y-423890D01*
X-567363Y-410089D01*
X-577256Y-396042D01*
X-586801Y-381756D01*
X-595994Y-367240D01*
X-604827Y-352503D01*
X-613295Y-337554D01*
X-621395Y-322401D01*
X-629120Y-307055D01*
X-636466Y-291523D01*
X-643428Y-275815D01*
X-650003Y-259942D01*
X-656187Y-243911D01*
X-661975Y-227734D01*
X-667364Y-211420D01*
X-672352Y-194978D01*
X-676935Y-178419D01*
X-681109Y-161753D01*
X-684874Y-144989D01*
X-688226Y-128138D01*
X-691163Y-111209D01*
X-693684Y-94214D01*
X-695787Y-77161D01*
X-697471Y-60063D01*
X-698735Y-42928D01*
X-699578Y-25767D01*
X-700000Y-8591D01*
X-700000Y8591D01*
X-699578Y25767D01*
X-698735Y42928D01*
X-697471Y60063D01*
X-695787Y77161D01*
X-693684Y94214D01*
X-691163Y111209D01*
X-688226Y128138D01*
X-684874Y144989D01*
X-681109Y161753D01*
X-676935Y178419D01*
X-672352Y194978D01*
X-667364Y211420D01*
X-661975Y227734D01*
X-656187Y243911D01*
X-650003Y259942D01*
X-643428Y275815D01*
X-636466Y291523D01*
X-629120Y307055D01*
X-621395Y322401D01*
X-613295Y337554D01*
X-604827Y352503D01*
X-595994Y367240D01*
X-586801Y381756D01*
X-577256Y396042D01*
X-567363Y410089D01*
X-557128Y423890D01*
X-546557Y437435D01*
X-535657Y450716D01*
X-524435Y463726D01*
X-512897Y476457D01*
X-501049Y488900D01*
X-488900Y501049D01*
X-476457Y512897D01*
X-463726Y524435D01*
X-450716Y535657D01*
X-437435Y546557D01*
X-423890Y557128D01*
X-410089Y567363D01*
X-396042Y577256D01*
X-381756Y586801D01*
X-367240Y595994D01*
X-352503Y604827D01*
X-337554Y613295D01*
X-322401Y621395D01*
X-307055Y629120D01*
X-291523Y636466D01*
X-275815Y643428D01*
X-259942Y650003D01*
X-243911Y656187D01*
X-227734Y661975D01*
X-211420Y667364D01*
X-194978Y672352D01*
X-178419Y676935D01*
X-161753Y681109D01*
X-144989Y684874D01*
X-128138Y688226D01*
X-111209Y691163D01*
X-94214Y693684D01*
X-77161Y695787D01*
X-60063Y697471D01*
X-42928Y698735D01*
X-25767Y699578D01*
X-8591Y700000D01*
X8591Y700000D01*
X25767Y699578D01*
X42928Y698735D01*
X60063Y697471D01*
X77161Y695787D01*
X94214Y693684D01*
X111209Y691163D01*
X128138Y688226D01*
X144989Y684874D01*
X161753Y681109D01*
X178419Y676935D01*
X194978Y672352D01*
X211420Y667364D01*
X227734Y661975D01*
X243911Y656187D01*
X259942Y650003D01*
X275815Y643428D01*
X291523Y636466D01*
X307055Y629120D01*
X322401Y621395D01*
X337554Y613295D01*
X352503Y604827D01*
X367240Y595994D01*
X381756Y586801D01*
X396042Y577256D01*
X410089Y567363D01*
X423890Y557128D01*
X437435Y546557D01*
X450716Y535657D01*
X463726Y524435D01*
X476457Y512897D01*
X488900Y501049D01*
X501049Y488900D01*
X512897Y476457D01*
X524435Y463726D01*
X535657Y450716D01*
X546557Y437435D01*
X557128Y423890D01*
X567363Y410089D01*
X577256Y396042D01*
X586801Y381756D01*
X595994Y367240D01*
X604827Y352503D01*
X613295Y337554D01*
X621395Y322401D01*
X629120Y307055D01*
X636466Y291523D01*
X643428Y275815D01*
X650003Y259942D01*
X656187Y243911D01*
X661975Y227734D01*
X667364Y211420D01*
X672352Y194978D01*
X676935Y178419D01*
X681109Y161753D01*
X684874Y144989D01*
X688226Y128138D01*
X691163Y111209D01*
X693684Y94214D01*
X695787Y77161D01*
X697471Y60063D01*
X698735Y42928D01*
X699578Y25767D01*
X700000Y8591D01*
X700000Y-8591D01*
X-654250Y-25400D02*
X-645750Y-25400D01*
X-645750Y-9906D01*
X-654250Y-9906D01*
X-654250Y-25400D01*
X-654250Y9906D02*
X-645750Y9906D01*
X-645750Y25400D01*
X-654250Y25400D01*
X-654250Y9906D01*
X-25400Y-654250D02*
X-9906Y-654250D01*
X-9906Y-645750D01*
X-25400Y-645750D01*
X-25400Y-654250D01*
X-25400Y645750D02*
X-9906Y645750D01*
X-9906Y654250D01*
X-25400Y654250D01*
X-25400Y645750D01*
X645750Y-25400D02*
X654250Y-25400D01*
X654250Y-9906D01*
X645750Y-9906D01*
X645750Y-25400D01*
X645750Y9906D02*
X654250Y9906D01*
X654250Y25400D01*
X645750Y25400D01*
X645750Y9906D01*
X9906Y-654250D02*
X25400Y-654250D01*
X25400Y-645750D01*
X9906Y-645750D01*
X9906Y-654250D01*
X9906Y645750D02*
X25400Y645750D01*
X25400Y654250D01*
X9906Y654250D01*
X9906Y645750D01*
X-579297Y-305128D02*
X-571550Y-318546D01*
X-564189Y-314296D01*
X-571936Y-300878D01*
X-579297Y-305128D01*
X564189Y314296D02*
X571936Y300878D01*
X579297Y305128D01*
X571550Y318546D01*
X564189Y314296D01*
X-159764Y-634521D02*
X-144798Y-638531D01*
X-142598Y-630321D01*
X-157564Y-626310D01*
X-159764Y-634521D01*
X176701Y621183D02*
X191667Y617173D01*
X193867Y625383D01*
X178901Y629393D01*
X176701Y621183D01*
X331454Y554283D02*
X344872Y546536D01*
X349122Y553897D01*
X335704Y561644D01*
X331454Y554283D01*
X546536Y344872D02*
X554283Y331454D01*
X561644Y335704D01*
X553897Y349122D01*
X546536Y344872D01*
X-193867Y-625383D02*
X-178901Y-629393D01*
X-176701Y-621183D01*
X-191667Y-617173D01*
X-193867Y-625383D01*
X-638531Y144798D02*
X-630321Y142598D01*
X-626310Y157564D01*
X-634521Y159764D01*
X-638531Y144798D01*
X626310Y-157564D02*
X634521Y-159764D01*
X638531Y-144798D01*
X630321Y-142598D01*
X626310Y-157564D01*
X142598Y630321D02*
X157564Y626310D01*
X159764Y634521D01*
X144798Y638531D01*
X142598Y630321D01*
X617173Y191667D02*
X621183Y176701D01*
X629393Y178901D01*
X625383Y193867D01*
X617173Y191667D01*
X438654Y474575D02*
X449610Y463619D01*
X455620Y469629D01*
X444664Y480585D01*
X438654Y474575D01*
X300878Y571936D02*
X314296Y564189D01*
X318546Y571550D01*
X305128Y579297D01*
X300878Y571936D01*
X-318546Y-571550D02*
X-305128Y-579297D01*
X-300878Y-571936D01*
X-314296Y-564189D01*
X-318546Y-571550D01*
X463619Y449610D02*
X474575Y438654D01*
X480585Y444664D01*
X469629Y455620D01*
X463619Y449610D01*
X463619Y-449610D02*
X469629Y-455620D01*
X480585Y-444664D01*
X474575Y-438654D01*
X463619Y-449610D01*
X300878Y-571936D02*
X305128Y-579297D01*
X318546Y-571550D01*
X314296Y-564189D01*
X300878Y-571936D01*
X-629393Y178901D02*
X-621183Y176701D01*
X-617173Y191667D01*
X-625383Y193867D01*
X-629393Y178901D01*
X617173Y-191667D02*
X625383Y-193867D01*
X629393Y-178901D01*
X621183Y-176701D01*
X617173Y-191667D01*
X626310Y157564D02*
X630321Y142598D01*
X638531Y144798D01*
X634521Y159764D01*
X626310Y157564D01*
X-638531Y-144798D02*
X-634521Y-159764D01*
X-626310Y-157564D01*
X-630321Y-142598D01*
X-638531Y-144798D01*
X438654Y-474575D02*
X444664Y-480585D01*
X455620Y-469629D01*
X449610Y-463619D01*
X438654Y-474575D01*
X-629393Y-178901D02*
X-625383Y-193867D01*
X-617173Y-191667D01*
X-621183Y-176701D01*
X-629393Y-178901D01*
X546536Y-344872D02*
X553897Y-349122D01*
X561644Y-335704D01*
X554283Y-331454D01*
X546536Y-344872D01*
X-455620Y469629D02*
X-449610Y463619D01*
X-438654Y474575D01*
X-444664Y480585D01*
X-455620Y469629D01*
X564189Y-314296D02*
X571550Y-318546D01*
X579297Y-305128D01*
X571936Y-300878D01*
X564189Y-314296D01*
X-579297Y305128D02*
X-571936Y300878D01*
X-564189Y314296D01*
X-571550Y318546D01*
X-579297Y305128D01*
X-318546Y571550D02*
X-314296Y564189D01*
X-300878Y571936D01*
X-305128Y579297D01*
X-318546Y571550D01*
X331454Y-554283D02*
X335704Y-561644D01*
X349122Y-553897D01*
X344872Y-546536D01*
X331454Y-554283D01*
X-159764Y634521D02*
X-157564Y626310D01*
X-142598Y630321D01*
X-144798Y638531D01*
X-159764Y634521D01*
X142598Y-630321D02*
X144798Y-638531D01*
X159764Y-634521D01*
X157564Y-626310D01*
X142598Y-630321D01*
X-193867Y625383D02*
X-191667Y617173D01*
X-176701Y621183D01*
X-178901Y629393D01*
X-193867Y625383D01*
X176701Y-621183D02*
X178901Y-629393D01*
X193867Y-625383D01*
X191667Y-617173D01*
X176701Y-621183D01*
X-349122Y-553897D02*
X-335704Y-561644D01*
X-331454Y-554283D01*
X-344872Y-546536D01*
X-349122Y-553897D01*
X-480585Y-444664D02*
X-469629Y-455620D01*
X-463619Y-449610D01*
X-474575Y-438654D01*
X-480585Y-444664D01*
X-480585Y444664D02*
X-474575Y438654D01*
X-463619Y449610D01*
X-469629Y455620D01*
X-480585Y444664D01*
X-455620Y-469629D02*
X-444664Y-480585D01*
X-438654Y-474575D01*
X-449610Y-463619D01*
X-455620Y-469629D01*
X-561644Y-335704D02*
X-553897Y-349122D01*
X-546536Y-344872D01*
X-554283Y-331454D01*
X-561644Y-335704D01*
X-561644Y335704D02*
X-554283Y331454D01*
X-546536Y344872D01*
X-553897Y349122D01*
X-561644Y335704D01*
X-349122Y553897D02*
X-344872Y546536D01*
X-331454Y554283D01*
X-335704Y561644D01*
X-349122Y553897D01*
X-558800Y-63500D02*
X-558752Y-64607D01*
X-558607Y-65705D01*
X-558367Y-66787D01*
X-558034Y-67844D01*
X-557610Y-68867D01*
X-557099Y-69850D01*
X-556503Y-70784D01*
X-555829Y-71663D01*
X-555080Y-72480D01*
X-554263Y-73229D01*
X-553384Y-73903D01*
X-552450Y-74499D01*
X-551467Y-75010D01*
X-550444Y-75434D01*
X-549387Y-75767D01*
X-548305Y-76007D01*
X-547207Y-76152D01*
X-546100Y-76200D01*
X-393700Y-76200D01*
X-392593Y-76152D01*
X-391495Y-76007D01*
X-390413Y-75767D01*
X-389356Y-75434D01*
X-388333Y-75010D01*
X-387350Y-74499D01*
X-386416Y-73903D01*
X-385537Y-73229D01*
X-384720Y-72480D01*
X-383971Y-71663D01*
X-383297Y-70784D01*
X-382701Y-69850D01*
X-382190Y-68867D01*
X-381766Y-67844D01*
X-381433Y-66787D01*
X-381193Y-65705D01*
X-381048Y-64607D01*
X-381000Y-63500D01*
X-381000Y-50800D01*
X-381048Y-49693D01*
X-381193Y-48595D01*
X-381433Y-47513D01*
X-381766Y-46456D01*
X-382190Y-45433D01*
X-382701Y-44450D01*
X-383297Y-43516D01*
X-383971Y-42637D01*
X-384720Y-41820D01*
X-385537Y-41071D01*
X-386416Y-40397D01*
X-387350Y-39801D01*
X-388333Y-39290D01*
X-389356Y-38866D01*
X-390413Y-38533D01*
X-391495Y-38293D01*
X-392593Y-38148D01*
X-393700Y-38100D01*
X-546100Y-38100D01*
X-547207Y-38148D01*
X-548305Y-38293D01*
X-549387Y-38533D01*
X-550444Y-38866D01*
X-551467Y-39290D01*
X-552450Y-39801D01*
X-553384Y-40397D01*
X-554263Y-41071D01*
X-555080Y-41820D01*
X-555829Y-42637D01*
X-556503Y-43516D01*
X-557099Y-44450D01*
X-557610Y-45433D01*
X-558034Y-46456D01*
X-558367Y-47513D01*
X-558607Y-48595D01*
X-558752Y-49693D01*
X-558800Y-50800D01*
X-558800Y-63500D01*
X-125000Y-310000D02*
X-124848Y-313486D01*
X-124392Y-316946D01*
X-123637Y-320353D01*
X-122588Y-323681D01*
X-121252Y-326905D01*
X-119641Y-330000D01*
X-117766Y-332943D01*
X-115642Y-335712D01*
X-113284Y-338284D01*
X-110712Y-340642D01*
X-107943Y-342766D01*
X-105000Y-344641D01*
X-101905Y-346252D01*
X-98681Y-347588D01*
X-95353Y-348637D01*
X-91946Y-349392D01*
X-88486Y-349848D01*
X-85000Y-350000D01*
X85000Y-350000D01*
X88486Y-349848D01*
X91946Y-349392D01*
X95353Y-348637D01*
X98681Y-347588D01*
X101905Y-346252D01*
X105000Y-344641D01*
X107943Y-342766D01*
X110712Y-340642D01*
X113284Y-338284D01*
X115642Y-335712D01*
X117766Y-332943D01*
X119641Y-330000D01*
X121252Y-326905D01*
X122588Y-323681D01*
X123637Y-320353D01*
X124392Y-316946D01*
X124848Y-313486D01*
X125000Y-310000D01*
X125000Y-240000D01*
X124848Y-236514D01*
X124392Y-233054D01*
X123637Y-229647D01*
X122588Y-226319D01*
X121252Y-223095D01*
X119641Y-220000D01*
X117766Y-217057D01*
X115642Y-214289D01*
X113284Y-211716D01*
X110712Y-209358D01*
X107943Y-207234D01*
X105000Y-205359D01*
X101905Y-203748D01*
X98681Y-202412D01*
X95353Y-201363D01*
X91946Y-200608D01*
X88486Y-200152D01*
X85000Y-200000D01*
X-85000Y-200000D01*
X-88486Y-200152D01*
X-91946Y-200608D01*
X-95353Y-201363D01*
X-98681Y-202412D01*
X-101905Y-203748D01*
X-105000Y-205359D01*
X-107943Y-207234D01*
X-110712Y-209358D01*
X-113284Y-211716D01*
X-115642Y-214289D01*
X-117766Y-217057D01*
X-119641Y-220000D01*
X-121252Y-223095D01*
X-122588Y-226319D01*
X-123637Y-229647D01*
X-124392Y-233054D01*
X-124848Y-236514D01*
X-125000Y-240000D01*
X-125000Y-310000D01*
X67070Y144244D02*
X66994Y143176D01*
X66841Y142115D01*
X66613Y141068D01*
X66311Y140040D01*
X65937Y139036D01*
X65492Y138061D01*
X64978Y137121D01*
X64399Y136220D01*
X63757Y135362D01*
X63055Y134552D01*
X62298Y133795D01*
X61488Y133093D01*
X60630Y132451D01*
X59729Y131872D01*
X58789Y131358D01*
X57814Y130913D01*
X56810Y130539D01*
X55782Y130237D01*
X54735Y130009D01*
X53674Y129856D01*
X52606Y129780D01*
X51534Y129780D01*
X50466Y129856D01*
X49405Y130009D01*
X48358Y130237D01*
X47330Y130539D01*
X46326Y130913D01*
X45351Y131358D01*
X44411Y131872D01*
X43510Y132451D01*
X42652Y133093D01*
X41842Y133795D01*
X41085Y134552D01*
X40383Y135362D01*
X39741Y136220D01*
X39162Y137121D01*
X38648Y138061D01*
X38203Y139036D01*
X37829Y140040D01*
X37527Y141068D01*
X37299Y142115D01*
X37146Y143176D01*
X37070Y144244D01*
X37070Y145316D01*
X37146Y146384D01*
X37299Y147445D01*
X37527Y148492D01*
X37829Y149520D01*
X38203Y150524D01*
X38648Y151499D01*
X39162Y152439D01*
X39741Y153340D01*
X40383Y154198D01*
X41085Y155008D01*
X41842Y155765D01*
X42652Y156467D01*
X43510Y157109D01*
X44411Y157688D01*
X45351Y158202D01*
X46326Y158647D01*
X47330Y159021D01*
X48358Y159323D01*
X49405Y159551D01*
X50466Y159704D01*
X51534Y159780D01*
X52606Y159780D01*
X53674Y159704D01*
X54735Y159551D01*
X55782Y159323D01*
X56810Y159021D01*
X57814Y158647D01*
X58789Y158202D01*
X59729Y157688D01*
X60630Y157109D01*
X61488Y156467D01*
X62298Y155765D01*
X63055Y155008D01*
X63757Y154198D01*
X64399Y153340D01*
X64978Y152439D01*
X65492Y151499D01*
X65937Y150524D01*
X66311Y149520D01*
X66613Y148492D01*
X66841Y147445D01*
X66994Y146384D01*
X67070Y145316D01*
X67070Y144244D01*
X67070Y-145316D02*
X66994Y-146384D01*
X66841Y-147445D01*
X66613Y-148492D01*
X66311Y-149520D01*
X65937Y-150524D01*
X65492Y-151499D01*
X64978Y-152439D01*
X64399Y-153340D01*
X63757Y-154198D01*
X63055Y-155008D01*
X62298Y-155765D01*
X61488Y-156467D01*
X60630Y-157109D01*
X59729Y-157688D01*
X58789Y-158202D01*
X57814Y-158647D01*
X56810Y-159021D01*
X55782Y-159323D01*
X54735Y-159551D01*
X53674Y-159704D01*
X52606Y-159780D01*
X51534Y-159780D01*
X50466Y-159704D01*
X49405Y-159551D01*
X48358Y-159323D01*
X47330Y-159021D01*
X46326Y-158647D01*
X45351Y-158202D01*
X44411Y-157688D01*
X43510Y-157109D01*
X42652Y-156467D01*
X41842Y-155765D01*
X41085Y-155008D01*
X40383Y-154198D01*
X39741Y-153340D01*
X39162Y-152439D01*
X38648Y-151499D01*
X38203Y-150524D01*
X37829Y-149520D01*
X37527Y-148492D01*
X37299Y-147445D01*
X37146Y-146384D01*
X37070Y-145316D01*
X37070Y-144244D01*
X37146Y-143176D01*
X37299Y-142115D01*
X37527Y-141068D01*
X37829Y-140040D01*
X38203Y-139036D01*
X38648Y-138061D01*
X39162Y-137121D01*
X39741Y-136220D01*
X40383Y-135362D01*
X41085Y-134552D01*
X41842Y-133795D01*
X42652Y-133093D01*
X43510Y-132451D01*
X44411Y-131872D01*
X45351Y-131358D01*
X46326Y-130913D01*
X47330Y-130539D01*
X48358Y-130237D01*
X49405Y-130009D01*
X50466Y-129856D01*
X51534Y-129780D01*
X52606Y-129780D01*
X53674Y-129856D01*
X54735Y-130009D01*
X55782Y-130237D01*
X56810Y-130539D01*
X57814Y-130913D01*
X58789Y-131358D01*
X59729Y-131872D01*
X60630Y-132451D01*
X61488Y-133093D01*
X62298Y-133795D01*
X63055Y-134552D01*
X63757Y-135362D01*
X64399Y-136220D01*
X64978Y-137121D01*
X65492Y-138061D01*
X65937Y-139036D01*
X66311Y-140040D01*
X66613Y-141068D01*
X66841Y-142115D01*
X66994Y-143176D01*
X67070Y-144244D01*
X67070Y-145316D01*
X263740Y599984D02*
X263664Y598916D01*
X263511Y597855D01*
X263283Y596808D01*
X262981Y595780D01*
X262607Y594776D01*
X262162Y593801D01*
X261648Y592861D01*
X261069Y591960D01*
X260427Y591102D01*
X259725Y590292D01*
X258968Y589535D01*
X258158Y588833D01*
X257300Y588191D01*
X256399Y587612D01*
X255459Y587098D01*
X254484Y586653D01*
X253480Y586279D01*
X252452Y585977D01*
X251405Y585749D01*
X250344Y585596D01*
X249276Y585520D01*
X248204Y585520D01*
X247136Y585596D01*
X246075Y585749D01*
X245028Y585977D01*
X244000Y586279D01*
X242996Y586653D01*
X242021Y587098D01*
X241081Y587612D01*
X240180Y588191D01*
X239322Y588833D01*
X238512Y589535D01*
X237755Y590292D01*
X237053Y591102D01*
X236411Y591960D01*
X235832Y592861D01*
X235318Y593801D01*
X234873Y594776D01*
X234499Y595780D01*
X234197Y596808D01*
X233969Y597855D01*
X233816Y598916D01*
X233740Y599984D01*
X233740Y601056D01*
X233816Y602124D01*
X233969Y603185D01*
X234197Y604232D01*
X234499Y605260D01*
X234873Y606264D01*
X235318Y607239D01*
X235832Y608179D01*
X236411Y609080D01*
X237053Y609938D01*
X237755Y610748D01*
X238512Y611505D01*
X239322Y612207D01*
X240180Y612849D01*
X241081Y613428D01*
X242021Y613942D01*
X242996Y614387D01*
X244000Y614761D01*
X245028Y615063D01*
X246075Y615291D01*
X247136Y615444D01*
X248204Y615520D01*
X249276Y615520D01*
X250344Y615444D01*
X251405Y615291D01*
X252452Y615063D01*
X253480Y614761D01*
X254484Y614387D01*
X255459Y613942D01*
X256399Y613428D01*
X257300Y612849D01*
X258158Y612207D01*
X258968Y611505D01*
X259725Y610748D01*
X260427Y609938D01*
X261069Y609080D01*
X261648Y608179D01*
X262162Y607239D01*
X262607Y606264D01*
X262981Y605260D01*
X263283Y604232D01*
X263511Y603185D01*
X263664Y602124D01*
X263740Y601056D01*
X263740Y599984D01*
X-233740Y599984D02*
X-233816Y598916D01*
X-233969Y597855D01*
X-234197Y596808D01*
X-234499Y595780D01*
X-234873Y594776D01*
X-235318Y593801D01*
X-235832Y592861D01*
X-236411Y591960D01*
X-237053Y591102D01*
X-237755Y590292D01*
X-238512Y589535D01*
X-239322Y588833D01*
X-240180Y588191D01*
X-241081Y587612D01*
X-242021Y587098D01*
X-242996Y586653D01*
X-244000Y586279D01*
X-245028Y585977D01*
X-246075Y585749D01*
X-247136Y585596D01*
X-248204Y585520D01*
X-249276Y585520D01*
X-250344Y585596D01*
X-251405Y585749D01*
X-252452Y585977D01*
X-253480Y586279D01*
X-254484Y586653D01*
X-255459Y587098D01*
X-256399Y587612D01*
X-257300Y588191D01*
X-258158Y588833D01*
X-258968Y589535D01*
X-259725Y590292D01*
X-260427Y591102D01*
X-261069Y591960D01*
X-261648Y592861D01*
X-262162Y593801D01*
X-262607Y594776D01*
X-262981Y595780D01*
X-263283Y596808D01*
X-263511Y597855D01*
X-263664Y598916D01*
X-263740Y599984D01*
X-263740Y601056D01*
X-263664Y602124D01*
X-263511Y603185D01*
X-263283Y604232D01*
X-262981Y605260D01*
X-262607Y606264D01*
X-262162Y607239D01*
X-261648Y608179D01*
X-261069Y609080D01*
X-260427Y609938D01*
X-259725Y610748D01*
X-258968Y611505D01*
X-258158Y612207D01*
X-257300Y612849D01*
X-256399Y613428D01*
X-255459Y613942D01*
X-254484Y614387D01*
X-253480Y614761D01*
X-252452Y615063D01*
X-251405Y615291D01*
X-250344Y615444D01*
X-249276Y615520D01*
X-248204Y615520D01*
X-247136Y615444D01*
X-246075Y615291D01*
X-245028Y615063D01*
X-244000Y614761D01*
X-242996Y614387D01*
X-242021Y613942D01*
X-241081Y613428D01*
X-240180Y612849D01*
X-239322Y612207D01*
X-238512Y611505D01*
X-237755Y610748D01*
X-237053Y609938D01*
X-236411Y609080D01*
X-235832Y608179D01*
X-235318Y607239D01*
X-234873Y606264D01*
X-234499Y605260D01*
X-234197Y604232D01*
X-233969Y603185D01*
X-233816Y602124D01*
X-233740Y601056D01*
X-233740Y599984D01*
X-629440Y84304D02*
X-629516Y83236D01*
X-629669Y82175D01*
X-629897Y81128D01*
X-630199Y80100D01*
X-630573Y79096D01*
X-631018Y78121D01*
X-631532Y77181D01*
X-632111Y76280D01*
X-632753Y75422D01*
X-633455Y74612D01*
X-634212Y73855D01*
X-635022Y73153D01*
X-635880Y72511D01*
X-636781Y71932D01*
X-637721Y71418D01*
X-638696Y70973D01*
X-639700Y70599D01*
X-640728Y70297D01*
X-641775Y70069D01*
X-642836Y69916D01*
X-643904Y69840D01*
X-644976Y69840D01*
X-646044Y69916D01*
X-647105Y70069D01*
X-648152Y70297D01*
X-649180Y70599D01*
X-650184Y70973D01*
X-651159Y71418D01*
X-652099Y71932D01*
X-653000Y72511D01*
X-653858Y73153D01*
X-654668Y73855D01*
X-655425Y74612D01*
X-656127Y75422D01*
X-656769Y76280D01*
X-657348Y77181D01*
X-657862Y78121D01*
X-658307Y79096D01*
X-658681Y80100D01*
X-658983Y81128D01*
X-659211Y82175D01*
X-659364Y83236D01*
X-659440Y84304D01*
X-659440Y85376D01*
X-659364Y86444D01*
X-659211Y87505D01*
X-658983Y88552D01*
X-658681Y89580D01*
X-658307Y90584D01*
X-657862Y91559D01*
X-657348Y92499D01*
X-656769Y93400D01*
X-656127Y94258D01*
X-655425Y95068D01*
X-654668Y95825D01*
X-653858Y96527D01*
X-653000Y97169D01*
X-652099Y97748D01*
X-651159Y98262D01*
X-650184Y98707D01*
X-649180Y99081D01*
X-648152Y99383D01*
X-647105Y99611D01*
X-646044Y99764D01*
X-644976Y99840D01*
X-643904Y99840D01*
X-642836Y99764D01*
X-641775Y99611D01*
X-640728Y99383D01*
X-639700Y99081D01*
X-638696Y98707D01*
X-637721Y98262D01*
X-636781Y97748D01*
X-635880Y97169D01*
X-635022Y96527D01*
X-634212Y95825D01*
X-633455Y95068D01*
X-632753Y94258D01*
X-632111Y93400D01*
X-631532Y92499D01*
X-631018Y91559D01*
X-630573Y90584D01*
X-630199Y89580D01*
X-629897Y88552D01*
X-629669Y87505D01*
X-629516Y86444D01*
X-629440Y85376D01*
X-629440Y84304D01*
X-380690Y-516216D02*
X-380766Y-517284D01*
X-380919Y-518345D01*
X-381147Y-519392D01*
X-381449Y-520420D01*
X-381823Y-521424D01*
X-382268Y-522399D01*
X-382782Y-523339D01*
X-383361Y-524240D01*
X-384003Y-525098D01*
X-384705Y-525908D01*
X-385462Y-526665D01*
X-386272Y-527367D01*
X-387130Y-528009D01*
X-388031Y-528588D01*
X-388971Y-529102D01*
X-389946Y-529547D01*
X-390950Y-529921D01*
X-391978Y-530223D01*
X-393025Y-530451D01*
X-394086Y-530604D01*
X-395154Y-530680D01*
X-396226Y-530680D01*
X-397294Y-530604D01*
X-398355Y-530451D01*
X-399402Y-530223D01*
X-400430Y-529921D01*
X-401434Y-529547D01*
X-402409Y-529102D01*
X-403349Y-528588D01*
X-404250Y-528009D01*
X-405108Y-527367D01*
X-405918Y-526665D01*
X-406675Y-525908D01*
X-407377Y-525098D01*
X-408019Y-524240D01*
X-408598Y-523339D01*
X-409112Y-522399D01*
X-409557Y-521424D01*
X-409931Y-520420D01*
X-410233Y-519392D01*
X-410461Y-518345D01*
X-410614Y-517284D01*
X-410690Y-516216D01*
X-410690Y-515144D01*
X-410614Y-514076D01*
X-410461Y-513015D01*
X-410233Y-511968D01*
X-409931Y-510940D01*
X-409557Y-509936D01*
X-409112Y-508961D01*
X-408598Y-508021D01*
X-408019Y-507120D01*
X-407377Y-506262D01*
X-406675Y-505452D01*
X-405918Y-504695D01*
X-405108Y-503993D01*
X-404250Y-503351D01*
X-403349Y-502772D01*
X-402409Y-502258D01*
X-401434Y-501813D01*
X-400430Y-501439D01*
X-399402Y-501137D01*
X-398355Y-500909D01*
X-397294Y-500756D01*
X-396226Y-500680D01*
X-395154Y-500680D01*
X-394086Y-500756D01*
X-393025Y-500909D01*
X-391978Y-501137D01*
X-390950Y-501439D01*
X-389946Y-501813D01*
X-388971Y-502258D01*
X-388031Y-502772D01*
X-387130Y-503351D01*
X-386272Y-503993D01*
X-385462Y-504695D01*
X-384705Y-505452D01*
X-384003Y-506262D01*
X-383361Y-507120D01*
X-382782Y-508021D01*
X-382268Y-508961D01*
X-381823Y-509936D01*
X-381449Y-510940D01*
X-381147Y-511968D01*
X-380919Y-513015D01*
X-380766Y-514076D01*
X-380690Y-515144D01*
X-380690Y-516216D01*
X410690Y-516216D02*
X410614Y-517284D01*
X410461Y-518345D01*
X410233Y-519392D01*
X409931Y-520420D01*
X409557Y-521424D01*
X409112Y-522399D01*
X408598Y-523339D01*
X408019Y-524240D01*
X407377Y-525098D01*
X406675Y-525908D01*
X405918Y-526665D01*
X405108Y-527367D01*
X404250Y-528009D01*
X403349Y-528588D01*
X402409Y-529102D01*
X401434Y-529547D01*
X400430Y-529921D01*
X399402Y-530223D01*
X398355Y-530451D01*
X397294Y-530604D01*
X396226Y-530680D01*
X395154Y-530680D01*
X394086Y-530604D01*
X393025Y-530451D01*
X391978Y-530223D01*
X390950Y-529921D01*
X389946Y-529547D01*
X388971Y-529102D01*
X388031Y-528588D01*
X387130Y-528009D01*
X386272Y-527367D01*
X385462Y-526665D01*
X384705Y-525908D01*
X384003Y-525098D01*
X383361Y-524240D01*
X382782Y-523339D01*
X382268Y-522399D01*
X381823Y-521424D01*
X381449Y-520420D01*
X381147Y-519392D01*
X380919Y-518345D01*
X380766Y-517284D01*
X380690Y-516216D01*
X380690Y-515144D01*
X380766Y-514076D01*
X380919Y-513015D01*
X381147Y-511968D01*
X381449Y-510940D01*
X381823Y-509936D01*
X382268Y-508961D01*
X382782Y-508021D01*
X383361Y-507120D01*
X384003Y-506262D01*
X384705Y-505452D01*
X385462Y-504695D01*
X386272Y-503993D01*
X387130Y-503351D01*
X388031Y-502772D01*
X388971Y-502258D01*
X389946Y-501813D01*
X390950Y-501439D01*
X391978Y-501137D01*
X393025Y-500909D01*
X394086Y-500756D01*
X395154Y-500680D01*
X396226Y-500680D01*
X397294Y-500756D01*
X398355Y-500909D01*
X399402Y-501137D01*
X400430Y-501439D01*
X401434Y-501813D01*
X402409Y-502258D01*
X403349Y-502772D01*
X404250Y-503351D01*
X405108Y-503993D01*
X405918Y-504695D01*
X406675Y-505452D01*
X407377Y-506262D01*
X408019Y-507120D01*
X408598Y-508021D01*
X409112Y-508961D01*
X409557Y-509936D01*
X409931Y-510940D01*
X410233Y-511968D01*
X410461Y-513015D01*
X410614Y-514076D01*
X410690Y-515144D01*
X410690Y-516216D01*
X659440Y84304D02*
X659364Y83236D01*
X659211Y82175D01*
X658983Y81128D01*
X658681Y80100D01*
X658307Y79096D01*
X657862Y78121D01*
X657348Y77181D01*
X656769Y76280D01*
X656127Y75422D01*
X655425Y74612D01*
X654668Y73855D01*
X653858Y73153D01*
X653000Y72511D01*
X652099Y71932D01*
X651159Y71418D01*
X650184Y70973D01*
X649180Y70599D01*
X648152Y70297D01*
X647105Y70069D01*
X646044Y69916D01*
X644976Y69840D01*
X643904Y69840D01*
X642836Y69916D01*
X641775Y70069D01*
X640728Y70297D01*
X639700Y70599D01*
X638696Y70973D01*
X637721Y71418D01*
X636781Y71932D01*
X635880Y72511D01*
X635022Y73153D01*
X634212Y73855D01*
X633455Y74612D01*
X632753Y75422D01*
X632111Y76280D01*
X631532Y77181D01*
X631018Y78121D01*
X630573Y79096D01*
X630199Y80100D01*
X629897Y81128D01*
X629669Y82175D01*
X629516Y83236D01*
X629440Y84304D01*
X629440Y85376D01*
X629516Y86444D01*
X629669Y87505D01*
X629897Y88552D01*
X630199Y89580D01*
X630573Y90584D01*
X631018Y91559D01*
X631532Y92499D01*
X632111Y93400D01*
X632753Y94258D01*
X633455Y95068D01*
X634212Y95825D01*
X635022Y96527D01*
X635880Y97169D01*
X636781Y97748D01*
X637721Y98262D01*
X638696Y98707D01*
X639700Y99081D01*
X640728Y99383D01*
X641775Y99611D01*
X642836Y99764D01*
X643904Y99840D01*
X644976Y99840D01*
X646044Y99764D01*
X647105Y99611D01*
X648152Y99383D01*
X649180Y99081D01*
X650184Y98707D01*
X651159Y98262D01*
X652099Y97748D01*
X653000Y97169D01*
X653858Y96527D01*
X654668Y95825D01*
X655425Y95068D01*
X656127Y94258D01*
X656769Y93400D01*
X657348Y92499D01*
X657862Y91559D01*
X658307Y90584D01*
X658681Y89580D01*
X658983Y88552D01*
X659211Y87505D01*
X659364Y86444D01*
X659440Y85376D01*
X659440Y84304D01*
X-135000Y259274D02*
X-135076Y258206D01*
X-135229Y257145D01*
X-135457Y256098D01*
X-135759Y255070D01*
X-136133Y254066D01*
X-136578Y253091D01*
X-137092Y252151D01*
X-137671Y251250D01*
X-138313Y250392D01*
X-139015Y249582D01*
X-139772Y248825D01*
X-140582Y248123D01*
X-141440Y247481D01*
X-142341Y246902D01*
X-143281Y246388D01*
X-144256Y245943D01*
X-145260Y245569D01*
X-146288Y245267D01*
X-147335Y245039D01*
X-148396Y244886D01*
X-149464Y244810D01*
X-150536Y244810D01*
X-151604Y244886D01*
X-152665Y245039D01*
X-153712Y245267D01*
X-154740Y245569D01*
X-155744Y245943D01*
X-156719Y246388D01*
X-157659Y246902D01*
X-158560Y247481D01*
X-159418Y248123D01*
X-160228Y248825D01*
X-160985Y249582D01*
X-161687Y250392D01*
X-162329Y251250D01*
X-162908Y252151D01*
X-163422Y253091D01*
X-163867Y254066D01*
X-164241Y255070D01*
X-164543Y256098D01*
X-164771Y257145D01*
X-164924Y258206D01*
X-165000Y259274D01*
X-165000Y260346D01*
X-164924Y261414D01*
X-164771Y262475D01*
X-164543Y263522D01*
X-164241Y264550D01*
X-163867Y265554D01*
X-163422Y266529D01*
X-162908Y267469D01*
X-162329Y268370D01*
X-161687Y269228D01*
X-160985Y270038D01*
X-160228Y270795D01*
X-159418Y271497D01*
X-158560Y272139D01*
X-157659Y272718D01*
X-156719Y273232D01*
X-155744Y273677D01*
X-154740Y274051D01*
X-153712Y274353D01*
X-152665Y274581D01*
X-151604Y274734D01*
X-150536Y274810D01*
X-149464Y274810D01*
X-148396Y274734D01*
X-147335Y274581D01*
X-146288Y274353D01*
X-145260Y274051D01*
X-144256Y273677D01*
X-143281Y273232D01*
X-142341Y272718D01*
X-141440Y272139D01*
X-140582Y271497D01*
X-139772Y270795D01*
X-139015Y270038D01*
X-138313Y269228D01*
X-137671Y268370D01*
X-137092Y267469D01*
X-136578Y266529D01*
X-136133Y265554D01*
X-135759Y264550D01*
X-135457Y263522D01*
X-135229Y262475D01*
X-135076Y261414D01*
X-135000Y260346D01*
X-135000Y259274D01*
X305000Y-536D02*
X304924Y-1604D01*
X304771Y-2665D01*
X304543Y-3712D01*
X304241Y-4740D01*
X303867Y-5744D01*
X303422Y-6719D01*
X302908Y-7659D01*
X302329Y-8560D01*
X301687Y-9418D01*
X300985Y-10228D01*
X300228Y-10985D01*
X299418Y-11687D01*
X298560Y-12329D01*
X297659Y-12908D01*
X296719Y-13422D01*
X295744Y-13867D01*
X294740Y-14241D01*
X293712Y-14543D01*
X292665Y-14771D01*
X291604Y-14924D01*
X290536Y-15000D01*
X289464Y-15000D01*
X288396Y-14924D01*
X287335Y-14771D01*
X286288Y-14543D01*
X285260Y-14241D01*
X284256Y-13867D01*
X283281Y-13422D01*
X282341Y-12908D01*
X281440Y-12329D01*
X280582Y-11687D01*
X279772Y-10985D01*
X279015Y-10228D01*
X278313Y-9418D01*
X277671Y-8560D01*
X277092Y-7659D01*
X276578Y-6719D01*
X276133Y-5744D01*
X275759Y-4740D01*
X275457Y-3712D01*
X275229Y-2665D01*
X275076Y-1604D01*
X275000Y-536D01*
X275000Y536D01*
X275076Y1604D01*
X275229Y2665D01*
X275457Y3712D01*
X275759Y4740D01*
X276133Y5744D01*
X276578Y6719D01*
X277092Y7659D01*
X277671Y8560D01*
X278313Y9418D01*
X279015Y10228D01*
X279772Y10985D01*
X280582Y11687D01*
X281440Y12329D01*
X282341Y12908D01*
X283281Y13422D01*
X284256Y13867D01*
X285260Y14241D01*
X286288Y14543D01*
X287335Y14771D01*
X288396Y14924D01*
X289464Y15000D01*
X290536Y15000D01*
X291604Y14924D01*
X292665Y14771D01*
X293712Y14543D01*
X294740Y14241D01*
X295744Y13867D01*
X296719Y13422D01*
X297659Y12908D01*
X298560Y12329D01*
X299418Y11687D01*
X300228Y10985D01*
X300985Y10228D01*
X301687Y9418D01*
X302329Y8560D01*
X302908Y7659D01*
X303422Y6719D01*
X303867Y5744D01*
X304241Y4740D01*
X304543Y3712D01*
X304771Y2665D01*
X304924Y1604D01*
X305000Y536D01*
X305000Y-536D01*
X-135000Y-260346D02*
X-135076Y-261414D01*
X-135229Y-262475D01*
X-135457Y-263522D01*
X-135759Y-264550D01*
X-136133Y-265554D01*
X-136578Y-266529D01*
X-137092Y-267469D01*
X-137671Y-268370D01*
X-138313Y-269228D01*
X-139015Y-270038D01*
X-139772Y-270795D01*
X-140582Y-271497D01*
X-141440Y-272139D01*
X-142341Y-272718D01*
X-143281Y-273232D01*
X-144256Y-273677D01*
X-145260Y-274051D01*
X-146288Y-274353D01*
X-147335Y-274581D01*
X-148396Y-274734D01*
X-149464Y-274810D01*
X-150536Y-274810D01*
X-151604Y-274734D01*
X-152665Y-274581D01*
X-153712Y-274353D01*
X-154740Y-274051D01*
X-155744Y-273677D01*
X-156719Y-273232D01*
X-157659Y-272718D01*
X-158560Y-272139D01*
X-159418Y-271497D01*
X-160228Y-270795D01*
X-160985Y-270038D01*
X-161687Y-269228D01*
X-162329Y-268370D01*
X-162908Y-267469D01*
X-163422Y-266529D01*
X-163867Y-265554D01*
X-164241Y-264550D01*
X-164543Y-263522D01*
X-164771Y-262475D01*
X-164924Y-261414D01*
X-165000Y-260346D01*
X-165000Y-259274D01*
X-164924Y-258206D01*
X-164771Y-257145D01*
X-164543Y-256098D01*
X-164241Y-255070D01*
X-163867Y-254066D01*
X-163422Y-253091D01*
X-162908Y-252151D01*
X-162329Y-251250D01*
X-161687Y-250392D01*
X-160985Y-249582D01*
X-160228Y-248825D01*
X-159418Y-248123D01*
X-158560Y-247481D01*
X-157659Y-246902D01*
X-156719Y-246388D01*
X-155744Y-245943D01*
X-154740Y-245569D01*
X-153712Y-245267D01*
X-152665Y-245039D01*
X-151604Y-244886D01*
X-150536Y-244810D01*
X-149464Y-244810D01*
X-148396Y-244886D01*
X-147335Y-245039D01*
X-146288Y-245267D01*
X-145260Y-245569D01*
X-144256Y-245943D01*
X-143281Y-246388D01*
X-142341Y-246902D01*
X-141440Y-247481D01*
X-140582Y-248123D01*
X-139772Y-248825D01*
X-139015Y-249582D01*
X-138313Y-250392D01*
X-137671Y-251250D01*
X-137092Y-252151D01*
X-136578Y-253091D01*
X-136133Y-254066D01*
X-135759Y-255070D01*
X-135457Y-256098D01*
X-135229Y-257145D01*
X-135076Y-258206D01*
X-135000Y-259274D01*
X-135000Y-260346D01*
X-365690Y514944D02*
X-365762Y513472D01*
X-365907Y512007D01*
X-366123Y510550D01*
X-366410Y509105D01*
X-366768Y507676D01*
X-367196Y506267D01*
X-367692Y504880D01*
X-368255Y503519D01*
X-368885Y502188D01*
X-369580Y500889D01*
X-370337Y499625D01*
X-371155Y498401D01*
X-372032Y497218D01*
X-372967Y496079D01*
X-373956Y494988D01*
X-374998Y493946D01*
X-376089Y492957D01*
X-377228Y492022D01*
X-378411Y491145D01*
X-379635Y490327D01*
X-380899Y489570D01*
X-382198Y488875D01*
X-383529Y488245D01*
X-384890Y487682D01*
X-386277Y487186D01*
X-387686Y486758D01*
X-389115Y486400D01*
X-390560Y486113D01*
X-392017Y485897D01*
X-393482Y485752D01*
X-394954Y485680D01*
X-396426Y485680D01*
X-397898Y485752D01*
X-399363Y485897D01*
X-400820Y486113D01*
X-402265Y486400D01*
X-403694Y486758D01*
X-405103Y487186D01*
X-406490Y487682D01*
X-407851Y488245D01*
X-409182Y488875D01*
X-410481Y489570D01*
X-411745Y490327D01*
X-412969Y491145D01*
X-414153Y492022D01*
X-415291Y492957D01*
X-416382Y493946D01*
X-417424Y494988D01*
X-418413Y496079D01*
X-419348Y497218D01*
X-420225Y498401D01*
X-421043Y499625D01*
X-421800Y500889D01*
X-422495Y502188D01*
X-423125Y503519D01*
X-423688Y504880D01*
X-424184Y506267D01*
X-424612Y507676D01*
X-424970Y509105D01*
X-425257Y510550D01*
X-425473Y512007D01*
X-425618Y513472D01*
X-425690Y514944D01*
X-425690Y516416D01*
X-425618Y517888D01*
X-425473Y519353D01*
X-425257Y520810D01*
X-424970Y522255D01*
X-424612Y523684D01*
X-424184Y525093D01*
X-423688Y526480D01*
X-423125Y527841D01*
X-422495Y529172D01*
X-421800Y530471D01*
X-421043Y531735D01*
X-420225Y532959D01*
X-419348Y534143D01*
X-418413Y535281D01*
X-417424Y536372D01*
X-416382Y537414D01*
X-415291Y538403D01*
X-414153Y539338D01*
X-412969Y540215D01*
X-411745Y541033D01*
X-410481Y541790D01*
X-409182Y542485D01*
X-407851Y543115D01*
X-406490Y543678D01*
X-405103Y544174D01*
X-403694Y544602D01*
X-402265Y544960D01*
X-400820Y545247D01*
X-399363Y545463D01*
X-397898Y545608D01*
X-396426Y545680D01*
X-394954Y545680D01*
X-393482Y545608D01*
X-392017Y545463D01*
X-390560Y545247D01*
X-389115Y544960D01*
X-387686Y544602D01*
X-386277Y544174D01*
X-384890Y543678D01*
X-383529Y543115D01*
X-382198Y542485D01*
X-380899Y541790D01*
X-379635Y541033D01*
X-378411Y540215D01*
X-377228Y539338D01*
X-376089Y538403D01*
X-374998Y537414D01*
X-373956Y536372D01*
X-372967Y535281D01*
X-372032Y534143D01*
X-371155Y532959D01*
X-370337Y531735D01*
X-369580Y530471D01*
X-368885Y529172D01*
X-368255Y527841D01*
X-367692Y526480D01*
X-367196Y525093D01*
X-366768Y523684D01*
X-366410Y522255D01*
X-366123Y520810D01*
X-365907Y519353D01*
X-365762Y517888D01*
X-365690Y516416D01*
X-365690Y514944D01*
X-218740Y-601258D02*
X-218812Y-602729D01*
X-218957Y-604195D01*
X-219173Y-605652D01*
X-219460Y-607097D01*
X-219818Y-608525D01*
X-220246Y-609935D01*
X-220742Y-611322D01*
X-221306Y-612683D01*
X-221935Y-614014D01*
X-222630Y-615313D01*
X-223387Y-616576D01*
X-224205Y-617801D01*
X-225083Y-618984D01*
X-226017Y-620123D01*
X-227006Y-621214D01*
X-228048Y-622256D01*
X-229139Y-623245D01*
X-230278Y-624179D01*
X-231461Y-625057D01*
X-232685Y-625875D01*
X-233949Y-626632D01*
X-235248Y-627327D01*
X-236579Y-627956D01*
X-237940Y-628520D01*
X-239327Y-629016D01*
X-240736Y-629444D01*
X-242165Y-629802D01*
X-243610Y-630089D01*
X-245067Y-630305D01*
X-246533Y-630449D01*
X-248004Y-630522D01*
X-249477Y-630522D01*
X-250948Y-630449D01*
X-252414Y-630305D01*
X-253871Y-630089D01*
X-255315Y-629802D01*
X-256744Y-629444D01*
X-258153Y-629016D01*
X-259540Y-628520D01*
X-260901Y-627956D01*
X-262233Y-627327D01*
X-263532Y-626632D01*
X-264795Y-625875D01*
X-266020Y-625057D01*
X-267203Y-624179D01*
X-268341Y-623245D01*
X-269433Y-622256D01*
X-270474Y-621214D01*
X-271463Y-620123D01*
X-272398Y-618984D01*
X-273275Y-617801D01*
X-274093Y-616576D01*
X-274851Y-615313D01*
X-275545Y-614014D01*
X-276175Y-612683D01*
X-276738Y-611322D01*
X-277235Y-609935D01*
X-277662Y-608525D01*
X-278020Y-607097D01*
X-278307Y-605652D01*
X-278524Y-604195D01*
X-278668Y-602729D01*
X-278740Y-601258D01*
X-278740Y-599785D01*
X-278668Y-598314D01*
X-278524Y-596848D01*
X-278307Y-595391D01*
X-278020Y-593947D01*
X-277662Y-592518D01*
X-277235Y-591108D01*
X-276738Y-589722D01*
X-276175Y-588361D01*
X-275545Y-587029D01*
X-274851Y-585730D01*
X-274093Y-584467D01*
X-273275Y-583242D01*
X-272398Y-582059D01*
X-271463Y-580921D01*
X-270474Y-579829D01*
X-269433Y-578788D01*
X-268341Y-577799D01*
X-267203Y-576864D01*
X-266020Y-575987D01*
X-264795Y-575168D01*
X-263532Y-574411D01*
X-262233Y-573717D01*
X-260901Y-573087D01*
X-259540Y-572523D01*
X-258153Y-572027D01*
X-256744Y-571600D01*
X-255315Y-571242D01*
X-253871Y-570954D01*
X-252414Y-570738D01*
X-250948Y-570594D01*
X-249477Y-570522D01*
X-248004Y-570522D01*
X-246533Y-570594D01*
X-245067Y-570738D01*
X-243610Y-570954D01*
X-242165Y-571242D01*
X-240736Y-571600D01*
X-239327Y-572027D01*
X-237940Y-572523D01*
X-236579Y-573087D01*
X-235248Y-573717D01*
X-233949Y-574411D01*
X-232685Y-575168D01*
X-231461Y-575987D01*
X-230278Y-576864D01*
X-229139Y-577799D01*
X-228048Y-578788D01*
X-227006Y-579829D01*
X-226017Y-580921D01*
X-225083Y-582059D01*
X-224205Y-583242D01*
X-223387Y-584467D01*
X-222630Y-585730D01*
X-221935Y-587029D01*
X-221306Y-588361D01*
X-220742Y-589722D01*
X-220246Y-591108D01*
X-219818Y-592518D01*
X-219460Y-593947D01*
X-219173Y-595391D01*
X-218957Y-596848D01*
X-218812Y-598314D01*
X-218740Y-599785D01*
X-218740Y-601258D01*
X278740Y-601258D02*
X278668Y-602729D01*
X278524Y-604195D01*
X278307Y-605652D01*
X278020Y-607097D01*
X277662Y-608525D01*
X277235Y-609935D01*
X276738Y-611322D01*
X276175Y-612683D01*
X275545Y-614014D01*
X274851Y-615313D01*
X274093Y-616576D01*
X273275Y-617801D01*
X272398Y-618984D01*
X271463Y-620123D01*
X270474Y-621214D01*
X269433Y-622256D01*
X268341Y-623245D01*
X267203Y-624179D01*
X266020Y-625057D01*
X264795Y-625875D01*
X263532Y-626632D01*
X262233Y-627327D01*
X260901Y-627956D01*
X259540Y-628520D01*
X258153Y-629016D01*
X256744Y-629444D01*
X255315Y-629802D01*
X253871Y-630089D01*
X252414Y-630305D01*
X250948Y-630449D01*
X249477Y-630522D01*
X248004Y-630522D01*
X246533Y-630449D01*
X245067Y-630305D01*
X243610Y-630089D01*
X242165Y-629802D01*
X240736Y-629444D01*
X239327Y-629016D01*
X237940Y-628520D01*
X236579Y-627956D01*
X235248Y-627327D01*
X233949Y-626632D01*
X232685Y-625875D01*
X231461Y-625057D01*
X230278Y-624179D01*
X229139Y-623245D01*
X228048Y-622256D01*
X227006Y-621214D01*
X226017Y-620123D01*
X225083Y-618984D01*
X224205Y-617801D01*
X223387Y-616576D01*
X222630Y-615313D01*
X221935Y-614014D01*
X221306Y-612683D01*
X220742Y-611322D01*
X220246Y-609935D01*
X219818Y-608525D01*
X219460Y-607097D01*
X219173Y-605652D01*
X218957Y-604195D01*
X218812Y-602729D01*
X218740Y-601258D01*
X218740Y-599785D01*
X218812Y-598314D01*
X218957Y-596848D01*
X219173Y-595391D01*
X219460Y-593947D01*
X219818Y-592518D01*
X220246Y-591108D01*
X220742Y-589722D01*
X221306Y-588361D01*
X221935Y-587029D01*
X222630Y-585730D01*
X223387Y-584467D01*
X224205Y-583242D01*
X225083Y-582059D01*
X226017Y-580921D01*
X227006Y-579829D01*
X228048Y-578788D01*
X229139Y-577799D01*
X230278Y-576864D01*
X231461Y-575987D01*
X232685Y-575168D01*
X233949Y-574411D01*
X235248Y-573717D01*
X236579Y-573087D01*
X237940Y-572523D01*
X239327Y-572027D01*
X240736Y-571600D01*
X242165Y-571242D01*
X243610Y-570954D01*
X245067Y-570738D01*
X246533Y-570594D01*
X248004Y-570522D01*
X249477Y-570522D01*
X250948Y-570594D01*
X252414Y-570738D01*
X253871Y-570954D01*
X255315Y-571242D01*
X256744Y-571600D01*
X258153Y-572027D01*
X259540Y-572523D01*
X260901Y-573087D01*
X262233Y-573717D01*
X263532Y-574411D01*
X264795Y-575168D01*
X266020Y-575987D01*
X267203Y-576864D01*
X268341Y-577799D01*
X269433Y-578788D01*
X270474Y-579829D01*
X271463Y-580921D01*
X272398Y-582059D01*
X273275Y-583242D01*
X274093Y-584467D01*
X274851Y-585730D01*
X275545Y-587029D01*
X276175Y-588361D01*
X276738Y-589722D01*
X277235Y-591108D01*
X277662Y-592518D01*
X278020Y-593947D01*
X278307Y-595391D01*
X278524Y-596848D01*
X278668Y-598314D01*
X278740Y-599785D01*
X278740Y-601258D01*
X425690Y514944D02*
X425618Y513472D01*
X425473Y512007D01*
X425257Y510550D01*
X424970Y509105D01*
X424612Y507676D01*
X424184Y506267D01*
X423688Y504880D01*
X423125Y503519D01*
X422495Y502188D01*
X421800Y500889D01*
X421043Y499625D01*
X420225Y498401D01*
X419348Y497218D01*
X418413Y496079D01*
X417424Y494988D01*
X416382Y493946D01*
X415291Y492957D01*
X414153Y492022D01*
X412969Y491145D01*
X411745Y490327D01*
X410481Y489570D01*
X409182Y488875D01*
X407851Y488245D01*
X406490Y487682D01*
X405103Y487186D01*
X403694Y486758D01*
X402265Y486400D01*
X400820Y486113D01*
X399363Y485897D01*
X397898Y485752D01*
X396426Y485680D01*
X394954Y485680D01*
X393482Y485752D01*
X392017Y485897D01*
X390560Y486113D01*
X389115Y486400D01*
X387686Y486758D01*
X386277Y487186D01*
X384890Y487682D01*
X383529Y488245D01*
X382198Y488875D01*
X380899Y489570D01*
X379635Y490327D01*
X378411Y491145D01*
X377228Y492022D01*
X376089Y492957D01*
X374998Y493946D01*
X373956Y494988D01*
X372967Y496079D01*
X372032Y497218D01*
X371155Y498401D01*
X370337Y499625D01*
X369580Y500889D01*
X368885Y502188D01*
X368255Y503519D01*
X367692Y504880D01*
X367196Y506267D01*
X366768Y507676D01*
X366410Y509105D01*
X366123Y510550D01*
X365907Y512007D01*
X365762Y513472D01*
X365690Y514944D01*
X365690Y516416D01*
X365762Y517888D01*
X365907Y519353D01*
X366123Y520810D01*
X366410Y522255D01*
X366768Y523684D01*
X367196Y525093D01*
X367692Y526480D01*
X368255Y527841D01*
X368885Y529172D01*
X369580Y530471D01*
X370337Y531735D01*
X371155Y532959D01*
X372032Y534143D01*
X372967Y535281D01*
X373956Y536372D01*
X374998Y537414D01*
X376089Y538403D01*
X377228Y539338D01*
X378411Y540215D01*
X379635Y541033D01*
X380899Y541790D01*
X382198Y542485D01*
X383529Y543115D01*
X384890Y543678D01*
X386277Y544174D01*
X387686Y544602D01*
X389115Y544960D01*
X390560Y545247D01*
X392017Y545463D01*
X393482Y545608D01*
X394954Y545680D01*
X396426Y545680D01*
X397898Y545608D01*
X399363Y545463D01*
X400820Y545247D01*
X402265Y544960D01*
X403694Y544602D01*
X405103Y544174D01*
X406490Y543678D01*
X407851Y543115D01*
X409182Y542485D01*
X410481Y541790D01*
X411745Y541033D01*
X412969Y540215D01*
X414153Y539338D01*
X415291Y538403D01*
X416382Y537414D01*
X417424Y536372D01*
X418413Y535281D01*
X419348Y534143D01*
X420225Y532959D01*
X421043Y531735D01*
X421800Y530471D01*
X422495Y529172D01*
X423125Y527841D01*
X423688Y526480D01*
X424184Y525093D01*
X424612Y523684D01*
X424970Y522255D01*
X425257Y520810D01*
X425473Y519353D01*
X425618Y517888D01*
X425690Y516416D01*
X425690Y514944D01*
X674440Y-85579D02*
X674368Y-87050D01*
X674223Y-88515D01*
X674007Y-89972D01*
X673720Y-91417D01*
X673362Y-92846D01*
X672934Y-94255D01*
X672438Y-95642D01*
X671875Y-97003D01*
X671245Y-98334D01*
X670550Y-99633D01*
X669793Y-100897D01*
X668975Y-102121D01*
X668098Y-103305D01*
X667163Y-104443D01*
X666174Y-105534D01*
X665132Y-106576D01*
X664041Y-107565D01*
X662903Y-108500D01*
X661719Y-109377D01*
X660495Y-110195D01*
X659231Y-110953D01*
X657932Y-111647D01*
X656601Y-112277D01*
X655240Y-112840D01*
X653853Y-113336D01*
X652444Y-113764D01*
X651015Y-114122D01*
X649570Y-114409D01*
X648113Y-114625D01*
X646648Y-114770D01*
X645176Y-114842D01*
X643704Y-114842D01*
X642232Y-114770D01*
X640767Y-114625D01*
X639310Y-114409D01*
X637865Y-114122D01*
X636436Y-113764D01*
X635027Y-113336D01*
X633640Y-112840D01*
X632279Y-112277D01*
X630948Y-111647D01*
X629649Y-110953D01*
X628385Y-110195D01*
X627161Y-109377D01*
X625978Y-108500D01*
X624839Y-107565D01*
X623748Y-106576D01*
X622706Y-105534D01*
X621717Y-104443D01*
X620782Y-103305D01*
X619905Y-102121D01*
X619087Y-100897D01*
X618330Y-99633D01*
X617635Y-98334D01*
X617005Y-97003D01*
X616442Y-95642D01*
X615946Y-94255D01*
X615518Y-92846D01*
X615160Y-91417D01*
X614873Y-89972D01*
X614657Y-88515D01*
X614512Y-87050D01*
X614440Y-85579D01*
X614440Y-84106D01*
X614512Y-82634D01*
X614657Y-81169D01*
X614873Y-79712D01*
X615160Y-78267D01*
X615518Y-76838D01*
X615946Y-75429D01*
X616442Y-74042D01*
X617005Y-72681D01*
X617635Y-71350D01*
X618330Y-70051D01*
X619087Y-68787D01*
X619905Y-67563D01*
X620782Y-66380D01*
X621717Y-65241D01*
X622706Y-64150D01*
X623748Y-63108D01*
X624839Y-62119D01*
X625978Y-61185D01*
X627161Y-60307D01*
X628385Y-59489D01*
X629649Y-58732D01*
X630948Y-58037D01*
X632279Y-57407D01*
X633640Y-56844D01*
X635027Y-56348D01*
X636436Y-55920D01*
X637865Y-55562D01*
X639310Y-55275D01*
X640767Y-55059D01*
X642232Y-54914D01*
X643704Y-54842D01*
X645176Y-54842D01*
X646648Y-54914D01*
X648113Y-55059D01*
X649570Y-55275D01*
X651015Y-55562D01*
X652444Y-55920D01*
X653853Y-56348D01*
X655240Y-56844D01*
X656601Y-57407D01*
X657932Y-58037D01*
X659231Y-58732D01*
X660495Y-59489D01*
X661719Y-60307D01*
X662903Y-61185D01*
X664041Y-62119D01*
X665132Y-63108D01*
X666174Y-64150D01*
X667163Y-65241D01*
X668098Y-66380D01*
X668975Y-67563D01*
X669793Y-68787D01*
X670550Y-70051D01*
X671245Y-71350D01*
X671875Y-72681D01*
X672438Y-74042D01*
X672934Y-75429D01*
X673362Y-76838D01*
X673720Y-78267D01*
X674007Y-79712D01*
X674223Y-81169D01*
X674368Y-82634D01*
X674440Y-84106D01*
X674440Y-85579D01*
X-614440Y-85579D02*
X-614512Y-87050D01*
X-614657Y-88515D01*
X-614873Y-89972D01*
X-615160Y-91417D01*
X-615518Y-92846D01*
X-615946Y-94255D01*
X-616442Y-95642D01*
X-617005Y-97003D01*
X-617635Y-98334D01*
X-618330Y-99633D01*
X-619087Y-100897D01*
X-619905Y-102121D01*
X-620782Y-103305D01*
X-621717Y-104443D01*
X-622706Y-105534D01*
X-623748Y-106576D01*
X-624839Y-107565D01*
X-625978Y-108500D01*
X-627161Y-109377D01*
X-628385Y-110195D01*
X-629649Y-110953D01*
X-630948Y-111647D01*
X-632279Y-112277D01*
X-633640Y-112840D01*
X-635027Y-113336D01*
X-636436Y-113764D01*
X-637865Y-114122D01*
X-639310Y-114409D01*
X-640767Y-114625D01*
X-642232Y-114770D01*
X-643704Y-114842D01*
X-645176Y-114842D01*
X-646648Y-114770D01*
X-648113Y-114625D01*
X-649570Y-114409D01*
X-651015Y-114122D01*
X-652444Y-113764D01*
X-653853Y-113336D01*
X-655240Y-112840D01*
X-656601Y-112277D01*
X-657932Y-111647D01*
X-659231Y-110953D01*
X-660495Y-110195D01*
X-661719Y-109377D01*
X-662903Y-108500D01*
X-664041Y-107565D01*
X-665132Y-106576D01*
X-666174Y-105534D01*
X-667163Y-104443D01*
X-668098Y-103305D01*
X-668975Y-102121D01*
X-669793Y-100897D01*
X-670550Y-99633D01*
X-671245Y-98334D01*
X-671875Y-97003D01*
X-672438Y-95642D01*
X-672934Y-94255D01*
X-673362Y-92846D01*
X-673720Y-91417D01*
X-674007Y-89972D01*
X-674223Y-88515D01*
X-674368Y-87050D01*
X-674440Y-85579D01*
X-674440Y-84106D01*
X-674368Y-82634D01*
X-674223Y-81169D01*
X-674007Y-79712D01*
X-673720Y-78267D01*
X-673362Y-76838D01*
X-672934Y-75429D01*
X-672438Y-74042D01*
X-671875Y-72681D01*
X-671245Y-71350D01*
X-670550Y-70051D01*
X-669793Y-68787D01*
X-668975Y-67563D01*
X-668098Y-66380D01*
X-667163Y-65241D01*
X-666174Y-64150D01*
X-665132Y-63108D01*
X-664041Y-62119D01*
X-662903Y-61185D01*
X-661719Y-60307D01*
X-660495Y-59489D01*
X-659231Y-58732D01*
X-657932Y-58037D01*
X-656601Y-57407D01*
X-655240Y-56844D01*
X-653853Y-56348D01*
X-652444Y-55920D01*
X-651015Y-55562D01*
X-649570Y-55275D01*
X-648113Y-55059D01*
X-646648Y-54914D01*
X-645176Y-54842D01*
X-643704Y-54842D01*
X-642232Y-54914D01*
X-640767Y-55059D01*
X-639310Y-55275D01*
X-637865Y-55562D01*
X-636436Y-55920D01*
X-635027Y-56348D01*
X-633640Y-56844D01*
X-632279Y-57407D01*
X-630948Y-58037D01*
X-629649Y-58732D01*
X-628385Y-59489D01*
X-627161Y-60307D01*
X-625978Y-61185D01*
X-624839Y-62119D01*
X-623748Y-63108D01*
X-622706Y-64150D01*
X-621717Y-65241D01*
X-620782Y-66380D01*
X-619905Y-67563D01*
X-619087Y-68787D01*
X-618330Y-70051D01*
X-617635Y-71350D01*
X-617005Y-72681D01*
X-616442Y-74042D01*
X-615946Y-75429D01*
X-615518Y-76838D01*
X-615160Y-78267D01*
X-614873Y-79712D01*
X-614657Y-81169D01*
X-614512Y-82634D01*
X-614440Y-84106D01*
X-614440Y-85579D01*
X164860Y507464D02*
X164784Y506396D01*
X164631Y505335D01*
X164403Y504288D01*
X164101Y503260D01*
X163727Y502256D01*
X163282Y501281D01*
X162768Y500341D01*
X162189Y499440D01*
X161547Y498582D01*
X160845Y497772D01*
X160088Y497015D01*
X159278Y496313D01*
X158420Y495671D01*
X157519Y495092D01*
X156579Y494578D01*
X155604Y494133D01*
X154600Y493759D01*
X153572Y493457D01*
X152525Y493229D01*
X151464Y493076D01*
X150396Y493000D01*
X149324Y493000D01*
X148256Y493076D01*
X147195Y493229D01*
X146148Y493457D01*
X145120Y493759D01*
X144116Y494133D01*
X143141Y494578D01*
X142201Y495092D01*
X141300Y495671D01*
X140442Y496313D01*
X139632Y497015D01*
X138875Y497772D01*
X138173Y498582D01*
X137531Y499440D01*
X136952Y500341D01*
X136438Y501281D01*
X135993Y502256D01*
X135619Y503260D01*
X135317Y504288D01*
X135089Y505335D01*
X134936Y506396D01*
X134860Y507464D01*
X134860Y508536D01*
X134936Y509604D01*
X135089Y510665D01*
X135317Y511712D01*
X135619Y512740D01*
X135993Y513744D01*
X136438Y514719D01*
X136952Y515659D01*
X137531Y516560D01*
X138173Y517418D01*
X138875Y518228D01*
X139632Y518985D01*
X140442Y519687D01*
X141300Y520329D01*
X142201Y520908D01*
X143141Y521422D01*
X144116Y521867D01*
X145120Y522241D01*
X146148Y522543D01*
X147195Y522771D01*
X148256Y522924D01*
X149324Y523000D01*
X150396Y523000D01*
X151464Y522924D01*
X152525Y522771D01*
X153572Y522543D01*
X154600Y522241D01*
X155604Y521867D01*
X156579Y521422D01*
X157519Y520908D01*
X158420Y520329D01*
X159278Y519687D01*
X160088Y518985D01*
X160845Y518228D01*
X161547Y517418D01*
X162189Y516560D01*
X162768Y515659D01*
X163282Y514719D01*
X163727Y513744D01*
X164101Y512740D01*
X164403Y511712D01*
X164631Y510665D01*
X164784Y509604D01*
X164860Y508536D01*
X164860Y507464D01*
X-134860Y507464D02*
X-134936Y506396D01*
X-135089Y505335D01*
X-135317Y504288D01*
X-135619Y503260D01*
X-135993Y502256D01*
X-136438Y501281D01*
X-136952Y500341D01*
X-137531Y499440D01*
X-138173Y498582D01*
X-138875Y497772D01*
X-139632Y497015D01*
X-140442Y496313D01*
X-141300Y495671D01*
X-142201Y495092D01*
X-143141Y494578D01*
X-144116Y494133D01*
X-145120Y493759D01*
X-146148Y493457D01*
X-147195Y493229D01*
X-148256Y493076D01*
X-149324Y493000D01*
X-150396Y493000D01*
X-151464Y493076D01*
X-152525Y493229D01*
X-153572Y493457D01*
X-154600Y493759D01*
X-155604Y494133D01*
X-156579Y494578D01*
X-157519Y495092D01*
X-158420Y495671D01*
X-159278Y496313D01*
X-160088Y497015D01*
X-160845Y497772D01*
X-161547Y498582D01*
X-162189Y499440D01*
X-162768Y500341D01*
X-163282Y501281D01*
X-163727Y502256D01*
X-164101Y503260D01*
X-164403Y504288D01*
X-164631Y505335D01*
X-164784Y506396D01*
X-164860Y507464D01*
X-164860Y508536D01*
X-164784Y509604D01*
X-164631Y510665D01*
X-164403Y511712D01*
X-164101Y512740D01*
X-163727Y513744D01*
X-163282Y514719D01*
X-162768Y515659D01*
X-162189Y516560D01*
X-161547Y517418D01*
X-160845Y518228D01*
X-160088Y518985D01*
X-159278Y519687D01*
X-158420Y520329D01*
X-157519Y520908D01*
X-156579Y521422D01*
X-155604Y521867D01*
X-154600Y522241D01*
X-153572Y522543D01*
X-152525Y522771D01*
X-151464Y522924D01*
X-150396Y523000D01*
X-149324Y523000D01*
X-148256Y522924D01*
X-147195Y522771D01*
X-146148Y522543D01*
X-145120Y522241D01*
X-144116Y521867D01*
X-143141Y521422D01*
X-142201Y520908D01*
X-141300Y520329D01*
X-140442Y519687D01*
X-139632Y518985D01*
X-138875Y518228D01*
X-138173Y517418D01*
X-137531Y516560D01*
X-136952Y515659D01*
X-136438Y514719D01*
X-135993Y513744D01*
X-135619Y512740D01*
X-135317Y511712D01*
X-135089Y510665D01*
X-134936Y509604D01*
X-134860Y508536D01*
X-134860Y507464D01*
X-574200Y-57587D02*
X-574276Y-58457D01*
X-574428Y-59316D01*
X-574654Y-60160D01*
X-574952Y-60980D01*
X-575321Y-61772D01*
X-575758Y-62528D01*
X-576259Y-63243D01*
X-576820Y-63912D01*
X-577438Y-64530D01*
X-578107Y-65091D01*
X-578822Y-65592D01*
X-579578Y-66029D01*
X-580370Y-66398D01*
X-581190Y-66696D01*
X-582034Y-66922D01*
X-582894Y-67074D01*
X-583763Y-67150D01*
X-584637Y-67150D01*
X-585507Y-67074D01*
X-586366Y-66922D01*
X-587210Y-66696D01*
X-588030Y-66398D01*
X-588822Y-66029D01*
X-589578Y-65592D01*
X-590293Y-65091D01*
X-590962Y-64530D01*
X-591580Y-63912D01*
X-592141Y-63243D01*
X-592642Y-62528D01*
X-593079Y-61772D01*
X-593448Y-60980D01*
X-593746Y-60160D01*
X-593972Y-59316D01*
X-594124Y-58457D01*
X-594200Y-57587D01*
X-594200Y-56713D01*
X-594124Y-55844D01*
X-593972Y-54984D01*
X-593746Y-54140D01*
X-593448Y-53320D01*
X-593079Y-52528D01*
X-592642Y-51772D01*
X-592141Y-51057D01*
X-591580Y-50388D01*
X-590962Y-49770D01*
X-590293Y-49209D01*
X-589578Y-48708D01*
X-588822Y-48271D01*
X-588030Y-47902D01*
X-587210Y-47604D01*
X-586366Y-47378D01*
X-585507Y-47226D01*
X-584637Y-47150D01*
X-583763Y-47150D01*
X-582894Y-47226D01*
X-582034Y-47378D01*
X-581190Y-47604D01*
X-580370Y-47902D01*
X-579578Y-48271D01*
X-578822Y-48708D01*
X-578107Y-49209D01*
X-577438Y-49770D01*
X-576820Y-50388D01*
X-576259Y-51057D01*
X-575758Y-51772D01*
X-575321Y-52528D01*
X-574952Y-53320D01*
X-574654Y-54140D01*
X-574428Y-54984D01*
X-574276Y-55844D01*
X-574200Y-56713D01*
X-574200Y-57587D01*
X-345600Y-57587D02*
X-345676Y-58457D01*
X-345828Y-59316D01*
X-346054Y-60160D01*
X-346352Y-60980D01*
X-346721Y-61772D01*
X-347158Y-62528D01*
X-347659Y-63243D01*
X-348220Y-63912D01*
X-348838Y-64530D01*
X-349507Y-65091D01*
X-350222Y-65592D01*
X-350978Y-66029D01*
X-351770Y-66398D01*
X-352590Y-66696D01*
X-353434Y-66922D01*
X-354294Y-67074D01*
X-355163Y-67150D01*
X-356037Y-67150D01*
X-356907Y-67074D01*
X-357766Y-66922D01*
X-358610Y-66696D01*
X-359430Y-66398D01*
X-360222Y-66029D01*
X-360978Y-65592D01*
X-361693Y-65091D01*
X-362362Y-64530D01*
X-362980Y-63912D01*
X-363541Y-63243D01*
X-364042Y-62528D01*
X-364479Y-61772D01*
X-364848Y-60980D01*
X-365146Y-60160D01*
X-365372Y-59316D01*
X-365524Y-58457D01*
X-365600Y-57587D01*
X-365600Y-56713D01*
X-365524Y-55844D01*
X-365372Y-54984D01*
X-365146Y-54140D01*
X-364848Y-53320D01*
X-364479Y-52528D01*
X-364042Y-51772D01*
X-363541Y-51057D01*
X-362980Y-50388D01*
X-362362Y-49770D01*
X-361693Y-49209D01*
X-360978Y-48708D01*
X-360222Y-48271D01*
X-359430Y-47902D01*
X-358610Y-47604D01*
X-357766Y-47378D01*
X-356907Y-47226D01*
X-356037Y-47150D01*
X-355163Y-47150D01*
X-354294Y-47226D01*
X-353434Y-47378D01*
X-352590Y-47604D01*
X-351770Y-47902D01*
X-350978Y-48271D01*
X-350222Y-48708D01*
X-349507Y-49209D01*
X-348838Y-49770D01*
X-348220Y-50388D01*
X-347659Y-51057D01*
X-347158Y-51772D01*
X-346721Y-52528D01*
X-346352Y-53320D01*
X-346054Y-54140D01*
X-345828Y-54984D01*
X-345676Y-55844D01*
X-345600Y-56713D01*
X-345600Y-57587D01*
X67070Y144244D02*
X66994Y143176D01*
X66841Y142115D01*
X66613Y141068D01*
X66311Y140040D01*
X65937Y139036D01*
X65492Y138061D01*
X64978Y137121D01*
X64399Y136220D01*
X63757Y135362D01*
X63055Y134552D01*
X62298Y133795D01*
X61488Y133093D01*
X60630Y132451D01*
X59729Y131872D01*
X58789Y131358D01*
X57814Y130913D01*
X56810Y130539D01*
X55782Y130237D01*
X54735Y130009D01*
X53674Y129856D01*
X52606Y129780D01*
X51534Y129780D01*
X50466Y129856D01*
X49405Y130009D01*
X48358Y130237D01*
X47330Y130539D01*
X46326Y130913D01*
X45351Y131358D01*
X44411Y131872D01*
X43510Y132451D01*
X42652Y133093D01*
X41842Y133795D01*
X41085Y134552D01*
X40383Y135362D01*
X39741Y136220D01*
X39162Y137121D01*
X38648Y138061D01*
X38203Y139036D01*
X37829Y140040D01*
X37527Y141068D01*
X37299Y142115D01*
X37146Y143176D01*
X37070Y144244D01*
X37070Y145316D01*
X37146Y146384D01*
X37299Y147445D01*
X37527Y148492D01*
X37829Y149520D01*
X38203Y150524D01*
X38648Y151499D01*
X39162Y152439D01*
X39741Y153340D01*
X40383Y154198D01*
X41085Y155008D01*
X41842Y155765D01*
X42652Y156467D01*
X43510Y157109D01*
X44411Y157688D01*
X45351Y158202D01*
X46326Y158647D01*
X47330Y159021D01*
X48358Y159323D01*
X49405Y159551D01*
X50466Y159704D01*
X51534Y159780D01*
X52606Y159780D01*
X53674Y159704D01*
X54735Y159551D01*
X55782Y159323D01*
X56810Y159021D01*
X57814Y158647D01*
X58789Y158202D01*
X59729Y157688D01*
X60630Y157109D01*
X61488Y156467D01*
X62298Y155765D01*
X63055Y155008D01*
X63757Y154198D01*
X64399Y153340D01*
X64978Y152439D01*
X65492Y151499D01*
X65937Y150524D01*
X66311Y149520D01*
X66613Y148492D01*
X66841Y147445D01*
X66994Y146384D01*
X67070Y145316D01*
X67070Y144244D01*
X67070Y-145316D02*
X66994Y-146384D01*
X66841Y-147445D01*
X66613Y-148492D01*
X66311Y-149520D01*
X65937Y-150524D01*
X65492Y-151499D01*
X64978Y-152439D01*
X64399Y-153340D01*
X63757Y-154198D01*
X63055Y-155008D01*
X62298Y-155765D01*
X61488Y-156467D01*
X60630Y-157109D01*
X59729Y-157688D01*
X58789Y-158202D01*
X57814Y-158647D01*
X56810Y-159021D01*
X55782Y-159323D01*
X54735Y-159551D01*
X53674Y-159704D01*
X52606Y-159780D01*
X51534Y-159780D01*
X50466Y-159704D01*
X49405Y-159551D01*
X48358Y-159323D01*
X47330Y-159021D01*
X46326Y-158647D01*
X45351Y-158202D01*
X44411Y-157688D01*
X43510Y-157109D01*
X42652Y-156467D01*
X41842Y-155765D01*
X41085Y-155008D01*
X40383Y-154198D01*
X39741Y-153340D01*
X39162Y-152439D01*
X38648Y-151499D01*
X38203Y-150524D01*
X37829Y-149520D01*
X37527Y-148492D01*
X37299Y-147445D01*
X37146Y-146384D01*
X37070Y-145316D01*
X37070Y-144244D01*
X37146Y-143176D01*
X37299Y-142115D01*
X37527Y-141068D01*
X37829Y-140040D01*
X38203Y-139036D01*
X38648Y-138061D01*
X39162Y-137121D01*
X39741Y-136220D01*
X40383Y-135362D01*
X41085Y-134552D01*
X41842Y-133795D01*
X42652Y-133093D01*
X43510Y-132451D01*
X44411Y-131872D01*
X45351Y-131358D01*
X46326Y-130913D01*
X47330Y-130539D01*
X48358Y-130237D01*
X49405Y-130009D01*
X50466Y-129856D01*
X51534Y-129780D01*
X52606Y-129780D01*
X53674Y-129856D01*
X54735Y-130009D01*
X55782Y-130237D01*
X56810Y-130539D01*
X57814Y-130913D01*
X58789Y-131358D01*
X59729Y-131872D01*
X60630Y-132451D01*
X61488Y-133093D01*
X62298Y-133795D01*
X63055Y-134552D01*
X63757Y-135362D01*
X64399Y-136220D01*
X64978Y-137121D01*
X65492Y-138061D01*
X65937Y-139036D01*
X66311Y-140040D01*
X66613Y-141068D01*
X66841Y-142115D01*
X66994Y-143176D01*
X67070Y-144244D01*
X67070Y-145316D01*
X263740Y599984D02*
X263664Y598916D01*
X263511Y597855D01*
X263283Y596808D01*
X262981Y595780D01*
X262607Y594776D01*
X262162Y593801D01*
X261648Y592861D01*
X261069Y591960D01*
X260427Y591102D01*
X259725Y590292D01*
X258968Y589535D01*
X258158Y588833D01*
X257300Y588191D01*
X256399Y587612D01*
X255459Y587098D01*
X254484Y586653D01*
X253480Y586279D01*
X252452Y585977D01*
X251405Y585749D01*
X250344Y585596D01*
X249276Y585520D01*
X248204Y585520D01*
X247136Y585596D01*
X246075Y585749D01*
X245028Y585977D01*
X244000Y586279D01*
X242996Y586653D01*
X242021Y587098D01*
X241081Y587612D01*
X240180Y588191D01*
X239322Y588833D01*
X238512Y589535D01*
X237755Y590292D01*
X237053Y591102D01*
X236411Y591960D01*
X235832Y592861D01*
X235318Y593801D01*
X234873Y594776D01*
X234499Y595780D01*
X234197Y596808D01*
X233969Y597855D01*
X233816Y598916D01*
X233740Y599984D01*
X233740Y601056D01*
X233816Y602124D01*
X233969Y603185D01*
X234197Y604232D01*
X234499Y605260D01*
X234873Y606264D01*
X235318Y607239D01*
X235832Y608179D01*
X236411Y609080D01*
X237053Y609938D01*
X237755Y610748D01*
X238512Y611505D01*
X239322Y612207D01*
X240180Y612849D01*
X241081Y613428D01*
X242021Y613942D01*
X242996Y614387D01*
X244000Y614761D01*
X245028Y615063D01*
X246075Y615291D01*
X247136Y615444D01*
X248204Y615520D01*
X249276Y615520D01*
X250344Y615444D01*
X251405Y615291D01*
X252452Y615063D01*
X253480Y614761D01*
X254484Y614387D01*
X255459Y613942D01*
X256399Y613428D01*
X257300Y612849D01*
X258158Y612207D01*
X258968Y611505D01*
X259725Y610748D01*
X260427Y609938D01*
X261069Y609080D01*
X261648Y608179D01*
X262162Y607239D01*
X262607Y606264D01*
X262981Y605260D01*
X263283Y604232D01*
X263511Y603185D01*
X263664Y602124D01*
X263740Y601056D01*
X263740Y599984D01*
X-233740Y599984D02*
X-233816Y598916D01*
X-233969Y597855D01*
X-234197Y596808D01*
X-234499Y595780D01*
X-234873Y594776D01*
X-235318Y593801D01*
X-235832Y592861D01*
X-236411Y591960D01*
X-237053Y591102D01*
X-237755Y590292D01*
X-238512Y589535D01*
X-239322Y588833D01*
X-240180Y588191D01*
X-241081Y587612D01*
X-242021Y587098D01*
X-242996Y586653D01*
X-244000Y586279D01*
X-245028Y585977D01*
X-246075Y585749D01*
X-247136Y585596D01*
X-248204Y585520D01*
X-249276Y585520D01*
X-250344Y585596D01*
X-251405Y585749D01*
X-252452Y585977D01*
X-253480Y586279D01*
X-254484Y586653D01*
X-255459Y587098D01*
X-256399Y587612D01*
X-257300Y588191D01*
X-258158Y588833D01*
X-258968Y589535D01*
X-259725Y590292D01*
X-260427Y591102D01*
X-261069Y591960D01*
X-261648Y592861D01*
X-262162Y593801D01*
X-262607Y594776D01*
X-262981Y595780D01*
X-263283Y596808D01*
X-263511Y597855D01*
X-263664Y598916D01*
X-263740Y599984D01*
X-263740Y601056D01*
X-263664Y602124D01*
X-263511Y603185D01*
X-263283Y604232D01*
X-262981Y605260D01*
X-262607Y606264D01*
X-262162Y607239D01*
X-261648Y608179D01*
X-261069Y609080D01*
X-260427Y609938D01*
X-259725Y610748D01*
X-258968Y611505D01*
X-258158Y612207D01*
X-257300Y612849D01*
X-256399Y613428D01*
X-255459Y613942D01*
X-254484Y614387D01*
X-253480Y614761D01*
X-252452Y615063D01*
X-251405Y615291D01*
X-250344Y615444D01*
X-249276Y615520D01*
X-248204Y615520D01*
X-247136Y615444D01*
X-246075Y615291D01*
X-245028Y615063D01*
X-244000Y614761D01*
X-242996Y614387D01*
X-242021Y613942D01*
X-241081Y613428D01*
X-240180Y612849D01*
X-239322Y612207D01*
X-238512Y611505D01*
X-237755Y610748D01*
X-237053Y609938D01*
X-236411Y609080D01*
X-235832Y608179D01*
X-235318Y607239D01*
X-234873Y606264D01*
X-234499Y605260D01*
X-234197Y604232D01*
X-233969Y603185D01*
X-233816Y602124D01*
X-233740Y601056D01*
X-233740Y599984D01*
X-629440Y84304D02*
X-629516Y83236D01*
X-629669Y82175D01*
X-629897Y81128D01*
X-630199Y80100D01*
X-630573Y79096D01*
X-631018Y78121D01*
X-631532Y77181D01*
X-632111Y76280D01*
X-632753Y75422D01*
X-633455Y74612D01*
X-634212Y73855D01*
X-635022Y73153D01*
X-635880Y72511D01*
X-636781Y71932D01*
X-637721Y71418D01*
X-638696Y70973D01*
X-639700Y70599D01*
X-640728Y70297D01*
X-641775Y70069D01*
X-642836Y69916D01*
X-643904Y69840D01*
X-644976Y69840D01*
X-646044Y69916D01*
X-647105Y70069D01*
X-648152Y70297D01*
X-649180Y70599D01*
X-650184Y70973D01*
X-651159Y71418D01*
X-652099Y71932D01*
X-653000Y72511D01*
X-653858Y73153D01*
X-654668Y73855D01*
X-655425Y74612D01*
X-656127Y75422D01*
X-656769Y76280D01*
X-657348Y77181D01*
X-657862Y78121D01*
X-658307Y79096D01*
X-658681Y80100D01*
X-658983Y81128D01*
X-659211Y82175D01*
X-659364Y83236D01*
X-659440Y84304D01*
X-659440Y85376D01*
X-659364Y86444D01*
X-659211Y87505D01*
X-658983Y88552D01*
X-658681Y89580D01*
X-658307Y90584D01*
X-657862Y91559D01*
X-657348Y92499D01*
X-656769Y93400D01*
X-656127Y94258D01*
X-655425Y95068D01*
X-654668Y95825D01*
X-653858Y96527D01*
X-653000Y97169D01*
X-652099Y97748D01*
X-651159Y98262D01*
X-650184Y98707D01*
X-649180Y99081D01*
X-648152Y99383D01*
X-647105Y99611D01*
X-646044Y99764D01*
X-644976Y99840D01*
X-643904Y99840D01*
X-642836Y99764D01*
X-641775Y99611D01*
X-640728Y99383D01*
X-639700Y99081D01*
X-638696Y98707D01*
X-637721Y98262D01*
X-636781Y97748D01*
X-635880Y97169D01*
X-635022Y96527D01*
X-634212Y95825D01*
X-633455Y95068D01*
X-632753Y94258D01*
X-632111Y93400D01*
X-631532Y92499D01*
X-631018Y91559D01*
X-630573Y90584D01*
X-630199Y89580D01*
X-629897Y88552D01*
X-629669Y87505D01*
X-629516Y86444D01*
X-629440Y85376D01*
X-629440Y84304D01*
X-380690Y-516216D02*
X-380766Y-517284D01*
X-380919Y-518345D01*
X-381147Y-519392D01*
X-381449Y-520420D01*
X-381823Y-521424D01*
X-382268Y-522399D01*
X-382782Y-523339D01*
X-383361Y-524240D01*
X-384003Y-525098D01*
X-384705Y-525908D01*
X-385462Y-526665D01*
X-386272Y-527367D01*
X-387130Y-528009D01*
X-388031Y-528588D01*
X-388971Y-529102D01*
X-389946Y-529547D01*
X-390950Y-529921D01*
X-391978Y-530223D01*
X-393025Y-530451D01*
X-394086Y-530604D01*
X-395154Y-530680D01*
X-396226Y-530680D01*
X-397294Y-530604D01*
X-398355Y-530451D01*
X-399402Y-530223D01*
X-400430Y-529921D01*
X-401434Y-529547D01*
X-402409Y-529102D01*
X-403349Y-528588D01*
X-404250Y-528009D01*
X-405108Y-527367D01*
X-405918Y-526665D01*
X-406675Y-525908D01*
X-407377Y-525098D01*
X-408019Y-524240D01*
X-408598Y-523339D01*
X-409112Y-522399D01*
X-409557Y-521424D01*
X-409931Y-520420D01*
X-410233Y-519392D01*
X-410461Y-518345D01*
X-410614Y-517284D01*
X-410690Y-516216D01*
X-410690Y-515144D01*
X-410614Y-514076D01*
X-410461Y-513015D01*
X-410233Y-511968D01*
X-409931Y-510940D01*
X-409557Y-509936D01*
X-409112Y-508961D01*
X-408598Y-508021D01*
X-408019Y-507120D01*
X-407377Y-506262D01*
X-406675Y-505452D01*
X-405918Y-504695D01*
X-405108Y-503993D01*
X-404250Y-503351D01*
X-403349Y-502772D01*
X-402409Y-502258D01*
X-401434Y-501813D01*
X-400430Y-501439D01*
X-399402Y-501137D01*
X-398355Y-500909D01*
X-397294Y-500756D01*
X-396226Y-500680D01*
X-395154Y-500680D01*
X-394086Y-500756D01*
X-393025Y-500909D01*
X-391978Y-501137D01*
X-390950Y-501439D01*
X-389946Y-501813D01*
X-388971Y-502258D01*
X-388031Y-502772D01*
X-387130Y-503351D01*
X-386272Y-503993D01*
X-385462Y-504695D01*
X-384705Y-505452D01*
X-384003Y-506262D01*
X-383361Y-507120D01*
X-382782Y-508021D01*
X-382268Y-508961D01*
X-381823Y-509936D01*
X-381449Y-510940D01*
X-381147Y-511968D01*
X-380919Y-513015D01*
X-380766Y-514076D01*
X-380690Y-515144D01*
X-380690Y-516216D01*
X410690Y-516216D02*
X410614Y-517284D01*
X410461Y-518345D01*
X410233Y-519392D01*
X409931Y-520420D01*
X409557Y-521424D01*
X409112Y-522399D01*
X408598Y-523339D01*
X408019Y-524240D01*
X407377Y-525098D01*
X406675Y-525908D01*
X405918Y-526665D01*
X405108Y-527367D01*
X404250Y-528009D01*
X403349Y-528588D01*
X402409Y-529102D01*
X401434Y-529547D01*
X400430Y-529921D01*
X399402Y-530223D01*
X398355Y-530451D01*
X397294Y-530604D01*
X396226Y-530680D01*
X395154Y-530680D01*
X394086Y-530604D01*
X393025Y-530451D01*
X391978Y-530223D01*
X390950Y-529921D01*
X389946Y-529547D01*
X388971Y-529102D01*
X388031Y-528588D01*
X387130Y-528009D01*
X386272Y-527367D01*
X385462Y-526665D01*
X384705Y-525908D01*
X384003Y-525098D01*
X383361Y-524240D01*
X382782Y-523339D01*
X382268Y-522399D01*
X381823Y-521424D01*
X381449Y-520420D01*
X381147Y-519392D01*
X380919Y-518345D01*
X380766Y-517284D01*
X380690Y-516216D01*
X380690Y-515144D01*
X380766Y-514076D01*
X380919Y-513015D01*
X381147Y-511968D01*
X381449Y-510940D01*
X381823Y-509936D01*
X382268Y-508961D01*
X382782Y-508021D01*
X383361Y-507120D01*
X384003Y-506262D01*
X384705Y-505452D01*
X385462Y-504695D01*
X386272Y-503993D01*
X387130Y-503351D01*
X388031Y-502772D01*
X388971Y-502258D01*
X389946Y-501813D01*
X390950Y-501439D01*
X391978Y-501137D01*
X393025Y-500909D01*
X394086Y-500756D01*
X395154Y-500680D01*
X396226Y-500680D01*
X397294Y-500756D01*
X398355Y-500909D01*
X399402Y-501137D01*
X400430Y-501439D01*
X401434Y-501813D01*
X402409Y-502258D01*
X403349Y-502772D01*
X404250Y-503351D01*
X405108Y-503993D01*
X405918Y-504695D01*
X406675Y-505452D01*
X407377Y-506262D01*
X408019Y-507120D01*
X408598Y-508021D01*
X409112Y-508961D01*
X409557Y-509936D01*
X409931Y-510940D01*
X410233Y-511968D01*
X410461Y-513015D01*
X410614Y-514076D01*
X410690Y-515144D01*
X410690Y-516216D01*
X659440Y84304D02*
X659364Y83236D01*
X659211Y82175D01*
X658983Y81128D01*
X658681Y80100D01*
X658307Y79096D01*
X657862Y78121D01*
X657348Y77181D01*
X656769Y76280D01*
X656127Y75422D01*
X655425Y74612D01*
X654668Y73855D01*
X653858Y73153D01*
X653000Y72511D01*
X652099Y71932D01*
X651159Y71418D01*
X650184Y70973D01*
X649180Y70599D01*
X648152Y70297D01*
X647105Y70069D01*
X646044Y69916D01*
X644976Y69840D01*
X643904Y69840D01*
X642836Y69916D01*
X641775Y70069D01*
X640728Y70297D01*
X639700Y70599D01*
X638696Y70973D01*
X637721Y71418D01*
X636781Y71932D01*
X635880Y72511D01*
X635022Y73153D01*
X634212Y73855D01*
X633455Y74612D01*
X632753Y75422D01*
X632111Y76280D01*
X631532Y77181D01*
X631018Y78121D01*
X630573Y79096D01*
X630199Y80100D01*
X629897Y81128D01*
X629669Y82175D01*
X629516Y83236D01*
X629440Y84304D01*
X629440Y85376D01*
X629516Y86444D01*
X629669Y87505D01*
X629897Y88552D01*
X630199Y89580D01*
X630573Y90584D01*
X631018Y91559D01*
X631532Y92499D01*
X632111Y93400D01*
X632753Y94258D01*
X633455Y95068D01*
X634212Y95825D01*
X635022Y96527D01*
X635880Y97169D01*
X636781Y97748D01*
X637721Y98262D01*
X638696Y98707D01*
X639700Y99081D01*
X640728Y99383D01*
X641775Y99611D01*
X642836Y99764D01*
X643904Y99840D01*
X644976Y99840D01*
X646044Y99764D01*
X647105Y99611D01*
X648152Y99383D01*
X649180Y99081D01*
X650184Y98707D01*
X651159Y98262D01*
X652099Y97748D01*
X653000Y97169D01*
X653858Y96527D01*
X654668Y95825D01*
X655425Y95068D01*
X656127Y94258D01*
X656769Y93400D01*
X657348Y92499D01*
X657862Y91559D01*
X658307Y90584D01*
X658681Y89580D01*
X658983Y88552D01*
X659211Y87505D01*
X659364Y86444D01*
X659440Y85376D01*
X659440Y84304D01*
X-135000Y259274D02*
X-135076Y258206D01*
X-135229Y257145D01*
X-135457Y256098D01*
X-135759Y255070D01*
X-136133Y254066D01*
X-136578Y253091D01*
X-137092Y252151D01*
X-137671Y251250D01*
X-138313Y250392D01*
X-139015Y249582D01*
X-139772Y248825D01*
X-140582Y248123D01*
X-141440Y247481D01*
X-142341Y246902D01*
X-143281Y246388D01*
X-144256Y245943D01*
X-145260Y245569D01*
X-146288Y245267D01*
X-147335Y245039D01*
X-148396Y244886D01*
X-149464Y244810D01*
X-150536Y244810D01*
X-151604Y244886D01*
X-152665Y245039D01*
X-153712Y245267D01*
X-154740Y245569D01*
X-155744Y245943D01*
X-156719Y246388D01*
X-157659Y246902D01*
X-158560Y247481D01*
X-159418Y248123D01*
X-160228Y248825D01*
X-160985Y249582D01*
X-161687Y250392D01*
X-162329Y251250D01*
X-162908Y252151D01*
X-163422Y253091D01*
X-163867Y254066D01*
X-164241Y255070D01*
X-164543Y256098D01*
X-164771Y257145D01*
X-164924Y258206D01*
X-165000Y259274D01*
X-165000Y260346D01*
X-164924Y261414D01*
X-164771Y262475D01*
X-164543Y263522D01*
X-164241Y264550D01*
X-163867Y265554D01*
X-163422Y266529D01*
X-162908Y267469D01*
X-162329Y268370D01*
X-161687Y269228D01*
X-160985Y270038D01*
X-160228Y270795D01*
X-159418Y271497D01*
X-158560Y272139D01*
X-157659Y272718D01*
X-156719Y273232D01*
X-155744Y273677D01*
X-154740Y274051D01*
X-153712Y274353D01*
X-152665Y274581D01*
X-151604Y274734D01*
X-150536Y274810D01*
X-149464Y274810D01*
X-148396Y274734D01*
X-147335Y274581D01*
X-146288Y274353D01*
X-145260Y274051D01*
X-144256Y273677D01*
X-143281Y273232D01*
X-142341Y272718D01*
X-141440Y272139D01*
X-140582Y271497D01*
X-139772Y270795D01*
X-139015Y270038D01*
X-138313Y269228D01*
X-137671Y268370D01*
X-137092Y267469D01*
X-136578Y266529D01*
X-136133Y265554D01*
X-135759Y264550D01*
X-135457Y263522D01*
X-135229Y262475D01*
X-135076Y261414D01*
X-135000Y260346D01*
X-135000Y259274D01*
X305000Y-536D02*
X304924Y-1604D01*
X304771Y-2665D01*
X304543Y-3712D01*
X304241Y-4740D01*
X303867Y-5744D01*
X303422Y-6719D01*
X302908Y-7659D01*
X302329Y-8560D01*
X301687Y-9418D01*
X300985Y-10228D01*
X300228Y-10985D01*
X299418Y-11687D01*
X298560Y-12329D01*
X297659Y-12908D01*
X296719Y-13422D01*
X295744Y-13867D01*
X294740Y-14241D01*
X293712Y-14543D01*
X292665Y-14771D01*
X291604Y-14924D01*
X290536Y-15000D01*
X289464Y-15000D01*
X288396Y-14924D01*
X287335Y-14771D01*
X286288Y-14543D01*
X285260Y-14241D01*
X284256Y-13867D01*
X283281Y-13422D01*
X282341Y-12908D01*
X281440Y-12329D01*
X280582Y-11687D01*
X279772Y-10985D01*
X279015Y-10228D01*
X278313Y-9418D01*
X277671Y-8560D01*
X277092Y-7659D01*
X276578Y-6719D01*
X276133Y-5744D01*
X275759Y-4740D01*
X275457Y-3712D01*
X275229Y-2665D01*
X275076Y-1604D01*
X275000Y-536D01*
X275000Y536D01*
X275076Y1604D01*
X275229Y2665D01*
X275457Y3712D01*
X275759Y4740D01*
X276133Y5744D01*
X276578Y6719D01*
X277092Y7659D01*
X277671Y8560D01*
X278313Y9418D01*
X279015Y10228D01*
X279772Y10985D01*
X280582Y11687D01*
X281440Y12329D01*
X282341Y12908D01*
X283281Y13422D01*
X284256Y13867D01*
X285260Y14241D01*
X286288Y14543D01*
X287335Y14771D01*
X288396Y14924D01*
X289464Y15000D01*
X290536Y15000D01*
X291604Y14924D01*
X292665Y14771D01*
X293712Y14543D01*
X294740Y14241D01*
X295744Y13867D01*
X296719Y13422D01*
X297659Y12908D01*
X298560Y12329D01*
X299418Y11687D01*
X300228Y10985D01*
X300985Y10228D01*
X301687Y9418D01*
X302329Y8560D01*
X302908Y7659D01*
X303422Y6719D01*
X303867Y5744D01*
X304241Y4740D01*
X304543Y3712D01*
X304771Y2665D01*
X304924Y1604D01*
X305000Y536D01*
X305000Y-536D01*
X-135000Y-260346D02*
X-135076Y-261414D01*
X-135229Y-262475D01*
X-135457Y-263522D01*
X-135759Y-264550D01*
X-136133Y-265554D01*
X-136578Y-266529D01*
X-137092Y-267469D01*
X-137671Y-268370D01*
X-138313Y-269228D01*
X-139015Y-270038D01*
X-139772Y-270795D01*
X-140582Y-271497D01*
X-141440Y-272139D01*
X-142341Y-272718D01*
X-143281Y-273232D01*
X-144256Y-273677D01*
X-145260Y-274051D01*
X-146288Y-274353D01*
X-147335Y-274581D01*
X-148396Y-274734D01*
X-149464Y-274810D01*
X-150536Y-274810D01*
X-151604Y-274734D01*
X-152665Y-274581D01*
X-153712Y-274353D01*
X-154740Y-274051D01*
X-155744Y-273677D01*
X-156719Y-273232D01*
X-157659Y-272718D01*
X-158560Y-272139D01*
X-159418Y-271497D01*
X-160228Y-270795D01*
X-160985Y-270038D01*
X-161687Y-269228D01*
X-162329Y-268370D01*
X-162908Y-267469D01*
X-163422Y-266529D01*
X-163867Y-265554D01*
X-164241Y-264550D01*
X-164543Y-263522D01*
X-164771Y-262475D01*
X-164924Y-261414D01*
X-165000Y-260346D01*
X-165000Y-259274D01*
X-164924Y-258206D01*
X-164771Y-257145D01*
X-164543Y-256098D01*
X-164241Y-255070D01*
X-163867Y-254066D01*
X-163422Y-253091D01*
X-162908Y-252151D01*
X-162329Y-251250D01*
X-161687Y-250392D01*
X-160985Y-249582D01*
X-160228Y-248825D01*
X-159418Y-248123D01*
X-158560Y-247481D01*
X-157659Y-246902D01*
X-156719Y-246388D01*
X-155744Y-245943D01*
X-154740Y-245569D01*
X-153712Y-245267D01*
X-152665Y-245039D01*
X-151604Y-244886D01*
X-150536Y-244810D01*
X-149464Y-244810D01*
X-148396Y-244886D01*
X-147335Y-245039D01*
X-146288Y-245267D01*
X-145260Y-245569D01*
X-144256Y-245943D01*
X-143281Y-246388D01*
X-142341Y-246902D01*
X-141440Y-247481D01*
X-140582Y-248123D01*
X-139772Y-248825D01*
X-139015Y-249582D01*
X-138313Y-250392D01*
X-137671Y-251250D01*
X-137092Y-252151D01*
X-136578Y-253091D01*
X-136133Y-254066D01*
X-135759Y-255070D01*
X-135457Y-256098D01*
X-135229Y-257145D01*
X-135076Y-258206D01*
X-135000Y-259274D01*
X-135000Y-260346D01*
X-365690Y514944D02*
X-365762Y513472D01*
X-365907Y512007D01*
X-366123Y510550D01*
X-366410Y509105D01*
X-366768Y507676D01*
X-367196Y506267D01*
X-367692Y504880D01*
X-368255Y503519D01*
X-368885Y502188D01*
X-369580Y500889D01*
X-370337Y499625D01*
X-371155Y498401D01*
X-372032Y497218D01*
X-372967Y496079D01*
X-373956Y494988D01*
X-374998Y493946D01*
X-376089Y492957D01*
X-377228Y492022D01*
X-378411Y491145D01*
X-379635Y490327D01*
X-380899Y489570D01*
X-382198Y488875D01*
X-383529Y488245D01*
X-384890Y487682D01*
X-386277Y487186D01*
X-387686Y486758D01*
X-389115Y486400D01*
X-390560Y486113D01*
X-392017Y485897D01*
X-393482Y485752D01*
X-394954Y485680D01*
X-396426Y485680D01*
X-397898Y485752D01*
X-399363Y485897D01*
X-400820Y486113D01*
X-402265Y486400D01*
X-403694Y486758D01*
X-405103Y487186D01*
X-406490Y487682D01*
X-407851Y488245D01*
X-409182Y488875D01*
X-410481Y489570D01*
X-411745Y490327D01*
X-412969Y491145D01*
X-414153Y492022D01*
X-415291Y492957D01*
X-416382Y493946D01*
X-417424Y494988D01*
X-418413Y496079D01*
X-419348Y497218D01*
X-420225Y498401D01*
X-421043Y499625D01*
X-421800Y500889D01*
X-422495Y502188D01*
X-423125Y503519D01*
X-423688Y504880D01*
X-424184Y506267D01*
X-424612Y507676D01*
X-424970Y509105D01*
X-425257Y510550D01*
X-425473Y512007D01*
X-425618Y513472D01*
X-425690Y514944D01*
X-425690Y516416D01*
X-425618Y517888D01*
X-425473Y519353D01*
X-425257Y520810D01*
X-424970Y522255D01*
X-424612Y523684D01*
X-424184Y525093D01*
X-423688Y526480D01*
X-423125Y527841D01*
X-422495Y529172D01*
X-421800Y530471D01*
X-421043Y531735D01*
X-420225Y532959D01*
X-419348Y534143D01*
X-418413Y535281D01*
X-417424Y536372D01*
X-416382Y537414D01*
X-415291Y538403D01*
X-414153Y539338D01*
X-412969Y540215D01*
X-411745Y541033D01*
X-410481Y541790D01*
X-409182Y542485D01*
X-407851Y543115D01*
X-406490Y543678D01*
X-405103Y544174D01*
X-403694Y544602D01*
X-402265Y544960D01*
X-400820Y545247D01*
X-399363Y545463D01*
X-397898Y545608D01*
X-396426Y545680D01*
X-394954Y545680D01*
X-393482Y545608D01*
X-392017Y545463D01*
X-390560Y545247D01*
X-389115Y544960D01*
X-387686Y544602D01*
X-386277Y544174D01*
X-384890Y543678D01*
X-383529Y543115D01*
X-382198Y542485D01*
X-380899Y541790D01*
X-379635Y541033D01*
X-378411Y540215D01*
X-377228Y539338D01*
X-376089Y538403D01*
X-374998Y537414D01*
X-373956Y536372D01*
X-372967Y535281D01*
X-372032Y534143D01*
X-371155Y532959D01*
X-370337Y531735D01*
X-369580Y530471D01*
X-368885Y529172D01*
X-368255Y527841D01*
X-367692Y526480D01*
X-367196Y525093D01*
X-366768Y523684D01*
X-366410Y522255D01*
X-366123Y520810D01*
X-365907Y519353D01*
X-365762Y517888D01*
X-365690Y516416D01*
X-365690Y514944D01*
X-218740Y-601258D02*
X-218812Y-602729D01*
X-218957Y-604195D01*
X-219173Y-605652D01*
X-219460Y-607097D01*
X-219818Y-608525D01*
X-220246Y-609935D01*
X-220742Y-611322D01*
X-221306Y-612683D01*
X-221935Y-614014D01*
X-222630Y-615313D01*
X-223387Y-616576D01*
X-224205Y-617801D01*
X-225083Y-618984D01*
X-226017Y-620123D01*
X-227006Y-621214D01*
X-228048Y-622256D01*
X-229139Y-623245D01*
X-230278Y-624179D01*
X-231461Y-625057D01*
X-232685Y-625875D01*
X-233949Y-626632D01*
X-235248Y-627327D01*
X-236579Y-627956D01*
X-237940Y-628520D01*
X-239327Y-629016D01*
X-240736Y-629444D01*
X-242165Y-629802D01*
X-243610Y-630089D01*
X-245067Y-630305D01*
X-246533Y-630449D01*
X-248004Y-630522D01*
X-249477Y-630522D01*
X-250948Y-630449D01*
X-252414Y-630305D01*
X-253871Y-630089D01*
X-255315Y-629802D01*
X-256744Y-629444D01*
X-258153Y-629016D01*
X-259540Y-628520D01*
X-260901Y-627956D01*
X-262233Y-627327D01*
X-263532Y-626632D01*
X-264795Y-625875D01*
X-266020Y-625057D01*
X-267203Y-624179D01*
X-268341Y-623245D01*
X-269433Y-622256D01*
X-270474Y-621214D01*
X-271463Y-620123D01*
X-272398Y-618984D01*
X-273275Y-617801D01*
X-274093Y-616576D01*
X-274851Y-615313D01*
X-275545Y-614014D01*
X-276175Y-612683D01*
X-276738Y-611322D01*
X-277235Y-609935D01*
X-277662Y-608525D01*
X-278020Y-607097D01*
X-278307Y-605652D01*
X-278524Y-604195D01*
X-278668Y-602729D01*
X-278740Y-601258D01*
X-278740Y-599785D01*
X-278668Y-598314D01*
X-278524Y-596848D01*
X-278307Y-595391D01*
X-278020Y-593947D01*
X-277662Y-592518D01*
X-277235Y-591108D01*
X-276738Y-589722D01*
X-276175Y-588361D01*
X-275545Y-587029D01*
X-274851Y-585730D01*
X-274093Y-584467D01*
X-273275Y-583242D01*
X-272398Y-582059D01*
X-271463Y-580921D01*
X-270474Y-579829D01*
X-269433Y-578788D01*
X-268341Y-577799D01*
X-267203Y-576864D01*
X-266020Y-575987D01*
X-264795Y-575168D01*
X-263532Y-574411D01*
X-262233Y-573717D01*
X-260901Y-573087D01*
X-259540Y-572523D01*
X-258153Y-572027D01*
X-256744Y-571600D01*
X-255315Y-571242D01*
X-253871Y-570954D01*
X-252414Y-570738D01*
X-250948Y-570594D01*
X-249477Y-570522D01*
X-248004Y-570522D01*
X-246533Y-570594D01*
X-245067Y-570738D01*
X-243610Y-570954D01*
X-242165Y-571242D01*
X-240736Y-571600D01*
X-239327Y-572027D01*
X-237940Y-572523D01*
X-236579Y-573087D01*
X-235248Y-573717D01*
X-233949Y-574411D01*
X-232685Y-575168D01*
X-231461Y-575987D01*
X-230278Y-576864D01*
X-229139Y-577799D01*
X-228048Y-578788D01*
X-227006Y-579829D01*
X-226017Y-580921D01*
X-225083Y-582059D01*
X-224205Y-583242D01*
X-223387Y-584467D01*
X-222630Y-585730D01*
X-221935Y-587029D01*
X-221306Y-588361D01*
X-220742Y-589722D01*
X-220246Y-591108D01*
X-219818Y-592518D01*
X-219460Y-593947D01*
X-219173Y-595391D01*
X-218957Y-596848D01*
X-218812Y-598314D01*
X-218740Y-599785D01*
X-218740Y-601258D01*
X278740Y-601258D02*
X278668Y-602729D01*
X278524Y-604195D01*
X278307Y-605652D01*
X278020Y-607097D01*
X277662Y-608525D01*
X277235Y-609935D01*
X276738Y-611322D01*
X276175Y-612683D01*
X275545Y-614014D01*
X274851Y-615313D01*
X274093Y-616576D01*
X273275Y-617801D01*
X272398Y-618984D01*
X271463Y-620123D01*
X270474Y-621214D01*
X269433Y-622256D01*
X268341Y-623245D01*
X267203Y-624179D01*
X266020Y-625057D01*
X264795Y-625875D01*
X263532Y-626632D01*
X262233Y-627327D01*
X260901Y-627956D01*
X259540Y-628520D01*
X258153Y-629016D01*
X256744Y-629444D01*
X255315Y-629802D01*
X253871Y-630089D01*
X252414Y-630305D01*
X250948Y-630449D01*
X249477Y-630522D01*
X248004Y-630522D01*
X246533Y-630449D01*
X245067Y-630305D01*
X243610Y-630089D01*
X242165Y-629802D01*
X240736Y-629444D01*
X239327Y-629016D01*
X237940Y-628520D01*
X236579Y-627956D01*
X235248Y-627327D01*
X233949Y-626632D01*
X232685Y-625875D01*
X231461Y-625057D01*
X230278Y-624179D01*
X229139Y-623245D01*
X228048Y-622256D01*
X227006Y-621214D01*
X226017Y-620123D01*
X225083Y-618984D01*
X224205Y-617801D01*
X223387Y-616576D01*
X222630Y-615313D01*
X221935Y-614014D01*
X221306Y-612683D01*
X220742Y-611322D01*
X220246Y-609935D01*
X219818Y-608525D01*
X219460Y-607097D01*
X219173Y-605652D01*
X218957Y-604195D01*
X218812Y-602729D01*
X218740Y-601258D01*
X218740Y-599785D01*
X218812Y-598314D01*
X218957Y-596848D01*
X219173Y-595391D01*
X219460Y-593947D01*
X219818Y-592518D01*
X220246Y-591108D01*
X220742Y-589722D01*
X221306Y-588361D01*
X221935Y-587029D01*
X222630Y-585730D01*
X223387Y-584467D01*
X224205Y-583242D01*
X225083Y-582059D01*
X226017Y-580921D01*
X227006Y-579829D01*
X228048Y-578788D01*
X229139Y-577799D01*
X230278Y-576864D01*
X231461Y-575987D01*
X232685Y-575168D01*
X233949Y-574411D01*
X235248Y-573717D01*
X236579Y-573087D01*
X237940Y-572523D01*
X239327Y-572027D01*
X240736Y-571600D01*
X242165Y-571242D01*
X243610Y-570954D01*
X245067Y-570738D01*
X246533Y-570594D01*
X248004Y-570522D01*
X249477Y-570522D01*
X250948Y-570594D01*
X252414Y-570738D01*
X253871Y-570954D01*
X255315Y-571242D01*
X256744Y-571600D01*
X258153Y-572027D01*
X259540Y-572523D01*
X260901Y-573087D01*
X262233Y-573717D01*
X263532Y-574411D01*
X264795Y-575168D01*
X266020Y-575987D01*
X267203Y-576864D01*
X268341Y-577799D01*
X269433Y-578788D01*
X270474Y-579829D01*
X271463Y-580921D01*
X272398Y-582059D01*
X273275Y-583242D01*
X274093Y-584467D01*
X274851Y-585730D01*
X275545Y-587029D01*
X276175Y-588361D01*
X276738Y-589722D01*
X277235Y-591108D01*
X277662Y-592518D01*
X278020Y-593947D01*
X278307Y-595391D01*
X278524Y-596848D01*
X278668Y-598314D01*
X278740Y-599785D01*
X278740Y-601258D01*
X425690Y514944D02*
X425618Y513472D01*
X425473Y512007D01*
X425257Y510550D01*
X424970Y509105D01*
X424612Y507676D01*
X424184Y506267D01*
X423688Y504880D01*
X423125Y503519D01*
X422495Y502188D01*
X421800Y500889D01*
X421043Y499625D01*
X420225Y498401D01*
X419348Y497218D01*
X418413Y496079D01*
X417424Y494988D01*
X416382Y493946D01*
X415291Y492957D01*
X414153Y492022D01*
X412969Y491145D01*
X411745Y490327D01*
X410481Y489570D01*
X409182Y488875D01*
X407851Y488245D01*
X406490Y487682D01*
X405103Y487186D01*
X403694Y486758D01*
X402265Y486400D01*
X400820Y486113D01*
X399363Y485897D01*
X397898Y485752D01*
X396426Y485680D01*
X394954Y485680D01*
X393482Y485752D01*
X392017Y485897D01*
X390560Y486113D01*
X389115Y486400D01*
X387686Y486758D01*
X386277Y487186D01*
X384890Y487682D01*
X383529Y488245D01*
X382198Y488875D01*
X380899Y489570D01*
X379635Y490327D01*
X378411Y491145D01*
X377228Y492022D01*
X376089Y492957D01*
X374998Y493946D01*
X373956Y494988D01*
X372967Y496079D01*
X372032Y497218D01*
X371155Y498401D01*
X370337Y499625D01*
X369580Y500889D01*
X368885Y502188D01*
X368255Y503519D01*
X367692Y504880D01*
X367196Y506267D01*
X366768Y507676D01*
X366410Y509105D01*
X366123Y510550D01*
X365907Y512007D01*
X365762Y513472D01*
X365690Y514944D01*
X365690Y516416D01*
X365762Y517888D01*
X365907Y519353D01*
X366123Y520810D01*
X366410Y522255D01*
X366768Y523684D01*
X367196Y525093D01*
X367692Y526480D01*
X368255Y527841D01*
X368885Y529172D01*
X369580Y530471D01*
X370337Y531735D01*
X371155Y532959D01*
X372032Y534143D01*
X372967Y535281D01*
X373956Y536372D01*
X374998Y537414D01*
X376089Y538403D01*
X377228Y539338D01*
X378411Y540215D01*
X379635Y541033D01*
X380899Y541790D01*
X382198Y542485D01*
X383529Y543115D01*
X384890Y543678D01*
X386277Y544174D01*
X387686Y544602D01*
X389115Y544960D01*
X390560Y545247D01*
X392017Y545463D01*
X393482Y545608D01*
X394954Y545680D01*
X396426Y545680D01*
X397898Y545608D01*
X399363Y545463D01*
X400820Y545247D01*
X402265Y544960D01*
X403694Y544602D01*
X405103Y544174D01*
X406490Y543678D01*
X407851Y543115D01*
X409182Y542485D01*
X410481Y541790D01*
X411745Y541033D01*
X412969Y540215D01*
X414153Y539338D01*
X415291Y538403D01*
X416382Y537414D01*
X417424Y536372D01*
X418413Y535281D01*
X419348Y534143D01*
X420225Y532959D01*
X421043Y531735D01*
X421800Y530471D01*
X422495Y529172D01*
X423125Y527841D01*
X423688Y526480D01*
X424184Y525093D01*
X424612Y523684D01*
X424970Y522255D01*
X425257Y520810D01*
X425473Y519353D01*
X425618Y517888D01*
X425690Y516416D01*
X425690Y514944D01*
X674440Y-85579D02*
X674368Y-87050D01*
X674223Y-88515D01*
X674007Y-89972D01*
X673720Y-91417D01*
X673362Y-92846D01*
X672934Y-94255D01*
X672438Y-95642D01*
X671875Y-97003D01*
X671245Y-98334D01*
X670550Y-99633D01*
X669793Y-100897D01*
X668975Y-102121D01*
X668098Y-103305D01*
X667163Y-104443D01*
X666174Y-105534D01*
X665132Y-106576D01*
X664041Y-107565D01*
X662903Y-108500D01*
X661719Y-109377D01*
X660495Y-110195D01*
X659231Y-110953D01*
X657932Y-111647D01*
X656601Y-112277D01*
X655240Y-112840D01*
X653853Y-113336D01*
X652444Y-113764D01*
X651015Y-114122D01*
X649570Y-114409D01*
X648113Y-114625D01*
X646648Y-114770D01*
X645176Y-114842D01*
X643704Y-114842D01*
X642232Y-114770D01*
X640767Y-114625D01*
X639310Y-114409D01*
X637865Y-114122D01*
X636436Y-113764D01*
X635027Y-113336D01*
X633640Y-112840D01*
X632279Y-112277D01*
X630948Y-111647D01*
X629649Y-110953D01*
X628385Y-110195D01*
X627161Y-109377D01*
X625978Y-108500D01*
X624839Y-107565D01*
X623748Y-106576D01*
X622706Y-105534D01*
X621717Y-104443D01*
X620782Y-103305D01*
X619905Y-102121D01*
X619087Y-100897D01*
X618330Y-99633D01*
X617635Y-98334D01*
X617005Y-97003D01*
X616442Y-95642D01*
X615946Y-94255D01*
X615518Y-92846D01*
X615160Y-91417D01*
X614873Y-89972D01*
X614657Y-88515D01*
X614512Y-87050D01*
X614440Y-85579D01*
X614440Y-84106D01*
X614512Y-82634D01*
X614657Y-81169D01*
X614873Y-79712D01*
X615160Y-78267D01*
X615518Y-76838D01*
X615946Y-75429D01*
X616442Y-74042D01*
X617005Y-72681D01*
X617635Y-71350D01*
X618330Y-70051D01*
X619087Y-68787D01*
X619905Y-67563D01*
X620782Y-66380D01*
X621717Y-65241D01*
X622706Y-64150D01*
X623748Y-63108D01*
X624839Y-62119D01*
X625978Y-61185D01*
X627161Y-60307D01*
X628385Y-59489D01*
X629649Y-58732D01*
X630948Y-58037D01*
X632279Y-57407D01*
X633640Y-56844D01*
X635027Y-56348D01*
X636436Y-55920D01*
X637865Y-55562D01*
X639310Y-55275D01*
X640767Y-55059D01*
X642232Y-54914D01*
X643704Y-54842D01*
X645176Y-54842D01*
X646648Y-54914D01*
X648113Y-55059D01*
X649570Y-55275D01*
X651015Y-55562D01*
X652444Y-55920D01*
X653853Y-56348D01*
X655240Y-56844D01*
X656601Y-57407D01*
X657932Y-58037D01*
X659231Y-58732D01*
X660495Y-59489D01*
X661719Y-60307D01*
X662903Y-61185D01*
X664041Y-62119D01*
X665132Y-63108D01*
X666174Y-64150D01*
X667163Y-65241D01*
X668098Y-66380D01*
X668975Y-67563D01*
X669793Y-68787D01*
X670550Y-70051D01*
X671245Y-71350D01*
X671875Y-72681D01*
X672438Y-74042D01*
X672934Y-75429D01*
X673362Y-76838D01*
X673720Y-78267D01*
X674007Y-79712D01*
X674223Y-81169D01*
X674368Y-82634D01*
X674440Y-84106D01*
X674440Y-85579D01*
X-614440Y-85579D02*
X-614512Y-87050D01*
X-614657Y-88515D01*
X-614873Y-89972D01*
X-615160Y-91417D01*
X-615518Y-92846D01*
X-615946Y-94255D01*
X-616442Y-95642D01*
X-617005Y-97003D01*
X-617635Y-98334D01*
X-618330Y-99633D01*
X-619087Y-100897D01*
X-619905Y-102121D01*
X-620782Y-103305D01*
X-621717Y-104443D01*
X-622706Y-105534D01*
X-623748Y-106576D01*
X-624839Y-107565D01*
X-625978Y-108500D01*
X-627161Y-109377D01*
X-628385Y-110195D01*
X-629649Y-110953D01*
X-630948Y-111647D01*
X-632279Y-112277D01*
X-633640Y-112840D01*
X-635027Y-113336D01*
X-636436Y-113764D01*
X-637865Y-114122D01*
X-639310Y-114409D01*
X-640767Y-114625D01*
X-642232Y-114770D01*
X-643704Y-114842D01*
X-645176Y-114842D01*
X-646648Y-114770D01*
X-648113Y-114625D01*
X-649570Y-114409D01*
X-651015Y-114122D01*
X-652444Y-113764D01*
X-653853Y-113336D01*
X-655240Y-112840D01*
X-656601Y-112277D01*
X-657932Y-111647D01*
X-659231Y-110953D01*
X-660495Y-110195D01*
X-661719Y-109377D01*
X-662903Y-108500D01*
X-664041Y-107565D01*
X-665132Y-106576D01*
X-666174Y-105534D01*
X-667163Y-104443D01*
X-668098Y-103305D01*
X-668975Y-102121D01*
X-669793Y-100897D01*
X-670550Y-99633D01*
X-671245Y-98334D01*
X-671875Y-97003D01*
X-672438Y-95642D01*
X-672934Y-94255D01*
X-673362Y-92846D01*
X-673720Y-91417D01*
X-674007Y-89972D01*
X-674223Y-88515D01*
X-674368Y-87050D01*
X-674440Y-85579D01*
X-674440Y-84106D01*
X-674368Y-82634D01*
X-674223Y-81169D01*
X-674007Y-79712D01*
X-673720Y-78267D01*
X-673362Y-76838D01*
X-672934Y-75429D01*
X-672438Y-74042D01*
X-671875Y-72681D01*
X-671245Y-71350D01*
X-670550Y-70051D01*
X-669793Y-68787D01*
X-668975Y-67563D01*
X-668098Y-66380D01*
X-667163Y-65241D01*
X-666174Y-64150D01*
X-665132Y-63108D01*
X-664041Y-62119D01*
X-662903Y-61185D01*
X-661719Y-60307D01*
X-660495Y-59489D01*
X-659231Y-58732D01*
X-657932Y-58037D01*
X-656601Y-57407D01*
X-655240Y-56844D01*
X-653853Y-56348D01*
X-652444Y-55920D01*
X-651015Y-55562D01*
X-649570Y-55275D01*
X-648113Y-55059D01*
X-646648Y-54914D01*
X-645176Y-54842D01*
X-643704Y-54842D01*
X-642232Y-54914D01*
X-640767Y-55059D01*
X-639310Y-55275D01*
X-637865Y-55562D01*
X-636436Y-55920D01*
X-635027Y-56348D01*
X-633640Y-56844D01*
X-632279Y-57407D01*
X-630948Y-58037D01*
X-629649Y-58732D01*
X-628385Y-59489D01*
X-627161Y-60307D01*
X-625978Y-61185D01*
X-624839Y-62119D01*
X-623748Y-63108D01*
X-622706Y-64150D01*
X-621717Y-65241D01*
X-620782Y-66380D01*
X-619905Y-67563D01*
X-619087Y-68787D01*
X-618330Y-70051D01*
X-617635Y-71350D01*
X-617005Y-72681D01*
X-616442Y-74042D01*
X-615946Y-75429D01*
X-615518Y-76838D01*
X-615160Y-78267D01*
X-614873Y-79712D01*
X-614657Y-81169D01*
X-614512Y-82634D01*
X-614440Y-84106D01*
X-614440Y-85579D01*
X164860Y507464D02*
X164784Y506396D01*
X164631Y505335D01*
X164403Y504288D01*
X164101Y503260D01*
X163727Y502256D01*
X163282Y501281D01*
X162768Y500341D01*
X162189Y499440D01*
X161547Y498582D01*
X160845Y497772D01*
X160088Y497015D01*
X159278Y496313D01*
X158420Y495671D01*
X157519Y495092D01*
X156579Y494578D01*
X155604Y494133D01*
X154600Y493759D01*
X153572Y493457D01*
X152525Y493229D01*
X151464Y493076D01*
X150396Y493000D01*
X149324Y493000D01*
X148256Y493076D01*
X147195Y493229D01*
X146148Y493457D01*
X145120Y493759D01*
X144116Y494133D01*
X143141Y494578D01*
X142201Y495092D01*
X141300Y495671D01*
X140442Y496313D01*
X139632Y497015D01*
X138875Y497772D01*
X138173Y498582D01*
X137531Y499440D01*
X136952Y500341D01*
X136438Y501281D01*
X135993Y502256D01*
X135619Y503260D01*
X135317Y504288D01*
X135089Y505335D01*
X134936Y506396D01*
X134860Y507464D01*
X134860Y508536D01*
X134936Y509604D01*
X135089Y510665D01*
X135317Y511712D01*
X135619Y512740D01*
X135993Y513744D01*
X136438Y514719D01*
X136952Y515659D01*
X137531Y516560D01*
X138173Y517418D01*
X138875Y518228D01*
X139632Y518985D01*
X140442Y519687D01*
X141300Y520329D01*
X142201Y520908D01*
X143141Y521422D01*
X144116Y521867D01*
X145120Y522241D01*
X146148Y522543D01*
X147195Y522771D01*
X148256Y522924D01*
X149324Y523000D01*
X150396Y523000D01*
X151464Y522924D01*
X152525Y522771D01*
X153572Y522543D01*
X154600Y522241D01*
X155604Y521867D01*
X156579Y521422D01*
X157519Y520908D01*
X158420Y520329D01*
X159278Y519687D01*
X160088Y518985D01*
X160845Y518228D01*
X161547Y517418D01*
X162189Y516560D01*
X162768Y515659D01*
X163282Y514719D01*
X163727Y513744D01*
X164101Y512740D01*
X164403Y511712D01*
X164631Y510665D01*
X164784Y509604D01*
X164860Y508536D01*
X164860Y507464D01*
X-134860Y507464D02*
X-134936Y506396D01*
X-135089Y505335D01*
X-135317Y504288D01*
X-135619Y503260D01*
X-135993Y502256D01*
X-136438Y501281D01*
X-136952Y500341D01*
X-137531Y499440D01*
X-138173Y498582D01*
X-138875Y497772D01*
X-139632Y497015D01*
X-140442Y496313D01*
X-141300Y495671D01*
X-142201Y495092D01*
X-143141Y494578D01*
X-144116Y494133D01*
X-145120Y493759D01*
X-146148Y493457D01*
X-147195Y493229D01*
X-148256Y493076D01*
X-149324Y493000D01*
X-150396Y493000D01*
X-151464Y493076D01*
X-152525Y493229D01*
X-153572Y493457D01*
X-154600Y493759D01*
X-155604Y494133D01*
X-156579Y494578D01*
X-157519Y495092D01*
X-158420Y495671D01*
X-159278Y496313D01*
X-160088Y497015D01*
X-160845Y497772D01*
X-161547Y498582D01*
X-162189Y499440D01*
X-162768Y500341D01*
X-163282Y501281D01*
X-163727Y502256D01*
X-164101Y503260D01*
X-164403Y504288D01*
X-164631Y505335D01*
X-164784Y506396D01*
X-164860Y507464D01*
X-164860Y508536D01*
X-164784Y509604D01*
X-164631Y510665D01*
X-164403Y511712D01*
X-164101Y512740D01*
X-163727Y513744D01*
X-163282Y514719D01*
X-162768Y515659D01*
X-162189Y516560D01*
X-161547Y517418D01*
X-160845Y518228D01*
X-160088Y518985D01*
X-159278Y519687D01*
X-158420Y520329D01*
X-157519Y520908D01*
X-156579Y521422D01*
X-155604Y521867D01*
X-154600Y522241D01*
X-153572Y522543D01*
X-152525Y522771D01*
X-151464Y522924D01*
X-150396Y523000D01*
X-149324Y523000D01*
X-148256Y522924D01*
X-147195Y522771D01*
X-146148Y522543D01*
X-145120Y522241D01*
X-144116Y521867D01*
X-143141Y521422D01*
X-142201Y520908D01*
X-141300Y520329D01*
X-140442Y519687D01*
X-139632Y518985D01*
X-138875Y518228D01*
X-138173Y517418D01*
X-137531Y516560D01*
X-136952Y515659D01*
X-136438Y514719D01*
X-135993Y513744D01*
X-135619Y512740D01*
X-135317Y511712D01*
X-135089Y510665D01*
X-134936Y509604D01*
X-134860Y508536D01*
X-134860Y507464D01*
X-574200Y-57587D02*
X-574276Y-58457D01*
X-574428Y-59316D01*
X-574654Y-60160D01*
X-574952Y-60980D01*
X-575321Y-61772D01*
X-575758Y-62528D01*
X-576259Y-63243D01*
X-576820Y-63912D01*
X-577438Y-64530D01*
X-578107Y-65091D01*
X-578822Y-65592D01*
X-579578Y-66029D01*
X-580370Y-66398D01*
X-581190Y-66696D01*
X-582034Y-66922D01*
X-582894Y-67074D01*
X-583763Y-67150D01*
X-584637Y-67150D01*
X-585507Y-67074D01*
X-586366Y-66922D01*
X-587210Y-66696D01*
X-588030Y-66398D01*
X-588822Y-66029D01*
X-589578Y-65592D01*
X-590293Y-65091D01*
X-590962Y-64530D01*
X-591580Y-63912D01*
X-592141Y-63243D01*
X-592642Y-62528D01*
X-593079Y-61772D01*
X-593448Y-60980D01*
X-593746Y-60160D01*
X-593972Y-59316D01*
X-594124Y-58457D01*
X-594200Y-57587D01*
X-594200Y-56713D01*
X-594124Y-55844D01*
X-593972Y-54984D01*
X-593746Y-54140D01*
X-593448Y-53320D01*
X-593079Y-52528D01*
X-592642Y-51772D01*
X-592141Y-51057D01*
X-591580Y-50388D01*
X-590962Y-49770D01*
X-590293Y-49209D01*
X-589578Y-48708D01*
X-588822Y-48271D01*
X-588030Y-47902D01*
X-587210Y-47604D01*
X-586366Y-47378D01*
X-585507Y-47226D01*
X-584637Y-47150D01*
X-583763Y-47150D01*
X-582894Y-47226D01*
X-582034Y-47378D01*
X-581190Y-47604D01*
X-580370Y-47902D01*
X-579578Y-48271D01*
X-578822Y-48708D01*
X-578107Y-49209D01*
X-577438Y-49770D01*
X-576820Y-50388D01*
X-576259Y-51057D01*
X-575758Y-51772D01*
X-575321Y-52528D01*
X-574952Y-53320D01*
X-574654Y-54140D01*
X-574428Y-54984D01*
X-574276Y-55844D01*
X-574200Y-56713D01*
X-574200Y-57587D01*
X-345600Y-57587D02*
X-345676Y-58457D01*
X-345828Y-59316D01*
X-346054Y-60160D01*
X-346352Y-60980D01*
X-346721Y-61772D01*
X-347158Y-62528D01*
X-347659Y-63243D01*
X-348220Y-63912D01*
X-348838Y-64530D01*
X-349507Y-65091D01*
X-350222Y-65592D01*
X-350978Y-66029D01*
X-351770Y-66398D01*
X-352590Y-66696D01*
X-353434Y-66922D01*
X-354294Y-67074D01*
X-355163Y-67150D01*
X-356037Y-67150D01*
X-356907Y-67074D01*
X-357766Y-66922D01*
X-358610Y-66696D01*
X-359430Y-66398D01*
X-360222Y-66029D01*
X-360978Y-65592D01*
X-361693Y-65091D01*
X-362362Y-64530D01*
X-362980Y-63912D01*
X-363541Y-63243D01*
X-364042Y-62528D01*
X-364479Y-61772D01*
X-364848Y-60980D01*
X-365146Y-60160D01*
X-365372Y-59316D01*
X-365524Y-58457D01*
X-365600Y-57587D01*
X-365600Y-56713D01*
X-365524Y-55844D01*
X-365372Y-54984D01*
X-365146Y-54140D01*
X-364848Y-53320D01*
X-364479Y-52528D01*
X-364042Y-51772D01*
X-363541Y-51057D01*
X-362980Y-50388D01*
X-362362Y-49770D01*
X-361693Y-49209D01*
X-360978Y-48708D01*
X-360222Y-48271D01*
X-359430Y-47902D01*
X-358610Y-47604D01*
X-357766Y-47378D01*
X-356907Y-47226D01*
X-356037Y-47150D01*
X-355163Y-47150D01*
X-354294Y-47226D01*
X-353434Y-47378D01*
X-352590Y-47604D01*
X-351770Y-47902D01*
X-350978Y-48271D01*
X-350222Y-48708D01*
X-349507Y-49209D01*
X-348838Y-49770D01*
X-348220Y-50388D01*
X-347659Y-51057D01*
X-347158Y-51772D01*
X-346721Y-52528D01*
X-346352Y-53320D01*
X-346054Y-54140D01*
X-345828Y-54984D01*
X-345676Y-55844D01*
X-345600Y-56713D01*
X-345600Y-57587D01*
X158400Y-240714D02*
X158471Y-239544D01*
X158612Y-238380D01*
X158823Y-237226D01*
X159104Y-236088D01*
X159453Y-234969D01*
X159869Y-233873D01*
X160350Y-232803D01*
X160895Y-231765D01*
X161501Y-230762D01*
X162167Y-229797D01*
X162890Y-228874D01*
X163668Y-227997D01*
X164497Y-227168D01*
X165374Y-226390D01*
X166297Y-225667D01*
X167262Y-225001D01*
X168265Y-224395D01*
X169303Y-223850D01*
X170373Y-223369D01*
X171469Y-222953D01*
X172588Y-222604D01*
X173726Y-222323D01*
X174880Y-222112D01*
X176044Y-221971D01*
X177214Y-221900D01*
X178386Y-221900D01*
X179556Y-221971D01*
X180720Y-222112D01*
X181874Y-222323D01*
X183012Y-222604D01*
X184131Y-222953D01*
X185227Y-223369D01*
X186297Y-223850D01*
X187335Y-224395D01*
X188338Y-225001D01*
X189303Y-225667D01*
X190226Y-226390D01*
X191103Y-227168D01*
X191932Y-227997D01*
X192710Y-228874D01*
X193433Y-229797D01*
X194099Y-230762D01*
X194705Y-231765D01*
X195250Y-232803D01*
X195731Y-233873D01*
X196147Y-234969D01*
X196496Y-236088D01*
X196777Y-237226D01*
X196988Y-238380D01*
X197129Y-239544D01*
X197200Y-240714D01*
X197200Y-241886D01*
X197129Y-243056D01*
X196988Y-244220D01*
X196777Y-245374D01*
X196496Y-246512D01*
X196147Y-247631D01*
X195731Y-248727D01*
X195250Y-249797D01*
X194705Y-250835D01*
X194099Y-251838D01*
X193433Y-252803D01*
X192710Y-253726D01*
X191932Y-254603D01*
X191103Y-255432D01*
X190226Y-256210D01*
X189303Y-256933D01*
X188338Y-257599D01*
X187335Y-258205D01*
X186297Y-258750D01*
X185227Y-259231D01*
X184131Y-259647D01*
X183012Y-259996D01*
X181874Y-260277D01*
X180720Y-260488D01*
X179556Y-260629D01*
X178386Y-260700D01*
X177214Y-260700D01*
X176044Y-260629D01*
X174880Y-260488D01*
X173726Y-260277D01*
X172588Y-259996D01*
X171469Y-259647D01*
X170373Y-259231D01*
X169303Y-258750D01*
X168265Y-258205D01*
X167262Y-257599D01*
X166297Y-256933D01*
X165374Y-256210D01*
X164497Y-255432D01*
X163668Y-254603D01*
X162890Y-253726D01*
X162167Y-252803D01*
X161501Y-251838D01*
X160895Y-250835D01*
X160350Y-249797D01*
X159869Y-248727D01*
X159453Y-247631D01*
X159104Y-246512D01*
X158823Y-245374D01*
X158612Y-244220D01*
X158471Y-243056D01*
X158400Y-241886D01*
X158400Y-240714D01*
X247300Y-240714D02*
X247371Y-239544D01*
X247512Y-238380D01*
X247723Y-237226D01*
X248004Y-236088D01*
X248353Y-234969D01*
X248769Y-233873D01*
X249250Y-232803D01*
X249795Y-231765D01*
X250401Y-230762D01*
X251067Y-229797D01*
X251790Y-228874D01*
X252568Y-227997D01*
X253397Y-227168D01*
X254274Y-226390D01*
X255197Y-225667D01*
X256162Y-225001D01*
X257165Y-224395D01*
X258203Y-223850D01*
X259273Y-223369D01*
X260369Y-222953D01*
X261488Y-222604D01*
X262626Y-222323D01*
X263780Y-222112D01*
X264944Y-221971D01*
X266114Y-221900D01*
X267286Y-221900D01*
X268456Y-221971D01*
X269620Y-222112D01*
X270774Y-222323D01*
X271912Y-222604D01*
X273031Y-222953D01*
X274127Y-223369D01*
X275197Y-223850D01*
X276235Y-224395D01*
X277238Y-225001D01*
X278203Y-225667D01*
X279126Y-226390D01*
X280003Y-227168D01*
X280832Y-227997D01*
X281610Y-228874D01*
X282333Y-229797D01*
X282999Y-230762D01*
X283605Y-231765D01*
X284150Y-232803D01*
X284631Y-233873D01*
X285047Y-234969D01*
X285396Y-236088D01*
X285677Y-237226D01*
X285888Y-238380D01*
X286029Y-239544D01*
X286100Y-240714D01*
X286100Y-241886D01*
X286029Y-243056D01*
X285888Y-244220D01*
X285677Y-245374D01*
X285396Y-246512D01*
X285047Y-247631D01*
X284631Y-248727D01*
X284150Y-249797D01*
X283605Y-250835D01*
X282999Y-251838D01*
X282333Y-252803D01*
X281610Y-253726D01*
X280832Y-254603D01*
X280003Y-255432D01*
X279126Y-256210D01*
X278203Y-256933D01*
X277238Y-257599D01*
X276235Y-258205D01*
X275197Y-258750D01*
X274127Y-259231D01*
X273031Y-259647D01*
X271912Y-259996D01*
X270774Y-260277D01*
X269620Y-260488D01*
X268456Y-260629D01*
X267286Y-260700D01*
X266114Y-260700D01*
X264944Y-260629D01*
X263780Y-260488D01*
X262626Y-260277D01*
X261488Y-259996D01*
X260369Y-259647D01*
X259273Y-259231D01*
X258203Y-258750D01*
X257165Y-258205D01*
X256162Y-257599D01*
X255197Y-256933D01*
X254274Y-256210D01*
X253397Y-255432D01*
X252568Y-254603D01*
X251790Y-253726D01*
X251067Y-252803D01*
X250401Y-251838D01*
X249795Y-250835D01*
X249250Y-249797D01*
X248769Y-248727D01*
X248353Y-247631D01*
X248004Y-246512D01*
X247723Y-245374D01*
X247512Y-244220D01*
X247371Y-243056D01*
X247300Y-241886D01*
X247300Y-240714D01*
M02*
