G04 EAGLE Gerber X2 export*
%TF.Part,Single*%
%TF.FileFunction,Legend,Bot,1*%
%TF.FilePolarity,Positive*%
%TF.GenerationSoftware,Autodesk,EAGLE,8.6.0*%
%TF.CreationDate,2019-04-04T15:37:23Z*%
G75*
%MOMM*%
%FSLAX34Y34*%
%LPD*%
%AMOC8*
5,1,8,0,0,1.08239X$1,22.5*%
G01*
%ADD10C,0.101600*%
%ADD11C,0.152400*%
%ADD12C,0.203200*%
%ADD13C,0.076200*%
%ADD14C,0.127000*%


D10*
X-120556Y23582D02*
X-128818Y31844D01*
X-126523Y34139D02*
X-131113Y29549D01*
X-139115Y21547D02*
X-125345Y18793D01*
X-130853Y13285D02*
X-133607Y27055D01*
X-137179Y13385D02*
X-142687Y7877D01*
X-143316Y822D02*
X-151578Y9084D01*
X-147906Y-3768D01*
X-156168Y4494D01*
X-155260Y-3778D02*
X-153424Y-5614D01*
X-155260Y-3778D02*
X-155333Y-3709D01*
X-155408Y-3642D01*
X-155486Y-3578D01*
X-155566Y-3517D01*
X-155649Y-3459D01*
X-155733Y-3405D01*
X-155820Y-3353D01*
X-155908Y-3306D01*
X-155999Y-3261D01*
X-156091Y-3220D01*
X-156185Y-3183D01*
X-156279Y-3150D01*
X-156376Y-3120D01*
X-156473Y-3094D01*
X-156571Y-3072D01*
X-156670Y-3053D01*
X-156770Y-3039D01*
X-156870Y-3028D01*
X-156970Y-3021D01*
X-157071Y-3018D01*
X-157172Y-3019D01*
X-157272Y-3024D01*
X-157372Y-3033D01*
X-157472Y-3045D01*
X-157572Y-3062D01*
X-157670Y-3082D01*
X-157768Y-3106D01*
X-157865Y-3134D01*
X-157960Y-3166D01*
X-158054Y-3201D01*
X-158147Y-3240D01*
X-158239Y-3283D01*
X-158328Y-3329D01*
X-158416Y-3378D01*
X-158501Y-3431D01*
X-158585Y-3487D01*
X-158666Y-3547D01*
X-158745Y-3609D01*
X-158822Y-3675D01*
X-158896Y-3743D01*
X-158967Y-3814D01*
X-159035Y-3888D01*
X-159101Y-3965D01*
X-159163Y-4044D01*
X-159223Y-4125D01*
X-159279Y-4209D01*
X-159332Y-4294D01*
X-159381Y-4382D01*
X-159427Y-4471D01*
X-159470Y-4563D01*
X-159509Y-4656D01*
X-159544Y-4750D01*
X-159576Y-4845D01*
X-159604Y-4942D01*
X-159628Y-5040D01*
X-159648Y-5138D01*
X-159665Y-5238D01*
X-159677Y-5338D01*
X-159686Y-5438D01*
X-159691Y-5539D01*
X-159692Y-5639D01*
X-159689Y-5740D01*
X-159682Y-5840D01*
X-159671Y-5940D01*
X-159657Y-6040D01*
X-159638Y-6139D01*
X-159616Y-6237D01*
X-159590Y-6334D01*
X-159560Y-6431D01*
X-159527Y-6526D01*
X-159490Y-6619D01*
X-159449Y-6711D01*
X-159404Y-6802D01*
X-159357Y-6890D01*
X-159305Y-6977D01*
X-159251Y-7062D01*
X-159193Y-7144D01*
X-159132Y-7224D01*
X-159068Y-7302D01*
X-159001Y-7377D01*
X-158932Y-7450D01*
X-157096Y-9285D01*
X-157096Y-9286D02*
X-157023Y-9355D01*
X-156948Y-9422D01*
X-156870Y-9486D01*
X-156790Y-9547D01*
X-156707Y-9605D01*
X-156623Y-9659D01*
X-156536Y-9711D01*
X-156448Y-9758D01*
X-156357Y-9803D01*
X-156265Y-9844D01*
X-156171Y-9881D01*
X-156077Y-9914D01*
X-155980Y-9944D01*
X-155883Y-9970D01*
X-155785Y-9992D01*
X-155686Y-10011D01*
X-155586Y-10025D01*
X-155486Y-10036D01*
X-155386Y-10043D01*
X-155285Y-10046D01*
X-155185Y-10045D01*
X-155084Y-10040D01*
X-154984Y-10031D01*
X-154884Y-10019D01*
X-154784Y-10002D01*
X-154686Y-9982D01*
X-154588Y-9958D01*
X-154491Y-9930D01*
X-154396Y-9898D01*
X-154302Y-9863D01*
X-154209Y-9824D01*
X-154117Y-9781D01*
X-154028Y-9735D01*
X-153940Y-9686D01*
X-153855Y-9633D01*
X-153771Y-9577D01*
X-153690Y-9517D01*
X-153611Y-9455D01*
X-153534Y-9389D01*
X-153460Y-9321D01*
X-153389Y-9250D01*
X-153321Y-9176D01*
X-153255Y-9099D01*
X-153193Y-9020D01*
X-153133Y-8939D01*
X-153077Y-8855D01*
X-153024Y-8770D01*
X-152975Y-8682D01*
X-152929Y-8593D01*
X-152886Y-8501D01*
X-152847Y-8408D01*
X-152812Y-8314D01*
X-152780Y-8219D01*
X-152752Y-8122D01*
X-152728Y-8024D01*
X-152708Y-7926D01*
X-152691Y-7826D01*
X-152679Y-7726D01*
X-152670Y-7626D01*
X-152665Y-7526D01*
X-152664Y-7425D01*
X-152667Y-7324D01*
X-152674Y-7224D01*
X-152685Y-7124D01*
X-152699Y-7024D01*
X-152718Y-6925D01*
X-152740Y-6827D01*
X-152766Y-6730D01*
X-152796Y-6633D01*
X-152829Y-6539D01*
X-152866Y-6445D01*
X-152907Y-6353D01*
X-152952Y-6262D01*
X-152999Y-6174D01*
X-153050Y-6087D01*
X-153105Y-6003D01*
X-153163Y-5920D01*
X-153224Y-5840D01*
X-153288Y-5762D01*
X-153355Y-5687D01*
X-153424Y-5614D01*
X-158909Y-14770D02*
X-164417Y-9263D01*
X-167171Y-12017D01*
X-166253Y-12935D01*
X-169074Y-13920D02*
X-171828Y-16674D01*
X-172746Y-12084D02*
X-165861Y-18969D01*
X-165801Y-19032D01*
X-165743Y-19098D01*
X-165689Y-19167D01*
X-165638Y-19237D01*
X-165589Y-19310D01*
X-165545Y-19385D01*
X-165503Y-19462D01*
X-165465Y-19541D01*
X-165431Y-19621D01*
X-165400Y-19703D01*
X-165373Y-19786D01*
X-165350Y-19870D01*
X-165331Y-19955D01*
X-165315Y-20041D01*
X-165303Y-20128D01*
X-165295Y-20215D01*
X-165291Y-20302D01*
X-165291Y-20390D01*
X-165295Y-20477D01*
X-165303Y-20564D01*
X-165315Y-20651D01*
X-165331Y-20737D01*
X-165350Y-20822D01*
X-165373Y-20906D01*
X-165400Y-20989D01*
X-165431Y-21071D01*
X-165465Y-21151D01*
X-165503Y-21230D01*
X-165545Y-21307D01*
X-165589Y-21382D01*
X-165638Y-21455D01*
X-165689Y-21525D01*
X-165743Y-21594D01*
X-165801Y-21660D01*
X-165861Y-21723D01*
X-166320Y-22182D01*
X-169638Y-25500D02*
X-177900Y-17238D01*
X-175146Y-19992D02*
X-177441Y-22287D01*
X-177501Y-22350D01*
X-177559Y-22416D01*
X-177613Y-22485D01*
X-177664Y-22555D01*
X-177713Y-22628D01*
X-177757Y-22703D01*
X-177799Y-22780D01*
X-177837Y-22859D01*
X-177871Y-22939D01*
X-177902Y-23021D01*
X-177929Y-23104D01*
X-177952Y-23188D01*
X-177971Y-23273D01*
X-177987Y-23359D01*
X-177999Y-23446D01*
X-178007Y-23533D01*
X-178011Y-23620D01*
X-178011Y-23708D01*
X-178007Y-23795D01*
X-177999Y-23882D01*
X-177987Y-23969D01*
X-177971Y-24055D01*
X-177952Y-24140D01*
X-177929Y-24224D01*
X-177902Y-24307D01*
X-177871Y-24389D01*
X-177837Y-24469D01*
X-177799Y-24548D01*
X-177757Y-24625D01*
X-177713Y-24700D01*
X-177664Y-24773D01*
X-177613Y-24843D01*
X-177559Y-24912D01*
X-177501Y-24978D01*
X-177441Y-25041D01*
X-173310Y-29172D01*
X-134284Y45414D02*
X-142546Y53676D01*
X-144841Y51381D01*
X-144920Y51300D01*
X-144996Y51216D01*
X-145069Y51129D01*
X-145138Y51039D01*
X-145205Y50948D01*
X-145268Y50854D01*
X-145328Y50758D01*
X-145385Y50660D01*
X-145438Y50560D01*
X-145488Y50458D01*
X-145534Y50354D01*
X-145576Y50249D01*
X-145615Y50143D01*
X-145650Y50035D01*
X-145681Y49926D01*
X-145709Y49816D01*
X-145732Y49705D01*
X-145752Y49594D01*
X-145768Y49482D01*
X-145780Y49369D01*
X-145788Y49256D01*
X-145792Y49143D01*
X-145792Y49029D01*
X-145788Y48916D01*
X-145780Y48803D01*
X-145768Y48690D01*
X-145752Y48578D01*
X-145732Y48467D01*
X-145709Y48356D01*
X-145681Y48246D01*
X-145650Y48137D01*
X-145615Y48029D01*
X-145576Y47923D01*
X-145534Y47818D01*
X-145488Y47714D01*
X-145438Y47612D01*
X-145385Y47512D01*
X-145328Y47414D01*
X-145268Y47318D01*
X-145205Y47224D01*
X-145138Y47133D01*
X-145069Y47043D01*
X-144996Y46956D01*
X-144920Y46872D01*
X-144841Y46791D01*
X-144760Y46712D01*
X-144676Y46636D01*
X-144589Y46563D01*
X-144499Y46494D01*
X-144408Y46427D01*
X-144314Y46364D01*
X-144218Y46304D01*
X-144120Y46247D01*
X-144020Y46194D01*
X-143918Y46144D01*
X-143814Y46098D01*
X-143709Y46056D01*
X-143603Y46017D01*
X-143495Y45982D01*
X-143386Y45951D01*
X-143276Y45923D01*
X-143165Y45900D01*
X-143054Y45880D01*
X-142942Y45864D01*
X-142829Y45852D01*
X-142716Y45844D01*
X-142603Y45840D01*
X-142489Y45840D01*
X-142376Y45844D01*
X-142263Y45852D01*
X-142150Y45864D01*
X-142038Y45880D01*
X-141927Y45900D01*
X-141816Y45923D01*
X-141706Y45951D01*
X-141597Y45982D01*
X-141489Y46017D01*
X-141383Y46056D01*
X-141278Y46098D01*
X-141174Y46144D01*
X-141072Y46194D01*
X-140972Y46247D01*
X-140874Y46304D01*
X-140778Y46364D01*
X-140684Y46427D01*
X-140593Y46494D01*
X-140503Y46563D01*
X-140416Y46636D01*
X-140332Y46712D01*
X-140251Y46791D01*
X-137956Y49086D01*
X-140710Y46332D02*
X-138874Y40824D01*
X-141855Y37843D02*
X-155625Y40597D01*
X-150117Y46105D02*
X-147363Y32335D01*
X-153689Y32435D02*
X-159197Y26927D01*
X-159826Y19872D02*
X-168088Y28134D01*
X-164416Y15282D01*
X-172678Y23544D01*
X-171770Y15272D02*
X-169934Y13436D01*
X-171770Y15272D02*
X-171843Y15341D01*
X-171918Y15408D01*
X-171996Y15472D01*
X-172076Y15533D01*
X-172159Y15591D01*
X-172243Y15645D01*
X-172330Y15697D01*
X-172418Y15744D01*
X-172509Y15789D01*
X-172601Y15830D01*
X-172695Y15867D01*
X-172789Y15900D01*
X-172886Y15930D01*
X-172983Y15956D01*
X-173081Y15978D01*
X-173180Y15997D01*
X-173280Y16011D01*
X-173380Y16022D01*
X-173480Y16029D01*
X-173581Y16032D01*
X-173682Y16031D01*
X-173782Y16026D01*
X-173882Y16017D01*
X-173982Y16005D01*
X-174082Y15988D01*
X-174180Y15968D01*
X-174278Y15944D01*
X-174375Y15916D01*
X-174470Y15884D01*
X-174564Y15849D01*
X-174657Y15810D01*
X-174749Y15767D01*
X-174838Y15721D01*
X-174926Y15672D01*
X-175011Y15619D01*
X-175095Y15563D01*
X-175176Y15503D01*
X-175255Y15441D01*
X-175332Y15375D01*
X-175406Y15307D01*
X-175477Y15236D01*
X-175545Y15162D01*
X-175611Y15085D01*
X-175673Y15006D01*
X-175733Y14925D01*
X-175789Y14841D01*
X-175842Y14756D01*
X-175891Y14668D01*
X-175937Y14579D01*
X-175980Y14487D01*
X-176019Y14394D01*
X-176054Y14300D01*
X-176086Y14205D01*
X-176114Y14108D01*
X-176138Y14010D01*
X-176158Y13912D01*
X-176175Y13812D01*
X-176187Y13712D01*
X-176196Y13612D01*
X-176201Y13511D01*
X-176202Y13411D01*
X-176199Y13310D01*
X-176192Y13210D01*
X-176181Y13110D01*
X-176167Y13010D01*
X-176148Y12911D01*
X-176126Y12813D01*
X-176100Y12716D01*
X-176070Y12619D01*
X-176037Y12524D01*
X-176000Y12431D01*
X-175959Y12339D01*
X-175914Y12248D01*
X-175867Y12160D01*
X-175815Y12073D01*
X-175761Y11988D01*
X-175703Y11906D01*
X-175642Y11826D01*
X-175578Y11748D01*
X-175511Y11673D01*
X-175442Y11600D01*
X-173606Y9764D01*
X-173533Y9695D01*
X-173458Y9628D01*
X-173380Y9564D01*
X-173300Y9503D01*
X-173217Y9445D01*
X-173133Y9391D01*
X-173046Y9339D01*
X-172958Y9292D01*
X-172867Y9247D01*
X-172775Y9206D01*
X-172681Y9169D01*
X-172587Y9136D01*
X-172490Y9106D01*
X-172393Y9080D01*
X-172295Y9058D01*
X-172196Y9039D01*
X-172096Y9025D01*
X-171996Y9014D01*
X-171896Y9007D01*
X-171795Y9004D01*
X-171695Y9005D01*
X-171594Y9010D01*
X-171494Y9019D01*
X-171394Y9031D01*
X-171294Y9048D01*
X-171196Y9068D01*
X-171098Y9092D01*
X-171001Y9120D01*
X-170906Y9152D01*
X-170812Y9187D01*
X-170719Y9226D01*
X-170627Y9269D01*
X-170538Y9315D01*
X-170450Y9364D01*
X-170365Y9417D01*
X-170281Y9473D01*
X-170200Y9533D01*
X-170121Y9595D01*
X-170044Y9661D01*
X-169970Y9729D01*
X-169899Y9800D01*
X-169831Y9874D01*
X-169765Y9951D01*
X-169703Y10030D01*
X-169643Y10111D01*
X-169587Y10195D01*
X-169534Y10280D01*
X-169485Y10368D01*
X-169439Y10457D01*
X-169396Y10549D01*
X-169357Y10642D01*
X-169322Y10736D01*
X-169290Y10831D01*
X-169262Y10928D01*
X-169238Y11026D01*
X-169218Y11124D01*
X-169201Y11224D01*
X-169189Y11324D01*
X-169180Y11424D01*
X-169175Y11524D01*
X-169174Y11625D01*
X-169177Y11726D01*
X-169184Y11826D01*
X-169195Y11926D01*
X-169209Y12026D01*
X-169228Y12125D01*
X-169250Y12223D01*
X-169276Y12320D01*
X-169306Y12417D01*
X-169339Y12511D01*
X-169376Y12605D01*
X-169417Y12697D01*
X-169462Y12788D01*
X-169509Y12876D01*
X-169560Y12963D01*
X-169615Y13047D01*
X-169673Y13130D01*
X-169734Y13210D01*
X-169798Y13288D01*
X-169865Y13363D01*
X-169934Y13436D01*
X-175419Y4279D02*
X-180927Y9787D01*
X-183681Y7033D01*
X-182763Y6115D01*
X-185584Y5130D02*
X-188338Y2376D01*
X-189256Y6966D02*
X-182371Y81D01*
X-182311Y18D01*
X-182253Y-48D01*
X-182199Y-117D01*
X-182148Y-187D01*
X-182099Y-260D01*
X-182055Y-335D01*
X-182013Y-412D01*
X-181975Y-491D01*
X-181941Y-571D01*
X-181910Y-653D01*
X-181883Y-736D01*
X-181860Y-820D01*
X-181841Y-905D01*
X-181825Y-991D01*
X-181813Y-1078D01*
X-181805Y-1165D01*
X-181801Y-1252D01*
X-181801Y-1340D01*
X-181805Y-1427D01*
X-181813Y-1514D01*
X-181825Y-1601D01*
X-181841Y-1687D01*
X-181860Y-1772D01*
X-181883Y-1856D01*
X-181910Y-1939D01*
X-181941Y-2021D01*
X-181975Y-2101D01*
X-182013Y-2180D01*
X-182055Y-2257D01*
X-182099Y-2332D01*
X-182148Y-2405D01*
X-182199Y-2475D01*
X-182253Y-2544D01*
X-182311Y-2610D01*
X-182371Y-2673D01*
X-182830Y-3132D01*
X-186148Y-6450D02*
X-194410Y1812D01*
X-191656Y-942D02*
X-193951Y-3237D01*
X-194011Y-3300D01*
X-194069Y-3366D01*
X-194123Y-3435D01*
X-194174Y-3505D01*
X-194223Y-3578D01*
X-194267Y-3653D01*
X-194309Y-3730D01*
X-194347Y-3809D01*
X-194381Y-3889D01*
X-194412Y-3971D01*
X-194439Y-4054D01*
X-194462Y-4138D01*
X-194481Y-4223D01*
X-194497Y-4309D01*
X-194509Y-4396D01*
X-194517Y-4483D01*
X-194521Y-4570D01*
X-194521Y-4658D01*
X-194517Y-4745D01*
X-194509Y-4832D01*
X-194497Y-4919D01*
X-194481Y-5005D01*
X-194462Y-5090D01*
X-194439Y-5174D01*
X-194412Y-5257D01*
X-194381Y-5339D01*
X-194347Y-5419D01*
X-194309Y-5498D01*
X-194267Y-5575D01*
X-194223Y-5650D01*
X-194174Y-5723D01*
X-194123Y-5793D01*
X-194069Y-5862D01*
X-194011Y-5928D01*
X-193951Y-5991D01*
X-189820Y-10122D01*
X-116516Y11126D02*
X-108254Y2864D01*
X-116516Y11126D02*
X-118811Y8831D01*
X-118890Y8750D01*
X-118966Y8666D01*
X-119039Y8579D01*
X-119108Y8489D01*
X-119175Y8398D01*
X-119238Y8304D01*
X-119298Y8208D01*
X-119355Y8110D01*
X-119408Y8010D01*
X-119458Y7908D01*
X-119504Y7804D01*
X-119546Y7699D01*
X-119585Y7593D01*
X-119620Y7485D01*
X-119651Y7376D01*
X-119679Y7266D01*
X-119702Y7155D01*
X-119722Y7044D01*
X-119738Y6932D01*
X-119750Y6819D01*
X-119758Y6706D01*
X-119762Y6593D01*
X-119762Y6479D01*
X-119758Y6366D01*
X-119750Y6253D01*
X-119738Y6140D01*
X-119722Y6028D01*
X-119702Y5917D01*
X-119679Y5806D01*
X-119651Y5696D01*
X-119620Y5587D01*
X-119585Y5479D01*
X-119546Y5373D01*
X-119504Y5268D01*
X-119458Y5164D01*
X-119408Y5062D01*
X-119355Y4962D01*
X-119298Y4864D01*
X-119238Y4768D01*
X-119175Y4674D01*
X-119108Y4583D01*
X-119039Y4493D01*
X-118966Y4406D01*
X-118890Y4322D01*
X-118811Y4241D01*
X-118730Y4162D01*
X-118646Y4086D01*
X-118559Y4013D01*
X-118469Y3944D01*
X-118378Y3877D01*
X-118284Y3814D01*
X-118188Y3754D01*
X-118090Y3697D01*
X-117990Y3644D01*
X-117888Y3594D01*
X-117784Y3548D01*
X-117679Y3506D01*
X-117573Y3467D01*
X-117465Y3432D01*
X-117356Y3401D01*
X-117246Y3373D01*
X-117135Y3350D01*
X-117024Y3330D01*
X-116912Y3314D01*
X-116799Y3302D01*
X-116686Y3294D01*
X-116573Y3290D01*
X-116459Y3290D01*
X-116346Y3294D01*
X-116233Y3302D01*
X-116120Y3314D01*
X-116008Y3330D01*
X-115897Y3350D01*
X-115786Y3373D01*
X-115676Y3401D01*
X-115567Y3432D01*
X-115459Y3467D01*
X-115353Y3506D01*
X-115248Y3548D01*
X-115144Y3594D01*
X-115042Y3644D01*
X-114942Y3697D01*
X-114844Y3754D01*
X-114748Y3814D01*
X-114654Y3877D01*
X-114563Y3944D01*
X-114473Y4013D01*
X-114386Y4086D01*
X-114302Y4162D01*
X-114221Y4241D01*
X-111926Y6536D01*
X-114680Y3782D02*
X-112844Y-1726D01*
X-115826Y-4707D02*
X-129595Y-1953D01*
X-124087Y3555D02*
X-121333Y-10215D01*
X-127660Y-10115D02*
X-133167Y-15623D01*
X-133812Y-22694D02*
X-137484Y-26366D01*
X-133812Y-22694D02*
X-142074Y-14432D01*
X-145746Y-18104D01*
X-141156Y-20858D02*
X-138402Y-18104D01*
X-145229Y-27685D02*
X-147295Y-29750D01*
X-145230Y-27684D02*
X-145161Y-27619D01*
X-145089Y-27556D01*
X-145016Y-27496D01*
X-144939Y-27439D01*
X-144860Y-27386D01*
X-144780Y-27335D01*
X-144697Y-27289D01*
X-144612Y-27245D01*
X-144525Y-27206D01*
X-144437Y-27170D01*
X-144348Y-27138D01*
X-144257Y-27109D01*
X-144165Y-27085D01*
X-144072Y-27064D01*
X-143978Y-27047D01*
X-143884Y-27034D01*
X-143789Y-27025D01*
X-143694Y-27020D01*
X-143599Y-27019D01*
X-143504Y-27022D01*
X-143409Y-27029D01*
X-143315Y-27040D01*
X-143221Y-27055D01*
X-143127Y-27074D01*
X-143035Y-27096D01*
X-142944Y-27123D01*
X-142853Y-27153D01*
X-142765Y-27187D01*
X-142677Y-27225D01*
X-142592Y-27267D01*
X-142508Y-27312D01*
X-142426Y-27360D01*
X-142346Y-27412D01*
X-142268Y-27467D01*
X-142193Y-27525D01*
X-142120Y-27587D01*
X-142050Y-27651D01*
X-141983Y-27718D01*
X-141919Y-27788D01*
X-141857Y-27861D01*
X-141799Y-27936D01*
X-141744Y-28014D01*
X-141692Y-28094D01*
X-141644Y-28176D01*
X-141599Y-28260D01*
X-141557Y-28345D01*
X-141519Y-28433D01*
X-141485Y-28521D01*
X-141455Y-28612D01*
X-141428Y-28703D01*
X-141406Y-28795D01*
X-141387Y-28889D01*
X-141372Y-28983D01*
X-141361Y-29077D01*
X-141354Y-29172D01*
X-141351Y-29267D01*
X-141352Y-29362D01*
X-141357Y-29457D01*
X-141366Y-29552D01*
X-141379Y-29646D01*
X-141396Y-29740D01*
X-141417Y-29833D01*
X-141441Y-29925D01*
X-141470Y-30016D01*
X-141502Y-30105D01*
X-141538Y-30193D01*
X-141577Y-30280D01*
X-141621Y-30365D01*
X-141667Y-30448D01*
X-141718Y-30528D01*
X-141771Y-30607D01*
X-141828Y-30684D01*
X-141888Y-30757D01*
X-141951Y-30829D01*
X-142016Y-30898D01*
X-144082Y-32963D01*
X-148213Y-28832D01*
X-148273Y-28769D01*
X-148331Y-28703D01*
X-148385Y-28634D01*
X-148436Y-28564D01*
X-148485Y-28491D01*
X-148529Y-28416D01*
X-148571Y-28339D01*
X-148609Y-28260D01*
X-148643Y-28180D01*
X-148674Y-28098D01*
X-148701Y-28015D01*
X-148724Y-27931D01*
X-148743Y-27846D01*
X-148759Y-27760D01*
X-148771Y-27673D01*
X-148779Y-27586D01*
X-148783Y-27499D01*
X-148783Y-27411D01*
X-148779Y-27324D01*
X-148771Y-27237D01*
X-148759Y-27150D01*
X-148743Y-27064D01*
X-148724Y-26979D01*
X-148701Y-26895D01*
X-148674Y-26812D01*
X-148643Y-26730D01*
X-148609Y-26650D01*
X-148571Y-26571D01*
X-148529Y-26494D01*
X-148485Y-26419D01*
X-148436Y-26346D01*
X-148385Y-26276D01*
X-148331Y-26207D01*
X-148273Y-26141D01*
X-148213Y-26078D01*
X-146377Y-24242D01*
X-151627Y-34083D02*
X-153004Y-37295D01*
X-151627Y-34083D02*
X-151597Y-34007D01*
X-151570Y-33929D01*
X-151547Y-33851D01*
X-151528Y-33771D01*
X-151513Y-33691D01*
X-151502Y-33609D01*
X-151494Y-33528D01*
X-151491Y-33446D01*
X-151492Y-33364D01*
X-151497Y-33282D01*
X-151505Y-33201D01*
X-151518Y-33120D01*
X-151535Y-33039D01*
X-151555Y-32960D01*
X-151579Y-32882D01*
X-151607Y-32805D01*
X-151639Y-32729D01*
X-151675Y-32655D01*
X-151714Y-32583D01*
X-151756Y-32513D01*
X-151802Y-32445D01*
X-151851Y-32380D01*
X-151903Y-32317D01*
X-151958Y-32256D01*
X-152016Y-32198D01*
X-152077Y-32143D01*
X-152141Y-32092D01*
X-152207Y-32043D01*
X-152275Y-31997D01*
X-152345Y-31955D01*
X-152417Y-31917D01*
X-152491Y-31882D01*
X-152567Y-31850D01*
X-152644Y-31823D01*
X-152723Y-31799D01*
X-152802Y-31779D01*
X-152882Y-31762D01*
X-152963Y-31750D01*
X-153045Y-31742D01*
X-153127Y-31738D01*
X-153209Y-31737D01*
X-153291Y-31741D01*
X-153372Y-31749D01*
X-153453Y-31760D01*
X-153534Y-31776D01*
X-153613Y-31795D01*
X-153692Y-31819D01*
X-153769Y-31846D01*
X-153845Y-31877D01*
X-153919Y-31911D01*
X-153992Y-31949D01*
X-154063Y-31991D01*
X-154131Y-32036D01*
X-154197Y-32084D01*
X-154261Y-32135D01*
X-154322Y-32190D01*
X-154381Y-32247D01*
X-154503Y-32375D01*
X-154622Y-32507D01*
X-154737Y-32641D01*
X-154850Y-32778D01*
X-154959Y-32918D01*
X-155065Y-33060D01*
X-155167Y-33205D01*
X-155266Y-33352D01*
X-155361Y-33502D01*
X-155452Y-33653D01*
X-155540Y-33807D01*
X-155624Y-33963D01*
X-155705Y-34121D01*
X-155781Y-34281D01*
X-155854Y-34443D01*
X-155923Y-34606D01*
X-155987Y-34771D01*
X-153004Y-37295D02*
X-153034Y-37371D01*
X-153061Y-37449D01*
X-153084Y-37527D01*
X-153103Y-37607D01*
X-153118Y-37687D01*
X-153129Y-37769D01*
X-153137Y-37850D01*
X-153140Y-37932D01*
X-153139Y-38014D01*
X-153134Y-38096D01*
X-153126Y-38177D01*
X-153113Y-38258D01*
X-153096Y-38339D01*
X-153076Y-38418D01*
X-153052Y-38496D01*
X-153024Y-38573D01*
X-152992Y-38649D01*
X-152956Y-38723D01*
X-152917Y-38795D01*
X-152875Y-38865D01*
X-152829Y-38933D01*
X-152780Y-38998D01*
X-152728Y-39061D01*
X-152673Y-39122D01*
X-152615Y-39180D01*
X-152554Y-39235D01*
X-152490Y-39286D01*
X-152424Y-39335D01*
X-152356Y-39381D01*
X-152286Y-39423D01*
X-152214Y-39461D01*
X-152140Y-39496D01*
X-152064Y-39528D01*
X-151987Y-39555D01*
X-151908Y-39579D01*
X-151829Y-39599D01*
X-151749Y-39616D01*
X-151668Y-39628D01*
X-151586Y-39636D01*
X-151504Y-39640D01*
X-151422Y-39641D01*
X-151340Y-39637D01*
X-151259Y-39629D01*
X-151178Y-39618D01*
X-151097Y-39602D01*
X-151018Y-39583D01*
X-150939Y-39559D01*
X-150862Y-39532D01*
X-150786Y-39501D01*
X-150712Y-39467D01*
X-150639Y-39429D01*
X-150568Y-39387D01*
X-150500Y-39342D01*
X-150434Y-39294D01*
X-150370Y-39243D01*
X-150309Y-39188D01*
X-150250Y-39131D01*
X-150071Y-38942D01*
X-149896Y-38749D01*
X-149726Y-38552D01*
X-149560Y-38351D01*
X-149400Y-38146D01*
X-149244Y-37937D01*
X-149093Y-37725D01*
X-148948Y-37509D01*
X-148807Y-37290D01*
X-148672Y-37067D01*
X-148542Y-36842D01*
X-148417Y-36613D01*
X-148298Y-36382D01*
X-148184Y-36148D01*
X-159554Y-37420D02*
X-162308Y-40174D01*
X-163226Y-35584D02*
X-156341Y-42469D01*
X-156281Y-42532D01*
X-156223Y-42598D01*
X-156169Y-42667D01*
X-156118Y-42737D01*
X-156069Y-42810D01*
X-156025Y-42885D01*
X-155983Y-42962D01*
X-155945Y-43041D01*
X-155911Y-43121D01*
X-155880Y-43203D01*
X-155853Y-43286D01*
X-155830Y-43370D01*
X-155811Y-43455D01*
X-155795Y-43541D01*
X-155783Y-43628D01*
X-155775Y-43715D01*
X-155771Y-43802D01*
X-155771Y-43890D01*
X-155775Y-43977D01*
X-155783Y-44064D01*
X-155795Y-44151D01*
X-155811Y-44237D01*
X-155830Y-44322D01*
X-155853Y-44406D01*
X-155880Y-44489D01*
X-155911Y-44571D01*
X-155945Y-44651D01*
X-155983Y-44730D01*
X-156025Y-44807D01*
X-156069Y-44882D01*
X-156118Y-44955D01*
X-156169Y-45025D01*
X-156223Y-45094D01*
X-156281Y-45160D01*
X-156341Y-45223D01*
X-156341Y-45222D02*
X-156800Y-45682D01*
X-101518Y-10706D02*
X-93256Y-18968D01*
X-99223Y-8411D02*
X-103813Y-13001D01*
X-111815Y-21003D02*
X-98046Y-23757D01*
X-103553Y-29265D02*
X-106307Y-15495D01*
X-109880Y-29165D02*
X-115387Y-34673D01*
X-116032Y-41744D02*
X-119704Y-45415D01*
X-116032Y-41744D02*
X-124294Y-33482D01*
X-127966Y-37154D01*
X-123376Y-39908D02*
X-120622Y-37154D01*
X-127449Y-46735D02*
X-129515Y-48800D01*
X-127450Y-46734D02*
X-127381Y-46669D01*
X-127309Y-46606D01*
X-127236Y-46546D01*
X-127159Y-46489D01*
X-127080Y-46436D01*
X-127000Y-46385D01*
X-126917Y-46339D01*
X-126832Y-46295D01*
X-126745Y-46256D01*
X-126657Y-46220D01*
X-126568Y-46188D01*
X-126477Y-46159D01*
X-126385Y-46135D01*
X-126292Y-46114D01*
X-126198Y-46097D01*
X-126104Y-46084D01*
X-126009Y-46075D01*
X-125914Y-46070D01*
X-125819Y-46069D01*
X-125724Y-46072D01*
X-125629Y-46079D01*
X-125535Y-46090D01*
X-125441Y-46105D01*
X-125347Y-46124D01*
X-125255Y-46146D01*
X-125164Y-46173D01*
X-125073Y-46203D01*
X-124985Y-46237D01*
X-124897Y-46275D01*
X-124812Y-46317D01*
X-124728Y-46362D01*
X-124646Y-46410D01*
X-124566Y-46462D01*
X-124488Y-46517D01*
X-124413Y-46575D01*
X-124340Y-46637D01*
X-124270Y-46701D01*
X-124203Y-46768D01*
X-124139Y-46838D01*
X-124077Y-46911D01*
X-124019Y-46986D01*
X-123964Y-47064D01*
X-123912Y-47144D01*
X-123864Y-47226D01*
X-123819Y-47310D01*
X-123777Y-47395D01*
X-123739Y-47483D01*
X-123705Y-47571D01*
X-123675Y-47662D01*
X-123648Y-47753D01*
X-123626Y-47845D01*
X-123607Y-47939D01*
X-123592Y-48033D01*
X-123581Y-48127D01*
X-123574Y-48222D01*
X-123571Y-48317D01*
X-123572Y-48412D01*
X-123577Y-48507D01*
X-123586Y-48602D01*
X-123599Y-48696D01*
X-123616Y-48790D01*
X-123637Y-48883D01*
X-123661Y-48975D01*
X-123690Y-49066D01*
X-123722Y-49155D01*
X-123758Y-49243D01*
X-123797Y-49330D01*
X-123841Y-49415D01*
X-123887Y-49498D01*
X-123938Y-49578D01*
X-123991Y-49657D01*
X-124048Y-49734D01*
X-124108Y-49807D01*
X-124171Y-49879D01*
X-124236Y-49948D01*
X-126302Y-52013D01*
X-130433Y-47882D01*
X-130493Y-47819D01*
X-130551Y-47753D01*
X-130605Y-47684D01*
X-130656Y-47614D01*
X-130705Y-47541D01*
X-130749Y-47466D01*
X-130791Y-47389D01*
X-130829Y-47310D01*
X-130863Y-47230D01*
X-130894Y-47148D01*
X-130921Y-47065D01*
X-130944Y-46981D01*
X-130963Y-46896D01*
X-130979Y-46810D01*
X-130991Y-46723D01*
X-130999Y-46636D01*
X-131003Y-46549D01*
X-131003Y-46461D01*
X-130999Y-46374D01*
X-130991Y-46287D01*
X-130979Y-46200D01*
X-130963Y-46114D01*
X-130944Y-46029D01*
X-130921Y-45945D01*
X-130894Y-45862D01*
X-130863Y-45780D01*
X-130829Y-45700D01*
X-130791Y-45621D01*
X-130749Y-45544D01*
X-130705Y-45469D01*
X-130656Y-45396D01*
X-130605Y-45326D01*
X-130551Y-45257D01*
X-130493Y-45191D01*
X-130433Y-45128D01*
X-128597Y-43292D01*
X-133847Y-53132D02*
X-135224Y-56345D01*
X-133847Y-53132D02*
X-133817Y-53056D01*
X-133790Y-52978D01*
X-133767Y-52900D01*
X-133748Y-52820D01*
X-133733Y-52740D01*
X-133722Y-52658D01*
X-133714Y-52577D01*
X-133711Y-52495D01*
X-133712Y-52413D01*
X-133717Y-52331D01*
X-133725Y-52250D01*
X-133738Y-52169D01*
X-133755Y-52088D01*
X-133775Y-52009D01*
X-133799Y-51931D01*
X-133827Y-51854D01*
X-133859Y-51778D01*
X-133895Y-51704D01*
X-133934Y-51632D01*
X-133976Y-51562D01*
X-134022Y-51494D01*
X-134071Y-51429D01*
X-134123Y-51366D01*
X-134178Y-51305D01*
X-134236Y-51247D01*
X-134297Y-51192D01*
X-134361Y-51141D01*
X-134427Y-51092D01*
X-134495Y-51046D01*
X-134565Y-51004D01*
X-134637Y-50966D01*
X-134711Y-50931D01*
X-134787Y-50899D01*
X-134864Y-50872D01*
X-134943Y-50848D01*
X-135022Y-50828D01*
X-135102Y-50811D01*
X-135183Y-50799D01*
X-135265Y-50791D01*
X-135347Y-50787D01*
X-135429Y-50786D01*
X-135511Y-50790D01*
X-135592Y-50798D01*
X-135673Y-50809D01*
X-135754Y-50825D01*
X-135833Y-50844D01*
X-135912Y-50868D01*
X-135989Y-50895D01*
X-136065Y-50926D01*
X-136139Y-50960D01*
X-136212Y-50998D01*
X-136283Y-51040D01*
X-136351Y-51085D01*
X-136417Y-51133D01*
X-136481Y-51184D01*
X-136542Y-51239D01*
X-136601Y-51296D01*
X-136601Y-51297D02*
X-136723Y-51425D01*
X-136842Y-51557D01*
X-136957Y-51691D01*
X-137070Y-51828D01*
X-137179Y-51968D01*
X-137285Y-52110D01*
X-137387Y-52255D01*
X-137486Y-52402D01*
X-137581Y-52552D01*
X-137672Y-52703D01*
X-137760Y-52857D01*
X-137844Y-53013D01*
X-137925Y-53171D01*
X-138001Y-53331D01*
X-138074Y-53493D01*
X-138143Y-53656D01*
X-138207Y-53821D01*
X-135224Y-56345D02*
X-135254Y-56421D01*
X-135281Y-56499D01*
X-135304Y-56577D01*
X-135323Y-56657D01*
X-135338Y-56737D01*
X-135349Y-56819D01*
X-135357Y-56900D01*
X-135360Y-56982D01*
X-135359Y-57064D01*
X-135354Y-57146D01*
X-135346Y-57227D01*
X-135333Y-57308D01*
X-135316Y-57389D01*
X-135296Y-57468D01*
X-135272Y-57546D01*
X-135244Y-57623D01*
X-135212Y-57699D01*
X-135176Y-57773D01*
X-135137Y-57845D01*
X-135095Y-57915D01*
X-135049Y-57983D01*
X-135000Y-58048D01*
X-134948Y-58111D01*
X-134893Y-58172D01*
X-134835Y-58230D01*
X-134774Y-58285D01*
X-134710Y-58336D01*
X-134644Y-58385D01*
X-134576Y-58431D01*
X-134506Y-58473D01*
X-134434Y-58511D01*
X-134360Y-58546D01*
X-134284Y-58578D01*
X-134207Y-58605D01*
X-134128Y-58629D01*
X-134049Y-58649D01*
X-133969Y-58666D01*
X-133888Y-58678D01*
X-133806Y-58686D01*
X-133724Y-58690D01*
X-133642Y-58691D01*
X-133560Y-58687D01*
X-133479Y-58679D01*
X-133398Y-58668D01*
X-133317Y-58652D01*
X-133238Y-58633D01*
X-133159Y-58609D01*
X-133082Y-58582D01*
X-133006Y-58551D01*
X-132932Y-58517D01*
X-132859Y-58479D01*
X-132788Y-58437D01*
X-132720Y-58392D01*
X-132654Y-58344D01*
X-132590Y-58293D01*
X-132529Y-58238D01*
X-132470Y-58181D01*
X-132291Y-57992D01*
X-132116Y-57799D01*
X-131946Y-57602D01*
X-131780Y-57401D01*
X-131620Y-57196D01*
X-131464Y-56987D01*
X-131313Y-56775D01*
X-131168Y-56559D01*
X-131027Y-56340D01*
X-130892Y-56117D01*
X-130762Y-55892D01*
X-130637Y-55663D01*
X-130518Y-55432D01*
X-130404Y-55198D01*
X-141774Y-56470D02*
X-144528Y-59224D01*
X-145446Y-54634D02*
X-138561Y-61518D01*
X-138501Y-61581D01*
X-138443Y-61647D01*
X-138389Y-61716D01*
X-138338Y-61786D01*
X-138289Y-61859D01*
X-138245Y-61934D01*
X-138203Y-62011D01*
X-138165Y-62090D01*
X-138131Y-62170D01*
X-138100Y-62252D01*
X-138073Y-62335D01*
X-138050Y-62419D01*
X-138031Y-62504D01*
X-138015Y-62590D01*
X-138003Y-62677D01*
X-137995Y-62764D01*
X-137991Y-62851D01*
X-137991Y-62939D01*
X-137995Y-63026D01*
X-138003Y-63113D01*
X-138015Y-63200D01*
X-138031Y-63286D01*
X-138050Y-63371D01*
X-138073Y-63455D01*
X-138100Y-63538D01*
X-138131Y-63620D01*
X-138165Y-63700D01*
X-138203Y-63779D01*
X-138245Y-63856D01*
X-138289Y-63931D01*
X-138338Y-64004D01*
X-138389Y-64074D01*
X-138443Y-64143D01*
X-138501Y-64209D01*
X-138561Y-64272D01*
X-139020Y-64731D01*
X-73158Y-19176D02*
X-64896Y-27438D01*
X-73158Y-19176D02*
X-75453Y-21471D01*
X-75532Y-21552D01*
X-75608Y-21636D01*
X-75681Y-21723D01*
X-75750Y-21812D01*
X-75817Y-21904D01*
X-75880Y-21998D01*
X-75940Y-22094D01*
X-75997Y-22192D01*
X-76050Y-22292D01*
X-76100Y-22394D01*
X-76146Y-22498D01*
X-76188Y-22603D01*
X-76227Y-22709D01*
X-76262Y-22817D01*
X-76293Y-22926D01*
X-76321Y-23036D01*
X-76344Y-23147D01*
X-76364Y-23258D01*
X-76380Y-23370D01*
X-76392Y-23483D01*
X-76400Y-23596D01*
X-76404Y-23709D01*
X-76404Y-23823D01*
X-76400Y-23936D01*
X-76392Y-24049D01*
X-76380Y-24162D01*
X-76364Y-24274D01*
X-76344Y-24385D01*
X-76321Y-24496D01*
X-76293Y-24606D01*
X-76262Y-24715D01*
X-76227Y-24823D01*
X-76188Y-24929D01*
X-76146Y-25034D01*
X-76100Y-25138D01*
X-76050Y-25240D01*
X-75997Y-25340D01*
X-75940Y-25438D01*
X-75880Y-25534D01*
X-75817Y-25628D01*
X-75750Y-25719D01*
X-75681Y-25809D01*
X-75608Y-25896D01*
X-75532Y-25980D01*
X-75453Y-26061D01*
X-75372Y-26140D01*
X-75288Y-26216D01*
X-75201Y-26289D01*
X-75111Y-26358D01*
X-75020Y-26425D01*
X-74926Y-26488D01*
X-74830Y-26548D01*
X-74732Y-26605D01*
X-74632Y-26658D01*
X-74530Y-26708D01*
X-74426Y-26754D01*
X-74321Y-26796D01*
X-74215Y-26835D01*
X-74107Y-26870D01*
X-73998Y-26901D01*
X-73888Y-26929D01*
X-73777Y-26952D01*
X-73666Y-26972D01*
X-73554Y-26988D01*
X-73441Y-27000D01*
X-73328Y-27008D01*
X-73215Y-27012D01*
X-73101Y-27012D01*
X-72988Y-27008D01*
X-72875Y-27000D01*
X-72762Y-26988D01*
X-72650Y-26972D01*
X-72539Y-26952D01*
X-72428Y-26929D01*
X-72318Y-26901D01*
X-72209Y-26870D01*
X-72101Y-26835D01*
X-71995Y-26796D01*
X-71890Y-26754D01*
X-71786Y-26708D01*
X-71684Y-26658D01*
X-71584Y-26605D01*
X-71486Y-26548D01*
X-71390Y-26488D01*
X-71296Y-26425D01*
X-71204Y-26358D01*
X-71115Y-26289D01*
X-71028Y-26216D01*
X-70944Y-26140D01*
X-70863Y-26061D01*
X-68568Y-23766D01*
X-71322Y-26520D02*
X-69486Y-32028D01*
X-72467Y-35009D02*
X-86237Y-32255D01*
X-80729Y-26747D02*
X-77975Y-40517D01*
X-84301Y-40417D02*
X-89809Y-45925D01*
X-92653Y-55195D02*
X-92725Y-55264D01*
X-92799Y-55330D01*
X-92876Y-55393D01*
X-92955Y-55453D01*
X-93036Y-55511D01*
X-93120Y-55565D01*
X-93205Y-55615D01*
X-93293Y-55663D01*
X-93382Y-55707D01*
X-93473Y-55748D01*
X-93565Y-55785D01*
X-93658Y-55819D01*
X-93753Y-55849D01*
X-93849Y-55875D01*
X-93946Y-55898D01*
X-94044Y-55917D01*
X-94142Y-55932D01*
X-94241Y-55943D01*
X-94340Y-55951D01*
X-94439Y-55955D01*
X-94539Y-55955D01*
X-94638Y-55951D01*
X-94737Y-55943D01*
X-94836Y-55932D01*
X-94934Y-55917D01*
X-95032Y-55898D01*
X-95129Y-55875D01*
X-95225Y-55849D01*
X-95320Y-55819D01*
X-95413Y-55785D01*
X-95505Y-55748D01*
X-95596Y-55707D01*
X-95685Y-55663D01*
X-95773Y-55615D01*
X-95858Y-55565D01*
X-95942Y-55511D01*
X-96023Y-55453D01*
X-96102Y-55393D01*
X-96179Y-55330D01*
X-96253Y-55264D01*
X-96325Y-55195D01*
X-92653Y-55194D02*
X-92553Y-55091D01*
X-92455Y-54985D01*
X-92360Y-54876D01*
X-92267Y-54765D01*
X-92178Y-54652D01*
X-92092Y-54536D01*
X-92009Y-54418D01*
X-91929Y-54298D01*
X-91852Y-54176D01*
X-91778Y-54052D01*
X-91708Y-53926D01*
X-91641Y-53798D01*
X-91577Y-53668D01*
X-91517Y-53537D01*
X-91460Y-53404D01*
X-91407Y-53270D01*
X-91357Y-53135D01*
X-91311Y-52998D01*
X-91269Y-52860D01*
X-91230Y-52721D01*
X-91195Y-52581D01*
X-91163Y-52440D01*
X-91136Y-52298D01*
X-91112Y-52156D01*
X-91091Y-52013D01*
X-91075Y-51870D01*
X-91062Y-51726D01*
X-91053Y-51582D01*
X-91048Y-51438D01*
X-91047Y-51293D01*
X-96554Y-46244D02*
X-96626Y-46175D01*
X-96700Y-46109D01*
X-96777Y-46046D01*
X-96856Y-45986D01*
X-96937Y-45928D01*
X-97021Y-45874D01*
X-97106Y-45824D01*
X-97194Y-45776D01*
X-97283Y-45732D01*
X-97374Y-45691D01*
X-97466Y-45654D01*
X-97559Y-45620D01*
X-97654Y-45590D01*
X-97750Y-45564D01*
X-97847Y-45541D01*
X-97945Y-45522D01*
X-98043Y-45507D01*
X-98142Y-45496D01*
X-98241Y-45488D01*
X-98340Y-45484D01*
X-98440Y-45484D01*
X-98539Y-45488D01*
X-98638Y-45496D01*
X-98737Y-45507D01*
X-98835Y-45522D01*
X-98933Y-45541D01*
X-99030Y-45564D01*
X-99126Y-45590D01*
X-99221Y-45620D01*
X-99314Y-45654D01*
X-99406Y-45691D01*
X-99497Y-45732D01*
X-99586Y-45776D01*
X-99674Y-45824D01*
X-99759Y-45874D01*
X-99843Y-45928D01*
X-99924Y-45986D01*
X-100003Y-46046D01*
X-100080Y-46109D01*
X-100154Y-46175D01*
X-100226Y-46244D01*
X-100321Y-46342D01*
X-100413Y-46442D01*
X-100503Y-46545D01*
X-100589Y-46650D01*
X-100672Y-46758D01*
X-100753Y-46868D01*
X-100830Y-46980D01*
X-100904Y-47094D01*
X-100975Y-47211D01*
X-101043Y-47329D01*
X-101107Y-47449D01*
X-101168Y-47571D01*
X-101225Y-47694D01*
X-101279Y-47819D01*
X-101330Y-47946D01*
X-101377Y-48074D01*
X-101420Y-48203D01*
X-101460Y-48333D01*
X-101496Y-48464D01*
X-101528Y-48597D01*
X-101557Y-48730D01*
X-101582Y-48864D01*
X-101603Y-48998D01*
X-95866Y-48769D02*
X-95842Y-48670D01*
X-95823Y-48571D01*
X-95807Y-48471D01*
X-95795Y-48370D01*
X-95787Y-48269D01*
X-95783Y-48167D01*
X-95782Y-48066D01*
X-95786Y-47965D01*
X-95793Y-47864D01*
X-95805Y-47763D01*
X-95820Y-47663D01*
X-95839Y-47563D01*
X-95862Y-47464D01*
X-95889Y-47366D01*
X-95919Y-47270D01*
X-95953Y-47174D01*
X-95991Y-47080D01*
X-96032Y-46987D01*
X-96077Y-46897D01*
X-96126Y-46807D01*
X-96177Y-46720D01*
X-96232Y-46635D01*
X-96291Y-46552D01*
X-96352Y-46471D01*
X-96417Y-46393D01*
X-96484Y-46317D01*
X-96554Y-46244D01*
X-97013Y-52670D02*
X-97037Y-52769D01*
X-97056Y-52868D01*
X-97072Y-52968D01*
X-97084Y-53069D01*
X-97092Y-53170D01*
X-97096Y-53272D01*
X-97097Y-53373D01*
X-97093Y-53474D01*
X-97086Y-53575D01*
X-97074Y-53676D01*
X-97059Y-53776D01*
X-97040Y-53876D01*
X-97017Y-53975D01*
X-96990Y-54073D01*
X-96960Y-54169D01*
X-96926Y-54265D01*
X-96888Y-54359D01*
X-96847Y-54452D01*
X-96802Y-54542D01*
X-96753Y-54632D01*
X-96702Y-54719D01*
X-96647Y-54804D01*
X-96588Y-54887D01*
X-96527Y-54968D01*
X-96462Y-55046D01*
X-96395Y-55122D01*
X-96325Y-55195D01*
X-97013Y-52670D02*
X-95866Y-48768D01*
X-101304Y-56501D02*
X-99468Y-58337D01*
X-101304Y-56501D02*
X-101377Y-56432D01*
X-101452Y-56365D01*
X-101530Y-56301D01*
X-101610Y-56240D01*
X-101693Y-56182D01*
X-101777Y-56128D01*
X-101864Y-56076D01*
X-101952Y-56029D01*
X-102043Y-55984D01*
X-102135Y-55943D01*
X-102229Y-55906D01*
X-102323Y-55873D01*
X-102420Y-55843D01*
X-102517Y-55817D01*
X-102615Y-55795D01*
X-102714Y-55776D01*
X-102814Y-55762D01*
X-102914Y-55751D01*
X-103014Y-55744D01*
X-103115Y-55741D01*
X-103216Y-55742D01*
X-103316Y-55747D01*
X-103416Y-55756D01*
X-103516Y-55768D01*
X-103616Y-55785D01*
X-103714Y-55805D01*
X-103812Y-55829D01*
X-103909Y-55857D01*
X-104004Y-55889D01*
X-104098Y-55924D01*
X-104191Y-55963D01*
X-104283Y-56006D01*
X-104372Y-56052D01*
X-104460Y-56101D01*
X-104545Y-56154D01*
X-104629Y-56210D01*
X-104710Y-56270D01*
X-104789Y-56332D01*
X-104866Y-56398D01*
X-104940Y-56466D01*
X-105011Y-56537D01*
X-105079Y-56611D01*
X-105145Y-56688D01*
X-105207Y-56767D01*
X-105267Y-56848D01*
X-105323Y-56932D01*
X-105376Y-57017D01*
X-105425Y-57105D01*
X-105471Y-57194D01*
X-105514Y-57286D01*
X-105553Y-57379D01*
X-105588Y-57473D01*
X-105620Y-57568D01*
X-105648Y-57665D01*
X-105672Y-57763D01*
X-105692Y-57861D01*
X-105709Y-57961D01*
X-105721Y-58061D01*
X-105730Y-58161D01*
X-105735Y-58262D01*
X-105736Y-58362D01*
X-105733Y-58463D01*
X-105726Y-58563D01*
X-105715Y-58663D01*
X-105701Y-58763D01*
X-105682Y-58862D01*
X-105660Y-58960D01*
X-105634Y-59057D01*
X-105604Y-59154D01*
X-105571Y-59249D01*
X-105534Y-59342D01*
X-105493Y-59434D01*
X-105448Y-59525D01*
X-105401Y-59613D01*
X-105349Y-59700D01*
X-105295Y-59785D01*
X-105237Y-59867D01*
X-105176Y-59947D01*
X-105112Y-60025D01*
X-105045Y-60100D01*
X-104976Y-60173D01*
X-103140Y-62009D01*
X-103067Y-62078D01*
X-102992Y-62145D01*
X-102914Y-62209D01*
X-102834Y-62270D01*
X-102751Y-62328D01*
X-102667Y-62382D01*
X-102580Y-62434D01*
X-102492Y-62481D01*
X-102401Y-62526D01*
X-102309Y-62567D01*
X-102215Y-62604D01*
X-102121Y-62637D01*
X-102024Y-62667D01*
X-101927Y-62693D01*
X-101829Y-62715D01*
X-101730Y-62734D01*
X-101630Y-62748D01*
X-101530Y-62759D01*
X-101430Y-62766D01*
X-101329Y-62769D01*
X-101229Y-62768D01*
X-101128Y-62763D01*
X-101028Y-62754D01*
X-100928Y-62742D01*
X-100828Y-62725D01*
X-100730Y-62705D01*
X-100632Y-62681D01*
X-100535Y-62653D01*
X-100440Y-62621D01*
X-100346Y-62586D01*
X-100253Y-62547D01*
X-100161Y-62504D01*
X-100072Y-62458D01*
X-99984Y-62409D01*
X-99899Y-62356D01*
X-99815Y-62300D01*
X-99734Y-62240D01*
X-99655Y-62178D01*
X-99578Y-62112D01*
X-99504Y-62044D01*
X-99433Y-61973D01*
X-99365Y-61899D01*
X-99299Y-61822D01*
X-99237Y-61743D01*
X-99177Y-61662D01*
X-99121Y-61578D01*
X-99068Y-61493D01*
X-99019Y-61405D01*
X-98973Y-61316D01*
X-98930Y-61224D01*
X-98891Y-61131D01*
X-98856Y-61037D01*
X-98824Y-60942D01*
X-98796Y-60845D01*
X-98772Y-60747D01*
X-98752Y-60649D01*
X-98735Y-60549D01*
X-98723Y-60449D01*
X-98714Y-60349D01*
X-98709Y-60249D01*
X-98708Y-60148D01*
X-98711Y-60047D01*
X-98718Y-59947D01*
X-98729Y-59847D01*
X-98743Y-59747D01*
X-98762Y-59648D01*
X-98784Y-59550D01*
X-98810Y-59453D01*
X-98840Y-59356D01*
X-98873Y-59262D01*
X-98910Y-59168D01*
X-98951Y-59076D01*
X-98996Y-58985D01*
X-99043Y-58897D01*
X-99094Y-58810D01*
X-99149Y-58726D01*
X-99207Y-58643D01*
X-99268Y-58563D01*
X-99332Y-58485D01*
X-99399Y-58410D01*
X-99468Y-58337D01*
X-106283Y-66070D02*
X-110414Y-61939D01*
X-106283Y-66070D02*
X-106223Y-66133D01*
X-106165Y-66199D01*
X-106111Y-66268D01*
X-106060Y-66338D01*
X-106011Y-66411D01*
X-105967Y-66486D01*
X-105925Y-66563D01*
X-105887Y-66642D01*
X-105853Y-66722D01*
X-105822Y-66804D01*
X-105795Y-66887D01*
X-105772Y-66971D01*
X-105753Y-67056D01*
X-105737Y-67142D01*
X-105725Y-67229D01*
X-105717Y-67316D01*
X-105713Y-67403D01*
X-105713Y-67491D01*
X-105717Y-67578D01*
X-105725Y-67665D01*
X-105737Y-67752D01*
X-105753Y-67838D01*
X-105772Y-67923D01*
X-105795Y-68007D01*
X-105822Y-68090D01*
X-105853Y-68172D01*
X-105887Y-68252D01*
X-105925Y-68331D01*
X-105967Y-68408D01*
X-106011Y-68483D01*
X-106060Y-68556D01*
X-106111Y-68626D01*
X-106165Y-68695D01*
X-106223Y-68761D01*
X-106283Y-68824D01*
X-108578Y-71119D01*
X-114086Y-65611D01*
X-117004Y-68529D02*
X-119758Y-71283D01*
X-120676Y-66693D02*
X-113791Y-73578D01*
X-113731Y-73641D01*
X-113673Y-73707D01*
X-113619Y-73776D01*
X-113568Y-73846D01*
X-113519Y-73919D01*
X-113475Y-73994D01*
X-113433Y-74071D01*
X-113395Y-74150D01*
X-113361Y-74230D01*
X-113330Y-74312D01*
X-113303Y-74395D01*
X-113280Y-74479D01*
X-113261Y-74564D01*
X-113245Y-74650D01*
X-113233Y-74737D01*
X-113225Y-74824D01*
X-113221Y-74911D01*
X-113221Y-74999D01*
X-113225Y-75086D01*
X-113233Y-75173D01*
X-113245Y-75260D01*
X-113261Y-75346D01*
X-113280Y-75431D01*
X-113303Y-75515D01*
X-113330Y-75598D01*
X-113361Y-75680D01*
X-113395Y-75760D01*
X-113433Y-75839D01*
X-113475Y-75916D01*
X-113519Y-75991D01*
X-113568Y-76064D01*
X-113619Y-76134D01*
X-113673Y-76203D01*
X-113731Y-76269D01*
X-113791Y-76332D01*
X-114250Y-76791D01*
X-117568Y-80109D02*
X-125830Y-71848D01*
X-123076Y-74602D02*
X-125371Y-76896D01*
X-125431Y-76959D01*
X-125489Y-77025D01*
X-125543Y-77094D01*
X-125594Y-77164D01*
X-125643Y-77237D01*
X-125687Y-77312D01*
X-125729Y-77389D01*
X-125767Y-77468D01*
X-125801Y-77548D01*
X-125832Y-77630D01*
X-125859Y-77713D01*
X-125882Y-77797D01*
X-125901Y-77882D01*
X-125917Y-77968D01*
X-125929Y-78055D01*
X-125937Y-78142D01*
X-125941Y-78229D01*
X-125941Y-78317D01*
X-125937Y-78404D01*
X-125929Y-78491D01*
X-125917Y-78578D01*
X-125901Y-78664D01*
X-125882Y-78749D01*
X-125859Y-78833D01*
X-125832Y-78916D01*
X-125801Y-78998D01*
X-125767Y-79078D01*
X-125729Y-79157D01*
X-125687Y-79234D01*
X-125643Y-79309D01*
X-125594Y-79382D01*
X-125543Y-79452D01*
X-125489Y-79521D01*
X-125431Y-79587D01*
X-125371Y-79650D01*
X-121240Y-83781D01*
X-58160Y-39738D02*
X-49898Y-47999D01*
X-55865Y-37443D02*
X-60455Y-42033D01*
X-68457Y-50035D02*
X-54687Y-52789D01*
X-60195Y-58297D02*
X-62949Y-44527D01*
X-66521Y-58197D02*
X-72029Y-63705D01*
X-74873Y-72975D02*
X-74945Y-73044D01*
X-75019Y-73110D01*
X-75096Y-73173D01*
X-75175Y-73233D01*
X-75256Y-73291D01*
X-75340Y-73345D01*
X-75425Y-73395D01*
X-75513Y-73443D01*
X-75602Y-73487D01*
X-75693Y-73528D01*
X-75785Y-73565D01*
X-75878Y-73599D01*
X-75973Y-73629D01*
X-76069Y-73655D01*
X-76166Y-73678D01*
X-76264Y-73697D01*
X-76362Y-73712D01*
X-76461Y-73723D01*
X-76560Y-73731D01*
X-76659Y-73735D01*
X-76759Y-73735D01*
X-76858Y-73731D01*
X-76957Y-73723D01*
X-77056Y-73712D01*
X-77154Y-73697D01*
X-77252Y-73678D01*
X-77349Y-73655D01*
X-77445Y-73629D01*
X-77540Y-73599D01*
X-77633Y-73565D01*
X-77725Y-73528D01*
X-77816Y-73487D01*
X-77905Y-73443D01*
X-77993Y-73395D01*
X-78078Y-73345D01*
X-78162Y-73291D01*
X-78243Y-73233D01*
X-78322Y-73173D01*
X-78399Y-73110D01*
X-78473Y-73044D01*
X-78545Y-72975D01*
X-74873Y-72974D02*
X-74773Y-72871D01*
X-74675Y-72765D01*
X-74580Y-72656D01*
X-74487Y-72545D01*
X-74398Y-72432D01*
X-74312Y-72316D01*
X-74229Y-72198D01*
X-74149Y-72078D01*
X-74072Y-71956D01*
X-73998Y-71832D01*
X-73928Y-71706D01*
X-73861Y-71578D01*
X-73797Y-71448D01*
X-73737Y-71317D01*
X-73680Y-71184D01*
X-73627Y-71050D01*
X-73577Y-70915D01*
X-73531Y-70778D01*
X-73489Y-70640D01*
X-73450Y-70501D01*
X-73415Y-70361D01*
X-73383Y-70220D01*
X-73356Y-70078D01*
X-73332Y-69936D01*
X-73311Y-69793D01*
X-73295Y-69650D01*
X-73282Y-69506D01*
X-73273Y-69362D01*
X-73268Y-69218D01*
X-73267Y-69073D01*
X-78774Y-64024D02*
X-78846Y-63955D01*
X-78920Y-63889D01*
X-78997Y-63826D01*
X-79076Y-63766D01*
X-79157Y-63708D01*
X-79241Y-63654D01*
X-79326Y-63604D01*
X-79414Y-63556D01*
X-79503Y-63512D01*
X-79594Y-63471D01*
X-79686Y-63434D01*
X-79779Y-63400D01*
X-79874Y-63370D01*
X-79970Y-63344D01*
X-80067Y-63321D01*
X-80165Y-63302D01*
X-80263Y-63287D01*
X-80362Y-63276D01*
X-80461Y-63268D01*
X-80560Y-63264D01*
X-80660Y-63264D01*
X-80759Y-63268D01*
X-80858Y-63276D01*
X-80957Y-63287D01*
X-81055Y-63302D01*
X-81153Y-63321D01*
X-81250Y-63344D01*
X-81346Y-63370D01*
X-81441Y-63400D01*
X-81534Y-63434D01*
X-81626Y-63471D01*
X-81717Y-63512D01*
X-81806Y-63556D01*
X-81894Y-63604D01*
X-81979Y-63654D01*
X-82063Y-63708D01*
X-82144Y-63766D01*
X-82223Y-63826D01*
X-82300Y-63889D01*
X-82374Y-63955D01*
X-82446Y-64024D01*
X-82541Y-64122D01*
X-82633Y-64222D01*
X-82723Y-64325D01*
X-82809Y-64430D01*
X-82892Y-64538D01*
X-82973Y-64648D01*
X-83050Y-64760D01*
X-83124Y-64874D01*
X-83195Y-64991D01*
X-83263Y-65109D01*
X-83327Y-65229D01*
X-83388Y-65351D01*
X-83445Y-65474D01*
X-83499Y-65599D01*
X-83550Y-65726D01*
X-83597Y-65854D01*
X-83640Y-65983D01*
X-83680Y-66113D01*
X-83716Y-66244D01*
X-83748Y-66377D01*
X-83777Y-66510D01*
X-83802Y-66644D01*
X-83823Y-66778D01*
X-78086Y-66549D02*
X-78062Y-66450D01*
X-78043Y-66351D01*
X-78027Y-66251D01*
X-78015Y-66150D01*
X-78007Y-66049D01*
X-78003Y-65947D01*
X-78002Y-65846D01*
X-78006Y-65745D01*
X-78013Y-65644D01*
X-78025Y-65543D01*
X-78040Y-65443D01*
X-78059Y-65343D01*
X-78082Y-65244D01*
X-78109Y-65146D01*
X-78139Y-65050D01*
X-78173Y-64954D01*
X-78211Y-64860D01*
X-78252Y-64767D01*
X-78297Y-64677D01*
X-78346Y-64587D01*
X-78397Y-64500D01*
X-78452Y-64415D01*
X-78511Y-64332D01*
X-78572Y-64251D01*
X-78637Y-64173D01*
X-78704Y-64097D01*
X-78774Y-64024D01*
X-79233Y-70450D02*
X-79257Y-70549D01*
X-79276Y-70648D01*
X-79292Y-70748D01*
X-79304Y-70849D01*
X-79312Y-70950D01*
X-79316Y-71052D01*
X-79317Y-71153D01*
X-79313Y-71254D01*
X-79306Y-71355D01*
X-79294Y-71456D01*
X-79279Y-71556D01*
X-79260Y-71656D01*
X-79237Y-71755D01*
X-79210Y-71853D01*
X-79180Y-71949D01*
X-79146Y-72045D01*
X-79108Y-72139D01*
X-79067Y-72232D01*
X-79022Y-72322D01*
X-78973Y-72412D01*
X-78922Y-72499D01*
X-78867Y-72584D01*
X-78808Y-72667D01*
X-78747Y-72748D01*
X-78682Y-72826D01*
X-78615Y-72902D01*
X-78545Y-72975D01*
X-79233Y-70450D02*
X-78086Y-66548D01*
X-83524Y-74281D02*
X-81688Y-76117D01*
X-83524Y-74281D02*
X-83597Y-74212D01*
X-83672Y-74145D01*
X-83750Y-74081D01*
X-83830Y-74020D01*
X-83913Y-73962D01*
X-83997Y-73908D01*
X-84084Y-73856D01*
X-84172Y-73809D01*
X-84263Y-73764D01*
X-84355Y-73723D01*
X-84449Y-73686D01*
X-84543Y-73653D01*
X-84640Y-73623D01*
X-84737Y-73597D01*
X-84835Y-73575D01*
X-84934Y-73556D01*
X-85034Y-73542D01*
X-85134Y-73531D01*
X-85234Y-73524D01*
X-85335Y-73521D01*
X-85436Y-73522D01*
X-85536Y-73527D01*
X-85636Y-73536D01*
X-85736Y-73548D01*
X-85836Y-73565D01*
X-85934Y-73585D01*
X-86032Y-73609D01*
X-86129Y-73637D01*
X-86224Y-73669D01*
X-86318Y-73704D01*
X-86411Y-73743D01*
X-86503Y-73786D01*
X-86592Y-73832D01*
X-86680Y-73881D01*
X-86765Y-73934D01*
X-86849Y-73990D01*
X-86930Y-74050D01*
X-87009Y-74112D01*
X-87086Y-74178D01*
X-87160Y-74246D01*
X-87231Y-74317D01*
X-87299Y-74391D01*
X-87365Y-74468D01*
X-87427Y-74547D01*
X-87487Y-74628D01*
X-87543Y-74712D01*
X-87596Y-74797D01*
X-87645Y-74885D01*
X-87691Y-74974D01*
X-87734Y-75066D01*
X-87773Y-75159D01*
X-87808Y-75253D01*
X-87840Y-75348D01*
X-87868Y-75445D01*
X-87892Y-75543D01*
X-87912Y-75641D01*
X-87929Y-75741D01*
X-87941Y-75841D01*
X-87950Y-75941D01*
X-87955Y-76042D01*
X-87956Y-76142D01*
X-87953Y-76243D01*
X-87946Y-76343D01*
X-87935Y-76443D01*
X-87921Y-76543D01*
X-87902Y-76642D01*
X-87880Y-76740D01*
X-87854Y-76837D01*
X-87824Y-76934D01*
X-87791Y-77029D01*
X-87754Y-77122D01*
X-87713Y-77214D01*
X-87668Y-77305D01*
X-87621Y-77393D01*
X-87569Y-77480D01*
X-87515Y-77565D01*
X-87457Y-77647D01*
X-87396Y-77727D01*
X-87332Y-77805D01*
X-87265Y-77880D01*
X-87196Y-77953D01*
X-85360Y-79789D01*
X-85287Y-79858D01*
X-85212Y-79925D01*
X-85134Y-79989D01*
X-85054Y-80050D01*
X-84971Y-80108D01*
X-84887Y-80162D01*
X-84800Y-80214D01*
X-84712Y-80261D01*
X-84621Y-80306D01*
X-84529Y-80347D01*
X-84435Y-80384D01*
X-84341Y-80417D01*
X-84244Y-80447D01*
X-84147Y-80473D01*
X-84049Y-80495D01*
X-83950Y-80514D01*
X-83850Y-80528D01*
X-83750Y-80539D01*
X-83650Y-80546D01*
X-83549Y-80549D01*
X-83449Y-80548D01*
X-83348Y-80543D01*
X-83248Y-80534D01*
X-83148Y-80522D01*
X-83048Y-80505D01*
X-82950Y-80485D01*
X-82852Y-80461D01*
X-82755Y-80433D01*
X-82660Y-80401D01*
X-82566Y-80366D01*
X-82473Y-80327D01*
X-82381Y-80284D01*
X-82292Y-80238D01*
X-82204Y-80189D01*
X-82119Y-80136D01*
X-82035Y-80080D01*
X-81954Y-80020D01*
X-81875Y-79958D01*
X-81798Y-79892D01*
X-81724Y-79824D01*
X-81653Y-79753D01*
X-81585Y-79679D01*
X-81519Y-79602D01*
X-81457Y-79523D01*
X-81397Y-79442D01*
X-81341Y-79358D01*
X-81288Y-79273D01*
X-81239Y-79185D01*
X-81193Y-79096D01*
X-81150Y-79004D01*
X-81111Y-78911D01*
X-81076Y-78817D01*
X-81044Y-78722D01*
X-81016Y-78625D01*
X-80992Y-78527D01*
X-80972Y-78429D01*
X-80955Y-78329D01*
X-80943Y-78229D01*
X-80934Y-78129D01*
X-80929Y-78029D01*
X-80928Y-77928D01*
X-80931Y-77827D01*
X-80938Y-77727D01*
X-80949Y-77627D01*
X-80963Y-77527D01*
X-80982Y-77428D01*
X-81004Y-77330D01*
X-81030Y-77233D01*
X-81060Y-77136D01*
X-81093Y-77042D01*
X-81130Y-76948D01*
X-81171Y-76856D01*
X-81216Y-76765D01*
X-81263Y-76677D01*
X-81314Y-76590D01*
X-81369Y-76506D01*
X-81427Y-76423D01*
X-81488Y-76343D01*
X-81552Y-76265D01*
X-81619Y-76190D01*
X-81688Y-76117D01*
X-88503Y-83850D02*
X-92634Y-79719D01*
X-88503Y-83850D02*
X-88443Y-83913D01*
X-88385Y-83979D01*
X-88331Y-84048D01*
X-88280Y-84118D01*
X-88231Y-84191D01*
X-88187Y-84266D01*
X-88145Y-84343D01*
X-88107Y-84422D01*
X-88073Y-84502D01*
X-88042Y-84584D01*
X-88015Y-84667D01*
X-87992Y-84751D01*
X-87973Y-84836D01*
X-87957Y-84922D01*
X-87945Y-85009D01*
X-87937Y-85096D01*
X-87933Y-85183D01*
X-87933Y-85271D01*
X-87937Y-85358D01*
X-87945Y-85445D01*
X-87957Y-85532D01*
X-87973Y-85618D01*
X-87992Y-85703D01*
X-88015Y-85787D01*
X-88042Y-85870D01*
X-88073Y-85952D01*
X-88107Y-86032D01*
X-88145Y-86111D01*
X-88187Y-86188D01*
X-88231Y-86263D01*
X-88280Y-86336D01*
X-88331Y-86406D01*
X-88385Y-86475D01*
X-88443Y-86541D01*
X-88503Y-86604D01*
X-90798Y-88899D01*
X-96306Y-83391D01*
X-99224Y-86309D02*
X-101978Y-89063D01*
X-102896Y-84473D02*
X-96011Y-91358D01*
X-95951Y-91421D01*
X-95893Y-91487D01*
X-95839Y-91556D01*
X-95788Y-91626D01*
X-95739Y-91699D01*
X-95695Y-91774D01*
X-95653Y-91851D01*
X-95615Y-91930D01*
X-95581Y-92010D01*
X-95550Y-92092D01*
X-95523Y-92175D01*
X-95500Y-92259D01*
X-95481Y-92344D01*
X-95465Y-92430D01*
X-95453Y-92517D01*
X-95445Y-92604D01*
X-95441Y-92691D01*
X-95441Y-92779D01*
X-95445Y-92866D01*
X-95453Y-92953D01*
X-95465Y-93040D01*
X-95481Y-93126D01*
X-95500Y-93211D01*
X-95523Y-93295D01*
X-95550Y-93378D01*
X-95581Y-93460D01*
X-95615Y-93540D01*
X-95653Y-93619D01*
X-95695Y-93696D01*
X-95739Y-93771D01*
X-95788Y-93844D01*
X-95839Y-93914D01*
X-95893Y-93983D01*
X-95951Y-94049D01*
X-96011Y-94112D01*
X-96470Y-94571D01*
X-99788Y-97889D02*
X-108050Y-89628D01*
X-105296Y-92382D02*
X-107591Y-94676D01*
X-107651Y-94739D01*
X-107709Y-94805D01*
X-107763Y-94874D01*
X-107814Y-94944D01*
X-107863Y-95017D01*
X-107907Y-95092D01*
X-107949Y-95169D01*
X-107987Y-95248D01*
X-108021Y-95328D01*
X-108052Y-95410D01*
X-108079Y-95493D01*
X-108102Y-95577D01*
X-108121Y-95662D01*
X-108137Y-95748D01*
X-108149Y-95835D01*
X-108157Y-95922D01*
X-108161Y-96009D01*
X-108161Y-96097D01*
X-108157Y-96184D01*
X-108149Y-96271D01*
X-108137Y-96358D01*
X-108121Y-96444D01*
X-108102Y-96529D01*
X-108079Y-96613D01*
X-108052Y-96696D01*
X-108021Y-96778D01*
X-107987Y-96858D01*
X-107949Y-96937D01*
X-107907Y-97014D01*
X-107863Y-97089D01*
X-107814Y-97162D01*
X-107763Y-97232D01*
X-107709Y-97301D01*
X-107651Y-97367D01*
X-107591Y-97430D01*
X-103460Y-101561D01*
X-43944Y-62352D02*
X-35683Y-70614D01*
X-46239Y-64647D02*
X-41649Y-60057D01*
X-40472Y-75404D02*
X-54242Y-72650D01*
X-48734Y-67142D02*
X-45980Y-80912D01*
X-52306Y-80812D02*
X-57814Y-86320D01*
X-66136Y-84544D02*
X-59710Y-94641D01*
X-67054Y-90969D01*
X-63382Y-98313D01*
X-73480Y-91887D01*
X-69708Y-104639D02*
X-72003Y-106934D01*
X-69708Y-104639D02*
X-69648Y-104576D01*
X-69590Y-104510D01*
X-69536Y-104441D01*
X-69485Y-104371D01*
X-69436Y-104298D01*
X-69392Y-104223D01*
X-69350Y-104146D01*
X-69312Y-104067D01*
X-69278Y-103987D01*
X-69247Y-103905D01*
X-69220Y-103822D01*
X-69197Y-103738D01*
X-69178Y-103653D01*
X-69162Y-103567D01*
X-69150Y-103480D01*
X-69142Y-103393D01*
X-69138Y-103306D01*
X-69138Y-103218D01*
X-69142Y-103131D01*
X-69150Y-103044D01*
X-69162Y-102957D01*
X-69178Y-102871D01*
X-69197Y-102786D01*
X-69220Y-102702D01*
X-69247Y-102619D01*
X-69278Y-102537D01*
X-69312Y-102457D01*
X-69350Y-102378D01*
X-69392Y-102301D01*
X-69436Y-102226D01*
X-69485Y-102153D01*
X-69536Y-102083D01*
X-69590Y-102014D01*
X-69648Y-101948D01*
X-69708Y-101885D01*
X-72003Y-99590D01*
X-72076Y-99521D01*
X-72151Y-99454D01*
X-72229Y-99390D01*
X-72309Y-99329D01*
X-72392Y-99271D01*
X-72476Y-99217D01*
X-72563Y-99165D01*
X-72651Y-99118D01*
X-72742Y-99073D01*
X-72834Y-99032D01*
X-72928Y-98995D01*
X-73022Y-98962D01*
X-73119Y-98932D01*
X-73216Y-98906D01*
X-73314Y-98884D01*
X-73413Y-98865D01*
X-73513Y-98851D01*
X-73613Y-98840D01*
X-73713Y-98833D01*
X-73814Y-98830D01*
X-73915Y-98831D01*
X-74015Y-98836D01*
X-74115Y-98845D01*
X-74215Y-98857D01*
X-74315Y-98874D01*
X-74413Y-98894D01*
X-74511Y-98918D01*
X-74608Y-98946D01*
X-74703Y-98978D01*
X-74797Y-99013D01*
X-74890Y-99052D01*
X-74982Y-99095D01*
X-75071Y-99141D01*
X-75159Y-99190D01*
X-75244Y-99243D01*
X-75328Y-99299D01*
X-75409Y-99359D01*
X-75488Y-99421D01*
X-75565Y-99487D01*
X-75639Y-99555D01*
X-75710Y-99626D01*
X-75778Y-99700D01*
X-75844Y-99777D01*
X-75906Y-99856D01*
X-75966Y-99937D01*
X-76022Y-100021D01*
X-76075Y-100106D01*
X-76124Y-100194D01*
X-76170Y-100283D01*
X-76213Y-100375D01*
X-76252Y-100468D01*
X-76287Y-100562D01*
X-76319Y-100657D01*
X-76347Y-100754D01*
X-76371Y-100852D01*
X-76391Y-100950D01*
X-76408Y-101050D01*
X-76420Y-101150D01*
X-76429Y-101250D01*
X-76434Y-101351D01*
X-76435Y-101451D01*
X-76432Y-101552D01*
X-76425Y-101652D01*
X-76414Y-101752D01*
X-76400Y-101852D01*
X-76381Y-101951D01*
X-76359Y-102049D01*
X-76333Y-102146D01*
X-76303Y-102243D01*
X-76270Y-102338D01*
X-76233Y-102431D01*
X-76192Y-102523D01*
X-76147Y-102614D01*
X-76100Y-102702D01*
X-76048Y-102789D01*
X-75994Y-102874D01*
X-75936Y-102956D01*
X-75875Y-103036D01*
X-75811Y-103114D01*
X-75744Y-103189D01*
X-75675Y-103262D01*
X-74757Y-104180D01*
X-71085Y-100508D01*
X-79237Y-107742D02*
X-80614Y-110955D01*
X-79237Y-107742D02*
X-79207Y-107666D01*
X-79180Y-107588D01*
X-79157Y-107510D01*
X-79138Y-107430D01*
X-79123Y-107350D01*
X-79112Y-107268D01*
X-79104Y-107187D01*
X-79101Y-107105D01*
X-79102Y-107023D01*
X-79107Y-106941D01*
X-79115Y-106860D01*
X-79128Y-106779D01*
X-79145Y-106698D01*
X-79165Y-106619D01*
X-79189Y-106541D01*
X-79217Y-106464D01*
X-79249Y-106388D01*
X-79285Y-106314D01*
X-79324Y-106242D01*
X-79366Y-106172D01*
X-79412Y-106104D01*
X-79461Y-106039D01*
X-79513Y-105976D01*
X-79568Y-105915D01*
X-79626Y-105857D01*
X-79687Y-105802D01*
X-79751Y-105751D01*
X-79817Y-105702D01*
X-79885Y-105656D01*
X-79955Y-105614D01*
X-80027Y-105576D01*
X-80101Y-105541D01*
X-80177Y-105509D01*
X-80254Y-105482D01*
X-80333Y-105458D01*
X-80412Y-105438D01*
X-80492Y-105421D01*
X-80573Y-105409D01*
X-80655Y-105401D01*
X-80737Y-105397D01*
X-80819Y-105396D01*
X-80901Y-105400D01*
X-80982Y-105408D01*
X-81063Y-105419D01*
X-81144Y-105435D01*
X-81223Y-105454D01*
X-81302Y-105478D01*
X-81379Y-105505D01*
X-81455Y-105536D01*
X-81529Y-105570D01*
X-81602Y-105608D01*
X-81673Y-105650D01*
X-81741Y-105695D01*
X-81807Y-105743D01*
X-81871Y-105794D01*
X-81932Y-105849D01*
X-81991Y-105906D01*
X-81991Y-105907D02*
X-82113Y-106035D01*
X-82232Y-106167D01*
X-82347Y-106301D01*
X-82460Y-106438D01*
X-82569Y-106578D01*
X-82675Y-106720D01*
X-82777Y-106865D01*
X-82876Y-107012D01*
X-82971Y-107162D01*
X-83062Y-107313D01*
X-83150Y-107467D01*
X-83234Y-107623D01*
X-83315Y-107781D01*
X-83391Y-107941D01*
X-83464Y-108103D01*
X-83533Y-108266D01*
X-83597Y-108431D01*
X-80614Y-110955D02*
X-80644Y-111031D01*
X-80671Y-111109D01*
X-80694Y-111187D01*
X-80713Y-111267D01*
X-80728Y-111347D01*
X-80739Y-111429D01*
X-80747Y-111510D01*
X-80750Y-111592D01*
X-80749Y-111674D01*
X-80744Y-111756D01*
X-80736Y-111837D01*
X-80723Y-111918D01*
X-80706Y-111999D01*
X-80686Y-112078D01*
X-80662Y-112156D01*
X-80634Y-112233D01*
X-80602Y-112309D01*
X-80566Y-112383D01*
X-80527Y-112455D01*
X-80485Y-112525D01*
X-80439Y-112593D01*
X-80390Y-112658D01*
X-80338Y-112721D01*
X-80283Y-112782D01*
X-80225Y-112840D01*
X-80164Y-112895D01*
X-80100Y-112946D01*
X-80034Y-112995D01*
X-79966Y-113041D01*
X-79896Y-113083D01*
X-79824Y-113121D01*
X-79750Y-113156D01*
X-79674Y-113188D01*
X-79597Y-113215D01*
X-79518Y-113239D01*
X-79439Y-113259D01*
X-79359Y-113276D01*
X-79278Y-113288D01*
X-79196Y-113296D01*
X-79114Y-113300D01*
X-79032Y-113301D01*
X-78950Y-113297D01*
X-78869Y-113289D01*
X-78788Y-113278D01*
X-78707Y-113262D01*
X-78628Y-113243D01*
X-78549Y-113219D01*
X-78472Y-113192D01*
X-78396Y-113161D01*
X-78322Y-113127D01*
X-78249Y-113089D01*
X-78178Y-113047D01*
X-78110Y-113002D01*
X-78044Y-112954D01*
X-77980Y-112903D01*
X-77919Y-112848D01*
X-77860Y-112791D01*
X-77681Y-112602D01*
X-77506Y-112409D01*
X-77336Y-112212D01*
X-77170Y-112011D01*
X-77010Y-111806D01*
X-76854Y-111597D01*
X-76703Y-111385D01*
X-76558Y-111169D01*
X-76417Y-110950D01*
X-76282Y-110727D01*
X-76152Y-110502D01*
X-76027Y-110273D01*
X-75908Y-110042D01*
X-75794Y-109808D01*
X-87164Y-111080D02*
X-89918Y-113834D01*
X-90836Y-109244D02*
X-83951Y-116128D01*
X-83891Y-116191D01*
X-83833Y-116257D01*
X-83779Y-116326D01*
X-83728Y-116396D01*
X-83679Y-116469D01*
X-83635Y-116544D01*
X-83593Y-116621D01*
X-83555Y-116700D01*
X-83521Y-116780D01*
X-83490Y-116862D01*
X-83463Y-116945D01*
X-83440Y-117029D01*
X-83421Y-117114D01*
X-83405Y-117200D01*
X-83393Y-117287D01*
X-83385Y-117374D01*
X-83381Y-117461D01*
X-83381Y-117549D01*
X-83385Y-117636D01*
X-83393Y-117723D01*
X-83405Y-117810D01*
X-83421Y-117896D01*
X-83440Y-117981D01*
X-83463Y-118065D01*
X-83490Y-118148D01*
X-83521Y-118230D01*
X-83555Y-118310D01*
X-83593Y-118389D01*
X-83635Y-118466D01*
X-83679Y-118541D01*
X-83728Y-118614D01*
X-83779Y-118684D01*
X-83833Y-118753D01*
X-83891Y-118819D01*
X-83951Y-118882D01*
X-84410Y-119341D01*
X-23383Y-77351D02*
X-15121Y-85613D01*
X-23383Y-77351D02*
X-25678Y-79646D01*
X-25757Y-79727D01*
X-25833Y-79811D01*
X-25906Y-79898D01*
X-25975Y-79987D01*
X-26042Y-80079D01*
X-26105Y-80173D01*
X-26165Y-80269D01*
X-26222Y-80367D01*
X-26275Y-80467D01*
X-26325Y-80569D01*
X-26371Y-80673D01*
X-26413Y-80778D01*
X-26452Y-80884D01*
X-26487Y-80992D01*
X-26518Y-81101D01*
X-26546Y-81211D01*
X-26569Y-81322D01*
X-26589Y-81433D01*
X-26605Y-81545D01*
X-26617Y-81658D01*
X-26625Y-81771D01*
X-26629Y-81884D01*
X-26629Y-81998D01*
X-26625Y-82111D01*
X-26617Y-82224D01*
X-26605Y-82337D01*
X-26589Y-82449D01*
X-26569Y-82560D01*
X-26546Y-82671D01*
X-26518Y-82781D01*
X-26487Y-82890D01*
X-26452Y-82998D01*
X-26413Y-83104D01*
X-26371Y-83209D01*
X-26325Y-83313D01*
X-26275Y-83415D01*
X-26222Y-83515D01*
X-26165Y-83613D01*
X-26105Y-83709D01*
X-26042Y-83803D01*
X-25975Y-83894D01*
X-25906Y-83984D01*
X-25833Y-84071D01*
X-25757Y-84155D01*
X-25678Y-84236D01*
X-25597Y-84315D01*
X-25513Y-84391D01*
X-25426Y-84464D01*
X-25336Y-84533D01*
X-25245Y-84600D01*
X-25151Y-84663D01*
X-25055Y-84723D01*
X-24957Y-84780D01*
X-24857Y-84833D01*
X-24755Y-84883D01*
X-24651Y-84929D01*
X-24546Y-84971D01*
X-24440Y-85010D01*
X-24332Y-85045D01*
X-24223Y-85076D01*
X-24113Y-85104D01*
X-24002Y-85127D01*
X-23891Y-85147D01*
X-23779Y-85163D01*
X-23666Y-85175D01*
X-23553Y-85183D01*
X-23440Y-85187D01*
X-23326Y-85187D01*
X-23213Y-85183D01*
X-23100Y-85175D01*
X-22987Y-85163D01*
X-22875Y-85147D01*
X-22764Y-85127D01*
X-22653Y-85104D01*
X-22543Y-85076D01*
X-22434Y-85045D01*
X-22326Y-85010D01*
X-22220Y-84971D01*
X-22115Y-84929D01*
X-22011Y-84883D01*
X-21909Y-84833D01*
X-21809Y-84780D01*
X-21711Y-84723D01*
X-21615Y-84663D01*
X-21521Y-84600D01*
X-21429Y-84533D01*
X-21340Y-84464D01*
X-21253Y-84391D01*
X-21169Y-84315D01*
X-21088Y-84236D01*
X-18793Y-81941D01*
X-21547Y-84695D02*
X-19711Y-90202D01*
X-22692Y-93184D02*
X-36462Y-90430D01*
X-30954Y-84922D02*
X-28200Y-98692D01*
X-34526Y-98592D02*
X-40034Y-104100D01*
X-48356Y-102324D02*
X-41930Y-112421D01*
X-49274Y-108749D01*
X-45602Y-116093D01*
X-55700Y-109667D01*
X-51928Y-122419D02*
X-54223Y-124714D01*
X-51928Y-122419D02*
X-51868Y-122356D01*
X-51810Y-122290D01*
X-51756Y-122221D01*
X-51705Y-122151D01*
X-51656Y-122078D01*
X-51612Y-122003D01*
X-51570Y-121926D01*
X-51532Y-121847D01*
X-51498Y-121767D01*
X-51467Y-121685D01*
X-51440Y-121602D01*
X-51417Y-121518D01*
X-51398Y-121433D01*
X-51382Y-121347D01*
X-51370Y-121260D01*
X-51362Y-121173D01*
X-51358Y-121086D01*
X-51358Y-120998D01*
X-51362Y-120911D01*
X-51370Y-120824D01*
X-51382Y-120737D01*
X-51398Y-120651D01*
X-51417Y-120566D01*
X-51440Y-120482D01*
X-51467Y-120399D01*
X-51498Y-120317D01*
X-51532Y-120237D01*
X-51570Y-120158D01*
X-51612Y-120081D01*
X-51656Y-120006D01*
X-51705Y-119933D01*
X-51756Y-119863D01*
X-51810Y-119794D01*
X-51868Y-119728D01*
X-51928Y-119665D01*
X-54223Y-117370D01*
X-54296Y-117301D01*
X-54371Y-117234D01*
X-54449Y-117170D01*
X-54529Y-117109D01*
X-54612Y-117051D01*
X-54696Y-116997D01*
X-54783Y-116945D01*
X-54871Y-116898D01*
X-54962Y-116853D01*
X-55054Y-116812D01*
X-55148Y-116775D01*
X-55242Y-116742D01*
X-55339Y-116712D01*
X-55436Y-116686D01*
X-55534Y-116664D01*
X-55633Y-116645D01*
X-55733Y-116631D01*
X-55833Y-116620D01*
X-55933Y-116613D01*
X-56034Y-116610D01*
X-56135Y-116611D01*
X-56235Y-116616D01*
X-56335Y-116625D01*
X-56435Y-116637D01*
X-56535Y-116654D01*
X-56633Y-116674D01*
X-56731Y-116698D01*
X-56828Y-116726D01*
X-56923Y-116758D01*
X-57017Y-116793D01*
X-57110Y-116832D01*
X-57202Y-116875D01*
X-57291Y-116921D01*
X-57379Y-116970D01*
X-57464Y-117023D01*
X-57548Y-117079D01*
X-57629Y-117139D01*
X-57708Y-117201D01*
X-57785Y-117267D01*
X-57859Y-117335D01*
X-57930Y-117406D01*
X-57998Y-117480D01*
X-58064Y-117557D01*
X-58126Y-117636D01*
X-58186Y-117717D01*
X-58242Y-117801D01*
X-58295Y-117886D01*
X-58344Y-117974D01*
X-58390Y-118063D01*
X-58433Y-118155D01*
X-58472Y-118248D01*
X-58507Y-118342D01*
X-58539Y-118437D01*
X-58567Y-118534D01*
X-58591Y-118632D01*
X-58611Y-118730D01*
X-58628Y-118830D01*
X-58640Y-118930D01*
X-58649Y-119030D01*
X-58654Y-119131D01*
X-58655Y-119231D01*
X-58652Y-119332D01*
X-58645Y-119432D01*
X-58634Y-119532D01*
X-58620Y-119632D01*
X-58601Y-119731D01*
X-58579Y-119829D01*
X-58553Y-119926D01*
X-58523Y-120023D01*
X-58490Y-120118D01*
X-58453Y-120211D01*
X-58412Y-120303D01*
X-58367Y-120394D01*
X-58320Y-120482D01*
X-58268Y-120569D01*
X-58214Y-120654D01*
X-58156Y-120736D01*
X-58095Y-120816D01*
X-58031Y-120894D01*
X-57964Y-120969D01*
X-57895Y-121042D01*
X-56977Y-121960D01*
X-53305Y-118288D01*
X-61457Y-125522D02*
X-62834Y-128735D01*
X-61457Y-125522D02*
X-61427Y-125446D01*
X-61400Y-125368D01*
X-61377Y-125290D01*
X-61358Y-125210D01*
X-61343Y-125130D01*
X-61332Y-125048D01*
X-61324Y-124967D01*
X-61321Y-124885D01*
X-61322Y-124803D01*
X-61327Y-124721D01*
X-61335Y-124640D01*
X-61348Y-124559D01*
X-61365Y-124478D01*
X-61385Y-124399D01*
X-61409Y-124321D01*
X-61437Y-124244D01*
X-61469Y-124168D01*
X-61505Y-124094D01*
X-61544Y-124022D01*
X-61586Y-123952D01*
X-61632Y-123884D01*
X-61681Y-123819D01*
X-61733Y-123756D01*
X-61788Y-123695D01*
X-61846Y-123637D01*
X-61907Y-123582D01*
X-61971Y-123531D01*
X-62037Y-123482D01*
X-62105Y-123436D01*
X-62175Y-123394D01*
X-62247Y-123356D01*
X-62321Y-123321D01*
X-62397Y-123289D01*
X-62474Y-123262D01*
X-62553Y-123238D01*
X-62632Y-123218D01*
X-62712Y-123201D01*
X-62793Y-123189D01*
X-62875Y-123181D01*
X-62957Y-123177D01*
X-63039Y-123176D01*
X-63121Y-123180D01*
X-63202Y-123188D01*
X-63283Y-123199D01*
X-63364Y-123215D01*
X-63443Y-123234D01*
X-63522Y-123258D01*
X-63599Y-123285D01*
X-63675Y-123316D01*
X-63749Y-123350D01*
X-63822Y-123388D01*
X-63893Y-123430D01*
X-63961Y-123475D01*
X-64027Y-123523D01*
X-64091Y-123574D01*
X-64152Y-123629D01*
X-64211Y-123686D01*
X-64211Y-123687D02*
X-64333Y-123815D01*
X-64452Y-123947D01*
X-64567Y-124081D01*
X-64680Y-124218D01*
X-64789Y-124358D01*
X-64895Y-124500D01*
X-64997Y-124645D01*
X-65096Y-124792D01*
X-65191Y-124942D01*
X-65282Y-125093D01*
X-65370Y-125247D01*
X-65454Y-125403D01*
X-65535Y-125561D01*
X-65611Y-125721D01*
X-65684Y-125883D01*
X-65753Y-126046D01*
X-65817Y-126211D01*
X-62834Y-128735D02*
X-62864Y-128811D01*
X-62891Y-128889D01*
X-62914Y-128967D01*
X-62933Y-129047D01*
X-62948Y-129127D01*
X-62959Y-129209D01*
X-62967Y-129290D01*
X-62970Y-129372D01*
X-62969Y-129454D01*
X-62964Y-129536D01*
X-62956Y-129617D01*
X-62943Y-129698D01*
X-62926Y-129779D01*
X-62906Y-129858D01*
X-62882Y-129936D01*
X-62854Y-130013D01*
X-62822Y-130089D01*
X-62786Y-130163D01*
X-62747Y-130235D01*
X-62705Y-130305D01*
X-62659Y-130373D01*
X-62610Y-130438D01*
X-62558Y-130501D01*
X-62503Y-130562D01*
X-62445Y-130620D01*
X-62384Y-130675D01*
X-62320Y-130726D01*
X-62254Y-130775D01*
X-62186Y-130821D01*
X-62116Y-130863D01*
X-62044Y-130901D01*
X-61970Y-130936D01*
X-61894Y-130968D01*
X-61817Y-130995D01*
X-61738Y-131019D01*
X-61659Y-131039D01*
X-61579Y-131056D01*
X-61498Y-131068D01*
X-61416Y-131076D01*
X-61334Y-131080D01*
X-61252Y-131081D01*
X-61170Y-131077D01*
X-61089Y-131069D01*
X-61008Y-131058D01*
X-60927Y-131042D01*
X-60848Y-131023D01*
X-60769Y-130999D01*
X-60692Y-130972D01*
X-60616Y-130941D01*
X-60542Y-130907D01*
X-60469Y-130869D01*
X-60398Y-130827D01*
X-60330Y-130782D01*
X-60264Y-130734D01*
X-60200Y-130683D01*
X-60139Y-130628D01*
X-60080Y-130571D01*
X-59901Y-130382D01*
X-59726Y-130189D01*
X-59556Y-129992D01*
X-59390Y-129791D01*
X-59230Y-129586D01*
X-59074Y-129377D01*
X-58923Y-129165D01*
X-58778Y-128949D01*
X-58637Y-128730D01*
X-58502Y-128507D01*
X-58372Y-128282D01*
X-58247Y-128053D01*
X-58128Y-127822D01*
X-58014Y-127588D01*
X-69384Y-128860D02*
X-72138Y-131614D01*
X-73056Y-127024D02*
X-66171Y-133908D01*
X-66111Y-133971D01*
X-66053Y-134037D01*
X-65999Y-134106D01*
X-65948Y-134176D01*
X-65899Y-134249D01*
X-65855Y-134324D01*
X-65813Y-134401D01*
X-65775Y-134480D01*
X-65741Y-134560D01*
X-65710Y-134642D01*
X-65683Y-134725D01*
X-65660Y-134809D01*
X-65641Y-134894D01*
X-65625Y-134980D01*
X-65613Y-135067D01*
X-65605Y-135154D01*
X-65601Y-135241D01*
X-65601Y-135329D01*
X-65605Y-135416D01*
X-65613Y-135503D01*
X-65625Y-135590D01*
X-65641Y-135676D01*
X-65660Y-135761D01*
X-65683Y-135845D01*
X-65710Y-135928D01*
X-65741Y-136010D01*
X-65775Y-136090D01*
X-65813Y-136169D01*
X-65855Y-136246D01*
X-65899Y-136321D01*
X-65948Y-136394D01*
X-65999Y-136464D01*
X-66053Y-136533D01*
X-66111Y-136599D01*
X-66171Y-136662D01*
X-66630Y-137121D01*
X396296Y6858D02*
X396296Y18542D01*
X393051Y18542D02*
X399542Y18542D01*
X389523Y6858D02*
X381734Y18542D01*
X389523Y18542D02*
X381734Y6858D01*
X377331Y11402D02*
X369542Y11402D01*
X364109Y6858D02*
X364109Y18542D01*
X357618Y6858D01*
X357618Y18542D01*
X400812Y33528D02*
X400812Y45212D01*
X397566Y45212D01*
X397453Y45210D01*
X397340Y45204D01*
X397227Y45194D01*
X397114Y45180D01*
X397002Y45163D01*
X396891Y45141D01*
X396781Y45116D01*
X396671Y45086D01*
X396563Y45053D01*
X396456Y45016D01*
X396350Y44976D01*
X396246Y44931D01*
X396143Y44883D01*
X396042Y44832D01*
X395943Y44777D01*
X395846Y44719D01*
X395751Y44657D01*
X395658Y44592D01*
X395568Y44524D01*
X395480Y44453D01*
X395394Y44378D01*
X395311Y44301D01*
X395231Y44221D01*
X395154Y44138D01*
X395079Y44052D01*
X395008Y43964D01*
X394940Y43874D01*
X394875Y43781D01*
X394813Y43686D01*
X394755Y43589D01*
X394700Y43490D01*
X394649Y43389D01*
X394601Y43286D01*
X394556Y43182D01*
X394516Y43076D01*
X394479Y42969D01*
X394446Y42861D01*
X394416Y42751D01*
X394391Y42641D01*
X394369Y42530D01*
X394352Y42418D01*
X394338Y42305D01*
X394328Y42192D01*
X394322Y42079D01*
X394320Y41966D01*
X394322Y41853D01*
X394328Y41740D01*
X394338Y41627D01*
X394352Y41514D01*
X394369Y41402D01*
X394391Y41291D01*
X394416Y41181D01*
X394446Y41071D01*
X394479Y40963D01*
X394516Y40856D01*
X394556Y40750D01*
X394601Y40646D01*
X394649Y40543D01*
X394700Y40442D01*
X394755Y40343D01*
X394813Y40246D01*
X394875Y40151D01*
X394940Y40058D01*
X395008Y39968D01*
X395079Y39880D01*
X395154Y39794D01*
X395231Y39711D01*
X395311Y39631D01*
X395394Y39554D01*
X395480Y39479D01*
X395568Y39408D01*
X395658Y39340D01*
X395751Y39275D01*
X395846Y39213D01*
X395943Y39155D01*
X396042Y39100D01*
X396143Y39049D01*
X396246Y39001D01*
X396350Y38956D01*
X396456Y38916D01*
X396563Y38879D01*
X396671Y38846D01*
X396781Y38816D01*
X396891Y38791D01*
X397002Y38769D01*
X397114Y38752D01*
X397227Y38738D01*
X397340Y38728D01*
X397453Y38722D01*
X397566Y38720D01*
X397566Y38721D02*
X400812Y38721D01*
X396917Y38721D02*
X394321Y33528D01*
X390105Y33528D02*
X382315Y45212D01*
X390105Y45212D02*
X382315Y33528D01*
X377913Y38072D02*
X370123Y38072D01*
X364691Y33528D02*
X364691Y45212D01*
X358200Y33528D01*
X358200Y45212D01*
X402082Y-260858D02*
X402082Y-272542D01*
X402082Y-260858D02*
X398836Y-260858D01*
X398723Y-260860D01*
X398610Y-260866D01*
X398497Y-260876D01*
X398384Y-260890D01*
X398272Y-260907D01*
X398161Y-260929D01*
X398051Y-260954D01*
X397941Y-260984D01*
X397833Y-261017D01*
X397726Y-261054D01*
X397620Y-261094D01*
X397516Y-261139D01*
X397413Y-261187D01*
X397312Y-261238D01*
X397213Y-261293D01*
X397116Y-261351D01*
X397021Y-261413D01*
X396928Y-261478D01*
X396838Y-261546D01*
X396750Y-261617D01*
X396664Y-261692D01*
X396581Y-261769D01*
X396501Y-261849D01*
X396424Y-261932D01*
X396349Y-262018D01*
X396278Y-262106D01*
X396210Y-262196D01*
X396145Y-262289D01*
X396083Y-262384D01*
X396025Y-262481D01*
X395970Y-262580D01*
X395919Y-262681D01*
X395871Y-262784D01*
X395826Y-262888D01*
X395786Y-262994D01*
X395749Y-263101D01*
X395716Y-263209D01*
X395686Y-263319D01*
X395661Y-263429D01*
X395639Y-263540D01*
X395622Y-263652D01*
X395608Y-263765D01*
X395598Y-263878D01*
X395592Y-263991D01*
X395590Y-264104D01*
X395592Y-264217D01*
X395598Y-264330D01*
X395608Y-264443D01*
X395622Y-264556D01*
X395639Y-264668D01*
X395661Y-264779D01*
X395686Y-264889D01*
X395716Y-264999D01*
X395749Y-265107D01*
X395786Y-265214D01*
X395826Y-265320D01*
X395871Y-265424D01*
X395919Y-265527D01*
X395970Y-265628D01*
X396025Y-265727D01*
X396083Y-265824D01*
X396145Y-265919D01*
X396210Y-266012D01*
X396278Y-266102D01*
X396349Y-266190D01*
X396424Y-266276D01*
X396501Y-266359D01*
X396581Y-266439D01*
X396664Y-266516D01*
X396750Y-266591D01*
X396838Y-266662D01*
X396928Y-266730D01*
X397021Y-266795D01*
X397116Y-266857D01*
X397213Y-266915D01*
X397312Y-266970D01*
X397413Y-267021D01*
X397516Y-267069D01*
X397620Y-267114D01*
X397726Y-267154D01*
X397833Y-267191D01*
X397941Y-267224D01*
X398051Y-267254D01*
X398161Y-267279D01*
X398272Y-267301D01*
X398384Y-267318D01*
X398497Y-267332D01*
X398610Y-267342D01*
X398723Y-267348D01*
X398836Y-267350D01*
X398836Y-267349D02*
X402082Y-267349D01*
X398187Y-267349D02*
X395591Y-272542D01*
X391375Y-272542D02*
X383585Y-260858D01*
X391375Y-260858D02*
X383585Y-272542D01*
X379183Y-267998D02*
X371393Y-267998D01*
X366765Y-260858D02*
X364169Y-272542D01*
X361572Y-264753D01*
X358976Y-272542D01*
X356379Y-260858D01*
X398836Y-286258D02*
X398836Y-297942D01*
X402082Y-286258D02*
X395591Y-286258D01*
X384274Y-286258D02*
X392063Y-297942D01*
X384274Y-297942D02*
X392063Y-286258D01*
X379871Y-293398D02*
X372082Y-293398D01*
X367453Y-286258D02*
X364857Y-297942D01*
X362260Y-290153D01*
X359664Y-297942D01*
X357068Y-286258D01*
X548696Y-286258D02*
X548696Y-297942D01*
X551942Y-286258D02*
X545451Y-286258D01*
X534134Y-286258D02*
X541923Y-297942D01*
X534134Y-297942D02*
X541923Y-286258D01*
X529731Y-293398D02*
X521942Y-293398D01*
X513376Y-297942D02*
X513277Y-297940D01*
X513177Y-297934D01*
X513078Y-297925D01*
X512980Y-297912D01*
X512882Y-297895D01*
X512784Y-297874D01*
X512688Y-297849D01*
X512593Y-297821D01*
X512499Y-297789D01*
X512406Y-297754D01*
X512314Y-297715D01*
X512224Y-297672D01*
X512136Y-297627D01*
X512049Y-297577D01*
X511965Y-297525D01*
X511882Y-297469D01*
X511802Y-297411D01*
X511724Y-297349D01*
X511649Y-297284D01*
X511576Y-297216D01*
X511506Y-297146D01*
X511438Y-297073D01*
X511373Y-296998D01*
X511311Y-296920D01*
X511253Y-296840D01*
X511197Y-296757D01*
X511145Y-296673D01*
X511095Y-296586D01*
X511050Y-296498D01*
X511007Y-296408D01*
X510968Y-296316D01*
X510933Y-296223D01*
X510901Y-296129D01*
X510873Y-296034D01*
X510848Y-295938D01*
X510827Y-295840D01*
X510810Y-295742D01*
X510797Y-295644D01*
X510788Y-295545D01*
X510782Y-295445D01*
X510780Y-295346D01*
X513376Y-297942D02*
X513520Y-297940D01*
X513665Y-297934D01*
X513809Y-297925D01*
X513952Y-297912D01*
X514096Y-297895D01*
X514239Y-297874D01*
X514381Y-297849D01*
X514522Y-297821D01*
X514663Y-297789D01*
X514803Y-297753D01*
X514942Y-297714D01*
X515080Y-297671D01*
X515216Y-297624D01*
X515352Y-297574D01*
X515486Y-297520D01*
X515618Y-297463D01*
X515749Y-297402D01*
X515878Y-297338D01*
X516006Y-297270D01*
X516132Y-297199D01*
X516256Y-297125D01*
X516377Y-297048D01*
X516497Y-296967D01*
X516615Y-296884D01*
X516730Y-296797D01*
X516843Y-296707D01*
X516954Y-296614D01*
X517062Y-296519D01*
X517168Y-296420D01*
X517271Y-296319D01*
X516947Y-288854D02*
X516945Y-288755D01*
X516939Y-288655D01*
X516930Y-288556D01*
X516917Y-288458D01*
X516899Y-288360D01*
X516879Y-288262D01*
X516854Y-288166D01*
X516826Y-288070D01*
X516794Y-287976D01*
X516759Y-287883D01*
X516720Y-287792D01*
X516677Y-287702D01*
X516632Y-287613D01*
X516582Y-287527D01*
X516530Y-287442D01*
X516474Y-287360D01*
X516415Y-287280D01*
X516354Y-287202D01*
X516289Y-287126D01*
X516221Y-287053D01*
X516151Y-286983D01*
X516078Y-286915D01*
X516002Y-286850D01*
X515924Y-286789D01*
X515844Y-286730D01*
X515762Y-286674D01*
X515677Y-286622D01*
X515591Y-286573D01*
X515502Y-286527D01*
X515412Y-286484D01*
X515321Y-286445D01*
X515228Y-286410D01*
X515134Y-286378D01*
X515038Y-286350D01*
X514942Y-286325D01*
X514844Y-286305D01*
X514746Y-286287D01*
X514648Y-286274D01*
X514549Y-286265D01*
X514450Y-286259D01*
X514350Y-286257D01*
X514350Y-286258D02*
X514214Y-286260D01*
X514078Y-286266D01*
X513942Y-286275D01*
X513806Y-286288D01*
X513671Y-286306D01*
X513537Y-286326D01*
X513403Y-286351D01*
X513269Y-286379D01*
X513137Y-286412D01*
X513006Y-286447D01*
X512875Y-286487D01*
X512746Y-286530D01*
X512618Y-286576D01*
X512492Y-286627D01*
X512366Y-286680D01*
X512243Y-286738D01*
X512121Y-286798D01*
X512001Y-286862D01*
X511882Y-286930D01*
X511766Y-287000D01*
X511651Y-287074D01*
X511539Y-287151D01*
X511429Y-287232D01*
X515649Y-291126D02*
X515735Y-291073D01*
X515819Y-291016D01*
X515901Y-290957D01*
X515981Y-290894D01*
X516058Y-290828D01*
X516133Y-290760D01*
X516205Y-290688D01*
X516274Y-290614D01*
X516340Y-290537D01*
X516403Y-290458D01*
X516463Y-290376D01*
X516520Y-290292D01*
X516574Y-290206D01*
X516624Y-290118D01*
X516671Y-290028D01*
X516715Y-289937D01*
X516754Y-289843D01*
X516791Y-289749D01*
X516823Y-289653D01*
X516852Y-289555D01*
X516877Y-289457D01*
X516898Y-289358D01*
X516916Y-289258D01*
X516929Y-289158D01*
X516939Y-289057D01*
X516945Y-288955D01*
X516947Y-288854D01*
X512078Y-293074D02*
X511992Y-293127D01*
X511908Y-293184D01*
X511826Y-293243D01*
X511746Y-293306D01*
X511669Y-293372D01*
X511594Y-293440D01*
X511522Y-293512D01*
X511453Y-293586D01*
X511387Y-293663D01*
X511324Y-293742D01*
X511264Y-293824D01*
X511207Y-293908D01*
X511153Y-293994D01*
X511103Y-294082D01*
X511056Y-294172D01*
X511012Y-294263D01*
X510973Y-294357D01*
X510936Y-294451D01*
X510904Y-294547D01*
X510875Y-294645D01*
X510850Y-294743D01*
X510829Y-294842D01*
X510811Y-294942D01*
X510798Y-295042D01*
X510788Y-295143D01*
X510782Y-295245D01*
X510780Y-295346D01*
X512078Y-293074D02*
X515648Y-291126D01*
X551942Y-271272D02*
X551942Y-259588D01*
X548696Y-259588D01*
X548583Y-259590D01*
X548470Y-259596D01*
X548357Y-259606D01*
X548244Y-259620D01*
X548132Y-259637D01*
X548021Y-259659D01*
X547911Y-259684D01*
X547801Y-259714D01*
X547693Y-259747D01*
X547586Y-259784D01*
X547480Y-259824D01*
X547376Y-259869D01*
X547273Y-259917D01*
X547172Y-259968D01*
X547073Y-260023D01*
X546976Y-260081D01*
X546881Y-260143D01*
X546788Y-260208D01*
X546698Y-260276D01*
X546610Y-260347D01*
X546524Y-260422D01*
X546441Y-260499D01*
X546361Y-260579D01*
X546284Y-260662D01*
X546209Y-260748D01*
X546138Y-260836D01*
X546070Y-260926D01*
X546005Y-261019D01*
X545943Y-261114D01*
X545885Y-261211D01*
X545830Y-261310D01*
X545779Y-261411D01*
X545731Y-261514D01*
X545686Y-261618D01*
X545646Y-261724D01*
X545609Y-261831D01*
X545576Y-261939D01*
X545546Y-262049D01*
X545521Y-262159D01*
X545499Y-262270D01*
X545482Y-262382D01*
X545468Y-262495D01*
X545458Y-262608D01*
X545452Y-262721D01*
X545450Y-262834D01*
X545452Y-262947D01*
X545458Y-263060D01*
X545468Y-263173D01*
X545482Y-263286D01*
X545499Y-263398D01*
X545521Y-263509D01*
X545546Y-263619D01*
X545576Y-263729D01*
X545609Y-263837D01*
X545646Y-263944D01*
X545686Y-264050D01*
X545731Y-264154D01*
X545779Y-264257D01*
X545830Y-264358D01*
X545885Y-264457D01*
X545943Y-264554D01*
X546005Y-264649D01*
X546070Y-264742D01*
X546138Y-264832D01*
X546209Y-264920D01*
X546284Y-265006D01*
X546361Y-265089D01*
X546441Y-265169D01*
X546524Y-265246D01*
X546610Y-265321D01*
X546698Y-265392D01*
X546788Y-265460D01*
X546881Y-265525D01*
X546976Y-265587D01*
X547073Y-265645D01*
X547172Y-265700D01*
X547273Y-265751D01*
X547376Y-265799D01*
X547480Y-265844D01*
X547586Y-265884D01*
X547693Y-265921D01*
X547801Y-265954D01*
X547911Y-265984D01*
X548021Y-266009D01*
X548132Y-266031D01*
X548244Y-266048D01*
X548357Y-266062D01*
X548470Y-266072D01*
X548583Y-266078D01*
X548696Y-266080D01*
X548696Y-266079D02*
X551942Y-266079D01*
X548047Y-266079D02*
X545451Y-271272D01*
X541235Y-271272D02*
X533445Y-259588D01*
X541235Y-259588D02*
X533445Y-271272D01*
X529043Y-266728D02*
X521253Y-266728D01*
X512688Y-271272D02*
X512589Y-271270D01*
X512489Y-271264D01*
X512390Y-271255D01*
X512292Y-271242D01*
X512194Y-271225D01*
X512096Y-271204D01*
X512000Y-271179D01*
X511905Y-271151D01*
X511811Y-271119D01*
X511718Y-271084D01*
X511626Y-271045D01*
X511536Y-271002D01*
X511448Y-270957D01*
X511361Y-270907D01*
X511277Y-270855D01*
X511194Y-270799D01*
X511114Y-270741D01*
X511036Y-270679D01*
X510961Y-270614D01*
X510888Y-270546D01*
X510818Y-270476D01*
X510750Y-270403D01*
X510685Y-270328D01*
X510623Y-270250D01*
X510565Y-270170D01*
X510509Y-270087D01*
X510457Y-270003D01*
X510407Y-269916D01*
X510362Y-269828D01*
X510319Y-269738D01*
X510280Y-269646D01*
X510245Y-269553D01*
X510213Y-269459D01*
X510185Y-269364D01*
X510160Y-269268D01*
X510139Y-269170D01*
X510122Y-269072D01*
X510109Y-268974D01*
X510100Y-268875D01*
X510094Y-268775D01*
X510092Y-268676D01*
X512688Y-271272D02*
X512832Y-271270D01*
X512977Y-271264D01*
X513121Y-271255D01*
X513264Y-271242D01*
X513408Y-271225D01*
X513551Y-271204D01*
X513693Y-271179D01*
X513834Y-271151D01*
X513975Y-271119D01*
X514115Y-271083D01*
X514254Y-271044D01*
X514392Y-271001D01*
X514528Y-270954D01*
X514664Y-270904D01*
X514798Y-270850D01*
X514930Y-270793D01*
X515061Y-270732D01*
X515190Y-270668D01*
X515318Y-270600D01*
X515444Y-270529D01*
X515568Y-270455D01*
X515689Y-270378D01*
X515809Y-270297D01*
X515927Y-270214D01*
X516042Y-270127D01*
X516155Y-270037D01*
X516266Y-269944D01*
X516374Y-269849D01*
X516480Y-269750D01*
X516583Y-269649D01*
X516259Y-262184D02*
X516257Y-262085D01*
X516251Y-261985D01*
X516242Y-261886D01*
X516229Y-261788D01*
X516211Y-261690D01*
X516191Y-261592D01*
X516166Y-261496D01*
X516138Y-261400D01*
X516106Y-261306D01*
X516071Y-261213D01*
X516032Y-261122D01*
X515989Y-261032D01*
X515944Y-260943D01*
X515894Y-260857D01*
X515842Y-260772D01*
X515786Y-260690D01*
X515727Y-260610D01*
X515666Y-260532D01*
X515601Y-260456D01*
X515533Y-260383D01*
X515463Y-260313D01*
X515390Y-260245D01*
X515314Y-260180D01*
X515236Y-260119D01*
X515156Y-260060D01*
X515074Y-260004D01*
X514989Y-259952D01*
X514903Y-259903D01*
X514814Y-259857D01*
X514724Y-259814D01*
X514633Y-259775D01*
X514540Y-259740D01*
X514446Y-259708D01*
X514350Y-259680D01*
X514254Y-259655D01*
X514156Y-259635D01*
X514058Y-259617D01*
X513960Y-259604D01*
X513861Y-259595D01*
X513762Y-259589D01*
X513662Y-259587D01*
X513662Y-259588D02*
X513526Y-259590D01*
X513390Y-259596D01*
X513254Y-259605D01*
X513118Y-259618D01*
X512983Y-259636D01*
X512849Y-259656D01*
X512715Y-259681D01*
X512581Y-259709D01*
X512449Y-259742D01*
X512318Y-259777D01*
X512187Y-259817D01*
X512058Y-259860D01*
X511930Y-259906D01*
X511804Y-259957D01*
X511678Y-260010D01*
X511555Y-260068D01*
X511433Y-260128D01*
X511313Y-260192D01*
X511194Y-260260D01*
X511078Y-260330D01*
X510963Y-260404D01*
X510851Y-260481D01*
X510741Y-260562D01*
X514960Y-264456D02*
X515046Y-264403D01*
X515130Y-264346D01*
X515212Y-264287D01*
X515292Y-264224D01*
X515369Y-264158D01*
X515444Y-264090D01*
X515516Y-264018D01*
X515585Y-263944D01*
X515651Y-263867D01*
X515714Y-263788D01*
X515774Y-263706D01*
X515831Y-263622D01*
X515885Y-263536D01*
X515935Y-263448D01*
X515982Y-263358D01*
X516026Y-263267D01*
X516065Y-263173D01*
X516102Y-263079D01*
X516134Y-262983D01*
X516163Y-262885D01*
X516188Y-262787D01*
X516209Y-262688D01*
X516227Y-262588D01*
X516240Y-262488D01*
X516250Y-262387D01*
X516256Y-262285D01*
X516258Y-262184D01*
X511390Y-266404D02*
X511304Y-266457D01*
X511220Y-266514D01*
X511138Y-266573D01*
X511058Y-266636D01*
X510981Y-266702D01*
X510906Y-266770D01*
X510834Y-266842D01*
X510765Y-266916D01*
X510699Y-266993D01*
X510636Y-267072D01*
X510576Y-267154D01*
X510519Y-267238D01*
X510465Y-267324D01*
X510415Y-267412D01*
X510368Y-267502D01*
X510324Y-267593D01*
X510285Y-267687D01*
X510248Y-267781D01*
X510216Y-267877D01*
X510187Y-267975D01*
X510162Y-268073D01*
X510141Y-268172D01*
X510123Y-268272D01*
X510110Y-268372D01*
X510100Y-268473D01*
X510094Y-268575D01*
X510092Y-268676D01*
X511390Y-266404D02*
X514960Y-264456D01*
X489502Y-231140D02*
X481240Y-222878D01*
X478945Y-225173D01*
X478866Y-225254D01*
X478790Y-225338D01*
X478717Y-225425D01*
X478648Y-225515D01*
X478581Y-225606D01*
X478518Y-225700D01*
X478458Y-225796D01*
X478401Y-225894D01*
X478348Y-225994D01*
X478298Y-226096D01*
X478252Y-226200D01*
X478210Y-226305D01*
X478171Y-226411D01*
X478136Y-226519D01*
X478105Y-226628D01*
X478077Y-226738D01*
X478054Y-226849D01*
X478034Y-226960D01*
X478018Y-227072D01*
X478006Y-227185D01*
X477998Y-227298D01*
X477994Y-227411D01*
X477994Y-227525D01*
X477998Y-227638D01*
X478006Y-227751D01*
X478018Y-227864D01*
X478034Y-227976D01*
X478054Y-228087D01*
X478077Y-228198D01*
X478105Y-228308D01*
X478136Y-228417D01*
X478171Y-228525D01*
X478210Y-228631D01*
X478252Y-228736D01*
X478298Y-228840D01*
X478348Y-228942D01*
X478401Y-229042D01*
X478458Y-229140D01*
X478518Y-229236D01*
X478581Y-229330D01*
X478648Y-229421D01*
X478717Y-229511D01*
X478790Y-229598D01*
X478866Y-229682D01*
X478945Y-229763D01*
X479026Y-229842D01*
X479110Y-229918D01*
X479197Y-229991D01*
X479287Y-230060D01*
X479378Y-230127D01*
X479472Y-230190D01*
X479568Y-230250D01*
X479666Y-230307D01*
X479766Y-230360D01*
X479868Y-230410D01*
X479972Y-230456D01*
X480077Y-230498D01*
X480183Y-230537D01*
X480291Y-230572D01*
X480400Y-230603D01*
X480510Y-230631D01*
X480621Y-230654D01*
X480732Y-230674D01*
X480844Y-230690D01*
X480957Y-230702D01*
X481070Y-230710D01*
X481183Y-230714D01*
X481297Y-230714D01*
X481410Y-230710D01*
X481523Y-230702D01*
X481636Y-230690D01*
X481748Y-230674D01*
X481859Y-230654D01*
X481970Y-230631D01*
X482080Y-230603D01*
X482189Y-230572D01*
X482297Y-230537D01*
X482403Y-230498D01*
X482508Y-230456D01*
X482612Y-230410D01*
X482714Y-230360D01*
X482814Y-230307D01*
X482912Y-230250D01*
X483008Y-230190D01*
X483102Y-230127D01*
X483193Y-230060D01*
X483283Y-229991D01*
X483370Y-229918D01*
X483454Y-229842D01*
X483535Y-229763D01*
X485830Y-227468D01*
X483076Y-230222D02*
X484912Y-235730D01*
X481931Y-238711D02*
X468161Y-235957D01*
X473669Y-230449D02*
X476423Y-244219D01*
X470097Y-244119D02*
X464589Y-249627D01*
X463944Y-256697D02*
X460272Y-260369D01*
X463944Y-256697D02*
X455682Y-248436D01*
X452010Y-252108D01*
X456600Y-254862D02*
X459354Y-252108D01*
X485937Y-208035D02*
X477675Y-199773D01*
X479970Y-197478D02*
X475380Y-202068D01*
X467378Y-210070D02*
X481147Y-212824D01*
X475639Y-218332D02*
X472885Y-204563D01*
X469313Y-218232D02*
X463805Y-223740D01*
X463161Y-230811D02*
X459489Y-234483D01*
X463161Y-230811D02*
X454899Y-222549D01*
X451227Y-226221D01*
X455817Y-228975D02*
X458571Y-226221D01*
D11*
X431800Y-266700D02*
X431804Y-266388D01*
X431815Y-266077D01*
X431834Y-265766D01*
X431861Y-265455D01*
X431896Y-265145D01*
X431937Y-264837D01*
X431987Y-264529D01*
X432044Y-264222D01*
X432109Y-263917D01*
X432181Y-263614D01*
X432260Y-263313D01*
X432347Y-263013D01*
X432441Y-262716D01*
X432542Y-262421D01*
X432651Y-262129D01*
X432767Y-261840D01*
X432890Y-261553D01*
X433019Y-261270D01*
X433156Y-260990D01*
X433300Y-260713D01*
X433450Y-260440D01*
X433607Y-260171D01*
X433770Y-259906D01*
X433940Y-259644D01*
X434117Y-259387D01*
X434299Y-259135D01*
X434488Y-258887D01*
X434683Y-258643D01*
X434883Y-258405D01*
X435090Y-258171D01*
X435302Y-257943D01*
X435520Y-257720D01*
X435743Y-257502D01*
X435971Y-257290D01*
X436205Y-257083D01*
X436443Y-256883D01*
X436687Y-256688D01*
X436935Y-256499D01*
X437187Y-256317D01*
X437444Y-256140D01*
X437706Y-255970D01*
X437971Y-255807D01*
X438240Y-255650D01*
X438513Y-255500D01*
X438790Y-255356D01*
X439070Y-255219D01*
X439353Y-255090D01*
X439640Y-254967D01*
X439929Y-254851D01*
X440221Y-254742D01*
X440516Y-254641D01*
X440813Y-254547D01*
X441113Y-254460D01*
X441414Y-254381D01*
X441717Y-254309D01*
X442022Y-254244D01*
X442329Y-254187D01*
X442637Y-254137D01*
X442945Y-254096D01*
X443255Y-254061D01*
X443566Y-254034D01*
X443877Y-254015D01*
X444188Y-254004D01*
X444500Y-254000D01*
X444812Y-254004D01*
X445123Y-254015D01*
X445434Y-254034D01*
X445745Y-254061D01*
X446055Y-254096D01*
X446363Y-254137D01*
X446671Y-254187D01*
X446978Y-254244D01*
X447283Y-254309D01*
X447586Y-254381D01*
X447887Y-254460D01*
X448187Y-254547D01*
X448484Y-254641D01*
X448779Y-254742D01*
X449071Y-254851D01*
X449360Y-254967D01*
X449647Y-255090D01*
X449930Y-255219D01*
X450210Y-255356D01*
X450487Y-255500D01*
X450760Y-255650D01*
X451029Y-255807D01*
X451294Y-255970D01*
X451556Y-256140D01*
X451813Y-256317D01*
X452065Y-256499D01*
X452313Y-256688D01*
X452557Y-256883D01*
X452795Y-257083D01*
X453029Y-257290D01*
X453257Y-257502D01*
X453480Y-257720D01*
X453698Y-257943D01*
X453910Y-258171D01*
X454117Y-258405D01*
X454317Y-258643D01*
X454512Y-258887D01*
X454701Y-259135D01*
X454883Y-259387D01*
X455060Y-259644D01*
X455230Y-259906D01*
X455393Y-260171D01*
X455550Y-260440D01*
X455700Y-260713D01*
X455844Y-260990D01*
X455981Y-261270D01*
X456110Y-261553D01*
X456233Y-261840D01*
X456349Y-262129D01*
X456458Y-262421D01*
X456559Y-262716D01*
X456653Y-263013D01*
X456740Y-263313D01*
X456819Y-263614D01*
X456891Y-263917D01*
X456956Y-264222D01*
X457013Y-264529D01*
X457063Y-264837D01*
X457104Y-265145D01*
X457139Y-265455D01*
X457166Y-265766D01*
X457185Y-266077D01*
X457196Y-266388D01*
X457200Y-266700D01*
X457196Y-267012D01*
X457185Y-267323D01*
X457166Y-267634D01*
X457139Y-267945D01*
X457104Y-268255D01*
X457063Y-268563D01*
X457013Y-268871D01*
X456956Y-269178D01*
X456891Y-269483D01*
X456819Y-269786D01*
X456740Y-270087D01*
X456653Y-270387D01*
X456559Y-270684D01*
X456458Y-270979D01*
X456349Y-271271D01*
X456233Y-271560D01*
X456110Y-271847D01*
X455981Y-272130D01*
X455844Y-272410D01*
X455700Y-272687D01*
X455550Y-272960D01*
X455393Y-273229D01*
X455230Y-273494D01*
X455060Y-273756D01*
X454883Y-274013D01*
X454701Y-274265D01*
X454512Y-274513D01*
X454317Y-274757D01*
X454117Y-274995D01*
X453910Y-275229D01*
X453698Y-275457D01*
X453480Y-275680D01*
X453257Y-275898D01*
X453029Y-276110D01*
X452795Y-276317D01*
X452557Y-276517D01*
X452313Y-276712D01*
X452065Y-276901D01*
X451813Y-277083D01*
X451556Y-277260D01*
X451294Y-277430D01*
X451029Y-277593D01*
X450760Y-277750D01*
X450487Y-277900D01*
X450210Y-278044D01*
X449930Y-278181D01*
X449647Y-278310D01*
X449360Y-278433D01*
X449071Y-278549D01*
X448779Y-278658D01*
X448484Y-278759D01*
X448187Y-278853D01*
X447887Y-278940D01*
X447586Y-279019D01*
X447283Y-279091D01*
X446978Y-279156D01*
X446671Y-279213D01*
X446363Y-279263D01*
X446055Y-279304D01*
X445745Y-279339D01*
X445434Y-279366D01*
X445123Y-279385D01*
X444812Y-279396D01*
X444500Y-279400D01*
X444188Y-279396D01*
X443877Y-279385D01*
X443566Y-279366D01*
X443255Y-279339D01*
X442945Y-279304D01*
X442637Y-279263D01*
X442329Y-279213D01*
X442022Y-279156D01*
X441717Y-279091D01*
X441414Y-279019D01*
X441113Y-278940D01*
X440813Y-278853D01*
X440516Y-278759D01*
X440221Y-278658D01*
X439929Y-278549D01*
X439640Y-278433D01*
X439353Y-278310D01*
X439070Y-278181D01*
X438790Y-278044D01*
X438513Y-277900D01*
X438240Y-277750D01*
X437971Y-277593D01*
X437706Y-277430D01*
X437444Y-277260D01*
X437187Y-277083D01*
X436935Y-276901D01*
X436687Y-276712D01*
X436443Y-276517D01*
X436205Y-276317D01*
X435971Y-276110D01*
X435743Y-275898D01*
X435520Y-275680D01*
X435302Y-275457D01*
X435090Y-275229D01*
X434883Y-274995D01*
X434683Y-274757D01*
X434488Y-274513D01*
X434299Y-274265D01*
X434117Y-274013D01*
X433940Y-273756D01*
X433770Y-273494D01*
X433607Y-273229D01*
X433450Y-272960D01*
X433300Y-272687D01*
X433156Y-272410D01*
X433019Y-272130D01*
X432890Y-271847D01*
X432767Y-271560D01*
X432651Y-271271D01*
X432542Y-270979D01*
X432441Y-270684D01*
X432347Y-270387D01*
X432260Y-270087D01*
X432181Y-269786D01*
X432109Y-269483D01*
X432044Y-269178D01*
X431987Y-268871D01*
X431937Y-268563D01*
X431896Y-268255D01*
X431861Y-267945D01*
X431834Y-267634D01*
X431815Y-267323D01*
X431804Y-267012D01*
X431800Y-266700D01*
X431800Y-241300D02*
X431804Y-240988D01*
X431815Y-240677D01*
X431834Y-240366D01*
X431861Y-240055D01*
X431896Y-239745D01*
X431937Y-239437D01*
X431987Y-239129D01*
X432044Y-238822D01*
X432109Y-238517D01*
X432181Y-238214D01*
X432260Y-237913D01*
X432347Y-237613D01*
X432441Y-237316D01*
X432542Y-237021D01*
X432651Y-236729D01*
X432767Y-236440D01*
X432890Y-236153D01*
X433019Y-235870D01*
X433156Y-235590D01*
X433300Y-235313D01*
X433450Y-235040D01*
X433607Y-234771D01*
X433770Y-234506D01*
X433940Y-234244D01*
X434117Y-233987D01*
X434299Y-233735D01*
X434488Y-233487D01*
X434683Y-233243D01*
X434883Y-233005D01*
X435090Y-232771D01*
X435302Y-232543D01*
X435520Y-232320D01*
X435743Y-232102D01*
X435971Y-231890D01*
X436205Y-231683D01*
X436443Y-231483D01*
X436687Y-231288D01*
X436935Y-231099D01*
X437187Y-230917D01*
X437444Y-230740D01*
X437706Y-230570D01*
X437971Y-230407D01*
X438240Y-230250D01*
X438513Y-230100D01*
X438790Y-229956D01*
X439070Y-229819D01*
X439353Y-229690D01*
X439640Y-229567D01*
X439929Y-229451D01*
X440221Y-229342D01*
X440516Y-229241D01*
X440813Y-229147D01*
X441113Y-229060D01*
X441414Y-228981D01*
X441717Y-228909D01*
X442022Y-228844D01*
X442329Y-228787D01*
X442637Y-228737D01*
X442945Y-228696D01*
X443255Y-228661D01*
X443566Y-228634D01*
X443877Y-228615D01*
X444188Y-228604D01*
X444500Y-228600D01*
X444812Y-228604D01*
X445123Y-228615D01*
X445434Y-228634D01*
X445745Y-228661D01*
X446055Y-228696D01*
X446363Y-228737D01*
X446671Y-228787D01*
X446978Y-228844D01*
X447283Y-228909D01*
X447586Y-228981D01*
X447887Y-229060D01*
X448187Y-229147D01*
X448484Y-229241D01*
X448779Y-229342D01*
X449071Y-229451D01*
X449360Y-229567D01*
X449647Y-229690D01*
X449930Y-229819D01*
X450210Y-229956D01*
X450487Y-230100D01*
X450760Y-230250D01*
X451029Y-230407D01*
X451294Y-230570D01*
X451556Y-230740D01*
X451813Y-230917D01*
X452065Y-231099D01*
X452313Y-231288D01*
X452557Y-231483D01*
X452795Y-231683D01*
X453029Y-231890D01*
X453257Y-232102D01*
X453480Y-232320D01*
X453698Y-232543D01*
X453910Y-232771D01*
X454117Y-233005D01*
X454317Y-233243D01*
X454512Y-233487D01*
X454701Y-233735D01*
X454883Y-233987D01*
X455060Y-234244D01*
X455230Y-234506D01*
X455393Y-234771D01*
X455550Y-235040D01*
X455700Y-235313D01*
X455844Y-235590D01*
X455981Y-235870D01*
X456110Y-236153D01*
X456233Y-236440D01*
X456349Y-236729D01*
X456458Y-237021D01*
X456559Y-237316D01*
X456653Y-237613D01*
X456740Y-237913D01*
X456819Y-238214D01*
X456891Y-238517D01*
X456956Y-238822D01*
X457013Y-239129D01*
X457063Y-239437D01*
X457104Y-239745D01*
X457139Y-240055D01*
X457166Y-240366D01*
X457185Y-240677D01*
X457196Y-240988D01*
X457200Y-241300D01*
X457196Y-241612D01*
X457185Y-241923D01*
X457166Y-242234D01*
X457139Y-242545D01*
X457104Y-242855D01*
X457063Y-243163D01*
X457013Y-243471D01*
X456956Y-243778D01*
X456891Y-244083D01*
X456819Y-244386D01*
X456740Y-244687D01*
X456653Y-244987D01*
X456559Y-245284D01*
X456458Y-245579D01*
X456349Y-245871D01*
X456233Y-246160D01*
X456110Y-246447D01*
X455981Y-246730D01*
X455844Y-247010D01*
X455700Y-247287D01*
X455550Y-247560D01*
X455393Y-247829D01*
X455230Y-248094D01*
X455060Y-248356D01*
X454883Y-248613D01*
X454701Y-248865D01*
X454512Y-249113D01*
X454317Y-249357D01*
X454117Y-249595D01*
X453910Y-249829D01*
X453698Y-250057D01*
X453480Y-250280D01*
X453257Y-250498D01*
X453029Y-250710D01*
X452795Y-250917D01*
X452557Y-251117D01*
X452313Y-251312D01*
X452065Y-251501D01*
X451813Y-251683D01*
X451556Y-251860D01*
X451294Y-252030D01*
X451029Y-252193D01*
X450760Y-252350D01*
X450487Y-252500D01*
X450210Y-252644D01*
X449930Y-252781D01*
X449647Y-252910D01*
X449360Y-253033D01*
X449071Y-253149D01*
X448779Y-253258D01*
X448484Y-253359D01*
X448187Y-253453D01*
X447887Y-253540D01*
X447586Y-253619D01*
X447283Y-253691D01*
X446978Y-253756D01*
X446671Y-253813D01*
X446363Y-253863D01*
X446055Y-253904D01*
X445745Y-253939D01*
X445434Y-253966D01*
X445123Y-253985D01*
X444812Y-253996D01*
X444500Y-254000D01*
X444188Y-253996D01*
X443877Y-253985D01*
X443566Y-253966D01*
X443255Y-253939D01*
X442945Y-253904D01*
X442637Y-253863D01*
X442329Y-253813D01*
X442022Y-253756D01*
X441717Y-253691D01*
X441414Y-253619D01*
X441113Y-253540D01*
X440813Y-253453D01*
X440516Y-253359D01*
X440221Y-253258D01*
X439929Y-253149D01*
X439640Y-253033D01*
X439353Y-252910D01*
X439070Y-252781D01*
X438790Y-252644D01*
X438513Y-252500D01*
X438240Y-252350D01*
X437971Y-252193D01*
X437706Y-252030D01*
X437444Y-251860D01*
X437187Y-251683D01*
X436935Y-251501D01*
X436687Y-251312D01*
X436443Y-251117D01*
X436205Y-250917D01*
X435971Y-250710D01*
X435743Y-250498D01*
X435520Y-250280D01*
X435302Y-250057D01*
X435090Y-249829D01*
X434883Y-249595D01*
X434683Y-249357D01*
X434488Y-249113D01*
X434299Y-248865D01*
X434117Y-248613D01*
X433940Y-248356D01*
X433770Y-248094D01*
X433607Y-247829D01*
X433450Y-247560D01*
X433300Y-247287D01*
X433156Y-247010D01*
X433019Y-246730D01*
X432890Y-246447D01*
X432767Y-246160D01*
X432651Y-245871D01*
X432542Y-245579D01*
X432441Y-245284D01*
X432347Y-244987D01*
X432260Y-244687D01*
X432181Y-244386D01*
X432109Y-244083D01*
X432044Y-243778D01*
X431987Y-243471D01*
X431937Y-243163D01*
X431896Y-242855D01*
X431861Y-242545D01*
X431834Y-242234D01*
X431815Y-241923D01*
X431804Y-241612D01*
X431800Y-241300D01*
X330200Y-266700D02*
X330204Y-266388D01*
X330215Y-266077D01*
X330234Y-265766D01*
X330261Y-265455D01*
X330296Y-265145D01*
X330337Y-264837D01*
X330387Y-264529D01*
X330444Y-264222D01*
X330509Y-263917D01*
X330581Y-263614D01*
X330660Y-263313D01*
X330747Y-263013D01*
X330841Y-262716D01*
X330942Y-262421D01*
X331051Y-262129D01*
X331167Y-261840D01*
X331290Y-261553D01*
X331419Y-261270D01*
X331556Y-260990D01*
X331700Y-260713D01*
X331850Y-260440D01*
X332007Y-260171D01*
X332170Y-259906D01*
X332340Y-259644D01*
X332517Y-259387D01*
X332699Y-259135D01*
X332888Y-258887D01*
X333083Y-258643D01*
X333283Y-258405D01*
X333490Y-258171D01*
X333702Y-257943D01*
X333920Y-257720D01*
X334143Y-257502D01*
X334371Y-257290D01*
X334605Y-257083D01*
X334843Y-256883D01*
X335087Y-256688D01*
X335335Y-256499D01*
X335587Y-256317D01*
X335844Y-256140D01*
X336106Y-255970D01*
X336371Y-255807D01*
X336640Y-255650D01*
X336913Y-255500D01*
X337190Y-255356D01*
X337470Y-255219D01*
X337753Y-255090D01*
X338040Y-254967D01*
X338329Y-254851D01*
X338621Y-254742D01*
X338916Y-254641D01*
X339213Y-254547D01*
X339513Y-254460D01*
X339814Y-254381D01*
X340117Y-254309D01*
X340422Y-254244D01*
X340729Y-254187D01*
X341037Y-254137D01*
X341345Y-254096D01*
X341655Y-254061D01*
X341966Y-254034D01*
X342277Y-254015D01*
X342588Y-254004D01*
X342900Y-254000D01*
X343212Y-254004D01*
X343523Y-254015D01*
X343834Y-254034D01*
X344145Y-254061D01*
X344455Y-254096D01*
X344763Y-254137D01*
X345071Y-254187D01*
X345378Y-254244D01*
X345683Y-254309D01*
X345986Y-254381D01*
X346287Y-254460D01*
X346587Y-254547D01*
X346884Y-254641D01*
X347179Y-254742D01*
X347471Y-254851D01*
X347760Y-254967D01*
X348047Y-255090D01*
X348330Y-255219D01*
X348610Y-255356D01*
X348887Y-255500D01*
X349160Y-255650D01*
X349429Y-255807D01*
X349694Y-255970D01*
X349956Y-256140D01*
X350213Y-256317D01*
X350465Y-256499D01*
X350713Y-256688D01*
X350957Y-256883D01*
X351195Y-257083D01*
X351429Y-257290D01*
X351657Y-257502D01*
X351880Y-257720D01*
X352098Y-257943D01*
X352310Y-258171D01*
X352517Y-258405D01*
X352717Y-258643D01*
X352912Y-258887D01*
X353101Y-259135D01*
X353283Y-259387D01*
X353460Y-259644D01*
X353630Y-259906D01*
X353793Y-260171D01*
X353950Y-260440D01*
X354100Y-260713D01*
X354244Y-260990D01*
X354381Y-261270D01*
X354510Y-261553D01*
X354633Y-261840D01*
X354749Y-262129D01*
X354858Y-262421D01*
X354959Y-262716D01*
X355053Y-263013D01*
X355140Y-263313D01*
X355219Y-263614D01*
X355291Y-263917D01*
X355356Y-264222D01*
X355413Y-264529D01*
X355463Y-264837D01*
X355504Y-265145D01*
X355539Y-265455D01*
X355566Y-265766D01*
X355585Y-266077D01*
X355596Y-266388D01*
X355600Y-266700D01*
X355596Y-267012D01*
X355585Y-267323D01*
X355566Y-267634D01*
X355539Y-267945D01*
X355504Y-268255D01*
X355463Y-268563D01*
X355413Y-268871D01*
X355356Y-269178D01*
X355291Y-269483D01*
X355219Y-269786D01*
X355140Y-270087D01*
X355053Y-270387D01*
X354959Y-270684D01*
X354858Y-270979D01*
X354749Y-271271D01*
X354633Y-271560D01*
X354510Y-271847D01*
X354381Y-272130D01*
X354244Y-272410D01*
X354100Y-272687D01*
X353950Y-272960D01*
X353793Y-273229D01*
X353630Y-273494D01*
X353460Y-273756D01*
X353283Y-274013D01*
X353101Y-274265D01*
X352912Y-274513D01*
X352717Y-274757D01*
X352517Y-274995D01*
X352310Y-275229D01*
X352098Y-275457D01*
X351880Y-275680D01*
X351657Y-275898D01*
X351429Y-276110D01*
X351195Y-276317D01*
X350957Y-276517D01*
X350713Y-276712D01*
X350465Y-276901D01*
X350213Y-277083D01*
X349956Y-277260D01*
X349694Y-277430D01*
X349429Y-277593D01*
X349160Y-277750D01*
X348887Y-277900D01*
X348610Y-278044D01*
X348330Y-278181D01*
X348047Y-278310D01*
X347760Y-278433D01*
X347471Y-278549D01*
X347179Y-278658D01*
X346884Y-278759D01*
X346587Y-278853D01*
X346287Y-278940D01*
X345986Y-279019D01*
X345683Y-279091D01*
X345378Y-279156D01*
X345071Y-279213D01*
X344763Y-279263D01*
X344455Y-279304D01*
X344145Y-279339D01*
X343834Y-279366D01*
X343523Y-279385D01*
X343212Y-279396D01*
X342900Y-279400D01*
X342588Y-279396D01*
X342277Y-279385D01*
X341966Y-279366D01*
X341655Y-279339D01*
X341345Y-279304D01*
X341037Y-279263D01*
X340729Y-279213D01*
X340422Y-279156D01*
X340117Y-279091D01*
X339814Y-279019D01*
X339513Y-278940D01*
X339213Y-278853D01*
X338916Y-278759D01*
X338621Y-278658D01*
X338329Y-278549D01*
X338040Y-278433D01*
X337753Y-278310D01*
X337470Y-278181D01*
X337190Y-278044D01*
X336913Y-277900D01*
X336640Y-277750D01*
X336371Y-277593D01*
X336106Y-277430D01*
X335844Y-277260D01*
X335587Y-277083D01*
X335335Y-276901D01*
X335087Y-276712D01*
X334843Y-276517D01*
X334605Y-276317D01*
X334371Y-276110D01*
X334143Y-275898D01*
X333920Y-275680D01*
X333702Y-275457D01*
X333490Y-275229D01*
X333283Y-274995D01*
X333083Y-274757D01*
X332888Y-274513D01*
X332699Y-274265D01*
X332517Y-274013D01*
X332340Y-273756D01*
X332170Y-273494D01*
X332007Y-273229D01*
X331850Y-272960D01*
X331700Y-272687D01*
X331556Y-272410D01*
X331419Y-272130D01*
X331290Y-271847D01*
X331167Y-271560D01*
X331051Y-271271D01*
X330942Y-270979D01*
X330841Y-270684D01*
X330747Y-270387D01*
X330660Y-270087D01*
X330581Y-269786D01*
X330509Y-269483D01*
X330444Y-269178D01*
X330387Y-268871D01*
X330337Y-268563D01*
X330296Y-268255D01*
X330261Y-267945D01*
X330234Y-267634D01*
X330215Y-267323D01*
X330204Y-267012D01*
X330200Y-266700D01*
X330200Y-292100D02*
X330204Y-291788D01*
X330215Y-291477D01*
X330234Y-291166D01*
X330261Y-290855D01*
X330296Y-290545D01*
X330337Y-290237D01*
X330387Y-289929D01*
X330444Y-289622D01*
X330509Y-289317D01*
X330581Y-289014D01*
X330660Y-288713D01*
X330747Y-288413D01*
X330841Y-288116D01*
X330942Y-287821D01*
X331051Y-287529D01*
X331167Y-287240D01*
X331290Y-286953D01*
X331419Y-286670D01*
X331556Y-286390D01*
X331700Y-286113D01*
X331850Y-285840D01*
X332007Y-285571D01*
X332170Y-285306D01*
X332340Y-285044D01*
X332517Y-284787D01*
X332699Y-284535D01*
X332888Y-284287D01*
X333083Y-284043D01*
X333283Y-283805D01*
X333490Y-283571D01*
X333702Y-283343D01*
X333920Y-283120D01*
X334143Y-282902D01*
X334371Y-282690D01*
X334605Y-282483D01*
X334843Y-282283D01*
X335087Y-282088D01*
X335335Y-281899D01*
X335587Y-281717D01*
X335844Y-281540D01*
X336106Y-281370D01*
X336371Y-281207D01*
X336640Y-281050D01*
X336913Y-280900D01*
X337190Y-280756D01*
X337470Y-280619D01*
X337753Y-280490D01*
X338040Y-280367D01*
X338329Y-280251D01*
X338621Y-280142D01*
X338916Y-280041D01*
X339213Y-279947D01*
X339513Y-279860D01*
X339814Y-279781D01*
X340117Y-279709D01*
X340422Y-279644D01*
X340729Y-279587D01*
X341037Y-279537D01*
X341345Y-279496D01*
X341655Y-279461D01*
X341966Y-279434D01*
X342277Y-279415D01*
X342588Y-279404D01*
X342900Y-279400D01*
X343212Y-279404D01*
X343523Y-279415D01*
X343834Y-279434D01*
X344145Y-279461D01*
X344455Y-279496D01*
X344763Y-279537D01*
X345071Y-279587D01*
X345378Y-279644D01*
X345683Y-279709D01*
X345986Y-279781D01*
X346287Y-279860D01*
X346587Y-279947D01*
X346884Y-280041D01*
X347179Y-280142D01*
X347471Y-280251D01*
X347760Y-280367D01*
X348047Y-280490D01*
X348330Y-280619D01*
X348610Y-280756D01*
X348887Y-280900D01*
X349160Y-281050D01*
X349429Y-281207D01*
X349694Y-281370D01*
X349956Y-281540D01*
X350213Y-281717D01*
X350465Y-281899D01*
X350713Y-282088D01*
X350957Y-282283D01*
X351195Y-282483D01*
X351429Y-282690D01*
X351657Y-282902D01*
X351880Y-283120D01*
X352098Y-283343D01*
X352310Y-283571D01*
X352517Y-283805D01*
X352717Y-284043D01*
X352912Y-284287D01*
X353101Y-284535D01*
X353283Y-284787D01*
X353460Y-285044D01*
X353630Y-285306D01*
X353793Y-285571D01*
X353950Y-285840D01*
X354100Y-286113D01*
X354244Y-286390D01*
X354381Y-286670D01*
X354510Y-286953D01*
X354633Y-287240D01*
X354749Y-287529D01*
X354858Y-287821D01*
X354959Y-288116D01*
X355053Y-288413D01*
X355140Y-288713D01*
X355219Y-289014D01*
X355291Y-289317D01*
X355356Y-289622D01*
X355413Y-289929D01*
X355463Y-290237D01*
X355504Y-290545D01*
X355539Y-290855D01*
X355566Y-291166D01*
X355585Y-291477D01*
X355596Y-291788D01*
X355600Y-292100D01*
X355596Y-292412D01*
X355585Y-292723D01*
X355566Y-293034D01*
X355539Y-293345D01*
X355504Y-293655D01*
X355463Y-293963D01*
X355413Y-294271D01*
X355356Y-294578D01*
X355291Y-294883D01*
X355219Y-295186D01*
X355140Y-295487D01*
X355053Y-295787D01*
X354959Y-296084D01*
X354858Y-296379D01*
X354749Y-296671D01*
X354633Y-296960D01*
X354510Y-297247D01*
X354381Y-297530D01*
X354244Y-297810D01*
X354100Y-298087D01*
X353950Y-298360D01*
X353793Y-298629D01*
X353630Y-298894D01*
X353460Y-299156D01*
X353283Y-299413D01*
X353101Y-299665D01*
X352912Y-299913D01*
X352717Y-300157D01*
X352517Y-300395D01*
X352310Y-300629D01*
X352098Y-300857D01*
X351880Y-301080D01*
X351657Y-301298D01*
X351429Y-301510D01*
X351195Y-301717D01*
X350957Y-301917D01*
X350713Y-302112D01*
X350465Y-302301D01*
X350213Y-302483D01*
X349956Y-302660D01*
X349694Y-302830D01*
X349429Y-302993D01*
X349160Y-303150D01*
X348887Y-303300D01*
X348610Y-303444D01*
X348330Y-303581D01*
X348047Y-303710D01*
X347760Y-303833D01*
X347471Y-303949D01*
X347179Y-304058D01*
X346884Y-304159D01*
X346587Y-304253D01*
X346287Y-304340D01*
X345986Y-304419D01*
X345683Y-304491D01*
X345378Y-304556D01*
X345071Y-304613D01*
X344763Y-304663D01*
X344455Y-304704D01*
X344145Y-304739D01*
X343834Y-304766D01*
X343523Y-304785D01*
X343212Y-304796D01*
X342900Y-304800D01*
X342588Y-304796D01*
X342277Y-304785D01*
X341966Y-304766D01*
X341655Y-304739D01*
X341345Y-304704D01*
X341037Y-304663D01*
X340729Y-304613D01*
X340422Y-304556D01*
X340117Y-304491D01*
X339814Y-304419D01*
X339513Y-304340D01*
X339213Y-304253D01*
X338916Y-304159D01*
X338621Y-304058D01*
X338329Y-303949D01*
X338040Y-303833D01*
X337753Y-303710D01*
X337470Y-303581D01*
X337190Y-303444D01*
X336913Y-303300D01*
X336640Y-303150D01*
X336371Y-302993D01*
X336106Y-302830D01*
X335844Y-302660D01*
X335587Y-302483D01*
X335335Y-302301D01*
X335087Y-302112D01*
X334843Y-301917D01*
X334605Y-301717D01*
X334371Y-301510D01*
X334143Y-301298D01*
X333920Y-301080D01*
X333702Y-300857D01*
X333490Y-300629D01*
X333283Y-300395D01*
X333083Y-300157D01*
X332888Y-299913D01*
X332699Y-299665D01*
X332517Y-299413D01*
X332340Y-299156D01*
X332170Y-298894D01*
X332007Y-298629D01*
X331850Y-298360D01*
X331700Y-298087D01*
X331556Y-297810D01*
X331419Y-297530D01*
X331290Y-297247D01*
X331167Y-296960D01*
X331051Y-296671D01*
X330942Y-296379D01*
X330841Y-296084D01*
X330747Y-295787D01*
X330660Y-295487D01*
X330581Y-295186D01*
X330509Y-294883D01*
X330444Y-294578D01*
X330387Y-294271D01*
X330337Y-293963D01*
X330296Y-293655D01*
X330261Y-293345D01*
X330234Y-293034D01*
X330215Y-292723D01*
X330204Y-292412D01*
X330200Y-292100D01*
X482600Y-266700D02*
X482604Y-266388D01*
X482615Y-266077D01*
X482634Y-265766D01*
X482661Y-265455D01*
X482696Y-265145D01*
X482737Y-264837D01*
X482787Y-264529D01*
X482844Y-264222D01*
X482909Y-263917D01*
X482981Y-263614D01*
X483060Y-263313D01*
X483147Y-263013D01*
X483241Y-262716D01*
X483342Y-262421D01*
X483451Y-262129D01*
X483567Y-261840D01*
X483690Y-261553D01*
X483819Y-261270D01*
X483956Y-260990D01*
X484100Y-260713D01*
X484250Y-260440D01*
X484407Y-260171D01*
X484570Y-259906D01*
X484740Y-259644D01*
X484917Y-259387D01*
X485099Y-259135D01*
X485288Y-258887D01*
X485483Y-258643D01*
X485683Y-258405D01*
X485890Y-258171D01*
X486102Y-257943D01*
X486320Y-257720D01*
X486543Y-257502D01*
X486771Y-257290D01*
X487005Y-257083D01*
X487243Y-256883D01*
X487487Y-256688D01*
X487735Y-256499D01*
X487987Y-256317D01*
X488244Y-256140D01*
X488506Y-255970D01*
X488771Y-255807D01*
X489040Y-255650D01*
X489313Y-255500D01*
X489590Y-255356D01*
X489870Y-255219D01*
X490153Y-255090D01*
X490440Y-254967D01*
X490729Y-254851D01*
X491021Y-254742D01*
X491316Y-254641D01*
X491613Y-254547D01*
X491913Y-254460D01*
X492214Y-254381D01*
X492517Y-254309D01*
X492822Y-254244D01*
X493129Y-254187D01*
X493437Y-254137D01*
X493745Y-254096D01*
X494055Y-254061D01*
X494366Y-254034D01*
X494677Y-254015D01*
X494988Y-254004D01*
X495300Y-254000D01*
X495612Y-254004D01*
X495923Y-254015D01*
X496234Y-254034D01*
X496545Y-254061D01*
X496855Y-254096D01*
X497163Y-254137D01*
X497471Y-254187D01*
X497778Y-254244D01*
X498083Y-254309D01*
X498386Y-254381D01*
X498687Y-254460D01*
X498987Y-254547D01*
X499284Y-254641D01*
X499579Y-254742D01*
X499871Y-254851D01*
X500160Y-254967D01*
X500447Y-255090D01*
X500730Y-255219D01*
X501010Y-255356D01*
X501287Y-255500D01*
X501560Y-255650D01*
X501829Y-255807D01*
X502094Y-255970D01*
X502356Y-256140D01*
X502613Y-256317D01*
X502865Y-256499D01*
X503113Y-256688D01*
X503357Y-256883D01*
X503595Y-257083D01*
X503829Y-257290D01*
X504057Y-257502D01*
X504280Y-257720D01*
X504498Y-257943D01*
X504710Y-258171D01*
X504917Y-258405D01*
X505117Y-258643D01*
X505312Y-258887D01*
X505501Y-259135D01*
X505683Y-259387D01*
X505860Y-259644D01*
X506030Y-259906D01*
X506193Y-260171D01*
X506350Y-260440D01*
X506500Y-260713D01*
X506644Y-260990D01*
X506781Y-261270D01*
X506910Y-261553D01*
X507033Y-261840D01*
X507149Y-262129D01*
X507258Y-262421D01*
X507359Y-262716D01*
X507453Y-263013D01*
X507540Y-263313D01*
X507619Y-263614D01*
X507691Y-263917D01*
X507756Y-264222D01*
X507813Y-264529D01*
X507863Y-264837D01*
X507904Y-265145D01*
X507939Y-265455D01*
X507966Y-265766D01*
X507985Y-266077D01*
X507996Y-266388D01*
X508000Y-266700D01*
X507996Y-267012D01*
X507985Y-267323D01*
X507966Y-267634D01*
X507939Y-267945D01*
X507904Y-268255D01*
X507863Y-268563D01*
X507813Y-268871D01*
X507756Y-269178D01*
X507691Y-269483D01*
X507619Y-269786D01*
X507540Y-270087D01*
X507453Y-270387D01*
X507359Y-270684D01*
X507258Y-270979D01*
X507149Y-271271D01*
X507033Y-271560D01*
X506910Y-271847D01*
X506781Y-272130D01*
X506644Y-272410D01*
X506500Y-272687D01*
X506350Y-272960D01*
X506193Y-273229D01*
X506030Y-273494D01*
X505860Y-273756D01*
X505683Y-274013D01*
X505501Y-274265D01*
X505312Y-274513D01*
X505117Y-274757D01*
X504917Y-274995D01*
X504710Y-275229D01*
X504498Y-275457D01*
X504280Y-275680D01*
X504057Y-275898D01*
X503829Y-276110D01*
X503595Y-276317D01*
X503357Y-276517D01*
X503113Y-276712D01*
X502865Y-276901D01*
X502613Y-277083D01*
X502356Y-277260D01*
X502094Y-277430D01*
X501829Y-277593D01*
X501560Y-277750D01*
X501287Y-277900D01*
X501010Y-278044D01*
X500730Y-278181D01*
X500447Y-278310D01*
X500160Y-278433D01*
X499871Y-278549D01*
X499579Y-278658D01*
X499284Y-278759D01*
X498987Y-278853D01*
X498687Y-278940D01*
X498386Y-279019D01*
X498083Y-279091D01*
X497778Y-279156D01*
X497471Y-279213D01*
X497163Y-279263D01*
X496855Y-279304D01*
X496545Y-279339D01*
X496234Y-279366D01*
X495923Y-279385D01*
X495612Y-279396D01*
X495300Y-279400D01*
X494988Y-279396D01*
X494677Y-279385D01*
X494366Y-279366D01*
X494055Y-279339D01*
X493745Y-279304D01*
X493437Y-279263D01*
X493129Y-279213D01*
X492822Y-279156D01*
X492517Y-279091D01*
X492214Y-279019D01*
X491913Y-278940D01*
X491613Y-278853D01*
X491316Y-278759D01*
X491021Y-278658D01*
X490729Y-278549D01*
X490440Y-278433D01*
X490153Y-278310D01*
X489870Y-278181D01*
X489590Y-278044D01*
X489313Y-277900D01*
X489040Y-277750D01*
X488771Y-277593D01*
X488506Y-277430D01*
X488244Y-277260D01*
X487987Y-277083D01*
X487735Y-276901D01*
X487487Y-276712D01*
X487243Y-276517D01*
X487005Y-276317D01*
X486771Y-276110D01*
X486543Y-275898D01*
X486320Y-275680D01*
X486102Y-275457D01*
X485890Y-275229D01*
X485683Y-274995D01*
X485483Y-274757D01*
X485288Y-274513D01*
X485099Y-274265D01*
X484917Y-274013D01*
X484740Y-273756D01*
X484570Y-273494D01*
X484407Y-273229D01*
X484250Y-272960D01*
X484100Y-272687D01*
X483956Y-272410D01*
X483819Y-272130D01*
X483690Y-271847D01*
X483567Y-271560D01*
X483451Y-271271D01*
X483342Y-270979D01*
X483241Y-270684D01*
X483147Y-270387D01*
X483060Y-270087D01*
X482981Y-269786D01*
X482909Y-269483D01*
X482844Y-269178D01*
X482787Y-268871D01*
X482737Y-268563D01*
X482696Y-268255D01*
X482661Y-267945D01*
X482634Y-267634D01*
X482615Y-267323D01*
X482604Y-267012D01*
X482600Y-266700D01*
X482600Y-292100D02*
X482604Y-291788D01*
X482615Y-291477D01*
X482634Y-291166D01*
X482661Y-290855D01*
X482696Y-290545D01*
X482737Y-290237D01*
X482787Y-289929D01*
X482844Y-289622D01*
X482909Y-289317D01*
X482981Y-289014D01*
X483060Y-288713D01*
X483147Y-288413D01*
X483241Y-288116D01*
X483342Y-287821D01*
X483451Y-287529D01*
X483567Y-287240D01*
X483690Y-286953D01*
X483819Y-286670D01*
X483956Y-286390D01*
X484100Y-286113D01*
X484250Y-285840D01*
X484407Y-285571D01*
X484570Y-285306D01*
X484740Y-285044D01*
X484917Y-284787D01*
X485099Y-284535D01*
X485288Y-284287D01*
X485483Y-284043D01*
X485683Y-283805D01*
X485890Y-283571D01*
X486102Y-283343D01*
X486320Y-283120D01*
X486543Y-282902D01*
X486771Y-282690D01*
X487005Y-282483D01*
X487243Y-282283D01*
X487487Y-282088D01*
X487735Y-281899D01*
X487987Y-281717D01*
X488244Y-281540D01*
X488506Y-281370D01*
X488771Y-281207D01*
X489040Y-281050D01*
X489313Y-280900D01*
X489590Y-280756D01*
X489870Y-280619D01*
X490153Y-280490D01*
X490440Y-280367D01*
X490729Y-280251D01*
X491021Y-280142D01*
X491316Y-280041D01*
X491613Y-279947D01*
X491913Y-279860D01*
X492214Y-279781D01*
X492517Y-279709D01*
X492822Y-279644D01*
X493129Y-279587D01*
X493437Y-279537D01*
X493745Y-279496D01*
X494055Y-279461D01*
X494366Y-279434D01*
X494677Y-279415D01*
X494988Y-279404D01*
X495300Y-279400D01*
X495612Y-279404D01*
X495923Y-279415D01*
X496234Y-279434D01*
X496545Y-279461D01*
X496855Y-279496D01*
X497163Y-279537D01*
X497471Y-279587D01*
X497778Y-279644D01*
X498083Y-279709D01*
X498386Y-279781D01*
X498687Y-279860D01*
X498987Y-279947D01*
X499284Y-280041D01*
X499579Y-280142D01*
X499871Y-280251D01*
X500160Y-280367D01*
X500447Y-280490D01*
X500730Y-280619D01*
X501010Y-280756D01*
X501287Y-280900D01*
X501560Y-281050D01*
X501829Y-281207D01*
X502094Y-281370D01*
X502356Y-281540D01*
X502613Y-281717D01*
X502865Y-281899D01*
X503113Y-282088D01*
X503357Y-282283D01*
X503595Y-282483D01*
X503829Y-282690D01*
X504057Y-282902D01*
X504280Y-283120D01*
X504498Y-283343D01*
X504710Y-283571D01*
X504917Y-283805D01*
X505117Y-284043D01*
X505312Y-284287D01*
X505501Y-284535D01*
X505683Y-284787D01*
X505860Y-285044D01*
X506030Y-285306D01*
X506193Y-285571D01*
X506350Y-285840D01*
X506500Y-286113D01*
X506644Y-286390D01*
X506781Y-286670D01*
X506910Y-286953D01*
X507033Y-287240D01*
X507149Y-287529D01*
X507258Y-287821D01*
X507359Y-288116D01*
X507453Y-288413D01*
X507540Y-288713D01*
X507619Y-289014D01*
X507691Y-289317D01*
X507756Y-289622D01*
X507813Y-289929D01*
X507863Y-290237D01*
X507904Y-290545D01*
X507939Y-290855D01*
X507966Y-291166D01*
X507985Y-291477D01*
X507996Y-291788D01*
X508000Y-292100D01*
X507996Y-292412D01*
X507985Y-292723D01*
X507966Y-293034D01*
X507939Y-293345D01*
X507904Y-293655D01*
X507863Y-293963D01*
X507813Y-294271D01*
X507756Y-294578D01*
X507691Y-294883D01*
X507619Y-295186D01*
X507540Y-295487D01*
X507453Y-295787D01*
X507359Y-296084D01*
X507258Y-296379D01*
X507149Y-296671D01*
X507033Y-296960D01*
X506910Y-297247D01*
X506781Y-297530D01*
X506644Y-297810D01*
X506500Y-298087D01*
X506350Y-298360D01*
X506193Y-298629D01*
X506030Y-298894D01*
X505860Y-299156D01*
X505683Y-299413D01*
X505501Y-299665D01*
X505312Y-299913D01*
X505117Y-300157D01*
X504917Y-300395D01*
X504710Y-300629D01*
X504498Y-300857D01*
X504280Y-301080D01*
X504057Y-301298D01*
X503829Y-301510D01*
X503595Y-301717D01*
X503357Y-301917D01*
X503113Y-302112D01*
X502865Y-302301D01*
X502613Y-302483D01*
X502356Y-302660D01*
X502094Y-302830D01*
X501829Y-302993D01*
X501560Y-303150D01*
X501287Y-303300D01*
X501010Y-303444D01*
X500730Y-303581D01*
X500447Y-303710D01*
X500160Y-303833D01*
X499871Y-303949D01*
X499579Y-304058D01*
X499284Y-304159D01*
X498987Y-304253D01*
X498687Y-304340D01*
X498386Y-304419D01*
X498083Y-304491D01*
X497778Y-304556D01*
X497471Y-304613D01*
X497163Y-304663D01*
X496855Y-304704D01*
X496545Y-304739D01*
X496234Y-304766D01*
X495923Y-304785D01*
X495612Y-304796D01*
X495300Y-304800D01*
X494988Y-304796D01*
X494677Y-304785D01*
X494366Y-304766D01*
X494055Y-304739D01*
X493745Y-304704D01*
X493437Y-304663D01*
X493129Y-304613D01*
X492822Y-304556D01*
X492517Y-304491D01*
X492214Y-304419D01*
X491913Y-304340D01*
X491613Y-304253D01*
X491316Y-304159D01*
X491021Y-304058D01*
X490729Y-303949D01*
X490440Y-303833D01*
X490153Y-303710D01*
X489870Y-303581D01*
X489590Y-303444D01*
X489313Y-303300D01*
X489040Y-303150D01*
X488771Y-302993D01*
X488506Y-302830D01*
X488244Y-302660D01*
X487987Y-302483D01*
X487735Y-302301D01*
X487487Y-302112D01*
X487243Y-301917D01*
X487005Y-301717D01*
X486771Y-301510D01*
X486543Y-301298D01*
X486320Y-301080D01*
X486102Y-300857D01*
X485890Y-300629D01*
X485683Y-300395D01*
X485483Y-300157D01*
X485288Y-299913D01*
X485099Y-299665D01*
X484917Y-299413D01*
X484740Y-299156D01*
X484570Y-298894D01*
X484407Y-298629D01*
X484250Y-298360D01*
X484100Y-298087D01*
X483956Y-297810D01*
X483819Y-297530D01*
X483690Y-297247D01*
X483567Y-296960D01*
X483451Y-296671D01*
X483342Y-296379D01*
X483241Y-296084D01*
X483147Y-295787D01*
X483060Y-295487D01*
X482981Y-295186D01*
X482909Y-294883D01*
X482844Y-294578D01*
X482787Y-294271D01*
X482737Y-293963D01*
X482696Y-293655D01*
X482661Y-293345D01*
X482634Y-293034D01*
X482615Y-292723D01*
X482604Y-292412D01*
X482600Y-292100D01*
X330200Y38100D02*
X330204Y38412D01*
X330215Y38723D01*
X330234Y39034D01*
X330261Y39345D01*
X330296Y39655D01*
X330337Y39963D01*
X330387Y40271D01*
X330444Y40578D01*
X330509Y40883D01*
X330581Y41186D01*
X330660Y41487D01*
X330747Y41787D01*
X330841Y42084D01*
X330942Y42379D01*
X331051Y42671D01*
X331167Y42960D01*
X331290Y43247D01*
X331419Y43530D01*
X331556Y43810D01*
X331700Y44087D01*
X331850Y44360D01*
X332007Y44629D01*
X332170Y44894D01*
X332340Y45156D01*
X332517Y45413D01*
X332699Y45665D01*
X332888Y45913D01*
X333083Y46157D01*
X333283Y46395D01*
X333490Y46629D01*
X333702Y46857D01*
X333920Y47080D01*
X334143Y47298D01*
X334371Y47510D01*
X334605Y47717D01*
X334843Y47917D01*
X335087Y48112D01*
X335335Y48301D01*
X335587Y48483D01*
X335844Y48660D01*
X336106Y48830D01*
X336371Y48993D01*
X336640Y49150D01*
X336913Y49300D01*
X337190Y49444D01*
X337470Y49581D01*
X337753Y49710D01*
X338040Y49833D01*
X338329Y49949D01*
X338621Y50058D01*
X338916Y50159D01*
X339213Y50253D01*
X339513Y50340D01*
X339814Y50419D01*
X340117Y50491D01*
X340422Y50556D01*
X340729Y50613D01*
X341037Y50663D01*
X341345Y50704D01*
X341655Y50739D01*
X341966Y50766D01*
X342277Y50785D01*
X342588Y50796D01*
X342900Y50800D01*
X343212Y50796D01*
X343523Y50785D01*
X343834Y50766D01*
X344145Y50739D01*
X344455Y50704D01*
X344763Y50663D01*
X345071Y50613D01*
X345378Y50556D01*
X345683Y50491D01*
X345986Y50419D01*
X346287Y50340D01*
X346587Y50253D01*
X346884Y50159D01*
X347179Y50058D01*
X347471Y49949D01*
X347760Y49833D01*
X348047Y49710D01*
X348330Y49581D01*
X348610Y49444D01*
X348887Y49300D01*
X349160Y49150D01*
X349429Y48993D01*
X349694Y48830D01*
X349956Y48660D01*
X350213Y48483D01*
X350465Y48301D01*
X350713Y48112D01*
X350957Y47917D01*
X351195Y47717D01*
X351429Y47510D01*
X351657Y47298D01*
X351880Y47080D01*
X352098Y46857D01*
X352310Y46629D01*
X352517Y46395D01*
X352717Y46157D01*
X352912Y45913D01*
X353101Y45665D01*
X353283Y45413D01*
X353460Y45156D01*
X353630Y44894D01*
X353793Y44629D01*
X353950Y44360D01*
X354100Y44087D01*
X354244Y43810D01*
X354381Y43530D01*
X354510Y43247D01*
X354633Y42960D01*
X354749Y42671D01*
X354858Y42379D01*
X354959Y42084D01*
X355053Y41787D01*
X355140Y41487D01*
X355219Y41186D01*
X355291Y40883D01*
X355356Y40578D01*
X355413Y40271D01*
X355463Y39963D01*
X355504Y39655D01*
X355539Y39345D01*
X355566Y39034D01*
X355585Y38723D01*
X355596Y38412D01*
X355600Y38100D01*
X355596Y37788D01*
X355585Y37477D01*
X355566Y37166D01*
X355539Y36855D01*
X355504Y36545D01*
X355463Y36237D01*
X355413Y35929D01*
X355356Y35622D01*
X355291Y35317D01*
X355219Y35014D01*
X355140Y34713D01*
X355053Y34413D01*
X354959Y34116D01*
X354858Y33821D01*
X354749Y33529D01*
X354633Y33240D01*
X354510Y32953D01*
X354381Y32670D01*
X354244Y32390D01*
X354100Y32113D01*
X353950Y31840D01*
X353793Y31571D01*
X353630Y31306D01*
X353460Y31044D01*
X353283Y30787D01*
X353101Y30535D01*
X352912Y30287D01*
X352717Y30043D01*
X352517Y29805D01*
X352310Y29571D01*
X352098Y29343D01*
X351880Y29120D01*
X351657Y28902D01*
X351429Y28690D01*
X351195Y28483D01*
X350957Y28283D01*
X350713Y28088D01*
X350465Y27899D01*
X350213Y27717D01*
X349956Y27540D01*
X349694Y27370D01*
X349429Y27207D01*
X349160Y27050D01*
X348887Y26900D01*
X348610Y26756D01*
X348330Y26619D01*
X348047Y26490D01*
X347760Y26367D01*
X347471Y26251D01*
X347179Y26142D01*
X346884Y26041D01*
X346587Y25947D01*
X346287Y25860D01*
X345986Y25781D01*
X345683Y25709D01*
X345378Y25644D01*
X345071Y25587D01*
X344763Y25537D01*
X344455Y25496D01*
X344145Y25461D01*
X343834Y25434D01*
X343523Y25415D01*
X343212Y25404D01*
X342900Y25400D01*
X342588Y25404D01*
X342277Y25415D01*
X341966Y25434D01*
X341655Y25461D01*
X341345Y25496D01*
X341037Y25537D01*
X340729Y25587D01*
X340422Y25644D01*
X340117Y25709D01*
X339814Y25781D01*
X339513Y25860D01*
X339213Y25947D01*
X338916Y26041D01*
X338621Y26142D01*
X338329Y26251D01*
X338040Y26367D01*
X337753Y26490D01*
X337470Y26619D01*
X337190Y26756D01*
X336913Y26900D01*
X336640Y27050D01*
X336371Y27207D01*
X336106Y27370D01*
X335844Y27540D01*
X335587Y27717D01*
X335335Y27899D01*
X335087Y28088D01*
X334843Y28283D01*
X334605Y28483D01*
X334371Y28690D01*
X334143Y28902D01*
X333920Y29120D01*
X333702Y29343D01*
X333490Y29571D01*
X333283Y29805D01*
X333083Y30043D01*
X332888Y30287D01*
X332699Y30535D01*
X332517Y30787D01*
X332340Y31044D01*
X332170Y31306D01*
X332007Y31571D01*
X331850Y31840D01*
X331700Y32113D01*
X331556Y32390D01*
X331419Y32670D01*
X331290Y32953D01*
X331167Y33240D01*
X331051Y33529D01*
X330942Y33821D01*
X330841Y34116D01*
X330747Y34413D01*
X330660Y34713D01*
X330581Y35014D01*
X330509Y35317D01*
X330444Y35622D01*
X330387Y35929D01*
X330337Y36237D01*
X330296Y36545D01*
X330261Y36855D01*
X330234Y37166D01*
X330215Y37477D01*
X330204Y37788D01*
X330200Y38100D01*
X330200Y12700D02*
X330204Y13012D01*
X330215Y13323D01*
X330234Y13634D01*
X330261Y13945D01*
X330296Y14255D01*
X330337Y14563D01*
X330387Y14871D01*
X330444Y15178D01*
X330509Y15483D01*
X330581Y15786D01*
X330660Y16087D01*
X330747Y16387D01*
X330841Y16684D01*
X330942Y16979D01*
X331051Y17271D01*
X331167Y17560D01*
X331290Y17847D01*
X331419Y18130D01*
X331556Y18410D01*
X331700Y18687D01*
X331850Y18960D01*
X332007Y19229D01*
X332170Y19494D01*
X332340Y19756D01*
X332517Y20013D01*
X332699Y20265D01*
X332888Y20513D01*
X333083Y20757D01*
X333283Y20995D01*
X333490Y21229D01*
X333702Y21457D01*
X333920Y21680D01*
X334143Y21898D01*
X334371Y22110D01*
X334605Y22317D01*
X334843Y22517D01*
X335087Y22712D01*
X335335Y22901D01*
X335587Y23083D01*
X335844Y23260D01*
X336106Y23430D01*
X336371Y23593D01*
X336640Y23750D01*
X336913Y23900D01*
X337190Y24044D01*
X337470Y24181D01*
X337753Y24310D01*
X338040Y24433D01*
X338329Y24549D01*
X338621Y24658D01*
X338916Y24759D01*
X339213Y24853D01*
X339513Y24940D01*
X339814Y25019D01*
X340117Y25091D01*
X340422Y25156D01*
X340729Y25213D01*
X341037Y25263D01*
X341345Y25304D01*
X341655Y25339D01*
X341966Y25366D01*
X342277Y25385D01*
X342588Y25396D01*
X342900Y25400D01*
X343212Y25396D01*
X343523Y25385D01*
X343834Y25366D01*
X344145Y25339D01*
X344455Y25304D01*
X344763Y25263D01*
X345071Y25213D01*
X345378Y25156D01*
X345683Y25091D01*
X345986Y25019D01*
X346287Y24940D01*
X346587Y24853D01*
X346884Y24759D01*
X347179Y24658D01*
X347471Y24549D01*
X347760Y24433D01*
X348047Y24310D01*
X348330Y24181D01*
X348610Y24044D01*
X348887Y23900D01*
X349160Y23750D01*
X349429Y23593D01*
X349694Y23430D01*
X349956Y23260D01*
X350213Y23083D01*
X350465Y22901D01*
X350713Y22712D01*
X350957Y22517D01*
X351195Y22317D01*
X351429Y22110D01*
X351657Y21898D01*
X351880Y21680D01*
X352098Y21457D01*
X352310Y21229D01*
X352517Y20995D01*
X352717Y20757D01*
X352912Y20513D01*
X353101Y20265D01*
X353283Y20013D01*
X353460Y19756D01*
X353630Y19494D01*
X353793Y19229D01*
X353950Y18960D01*
X354100Y18687D01*
X354244Y18410D01*
X354381Y18130D01*
X354510Y17847D01*
X354633Y17560D01*
X354749Y17271D01*
X354858Y16979D01*
X354959Y16684D01*
X355053Y16387D01*
X355140Y16087D01*
X355219Y15786D01*
X355291Y15483D01*
X355356Y15178D01*
X355413Y14871D01*
X355463Y14563D01*
X355504Y14255D01*
X355539Y13945D01*
X355566Y13634D01*
X355585Y13323D01*
X355596Y13012D01*
X355600Y12700D01*
X355596Y12388D01*
X355585Y12077D01*
X355566Y11766D01*
X355539Y11455D01*
X355504Y11145D01*
X355463Y10837D01*
X355413Y10529D01*
X355356Y10222D01*
X355291Y9917D01*
X355219Y9614D01*
X355140Y9313D01*
X355053Y9013D01*
X354959Y8716D01*
X354858Y8421D01*
X354749Y8129D01*
X354633Y7840D01*
X354510Y7553D01*
X354381Y7270D01*
X354244Y6990D01*
X354100Y6713D01*
X353950Y6440D01*
X353793Y6171D01*
X353630Y5906D01*
X353460Y5644D01*
X353283Y5387D01*
X353101Y5135D01*
X352912Y4887D01*
X352717Y4643D01*
X352517Y4405D01*
X352310Y4171D01*
X352098Y3943D01*
X351880Y3720D01*
X351657Y3502D01*
X351429Y3290D01*
X351195Y3083D01*
X350957Y2883D01*
X350713Y2688D01*
X350465Y2499D01*
X350213Y2317D01*
X349956Y2140D01*
X349694Y1970D01*
X349429Y1807D01*
X349160Y1650D01*
X348887Y1500D01*
X348610Y1356D01*
X348330Y1219D01*
X348047Y1090D01*
X347760Y967D01*
X347471Y851D01*
X347179Y742D01*
X346884Y641D01*
X346587Y547D01*
X346287Y460D01*
X345986Y381D01*
X345683Y309D01*
X345378Y244D01*
X345071Y187D01*
X344763Y137D01*
X344455Y96D01*
X344145Y61D01*
X343834Y34D01*
X343523Y15D01*
X343212Y4D01*
X342900Y0D01*
X342588Y4D01*
X342277Y15D01*
X341966Y34D01*
X341655Y61D01*
X341345Y96D01*
X341037Y137D01*
X340729Y187D01*
X340422Y244D01*
X340117Y309D01*
X339814Y381D01*
X339513Y460D01*
X339213Y547D01*
X338916Y641D01*
X338621Y742D01*
X338329Y851D01*
X338040Y967D01*
X337753Y1090D01*
X337470Y1219D01*
X337190Y1356D01*
X336913Y1500D01*
X336640Y1650D01*
X336371Y1807D01*
X336106Y1970D01*
X335844Y2140D01*
X335587Y2317D01*
X335335Y2499D01*
X335087Y2688D01*
X334843Y2883D01*
X334605Y3083D01*
X334371Y3290D01*
X334143Y3502D01*
X333920Y3720D01*
X333702Y3943D01*
X333490Y4171D01*
X333283Y4405D01*
X333083Y4643D01*
X332888Y4887D01*
X332699Y5135D01*
X332517Y5387D01*
X332340Y5644D01*
X332170Y5906D01*
X332007Y6171D01*
X331850Y6440D01*
X331700Y6713D01*
X331556Y6990D01*
X331419Y7270D01*
X331290Y7553D01*
X331167Y7840D01*
X331051Y8129D01*
X330942Y8421D01*
X330841Y8716D01*
X330747Y9013D01*
X330660Y9313D01*
X330581Y9614D01*
X330509Y9917D01*
X330444Y10222D01*
X330387Y10529D01*
X330337Y10837D01*
X330296Y11145D01*
X330261Y11455D01*
X330234Y11766D01*
X330215Y12077D01*
X330204Y12388D01*
X330200Y12700D01*
D12*
X-559359Y-91948D02*
X-559359Y-165100D01*
X-380441Y-165100D01*
X-380441Y-91948D01*
X-559359Y-91948D01*
D13*
X-472324Y-190881D02*
X-472324Y-197668D01*
X-472326Y-197769D01*
X-472332Y-197870D01*
X-472342Y-197971D01*
X-472355Y-198071D01*
X-472373Y-198171D01*
X-472394Y-198270D01*
X-472420Y-198368D01*
X-472449Y-198465D01*
X-472481Y-198561D01*
X-472518Y-198655D01*
X-472558Y-198748D01*
X-472602Y-198840D01*
X-472649Y-198929D01*
X-472700Y-199017D01*
X-472754Y-199103D01*
X-472811Y-199186D01*
X-472871Y-199268D01*
X-472935Y-199346D01*
X-473001Y-199423D01*
X-473071Y-199496D01*
X-473143Y-199567D01*
X-473218Y-199635D01*
X-473296Y-199700D01*
X-473376Y-199762D01*
X-473458Y-199821D01*
X-473543Y-199877D01*
X-473630Y-199929D01*
X-473718Y-199978D01*
X-473809Y-200024D01*
X-473901Y-200065D01*
X-473995Y-200104D01*
X-474090Y-200138D01*
X-474186Y-200169D01*
X-474284Y-200196D01*
X-474382Y-200220D01*
X-474482Y-200239D01*
X-474582Y-200255D01*
X-474682Y-200267D01*
X-474783Y-200275D01*
X-474884Y-200279D01*
X-474986Y-200279D01*
X-475087Y-200275D01*
X-475188Y-200267D01*
X-475288Y-200255D01*
X-475388Y-200239D01*
X-475488Y-200220D01*
X-475586Y-200196D01*
X-475684Y-200169D01*
X-475780Y-200138D01*
X-475875Y-200104D01*
X-475969Y-200065D01*
X-476061Y-200024D01*
X-476152Y-199978D01*
X-476241Y-199929D01*
X-476327Y-199877D01*
X-476412Y-199821D01*
X-476494Y-199762D01*
X-476574Y-199700D01*
X-476652Y-199635D01*
X-476727Y-199567D01*
X-476799Y-199496D01*
X-476869Y-199423D01*
X-476935Y-199346D01*
X-476999Y-199268D01*
X-477059Y-199186D01*
X-477116Y-199103D01*
X-477170Y-199017D01*
X-477221Y-198929D01*
X-477268Y-198840D01*
X-477312Y-198748D01*
X-477352Y-198655D01*
X-477389Y-198561D01*
X-477421Y-198465D01*
X-477450Y-198368D01*
X-477476Y-198270D01*
X-477497Y-198171D01*
X-477515Y-198071D01*
X-477528Y-197971D01*
X-477538Y-197870D01*
X-477544Y-197769D01*
X-477546Y-197668D01*
X-477545Y-197668D02*
X-477545Y-190881D01*
X-483774Y-190881D02*
X-483774Y-200279D01*
X-483774Y-195580D02*
X-482469Y-194797D01*
X-482468Y-194797D02*
X-482403Y-194755D01*
X-482340Y-194711D01*
X-482280Y-194664D01*
X-482221Y-194613D01*
X-482166Y-194560D01*
X-482113Y-194504D01*
X-482063Y-194445D01*
X-482015Y-194385D01*
X-481971Y-194321D01*
X-481930Y-194256D01*
X-481892Y-194189D01*
X-481858Y-194120D01*
X-481827Y-194050D01*
X-481800Y-193978D01*
X-481776Y-193904D01*
X-481756Y-193830D01*
X-481739Y-193755D01*
X-481727Y-193679D01*
X-481718Y-193602D01*
X-481712Y-193525D01*
X-481711Y-193448D01*
X-481713Y-193371D01*
X-481720Y-193294D01*
X-481730Y-193218D01*
X-481744Y-193142D01*
X-481761Y-193067D01*
X-481782Y-192993D01*
X-481807Y-192920D01*
X-481835Y-192848D01*
X-481867Y-192778D01*
X-481903Y-192710D01*
X-481941Y-192643D01*
X-481983Y-192579D01*
X-482028Y-192516D01*
X-482076Y-192456D01*
X-482127Y-192398D01*
X-482181Y-192343D01*
X-482238Y-192290D01*
X-482297Y-192241D01*
X-482358Y-192194D01*
X-482421Y-192151D01*
X-482487Y-192110D01*
X-482555Y-192073D01*
X-482624Y-192040D01*
X-482695Y-192009D01*
X-482767Y-191983D01*
X-482841Y-191960D01*
X-482915Y-191940D01*
X-482991Y-191924D01*
X-482990Y-191924D02*
X-483113Y-191904D01*
X-483236Y-191887D01*
X-483360Y-191874D01*
X-483484Y-191865D01*
X-483608Y-191859D01*
X-483732Y-191857D01*
X-483856Y-191859D01*
X-483981Y-191864D01*
X-484105Y-191874D01*
X-484228Y-191887D01*
X-484351Y-191903D01*
X-484474Y-191924D01*
X-484596Y-191948D01*
X-484717Y-191976D01*
X-484837Y-192007D01*
X-484957Y-192042D01*
X-485075Y-192080D01*
X-485192Y-192122D01*
X-485307Y-192168D01*
X-485422Y-192217D01*
X-485534Y-192269D01*
X-485646Y-192325D01*
X-485755Y-192384D01*
X-485862Y-192447D01*
X-483774Y-195580D02*
X-485079Y-196363D01*
X-485080Y-196363D02*
X-485145Y-196405D01*
X-485208Y-196449D01*
X-485268Y-196496D01*
X-485327Y-196547D01*
X-485382Y-196600D01*
X-485435Y-196656D01*
X-485486Y-196715D01*
X-485533Y-196775D01*
X-485577Y-196839D01*
X-485618Y-196904D01*
X-485656Y-196971D01*
X-485690Y-197040D01*
X-485721Y-197111D01*
X-485748Y-197183D01*
X-485772Y-197256D01*
X-485792Y-197330D01*
X-485809Y-197405D01*
X-485821Y-197481D01*
X-485830Y-197558D01*
X-485836Y-197635D01*
X-485837Y-197712D01*
X-485835Y-197789D01*
X-485828Y-197866D01*
X-485818Y-197942D01*
X-485804Y-198018D01*
X-485787Y-198093D01*
X-485766Y-198167D01*
X-485741Y-198240D01*
X-485713Y-198312D01*
X-485681Y-198382D01*
X-485645Y-198450D01*
X-485607Y-198517D01*
X-485565Y-198582D01*
X-485520Y-198644D01*
X-485472Y-198704D01*
X-485421Y-198762D01*
X-485367Y-198817D01*
X-485310Y-198870D01*
X-485251Y-198919D01*
X-485190Y-198966D01*
X-485127Y-199009D01*
X-485061Y-199050D01*
X-484993Y-199087D01*
X-484924Y-199120D01*
X-484853Y-199151D01*
X-484781Y-199177D01*
X-484707Y-199200D01*
X-484633Y-199220D01*
X-484557Y-199236D01*
X-484558Y-199236D02*
X-484435Y-199256D01*
X-484312Y-199273D01*
X-484188Y-199286D01*
X-484064Y-199295D01*
X-483940Y-199301D01*
X-483816Y-199303D01*
X-483691Y-199301D01*
X-483567Y-199296D01*
X-483443Y-199286D01*
X-483320Y-199273D01*
X-483197Y-199257D01*
X-483074Y-199236D01*
X-482952Y-199212D01*
X-482831Y-199184D01*
X-482711Y-199153D01*
X-482591Y-199118D01*
X-482473Y-199080D01*
X-482356Y-199038D01*
X-482241Y-198992D01*
X-482126Y-198943D01*
X-482014Y-198891D01*
X-481902Y-198835D01*
X-481793Y-198776D01*
X-481686Y-198713D01*
X-489698Y-198191D02*
X-491786Y-190881D01*
X-489698Y-198191D02*
X-494919Y-198191D01*
X-493353Y-196102D02*
X-493353Y-200279D01*
D12*
X-89459Y393700D02*
X-89459Y466852D01*
X-89459Y393700D02*
X89459Y393700D01*
X89459Y466852D01*
X-89459Y466852D01*
D13*
X-2424Y367919D02*
X-2424Y361132D01*
X-2426Y361031D01*
X-2432Y360930D01*
X-2442Y360829D01*
X-2455Y360729D01*
X-2473Y360629D01*
X-2494Y360530D01*
X-2520Y360432D01*
X-2549Y360335D01*
X-2581Y360239D01*
X-2618Y360145D01*
X-2658Y360052D01*
X-2702Y359960D01*
X-2749Y359871D01*
X-2800Y359783D01*
X-2854Y359697D01*
X-2911Y359614D01*
X-2971Y359532D01*
X-3035Y359454D01*
X-3101Y359377D01*
X-3171Y359304D01*
X-3243Y359233D01*
X-3318Y359165D01*
X-3396Y359100D01*
X-3476Y359038D01*
X-3558Y358979D01*
X-3643Y358923D01*
X-3730Y358871D01*
X-3818Y358822D01*
X-3909Y358776D01*
X-4001Y358735D01*
X-4095Y358696D01*
X-4190Y358662D01*
X-4286Y358631D01*
X-4384Y358604D01*
X-4482Y358580D01*
X-4582Y358561D01*
X-4682Y358545D01*
X-4782Y358533D01*
X-4883Y358525D01*
X-4984Y358521D01*
X-5086Y358521D01*
X-5187Y358525D01*
X-5288Y358533D01*
X-5388Y358545D01*
X-5488Y358561D01*
X-5588Y358580D01*
X-5686Y358604D01*
X-5784Y358631D01*
X-5880Y358662D01*
X-5975Y358696D01*
X-6069Y358735D01*
X-6161Y358776D01*
X-6252Y358822D01*
X-6341Y358871D01*
X-6427Y358923D01*
X-6512Y358979D01*
X-6594Y359038D01*
X-6674Y359100D01*
X-6752Y359165D01*
X-6827Y359233D01*
X-6899Y359304D01*
X-6969Y359377D01*
X-7035Y359454D01*
X-7099Y359532D01*
X-7159Y359614D01*
X-7216Y359697D01*
X-7270Y359783D01*
X-7321Y359871D01*
X-7368Y359960D01*
X-7412Y360052D01*
X-7452Y360145D01*
X-7489Y360239D01*
X-7521Y360335D01*
X-7550Y360432D01*
X-7576Y360530D01*
X-7597Y360629D01*
X-7615Y360729D01*
X-7628Y360829D01*
X-7638Y360930D01*
X-7644Y361031D01*
X-7646Y361132D01*
X-7645Y361132D02*
X-7645Y367919D01*
X-13874Y367919D02*
X-13874Y358521D01*
X-13874Y363220D02*
X-12569Y364003D01*
X-12568Y364003D02*
X-12503Y364045D01*
X-12440Y364089D01*
X-12380Y364136D01*
X-12321Y364187D01*
X-12266Y364240D01*
X-12213Y364296D01*
X-12163Y364355D01*
X-12115Y364415D01*
X-12071Y364479D01*
X-12030Y364544D01*
X-11992Y364611D01*
X-11958Y364680D01*
X-11927Y364750D01*
X-11900Y364823D01*
X-11876Y364896D01*
X-11856Y364970D01*
X-11839Y365045D01*
X-11827Y365121D01*
X-11818Y365198D01*
X-11812Y365275D01*
X-11811Y365352D01*
X-11813Y365429D01*
X-11820Y365506D01*
X-11830Y365582D01*
X-11844Y365658D01*
X-11861Y365733D01*
X-11882Y365807D01*
X-11907Y365880D01*
X-11935Y365952D01*
X-11967Y366022D01*
X-12003Y366090D01*
X-12041Y366157D01*
X-12083Y366221D01*
X-12128Y366284D01*
X-12176Y366344D01*
X-12227Y366402D01*
X-12281Y366457D01*
X-12338Y366510D01*
X-12397Y366559D01*
X-12458Y366606D01*
X-12521Y366649D01*
X-12587Y366690D01*
X-12655Y366727D01*
X-12724Y366760D01*
X-12795Y366791D01*
X-12867Y366817D01*
X-12941Y366840D01*
X-13015Y366860D01*
X-13091Y366876D01*
X-13090Y366876D02*
X-13213Y366896D01*
X-13336Y366913D01*
X-13460Y366926D01*
X-13584Y366935D01*
X-13708Y366941D01*
X-13832Y366943D01*
X-13956Y366941D01*
X-14081Y366936D01*
X-14205Y366926D01*
X-14328Y366913D01*
X-14451Y366897D01*
X-14574Y366876D01*
X-14696Y366852D01*
X-14817Y366824D01*
X-14937Y366793D01*
X-15057Y366758D01*
X-15175Y366720D01*
X-15292Y366678D01*
X-15407Y366632D01*
X-15522Y366583D01*
X-15634Y366531D01*
X-15746Y366475D01*
X-15855Y366416D01*
X-15962Y366353D01*
X-13874Y363220D02*
X-15179Y362437D01*
X-15180Y362437D02*
X-15245Y362395D01*
X-15308Y362351D01*
X-15368Y362304D01*
X-15427Y362253D01*
X-15482Y362200D01*
X-15535Y362144D01*
X-15585Y362085D01*
X-15633Y362025D01*
X-15677Y361961D01*
X-15718Y361896D01*
X-15756Y361829D01*
X-15790Y361760D01*
X-15821Y361690D01*
X-15848Y361617D01*
X-15872Y361544D01*
X-15892Y361470D01*
X-15909Y361395D01*
X-15921Y361319D01*
X-15930Y361242D01*
X-15936Y361165D01*
X-15937Y361088D01*
X-15935Y361011D01*
X-15928Y360934D01*
X-15918Y360858D01*
X-15904Y360782D01*
X-15887Y360707D01*
X-15866Y360633D01*
X-15841Y360560D01*
X-15813Y360488D01*
X-15781Y360418D01*
X-15745Y360350D01*
X-15707Y360283D01*
X-15665Y360219D01*
X-15620Y360156D01*
X-15572Y360096D01*
X-15521Y360038D01*
X-15467Y359983D01*
X-15410Y359930D01*
X-15351Y359881D01*
X-15290Y359834D01*
X-15227Y359791D01*
X-15161Y359750D01*
X-15093Y359713D01*
X-15024Y359680D01*
X-14953Y359649D01*
X-14881Y359623D01*
X-14807Y359600D01*
X-14733Y359580D01*
X-14657Y359564D01*
X-14657Y359565D02*
X-14535Y359545D01*
X-14412Y359528D01*
X-14288Y359515D01*
X-14164Y359506D01*
X-14040Y359500D01*
X-13916Y359498D01*
X-13792Y359500D01*
X-13667Y359505D01*
X-13543Y359515D01*
X-13420Y359528D01*
X-13297Y359544D01*
X-13174Y359565D01*
X-13052Y359589D01*
X-12931Y359616D01*
X-12811Y359648D01*
X-12692Y359683D01*
X-12573Y359721D01*
X-12457Y359763D01*
X-12341Y359809D01*
X-12227Y359858D01*
X-12114Y359910D01*
X-12003Y359966D01*
X-11894Y360025D01*
X-11786Y360087D01*
X-19798Y358521D02*
X-22931Y358521D01*
X-23020Y358523D01*
X-23108Y358529D01*
X-23196Y358538D01*
X-23284Y358551D01*
X-23371Y358568D01*
X-23457Y358588D01*
X-23542Y358613D01*
X-23627Y358640D01*
X-23710Y358672D01*
X-23791Y358706D01*
X-23871Y358745D01*
X-23949Y358786D01*
X-24026Y358831D01*
X-24100Y358879D01*
X-24173Y358930D01*
X-24243Y358984D01*
X-24310Y359042D01*
X-24376Y359102D01*
X-24438Y359164D01*
X-24498Y359230D01*
X-24556Y359297D01*
X-24610Y359367D01*
X-24661Y359440D01*
X-24709Y359514D01*
X-24754Y359591D01*
X-24795Y359669D01*
X-24834Y359749D01*
X-24868Y359830D01*
X-24900Y359913D01*
X-24927Y359998D01*
X-24952Y360083D01*
X-24972Y360169D01*
X-24989Y360256D01*
X-25002Y360344D01*
X-25011Y360432D01*
X-25017Y360520D01*
X-25019Y360609D01*
X-25019Y361654D01*
X-25017Y361743D01*
X-25011Y361831D01*
X-25002Y361919D01*
X-24989Y362007D01*
X-24972Y362094D01*
X-24952Y362180D01*
X-24927Y362265D01*
X-24900Y362350D01*
X-24868Y362433D01*
X-24834Y362514D01*
X-24795Y362594D01*
X-24754Y362672D01*
X-24709Y362749D01*
X-24661Y362823D01*
X-24610Y362896D01*
X-24556Y362966D01*
X-24498Y363033D01*
X-24438Y363099D01*
X-24376Y363161D01*
X-24310Y363221D01*
X-24243Y363279D01*
X-24173Y363333D01*
X-24100Y363384D01*
X-24026Y363432D01*
X-23949Y363477D01*
X-23871Y363518D01*
X-23791Y363557D01*
X-23710Y363591D01*
X-23627Y363623D01*
X-23542Y363650D01*
X-23457Y363675D01*
X-23371Y363695D01*
X-23284Y363712D01*
X-23196Y363725D01*
X-23108Y363734D01*
X-23020Y363740D01*
X-22931Y363742D01*
X-19798Y363742D01*
X-19798Y367919D01*
X-25019Y367919D01*
D14*
X210900Y31400D02*
X300900Y31400D01*
X210900Y31400D02*
X210900Y146400D01*
X300900Y146400D01*
X300900Y31400D01*
D10*
X204342Y31608D02*
X192658Y35503D01*
X204342Y39397D01*
X204342Y44142D02*
X192658Y44142D01*
X204342Y44142D02*
X204342Y47387D01*
X204340Y47500D01*
X204334Y47613D01*
X204324Y47726D01*
X204310Y47839D01*
X204293Y47951D01*
X204271Y48062D01*
X204246Y48172D01*
X204216Y48282D01*
X204183Y48390D01*
X204146Y48497D01*
X204106Y48603D01*
X204061Y48707D01*
X204013Y48810D01*
X203962Y48911D01*
X203907Y49010D01*
X203849Y49107D01*
X203787Y49202D01*
X203722Y49295D01*
X203654Y49385D01*
X203583Y49473D01*
X203508Y49559D01*
X203431Y49642D01*
X203351Y49722D01*
X203268Y49799D01*
X203182Y49874D01*
X203094Y49945D01*
X203004Y50013D01*
X202911Y50078D01*
X202816Y50140D01*
X202719Y50198D01*
X202620Y50253D01*
X202519Y50304D01*
X202416Y50352D01*
X202312Y50397D01*
X202206Y50437D01*
X202099Y50474D01*
X201991Y50507D01*
X201881Y50537D01*
X201771Y50562D01*
X201660Y50584D01*
X201548Y50601D01*
X201435Y50615D01*
X201322Y50625D01*
X201209Y50631D01*
X201096Y50633D01*
X200983Y50631D01*
X200870Y50625D01*
X200757Y50615D01*
X200644Y50601D01*
X200532Y50584D01*
X200421Y50562D01*
X200311Y50537D01*
X200201Y50507D01*
X200093Y50474D01*
X199986Y50437D01*
X199880Y50397D01*
X199776Y50352D01*
X199673Y50304D01*
X199572Y50253D01*
X199473Y50198D01*
X199376Y50140D01*
X199281Y50078D01*
X199188Y50013D01*
X199098Y49945D01*
X199010Y49874D01*
X198924Y49799D01*
X198841Y49722D01*
X198761Y49642D01*
X198684Y49559D01*
X198609Y49473D01*
X198538Y49385D01*
X198470Y49295D01*
X198405Y49202D01*
X198343Y49107D01*
X198285Y49010D01*
X198230Y48911D01*
X198179Y48810D01*
X198131Y48707D01*
X198086Y48603D01*
X198046Y48497D01*
X198009Y48390D01*
X197976Y48282D01*
X197946Y48172D01*
X197921Y48062D01*
X197899Y47951D01*
X197882Y47839D01*
X197868Y47726D01*
X197858Y47613D01*
X197852Y47500D01*
X197850Y47387D01*
X197851Y47387D02*
X197851Y44142D01*
X197851Y48036D02*
X192658Y50633D01*
X192658Y55902D02*
X192658Y61095D01*
X192658Y55902D02*
X204342Y55902D01*
X204342Y61095D01*
X199149Y59796D02*
X199149Y55902D01*
X199149Y70329D02*
X199149Y72276D01*
X192658Y72276D01*
X192658Y68382D01*
X192660Y68283D01*
X192666Y68183D01*
X192675Y68084D01*
X192688Y67986D01*
X192705Y67888D01*
X192726Y67790D01*
X192751Y67694D01*
X192779Y67599D01*
X192811Y67505D01*
X192846Y67412D01*
X192885Y67320D01*
X192928Y67230D01*
X192973Y67142D01*
X193023Y67055D01*
X193075Y66971D01*
X193131Y66888D01*
X193189Y66808D01*
X193251Y66730D01*
X193316Y66655D01*
X193384Y66582D01*
X193454Y66512D01*
X193527Y66444D01*
X193602Y66379D01*
X193680Y66317D01*
X193760Y66259D01*
X193843Y66203D01*
X193927Y66151D01*
X194014Y66101D01*
X194102Y66056D01*
X194192Y66013D01*
X194284Y65974D01*
X194377Y65939D01*
X194471Y65907D01*
X194566Y65879D01*
X194662Y65854D01*
X194760Y65833D01*
X194858Y65816D01*
X194956Y65803D01*
X195055Y65794D01*
X195155Y65788D01*
X195254Y65786D01*
X195254Y65785D02*
X201746Y65785D01*
X201746Y65786D02*
X201845Y65788D01*
X201945Y65794D01*
X202044Y65803D01*
X202142Y65816D01*
X202240Y65833D01*
X202338Y65854D01*
X202434Y65879D01*
X202529Y65907D01*
X202623Y65939D01*
X202716Y65974D01*
X202808Y66013D01*
X202898Y66056D01*
X202986Y66101D01*
X203073Y66151D01*
X203157Y66203D01*
X203240Y66259D01*
X203320Y66317D01*
X203398Y66379D01*
X203473Y66444D01*
X203546Y66512D01*
X203616Y66582D01*
X203684Y66655D01*
X203749Y66730D01*
X203811Y66808D01*
X203869Y66888D01*
X203925Y66971D01*
X203977Y67055D01*
X204027Y67142D01*
X204072Y67230D01*
X204115Y67320D01*
X204154Y67412D01*
X204189Y67504D01*
X204221Y67599D01*
X204249Y67694D01*
X204274Y67790D01*
X204295Y67888D01*
X204312Y67986D01*
X204325Y68084D01*
X204334Y68183D01*
X204340Y68283D01*
X204342Y68382D01*
X204342Y72276D01*
X197202Y77709D02*
X197202Y85498D01*
X192658Y90550D02*
X192658Y94445D01*
X192660Y94544D01*
X192666Y94644D01*
X192675Y94743D01*
X192688Y94841D01*
X192705Y94939D01*
X192726Y95037D01*
X192751Y95133D01*
X192779Y95228D01*
X192811Y95322D01*
X192846Y95415D01*
X192885Y95507D01*
X192928Y95597D01*
X192973Y95685D01*
X193023Y95772D01*
X193075Y95856D01*
X193131Y95939D01*
X193189Y96019D01*
X193251Y96097D01*
X193316Y96172D01*
X193384Y96245D01*
X193454Y96315D01*
X193527Y96383D01*
X193602Y96448D01*
X193680Y96510D01*
X193760Y96568D01*
X193843Y96624D01*
X193927Y96676D01*
X194014Y96726D01*
X194102Y96771D01*
X194192Y96814D01*
X194284Y96853D01*
X194377Y96888D01*
X194471Y96920D01*
X194566Y96948D01*
X194662Y96973D01*
X194760Y96994D01*
X194858Y97011D01*
X194956Y97024D01*
X195055Y97033D01*
X195155Y97039D01*
X195254Y97041D01*
X196553Y97041D01*
X196652Y97039D01*
X196752Y97033D01*
X196851Y97024D01*
X196949Y97011D01*
X197047Y96994D01*
X197145Y96973D01*
X197241Y96948D01*
X197336Y96920D01*
X197430Y96888D01*
X197523Y96853D01*
X197615Y96814D01*
X197705Y96771D01*
X197793Y96726D01*
X197880Y96676D01*
X197964Y96624D01*
X198047Y96568D01*
X198127Y96510D01*
X198205Y96448D01*
X198280Y96383D01*
X198353Y96315D01*
X198423Y96245D01*
X198491Y96172D01*
X198556Y96097D01*
X198618Y96019D01*
X198676Y95939D01*
X198732Y95856D01*
X198784Y95772D01*
X198834Y95685D01*
X198879Y95597D01*
X198922Y95507D01*
X198961Y95415D01*
X198996Y95322D01*
X199028Y95228D01*
X199056Y95133D01*
X199081Y95037D01*
X199102Y94939D01*
X199119Y94841D01*
X199132Y94743D01*
X199141Y94644D01*
X199147Y94544D01*
X199149Y94445D01*
X199149Y90550D01*
X204342Y90550D01*
X204342Y97041D01*
D14*
X-493250Y275300D02*
X-493250Y300800D01*
X-493250Y308800D01*
X-493250Y334300D01*
X-448250Y334300D02*
X-448250Y275300D01*
X-448250Y334300D02*
X-470250Y334300D01*
X-479250Y334300D01*
X-493250Y334300D01*
X-470250Y275300D02*
X-448250Y275300D01*
X-470250Y275300D02*
X-479250Y275300D01*
X-493250Y275300D01*
X-454250Y281300D02*
X-454250Y328300D01*
X-454250Y281300D02*
X-470250Y281300D01*
X-479250Y281300D01*
X-487250Y281300D01*
X-487250Y300800D01*
X-470250Y328300D02*
X-454250Y328300D01*
X-470250Y328300D02*
X-479250Y328300D01*
X-487250Y328300D01*
X-479250Y281300D02*
X-479250Y275300D01*
X-470250Y275300D02*
X-470250Y281300D01*
X-470250Y328300D02*
X-470250Y334300D01*
X-479250Y334300D02*
X-479250Y328300D01*
X-487250Y328300D02*
X-487250Y308800D01*
X-493250Y308800D01*
X-493250Y300800D02*
X-487250Y300800D01*
D10*
X-440741Y275308D02*
X-429057Y275308D01*
X-429057Y278554D01*
X-429059Y278667D01*
X-429065Y278780D01*
X-429075Y278893D01*
X-429089Y279006D01*
X-429106Y279118D01*
X-429128Y279229D01*
X-429153Y279339D01*
X-429183Y279449D01*
X-429216Y279557D01*
X-429253Y279664D01*
X-429293Y279770D01*
X-429338Y279874D01*
X-429386Y279977D01*
X-429437Y280078D01*
X-429492Y280177D01*
X-429550Y280274D01*
X-429612Y280369D01*
X-429677Y280462D01*
X-429745Y280552D01*
X-429816Y280640D01*
X-429891Y280726D01*
X-429968Y280809D01*
X-430048Y280889D01*
X-430131Y280966D01*
X-430217Y281041D01*
X-430305Y281112D01*
X-430395Y281180D01*
X-430488Y281245D01*
X-430583Y281307D01*
X-430680Y281365D01*
X-430779Y281420D01*
X-430880Y281471D01*
X-430983Y281519D01*
X-431087Y281564D01*
X-431193Y281604D01*
X-431300Y281641D01*
X-431408Y281674D01*
X-431518Y281704D01*
X-431628Y281729D01*
X-431739Y281751D01*
X-431851Y281768D01*
X-431964Y281782D01*
X-432077Y281792D01*
X-432190Y281798D01*
X-432303Y281800D01*
X-432416Y281798D01*
X-432529Y281792D01*
X-432642Y281782D01*
X-432755Y281768D01*
X-432867Y281751D01*
X-432978Y281729D01*
X-433088Y281704D01*
X-433198Y281674D01*
X-433306Y281641D01*
X-433413Y281604D01*
X-433519Y281564D01*
X-433623Y281519D01*
X-433726Y281471D01*
X-433827Y281420D01*
X-433926Y281365D01*
X-434023Y281307D01*
X-434118Y281245D01*
X-434211Y281180D01*
X-434301Y281112D01*
X-434389Y281041D01*
X-434475Y280966D01*
X-434558Y280889D01*
X-434638Y280809D01*
X-434715Y280726D01*
X-434790Y280640D01*
X-434861Y280552D01*
X-434929Y280462D01*
X-434994Y280369D01*
X-435056Y280274D01*
X-435114Y280177D01*
X-435169Y280078D01*
X-435220Y279977D01*
X-435268Y279874D01*
X-435313Y279770D01*
X-435353Y279664D01*
X-435390Y279557D01*
X-435423Y279449D01*
X-435453Y279339D01*
X-435478Y279229D01*
X-435500Y279118D01*
X-435517Y279006D01*
X-435531Y278893D01*
X-435541Y278780D01*
X-435547Y278667D01*
X-435549Y278554D01*
X-435548Y278554D02*
X-435548Y275308D01*
X-431653Y286188D02*
X-429057Y289433D01*
X-440741Y289433D01*
X-440741Y286188D02*
X-440741Y292679D01*
X-499057Y317555D02*
X-501653Y314309D01*
X-499057Y317555D02*
X-510741Y317555D01*
X-510741Y320800D02*
X-510741Y314309D01*
D11*
X-459740Y83820D02*
X-459728Y84817D01*
X-459691Y85814D01*
X-459630Y86810D01*
X-459544Y87803D01*
X-459434Y88795D01*
X-459300Y89783D01*
X-459142Y90768D01*
X-458959Y91748D01*
X-458753Y92724D01*
X-458522Y93695D01*
X-458268Y94659D01*
X-457990Y95617D01*
X-457689Y96568D01*
X-457364Y97511D01*
X-457017Y98446D01*
X-456646Y99372D01*
X-456253Y100289D01*
X-455838Y101196D01*
X-455401Y102092D01*
X-454941Y102978D01*
X-454460Y103851D01*
X-453958Y104713D01*
X-453435Y105562D01*
X-452891Y106398D01*
X-452327Y107221D01*
X-451742Y108029D01*
X-451138Y108823D01*
X-450515Y109602D01*
X-449873Y110365D01*
X-449212Y111112D01*
X-448533Y111843D01*
X-447837Y112557D01*
X-447123Y113253D01*
X-446392Y113932D01*
X-445645Y114593D01*
X-444882Y115235D01*
X-444103Y115858D01*
X-443309Y116462D01*
X-442501Y117047D01*
X-441678Y117611D01*
X-440842Y118155D01*
X-439993Y118678D01*
X-439131Y119180D01*
X-438258Y119661D01*
X-437372Y120121D01*
X-436476Y120558D01*
X-435569Y120973D01*
X-434652Y121366D01*
X-433726Y121737D01*
X-432791Y122084D01*
X-431848Y122409D01*
X-430897Y122710D01*
X-429939Y122988D01*
X-428975Y123242D01*
X-428004Y123473D01*
X-427028Y123679D01*
X-426048Y123862D01*
X-425063Y124020D01*
X-424075Y124154D01*
X-423083Y124264D01*
X-422090Y124350D01*
X-421094Y124411D01*
X-420097Y124448D01*
X-419100Y124460D01*
X-418103Y124448D01*
X-417106Y124411D01*
X-416110Y124350D01*
X-415117Y124264D01*
X-414125Y124154D01*
X-413137Y124020D01*
X-412152Y123862D01*
X-411172Y123679D01*
X-410196Y123473D01*
X-409225Y123242D01*
X-408261Y122988D01*
X-407303Y122710D01*
X-406352Y122409D01*
X-405409Y122084D01*
X-404474Y121737D01*
X-403548Y121366D01*
X-402631Y120973D01*
X-401724Y120558D01*
X-400828Y120121D01*
X-399942Y119661D01*
X-399069Y119180D01*
X-398207Y118678D01*
X-397358Y118155D01*
X-396522Y117611D01*
X-395699Y117047D01*
X-394891Y116462D01*
X-394097Y115858D01*
X-393318Y115235D01*
X-392555Y114593D01*
X-391808Y113932D01*
X-391077Y113253D01*
X-390363Y112557D01*
X-389667Y111843D01*
X-388988Y111112D01*
X-388327Y110365D01*
X-387685Y109602D01*
X-387062Y108823D01*
X-386458Y108029D01*
X-385873Y107221D01*
X-385309Y106398D01*
X-384765Y105562D01*
X-384242Y104713D01*
X-383740Y103851D01*
X-383259Y102978D01*
X-382799Y102092D01*
X-382362Y101196D01*
X-381947Y100289D01*
X-381554Y99372D01*
X-381183Y98446D01*
X-380836Y97511D01*
X-380511Y96568D01*
X-380210Y95617D01*
X-379932Y94659D01*
X-379678Y93695D01*
X-379447Y92724D01*
X-379241Y91748D01*
X-379058Y90768D01*
X-378900Y89783D01*
X-378766Y88795D01*
X-378656Y87803D01*
X-378570Y86810D01*
X-378509Y85814D01*
X-378472Y84817D01*
X-378460Y83820D01*
X-378472Y82823D01*
X-378509Y81826D01*
X-378570Y80830D01*
X-378656Y79837D01*
X-378766Y78845D01*
X-378900Y77857D01*
X-379058Y76872D01*
X-379241Y75892D01*
X-379447Y74916D01*
X-379678Y73945D01*
X-379932Y72981D01*
X-380210Y72023D01*
X-380511Y71072D01*
X-380836Y70129D01*
X-381183Y69194D01*
X-381554Y68268D01*
X-381947Y67351D01*
X-382362Y66444D01*
X-382799Y65548D01*
X-383259Y64662D01*
X-383740Y63789D01*
X-384242Y62927D01*
X-384765Y62078D01*
X-385309Y61242D01*
X-385873Y60419D01*
X-386458Y59611D01*
X-387062Y58817D01*
X-387685Y58038D01*
X-388327Y57275D01*
X-388988Y56528D01*
X-389667Y55797D01*
X-390363Y55083D01*
X-391077Y54387D01*
X-391808Y53708D01*
X-392555Y53047D01*
X-393318Y52405D01*
X-394097Y51782D01*
X-394891Y51178D01*
X-395699Y50593D01*
X-396522Y50029D01*
X-397358Y49485D01*
X-398207Y48962D01*
X-399069Y48460D01*
X-399942Y47979D01*
X-400828Y47519D01*
X-401724Y47082D01*
X-402631Y46667D01*
X-403548Y46274D01*
X-404474Y45903D01*
X-405409Y45556D01*
X-406352Y45231D01*
X-407303Y44930D01*
X-408261Y44652D01*
X-409225Y44398D01*
X-410196Y44167D01*
X-411172Y43961D01*
X-412152Y43778D01*
X-413137Y43620D01*
X-414125Y43486D01*
X-415117Y43376D01*
X-416110Y43290D01*
X-417106Y43229D01*
X-418103Y43192D01*
X-419100Y43180D01*
X-420097Y43192D01*
X-421094Y43229D01*
X-422090Y43290D01*
X-423083Y43376D01*
X-424075Y43486D01*
X-425063Y43620D01*
X-426048Y43778D01*
X-427028Y43961D01*
X-428004Y44167D01*
X-428975Y44398D01*
X-429939Y44652D01*
X-430897Y44930D01*
X-431848Y45231D01*
X-432791Y45556D01*
X-433726Y45903D01*
X-434652Y46274D01*
X-435569Y46667D01*
X-436476Y47082D01*
X-437372Y47519D01*
X-438258Y47979D01*
X-439131Y48460D01*
X-439993Y48962D01*
X-440842Y49485D01*
X-441678Y50029D01*
X-442501Y50593D01*
X-443309Y51178D01*
X-444103Y51782D01*
X-444882Y52405D01*
X-445645Y53047D01*
X-446392Y53708D01*
X-447123Y54387D01*
X-447837Y55083D01*
X-448533Y55797D01*
X-449212Y56528D01*
X-449873Y57275D01*
X-450515Y58038D01*
X-451138Y58817D01*
X-451742Y59611D01*
X-452327Y60419D01*
X-452891Y61242D01*
X-453435Y62078D01*
X-453958Y62927D01*
X-454460Y63789D01*
X-454941Y64662D01*
X-455401Y65548D01*
X-455838Y66444D01*
X-456253Y67351D01*
X-456646Y68268D01*
X-457017Y69194D01*
X-457364Y70129D01*
X-457689Y71072D01*
X-457990Y72023D01*
X-458268Y72981D01*
X-458522Y73945D01*
X-458753Y74916D01*
X-458959Y75892D01*
X-459142Y76872D01*
X-459300Y77857D01*
X-459434Y78845D01*
X-459544Y79837D01*
X-459630Y80830D01*
X-459691Y81826D01*
X-459728Y82823D01*
X-459740Y83820D01*
X-430530Y110490D02*
X-430530Y118110D01*
X-426720Y114300D02*
X-434340Y114300D01*
D14*
X-580880Y97600D02*
X-580880Y72100D01*
X-580880Y97600D02*
X-580880Y105600D01*
X-580880Y131100D01*
X-535880Y131100D02*
X-535880Y72100D01*
X-535880Y131100D02*
X-557880Y131100D01*
X-566880Y131100D01*
X-580880Y131100D01*
X-557880Y72100D02*
X-535880Y72100D01*
X-557880Y72100D02*
X-566880Y72100D01*
X-580880Y72100D01*
X-541880Y78100D02*
X-541880Y125100D01*
X-541880Y78100D02*
X-557880Y78100D01*
X-566880Y78100D01*
X-574880Y78100D01*
X-574880Y97600D01*
X-557880Y125100D02*
X-541880Y125100D01*
X-557880Y125100D02*
X-566880Y125100D01*
X-574880Y125100D01*
X-566880Y78100D02*
X-566880Y72100D01*
X-557880Y72100D02*
X-557880Y78100D01*
X-557880Y125100D02*
X-557880Y131100D01*
X-566880Y131100D02*
X-566880Y125100D01*
X-574880Y125100D02*
X-574880Y105600D01*
X-580880Y105600D01*
X-580880Y97600D02*
X-574880Y97600D01*
D10*
X-528371Y72108D02*
X-516687Y72108D01*
X-516687Y75354D01*
X-516689Y75467D01*
X-516695Y75580D01*
X-516705Y75693D01*
X-516719Y75806D01*
X-516736Y75918D01*
X-516758Y76029D01*
X-516783Y76139D01*
X-516813Y76249D01*
X-516846Y76357D01*
X-516883Y76464D01*
X-516923Y76570D01*
X-516968Y76674D01*
X-517016Y76777D01*
X-517067Y76878D01*
X-517122Y76977D01*
X-517180Y77074D01*
X-517242Y77169D01*
X-517307Y77262D01*
X-517375Y77352D01*
X-517446Y77440D01*
X-517521Y77526D01*
X-517598Y77609D01*
X-517678Y77689D01*
X-517761Y77766D01*
X-517847Y77841D01*
X-517935Y77912D01*
X-518025Y77980D01*
X-518118Y78045D01*
X-518213Y78107D01*
X-518310Y78165D01*
X-518409Y78220D01*
X-518510Y78271D01*
X-518613Y78319D01*
X-518717Y78364D01*
X-518823Y78404D01*
X-518930Y78441D01*
X-519038Y78474D01*
X-519148Y78504D01*
X-519258Y78529D01*
X-519369Y78551D01*
X-519481Y78568D01*
X-519594Y78582D01*
X-519707Y78592D01*
X-519820Y78598D01*
X-519933Y78600D01*
X-520046Y78598D01*
X-520159Y78592D01*
X-520272Y78582D01*
X-520385Y78568D01*
X-520497Y78551D01*
X-520608Y78529D01*
X-520718Y78504D01*
X-520828Y78474D01*
X-520936Y78441D01*
X-521043Y78404D01*
X-521149Y78364D01*
X-521253Y78319D01*
X-521356Y78271D01*
X-521457Y78220D01*
X-521556Y78165D01*
X-521653Y78107D01*
X-521748Y78045D01*
X-521841Y77980D01*
X-521931Y77912D01*
X-522019Y77841D01*
X-522105Y77766D01*
X-522188Y77689D01*
X-522268Y77609D01*
X-522345Y77526D01*
X-522420Y77440D01*
X-522491Y77352D01*
X-522559Y77262D01*
X-522624Y77169D01*
X-522686Y77074D01*
X-522744Y76977D01*
X-522799Y76878D01*
X-522850Y76777D01*
X-522898Y76674D01*
X-522943Y76570D01*
X-522983Y76464D01*
X-523020Y76357D01*
X-523053Y76249D01*
X-523083Y76139D01*
X-523108Y76029D01*
X-523130Y75918D01*
X-523147Y75806D01*
X-523161Y75693D01*
X-523171Y75580D01*
X-523177Y75467D01*
X-523179Y75354D01*
X-523178Y75354D02*
X-523178Y72108D01*
X-516687Y86558D02*
X-516689Y86665D01*
X-516695Y86771D01*
X-516705Y86877D01*
X-516718Y86983D01*
X-516736Y87089D01*
X-516757Y87193D01*
X-516782Y87297D01*
X-516811Y87400D01*
X-516843Y87501D01*
X-516880Y87601D01*
X-516920Y87700D01*
X-516963Y87798D01*
X-517010Y87894D01*
X-517061Y87988D01*
X-517115Y88080D01*
X-517172Y88170D01*
X-517232Y88258D01*
X-517296Y88343D01*
X-517363Y88426D01*
X-517433Y88507D01*
X-517505Y88585D01*
X-517581Y88661D01*
X-517659Y88733D01*
X-517740Y88803D01*
X-517823Y88870D01*
X-517908Y88934D01*
X-517996Y88994D01*
X-518086Y89051D01*
X-518178Y89105D01*
X-518272Y89156D01*
X-518368Y89203D01*
X-518466Y89246D01*
X-518565Y89286D01*
X-518665Y89323D01*
X-518766Y89355D01*
X-518869Y89384D01*
X-518973Y89409D01*
X-519077Y89430D01*
X-519183Y89448D01*
X-519289Y89461D01*
X-519395Y89471D01*
X-519501Y89477D01*
X-519608Y89479D01*
X-516687Y86558D02*
X-516689Y86437D01*
X-516695Y86316D01*
X-516705Y86196D01*
X-516718Y86075D01*
X-516736Y85956D01*
X-516757Y85836D01*
X-516782Y85718D01*
X-516811Y85601D01*
X-516844Y85484D01*
X-516880Y85369D01*
X-516921Y85255D01*
X-516964Y85142D01*
X-517012Y85030D01*
X-517063Y84921D01*
X-517118Y84813D01*
X-517176Y84706D01*
X-517237Y84602D01*
X-517302Y84500D01*
X-517370Y84400D01*
X-517441Y84302D01*
X-517515Y84206D01*
X-517592Y84113D01*
X-517673Y84023D01*
X-517756Y83935D01*
X-517842Y83850D01*
X-517931Y83767D01*
X-518022Y83688D01*
X-518116Y83611D01*
X-518212Y83538D01*
X-518310Y83468D01*
X-518411Y83401D01*
X-518514Y83337D01*
X-518619Y83277D01*
X-518726Y83219D01*
X-518834Y83166D01*
X-518944Y83116D01*
X-519056Y83070D01*
X-519169Y83027D01*
X-519284Y82988D01*
X-521880Y88504D02*
X-521802Y88583D01*
X-521722Y88659D01*
X-521639Y88732D01*
X-521553Y88802D01*
X-521466Y88869D01*
X-521375Y88933D01*
X-521283Y88993D01*
X-521189Y89051D01*
X-521092Y89105D01*
X-520994Y89155D01*
X-520894Y89202D01*
X-520793Y89246D01*
X-520690Y89286D01*
X-520585Y89322D01*
X-520480Y89354D01*
X-520373Y89383D01*
X-520266Y89408D01*
X-520157Y89430D01*
X-520048Y89447D01*
X-519939Y89461D01*
X-519829Y89470D01*
X-519718Y89476D01*
X-519608Y89478D01*
X-521880Y88505D02*
X-528371Y82988D01*
X-528371Y89479D01*
X-586687Y114355D02*
X-589283Y111109D01*
X-586687Y114355D02*
X-598371Y114355D01*
X-598371Y117600D02*
X-598371Y111109D01*
D14*
X-340850Y-359600D02*
X-340850Y-385100D01*
X-340850Y-359600D02*
X-340850Y-351600D01*
X-340850Y-326100D01*
X-295850Y-326100D02*
X-295850Y-385100D01*
X-295850Y-326100D02*
X-317850Y-326100D01*
X-326850Y-326100D01*
X-340850Y-326100D01*
X-317850Y-385100D02*
X-295850Y-385100D01*
X-317850Y-385100D02*
X-326850Y-385100D01*
X-340850Y-385100D01*
X-301850Y-379100D02*
X-301850Y-332100D01*
X-301850Y-379100D02*
X-317850Y-379100D01*
X-326850Y-379100D01*
X-334850Y-379100D01*
X-334850Y-359600D01*
X-317850Y-332100D02*
X-301850Y-332100D01*
X-317850Y-332100D02*
X-326850Y-332100D01*
X-334850Y-332100D01*
X-326850Y-379100D02*
X-326850Y-385100D01*
X-317850Y-385100D02*
X-317850Y-379100D01*
X-317850Y-332100D02*
X-317850Y-326100D01*
X-326850Y-326100D02*
X-326850Y-332100D01*
X-334850Y-332100D02*
X-334850Y-351600D01*
X-340850Y-351600D01*
X-340850Y-359600D02*
X-334850Y-359600D01*
D10*
X-288341Y-385092D02*
X-276657Y-385092D01*
X-276657Y-381846D01*
X-276659Y-381733D01*
X-276665Y-381620D01*
X-276675Y-381507D01*
X-276689Y-381394D01*
X-276706Y-381282D01*
X-276728Y-381171D01*
X-276753Y-381061D01*
X-276783Y-380951D01*
X-276816Y-380843D01*
X-276853Y-380736D01*
X-276893Y-380630D01*
X-276938Y-380526D01*
X-276986Y-380423D01*
X-277037Y-380322D01*
X-277092Y-380223D01*
X-277150Y-380126D01*
X-277212Y-380031D01*
X-277277Y-379938D01*
X-277345Y-379848D01*
X-277416Y-379760D01*
X-277491Y-379674D01*
X-277568Y-379591D01*
X-277648Y-379511D01*
X-277731Y-379434D01*
X-277817Y-379359D01*
X-277905Y-379288D01*
X-277995Y-379220D01*
X-278088Y-379155D01*
X-278183Y-379093D01*
X-278280Y-379035D01*
X-278379Y-378980D01*
X-278480Y-378929D01*
X-278583Y-378881D01*
X-278687Y-378836D01*
X-278793Y-378796D01*
X-278900Y-378759D01*
X-279008Y-378726D01*
X-279118Y-378696D01*
X-279228Y-378671D01*
X-279339Y-378649D01*
X-279451Y-378632D01*
X-279564Y-378618D01*
X-279677Y-378608D01*
X-279790Y-378602D01*
X-279903Y-378600D01*
X-280016Y-378602D01*
X-280129Y-378608D01*
X-280242Y-378618D01*
X-280355Y-378632D01*
X-280467Y-378649D01*
X-280578Y-378671D01*
X-280688Y-378696D01*
X-280798Y-378726D01*
X-280906Y-378759D01*
X-281013Y-378796D01*
X-281119Y-378836D01*
X-281223Y-378881D01*
X-281326Y-378929D01*
X-281427Y-378980D01*
X-281526Y-379035D01*
X-281623Y-379093D01*
X-281718Y-379155D01*
X-281811Y-379220D01*
X-281901Y-379288D01*
X-281989Y-379359D01*
X-282075Y-379434D01*
X-282158Y-379511D01*
X-282238Y-379591D01*
X-282315Y-379674D01*
X-282390Y-379760D01*
X-282461Y-379848D01*
X-282529Y-379938D01*
X-282594Y-380031D01*
X-282656Y-380126D01*
X-282714Y-380223D01*
X-282769Y-380322D01*
X-282820Y-380423D01*
X-282868Y-380526D01*
X-282913Y-380630D01*
X-282953Y-380736D01*
X-282990Y-380843D01*
X-283023Y-380951D01*
X-283053Y-381061D01*
X-283078Y-381171D01*
X-283100Y-381282D01*
X-283117Y-381394D01*
X-283131Y-381507D01*
X-283141Y-381620D01*
X-283147Y-381733D01*
X-283149Y-381846D01*
X-283148Y-381846D02*
X-283148Y-385092D01*
X-288341Y-374212D02*
X-288341Y-370967D01*
X-288339Y-370854D01*
X-288333Y-370741D01*
X-288323Y-370628D01*
X-288309Y-370515D01*
X-288292Y-370403D01*
X-288270Y-370292D01*
X-288245Y-370182D01*
X-288215Y-370072D01*
X-288182Y-369964D01*
X-288145Y-369857D01*
X-288105Y-369751D01*
X-288060Y-369647D01*
X-288012Y-369544D01*
X-287961Y-369443D01*
X-287906Y-369344D01*
X-287848Y-369247D01*
X-287786Y-369152D01*
X-287721Y-369059D01*
X-287653Y-368969D01*
X-287582Y-368881D01*
X-287507Y-368795D01*
X-287430Y-368712D01*
X-287350Y-368632D01*
X-287267Y-368555D01*
X-287181Y-368480D01*
X-287093Y-368409D01*
X-287003Y-368341D01*
X-286910Y-368276D01*
X-286815Y-368214D01*
X-286718Y-368156D01*
X-286619Y-368101D01*
X-286518Y-368050D01*
X-286415Y-368002D01*
X-286311Y-367957D01*
X-286205Y-367917D01*
X-286098Y-367880D01*
X-285990Y-367847D01*
X-285880Y-367817D01*
X-285770Y-367792D01*
X-285659Y-367770D01*
X-285547Y-367753D01*
X-285434Y-367739D01*
X-285321Y-367729D01*
X-285208Y-367723D01*
X-285095Y-367721D01*
X-284982Y-367723D01*
X-284869Y-367729D01*
X-284756Y-367739D01*
X-284643Y-367753D01*
X-284531Y-367770D01*
X-284420Y-367792D01*
X-284310Y-367817D01*
X-284200Y-367847D01*
X-284092Y-367880D01*
X-283985Y-367917D01*
X-283879Y-367957D01*
X-283775Y-368002D01*
X-283672Y-368050D01*
X-283571Y-368101D01*
X-283472Y-368156D01*
X-283375Y-368214D01*
X-283280Y-368276D01*
X-283187Y-368341D01*
X-283097Y-368409D01*
X-283009Y-368480D01*
X-282923Y-368555D01*
X-282840Y-368632D01*
X-282760Y-368712D01*
X-282683Y-368795D01*
X-282608Y-368881D01*
X-282537Y-368969D01*
X-282469Y-369059D01*
X-282404Y-369152D01*
X-282342Y-369247D01*
X-282284Y-369344D01*
X-282229Y-369443D01*
X-282178Y-369544D01*
X-282130Y-369647D01*
X-282085Y-369751D01*
X-282045Y-369857D01*
X-282008Y-369964D01*
X-281975Y-370072D01*
X-281945Y-370182D01*
X-281920Y-370292D01*
X-281898Y-370403D01*
X-281881Y-370515D01*
X-281867Y-370628D01*
X-281857Y-370741D01*
X-281851Y-370854D01*
X-281849Y-370967D01*
X-276657Y-370318D02*
X-276657Y-374212D01*
X-276657Y-370318D02*
X-276659Y-370217D01*
X-276665Y-370117D01*
X-276675Y-370017D01*
X-276688Y-369917D01*
X-276706Y-369818D01*
X-276727Y-369719D01*
X-276752Y-369622D01*
X-276781Y-369525D01*
X-276814Y-369430D01*
X-276850Y-369336D01*
X-276890Y-369244D01*
X-276933Y-369153D01*
X-276980Y-369064D01*
X-277030Y-368977D01*
X-277084Y-368891D01*
X-277141Y-368808D01*
X-277201Y-368728D01*
X-277264Y-368649D01*
X-277331Y-368573D01*
X-277400Y-368500D01*
X-277472Y-368430D01*
X-277546Y-368362D01*
X-277623Y-368297D01*
X-277703Y-368236D01*
X-277785Y-368177D01*
X-277869Y-368122D01*
X-277955Y-368070D01*
X-278043Y-368021D01*
X-278133Y-367976D01*
X-278225Y-367934D01*
X-278318Y-367896D01*
X-278413Y-367862D01*
X-278508Y-367831D01*
X-278605Y-367804D01*
X-278703Y-367781D01*
X-278802Y-367761D01*
X-278902Y-367746D01*
X-279002Y-367734D01*
X-279102Y-367726D01*
X-279203Y-367722D01*
X-279303Y-367722D01*
X-279404Y-367726D01*
X-279504Y-367734D01*
X-279604Y-367746D01*
X-279704Y-367761D01*
X-279803Y-367781D01*
X-279901Y-367804D01*
X-279998Y-367831D01*
X-280093Y-367862D01*
X-280188Y-367896D01*
X-280281Y-367934D01*
X-280373Y-367976D01*
X-280463Y-368021D01*
X-280551Y-368070D01*
X-280637Y-368122D01*
X-280721Y-368177D01*
X-280803Y-368236D01*
X-280883Y-368297D01*
X-280960Y-368362D01*
X-281034Y-368430D01*
X-281106Y-368500D01*
X-281175Y-368573D01*
X-281242Y-368649D01*
X-281305Y-368728D01*
X-281365Y-368808D01*
X-281422Y-368891D01*
X-281476Y-368977D01*
X-281526Y-369064D01*
X-281573Y-369153D01*
X-281616Y-369244D01*
X-281656Y-369336D01*
X-281692Y-369430D01*
X-281725Y-369525D01*
X-281754Y-369622D01*
X-281779Y-369719D01*
X-281800Y-369818D01*
X-281818Y-369917D01*
X-281831Y-370017D01*
X-281841Y-370117D01*
X-281847Y-370217D01*
X-281849Y-370318D01*
X-281850Y-370318D02*
X-281850Y-372914D01*
X-346657Y-342845D02*
X-349253Y-346091D01*
X-346657Y-342845D02*
X-358341Y-342845D01*
X-358341Y-339600D02*
X-358341Y-346091D01*
D14*
X-505950Y-258100D02*
X-505950Y-232600D01*
X-505950Y-224600D01*
X-505950Y-199100D01*
X-460950Y-199100D02*
X-460950Y-258100D01*
X-460950Y-199100D02*
X-482950Y-199100D01*
X-491950Y-199100D01*
X-505950Y-199100D01*
X-482950Y-258100D02*
X-460950Y-258100D01*
X-482950Y-258100D02*
X-491950Y-258100D01*
X-505950Y-258100D01*
X-466950Y-252100D02*
X-466950Y-205100D01*
X-466950Y-252100D02*
X-482950Y-252100D01*
X-491950Y-252100D01*
X-499950Y-252100D01*
X-499950Y-232600D01*
X-482950Y-205100D02*
X-466950Y-205100D01*
X-482950Y-205100D02*
X-491950Y-205100D01*
X-499950Y-205100D01*
X-491950Y-252100D02*
X-491950Y-258100D01*
X-482950Y-258100D02*
X-482950Y-252100D01*
X-482950Y-205100D02*
X-482950Y-199100D01*
X-491950Y-199100D02*
X-491950Y-205100D01*
X-499950Y-205100D02*
X-499950Y-224600D01*
X-505950Y-224600D01*
X-505950Y-232600D02*
X-499950Y-232600D01*
D10*
X-453441Y-258092D02*
X-441757Y-258092D01*
X-441757Y-254846D01*
X-441759Y-254733D01*
X-441765Y-254620D01*
X-441775Y-254507D01*
X-441789Y-254394D01*
X-441806Y-254282D01*
X-441828Y-254171D01*
X-441853Y-254061D01*
X-441883Y-253951D01*
X-441916Y-253843D01*
X-441953Y-253736D01*
X-441993Y-253630D01*
X-442038Y-253526D01*
X-442086Y-253423D01*
X-442137Y-253322D01*
X-442192Y-253223D01*
X-442250Y-253126D01*
X-442312Y-253031D01*
X-442377Y-252938D01*
X-442445Y-252848D01*
X-442516Y-252760D01*
X-442591Y-252674D01*
X-442668Y-252591D01*
X-442748Y-252511D01*
X-442831Y-252434D01*
X-442917Y-252359D01*
X-443005Y-252288D01*
X-443095Y-252220D01*
X-443188Y-252155D01*
X-443283Y-252093D01*
X-443380Y-252035D01*
X-443479Y-251980D01*
X-443580Y-251929D01*
X-443683Y-251881D01*
X-443787Y-251836D01*
X-443893Y-251796D01*
X-444000Y-251759D01*
X-444108Y-251726D01*
X-444218Y-251696D01*
X-444328Y-251671D01*
X-444439Y-251649D01*
X-444551Y-251632D01*
X-444664Y-251618D01*
X-444777Y-251608D01*
X-444890Y-251602D01*
X-445003Y-251600D01*
X-445116Y-251602D01*
X-445229Y-251608D01*
X-445342Y-251618D01*
X-445455Y-251632D01*
X-445567Y-251649D01*
X-445678Y-251671D01*
X-445788Y-251696D01*
X-445898Y-251726D01*
X-446006Y-251759D01*
X-446113Y-251796D01*
X-446219Y-251836D01*
X-446323Y-251881D01*
X-446426Y-251929D01*
X-446527Y-251980D01*
X-446626Y-252035D01*
X-446723Y-252093D01*
X-446818Y-252155D01*
X-446911Y-252220D01*
X-447001Y-252288D01*
X-447089Y-252359D01*
X-447175Y-252434D01*
X-447258Y-252511D01*
X-447338Y-252591D01*
X-447415Y-252674D01*
X-447490Y-252760D01*
X-447561Y-252848D01*
X-447629Y-252938D01*
X-447694Y-253031D01*
X-447756Y-253126D01*
X-447814Y-253223D01*
X-447869Y-253322D01*
X-447920Y-253423D01*
X-447968Y-253526D01*
X-448013Y-253630D01*
X-448053Y-253736D01*
X-448090Y-253843D01*
X-448123Y-253951D01*
X-448153Y-254061D01*
X-448178Y-254171D01*
X-448200Y-254282D01*
X-448217Y-254394D01*
X-448231Y-254507D01*
X-448241Y-254620D01*
X-448247Y-254733D01*
X-448249Y-254846D01*
X-448248Y-254846D02*
X-448248Y-258092D01*
X-450845Y-247212D02*
X-441757Y-244616D01*
X-450845Y-247212D02*
X-450845Y-240721D01*
X-453441Y-242669D02*
X-448248Y-242669D01*
X-511757Y-215845D02*
X-514353Y-219091D01*
X-511757Y-215845D02*
X-523441Y-215845D01*
X-523441Y-212600D02*
X-523441Y-219091D01*
D11*
X130831Y-89847D02*
X141438Y-79241D01*
X130831Y-89847D02*
X81334Y-139345D01*
X141438Y-79241D02*
X85859Y-23662D01*
X25755Y-83766D02*
X81334Y-139345D01*
X75253Y-34269D02*
X85859Y-23662D01*
X75253Y-34269D02*
X25755Y-83766D01*
X75253Y-34269D02*
X130831Y-89847D01*
D14*
X102037Y-37499D02*
X100241Y-35703D01*
X102037Y-37499D02*
X102109Y-37568D01*
X102183Y-37634D01*
X102261Y-37698D01*
X102340Y-37758D01*
X102422Y-37815D01*
X102506Y-37869D01*
X102592Y-37919D01*
X102680Y-37966D01*
X102770Y-38010D01*
X102861Y-38050D01*
X102954Y-38086D01*
X103048Y-38119D01*
X103144Y-38148D01*
X103240Y-38173D01*
X103337Y-38194D01*
X103436Y-38212D01*
X103534Y-38225D01*
X103634Y-38235D01*
X103733Y-38241D01*
X103833Y-38243D01*
X103933Y-38241D01*
X104032Y-38235D01*
X104132Y-38225D01*
X104230Y-38212D01*
X104329Y-38194D01*
X104426Y-38173D01*
X104522Y-38148D01*
X104618Y-38119D01*
X104712Y-38086D01*
X104805Y-38050D01*
X104896Y-38010D01*
X104986Y-37966D01*
X105074Y-37919D01*
X105160Y-37869D01*
X105244Y-37815D01*
X105326Y-37758D01*
X105406Y-37698D01*
X105483Y-37634D01*
X105557Y-37568D01*
X105629Y-37499D01*
X110119Y-33009D01*
X110188Y-32937D01*
X110254Y-32863D01*
X110318Y-32785D01*
X110378Y-32706D01*
X110435Y-32624D01*
X110489Y-32540D01*
X110539Y-32454D01*
X110586Y-32366D01*
X110630Y-32276D01*
X110670Y-32185D01*
X110706Y-32092D01*
X110739Y-31998D01*
X110768Y-31902D01*
X110793Y-31806D01*
X110814Y-31709D01*
X110832Y-31610D01*
X110845Y-31512D01*
X110855Y-31412D01*
X110861Y-31313D01*
X110863Y-31213D01*
X110861Y-31113D01*
X110855Y-31014D01*
X110845Y-30914D01*
X110832Y-30816D01*
X110814Y-30717D01*
X110793Y-30620D01*
X110768Y-30524D01*
X110739Y-30428D01*
X110706Y-30334D01*
X110670Y-30241D01*
X110630Y-30150D01*
X110586Y-30060D01*
X110539Y-29972D01*
X110489Y-29886D01*
X110435Y-29802D01*
X110378Y-29720D01*
X110318Y-29641D01*
X110254Y-29563D01*
X110188Y-29489D01*
X110119Y-29417D01*
X108323Y-27621D01*
X104884Y-24182D02*
X96802Y-32264D01*
X92312Y-27774D02*
X104884Y-24182D01*
X100394Y-19692D02*
X92312Y-27774D01*
X94737Y-17626D02*
X94288Y-13585D01*
X86205Y-21668D01*
X88451Y-23913D02*
X83960Y-19422D01*
X122700Y-170630D02*
X122700Y-200630D01*
X122700Y-170630D02*
X122700Y-131630D01*
X122700Y-101630D01*
X167700Y-101630D02*
X167700Y-200630D01*
X167700Y-101630D02*
X145700Y-101630D01*
X136700Y-101630D01*
X122700Y-101630D01*
X145700Y-200630D02*
X167700Y-200630D01*
X145700Y-200630D02*
X136700Y-200630D01*
X122700Y-200630D01*
X161700Y-194630D02*
X161700Y-107630D01*
X161700Y-194630D02*
X145700Y-194630D01*
X136700Y-194630D01*
X128700Y-194630D01*
X128700Y-170630D01*
X145700Y-107630D02*
X161700Y-107630D01*
X145700Y-107630D02*
X136700Y-107630D01*
X128700Y-107630D01*
X136700Y-194630D02*
X136700Y-200630D01*
X145700Y-200630D02*
X145700Y-194630D01*
X145700Y-107630D02*
X145700Y-101630D01*
X136700Y-101630D02*
X136700Y-107630D01*
X128700Y-170630D02*
X122700Y-170630D01*
X122700Y-131630D02*
X128700Y-131630D01*
X128700Y-107630D01*
D10*
X175209Y-200622D02*
X186893Y-200622D01*
X186893Y-197376D01*
X186891Y-197263D01*
X186885Y-197150D01*
X186875Y-197037D01*
X186861Y-196924D01*
X186844Y-196812D01*
X186822Y-196701D01*
X186797Y-196591D01*
X186767Y-196481D01*
X186734Y-196373D01*
X186697Y-196266D01*
X186657Y-196160D01*
X186612Y-196056D01*
X186564Y-195953D01*
X186513Y-195852D01*
X186458Y-195753D01*
X186400Y-195656D01*
X186338Y-195561D01*
X186273Y-195468D01*
X186205Y-195378D01*
X186134Y-195290D01*
X186059Y-195204D01*
X185982Y-195121D01*
X185902Y-195041D01*
X185819Y-194964D01*
X185733Y-194889D01*
X185645Y-194818D01*
X185555Y-194750D01*
X185462Y-194685D01*
X185367Y-194623D01*
X185270Y-194565D01*
X185171Y-194510D01*
X185070Y-194459D01*
X184967Y-194411D01*
X184863Y-194366D01*
X184757Y-194326D01*
X184650Y-194289D01*
X184542Y-194256D01*
X184432Y-194226D01*
X184322Y-194201D01*
X184211Y-194179D01*
X184099Y-194162D01*
X183986Y-194148D01*
X183873Y-194138D01*
X183760Y-194132D01*
X183647Y-194130D01*
X183534Y-194132D01*
X183421Y-194138D01*
X183308Y-194148D01*
X183195Y-194162D01*
X183083Y-194179D01*
X182972Y-194201D01*
X182862Y-194226D01*
X182752Y-194256D01*
X182644Y-194289D01*
X182537Y-194326D01*
X182431Y-194366D01*
X182327Y-194411D01*
X182224Y-194459D01*
X182123Y-194510D01*
X182024Y-194565D01*
X181927Y-194623D01*
X181832Y-194685D01*
X181739Y-194750D01*
X181649Y-194818D01*
X181561Y-194889D01*
X181475Y-194964D01*
X181392Y-195041D01*
X181312Y-195121D01*
X181235Y-195204D01*
X181160Y-195290D01*
X181089Y-195378D01*
X181021Y-195468D01*
X180956Y-195561D01*
X180894Y-195656D01*
X180836Y-195753D01*
X180781Y-195852D01*
X180730Y-195953D01*
X180682Y-196056D01*
X180637Y-196160D01*
X180597Y-196266D01*
X180560Y-196373D01*
X180527Y-196481D01*
X180497Y-196591D01*
X180472Y-196701D01*
X180450Y-196812D01*
X180433Y-196924D01*
X180419Y-197037D01*
X180409Y-197150D01*
X180403Y-197263D01*
X180401Y-197376D01*
X180402Y-197376D02*
X180402Y-200622D01*
X175209Y-189742D02*
X175209Y-185848D01*
X175211Y-185749D01*
X175217Y-185649D01*
X175226Y-185550D01*
X175239Y-185452D01*
X175256Y-185354D01*
X175277Y-185256D01*
X175302Y-185160D01*
X175330Y-185065D01*
X175362Y-184971D01*
X175397Y-184878D01*
X175436Y-184786D01*
X175479Y-184696D01*
X175524Y-184608D01*
X175574Y-184521D01*
X175626Y-184437D01*
X175682Y-184354D01*
X175740Y-184274D01*
X175802Y-184196D01*
X175867Y-184121D01*
X175935Y-184048D01*
X176005Y-183978D01*
X176078Y-183910D01*
X176153Y-183845D01*
X176231Y-183783D01*
X176311Y-183725D01*
X176394Y-183669D01*
X176478Y-183617D01*
X176565Y-183567D01*
X176653Y-183522D01*
X176743Y-183479D01*
X176835Y-183440D01*
X176928Y-183405D01*
X177022Y-183373D01*
X177117Y-183345D01*
X177213Y-183320D01*
X177311Y-183299D01*
X177409Y-183282D01*
X177507Y-183269D01*
X177606Y-183260D01*
X177706Y-183254D01*
X177805Y-183252D01*
X177805Y-183251D02*
X179104Y-183251D01*
X179104Y-183252D02*
X179203Y-183254D01*
X179303Y-183260D01*
X179402Y-183269D01*
X179500Y-183282D01*
X179598Y-183299D01*
X179696Y-183320D01*
X179792Y-183345D01*
X179887Y-183373D01*
X179981Y-183405D01*
X180074Y-183440D01*
X180166Y-183479D01*
X180256Y-183522D01*
X180344Y-183567D01*
X180431Y-183617D01*
X180515Y-183669D01*
X180598Y-183725D01*
X180678Y-183783D01*
X180756Y-183845D01*
X180831Y-183910D01*
X180904Y-183978D01*
X180974Y-184048D01*
X181042Y-184121D01*
X181107Y-184196D01*
X181169Y-184274D01*
X181227Y-184354D01*
X181283Y-184437D01*
X181335Y-184521D01*
X181385Y-184608D01*
X181430Y-184696D01*
X181473Y-184786D01*
X181512Y-184878D01*
X181547Y-184971D01*
X181579Y-185065D01*
X181607Y-185160D01*
X181632Y-185256D01*
X181653Y-185354D01*
X181670Y-185452D01*
X181683Y-185550D01*
X181692Y-185649D01*
X181698Y-185749D01*
X181700Y-185848D01*
X181700Y-189742D01*
X186893Y-189742D01*
X186893Y-183251D01*
X114297Y-121621D02*
X116893Y-118375D01*
X105209Y-118375D01*
X105209Y-115130D02*
X105209Y-121621D01*
M02*
