G04 EAGLE Gerber X2 export*
%TF.Part,Single*%
%TF.FileFunction,Soldermask,Top,1*%
%TF.FilePolarity,Negative*%
%TF.GenerationSoftware,Autodesk,EAGLE,8.6.0*%
%TF.CreationDate,2019-04-04T15:37:23Z*%
G75*
%MOMM*%
%FSLAX34Y34*%
%LPD*%
%AMOC8*
5,1,8,0,0,1.08239X$1,22.5*%
G01*
%ADD10C,3.203200*%
%ADD11C,6.203200*%
%ADD12C,2.203200*%
%ADD13P,2.144431X8X202.500000*%
%ADD14C,1.828800*%
%ADD15C,1.662800*%
%ADD16C,1.662800*%
%ADD17R,1.303200X1.203200*%
%ADD18R,1.203200X1.303200*%
%ADD19C,1.828800*%
%ADD20R,0.812800X1.727200*%
%ADD21C,4.083200*%
%ADD22C,2.387600*%
%ADD23C,2.133600*%
%ADD24R,2.133600X2.133600*%
%ADD25R,2.078200X2.078200*%
%ADD26C,2.063200*%
%ADD27R,6.553200X6.553200*%
%ADD28C,6.553200*%
%ADD29C,1.812800*%
%ADD30C,1.612800*%
%ADD31R,1.270000X2.362200*%
%ADD32R,11.003200X10.613200*%
%ADD33R,1.003200X1.403200*%
%ADD34R,2.003200X1.803200*%
%ADD35R,1.403200X1.003200*%
%ADD36R,1.423200X1.113200*%
%ADD37C,0.360959*%
%ADD38C,0.138300*%
%ADD39C,0.124459*%
%ADD40C,0.172659*%
%ADD41C,1.803400*%
%ADD42P,1.951982X8X112.500000*%
%ADD43P,2.034460X8X112.500000*%
%ADD44P,1.951982X8X292.500000*%
%ADD45P,1.951982X8X202.500000*%
%ADD46R,2.753200X2.753200*%
%ADD47C,2.753200*%
%ADD48C,2.108200*%


D10*
X52070Y144780D03*
X52070Y-144780D03*
X248740Y600520D03*
X-248740Y600520D03*
X-644440Y84840D03*
X-395690Y-515680D03*
X395690Y-515680D03*
X644440Y84840D03*
X-150000Y259810D03*
X290000Y0D03*
X-150000Y-259810D03*
D11*
X-395690Y515680D03*
X-248740Y-600522D03*
X248740Y-600522D03*
X395690Y515680D03*
X644440Y-84842D03*
X-644440Y-84842D03*
D10*
X149860Y508000D03*
X-149860Y508000D03*
D12*
X-584200Y-57150D03*
X-355600Y-57150D03*
D13*
X-166370Y161290D03*
X-191770Y161290D03*
X-217170Y161290D03*
X-242570Y161290D03*
X-267970Y161290D03*
X-293370Y161290D03*
X-318770Y161290D03*
X-344170Y161290D03*
X-166370Y-161290D03*
X-191770Y-161290D03*
X-217170Y-161290D03*
X-242570Y-161290D03*
X-267970Y-161290D03*
X-293370Y-161290D03*
X-318770Y-161290D03*
X-344170Y-161290D03*
D14*
X342900Y292100D03*
X495300Y292100D03*
X495300Y266700D03*
X469900Y266700D03*
X495300Y241300D03*
X495300Y215900D03*
X469900Y215900D03*
X469900Y190500D03*
X469900Y165100D03*
X495300Y165100D03*
X495300Y190500D03*
X495300Y139700D03*
X495300Y114300D03*
X495300Y88900D03*
X495300Y38100D03*
X495300Y-12700D03*
X495300Y12700D03*
X342900Y266700D03*
X342900Y241300D03*
X342900Y215900D03*
X342900Y190500D03*
X342900Y165100D03*
X342900Y139700D03*
X342900Y114300D03*
X342900Y88900D03*
X342900Y63500D03*
X342900Y38100D03*
X342900Y12700D03*
X342900Y-12700D03*
X342900Y-38100D03*
X342900Y-63500D03*
X342900Y-88900D03*
X342900Y-114300D03*
X342900Y-139700D03*
X342900Y-165100D03*
X342900Y-190500D03*
X342900Y-215900D03*
X342900Y-241300D03*
X342900Y-266700D03*
X342900Y-292100D03*
X368300Y-165100D03*
X393700Y-165100D03*
X419100Y-165100D03*
X444500Y-165100D03*
X469900Y-165100D03*
X495300Y-292100D03*
X495300Y-266700D03*
X495300Y-241300D03*
X495300Y-215900D03*
X495300Y-190500D03*
X495300Y-165100D03*
X495300Y-139700D03*
X495300Y-114300D03*
X495300Y-88900D03*
X495300Y-63500D03*
X495300Y-38100D03*
X495300Y63500D03*
X444500Y-215900D03*
X444500Y-190500D03*
X444500Y-241300D03*
X444500Y-292100D03*
X444500Y-266700D03*
X419100Y-292100D03*
X419100Y-266700D03*
X419100Y-215900D03*
X419100Y-190500D03*
X419100Y-241300D03*
X444500Y-139700D03*
X419100Y-139700D03*
X419100Y-114300D03*
X444500Y-114300D03*
X444500Y-88900D03*
X419100Y-88900D03*
X444500Y139700D03*
X419100Y139700D03*
X419100Y114300D03*
X444500Y114300D03*
X444500Y88900D03*
X419100Y88900D03*
X419100Y63500D03*
X444500Y63500D03*
D15*
X0Y650000D03*
D16*
X18102Y650000D02*
X32698Y650000D01*
X-18102Y650000D02*
X-32698Y650000D01*
D17*
X-8500Y625000D03*
X8500Y625000D03*
D15*
X168232Y627852D03*
D16*
X185718Y623167D02*
X199816Y619389D01*
X150747Y632537D02*
X136649Y636315D01*
D17*
G36*
X158288Y598407D02*
X145701Y601780D01*
X148816Y613401D01*
X161403Y610028D01*
X158288Y598407D01*
G37*
G36*
X174708Y594007D02*
X162121Y597380D01*
X165236Y609001D01*
X177823Y605628D01*
X174708Y594007D01*
G37*
D15*
X325000Y562917D03*
D16*
X340677Y553866D02*
X353317Y546568D01*
X309323Y571968D02*
X296683Y579266D01*
D17*
G36*
X307774Y537048D02*
X296488Y543564D01*
X302504Y553984D01*
X313790Y547468D01*
X307774Y537048D01*
G37*
G36*
X322496Y528548D02*
X311210Y535064D01*
X317226Y545484D01*
X328512Y538968D01*
X322496Y528548D01*
G37*
D15*
X459619Y459619D03*
D16*
X472419Y446819D02*
X482740Y436498D01*
X446819Y472419D02*
X436498Y482740D01*
D17*
G36*
X436284Y439091D02*
X427070Y448305D01*
X435578Y456813D01*
X444792Y447599D01*
X436284Y439091D01*
G37*
G36*
X448305Y427070D02*
X439091Y436284D01*
X447599Y444792D01*
X456813Y435578D01*
X448305Y427070D01*
G37*
D15*
X562917Y325000D03*
D16*
X571968Y309323D02*
X579266Y296683D01*
X553866Y340677D02*
X546568Y353317D01*
D17*
G36*
X535064Y311210D02*
X528548Y322496D01*
X538968Y328512D01*
X545484Y317226D01*
X535064Y311210D01*
G37*
G36*
X543564Y296488D02*
X537048Y307774D01*
X547468Y313790D01*
X553984Y302504D01*
X543564Y296488D01*
G37*
D15*
X627852Y168232D03*
D16*
X632537Y150747D02*
X636315Y136649D01*
X623167Y185718D02*
X619389Y199816D01*
D17*
G36*
X597380Y162121D02*
X594007Y174708D01*
X605628Y177823D01*
X609001Y165236D01*
X597380Y162121D01*
G37*
G36*
X601780Y145701D02*
X598407Y158288D01*
X610028Y161403D01*
X613401Y148816D01*
X601780Y145701D01*
G37*
D15*
X650000Y0D03*
D16*
X650000Y-18102D02*
X650000Y-32698D01*
X650000Y18102D02*
X650000Y32698D01*
D18*
X625000Y8500D03*
X625000Y-8500D03*
D15*
X627852Y-168232D03*
D16*
X623167Y-185718D02*
X619389Y-199816D01*
X632537Y-150747D02*
X636315Y-136649D01*
D17*
G36*
X598407Y-158288D02*
X601780Y-145701D01*
X613401Y-148816D01*
X610028Y-161403D01*
X598407Y-158288D01*
G37*
G36*
X594007Y-174708D02*
X597380Y-162121D01*
X609001Y-165236D01*
X605628Y-177823D01*
X594007Y-174708D01*
G37*
D15*
X562917Y-325000D03*
D16*
X553866Y-340677D02*
X546568Y-353317D01*
X571968Y-309323D02*
X579266Y-296683D01*
D17*
G36*
X537048Y-307774D02*
X543564Y-296488D01*
X553984Y-302504D01*
X547468Y-313790D01*
X537048Y-307774D01*
G37*
G36*
X528548Y-322496D02*
X535064Y-311210D01*
X545484Y-317226D01*
X538968Y-328512D01*
X528548Y-322496D01*
G37*
D15*
X459619Y-459619D03*
D16*
X446819Y-472419D02*
X436498Y-482740D01*
X472419Y-446819D02*
X482740Y-436498D01*
D17*
G36*
X439091Y-436284D02*
X448305Y-427070D01*
X456813Y-435578D01*
X447599Y-444792D01*
X439091Y-436284D01*
G37*
G36*
X427070Y-448305D02*
X436284Y-439091D01*
X444792Y-447599D01*
X435578Y-456813D01*
X427070Y-448305D01*
G37*
D15*
X325000Y-562917D03*
D16*
X309323Y-571968D02*
X296683Y-579266D01*
X340677Y-553866D02*
X353317Y-546568D01*
D17*
G36*
X311210Y-535064D02*
X322496Y-528548D01*
X328512Y-538968D01*
X317226Y-545484D01*
X311210Y-535064D01*
G37*
G36*
X296488Y-543564D02*
X307774Y-537048D01*
X313790Y-547468D01*
X302504Y-553984D01*
X296488Y-543564D01*
G37*
D15*
X168232Y-627852D03*
D16*
X150747Y-632537D02*
X136649Y-636315D01*
X185718Y-623167D02*
X199816Y-619389D01*
D17*
G36*
X162121Y-597380D02*
X174708Y-594007D01*
X177823Y-605628D01*
X165236Y-609001D01*
X162121Y-597380D01*
G37*
G36*
X145701Y-601780D02*
X158288Y-598407D01*
X161403Y-610028D01*
X148816Y-613401D01*
X145701Y-601780D01*
G37*
D15*
X0Y-650000D03*
D16*
X-18102Y-650000D02*
X-32698Y-650000D01*
X18102Y-650000D02*
X32698Y-650000D01*
D17*
X8500Y-625000D03*
X-8500Y-625000D03*
D15*
X-168232Y-627852D03*
D16*
X-185718Y-623167D02*
X-199816Y-619389D01*
X-150747Y-632537D02*
X-136649Y-636315D01*
D17*
G36*
X-158288Y-598407D02*
X-145701Y-601780D01*
X-148816Y-613401D01*
X-161403Y-610028D01*
X-158288Y-598407D01*
G37*
G36*
X-174708Y-594007D02*
X-162121Y-597380D01*
X-165236Y-609001D01*
X-177823Y-605628D01*
X-174708Y-594007D01*
G37*
D15*
X-325000Y-562917D03*
D16*
X-340677Y-553865D02*
X-353317Y-546568D01*
X-309323Y-571968D02*
X-296683Y-579265D01*
D17*
G36*
X-307774Y-537048D02*
X-296488Y-543564D01*
X-302504Y-553984D01*
X-313790Y-547468D01*
X-307774Y-537048D01*
G37*
G36*
X-322496Y-528548D02*
X-311210Y-535064D01*
X-317226Y-545484D01*
X-328512Y-538968D01*
X-322496Y-528548D01*
G37*
D15*
X-459619Y-459619D03*
D16*
X-472419Y-446819D02*
X-482740Y-436498D01*
X-446819Y-472419D02*
X-436498Y-482740D01*
D17*
G36*
X-436284Y-439091D02*
X-427070Y-448305D01*
X-435578Y-456813D01*
X-444792Y-447599D01*
X-436284Y-439091D01*
G37*
G36*
X-448305Y-427070D02*
X-439091Y-436284D01*
X-447599Y-444792D01*
X-456813Y-435578D01*
X-448305Y-427070D01*
G37*
D15*
X-562917Y-325000D03*
D16*
X-571968Y-309323D02*
X-579265Y-296683D01*
X-553865Y-340677D02*
X-546568Y-353317D01*
D17*
G36*
X-535064Y-311210D02*
X-528548Y-322496D01*
X-538968Y-328512D01*
X-545484Y-317226D01*
X-535064Y-311210D01*
G37*
G36*
X-543564Y-296488D02*
X-537048Y-307774D01*
X-547468Y-313790D01*
X-553984Y-302504D01*
X-543564Y-296488D01*
G37*
D15*
X-627852Y-168232D03*
D16*
X-632537Y-150747D02*
X-636315Y-136649D01*
X-623167Y-185718D02*
X-619389Y-199816D01*
D17*
G36*
X-597380Y-162121D02*
X-594007Y-174708D01*
X-605628Y-177823D01*
X-609001Y-165236D01*
X-597380Y-162121D01*
G37*
G36*
X-601780Y-145701D02*
X-598407Y-158288D01*
X-610028Y-161403D01*
X-613401Y-148816D01*
X-601780Y-145701D01*
G37*
D15*
X-650000Y0D03*
D16*
X-650000Y18102D02*
X-650000Y32698D01*
X-650000Y-18102D02*
X-650000Y-32698D01*
D18*
X-625000Y-8500D03*
X-625000Y8500D03*
D15*
X-627852Y168232D03*
D16*
X-623167Y185718D02*
X-619389Y199816D01*
X-632537Y150747D02*
X-636315Y136649D01*
D17*
G36*
X-598407Y158288D02*
X-601780Y145701D01*
X-613401Y148816D01*
X-610028Y161403D01*
X-598407Y158288D01*
G37*
G36*
X-594007Y174708D02*
X-597380Y162121D01*
X-609001Y165236D01*
X-605628Y177823D01*
X-594007Y174708D01*
G37*
D15*
X-562917Y325000D03*
D16*
X-553866Y340677D02*
X-546568Y353317D01*
X-571968Y309323D02*
X-579266Y296683D01*
D17*
G36*
X-537048Y307774D02*
X-543564Y296488D01*
X-553984Y302504D01*
X-547468Y313790D01*
X-537048Y307774D01*
G37*
G36*
X-528548Y322496D02*
X-535064Y311210D01*
X-545484Y317226D01*
X-538968Y328512D01*
X-528548Y322496D01*
G37*
D15*
X-459619Y459619D03*
D16*
X-446819Y472419D02*
X-436498Y482740D01*
X-472419Y446819D02*
X-482740Y436498D01*
D17*
G36*
X-439091Y436284D02*
X-448305Y427070D01*
X-456813Y435578D01*
X-447599Y444792D01*
X-439091Y436284D01*
G37*
G36*
X-427070Y448305D02*
X-436284Y439091D01*
X-444792Y447599D01*
X-435578Y456813D01*
X-427070Y448305D01*
G37*
D15*
X-325000Y562917D03*
D16*
X-309323Y571968D02*
X-296683Y579265D01*
X-340677Y553865D02*
X-353317Y546568D01*
D17*
G36*
X-311210Y535064D02*
X-322496Y528548D01*
X-328512Y538968D01*
X-317226Y545484D01*
X-311210Y535064D01*
G37*
G36*
X-296488Y543564D02*
X-307774Y537048D01*
X-313790Y547468D01*
X-302504Y553984D01*
X-296488Y543564D01*
G37*
D15*
X-168232Y627852D03*
D16*
X-150747Y632537D02*
X-136649Y636315D01*
X-185718Y623167D02*
X-199816Y619389D01*
D17*
G36*
X-162121Y597380D02*
X-174708Y594007D01*
X-177823Y605628D01*
X-165236Y609001D01*
X-162121Y597380D01*
G37*
G36*
X-145701Y601780D02*
X-158288Y598407D01*
X-161403Y610028D01*
X-148816Y613401D01*
X-145701Y601780D01*
G37*
D19*
X-406400Y452628D02*
X-406400Y436372D01*
X-381000Y436372D02*
X-381000Y452628D01*
X-355600Y452628D02*
X-355600Y436372D01*
X-330200Y436372D02*
X-330200Y452628D01*
X-304800Y452628D02*
X-304800Y436372D01*
X-279400Y436372D02*
X-279400Y452628D01*
D18*
X279028Y432308D03*
X279028Y415308D03*
X298668Y458606D03*
X298668Y441606D03*
D20*
X171450Y-366268D03*
X171450Y-421132D03*
X158750Y-366268D03*
X146050Y-366268D03*
X158750Y-421132D03*
X146050Y-421132D03*
X133350Y-366268D03*
X133350Y-421132D03*
D21*
X177800Y-241300D03*
D22*
X160500Y-279400D03*
X195100Y-203200D03*
D21*
X266700Y-241300D03*
D22*
X249400Y-279400D03*
X284000Y-203200D03*
D23*
X266700Y-431400D03*
D24*
X266700Y-381400D03*
D25*
X158000Y-88900D03*
D26*
X197600Y-88900D03*
D25*
X246900Y-88900D03*
D26*
X286500Y-88900D03*
D27*
X-38100Y-406400D03*
D28*
X33530Y-406400D03*
D17*
X8500Y-177800D03*
X-8500Y-177800D03*
D18*
X50800Y-97400D03*
X50800Y-80400D03*
D19*
X-63500Y499872D02*
X-63500Y516128D01*
X-38100Y516128D02*
X-38100Y499872D01*
X-12700Y499872D02*
X-12700Y516128D01*
X12700Y516128D02*
X12700Y499872D01*
X38100Y499872D02*
X38100Y516128D01*
X63500Y516128D02*
X63500Y499872D01*
X131572Y444500D02*
X147828Y444500D01*
X147828Y419100D02*
X131572Y419100D01*
X203200Y414528D02*
X203200Y398272D01*
X177800Y398272D02*
X177800Y414528D01*
X203200Y449072D02*
X203200Y465328D01*
X177800Y465328D02*
X177800Y449072D01*
D29*
X-119472Y333100D02*
X-135568Y333100D01*
X-184472Y333100D02*
X-200568Y333100D01*
X-135568Y378100D02*
X-119472Y378100D01*
X-184472Y378100D02*
X-200568Y378100D01*
X-200568Y454300D02*
X-184472Y454300D01*
X-135568Y454300D02*
X-119472Y454300D01*
X-184472Y409300D02*
X-200568Y409300D01*
X-135568Y409300D02*
X-119472Y409300D01*
X-259402Y543200D02*
X-275498Y543200D01*
X-210498Y543200D02*
X-194402Y543200D01*
X-259402Y498200D02*
X-275498Y498200D01*
X-210498Y498200D02*
X-194402Y498200D01*
D17*
X-67700Y457200D03*
X-84700Y457200D03*
X-197730Y477520D03*
X-180730Y477520D03*
X-227720Y566420D03*
X-244720Y566420D03*
D19*
X-83791Y-146014D02*
X-95286Y-157509D01*
X-113246Y-139549D02*
X-101751Y-128054D01*
X-119712Y-110093D02*
X-131207Y-121588D01*
X-149167Y-103628D02*
X-137672Y-92133D01*
X-155633Y-74172D02*
X-167128Y-85667D01*
X-185088Y-67707D02*
X-173593Y-56212D01*
X-191554Y-38251D02*
X-203049Y-49746D01*
X-221009Y-31786D02*
X-209514Y-20291D01*
D17*
X-531250Y-96520D03*
X-548250Y-96520D03*
X-351400Y482600D03*
X-334400Y482600D03*
D18*
X299539Y372500D03*
X299539Y389500D03*
D17*
X397900Y292100D03*
X414900Y292100D03*
X-339970Y-135890D03*
X-322970Y-135890D03*
D30*
X272352Y63500D02*
X286448Y63500D01*
X286448Y88900D02*
X272352Y88900D01*
X272352Y114300D02*
X286448Y114300D01*
D31*
X177800Y30988D03*
X203200Y30988D03*
X228600Y30988D03*
D32*
X203200Y114300D03*
D33*
X250300Y-12700D03*
X232300Y-12700D03*
D34*
X309880Y101570D03*
X309880Y129570D03*
D35*
X215900Y-3700D03*
X215900Y-21700D03*
D33*
X189340Y1270D03*
X171340Y1270D03*
D36*
X309880Y72255D03*
X309880Y39505D03*
D37*
X-55359Y-148189D02*
X-55359Y-156611D01*
X-63781Y-156611D01*
X-63781Y-148189D01*
X-55359Y-148189D01*
X-55359Y-153002D02*
X-63781Y-153002D01*
X-63781Y-149393D02*
X-55359Y-149393D01*
X-37819Y-148189D02*
X-37819Y-156611D01*
X-46241Y-156611D01*
X-46241Y-148189D01*
X-37819Y-148189D01*
X-37819Y-153002D02*
X-46241Y-153002D01*
X-46241Y-149393D02*
X-37819Y-149393D01*
X-17259Y-148189D02*
X-17259Y-156611D01*
X-25681Y-156611D01*
X-25681Y-148189D01*
X-17259Y-148189D01*
X-17259Y-153002D02*
X-25681Y-153002D01*
X-25681Y-149393D02*
X-17259Y-149393D01*
X281Y-148189D02*
X281Y-156611D01*
X-8141Y-156611D01*
X-8141Y-148189D01*
X281Y-148189D01*
X281Y-153002D02*
X-8141Y-153002D01*
X-8141Y-149393D02*
X281Y-149393D01*
D18*
X-38100Y-105800D03*
X-38100Y-122800D03*
X0Y-105800D03*
X0Y-122800D03*
D19*
X0Y-84328D02*
X0Y-68072D01*
X25400Y-68072D02*
X25400Y-84328D01*
X-63500Y-84328D02*
X-63500Y-68072D01*
X-38100Y-68072D02*
X-38100Y-84328D01*
X322072Y364490D02*
X338328Y364490D01*
X338328Y389890D02*
X322072Y389890D01*
X322072Y415290D02*
X338328Y415290D01*
X338328Y440690D02*
X322072Y440690D01*
D38*
X-446825Y266925D02*
X-446825Y248375D01*
X-450975Y248375D01*
X-450975Y266925D01*
X-446825Y266925D01*
X-446825Y249757D02*
X-450975Y249757D01*
X-450975Y251139D02*
X-446825Y251139D01*
X-446825Y252521D02*
X-450975Y252521D01*
X-450975Y253903D02*
X-446825Y253903D01*
X-446825Y255285D02*
X-450975Y255285D01*
X-450975Y256667D02*
X-446825Y256667D01*
X-446825Y258049D02*
X-450975Y258049D01*
X-450975Y259431D02*
X-446825Y259431D01*
X-446825Y260813D02*
X-450975Y260813D01*
X-450975Y262195D02*
X-446825Y262195D01*
X-446825Y263577D02*
X-450975Y263577D01*
X-450975Y264959D02*
X-446825Y264959D01*
X-446825Y266341D02*
X-450975Y266341D01*
X-441825Y266925D02*
X-441825Y248375D01*
X-445975Y248375D01*
X-445975Y266925D01*
X-441825Y266925D01*
X-441825Y249757D02*
X-445975Y249757D01*
X-445975Y251139D02*
X-441825Y251139D01*
X-441825Y252521D02*
X-445975Y252521D01*
X-445975Y253903D02*
X-441825Y253903D01*
X-441825Y255285D02*
X-445975Y255285D01*
X-445975Y256667D02*
X-441825Y256667D01*
X-441825Y258049D02*
X-445975Y258049D01*
X-445975Y259431D02*
X-441825Y259431D01*
X-441825Y260813D02*
X-445975Y260813D01*
X-445975Y262195D02*
X-441825Y262195D01*
X-441825Y263577D02*
X-445975Y263577D01*
X-445975Y264959D02*
X-441825Y264959D01*
X-441825Y266341D02*
X-445975Y266341D01*
X-436825Y266925D02*
X-436825Y248375D01*
X-440975Y248375D01*
X-440975Y266925D01*
X-436825Y266925D01*
X-436825Y249757D02*
X-440975Y249757D01*
X-440975Y251139D02*
X-436825Y251139D01*
X-436825Y252521D02*
X-440975Y252521D01*
X-440975Y253903D02*
X-436825Y253903D01*
X-436825Y255285D02*
X-440975Y255285D01*
X-440975Y256667D02*
X-436825Y256667D01*
X-436825Y258049D02*
X-440975Y258049D01*
X-440975Y259431D02*
X-436825Y259431D01*
X-436825Y260813D02*
X-440975Y260813D01*
X-440975Y262195D02*
X-436825Y262195D01*
X-436825Y263577D02*
X-440975Y263577D01*
X-440975Y264959D02*
X-436825Y264959D01*
X-436825Y266341D02*
X-440975Y266341D01*
X-431825Y266925D02*
X-431825Y248375D01*
X-435975Y248375D01*
X-435975Y266925D01*
X-431825Y266925D01*
X-431825Y249757D02*
X-435975Y249757D01*
X-435975Y251139D02*
X-431825Y251139D01*
X-431825Y252521D02*
X-435975Y252521D01*
X-435975Y253903D02*
X-431825Y253903D01*
X-431825Y255285D02*
X-435975Y255285D01*
X-435975Y256667D02*
X-431825Y256667D01*
X-431825Y258049D02*
X-435975Y258049D01*
X-435975Y259431D02*
X-431825Y259431D01*
X-431825Y260813D02*
X-435975Y260813D01*
X-435975Y262195D02*
X-431825Y262195D01*
X-431825Y263577D02*
X-435975Y263577D01*
X-435975Y264959D02*
X-431825Y264959D01*
X-431825Y266341D02*
X-435975Y266341D01*
X-426825Y266925D02*
X-426825Y248375D01*
X-430975Y248375D01*
X-430975Y266925D01*
X-426825Y266925D01*
X-426825Y249757D02*
X-430975Y249757D01*
X-430975Y251139D02*
X-426825Y251139D01*
X-426825Y252521D02*
X-430975Y252521D01*
X-430975Y253903D02*
X-426825Y253903D01*
X-426825Y255285D02*
X-430975Y255285D01*
X-430975Y256667D02*
X-426825Y256667D01*
X-426825Y258049D02*
X-430975Y258049D01*
X-430975Y259431D02*
X-426825Y259431D01*
X-426825Y260813D02*
X-430975Y260813D01*
X-430975Y262195D02*
X-426825Y262195D01*
X-426825Y263577D02*
X-430975Y263577D01*
X-430975Y264959D02*
X-426825Y264959D01*
X-426825Y266341D02*
X-430975Y266341D01*
X-421825Y266925D02*
X-421825Y248375D01*
X-425975Y248375D01*
X-425975Y266925D01*
X-421825Y266925D01*
X-421825Y249757D02*
X-425975Y249757D01*
X-425975Y251139D02*
X-421825Y251139D01*
X-421825Y252521D02*
X-425975Y252521D01*
X-425975Y253903D02*
X-421825Y253903D01*
X-421825Y255285D02*
X-425975Y255285D01*
X-425975Y256667D02*
X-421825Y256667D01*
X-421825Y258049D02*
X-425975Y258049D01*
X-425975Y259431D02*
X-421825Y259431D01*
X-421825Y260813D02*
X-425975Y260813D01*
X-425975Y262195D02*
X-421825Y262195D01*
X-421825Y263577D02*
X-425975Y263577D01*
X-425975Y264959D02*
X-421825Y264959D01*
X-421825Y266341D02*
X-425975Y266341D01*
X-416825Y266925D02*
X-416825Y248375D01*
X-420975Y248375D01*
X-420975Y266925D01*
X-416825Y266925D01*
X-416825Y249757D02*
X-420975Y249757D01*
X-420975Y251139D02*
X-416825Y251139D01*
X-416825Y252521D02*
X-420975Y252521D01*
X-420975Y253903D02*
X-416825Y253903D01*
X-416825Y255285D02*
X-420975Y255285D01*
X-420975Y256667D02*
X-416825Y256667D01*
X-416825Y258049D02*
X-420975Y258049D01*
X-420975Y259431D02*
X-416825Y259431D01*
X-416825Y260813D02*
X-420975Y260813D01*
X-420975Y262195D02*
X-416825Y262195D01*
X-416825Y263577D02*
X-420975Y263577D01*
X-420975Y264959D02*
X-416825Y264959D01*
X-416825Y266341D02*
X-420975Y266341D01*
X-411825Y266925D02*
X-411825Y248375D01*
X-415975Y248375D01*
X-415975Y266925D01*
X-411825Y266925D01*
X-411825Y249757D02*
X-415975Y249757D01*
X-415975Y251139D02*
X-411825Y251139D01*
X-411825Y252521D02*
X-415975Y252521D01*
X-415975Y253903D02*
X-411825Y253903D01*
X-411825Y255285D02*
X-415975Y255285D01*
X-415975Y256667D02*
X-411825Y256667D01*
X-411825Y258049D02*
X-415975Y258049D01*
X-415975Y259431D02*
X-411825Y259431D01*
X-411825Y260813D02*
X-415975Y260813D01*
X-415975Y262195D02*
X-411825Y262195D01*
X-411825Y263577D02*
X-415975Y263577D01*
X-415975Y264959D02*
X-411825Y264959D01*
X-411825Y266341D02*
X-415975Y266341D01*
X-406825Y266925D02*
X-406825Y248375D01*
X-410975Y248375D01*
X-410975Y266925D01*
X-406825Y266925D01*
X-406825Y249757D02*
X-410975Y249757D01*
X-410975Y251139D02*
X-406825Y251139D01*
X-406825Y252521D02*
X-410975Y252521D01*
X-410975Y253903D02*
X-406825Y253903D01*
X-406825Y255285D02*
X-410975Y255285D01*
X-410975Y256667D02*
X-406825Y256667D01*
X-406825Y258049D02*
X-410975Y258049D01*
X-410975Y259431D02*
X-406825Y259431D01*
X-406825Y260813D02*
X-410975Y260813D01*
X-410975Y262195D02*
X-406825Y262195D01*
X-406825Y263577D02*
X-410975Y263577D01*
X-410975Y264959D02*
X-406825Y264959D01*
X-406825Y266341D02*
X-410975Y266341D01*
X-401825Y266925D02*
X-401825Y248375D01*
X-405975Y248375D01*
X-405975Y266925D01*
X-401825Y266925D01*
X-401825Y249757D02*
X-405975Y249757D01*
X-405975Y251139D02*
X-401825Y251139D01*
X-401825Y252521D02*
X-405975Y252521D01*
X-405975Y253903D02*
X-401825Y253903D01*
X-401825Y255285D02*
X-405975Y255285D01*
X-405975Y256667D02*
X-401825Y256667D01*
X-401825Y258049D02*
X-405975Y258049D01*
X-405975Y259431D02*
X-401825Y259431D01*
X-401825Y260813D02*
X-405975Y260813D01*
X-405975Y262195D02*
X-401825Y262195D01*
X-401825Y263577D02*
X-405975Y263577D01*
X-405975Y264959D02*
X-401825Y264959D01*
X-401825Y266341D02*
X-405975Y266341D01*
X-396825Y266925D02*
X-396825Y248375D01*
X-400975Y248375D01*
X-400975Y266925D01*
X-396825Y266925D01*
X-396825Y249757D02*
X-400975Y249757D01*
X-400975Y251139D02*
X-396825Y251139D01*
X-396825Y252521D02*
X-400975Y252521D01*
X-400975Y253903D02*
X-396825Y253903D01*
X-396825Y255285D02*
X-400975Y255285D01*
X-400975Y256667D02*
X-396825Y256667D01*
X-396825Y258049D02*
X-400975Y258049D01*
X-400975Y259431D02*
X-396825Y259431D01*
X-396825Y260813D02*
X-400975Y260813D01*
X-400975Y262195D02*
X-396825Y262195D01*
X-396825Y263577D02*
X-400975Y263577D01*
X-400975Y264959D02*
X-396825Y264959D01*
X-396825Y266341D02*
X-400975Y266341D01*
X-391825Y266925D02*
X-391825Y248375D01*
X-395975Y248375D01*
X-395975Y266925D01*
X-391825Y266925D01*
X-391825Y249757D02*
X-395975Y249757D01*
X-395975Y251139D02*
X-391825Y251139D01*
X-391825Y252521D02*
X-395975Y252521D01*
X-395975Y253903D02*
X-391825Y253903D01*
X-391825Y255285D02*
X-395975Y255285D01*
X-395975Y256667D02*
X-391825Y256667D01*
X-391825Y258049D02*
X-395975Y258049D01*
X-395975Y259431D02*
X-391825Y259431D01*
X-391825Y260813D02*
X-395975Y260813D01*
X-395975Y262195D02*
X-391825Y262195D01*
X-391825Y263577D02*
X-395975Y263577D01*
X-395975Y264959D02*
X-391825Y264959D01*
X-391825Y266341D02*
X-395975Y266341D01*
X-386825Y266925D02*
X-386825Y248375D01*
X-390975Y248375D01*
X-390975Y266925D01*
X-386825Y266925D01*
X-386825Y249757D02*
X-390975Y249757D01*
X-390975Y251139D02*
X-386825Y251139D01*
X-386825Y252521D02*
X-390975Y252521D01*
X-390975Y253903D02*
X-386825Y253903D01*
X-386825Y255285D02*
X-390975Y255285D01*
X-390975Y256667D02*
X-386825Y256667D01*
X-386825Y258049D02*
X-390975Y258049D01*
X-390975Y259431D02*
X-386825Y259431D01*
X-386825Y260813D02*
X-390975Y260813D01*
X-390975Y262195D02*
X-386825Y262195D01*
X-386825Y263577D02*
X-390975Y263577D01*
X-390975Y264959D02*
X-386825Y264959D01*
X-386825Y266341D02*
X-390975Y266341D01*
X-381825Y266925D02*
X-381825Y248375D01*
X-385975Y248375D01*
X-385975Y266925D01*
X-381825Y266925D01*
X-381825Y249757D02*
X-385975Y249757D01*
X-385975Y251139D02*
X-381825Y251139D01*
X-381825Y252521D02*
X-385975Y252521D01*
X-385975Y253903D02*
X-381825Y253903D01*
X-381825Y255285D02*
X-385975Y255285D01*
X-385975Y256667D02*
X-381825Y256667D01*
X-381825Y258049D02*
X-385975Y258049D01*
X-385975Y259431D02*
X-381825Y259431D01*
X-381825Y260813D02*
X-385975Y260813D01*
X-385975Y262195D02*
X-381825Y262195D01*
X-381825Y263577D02*
X-385975Y263577D01*
X-385975Y264959D02*
X-381825Y264959D01*
X-381825Y266341D02*
X-385975Y266341D01*
X-376825Y266925D02*
X-376825Y248375D01*
X-380975Y248375D01*
X-380975Y266925D01*
X-376825Y266925D01*
X-376825Y249757D02*
X-380975Y249757D01*
X-380975Y251139D02*
X-376825Y251139D01*
X-376825Y252521D02*
X-380975Y252521D01*
X-380975Y253903D02*
X-376825Y253903D01*
X-376825Y255285D02*
X-380975Y255285D01*
X-380975Y256667D02*
X-376825Y256667D01*
X-376825Y258049D02*
X-380975Y258049D01*
X-380975Y259431D02*
X-376825Y259431D01*
X-376825Y260813D02*
X-380975Y260813D01*
X-380975Y262195D02*
X-376825Y262195D01*
X-376825Y263577D02*
X-380975Y263577D01*
X-380975Y264959D02*
X-376825Y264959D01*
X-376825Y266341D02*
X-380975Y266341D01*
X-371825Y266925D02*
X-371825Y248375D01*
X-375975Y248375D01*
X-375975Y266925D01*
X-371825Y266925D01*
X-371825Y249757D02*
X-375975Y249757D01*
X-375975Y251139D02*
X-371825Y251139D01*
X-371825Y252521D02*
X-375975Y252521D01*
X-375975Y253903D02*
X-371825Y253903D01*
X-371825Y255285D02*
X-375975Y255285D01*
X-375975Y256667D02*
X-371825Y256667D01*
X-371825Y258049D02*
X-375975Y258049D01*
X-375975Y259431D02*
X-371825Y259431D01*
X-371825Y260813D02*
X-375975Y260813D01*
X-375975Y262195D02*
X-371825Y262195D01*
X-371825Y263577D02*
X-375975Y263577D01*
X-375975Y264959D02*
X-371825Y264959D01*
X-371825Y266341D02*
X-375975Y266341D01*
X-366825Y266925D02*
X-366825Y248375D01*
X-370975Y248375D01*
X-370975Y266925D01*
X-366825Y266925D01*
X-366825Y249757D02*
X-370975Y249757D01*
X-370975Y251139D02*
X-366825Y251139D01*
X-366825Y252521D02*
X-370975Y252521D01*
X-370975Y253903D02*
X-366825Y253903D01*
X-366825Y255285D02*
X-370975Y255285D01*
X-370975Y256667D02*
X-366825Y256667D01*
X-366825Y258049D02*
X-370975Y258049D01*
X-370975Y259431D02*
X-366825Y259431D01*
X-366825Y260813D02*
X-370975Y260813D01*
X-370975Y262195D02*
X-366825Y262195D01*
X-366825Y263577D02*
X-370975Y263577D01*
X-370975Y264959D02*
X-366825Y264959D01*
X-366825Y266341D02*
X-370975Y266341D01*
X-361825Y266925D02*
X-361825Y248375D01*
X-365975Y248375D01*
X-365975Y266925D01*
X-361825Y266925D01*
X-361825Y249757D02*
X-365975Y249757D01*
X-365975Y251139D02*
X-361825Y251139D01*
X-361825Y252521D02*
X-365975Y252521D01*
X-365975Y253903D02*
X-361825Y253903D01*
X-361825Y255285D02*
X-365975Y255285D01*
X-365975Y256667D02*
X-361825Y256667D01*
X-361825Y258049D02*
X-365975Y258049D01*
X-365975Y259431D02*
X-361825Y259431D01*
X-361825Y260813D02*
X-365975Y260813D01*
X-365975Y262195D02*
X-361825Y262195D01*
X-361825Y263577D02*
X-365975Y263577D01*
X-365975Y264959D02*
X-361825Y264959D01*
X-361825Y266341D02*
X-365975Y266341D01*
X-361825Y342675D02*
X-361825Y361225D01*
X-361825Y342675D02*
X-365975Y342675D01*
X-365975Y361225D01*
X-361825Y361225D01*
X-361825Y344057D02*
X-365975Y344057D01*
X-365975Y345439D02*
X-361825Y345439D01*
X-361825Y346821D02*
X-365975Y346821D01*
X-365975Y348203D02*
X-361825Y348203D01*
X-361825Y349585D02*
X-365975Y349585D01*
X-365975Y350967D02*
X-361825Y350967D01*
X-361825Y352349D02*
X-365975Y352349D01*
X-365975Y353731D02*
X-361825Y353731D01*
X-361825Y355113D02*
X-365975Y355113D01*
X-365975Y356495D02*
X-361825Y356495D01*
X-361825Y357877D02*
X-365975Y357877D01*
X-365975Y359259D02*
X-361825Y359259D01*
X-361825Y360641D02*
X-365975Y360641D01*
X-366825Y361225D02*
X-366825Y342675D01*
X-370975Y342675D01*
X-370975Y361225D01*
X-366825Y361225D01*
X-366825Y344057D02*
X-370975Y344057D01*
X-370975Y345439D02*
X-366825Y345439D01*
X-366825Y346821D02*
X-370975Y346821D01*
X-370975Y348203D02*
X-366825Y348203D01*
X-366825Y349585D02*
X-370975Y349585D01*
X-370975Y350967D02*
X-366825Y350967D01*
X-366825Y352349D02*
X-370975Y352349D01*
X-370975Y353731D02*
X-366825Y353731D01*
X-366825Y355113D02*
X-370975Y355113D01*
X-370975Y356495D02*
X-366825Y356495D01*
X-366825Y357877D02*
X-370975Y357877D01*
X-370975Y359259D02*
X-366825Y359259D01*
X-366825Y360641D02*
X-370975Y360641D01*
X-371825Y361225D02*
X-371825Y342675D01*
X-375975Y342675D01*
X-375975Y361225D01*
X-371825Y361225D01*
X-371825Y344057D02*
X-375975Y344057D01*
X-375975Y345439D02*
X-371825Y345439D01*
X-371825Y346821D02*
X-375975Y346821D01*
X-375975Y348203D02*
X-371825Y348203D01*
X-371825Y349585D02*
X-375975Y349585D01*
X-375975Y350967D02*
X-371825Y350967D01*
X-371825Y352349D02*
X-375975Y352349D01*
X-375975Y353731D02*
X-371825Y353731D01*
X-371825Y355113D02*
X-375975Y355113D01*
X-375975Y356495D02*
X-371825Y356495D01*
X-371825Y357877D02*
X-375975Y357877D01*
X-375975Y359259D02*
X-371825Y359259D01*
X-371825Y360641D02*
X-375975Y360641D01*
X-376825Y361225D02*
X-376825Y342675D01*
X-380975Y342675D01*
X-380975Y361225D01*
X-376825Y361225D01*
X-376825Y344057D02*
X-380975Y344057D01*
X-380975Y345439D02*
X-376825Y345439D01*
X-376825Y346821D02*
X-380975Y346821D01*
X-380975Y348203D02*
X-376825Y348203D01*
X-376825Y349585D02*
X-380975Y349585D01*
X-380975Y350967D02*
X-376825Y350967D01*
X-376825Y352349D02*
X-380975Y352349D01*
X-380975Y353731D02*
X-376825Y353731D01*
X-376825Y355113D02*
X-380975Y355113D01*
X-380975Y356495D02*
X-376825Y356495D01*
X-376825Y357877D02*
X-380975Y357877D01*
X-380975Y359259D02*
X-376825Y359259D01*
X-376825Y360641D02*
X-380975Y360641D01*
X-381825Y361225D02*
X-381825Y342675D01*
X-385975Y342675D01*
X-385975Y361225D01*
X-381825Y361225D01*
X-381825Y344057D02*
X-385975Y344057D01*
X-385975Y345439D02*
X-381825Y345439D01*
X-381825Y346821D02*
X-385975Y346821D01*
X-385975Y348203D02*
X-381825Y348203D01*
X-381825Y349585D02*
X-385975Y349585D01*
X-385975Y350967D02*
X-381825Y350967D01*
X-381825Y352349D02*
X-385975Y352349D01*
X-385975Y353731D02*
X-381825Y353731D01*
X-381825Y355113D02*
X-385975Y355113D01*
X-385975Y356495D02*
X-381825Y356495D01*
X-381825Y357877D02*
X-385975Y357877D01*
X-385975Y359259D02*
X-381825Y359259D01*
X-381825Y360641D02*
X-385975Y360641D01*
X-386825Y361225D02*
X-386825Y342675D01*
X-390975Y342675D01*
X-390975Y361225D01*
X-386825Y361225D01*
X-386825Y344057D02*
X-390975Y344057D01*
X-390975Y345439D02*
X-386825Y345439D01*
X-386825Y346821D02*
X-390975Y346821D01*
X-390975Y348203D02*
X-386825Y348203D01*
X-386825Y349585D02*
X-390975Y349585D01*
X-390975Y350967D02*
X-386825Y350967D01*
X-386825Y352349D02*
X-390975Y352349D01*
X-390975Y353731D02*
X-386825Y353731D01*
X-386825Y355113D02*
X-390975Y355113D01*
X-390975Y356495D02*
X-386825Y356495D01*
X-386825Y357877D02*
X-390975Y357877D01*
X-390975Y359259D02*
X-386825Y359259D01*
X-386825Y360641D02*
X-390975Y360641D01*
X-391825Y361225D02*
X-391825Y342675D01*
X-395975Y342675D01*
X-395975Y361225D01*
X-391825Y361225D01*
X-391825Y344057D02*
X-395975Y344057D01*
X-395975Y345439D02*
X-391825Y345439D01*
X-391825Y346821D02*
X-395975Y346821D01*
X-395975Y348203D02*
X-391825Y348203D01*
X-391825Y349585D02*
X-395975Y349585D01*
X-395975Y350967D02*
X-391825Y350967D01*
X-391825Y352349D02*
X-395975Y352349D01*
X-395975Y353731D02*
X-391825Y353731D01*
X-391825Y355113D02*
X-395975Y355113D01*
X-395975Y356495D02*
X-391825Y356495D01*
X-391825Y357877D02*
X-395975Y357877D01*
X-395975Y359259D02*
X-391825Y359259D01*
X-391825Y360641D02*
X-395975Y360641D01*
X-396825Y361225D02*
X-396825Y342675D01*
X-400975Y342675D01*
X-400975Y361225D01*
X-396825Y361225D01*
X-396825Y344057D02*
X-400975Y344057D01*
X-400975Y345439D02*
X-396825Y345439D01*
X-396825Y346821D02*
X-400975Y346821D01*
X-400975Y348203D02*
X-396825Y348203D01*
X-396825Y349585D02*
X-400975Y349585D01*
X-400975Y350967D02*
X-396825Y350967D01*
X-396825Y352349D02*
X-400975Y352349D01*
X-400975Y353731D02*
X-396825Y353731D01*
X-396825Y355113D02*
X-400975Y355113D01*
X-400975Y356495D02*
X-396825Y356495D01*
X-396825Y357877D02*
X-400975Y357877D01*
X-400975Y359259D02*
X-396825Y359259D01*
X-396825Y360641D02*
X-400975Y360641D01*
X-401825Y361225D02*
X-401825Y342675D01*
X-405975Y342675D01*
X-405975Y361225D01*
X-401825Y361225D01*
X-401825Y344057D02*
X-405975Y344057D01*
X-405975Y345439D02*
X-401825Y345439D01*
X-401825Y346821D02*
X-405975Y346821D01*
X-405975Y348203D02*
X-401825Y348203D01*
X-401825Y349585D02*
X-405975Y349585D01*
X-405975Y350967D02*
X-401825Y350967D01*
X-401825Y352349D02*
X-405975Y352349D01*
X-405975Y353731D02*
X-401825Y353731D01*
X-401825Y355113D02*
X-405975Y355113D01*
X-405975Y356495D02*
X-401825Y356495D01*
X-401825Y357877D02*
X-405975Y357877D01*
X-405975Y359259D02*
X-401825Y359259D01*
X-401825Y360641D02*
X-405975Y360641D01*
X-406825Y361225D02*
X-406825Y342675D01*
X-410975Y342675D01*
X-410975Y361225D01*
X-406825Y361225D01*
X-406825Y344057D02*
X-410975Y344057D01*
X-410975Y345439D02*
X-406825Y345439D01*
X-406825Y346821D02*
X-410975Y346821D01*
X-410975Y348203D02*
X-406825Y348203D01*
X-406825Y349585D02*
X-410975Y349585D01*
X-410975Y350967D02*
X-406825Y350967D01*
X-406825Y352349D02*
X-410975Y352349D01*
X-410975Y353731D02*
X-406825Y353731D01*
X-406825Y355113D02*
X-410975Y355113D01*
X-410975Y356495D02*
X-406825Y356495D01*
X-406825Y357877D02*
X-410975Y357877D01*
X-410975Y359259D02*
X-406825Y359259D01*
X-406825Y360641D02*
X-410975Y360641D01*
X-411825Y361225D02*
X-411825Y342675D01*
X-415975Y342675D01*
X-415975Y361225D01*
X-411825Y361225D01*
X-411825Y344057D02*
X-415975Y344057D01*
X-415975Y345439D02*
X-411825Y345439D01*
X-411825Y346821D02*
X-415975Y346821D01*
X-415975Y348203D02*
X-411825Y348203D01*
X-411825Y349585D02*
X-415975Y349585D01*
X-415975Y350967D02*
X-411825Y350967D01*
X-411825Y352349D02*
X-415975Y352349D01*
X-415975Y353731D02*
X-411825Y353731D01*
X-411825Y355113D02*
X-415975Y355113D01*
X-415975Y356495D02*
X-411825Y356495D01*
X-411825Y357877D02*
X-415975Y357877D01*
X-415975Y359259D02*
X-411825Y359259D01*
X-411825Y360641D02*
X-415975Y360641D01*
X-416825Y361225D02*
X-416825Y342675D01*
X-420975Y342675D01*
X-420975Y361225D01*
X-416825Y361225D01*
X-416825Y344057D02*
X-420975Y344057D01*
X-420975Y345439D02*
X-416825Y345439D01*
X-416825Y346821D02*
X-420975Y346821D01*
X-420975Y348203D02*
X-416825Y348203D01*
X-416825Y349585D02*
X-420975Y349585D01*
X-420975Y350967D02*
X-416825Y350967D01*
X-416825Y352349D02*
X-420975Y352349D01*
X-420975Y353731D02*
X-416825Y353731D01*
X-416825Y355113D02*
X-420975Y355113D01*
X-420975Y356495D02*
X-416825Y356495D01*
X-416825Y357877D02*
X-420975Y357877D01*
X-420975Y359259D02*
X-416825Y359259D01*
X-416825Y360641D02*
X-420975Y360641D01*
X-421825Y361225D02*
X-421825Y342675D01*
X-425975Y342675D01*
X-425975Y361225D01*
X-421825Y361225D01*
X-421825Y344057D02*
X-425975Y344057D01*
X-425975Y345439D02*
X-421825Y345439D01*
X-421825Y346821D02*
X-425975Y346821D01*
X-425975Y348203D02*
X-421825Y348203D01*
X-421825Y349585D02*
X-425975Y349585D01*
X-425975Y350967D02*
X-421825Y350967D01*
X-421825Y352349D02*
X-425975Y352349D01*
X-425975Y353731D02*
X-421825Y353731D01*
X-421825Y355113D02*
X-425975Y355113D01*
X-425975Y356495D02*
X-421825Y356495D01*
X-421825Y357877D02*
X-425975Y357877D01*
X-425975Y359259D02*
X-421825Y359259D01*
X-421825Y360641D02*
X-425975Y360641D01*
X-426825Y361225D02*
X-426825Y342675D01*
X-430975Y342675D01*
X-430975Y361225D01*
X-426825Y361225D01*
X-426825Y344057D02*
X-430975Y344057D01*
X-430975Y345439D02*
X-426825Y345439D01*
X-426825Y346821D02*
X-430975Y346821D01*
X-430975Y348203D02*
X-426825Y348203D01*
X-426825Y349585D02*
X-430975Y349585D01*
X-430975Y350967D02*
X-426825Y350967D01*
X-426825Y352349D02*
X-430975Y352349D01*
X-430975Y353731D02*
X-426825Y353731D01*
X-426825Y355113D02*
X-430975Y355113D01*
X-430975Y356495D02*
X-426825Y356495D01*
X-426825Y357877D02*
X-430975Y357877D01*
X-430975Y359259D02*
X-426825Y359259D01*
X-426825Y360641D02*
X-430975Y360641D01*
X-431825Y361225D02*
X-431825Y342675D01*
X-435975Y342675D01*
X-435975Y361225D01*
X-431825Y361225D01*
X-431825Y344057D02*
X-435975Y344057D01*
X-435975Y345439D02*
X-431825Y345439D01*
X-431825Y346821D02*
X-435975Y346821D01*
X-435975Y348203D02*
X-431825Y348203D01*
X-431825Y349585D02*
X-435975Y349585D01*
X-435975Y350967D02*
X-431825Y350967D01*
X-431825Y352349D02*
X-435975Y352349D01*
X-435975Y353731D02*
X-431825Y353731D01*
X-431825Y355113D02*
X-435975Y355113D01*
X-435975Y356495D02*
X-431825Y356495D01*
X-431825Y357877D02*
X-435975Y357877D01*
X-435975Y359259D02*
X-431825Y359259D01*
X-431825Y360641D02*
X-435975Y360641D01*
X-436825Y361225D02*
X-436825Y342675D01*
X-440975Y342675D01*
X-440975Y361225D01*
X-436825Y361225D01*
X-436825Y344057D02*
X-440975Y344057D01*
X-440975Y345439D02*
X-436825Y345439D01*
X-436825Y346821D02*
X-440975Y346821D01*
X-440975Y348203D02*
X-436825Y348203D01*
X-436825Y349585D02*
X-440975Y349585D01*
X-440975Y350967D02*
X-436825Y350967D01*
X-436825Y352349D02*
X-440975Y352349D01*
X-440975Y353731D02*
X-436825Y353731D01*
X-436825Y355113D02*
X-440975Y355113D01*
X-440975Y356495D02*
X-436825Y356495D01*
X-436825Y357877D02*
X-440975Y357877D01*
X-440975Y359259D02*
X-436825Y359259D01*
X-436825Y360641D02*
X-440975Y360641D01*
X-441825Y361225D02*
X-441825Y342675D01*
X-445975Y342675D01*
X-445975Y361225D01*
X-441825Y361225D01*
X-441825Y344057D02*
X-445975Y344057D01*
X-445975Y345439D02*
X-441825Y345439D01*
X-441825Y346821D02*
X-445975Y346821D01*
X-445975Y348203D02*
X-441825Y348203D01*
X-441825Y349585D02*
X-445975Y349585D01*
X-445975Y350967D02*
X-441825Y350967D01*
X-441825Y352349D02*
X-445975Y352349D01*
X-445975Y353731D02*
X-441825Y353731D01*
X-441825Y355113D02*
X-445975Y355113D01*
X-445975Y356495D02*
X-441825Y356495D01*
X-441825Y357877D02*
X-445975Y357877D01*
X-445975Y359259D02*
X-441825Y359259D01*
X-441825Y360641D02*
X-445975Y360641D01*
X-446825Y361225D02*
X-446825Y342675D01*
X-450975Y342675D01*
X-450975Y361225D01*
X-446825Y361225D01*
X-446825Y344057D02*
X-450975Y344057D01*
X-450975Y345439D02*
X-446825Y345439D01*
X-446825Y346821D02*
X-450975Y346821D01*
X-450975Y348203D02*
X-446825Y348203D01*
X-446825Y349585D02*
X-450975Y349585D01*
X-450975Y350967D02*
X-446825Y350967D01*
X-446825Y352349D02*
X-450975Y352349D01*
X-450975Y353731D02*
X-446825Y353731D01*
X-446825Y355113D02*
X-450975Y355113D01*
X-450975Y356495D02*
X-446825Y356495D01*
X-446825Y357877D02*
X-450975Y357877D01*
X-450975Y359259D02*
X-446825Y359259D01*
X-446825Y360641D02*
X-450975Y360641D01*
D39*
X-409746Y331124D02*
X-409746Y307476D01*
X-443554Y307476D01*
X-443554Y331124D01*
X-409746Y331124D01*
X-409746Y308720D02*
X-443554Y308720D01*
X-443554Y309964D02*
X-409746Y309964D01*
X-409746Y311208D02*
X-443554Y311208D01*
X-443554Y312452D02*
X-409746Y312452D01*
X-409746Y313696D02*
X-443554Y313696D01*
X-443554Y314940D02*
X-409746Y314940D01*
X-409746Y316184D02*
X-443554Y316184D01*
X-443554Y317428D02*
X-409746Y317428D01*
X-409746Y318672D02*
X-443554Y318672D01*
X-443554Y319916D02*
X-409746Y319916D01*
X-409746Y321160D02*
X-443554Y321160D01*
X-443554Y322404D02*
X-409746Y322404D01*
X-409746Y323648D02*
X-443554Y323648D01*
X-443554Y324892D02*
X-409746Y324892D01*
X-409746Y326136D02*
X-443554Y326136D01*
X-443554Y327380D02*
X-409746Y327380D01*
X-409746Y328624D02*
X-443554Y328624D01*
X-443554Y329868D02*
X-409746Y329868D01*
X-409746Y331112D02*
X-443554Y331112D01*
X-409746Y302124D02*
X-409746Y278476D01*
X-443554Y278476D01*
X-443554Y302124D01*
X-409746Y302124D01*
X-409746Y279720D02*
X-443554Y279720D01*
X-443554Y280964D02*
X-409746Y280964D01*
X-409746Y282208D02*
X-443554Y282208D01*
X-443554Y283452D02*
X-409746Y283452D01*
X-409746Y284696D02*
X-443554Y284696D01*
X-443554Y285940D02*
X-409746Y285940D01*
X-409746Y287184D02*
X-443554Y287184D01*
X-443554Y288428D02*
X-409746Y288428D01*
X-409746Y289672D02*
X-443554Y289672D01*
X-443554Y290916D02*
X-409746Y290916D01*
X-409746Y292160D02*
X-443554Y292160D01*
X-443554Y293404D02*
X-409746Y293404D01*
X-409746Y294648D02*
X-443554Y294648D01*
X-443554Y295892D02*
X-409746Y295892D01*
X-409746Y297136D02*
X-443554Y297136D01*
X-443554Y298380D02*
X-409746Y298380D01*
X-409746Y299624D02*
X-443554Y299624D01*
X-443554Y300868D02*
X-409746Y300868D01*
X-409746Y302112D02*
X-443554Y302112D01*
D40*
X-369747Y279897D02*
X-369747Y329703D01*
X-369747Y279897D02*
X-402553Y279897D01*
X-402553Y329703D01*
X-369747Y329703D01*
X-369747Y281623D02*
X-402553Y281623D01*
X-402553Y283349D02*
X-369747Y283349D01*
X-369747Y285075D02*
X-402553Y285075D01*
X-402553Y286801D02*
X-369747Y286801D01*
X-369747Y288527D02*
X-402553Y288527D01*
X-402553Y290253D02*
X-369747Y290253D01*
X-369747Y291979D02*
X-402553Y291979D01*
X-402553Y293705D02*
X-369747Y293705D01*
X-369747Y295431D02*
X-402553Y295431D01*
X-402553Y297157D02*
X-369747Y297157D01*
X-369747Y298883D02*
X-402553Y298883D01*
X-402553Y300609D02*
X-369747Y300609D01*
X-369747Y302335D02*
X-402553Y302335D01*
X-402553Y304061D02*
X-369747Y304061D01*
X-369747Y305787D02*
X-402553Y305787D01*
X-402553Y307513D02*
X-369747Y307513D01*
X-369747Y309239D02*
X-402553Y309239D01*
X-402553Y310965D02*
X-369747Y310965D01*
X-369747Y312691D02*
X-402553Y312691D01*
X-402553Y314417D02*
X-369747Y314417D01*
X-369747Y316143D02*
X-402553Y316143D01*
X-402553Y317869D02*
X-369747Y317869D01*
X-369747Y319595D02*
X-402553Y319595D01*
X-402553Y321321D02*
X-369747Y321321D01*
X-369747Y323047D02*
X-402553Y323047D01*
X-402553Y324773D02*
X-369747Y324773D01*
X-369747Y326499D02*
X-402553Y326499D01*
X-402553Y328225D02*
X-369747Y328225D01*
D17*
X-402200Y233680D03*
X-385200Y233680D03*
X-402200Y381000D03*
X-385200Y381000D03*
X-491100Y241300D03*
X-474100Y241300D03*
X-474100Y266700D03*
X-491100Y266700D03*
X-364100Y381000D03*
X-347100Y381000D03*
D18*
X-495300Y296300D03*
X-495300Y313300D03*
D41*
X-304800Y287020D03*
D42*
X-304800Y322580D03*
D43*
X-476250Y294800D03*
X-476250Y314800D03*
D38*
X-535725Y63725D02*
X-535725Y45175D01*
X-539875Y45175D01*
X-539875Y63725D01*
X-535725Y63725D01*
X-535725Y46557D02*
X-539875Y46557D01*
X-539875Y47939D02*
X-535725Y47939D01*
X-535725Y49321D02*
X-539875Y49321D01*
X-539875Y50703D02*
X-535725Y50703D01*
X-535725Y52085D02*
X-539875Y52085D01*
X-539875Y53467D02*
X-535725Y53467D01*
X-535725Y54849D02*
X-539875Y54849D01*
X-539875Y56231D02*
X-535725Y56231D01*
X-535725Y57613D02*
X-539875Y57613D01*
X-539875Y58995D02*
X-535725Y58995D01*
X-535725Y60377D02*
X-539875Y60377D01*
X-539875Y61759D02*
X-535725Y61759D01*
X-535725Y63141D02*
X-539875Y63141D01*
X-530725Y63725D02*
X-530725Y45175D01*
X-534875Y45175D01*
X-534875Y63725D01*
X-530725Y63725D01*
X-530725Y46557D02*
X-534875Y46557D01*
X-534875Y47939D02*
X-530725Y47939D01*
X-530725Y49321D02*
X-534875Y49321D01*
X-534875Y50703D02*
X-530725Y50703D01*
X-530725Y52085D02*
X-534875Y52085D01*
X-534875Y53467D02*
X-530725Y53467D01*
X-530725Y54849D02*
X-534875Y54849D01*
X-534875Y56231D02*
X-530725Y56231D01*
X-530725Y57613D02*
X-534875Y57613D01*
X-534875Y58995D02*
X-530725Y58995D01*
X-530725Y60377D02*
X-534875Y60377D01*
X-534875Y61759D02*
X-530725Y61759D01*
X-530725Y63141D02*
X-534875Y63141D01*
X-525725Y63725D02*
X-525725Y45175D01*
X-529875Y45175D01*
X-529875Y63725D01*
X-525725Y63725D01*
X-525725Y46557D02*
X-529875Y46557D01*
X-529875Y47939D02*
X-525725Y47939D01*
X-525725Y49321D02*
X-529875Y49321D01*
X-529875Y50703D02*
X-525725Y50703D01*
X-525725Y52085D02*
X-529875Y52085D01*
X-529875Y53467D02*
X-525725Y53467D01*
X-525725Y54849D02*
X-529875Y54849D01*
X-529875Y56231D02*
X-525725Y56231D01*
X-525725Y57613D02*
X-529875Y57613D01*
X-529875Y58995D02*
X-525725Y58995D01*
X-525725Y60377D02*
X-529875Y60377D01*
X-529875Y61759D02*
X-525725Y61759D01*
X-525725Y63141D02*
X-529875Y63141D01*
X-520725Y63725D02*
X-520725Y45175D01*
X-524875Y45175D01*
X-524875Y63725D01*
X-520725Y63725D01*
X-520725Y46557D02*
X-524875Y46557D01*
X-524875Y47939D02*
X-520725Y47939D01*
X-520725Y49321D02*
X-524875Y49321D01*
X-524875Y50703D02*
X-520725Y50703D01*
X-520725Y52085D02*
X-524875Y52085D01*
X-524875Y53467D02*
X-520725Y53467D01*
X-520725Y54849D02*
X-524875Y54849D01*
X-524875Y56231D02*
X-520725Y56231D01*
X-520725Y57613D02*
X-524875Y57613D01*
X-524875Y58995D02*
X-520725Y58995D01*
X-520725Y60377D02*
X-524875Y60377D01*
X-524875Y61759D02*
X-520725Y61759D01*
X-520725Y63141D02*
X-524875Y63141D01*
X-515725Y63725D02*
X-515725Y45175D01*
X-519875Y45175D01*
X-519875Y63725D01*
X-515725Y63725D01*
X-515725Y46557D02*
X-519875Y46557D01*
X-519875Y47939D02*
X-515725Y47939D01*
X-515725Y49321D02*
X-519875Y49321D01*
X-519875Y50703D02*
X-515725Y50703D01*
X-515725Y52085D02*
X-519875Y52085D01*
X-519875Y53467D02*
X-515725Y53467D01*
X-515725Y54849D02*
X-519875Y54849D01*
X-519875Y56231D02*
X-515725Y56231D01*
X-515725Y57613D02*
X-519875Y57613D01*
X-519875Y58995D02*
X-515725Y58995D01*
X-515725Y60377D02*
X-519875Y60377D01*
X-519875Y61759D02*
X-515725Y61759D01*
X-515725Y63141D02*
X-519875Y63141D01*
X-510725Y63725D02*
X-510725Y45175D01*
X-514875Y45175D01*
X-514875Y63725D01*
X-510725Y63725D01*
X-510725Y46557D02*
X-514875Y46557D01*
X-514875Y47939D02*
X-510725Y47939D01*
X-510725Y49321D02*
X-514875Y49321D01*
X-514875Y50703D02*
X-510725Y50703D01*
X-510725Y52085D02*
X-514875Y52085D01*
X-514875Y53467D02*
X-510725Y53467D01*
X-510725Y54849D02*
X-514875Y54849D01*
X-514875Y56231D02*
X-510725Y56231D01*
X-510725Y57613D02*
X-514875Y57613D01*
X-514875Y58995D02*
X-510725Y58995D01*
X-510725Y60377D02*
X-514875Y60377D01*
X-514875Y61759D02*
X-510725Y61759D01*
X-510725Y63141D02*
X-514875Y63141D01*
X-505725Y63725D02*
X-505725Y45175D01*
X-509875Y45175D01*
X-509875Y63725D01*
X-505725Y63725D01*
X-505725Y46557D02*
X-509875Y46557D01*
X-509875Y47939D02*
X-505725Y47939D01*
X-505725Y49321D02*
X-509875Y49321D01*
X-509875Y50703D02*
X-505725Y50703D01*
X-505725Y52085D02*
X-509875Y52085D01*
X-509875Y53467D02*
X-505725Y53467D01*
X-505725Y54849D02*
X-509875Y54849D01*
X-509875Y56231D02*
X-505725Y56231D01*
X-505725Y57613D02*
X-509875Y57613D01*
X-509875Y58995D02*
X-505725Y58995D01*
X-505725Y60377D02*
X-509875Y60377D01*
X-509875Y61759D02*
X-505725Y61759D01*
X-505725Y63141D02*
X-509875Y63141D01*
X-500725Y63725D02*
X-500725Y45175D01*
X-504875Y45175D01*
X-504875Y63725D01*
X-500725Y63725D01*
X-500725Y46557D02*
X-504875Y46557D01*
X-504875Y47939D02*
X-500725Y47939D01*
X-500725Y49321D02*
X-504875Y49321D01*
X-504875Y50703D02*
X-500725Y50703D01*
X-500725Y52085D02*
X-504875Y52085D01*
X-504875Y53467D02*
X-500725Y53467D01*
X-500725Y54849D02*
X-504875Y54849D01*
X-504875Y56231D02*
X-500725Y56231D01*
X-500725Y57613D02*
X-504875Y57613D01*
X-504875Y58995D02*
X-500725Y58995D01*
X-500725Y60377D02*
X-504875Y60377D01*
X-504875Y61759D02*
X-500725Y61759D01*
X-500725Y63141D02*
X-504875Y63141D01*
X-495725Y63725D02*
X-495725Y45175D01*
X-499875Y45175D01*
X-499875Y63725D01*
X-495725Y63725D01*
X-495725Y46557D02*
X-499875Y46557D01*
X-499875Y47939D02*
X-495725Y47939D01*
X-495725Y49321D02*
X-499875Y49321D01*
X-499875Y50703D02*
X-495725Y50703D01*
X-495725Y52085D02*
X-499875Y52085D01*
X-499875Y53467D02*
X-495725Y53467D01*
X-495725Y54849D02*
X-499875Y54849D01*
X-499875Y56231D02*
X-495725Y56231D01*
X-495725Y57613D02*
X-499875Y57613D01*
X-499875Y58995D02*
X-495725Y58995D01*
X-495725Y60377D02*
X-499875Y60377D01*
X-499875Y61759D02*
X-495725Y61759D01*
X-495725Y63141D02*
X-499875Y63141D01*
X-490725Y63725D02*
X-490725Y45175D01*
X-494875Y45175D01*
X-494875Y63725D01*
X-490725Y63725D01*
X-490725Y46557D02*
X-494875Y46557D01*
X-494875Y47939D02*
X-490725Y47939D01*
X-490725Y49321D02*
X-494875Y49321D01*
X-494875Y50703D02*
X-490725Y50703D01*
X-490725Y52085D02*
X-494875Y52085D01*
X-494875Y53467D02*
X-490725Y53467D01*
X-490725Y54849D02*
X-494875Y54849D01*
X-494875Y56231D02*
X-490725Y56231D01*
X-490725Y57613D02*
X-494875Y57613D01*
X-494875Y58995D02*
X-490725Y58995D01*
X-490725Y60377D02*
X-494875Y60377D01*
X-494875Y61759D02*
X-490725Y61759D01*
X-490725Y63141D02*
X-494875Y63141D01*
X-485725Y63725D02*
X-485725Y45175D01*
X-489875Y45175D01*
X-489875Y63725D01*
X-485725Y63725D01*
X-485725Y46557D02*
X-489875Y46557D01*
X-489875Y47939D02*
X-485725Y47939D01*
X-485725Y49321D02*
X-489875Y49321D01*
X-489875Y50703D02*
X-485725Y50703D01*
X-485725Y52085D02*
X-489875Y52085D01*
X-489875Y53467D02*
X-485725Y53467D01*
X-485725Y54849D02*
X-489875Y54849D01*
X-489875Y56231D02*
X-485725Y56231D01*
X-485725Y57613D02*
X-489875Y57613D01*
X-489875Y58995D02*
X-485725Y58995D01*
X-485725Y60377D02*
X-489875Y60377D01*
X-489875Y61759D02*
X-485725Y61759D01*
X-485725Y63141D02*
X-489875Y63141D01*
X-480725Y63725D02*
X-480725Y45175D01*
X-484875Y45175D01*
X-484875Y63725D01*
X-480725Y63725D01*
X-480725Y46557D02*
X-484875Y46557D01*
X-484875Y47939D02*
X-480725Y47939D01*
X-480725Y49321D02*
X-484875Y49321D01*
X-484875Y50703D02*
X-480725Y50703D01*
X-480725Y52085D02*
X-484875Y52085D01*
X-484875Y53467D02*
X-480725Y53467D01*
X-480725Y54849D02*
X-484875Y54849D01*
X-484875Y56231D02*
X-480725Y56231D01*
X-480725Y57613D02*
X-484875Y57613D01*
X-484875Y58995D02*
X-480725Y58995D01*
X-480725Y60377D02*
X-484875Y60377D01*
X-484875Y61759D02*
X-480725Y61759D01*
X-480725Y63141D02*
X-484875Y63141D01*
X-475725Y63725D02*
X-475725Y45175D01*
X-479875Y45175D01*
X-479875Y63725D01*
X-475725Y63725D01*
X-475725Y46557D02*
X-479875Y46557D01*
X-479875Y47939D02*
X-475725Y47939D01*
X-475725Y49321D02*
X-479875Y49321D01*
X-479875Y50703D02*
X-475725Y50703D01*
X-475725Y52085D02*
X-479875Y52085D01*
X-479875Y53467D02*
X-475725Y53467D01*
X-475725Y54849D02*
X-479875Y54849D01*
X-479875Y56231D02*
X-475725Y56231D01*
X-475725Y57613D02*
X-479875Y57613D01*
X-479875Y58995D02*
X-475725Y58995D01*
X-475725Y60377D02*
X-479875Y60377D01*
X-479875Y61759D02*
X-475725Y61759D01*
X-475725Y63141D02*
X-479875Y63141D01*
X-470725Y63725D02*
X-470725Y45175D01*
X-474875Y45175D01*
X-474875Y63725D01*
X-470725Y63725D01*
X-470725Y46557D02*
X-474875Y46557D01*
X-474875Y47939D02*
X-470725Y47939D01*
X-470725Y49321D02*
X-474875Y49321D01*
X-474875Y50703D02*
X-470725Y50703D01*
X-470725Y52085D02*
X-474875Y52085D01*
X-474875Y53467D02*
X-470725Y53467D01*
X-470725Y54849D02*
X-474875Y54849D01*
X-474875Y56231D02*
X-470725Y56231D01*
X-470725Y57613D02*
X-474875Y57613D01*
X-474875Y58995D02*
X-470725Y58995D01*
X-470725Y60377D02*
X-474875Y60377D01*
X-474875Y61759D02*
X-470725Y61759D01*
X-470725Y63141D02*
X-474875Y63141D01*
X-465725Y63725D02*
X-465725Y45175D01*
X-469875Y45175D01*
X-469875Y63725D01*
X-465725Y63725D01*
X-465725Y46557D02*
X-469875Y46557D01*
X-469875Y47939D02*
X-465725Y47939D01*
X-465725Y49321D02*
X-469875Y49321D01*
X-469875Y50703D02*
X-465725Y50703D01*
X-465725Y52085D02*
X-469875Y52085D01*
X-469875Y53467D02*
X-465725Y53467D01*
X-465725Y54849D02*
X-469875Y54849D01*
X-469875Y56231D02*
X-465725Y56231D01*
X-465725Y57613D02*
X-469875Y57613D01*
X-469875Y58995D02*
X-465725Y58995D01*
X-465725Y60377D02*
X-469875Y60377D01*
X-469875Y61759D02*
X-465725Y61759D01*
X-465725Y63141D02*
X-469875Y63141D01*
X-460725Y63725D02*
X-460725Y45175D01*
X-464875Y45175D01*
X-464875Y63725D01*
X-460725Y63725D01*
X-460725Y46557D02*
X-464875Y46557D01*
X-464875Y47939D02*
X-460725Y47939D01*
X-460725Y49321D02*
X-464875Y49321D01*
X-464875Y50703D02*
X-460725Y50703D01*
X-460725Y52085D02*
X-464875Y52085D01*
X-464875Y53467D02*
X-460725Y53467D01*
X-460725Y54849D02*
X-464875Y54849D01*
X-464875Y56231D02*
X-460725Y56231D01*
X-460725Y57613D02*
X-464875Y57613D01*
X-464875Y58995D02*
X-460725Y58995D01*
X-460725Y60377D02*
X-464875Y60377D01*
X-464875Y61759D02*
X-460725Y61759D01*
X-460725Y63141D02*
X-464875Y63141D01*
X-455725Y63725D02*
X-455725Y45175D01*
X-459875Y45175D01*
X-459875Y63725D01*
X-455725Y63725D01*
X-455725Y46557D02*
X-459875Y46557D01*
X-459875Y47939D02*
X-455725Y47939D01*
X-455725Y49321D02*
X-459875Y49321D01*
X-459875Y50703D02*
X-455725Y50703D01*
X-455725Y52085D02*
X-459875Y52085D01*
X-459875Y53467D02*
X-455725Y53467D01*
X-455725Y54849D02*
X-459875Y54849D01*
X-459875Y56231D02*
X-455725Y56231D01*
X-455725Y57613D02*
X-459875Y57613D01*
X-459875Y58995D02*
X-455725Y58995D01*
X-455725Y60377D02*
X-459875Y60377D01*
X-459875Y61759D02*
X-455725Y61759D01*
X-455725Y63141D02*
X-459875Y63141D01*
X-450725Y63725D02*
X-450725Y45175D01*
X-454875Y45175D01*
X-454875Y63725D01*
X-450725Y63725D01*
X-450725Y46557D02*
X-454875Y46557D01*
X-454875Y47939D02*
X-450725Y47939D01*
X-450725Y49321D02*
X-454875Y49321D01*
X-454875Y50703D02*
X-450725Y50703D01*
X-450725Y52085D02*
X-454875Y52085D01*
X-454875Y53467D02*
X-450725Y53467D01*
X-450725Y54849D02*
X-454875Y54849D01*
X-454875Y56231D02*
X-450725Y56231D01*
X-450725Y57613D02*
X-454875Y57613D01*
X-454875Y58995D02*
X-450725Y58995D01*
X-450725Y60377D02*
X-454875Y60377D01*
X-454875Y61759D02*
X-450725Y61759D01*
X-450725Y63141D02*
X-454875Y63141D01*
X-450725Y139475D02*
X-450725Y158025D01*
X-450725Y139475D02*
X-454875Y139475D01*
X-454875Y158025D01*
X-450725Y158025D01*
X-450725Y140857D02*
X-454875Y140857D01*
X-454875Y142239D02*
X-450725Y142239D01*
X-450725Y143621D02*
X-454875Y143621D01*
X-454875Y145003D02*
X-450725Y145003D01*
X-450725Y146385D02*
X-454875Y146385D01*
X-454875Y147767D02*
X-450725Y147767D01*
X-450725Y149149D02*
X-454875Y149149D01*
X-454875Y150531D02*
X-450725Y150531D01*
X-450725Y151913D02*
X-454875Y151913D01*
X-454875Y153295D02*
X-450725Y153295D01*
X-450725Y154677D02*
X-454875Y154677D01*
X-454875Y156059D02*
X-450725Y156059D01*
X-450725Y157441D02*
X-454875Y157441D01*
X-455725Y158025D02*
X-455725Y139475D01*
X-459875Y139475D01*
X-459875Y158025D01*
X-455725Y158025D01*
X-455725Y140857D02*
X-459875Y140857D01*
X-459875Y142239D02*
X-455725Y142239D01*
X-455725Y143621D02*
X-459875Y143621D01*
X-459875Y145003D02*
X-455725Y145003D01*
X-455725Y146385D02*
X-459875Y146385D01*
X-459875Y147767D02*
X-455725Y147767D01*
X-455725Y149149D02*
X-459875Y149149D01*
X-459875Y150531D02*
X-455725Y150531D01*
X-455725Y151913D02*
X-459875Y151913D01*
X-459875Y153295D02*
X-455725Y153295D01*
X-455725Y154677D02*
X-459875Y154677D01*
X-459875Y156059D02*
X-455725Y156059D01*
X-455725Y157441D02*
X-459875Y157441D01*
X-460725Y158025D02*
X-460725Y139475D01*
X-464875Y139475D01*
X-464875Y158025D01*
X-460725Y158025D01*
X-460725Y140857D02*
X-464875Y140857D01*
X-464875Y142239D02*
X-460725Y142239D01*
X-460725Y143621D02*
X-464875Y143621D01*
X-464875Y145003D02*
X-460725Y145003D01*
X-460725Y146385D02*
X-464875Y146385D01*
X-464875Y147767D02*
X-460725Y147767D01*
X-460725Y149149D02*
X-464875Y149149D01*
X-464875Y150531D02*
X-460725Y150531D01*
X-460725Y151913D02*
X-464875Y151913D01*
X-464875Y153295D02*
X-460725Y153295D01*
X-460725Y154677D02*
X-464875Y154677D01*
X-464875Y156059D02*
X-460725Y156059D01*
X-460725Y157441D02*
X-464875Y157441D01*
X-465725Y158025D02*
X-465725Y139475D01*
X-469875Y139475D01*
X-469875Y158025D01*
X-465725Y158025D01*
X-465725Y140857D02*
X-469875Y140857D01*
X-469875Y142239D02*
X-465725Y142239D01*
X-465725Y143621D02*
X-469875Y143621D01*
X-469875Y145003D02*
X-465725Y145003D01*
X-465725Y146385D02*
X-469875Y146385D01*
X-469875Y147767D02*
X-465725Y147767D01*
X-465725Y149149D02*
X-469875Y149149D01*
X-469875Y150531D02*
X-465725Y150531D01*
X-465725Y151913D02*
X-469875Y151913D01*
X-469875Y153295D02*
X-465725Y153295D01*
X-465725Y154677D02*
X-469875Y154677D01*
X-469875Y156059D02*
X-465725Y156059D01*
X-465725Y157441D02*
X-469875Y157441D01*
X-470725Y158025D02*
X-470725Y139475D01*
X-474875Y139475D01*
X-474875Y158025D01*
X-470725Y158025D01*
X-470725Y140857D02*
X-474875Y140857D01*
X-474875Y142239D02*
X-470725Y142239D01*
X-470725Y143621D02*
X-474875Y143621D01*
X-474875Y145003D02*
X-470725Y145003D01*
X-470725Y146385D02*
X-474875Y146385D01*
X-474875Y147767D02*
X-470725Y147767D01*
X-470725Y149149D02*
X-474875Y149149D01*
X-474875Y150531D02*
X-470725Y150531D01*
X-470725Y151913D02*
X-474875Y151913D01*
X-474875Y153295D02*
X-470725Y153295D01*
X-470725Y154677D02*
X-474875Y154677D01*
X-474875Y156059D02*
X-470725Y156059D01*
X-470725Y157441D02*
X-474875Y157441D01*
X-475725Y158025D02*
X-475725Y139475D01*
X-479875Y139475D01*
X-479875Y158025D01*
X-475725Y158025D01*
X-475725Y140857D02*
X-479875Y140857D01*
X-479875Y142239D02*
X-475725Y142239D01*
X-475725Y143621D02*
X-479875Y143621D01*
X-479875Y145003D02*
X-475725Y145003D01*
X-475725Y146385D02*
X-479875Y146385D01*
X-479875Y147767D02*
X-475725Y147767D01*
X-475725Y149149D02*
X-479875Y149149D01*
X-479875Y150531D02*
X-475725Y150531D01*
X-475725Y151913D02*
X-479875Y151913D01*
X-479875Y153295D02*
X-475725Y153295D01*
X-475725Y154677D02*
X-479875Y154677D01*
X-479875Y156059D02*
X-475725Y156059D01*
X-475725Y157441D02*
X-479875Y157441D01*
X-480725Y158025D02*
X-480725Y139475D01*
X-484875Y139475D01*
X-484875Y158025D01*
X-480725Y158025D01*
X-480725Y140857D02*
X-484875Y140857D01*
X-484875Y142239D02*
X-480725Y142239D01*
X-480725Y143621D02*
X-484875Y143621D01*
X-484875Y145003D02*
X-480725Y145003D01*
X-480725Y146385D02*
X-484875Y146385D01*
X-484875Y147767D02*
X-480725Y147767D01*
X-480725Y149149D02*
X-484875Y149149D01*
X-484875Y150531D02*
X-480725Y150531D01*
X-480725Y151913D02*
X-484875Y151913D01*
X-484875Y153295D02*
X-480725Y153295D01*
X-480725Y154677D02*
X-484875Y154677D01*
X-484875Y156059D02*
X-480725Y156059D01*
X-480725Y157441D02*
X-484875Y157441D01*
X-485725Y158025D02*
X-485725Y139475D01*
X-489875Y139475D01*
X-489875Y158025D01*
X-485725Y158025D01*
X-485725Y140857D02*
X-489875Y140857D01*
X-489875Y142239D02*
X-485725Y142239D01*
X-485725Y143621D02*
X-489875Y143621D01*
X-489875Y145003D02*
X-485725Y145003D01*
X-485725Y146385D02*
X-489875Y146385D01*
X-489875Y147767D02*
X-485725Y147767D01*
X-485725Y149149D02*
X-489875Y149149D01*
X-489875Y150531D02*
X-485725Y150531D01*
X-485725Y151913D02*
X-489875Y151913D01*
X-489875Y153295D02*
X-485725Y153295D01*
X-485725Y154677D02*
X-489875Y154677D01*
X-489875Y156059D02*
X-485725Y156059D01*
X-485725Y157441D02*
X-489875Y157441D01*
X-490725Y158025D02*
X-490725Y139475D01*
X-494875Y139475D01*
X-494875Y158025D01*
X-490725Y158025D01*
X-490725Y140857D02*
X-494875Y140857D01*
X-494875Y142239D02*
X-490725Y142239D01*
X-490725Y143621D02*
X-494875Y143621D01*
X-494875Y145003D02*
X-490725Y145003D01*
X-490725Y146385D02*
X-494875Y146385D01*
X-494875Y147767D02*
X-490725Y147767D01*
X-490725Y149149D02*
X-494875Y149149D01*
X-494875Y150531D02*
X-490725Y150531D01*
X-490725Y151913D02*
X-494875Y151913D01*
X-494875Y153295D02*
X-490725Y153295D01*
X-490725Y154677D02*
X-494875Y154677D01*
X-494875Y156059D02*
X-490725Y156059D01*
X-490725Y157441D02*
X-494875Y157441D01*
X-495725Y158025D02*
X-495725Y139475D01*
X-499875Y139475D01*
X-499875Y158025D01*
X-495725Y158025D01*
X-495725Y140857D02*
X-499875Y140857D01*
X-499875Y142239D02*
X-495725Y142239D01*
X-495725Y143621D02*
X-499875Y143621D01*
X-499875Y145003D02*
X-495725Y145003D01*
X-495725Y146385D02*
X-499875Y146385D01*
X-499875Y147767D02*
X-495725Y147767D01*
X-495725Y149149D02*
X-499875Y149149D01*
X-499875Y150531D02*
X-495725Y150531D01*
X-495725Y151913D02*
X-499875Y151913D01*
X-499875Y153295D02*
X-495725Y153295D01*
X-495725Y154677D02*
X-499875Y154677D01*
X-499875Y156059D02*
X-495725Y156059D01*
X-495725Y157441D02*
X-499875Y157441D01*
X-500725Y158025D02*
X-500725Y139475D01*
X-504875Y139475D01*
X-504875Y158025D01*
X-500725Y158025D01*
X-500725Y140857D02*
X-504875Y140857D01*
X-504875Y142239D02*
X-500725Y142239D01*
X-500725Y143621D02*
X-504875Y143621D01*
X-504875Y145003D02*
X-500725Y145003D01*
X-500725Y146385D02*
X-504875Y146385D01*
X-504875Y147767D02*
X-500725Y147767D01*
X-500725Y149149D02*
X-504875Y149149D01*
X-504875Y150531D02*
X-500725Y150531D01*
X-500725Y151913D02*
X-504875Y151913D01*
X-504875Y153295D02*
X-500725Y153295D01*
X-500725Y154677D02*
X-504875Y154677D01*
X-504875Y156059D02*
X-500725Y156059D01*
X-500725Y157441D02*
X-504875Y157441D01*
X-505725Y158025D02*
X-505725Y139475D01*
X-509875Y139475D01*
X-509875Y158025D01*
X-505725Y158025D01*
X-505725Y140857D02*
X-509875Y140857D01*
X-509875Y142239D02*
X-505725Y142239D01*
X-505725Y143621D02*
X-509875Y143621D01*
X-509875Y145003D02*
X-505725Y145003D01*
X-505725Y146385D02*
X-509875Y146385D01*
X-509875Y147767D02*
X-505725Y147767D01*
X-505725Y149149D02*
X-509875Y149149D01*
X-509875Y150531D02*
X-505725Y150531D01*
X-505725Y151913D02*
X-509875Y151913D01*
X-509875Y153295D02*
X-505725Y153295D01*
X-505725Y154677D02*
X-509875Y154677D01*
X-509875Y156059D02*
X-505725Y156059D01*
X-505725Y157441D02*
X-509875Y157441D01*
X-510725Y158025D02*
X-510725Y139475D01*
X-514875Y139475D01*
X-514875Y158025D01*
X-510725Y158025D01*
X-510725Y140857D02*
X-514875Y140857D01*
X-514875Y142239D02*
X-510725Y142239D01*
X-510725Y143621D02*
X-514875Y143621D01*
X-514875Y145003D02*
X-510725Y145003D01*
X-510725Y146385D02*
X-514875Y146385D01*
X-514875Y147767D02*
X-510725Y147767D01*
X-510725Y149149D02*
X-514875Y149149D01*
X-514875Y150531D02*
X-510725Y150531D01*
X-510725Y151913D02*
X-514875Y151913D01*
X-514875Y153295D02*
X-510725Y153295D01*
X-510725Y154677D02*
X-514875Y154677D01*
X-514875Y156059D02*
X-510725Y156059D01*
X-510725Y157441D02*
X-514875Y157441D01*
X-515725Y158025D02*
X-515725Y139475D01*
X-519875Y139475D01*
X-519875Y158025D01*
X-515725Y158025D01*
X-515725Y140857D02*
X-519875Y140857D01*
X-519875Y142239D02*
X-515725Y142239D01*
X-515725Y143621D02*
X-519875Y143621D01*
X-519875Y145003D02*
X-515725Y145003D01*
X-515725Y146385D02*
X-519875Y146385D01*
X-519875Y147767D02*
X-515725Y147767D01*
X-515725Y149149D02*
X-519875Y149149D01*
X-519875Y150531D02*
X-515725Y150531D01*
X-515725Y151913D02*
X-519875Y151913D01*
X-519875Y153295D02*
X-515725Y153295D01*
X-515725Y154677D02*
X-519875Y154677D01*
X-519875Y156059D02*
X-515725Y156059D01*
X-515725Y157441D02*
X-519875Y157441D01*
X-520725Y158025D02*
X-520725Y139475D01*
X-524875Y139475D01*
X-524875Y158025D01*
X-520725Y158025D01*
X-520725Y140857D02*
X-524875Y140857D01*
X-524875Y142239D02*
X-520725Y142239D01*
X-520725Y143621D02*
X-524875Y143621D01*
X-524875Y145003D02*
X-520725Y145003D01*
X-520725Y146385D02*
X-524875Y146385D01*
X-524875Y147767D02*
X-520725Y147767D01*
X-520725Y149149D02*
X-524875Y149149D01*
X-524875Y150531D02*
X-520725Y150531D01*
X-520725Y151913D02*
X-524875Y151913D01*
X-524875Y153295D02*
X-520725Y153295D01*
X-520725Y154677D02*
X-524875Y154677D01*
X-524875Y156059D02*
X-520725Y156059D01*
X-520725Y157441D02*
X-524875Y157441D01*
X-525725Y158025D02*
X-525725Y139475D01*
X-529875Y139475D01*
X-529875Y158025D01*
X-525725Y158025D01*
X-525725Y140857D02*
X-529875Y140857D01*
X-529875Y142239D02*
X-525725Y142239D01*
X-525725Y143621D02*
X-529875Y143621D01*
X-529875Y145003D02*
X-525725Y145003D01*
X-525725Y146385D02*
X-529875Y146385D01*
X-529875Y147767D02*
X-525725Y147767D01*
X-525725Y149149D02*
X-529875Y149149D01*
X-529875Y150531D02*
X-525725Y150531D01*
X-525725Y151913D02*
X-529875Y151913D01*
X-529875Y153295D02*
X-525725Y153295D01*
X-525725Y154677D02*
X-529875Y154677D01*
X-529875Y156059D02*
X-525725Y156059D01*
X-525725Y157441D02*
X-529875Y157441D01*
X-530725Y158025D02*
X-530725Y139475D01*
X-534875Y139475D01*
X-534875Y158025D01*
X-530725Y158025D01*
X-530725Y140857D02*
X-534875Y140857D01*
X-534875Y142239D02*
X-530725Y142239D01*
X-530725Y143621D02*
X-534875Y143621D01*
X-534875Y145003D02*
X-530725Y145003D01*
X-530725Y146385D02*
X-534875Y146385D01*
X-534875Y147767D02*
X-530725Y147767D01*
X-530725Y149149D02*
X-534875Y149149D01*
X-534875Y150531D02*
X-530725Y150531D01*
X-530725Y151913D02*
X-534875Y151913D01*
X-534875Y153295D02*
X-530725Y153295D01*
X-530725Y154677D02*
X-534875Y154677D01*
X-534875Y156059D02*
X-530725Y156059D01*
X-530725Y157441D02*
X-534875Y157441D01*
X-535725Y158025D02*
X-535725Y139475D01*
X-539875Y139475D01*
X-539875Y158025D01*
X-535725Y158025D01*
X-535725Y140857D02*
X-539875Y140857D01*
X-539875Y142239D02*
X-535725Y142239D01*
X-535725Y143621D02*
X-539875Y143621D01*
X-539875Y145003D02*
X-535725Y145003D01*
X-535725Y146385D02*
X-539875Y146385D01*
X-539875Y147767D02*
X-535725Y147767D01*
X-535725Y149149D02*
X-539875Y149149D01*
X-539875Y150531D02*
X-535725Y150531D01*
X-535725Y151913D02*
X-539875Y151913D01*
X-539875Y153295D02*
X-535725Y153295D01*
X-535725Y154677D02*
X-539875Y154677D01*
X-539875Y156059D02*
X-535725Y156059D01*
X-535725Y157441D02*
X-539875Y157441D01*
D39*
X-498646Y127924D02*
X-498646Y104276D01*
X-532454Y104276D01*
X-532454Y127924D01*
X-498646Y127924D01*
X-498646Y105520D02*
X-532454Y105520D01*
X-532454Y106764D02*
X-498646Y106764D01*
X-498646Y108008D02*
X-532454Y108008D01*
X-532454Y109252D02*
X-498646Y109252D01*
X-498646Y110496D02*
X-532454Y110496D01*
X-532454Y111740D02*
X-498646Y111740D01*
X-498646Y112984D02*
X-532454Y112984D01*
X-532454Y114228D02*
X-498646Y114228D01*
X-498646Y115472D02*
X-532454Y115472D01*
X-532454Y116716D02*
X-498646Y116716D01*
X-498646Y117960D02*
X-532454Y117960D01*
X-532454Y119204D02*
X-498646Y119204D01*
X-498646Y120448D02*
X-532454Y120448D01*
X-532454Y121692D02*
X-498646Y121692D01*
X-498646Y122936D02*
X-532454Y122936D01*
X-532454Y124180D02*
X-498646Y124180D01*
X-498646Y125424D02*
X-532454Y125424D01*
X-532454Y126668D02*
X-498646Y126668D01*
X-498646Y127912D02*
X-532454Y127912D01*
X-498646Y98924D02*
X-498646Y75276D01*
X-532454Y75276D01*
X-532454Y98924D01*
X-498646Y98924D01*
X-498646Y76520D02*
X-532454Y76520D01*
X-532454Y77764D02*
X-498646Y77764D01*
X-498646Y79008D02*
X-532454Y79008D01*
X-532454Y80252D02*
X-498646Y80252D01*
X-498646Y81496D02*
X-532454Y81496D01*
X-532454Y82740D02*
X-498646Y82740D01*
X-498646Y83984D02*
X-532454Y83984D01*
X-532454Y85228D02*
X-498646Y85228D01*
X-498646Y86472D02*
X-532454Y86472D01*
X-532454Y87716D02*
X-498646Y87716D01*
X-498646Y88960D02*
X-532454Y88960D01*
X-532454Y90204D02*
X-498646Y90204D01*
X-498646Y91448D02*
X-532454Y91448D01*
X-532454Y92692D02*
X-498646Y92692D01*
X-498646Y93936D02*
X-532454Y93936D01*
X-532454Y95180D02*
X-498646Y95180D01*
X-498646Y96424D02*
X-532454Y96424D01*
X-532454Y97668D02*
X-498646Y97668D01*
X-498646Y98912D02*
X-532454Y98912D01*
D40*
X-458647Y76697D02*
X-458647Y126503D01*
X-458647Y76697D02*
X-491453Y76697D01*
X-491453Y126503D01*
X-458647Y126503D01*
X-458647Y78423D02*
X-491453Y78423D01*
X-491453Y80149D02*
X-458647Y80149D01*
X-458647Y81875D02*
X-491453Y81875D01*
X-491453Y83601D02*
X-458647Y83601D01*
X-458647Y85327D02*
X-491453Y85327D01*
X-491453Y87053D02*
X-458647Y87053D01*
X-458647Y88779D02*
X-491453Y88779D01*
X-491453Y90505D02*
X-458647Y90505D01*
X-458647Y92231D02*
X-491453Y92231D01*
X-491453Y93957D02*
X-458647Y93957D01*
X-458647Y95683D02*
X-491453Y95683D01*
X-491453Y97409D02*
X-458647Y97409D01*
X-458647Y99135D02*
X-491453Y99135D01*
X-491453Y100861D02*
X-458647Y100861D01*
X-458647Y102587D02*
X-491453Y102587D01*
X-491453Y104313D02*
X-458647Y104313D01*
X-458647Y106039D02*
X-491453Y106039D01*
X-491453Y107765D02*
X-458647Y107765D01*
X-458647Y109491D02*
X-491453Y109491D01*
X-491453Y111217D02*
X-458647Y111217D01*
X-458647Y112943D02*
X-491453Y112943D01*
X-491453Y114669D02*
X-458647Y114669D01*
X-458647Y116395D02*
X-491453Y116395D01*
X-491453Y118121D02*
X-458647Y118121D01*
X-458647Y119847D02*
X-491453Y119847D01*
X-491453Y121573D02*
X-458647Y121573D01*
X-458647Y123299D02*
X-491453Y123299D01*
X-491453Y125025D02*
X-458647Y125025D01*
D17*
X-491100Y25400D03*
X-474100Y25400D03*
X-491100Y177800D03*
X-474100Y177800D03*
X-580000Y38100D03*
X-563000Y38100D03*
X-563000Y63500D03*
X-580000Y63500D03*
X-453000Y177800D03*
X-436000Y177800D03*
D18*
X-584200Y93100D03*
X-584200Y110100D03*
D41*
X-419100Y101600D03*
D44*
X-419100Y66040D03*
D43*
X-563880Y91600D03*
X-563880Y111600D03*
D38*
X-294425Y-393475D02*
X-294425Y-412025D01*
X-298575Y-412025D01*
X-298575Y-393475D01*
X-294425Y-393475D01*
X-294425Y-410643D02*
X-298575Y-410643D01*
X-298575Y-409261D02*
X-294425Y-409261D01*
X-294425Y-407879D02*
X-298575Y-407879D01*
X-298575Y-406497D02*
X-294425Y-406497D01*
X-294425Y-405115D02*
X-298575Y-405115D01*
X-298575Y-403733D02*
X-294425Y-403733D01*
X-294425Y-402351D02*
X-298575Y-402351D01*
X-298575Y-400969D02*
X-294425Y-400969D01*
X-294425Y-399587D02*
X-298575Y-399587D01*
X-298575Y-398205D02*
X-294425Y-398205D01*
X-294425Y-396823D02*
X-298575Y-396823D01*
X-298575Y-395441D02*
X-294425Y-395441D01*
X-294425Y-394059D02*
X-298575Y-394059D01*
X-289425Y-393475D02*
X-289425Y-412025D01*
X-293575Y-412025D01*
X-293575Y-393475D01*
X-289425Y-393475D01*
X-289425Y-410643D02*
X-293575Y-410643D01*
X-293575Y-409261D02*
X-289425Y-409261D01*
X-289425Y-407879D02*
X-293575Y-407879D01*
X-293575Y-406497D02*
X-289425Y-406497D01*
X-289425Y-405115D02*
X-293575Y-405115D01*
X-293575Y-403733D02*
X-289425Y-403733D01*
X-289425Y-402351D02*
X-293575Y-402351D01*
X-293575Y-400969D02*
X-289425Y-400969D01*
X-289425Y-399587D02*
X-293575Y-399587D01*
X-293575Y-398205D02*
X-289425Y-398205D01*
X-289425Y-396823D02*
X-293575Y-396823D01*
X-293575Y-395441D02*
X-289425Y-395441D01*
X-289425Y-394059D02*
X-293575Y-394059D01*
X-284425Y-393475D02*
X-284425Y-412025D01*
X-288575Y-412025D01*
X-288575Y-393475D01*
X-284425Y-393475D01*
X-284425Y-410643D02*
X-288575Y-410643D01*
X-288575Y-409261D02*
X-284425Y-409261D01*
X-284425Y-407879D02*
X-288575Y-407879D01*
X-288575Y-406497D02*
X-284425Y-406497D01*
X-284425Y-405115D02*
X-288575Y-405115D01*
X-288575Y-403733D02*
X-284425Y-403733D01*
X-284425Y-402351D02*
X-288575Y-402351D01*
X-288575Y-400969D02*
X-284425Y-400969D01*
X-284425Y-399587D02*
X-288575Y-399587D01*
X-288575Y-398205D02*
X-284425Y-398205D01*
X-284425Y-396823D02*
X-288575Y-396823D01*
X-288575Y-395441D02*
X-284425Y-395441D01*
X-284425Y-394059D02*
X-288575Y-394059D01*
X-279425Y-393475D02*
X-279425Y-412025D01*
X-283575Y-412025D01*
X-283575Y-393475D01*
X-279425Y-393475D01*
X-279425Y-410643D02*
X-283575Y-410643D01*
X-283575Y-409261D02*
X-279425Y-409261D01*
X-279425Y-407879D02*
X-283575Y-407879D01*
X-283575Y-406497D02*
X-279425Y-406497D01*
X-279425Y-405115D02*
X-283575Y-405115D01*
X-283575Y-403733D02*
X-279425Y-403733D01*
X-279425Y-402351D02*
X-283575Y-402351D01*
X-283575Y-400969D02*
X-279425Y-400969D01*
X-279425Y-399587D02*
X-283575Y-399587D01*
X-283575Y-398205D02*
X-279425Y-398205D01*
X-279425Y-396823D02*
X-283575Y-396823D01*
X-283575Y-395441D02*
X-279425Y-395441D01*
X-279425Y-394059D02*
X-283575Y-394059D01*
X-274425Y-393475D02*
X-274425Y-412025D01*
X-278575Y-412025D01*
X-278575Y-393475D01*
X-274425Y-393475D01*
X-274425Y-410643D02*
X-278575Y-410643D01*
X-278575Y-409261D02*
X-274425Y-409261D01*
X-274425Y-407879D02*
X-278575Y-407879D01*
X-278575Y-406497D02*
X-274425Y-406497D01*
X-274425Y-405115D02*
X-278575Y-405115D01*
X-278575Y-403733D02*
X-274425Y-403733D01*
X-274425Y-402351D02*
X-278575Y-402351D01*
X-278575Y-400969D02*
X-274425Y-400969D01*
X-274425Y-399587D02*
X-278575Y-399587D01*
X-278575Y-398205D02*
X-274425Y-398205D01*
X-274425Y-396823D02*
X-278575Y-396823D01*
X-278575Y-395441D02*
X-274425Y-395441D01*
X-274425Y-394059D02*
X-278575Y-394059D01*
X-269425Y-393475D02*
X-269425Y-412025D01*
X-273575Y-412025D01*
X-273575Y-393475D01*
X-269425Y-393475D01*
X-269425Y-410643D02*
X-273575Y-410643D01*
X-273575Y-409261D02*
X-269425Y-409261D01*
X-269425Y-407879D02*
X-273575Y-407879D01*
X-273575Y-406497D02*
X-269425Y-406497D01*
X-269425Y-405115D02*
X-273575Y-405115D01*
X-273575Y-403733D02*
X-269425Y-403733D01*
X-269425Y-402351D02*
X-273575Y-402351D01*
X-273575Y-400969D02*
X-269425Y-400969D01*
X-269425Y-399587D02*
X-273575Y-399587D01*
X-273575Y-398205D02*
X-269425Y-398205D01*
X-269425Y-396823D02*
X-273575Y-396823D01*
X-273575Y-395441D02*
X-269425Y-395441D01*
X-269425Y-394059D02*
X-273575Y-394059D01*
X-264425Y-393475D02*
X-264425Y-412025D01*
X-268575Y-412025D01*
X-268575Y-393475D01*
X-264425Y-393475D01*
X-264425Y-410643D02*
X-268575Y-410643D01*
X-268575Y-409261D02*
X-264425Y-409261D01*
X-264425Y-407879D02*
X-268575Y-407879D01*
X-268575Y-406497D02*
X-264425Y-406497D01*
X-264425Y-405115D02*
X-268575Y-405115D01*
X-268575Y-403733D02*
X-264425Y-403733D01*
X-264425Y-402351D02*
X-268575Y-402351D01*
X-268575Y-400969D02*
X-264425Y-400969D01*
X-264425Y-399587D02*
X-268575Y-399587D01*
X-268575Y-398205D02*
X-264425Y-398205D01*
X-264425Y-396823D02*
X-268575Y-396823D01*
X-268575Y-395441D02*
X-264425Y-395441D01*
X-264425Y-394059D02*
X-268575Y-394059D01*
X-259425Y-393475D02*
X-259425Y-412025D01*
X-263575Y-412025D01*
X-263575Y-393475D01*
X-259425Y-393475D01*
X-259425Y-410643D02*
X-263575Y-410643D01*
X-263575Y-409261D02*
X-259425Y-409261D01*
X-259425Y-407879D02*
X-263575Y-407879D01*
X-263575Y-406497D02*
X-259425Y-406497D01*
X-259425Y-405115D02*
X-263575Y-405115D01*
X-263575Y-403733D02*
X-259425Y-403733D01*
X-259425Y-402351D02*
X-263575Y-402351D01*
X-263575Y-400969D02*
X-259425Y-400969D01*
X-259425Y-399587D02*
X-263575Y-399587D01*
X-263575Y-398205D02*
X-259425Y-398205D01*
X-259425Y-396823D02*
X-263575Y-396823D01*
X-263575Y-395441D02*
X-259425Y-395441D01*
X-259425Y-394059D02*
X-263575Y-394059D01*
X-254425Y-393475D02*
X-254425Y-412025D01*
X-258575Y-412025D01*
X-258575Y-393475D01*
X-254425Y-393475D01*
X-254425Y-410643D02*
X-258575Y-410643D01*
X-258575Y-409261D02*
X-254425Y-409261D01*
X-254425Y-407879D02*
X-258575Y-407879D01*
X-258575Y-406497D02*
X-254425Y-406497D01*
X-254425Y-405115D02*
X-258575Y-405115D01*
X-258575Y-403733D02*
X-254425Y-403733D01*
X-254425Y-402351D02*
X-258575Y-402351D01*
X-258575Y-400969D02*
X-254425Y-400969D01*
X-254425Y-399587D02*
X-258575Y-399587D01*
X-258575Y-398205D02*
X-254425Y-398205D01*
X-254425Y-396823D02*
X-258575Y-396823D01*
X-258575Y-395441D02*
X-254425Y-395441D01*
X-254425Y-394059D02*
X-258575Y-394059D01*
X-249425Y-393475D02*
X-249425Y-412025D01*
X-253575Y-412025D01*
X-253575Y-393475D01*
X-249425Y-393475D01*
X-249425Y-410643D02*
X-253575Y-410643D01*
X-253575Y-409261D02*
X-249425Y-409261D01*
X-249425Y-407879D02*
X-253575Y-407879D01*
X-253575Y-406497D02*
X-249425Y-406497D01*
X-249425Y-405115D02*
X-253575Y-405115D01*
X-253575Y-403733D02*
X-249425Y-403733D01*
X-249425Y-402351D02*
X-253575Y-402351D01*
X-253575Y-400969D02*
X-249425Y-400969D01*
X-249425Y-399587D02*
X-253575Y-399587D01*
X-253575Y-398205D02*
X-249425Y-398205D01*
X-249425Y-396823D02*
X-253575Y-396823D01*
X-253575Y-395441D02*
X-249425Y-395441D01*
X-249425Y-394059D02*
X-253575Y-394059D01*
X-244425Y-393475D02*
X-244425Y-412025D01*
X-248575Y-412025D01*
X-248575Y-393475D01*
X-244425Y-393475D01*
X-244425Y-410643D02*
X-248575Y-410643D01*
X-248575Y-409261D02*
X-244425Y-409261D01*
X-244425Y-407879D02*
X-248575Y-407879D01*
X-248575Y-406497D02*
X-244425Y-406497D01*
X-244425Y-405115D02*
X-248575Y-405115D01*
X-248575Y-403733D02*
X-244425Y-403733D01*
X-244425Y-402351D02*
X-248575Y-402351D01*
X-248575Y-400969D02*
X-244425Y-400969D01*
X-244425Y-399587D02*
X-248575Y-399587D01*
X-248575Y-398205D02*
X-244425Y-398205D01*
X-244425Y-396823D02*
X-248575Y-396823D01*
X-248575Y-395441D02*
X-244425Y-395441D01*
X-244425Y-394059D02*
X-248575Y-394059D01*
X-239425Y-393475D02*
X-239425Y-412025D01*
X-243575Y-412025D01*
X-243575Y-393475D01*
X-239425Y-393475D01*
X-239425Y-410643D02*
X-243575Y-410643D01*
X-243575Y-409261D02*
X-239425Y-409261D01*
X-239425Y-407879D02*
X-243575Y-407879D01*
X-243575Y-406497D02*
X-239425Y-406497D01*
X-239425Y-405115D02*
X-243575Y-405115D01*
X-243575Y-403733D02*
X-239425Y-403733D01*
X-239425Y-402351D02*
X-243575Y-402351D01*
X-243575Y-400969D02*
X-239425Y-400969D01*
X-239425Y-399587D02*
X-243575Y-399587D01*
X-243575Y-398205D02*
X-239425Y-398205D01*
X-239425Y-396823D02*
X-243575Y-396823D01*
X-243575Y-395441D02*
X-239425Y-395441D01*
X-239425Y-394059D02*
X-243575Y-394059D01*
X-234425Y-393475D02*
X-234425Y-412025D01*
X-238575Y-412025D01*
X-238575Y-393475D01*
X-234425Y-393475D01*
X-234425Y-410643D02*
X-238575Y-410643D01*
X-238575Y-409261D02*
X-234425Y-409261D01*
X-234425Y-407879D02*
X-238575Y-407879D01*
X-238575Y-406497D02*
X-234425Y-406497D01*
X-234425Y-405115D02*
X-238575Y-405115D01*
X-238575Y-403733D02*
X-234425Y-403733D01*
X-234425Y-402351D02*
X-238575Y-402351D01*
X-238575Y-400969D02*
X-234425Y-400969D01*
X-234425Y-399587D02*
X-238575Y-399587D01*
X-238575Y-398205D02*
X-234425Y-398205D01*
X-234425Y-396823D02*
X-238575Y-396823D01*
X-238575Y-395441D02*
X-234425Y-395441D01*
X-234425Y-394059D02*
X-238575Y-394059D01*
X-229425Y-393475D02*
X-229425Y-412025D01*
X-233575Y-412025D01*
X-233575Y-393475D01*
X-229425Y-393475D01*
X-229425Y-410643D02*
X-233575Y-410643D01*
X-233575Y-409261D02*
X-229425Y-409261D01*
X-229425Y-407879D02*
X-233575Y-407879D01*
X-233575Y-406497D02*
X-229425Y-406497D01*
X-229425Y-405115D02*
X-233575Y-405115D01*
X-233575Y-403733D02*
X-229425Y-403733D01*
X-229425Y-402351D02*
X-233575Y-402351D01*
X-233575Y-400969D02*
X-229425Y-400969D01*
X-229425Y-399587D02*
X-233575Y-399587D01*
X-233575Y-398205D02*
X-229425Y-398205D01*
X-229425Y-396823D02*
X-233575Y-396823D01*
X-233575Y-395441D02*
X-229425Y-395441D01*
X-229425Y-394059D02*
X-233575Y-394059D01*
X-224425Y-393475D02*
X-224425Y-412025D01*
X-228575Y-412025D01*
X-228575Y-393475D01*
X-224425Y-393475D01*
X-224425Y-410643D02*
X-228575Y-410643D01*
X-228575Y-409261D02*
X-224425Y-409261D01*
X-224425Y-407879D02*
X-228575Y-407879D01*
X-228575Y-406497D02*
X-224425Y-406497D01*
X-224425Y-405115D02*
X-228575Y-405115D01*
X-228575Y-403733D02*
X-224425Y-403733D01*
X-224425Y-402351D02*
X-228575Y-402351D01*
X-228575Y-400969D02*
X-224425Y-400969D01*
X-224425Y-399587D02*
X-228575Y-399587D01*
X-228575Y-398205D02*
X-224425Y-398205D01*
X-224425Y-396823D02*
X-228575Y-396823D01*
X-228575Y-395441D02*
X-224425Y-395441D01*
X-224425Y-394059D02*
X-228575Y-394059D01*
X-219425Y-393475D02*
X-219425Y-412025D01*
X-223575Y-412025D01*
X-223575Y-393475D01*
X-219425Y-393475D01*
X-219425Y-410643D02*
X-223575Y-410643D01*
X-223575Y-409261D02*
X-219425Y-409261D01*
X-219425Y-407879D02*
X-223575Y-407879D01*
X-223575Y-406497D02*
X-219425Y-406497D01*
X-219425Y-405115D02*
X-223575Y-405115D01*
X-223575Y-403733D02*
X-219425Y-403733D01*
X-219425Y-402351D02*
X-223575Y-402351D01*
X-223575Y-400969D02*
X-219425Y-400969D01*
X-219425Y-399587D02*
X-223575Y-399587D01*
X-223575Y-398205D02*
X-219425Y-398205D01*
X-219425Y-396823D02*
X-223575Y-396823D01*
X-223575Y-395441D02*
X-219425Y-395441D01*
X-219425Y-394059D02*
X-223575Y-394059D01*
X-214425Y-393475D02*
X-214425Y-412025D01*
X-218575Y-412025D01*
X-218575Y-393475D01*
X-214425Y-393475D01*
X-214425Y-410643D02*
X-218575Y-410643D01*
X-218575Y-409261D02*
X-214425Y-409261D01*
X-214425Y-407879D02*
X-218575Y-407879D01*
X-218575Y-406497D02*
X-214425Y-406497D01*
X-214425Y-405115D02*
X-218575Y-405115D01*
X-218575Y-403733D02*
X-214425Y-403733D01*
X-214425Y-402351D02*
X-218575Y-402351D01*
X-218575Y-400969D02*
X-214425Y-400969D01*
X-214425Y-399587D02*
X-218575Y-399587D01*
X-218575Y-398205D02*
X-214425Y-398205D01*
X-214425Y-396823D02*
X-218575Y-396823D01*
X-218575Y-395441D02*
X-214425Y-395441D01*
X-214425Y-394059D02*
X-218575Y-394059D01*
X-209425Y-393475D02*
X-209425Y-412025D01*
X-213575Y-412025D01*
X-213575Y-393475D01*
X-209425Y-393475D01*
X-209425Y-410643D02*
X-213575Y-410643D01*
X-213575Y-409261D02*
X-209425Y-409261D01*
X-209425Y-407879D02*
X-213575Y-407879D01*
X-213575Y-406497D02*
X-209425Y-406497D01*
X-209425Y-405115D02*
X-213575Y-405115D01*
X-213575Y-403733D02*
X-209425Y-403733D01*
X-209425Y-402351D02*
X-213575Y-402351D01*
X-213575Y-400969D02*
X-209425Y-400969D01*
X-209425Y-399587D02*
X-213575Y-399587D01*
X-213575Y-398205D02*
X-209425Y-398205D01*
X-209425Y-396823D02*
X-213575Y-396823D01*
X-213575Y-395441D02*
X-209425Y-395441D01*
X-209425Y-394059D02*
X-213575Y-394059D01*
X-209425Y-317725D02*
X-209425Y-299175D01*
X-209425Y-317725D02*
X-213575Y-317725D01*
X-213575Y-299175D01*
X-209425Y-299175D01*
X-209425Y-316343D02*
X-213575Y-316343D01*
X-213575Y-314961D02*
X-209425Y-314961D01*
X-209425Y-313579D02*
X-213575Y-313579D01*
X-213575Y-312197D02*
X-209425Y-312197D01*
X-209425Y-310815D02*
X-213575Y-310815D01*
X-213575Y-309433D02*
X-209425Y-309433D01*
X-209425Y-308051D02*
X-213575Y-308051D01*
X-213575Y-306669D02*
X-209425Y-306669D01*
X-209425Y-305287D02*
X-213575Y-305287D01*
X-213575Y-303905D02*
X-209425Y-303905D01*
X-209425Y-302523D02*
X-213575Y-302523D01*
X-213575Y-301141D02*
X-209425Y-301141D01*
X-209425Y-299759D02*
X-213575Y-299759D01*
X-214425Y-299175D02*
X-214425Y-317725D01*
X-218575Y-317725D01*
X-218575Y-299175D01*
X-214425Y-299175D01*
X-214425Y-316343D02*
X-218575Y-316343D01*
X-218575Y-314961D02*
X-214425Y-314961D01*
X-214425Y-313579D02*
X-218575Y-313579D01*
X-218575Y-312197D02*
X-214425Y-312197D01*
X-214425Y-310815D02*
X-218575Y-310815D01*
X-218575Y-309433D02*
X-214425Y-309433D01*
X-214425Y-308051D02*
X-218575Y-308051D01*
X-218575Y-306669D02*
X-214425Y-306669D01*
X-214425Y-305287D02*
X-218575Y-305287D01*
X-218575Y-303905D02*
X-214425Y-303905D01*
X-214425Y-302523D02*
X-218575Y-302523D01*
X-218575Y-301141D02*
X-214425Y-301141D01*
X-214425Y-299759D02*
X-218575Y-299759D01*
X-219425Y-299175D02*
X-219425Y-317725D01*
X-223575Y-317725D01*
X-223575Y-299175D01*
X-219425Y-299175D01*
X-219425Y-316343D02*
X-223575Y-316343D01*
X-223575Y-314961D02*
X-219425Y-314961D01*
X-219425Y-313579D02*
X-223575Y-313579D01*
X-223575Y-312197D02*
X-219425Y-312197D01*
X-219425Y-310815D02*
X-223575Y-310815D01*
X-223575Y-309433D02*
X-219425Y-309433D01*
X-219425Y-308051D02*
X-223575Y-308051D01*
X-223575Y-306669D02*
X-219425Y-306669D01*
X-219425Y-305287D02*
X-223575Y-305287D01*
X-223575Y-303905D02*
X-219425Y-303905D01*
X-219425Y-302523D02*
X-223575Y-302523D01*
X-223575Y-301141D02*
X-219425Y-301141D01*
X-219425Y-299759D02*
X-223575Y-299759D01*
X-224425Y-299175D02*
X-224425Y-317725D01*
X-228575Y-317725D01*
X-228575Y-299175D01*
X-224425Y-299175D01*
X-224425Y-316343D02*
X-228575Y-316343D01*
X-228575Y-314961D02*
X-224425Y-314961D01*
X-224425Y-313579D02*
X-228575Y-313579D01*
X-228575Y-312197D02*
X-224425Y-312197D01*
X-224425Y-310815D02*
X-228575Y-310815D01*
X-228575Y-309433D02*
X-224425Y-309433D01*
X-224425Y-308051D02*
X-228575Y-308051D01*
X-228575Y-306669D02*
X-224425Y-306669D01*
X-224425Y-305287D02*
X-228575Y-305287D01*
X-228575Y-303905D02*
X-224425Y-303905D01*
X-224425Y-302523D02*
X-228575Y-302523D01*
X-228575Y-301141D02*
X-224425Y-301141D01*
X-224425Y-299759D02*
X-228575Y-299759D01*
X-229425Y-299175D02*
X-229425Y-317725D01*
X-233575Y-317725D01*
X-233575Y-299175D01*
X-229425Y-299175D01*
X-229425Y-316343D02*
X-233575Y-316343D01*
X-233575Y-314961D02*
X-229425Y-314961D01*
X-229425Y-313579D02*
X-233575Y-313579D01*
X-233575Y-312197D02*
X-229425Y-312197D01*
X-229425Y-310815D02*
X-233575Y-310815D01*
X-233575Y-309433D02*
X-229425Y-309433D01*
X-229425Y-308051D02*
X-233575Y-308051D01*
X-233575Y-306669D02*
X-229425Y-306669D01*
X-229425Y-305287D02*
X-233575Y-305287D01*
X-233575Y-303905D02*
X-229425Y-303905D01*
X-229425Y-302523D02*
X-233575Y-302523D01*
X-233575Y-301141D02*
X-229425Y-301141D01*
X-229425Y-299759D02*
X-233575Y-299759D01*
X-234425Y-299175D02*
X-234425Y-317725D01*
X-238575Y-317725D01*
X-238575Y-299175D01*
X-234425Y-299175D01*
X-234425Y-316343D02*
X-238575Y-316343D01*
X-238575Y-314961D02*
X-234425Y-314961D01*
X-234425Y-313579D02*
X-238575Y-313579D01*
X-238575Y-312197D02*
X-234425Y-312197D01*
X-234425Y-310815D02*
X-238575Y-310815D01*
X-238575Y-309433D02*
X-234425Y-309433D01*
X-234425Y-308051D02*
X-238575Y-308051D01*
X-238575Y-306669D02*
X-234425Y-306669D01*
X-234425Y-305287D02*
X-238575Y-305287D01*
X-238575Y-303905D02*
X-234425Y-303905D01*
X-234425Y-302523D02*
X-238575Y-302523D01*
X-238575Y-301141D02*
X-234425Y-301141D01*
X-234425Y-299759D02*
X-238575Y-299759D01*
X-239425Y-299175D02*
X-239425Y-317725D01*
X-243575Y-317725D01*
X-243575Y-299175D01*
X-239425Y-299175D01*
X-239425Y-316343D02*
X-243575Y-316343D01*
X-243575Y-314961D02*
X-239425Y-314961D01*
X-239425Y-313579D02*
X-243575Y-313579D01*
X-243575Y-312197D02*
X-239425Y-312197D01*
X-239425Y-310815D02*
X-243575Y-310815D01*
X-243575Y-309433D02*
X-239425Y-309433D01*
X-239425Y-308051D02*
X-243575Y-308051D01*
X-243575Y-306669D02*
X-239425Y-306669D01*
X-239425Y-305287D02*
X-243575Y-305287D01*
X-243575Y-303905D02*
X-239425Y-303905D01*
X-239425Y-302523D02*
X-243575Y-302523D01*
X-243575Y-301141D02*
X-239425Y-301141D01*
X-239425Y-299759D02*
X-243575Y-299759D01*
X-244425Y-299175D02*
X-244425Y-317725D01*
X-248575Y-317725D01*
X-248575Y-299175D01*
X-244425Y-299175D01*
X-244425Y-316343D02*
X-248575Y-316343D01*
X-248575Y-314961D02*
X-244425Y-314961D01*
X-244425Y-313579D02*
X-248575Y-313579D01*
X-248575Y-312197D02*
X-244425Y-312197D01*
X-244425Y-310815D02*
X-248575Y-310815D01*
X-248575Y-309433D02*
X-244425Y-309433D01*
X-244425Y-308051D02*
X-248575Y-308051D01*
X-248575Y-306669D02*
X-244425Y-306669D01*
X-244425Y-305287D02*
X-248575Y-305287D01*
X-248575Y-303905D02*
X-244425Y-303905D01*
X-244425Y-302523D02*
X-248575Y-302523D01*
X-248575Y-301141D02*
X-244425Y-301141D01*
X-244425Y-299759D02*
X-248575Y-299759D01*
X-249425Y-299175D02*
X-249425Y-317725D01*
X-253575Y-317725D01*
X-253575Y-299175D01*
X-249425Y-299175D01*
X-249425Y-316343D02*
X-253575Y-316343D01*
X-253575Y-314961D02*
X-249425Y-314961D01*
X-249425Y-313579D02*
X-253575Y-313579D01*
X-253575Y-312197D02*
X-249425Y-312197D01*
X-249425Y-310815D02*
X-253575Y-310815D01*
X-253575Y-309433D02*
X-249425Y-309433D01*
X-249425Y-308051D02*
X-253575Y-308051D01*
X-253575Y-306669D02*
X-249425Y-306669D01*
X-249425Y-305287D02*
X-253575Y-305287D01*
X-253575Y-303905D02*
X-249425Y-303905D01*
X-249425Y-302523D02*
X-253575Y-302523D01*
X-253575Y-301141D02*
X-249425Y-301141D01*
X-249425Y-299759D02*
X-253575Y-299759D01*
X-254425Y-299175D02*
X-254425Y-317725D01*
X-258575Y-317725D01*
X-258575Y-299175D01*
X-254425Y-299175D01*
X-254425Y-316343D02*
X-258575Y-316343D01*
X-258575Y-314961D02*
X-254425Y-314961D01*
X-254425Y-313579D02*
X-258575Y-313579D01*
X-258575Y-312197D02*
X-254425Y-312197D01*
X-254425Y-310815D02*
X-258575Y-310815D01*
X-258575Y-309433D02*
X-254425Y-309433D01*
X-254425Y-308051D02*
X-258575Y-308051D01*
X-258575Y-306669D02*
X-254425Y-306669D01*
X-254425Y-305287D02*
X-258575Y-305287D01*
X-258575Y-303905D02*
X-254425Y-303905D01*
X-254425Y-302523D02*
X-258575Y-302523D01*
X-258575Y-301141D02*
X-254425Y-301141D01*
X-254425Y-299759D02*
X-258575Y-299759D01*
X-259425Y-299175D02*
X-259425Y-317725D01*
X-263575Y-317725D01*
X-263575Y-299175D01*
X-259425Y-299175D01*
X-259425Y-316343D02*
X-263575Y-316343D01*
X-263575Y-314961D02*
X-259425Y-314961D01*
X-259425Y-313579D02*
X-263575Y-313579D01*
X-263575Y-312197D02*
X-259425Y-312197D01*
X-259425Y-310815D02*
X-263575Y-310815D01*
X-263575Y-309433D02*
X-259425Y-309433D01*
X-259425Y-308051D02*
X-263575Y-308051D01*
X-263575Y-306669D02*
X-259425Y-306669D01*
X-259425Y-305287D02*
X-263575Y-305287D01*
X-263575Y-303905D02*
X-259425Y-303905D01*
X-259425Y-302523D02*
X-263575Y-302523D01*
X-263575Y-301141D02*
X-259425Y-301141D01*
X-259425Y-299759D02*
X-263575Y-299759D01*
X-264425Y-299175D02*
X-264425Y-317725D01*
X-268575Y-317725D01*
X-268575Y-299175D01*
X-264425Y-299175D01*
X-264425Y-316343D02*
X-268575Y-316343D01*
X-268575Y-314961D02*
X-264425Y-314961D01*
X-264425Y-313579D02*
X-268575Y-313579D01*
X-268575Y-312197D02*
X-264425Y-312197D01*
X-264425Y-310815D02*
X-268575Y-310815D01*
X-268575Y-309433D02*
X-264425Y-309433D01*
X-264425Y-308051D02*
X-268575Y-308051D01*
X-268575Y-306669D02*
X-264425Y-306669D01*
X-264425Y-305287D02*
X-268575Y-305287D01*
X-268575Y-303905D02*
X-264425Y-303905D01*
X-264425Y-302523D02*
X-268575Y-302523D01*
X-268575Y-301141D02*
X-264425Y-301141D01*
X-264425Y-299759D02*
X-268575Y-299759D01*
X-269425Y-299175D02*
X-269425Y-317725D01*
X-273575Y-317725D01*
X-273575Y-299175D01*
X-269425Y-299175D01*
X-269425Y-316343D02*
X-273575Y-316343D01*
X-273575Y-314961D02*
X-269425Y-314961D01*
X-269425Y-313579D02*
X-273575Y-313579D01*
X-273575Y-312197D02*
X-269425Y-312197D01*
X-269425Y-310815D02*
X-273575Y-310815D01*
X-273575Y-309433D02*
X-269425Y-309433D01*
X-269425Y-308051D02*
X-273575Y-308051D01*
X-273575Y-306669D02*
X-269425Y-306669D01*
X-269425Y-305287D02*
X-273575Y-305287D01*
X-273575Y-303905D02*
X-269425Y-303905D01*
X-269425Y-302523D02*
X-273575Y-302523D01*
X-273575Y-301141D02*
X-269425Y-301141D01*
X-269425Y-299759D02*
X-273575Y-299759D01*
X-274425Y-299175D02*
X-274425Y-317725D01*
X-278575Y-317725D01*
X-278575Y-299175D01*
X-274425Y-299175D01*
X-274425Y-316343D02*
X-278575Y-316343D01*
X-278575Y-314961D02*
X-274425Y-314961D01*
X-274425Y-313579D02*
X-278575Y-313579D01*
X-278575Y-312197D02*
X-274425Y-312197D01*
X-274425Y-310815D02*
X-278575Y-310815D01*
X-278575Y-309433D02*
X-274425Y-309433D01*
X-274425Y-308051D02*
X-278575Y-308051D01*
X-278575Y-306669D02*
X-274425Y-306669D01*
X-274425Y-305287D02*
X-278575Y-305287D01*
X-278575Y-303905D02*
X-274425Y-303905D01*
X-274425Y-302523D02*
X-278575Y-302523D01*
X-278575Y-301141D02*
X-274425Y-301141D01*
X-274425Y-299759D02*
X-278575Y-299759D01*
X-279425Y-299175D02*
X-279425Y-317725D01*
X-283575Y-317725D01*
X-283575Y-299175D01*
X-279425Y-299175D01*
X-279425Y-316343D02*
X-283575Y-316343D01*
X-283575Y-314961D02*
X-279425Y-314961D01*
X-279425Y-313579D02*
X-283575Y-313579D01*
X-283575Y-312197D02*
X-279425Y-312197D01*
X-279425Y-310815D02*
X-283575Y-310815D01*
X-283575Y-309433D02*
X-279425Y-309433D01*
X-279425Y-308051D02*
X-283575Y-308051D01*
X-283575Y-306669D02*
X-279425Y-306669D01*
X-279425Y-305287D02*
X-283575Y-305287D01*
X-283575Y-303905D02*
X-279425Y-303905D01*
X-279425Y-302523D02*
X-283575Y-302523D01*
X-283575Y-301141D02*
X-279425Y-301141D01*
X-279425Y-299759D02*
X-283575Y-299759D01*
X-284425Y-299175D02*
X-284425Y-317725D01*
X-288575Y-317725D01*
X-288575Y-299175D01*
X-284425Y-299175D01*
X-284425Y-316343D02*
X-288575Y-316343D01*
X-288575Y-314961D02*
X-284425Y-314961D01*
X-284425Y-313579D02*
X-288575Y-313579D01*
X-288575Y-312197D02*
X-284425Y-312197D01*
X-284425Y-310815D02*
X-288575Y-310815D01*
X-288575Y-309433D02*
X-284425Y-309433D01*
X-284425Y-308051D02*
X-288575Y-308051D01*
X-288575Y-306669D02*
X-284425Y-306669D01*
X-284425Y-305287D02*
X-288575Y-305287D01*
X-288575Y-303905D02*
X-284425Y-303905D01*
X-284425Y-302523D02*
X-288575Y-302523D01*
X-288575Y-301141D02*
X-284425Y-301141D01*
X-284425Y-299759D02*
X-288575Y-299759D01*
X-289425Y-299175D02*
X-289425Y-317725D01*
X-293575Y-317725D01*
X-293575Y-299175D01*
X-289425Y-299175D01*
X-289425Y-316343D02*
X-293575Y-316343D01*
X-293575Y-314961D02*
X-289425Y-314961D01*
X-289425Y-313579D02*
X-293575Y-313579D01*
X-293575Y-312197D02*
X-289425Y-312197D01*
X-289425Y-310815D02*
X-293575Y-310815D01*
X-293575Y-309433D02*
X-289425Y-309433D01*
X-289425Y-308051D02*
X-293575Y-308051D01*
X-293575Y-306669D02*
X-289425Y-306669D01*
X-289425Y-305287D02*
X-293575Y-305287D01*
X-293575Y-303905D02*
X-289425Y-303905D01*
X-289425Y-302523D02*
X-293575Y-302523D01*
X-293575Y-301141D02*
X-289425Y-301141D01*
X-289425Y-299759D02*
X-293575Y-299759D01*
X-294425Y-299175D02*
X-294425Y-317725D01*
X-298575Y-317725D01*
X-298575Y-299175D01*
X-294425Y-299175D01*
X-294425Y-316343D02*
X-298575Y-316343D01*
X-298575Y-314961D02*
X-294425Y-314961D01*
X-294425Y-313579D02*
X-298575Y-313579D01*
X-298575Y-312197D02*
X-294425Y-312197D01*
X-294425Y-310815D02*
X-298575Y-310815D01*
X-298575Y-309433D02*
X-294425Y-309433D01*
X-294425Y-308051D02*
X-298575Y-308051D01*
X-298575Y-306669D02*
X-294425Y-306669D01*
X-294425Y-305287D02*
X-298575Y-305287D01*
X-298575Y-303905D02*
X-294425Y-303905D01*
X-294425Y-302523D02*
X-298575Y-302523D01*
X-298575Y-301141D02*
X-294425Y-301141D01*
X-294425Y-299759D02*
X-298575Y-299759D01*
D39*
X-257346Y-329276D02*
X-257346Y-352924D01*
X-291154Y-352924D01*
X-291154Y-329276D01*
X-257346Y-329276D01*
X-257346Y-351680D02*
X-291154Y-351680D01*
X-291154Y-350436D02*
X-257346Y-350436D01*
X-257346Y-349192D02*
X-291154Y-349192D01*
X-291154Y-347948D02*
X-257346Y-347948D01*
X-257346Y-346704D02*
X-291154Y-346704D01*
X-291154Y-345460D02*
X-257346Y-345460D01*
X-257346Y-344216D02*
X-291154Y-344216D01*
X-291154Y-342972D02*
X-257346Y-342972D01*
X-257346Y-341728D02*
X-291154Y-341728D01*
X-291154Y-340484D02*
X-257346Y-340484D01*
X-257346Y-339240D02*
X-291154Y-339240D01*
X-291154Y-337996D02*
X-257346Y-337996D01*
X-257346Y-336752D02*
X-291154Y-336752D01*
X-291154Y-335508D02*
X-257346Y-335508D01*
X-257346Y-334264D02*
X-291154Y-334264D01*
X-291154Y-333020D02*
X-257346Y-333020D01*
X-257346Y-331776D02*
X-291154Y-331776D01*
X-291154Y-330532D02*
X-257346Y-330532D01*
X-257346Y-329288D02*
X-291154Y-329288D01*
X-257346Y-358276D02*
X-257346Y-381924D01*
X-291154Y-381924D01*
X-291154Y-358276D01*
X-257346Y-358276D01*
X-257346Y-380680D02*
X-291154Y-380680D01*
X-291154Y-379436D02*
X-257346Y-379436D01*
X-257346Y-378192D02*
X-291154Y-378192D01*
X-291154Y-376948D02*
X-257346Y-376948D01*
X-257346Y-375704D02*
X-291154Y-375704D01*
X-291154Y-374460D02*
X-257346Y-374460D01*
X-257346Y-373216D02*
X-291154Y-373216D01*
X-291154Y-371972D02*
X-257346Y-371972D01*
X-257346Y-370728D02*
X-291154Y-370728D01*
X-291154Y-369484D02*
X-257346Y-369484D01*
X-257346Y-368240D02*
X-291154Y-368240D01*
X-291154Y-366996D02*
X-257346Y-366996D01*
X-257346Y-365752D02*
X-291154Y-365752D01*
X-291154Y-364508D02*
X-257346Y-364508D01*
X-257346Y-363264D02*
X-291154Y-363264D01*
X-291154Y-362020D02*
X-257346Y-362020D01*
X-257346Y-360776D02*
X-291154Y-360776D01*
X-291154Y-359532D02*
X-257346Y-359532D01*
X-257346Y-358288D02*
X-291154Y-358288D01*
D40*
X-217347Y-380503D02*
X-217347Y-330697D01*
X-217347Y-380503D02*
X-250153Y-380503D01*
X-250153Y-330697D01*
X-217347Y-330697D01*
X-217347Y-378777D02*
X-250153Y-378777D01*
X-250153Y-377051D02*
X-217347Y-377051D01*
X-217347Y-375325D02*
X-250153Y-375325D01*
X-250153Y-373599D02*
X-217347Y-373599D01*
X-217347Y-371873D02*
X-250153Y-371873D01*
X-250153Y-370147D02*
X-217347Y-370147D01*
X-217347Y-368421D02*
X-250153Y-368421D01*
X-250153Y-366695D02*
X-217347Y-366695D01*
X-217347Y-364969D02*
X-250153Y-364969D01*
X-250153Y-363243D02*
X-217347Y-363243D01*
X-217347Y-361517D02*
X-250153Y-361517D01*
X-250153Y-359791D02*
X-217347Y-359791D01*
X-217347Y-358065D02*
X-250153Y-358065D01*
X-250153Y-356339D02*
X-217347Y-356339D01*
X-217347Y-354613D02*
X-250153Y-354613D01*
X-250153Y-352887D02*
X-217347Y-352887D01*
X-217347Y-351161D02*
X-250153Y-351161D01*
X-250153Y-349435D02*
X-217347Y-349435D01*
X-217347Y-347709D02*
X-250153Y-347709D01*
X-250153Y-345983D02*
X-217347Y-345983D01*
X-217347Y-344257D02*
X-250153Y-344257D01*
X-250153Y-342531D02*
X-217347Y-342531D01*
X-217347Y-340805D02*
X-250153Y-340805D01*
X-250153Y-339079D02*
X-217347Y-339079D01*
X-217347Y-337353D02*
X-250153Y-337353D01*
X-250153Y-335627D02*
X-217347Y-335627D01*
X-217347Y-333901D02*
X-250153Y-333901D01*
X-250153Y-332175D02*
X-217347Y-332175D01*
D18*
X-266700Y-440300D03*
X-266700Y-423300D03*
D17*
X-258690Y-284480D03*
X-241690Y-284480D03*
X-194700Y-427990D03*
X-211700Y-427990D03*
D18*
X-292100Y-423300D03*
X-292100Y-440300D03*
X-317500Y-296300D03*
X-317500Y-313300D03*
X-342900Y-364100D03*
X-342900Y-347100D03*
D41*
X-199390Y-241300D03*
D45*
X-234950Y-241300D03*
D43*
X-323850Y-365600D03*
X-323850Y-345600D03*
D38*
X-459525Y-285025D02*
X-459525Y-266475D01*
X-459525Y-285025D02*
X-463675Y-285025D01*
X-463675Y-266475D01*
X-459525Y-266475D01*
X-459525Y-283643D02*
X-463675Y-283643D01*
X-463675Y-282261D02*
X-459525Y-282261D01*
X-459525Y-280879D02*
X-463675Y-280879D01*
X-463675Y-279497D02*
X-459525Y-279497D01*
X-459525Y-278115D02*
X-463675Y-278115D01*
X-463675Y-276733D02*
X-459525Y-276733D01*
X-459525Y-275351D02*
X-463675Y-275351D01*
X-463675Y-273969D02*
X-459525Y-273969D01*
X-459525Y-272587D02*
X-463675Y-272587D01*
X-463675Y-271205D02*
X-459525Y-271205D01*
X-459525Y-269823D02*
X-463675Y-269823D01*
X-463675Y-268441D02*
X-459525Y-268441D01*
X-459525Y-267059D02*
X-463675Y-267059D01*
X-454525Y-266475D02*
X-454525Y-285025D01*
X-458675Y-285025D01*
X-458675Y-266475D01*
X-454525Y-266475D01*
X-454525Y-283643D02*
X-458675Y-283643D01*
X-458675Y-282261D02*
X-454525Y-282261D01*
X-454525Y-280879D02*
X-458675Y-280879D01*
X-458675Y-279497D02*
X-454525Y-279497D01*
X-454525Y-278115D02*
X-458675Y-278115D01*
X-458675Y-276733D02*
X-454525Y-276733D01*
X-454525Y-275351D02*
X-458675Y-275351D01*
X-458675Y-273969D02*
X-454525Y-273969D01*
X-454525Y-272587D02*
X-458675Y-272587D01*
X-458675Y-271205D02*
X-454525Y-271205D01*
X-454525Y-269823D02*
X-458675Y-269823D01*
X-458675Y-268441D02*
X-454525Y-268441D01*
X-454525Y-267059D02*
X-458675Y-267059D01*
X-449525Y-266475D02*
X-449525Y-285025D01*
X-453675Y-285025D01*
X-453675Y-266475D01*
X-449525Y-266475D01*
X-449525Y-283643D02*
X-453675Y-283643D01*
X-453675Y-282261D02*
X-449525Y-282261D01*
X-449525Y-280879D02*
X-453675Y-280879D01*
X-453675Y-279497D02*
X-449525Y-279497D01*
X-449525Y-278115D02*
X-453675Y-278115D01*
X-453675Y-276733D02*
X-449525Y-276733D01*
X-449525Y-275351D02*
X-453675Y-275351D01*
X-453675Y-273969D02*
X-449525Y-273969D01*
X-449525Y-272587D02*
X-453675Y-272587D01*
X-453675Y-271205D02*
X-449525Y-271205D01*
X-449525Y-269823D02*
X-453675Y-269823D01*
X-453675Y-268441D02*
X-449525Y-268441D01*
X-449525Y-267059D02*
X-453675Y-267059D01*
X-444525Y-266475D02*
X-444525Y-285025D01*
X-448675Y-285025D01*
X-448675Y-266475D01*
X-444525Y-266475D01*
X-444525Y-283643D02*
X-448675Y-283643D01*
X-448675Y-282261D02*
X-444525Y-282261D01*
X-444525Y-280879D02*
X-448675Y-280879D01*
X-448675Y-279497D02*
X-444525Y-279497D01*
X-444525Y-278115D02*
X-448675Y-278115D01*
X-448675Y-276733D02*
X-444525Y-276733D01*
X-444525Y-275351D02*
X-448675Y-275351D01*
X-448675Y-273969D02*
X-444525Y-273969D01*
X-444525Y-272587D02*
X-448675Y-272587D01*
X-448675Y-271205D02*
X-444525Y-271205D01*
X-444525Y-269823D02*
X-448675Y-269823D01*
X-448675Y-268441D02*
X-444525Y-268441D01*
X-444525Y-267059D02*
X-448675Y-267059D01*
X-439525Y-266475D02*
X-439525Y-285025D01*
X-443675Y-285025D01*
X-443675Y-266475D01*
X-439525Y-266475D01*
X-439525Y-283643D02*
X-443675Y-283643D01*
X-443675Y-282261D02*
X-439525Y-282261D01*
X-439525Y-280879D02*
X-443675Y-280879D01*
X-443675Y-279497D02*
X-439525Y-279497D01*
X-439525Y-278115D02*
X-443675Y-278115D01*
X-443675Y-276733D02*
X-439525Y-276733D01*
X-439525Y-275351D02*
X-443675Y-275351D01*
X-443675Y-273969D02*
X-439525Y-273969D01*
X-439525Y-272587D02*
X-443675Y-272587D01*
X-443675Y-271205D02*
X-439525Y-271205D01*
X-439525Y-269823D02*
X-443675Y-269823D01*
X-443675Y-268441D02*
X-439525Y-268441D01*
X-439525Y-267059D02*
X-443675Y-267059D01*
X-434525Y-266475D02*
X-434525Y-285025D01*
X-438675Y-285025D01*
X-438675Y-266475D01*
X-434525Y-266475D01*
X-434525Y-283643D02*
X-438675Y-283643D01*
X-438675Y-282261D02*
X-434525Y-282261D01*
X-434525Y-280879D02*
X-438675Y-280879D01*
X-438675Y-279497D02*
X-434525Y-279497D01*
X-434525Y-278115D02*
X-438675Y-278115D01*
X-438675Y-276733D02*
X-434525Y-276733D01*
X-434525Y-275351D02*
X-438675Y-275351D01*
X-438675Y-273969D02*
X-434525Y-273969D01*
X-434525Y-272587D02*
X-438675Y-272587D01*
X-438675Y-271205D02*
X-434525Y-271205D01*
X-434525Y-269823D02*
X-438675Y-269823D01*
X-438675Y-268441D02*
X-434525Y-268441D01*
X-434525Y-267059D02*
X-438675Y-267059D01*
X-429525Y-266475D02*
X-429525Y-285025D01*
X-433675Y-285025D01*
X-433675Y-266475D01*
X-429525Y-266475D01*
X-429525Y-283643D02*
X-433675Y-283643D01*
X-433675Y-282261D02*
X-429525Y-282261D01*
X-429525Y-280879D02*
X-433675Y-280879D01*
X-433675Y-279497D02*
X-429525Y-279497D01*
X-429525Y-278115D02*
X-433675Y-278115D01*
X-433675Y-276733D02*
X-429525Y-276733D01*
X-429525Y-275351D02*
X-433675Y-275351D01*
X-433675Y-273969D02*
X-429525Y-273969D01*
X-429525Y-272587D02*
X-433675Y-272587D01*
X-433675Y-271205D02*
X-429525Y-271205D01*
X-429525Y-269823D02*
X-433675Y-269823D01*
X-433675Y-268441D02*
X-429525Y-268441D01*
X-429525Y-267059D02*
X-433675Y-267059D01*
X-424525Y-266475D02*
X-424525Y-285025D01*
X-428675Y-285025D01*
X-428675Y-266475D01*
X-424525Y-266475D01*
X-424525Y-283643D02*
X-428675Y-283643D01*
X-428675Y-282261D02*
X-424525Y-282261D01*
X-424525Y-280879D02*
X-428675Y-280879D01*
X-428675Y-279497D02*
X-424525Y-279497D01*
X-424525Y-278115D02*
X-428675Y-278115D01*
X-428675Y-276733D02*
X-424525Y-276733D01*
X-424525Y-275351D02*
X-428675Y-275351D01*
X-428675Y-273969D02*
X-424525Y-273969D01*
X-424525Y-272587D02*
X-428675Y-272587D01*
X-428675Y-271205D02*
X-424525Y-271205D01*
X-424525Y-269823D02*
X-428675Y-269823D01*
X-428675Y-268441D02*
X-424525Y-268441D01*
X-424525Y-267059D02*
X-428675Y-267059D01*
X-419525Y-266475D02*
X-419525Y-285025D01*
X-423675Y-285025D01*
X-423675Y-266475D01*
X-419525Y-266475D01*
X-419525Y-283643D02*
X-423675Y-283643D01*
X-423675Y-282261D02*
X-419525Y-282261D01*
X-419525Y-280879D02*
X-423675Y-280879D01*
X-423675Y-279497D02*
X-419525Y-279497D01*
X-419525Y-278115D02*
X-423675Y-278115D01*
X-423675Y-276733D02*
X-419525Y-276733D01*
X-419525Y-275351D02*
X-423675Y-275351D01*
X-423675Y-273969D02*
X-419525Y-273969D01*
X-419525Y-272587D02*
X-423675Y-272587D01*
X-423675Y-271205D02*
X-419525Y-271205D01*
X-419525Y-269823D02*
X-423675Y-269823D01*
X-423675Y-268441D02*
X-419525Y-268441D01*
X-419525Y-267059D02*
X-423675Y-267059D01*
X-414525Y-266475D02*
X-414525Y-285025D01*
X-418675Y-285025D01*
X-418675Y-266475D01*
X-414525Y-266475D01*
X-414525Y-283643D02*
X-418675Y-283643D01*
X-418675Y-282261D02*
X-414525Y-282261D01*
X-414525Y-280879D02*
X-418675Y-280879D01*
X-418675Y-279497D02*
X-414525Y-279497D01*
X-414525Y-278115D02*
X-418675Y-278115D01*
X-418675Y-276733D02*
X-414525Y-276733D01*
X-414525Y-275351D02*
X-418675Y-275351D01*
X-418675Y-273969D02*
X-414525Y-273969D01*
X-414525Y-272587D02*
X-418675Y-272587D01*
X-418675Y-271205D02*
X-414525Y-271205D01*
X-414525Y-269823D02*
X-418675Y-269823D01*
X-418675Y-268441D02*
X-414525Y-268441D01*
X-414525Y-267059D02*
X-418675Y-267059D01*
X-409525Y-266475D02*
X-409525Y-285025D01*
X-413675Y-285025D01*
X-413675Y-266475D01*
X-409525Y-266475D01*
X-409525Y-283643D02*
X-413675Y-283643D01*
X-413675Y-282261D02*
X-409525Y-282261D01*
X-409525Y-280879D02*
X-413675Y-280879D01*
X-413675Y-279497D02*
X-409525Y-279497D01*
X-409525Y-278115D02*
X-413675Y-278115D01*
X-413675Y-276733D02*
X-409525Y-276733D01*
X-409525Y-275351D02*
X-413675Y-275351D01*
X-413675Y-273969D02*
X-409525Y-273969D01*
X-409525Y-272587D02*
X-413675Y-272587D01*
X-413675Y-271205D02*
X-409525Y-271205D01*
X-409525Y-269823D02*
X-413675Y-269823D01*
X-413675Y-268441D02*
X-409525Y-268441D01*
X-409525Y-267059D02*
X-413675Y-267059D01*
X-404525Y-266475D02*
X-404525Y-285025D01*
X-408675Y-285025D01*
X-408675Y-266475D01*
X-404525Y-266475D01*
X-404525Y-283643D02*
X-408675Y-283643D01*
X-408675Y-282261D02*
X-404525Y-282261D01*
X-404525Y-280879D02*
X-408675Y-280879D01*
X-408675Y-279497D02*
X-404525Y-279497D01*
X-404525Y-278115D02*
X-408675Y-278115D01*
X-408675Y-276733D02*
X-404525Y-276733D01*
X-404525Y-275351D02*
X-408675Y-275351D01*
X-408675Y-273969D02*
X-404525Y-273969D01*
X-404525Y-272587D02*
X-408675Y-272587D01*
X-408675Y-271205D02*
X-404525Y-271205D01*
X-404525Y-269823D02*
X-408675Y-269823D01*
X-408675Y-268441D02*
X-404525Y-268441D01*
X-404525Y-267059D02*
X-408675Y-267059D01*
X-399525Y-266475D02*
X-399525Y-285025D01*
X-403675Y-285025D01*
X-403675Y-266475D01*
X-399525Y-266475D01*
X-399525Y-283643D02*
X-403675Y-283643D01*
X-403675Y-282261D02*
X-399525Y-282261D01*
X-399525Y-280879D02*
X-403675Y-280879D01*
X-403675Y-279497D02*
X-399525Y-279497D01*
X-399525Y-278115D02*
X-403675Y-278115D01*
X-403675Y-276733D02*
X-399525Y-276733D01*
X-399525Y-275351D02*
X-403675Y-275351D01*
X-403675Y-273969D02*
X-399525Y-273969D01*
X-399525Y-272587D02*
X-403675Y-272587D01*
X-403675Y-271205D02*
X-399525Y-271205D01*
X-399525Y-269823D02*
X-403675Y-269823D01*
X-403675Y-268441D02*
X-399525Y-268441D01*
X-399525Y-267059D02*
X-403675Y-267059D01*
X-394525Y-266475D02*
X-394525Y-285025D01*
X-398675Y-285025D01*
X-398675Y-266475D01*
X-394525Y-266475D01*
X-394525Y-283643D02*
X-398675Y-283643D01*
X-398675Y-282261D02*
X-394525Y-282261D01*
X-394525Y-280879D02*
X-398675Y-280879D01*
X-398675Y-279497D02*
X-394525Y-279497D01*
X-394525Y-278115D02*
X-398675Y-278115D01*
X-398675Y-276733D02*
X-394525Y-276733D01*
X-394525Y-275351D02*
X-398675Y-275351D01*
X-398675Y-273969D02*
X-394525Y-273969D01*
X-394525Y-272587D02*
X-398675Y-272587D01*
X-398675Y-271205D02*
X-394525Y-271205D01*
X-394525Y-269823D02*
X-398675Y-269823D01*
X-398675Y-268441D02*
X-394525Y-268441D01*
X-394525Y-267059D02*
X-398675Y-267059D01*
X-389525Y-266475D02*
X-389525Y-285025D01*
X-393675Y-285025D01*
X-393675Y-266475D01*
X-389525Y-266475D01*
X-389525Y-283643D02*
X-393675Y-283643D01*
X-393675Y-282261D02*
X-389525Y-282261D01*
X-389525Y-280879D02*
X-393675Y-280879D01*
X-393675Y-279497D02*
X-389525Y-279497D01*
X-389525Y-278115D02*
X-393675Y-278115D01*
X-393675Y-276733D02*
X-389525Y-276733D01*
X-389525Y-275351D02*
X-393675Y-275351D01*
X-393675Y-273969D02*
X-389525Y-273969D01*
X-389525Y-272587D02*
X-393675Y-272587D01*
X-393675Y-271205D02*
X-389525Y-271205D01*
X-389525Y-269823D02*
X-393675Y-269823D01*
X-393675Y-268441D02*
X-389525Y-268441D01*
X-389525Y-267059D02*
X-393675Y-267059D01*
X-384525Y-266475D02*
X-384525Y-285025D01*
X-388675Y-285025D01*
X-388675Y-266475D01*
X-384525Y-266475D01*
X-384525Y-283643D02*
X-388675Y-283643D01*
X-388675Y-282261D02*
X-384525Y-282261D01*
X-384525Y-280879D02*
X-388675Y-280879D01*
X-388675Y-279497D02*
X-384525Y-279497D01*
X-384525Y-278115D02*
X-388675Y-278115D01*
X-388675Y-276733D02*
X-384525Y-276733D01*
X-384525Y-275351D02*
X-388675Y-275351D01*
X-388675Y-273969D02*
X-384525Y-273969D01*
X-384525Y-272587D02*
X-388675Y-272587D01*
X-388675Y-271205D02*
X-384525Y-271205D01*
X-384525Y-269823D02*
X-388675Y-269823D01*
X-388675Y-268441D02*
X-384525Y-268441D01*
X-384525Y-267059D02*
X-388675Y-267059D01*
X-379525Y-266475D02*
X-379525Y-285025D01*
X-383675Y-285025D01*
X-383675Y-266475D01*
X-379525Y-266475D01*
X-379525Y-283643D02*
X-383675Y-283643D01*
X-383675Y-282261D02*
X-379525Y-282261D01*
X-379525Y-280879D02*
X-383675Y-280879D01*
X-383675Y-279497D02*
X-379525Y-279497D01*
X-379525Y-278115D02*
X-383675Y-278115D01*
X-383675Y-276733D02*
X-379525Y-276733D01*
X-379525Y-275351D02*
X-383675Y-275351D01*
X-383675Y-273969D02*
X-379525Y-273969D01*
X-379525Y-272587D02*
X-383675Y-272587D01*
X-383675Y-271205D02*
X-379525Y-271205D01*
X-379525Y-269823D02*
X-383675Y-269823D01*
X-383675Y-268441D02*
X-379525Y-268441D01*
X-379525Y-267059D02*
X-383675Y-267059D01*
X-374525Y-266475D02*
X-374525Y-285025D01*
X-378675Y-285025D01*
X-378675Y-266475D01*
X-374525Y-266475D01*
X-374525Y-283643D02*
X-378675Y-283643D01*
X-378675Y-282261D02*
X-374525Y-282261D01*
X-374525Y-280879D02*
X-378675Y-280879D01*
X-378675Y-279497D02*
X-374525Y-279497D01*
X-374525Y-278115D02*
X-378675Y-278115D01*
X-378675Y-276733D02*
X-374525Y-276733D01*
X-374525Y-275351D02*
X-378675Y-275351D01*
X-378675Y-273969D02*
X-374525Y-273969D01*
X-374525Y-272587D02*
X-378675Y-272587D01*
X-378675Y-271205D02*
X-374525Y-271205D01*
X-374525Y-269823D02*
X-378675Y-269823D01*
X-378675Y-268441D02*
X-374525Y-268441D01*
X-374525Y-267059D02*
X-378675Y-267059D01*
X-374525Y-190725D02*
X-374525Y-172175D01*
X-374525Y-190725D02*
X-378675Y-190725D01*
X-378675Y-172175D01*
X-374525Y-172175D01*
X-374525Y-189343D02*
X-378675Y-189343D01*
X-378675Y-187961D02*
X-374525Y-187961D01*
X-374525Y-186579D02*
X-378675Y-186579D01*
X-378675Y-185197D02*
X-374525Y-185197D01*
X-374525Y-183815D02*
X-378675Y-183815D01*
X-378675Y-182433D02*
X-374525Y-182433D01*
X-374525Y-181051D02*
X-378675Y-181051D01*
X-378675Y-179669D02*
X-374525Y-179669D01*
X-374525Y-178287D02*
X-378675Y-178287D01*
X-378675Y-176905D02*
X-374525Y-176905D01*
X-374525Y-175523D02*
X-378675Y-175523D01*
X-378675Y-174141D02*
X-374525Y-174141D01*
X-374525Y-172759D02*
X-378675Y-172759D01*
X-379525Y-172175D02*
X-379525Y-190725D01*
X-383675Y-190725D01*
X-383675Y-172175D01*
X-379525Y-172175D01*
X-379525Y-189343D02*
X-383675Y-189343D01*
X-383675Y-187961D02*
X-379525Y-187961D01*
X-379525Y-186579D02*
X-383675Y-186579D01*
X-383675Y-185197D02*
X-379525Y-185197D01*
X-379525Y-183815D02*
X-383675Y-183815D01*
X-383675Y-182433D02*
X-379525Y-182433D01*
X-379525Y-181051D02*
X-383675Y-181051D01*
X-383675Y-179669D02*
X-379525Y-179669D01*
X-379525Y-178287D02*
X-383675Y-178287D01*
X-383675Y-176905D02*
X-379525Y-176905D01*
X-379525Y-175523D02*
X-383675Y-175523D01*
X-383675Y-174141D02*
X-379525Y-174141D01*
X-379525Y-172759D02*
X-383675Y-172759D01*
X-384525Y-172175D02*
X-384525Y-190725D01*
X-388675Y-190725D01*
X-388675Y-172175D01*
X-384525Y-172175D01*
X-384525Y-189343D02*
X-388675Y-189343D01*
X-388675Y-187961D02*
X-384525Y-187961D01*
X-384525Y-186579D02*
X-388675Y-186579D01*
X-388675Y-185197D02*
X-384525Y-185197D01*
X-384525Y-183815D02*
X-388675Y-183815D01*
X-388675Y-182433D02*
X-384525Y-182433D01*
X-384525Y-181051D02*
X-388675Y-181051D01*
X-388675Y-179669D02*
X-384525Y-179669D01*
X-384525Y-178287D02*
X-388675Y-178287D01*
X-388675Y-176905D02*
X-384525Y-176905D01*
X-384525Y-175523D02*
X-388675Y-175523D01*
X-388675Y-174141D02*
X-384525Y-174141D01*
X-384525Y-172759D02*
X-388675Y-172759D01*
X-389525Y-172175D02*
X-389525Y-190725D01*
X-393675Y-190725D01*
X-393675Y-172175D01*
X-389525Y-172175D01*
X-389525Y-189343D02*
X-393675Y-189343D01*
X-393675Y-187961D02*
X-389525Y-187961D01*
X-389525Y-186579D02*
X-393675Y-186579D01*
X-393675Y-185197D02*
X-389525Y-185197D01*
X-389525Y-183815D02*
X-393675Y-183815D01*
X-393675Y-182433D02*
X-389525Y-182433D01*
X-389525Y-181051D02*
X-393675Y-181051D01*
X-393675Y-179669D02*
X-389525Y-179669D01*
X-389525Y-178287D02*
X-393675Y-178287D01*
X-393675Y-176905D02*
X-389525Y-176905D01*
X-389525Y-175523D02*
X-393675Y-175523D01*
X-393675Y-174141D02*
X-389525Y-174141D01*
X-389525Y-172759D02*
X-393675Y-172759D01*
X-394525Y-172175D02*
X-394525Y-190725D01*
X-398675Y-190725D01*
X-398675Y-172175D01*
X-394525Y-172175D01*
X-394525Y-189343D02*
X-398675Y-189343D01*
X-398675Y-187961D02*
X-394525Y-187961D01*
X-394525Y-186579D02*
X-398675Y-186579D01*
X-398675Y-185197D02*
X-394525Y-185197D01*
X-394525Y-183815D02*
X-398675Y-183815D01*
X-398675Y-182433D02*
X-394525Y-182433D01*
X-394525Y-181051D02*
X-398675Y-181051D01*
X-398675Y-179669D02*
X-394525Y-179669D01*
X-394525Y-178287D02*
X-398675Y-178287D01*
X-398675Y-176905D02*
X-394525Y-176905D01*
X-394525Y-175523D02*
X-398675Y-175523D01*
X-398675Y-174141D02*
X-394525Y-174141D01*
X-394525Y-172759D02*
X-398675Y-172759D01*
X-399525Y-172175D02*
X-399525Y-190725D01*
X-403675Y-190725D01*
X-403675Y-172175D01*
X-399525Y-172175D01*
X-399525Y-189343D02*
X-403675Y-189343D01*
X-403675Y-187961D02*
X-399525Y-187961D01*
X-399525Y-186579D02*
X-403675Y-186579D01*
X-403675Y-185197D02*
X-399525Y-185197D01*
X-399525Y-183815D02*
X-403675Y-183815D01*
X-403675Y-182433D02*
X-399525Y-182433D01*
X-399525Y-181051D02*
X-403675Y-181051D01*
X-403675Y-179669D02*
X-399525Y-179669D01*
X-399525Y-178287D02*
X-403675Y-178287D01*
X-403675Y-176905D02*
X-399525Y-176905D01*
X-399525Y-175523D02*
X-403675Y-175523D01*
X-403675Y-174141D02*
X-399525Y-174141D01*
X-399525Y-172759D02*
X-403675Y-172759D01*
X-404525Y-172175D02*
X-404525Y-190725D01*
X-408675Y-190725D01*
X-408675Y-172175D01*
X-404525Y-172175D01*
X-404525Y-189343D02*
X-408675Y-189343D01*
X-408675Y-187961D02*
X-404525Y-187961D01*
X-404525Y-186579D02*
X-408675Y-186579D01*
X-408675Y-185197D02*
X-404525Y-185197D01*
X-404525Y-183815D02*
X-408675Y-183815D01*
X-408675Y-182433D02*
X-404525Y-182433D01*
X-404525Y-181051D02*
X-408675Y-181051D01*
X-408675Y-179669D02*
X-404525Y-179669D01*
X-404525Y-178287D02*
X-408675Y-178287D01*
X-408675Y-176905D02*
X-404525Y-176905D01*
X-404525Y-175523D02*
X-408675Y-175523D01*
X-408675Y-174141D02*
X-404525Y-174141D01*
X-404525Y-172759D02*
X-408675Y-172759D01*
X-409525Y-172175D02*
X-409525Y-190725D01*
X-413675Y-190725D01*
X-413675Y-172175D01*
X-409525Y-172175D01*
X-409525Y-189343D02*
X-413675Y-189343D01*
X-413675Y-187961D02*
X-409525Y-187961D01*
X-409525Y-186579D02*
X-413675Y-186579D01*
X-413675Y-185197D02*
X-409525Y-185197D01*
X-409525Y-183815D02*
X-413675Y-183815D01*
X-413675Y-182433D02*
X-409525Y-182433D01*
X-409525Y-181051D02*
X-413675Y-181051D01*
X-413675Y-179669D02*
X-409525Y-179669D01*
X-409525Y-178287D02*
X-413675Y-178287D01*
X-413675Y-176905D02*
X-409525Y-176905D01*
X-409525Y-175523D02*
X-413675Y-175523D01*
X-413675Y-174141D02*
X-409525Y-174141D01*
X-409525Y-172759D02*
X-413675Y-172759D01*
X-414525Y-172175D02*
X-414525Y-190725D01*
X-418675Y-190725D01*
X-418675Y-172175D01*
X-414525Y-172175D01*
X-414525Y-189343D02*
X-418675Y-189343D01*
X-418675Y-187961D02*
X-414525Y-187961D01*
X-414525Y-186579D02*
X-418675Y-186579D01*
X-418675Y-185197D02*
X-414525Y-185197D01*
X-414525Y-183815D02*
X-418675Y-183815D01*
X-418675Y-182433D02*
X-414525Y-182433D01*
X-414525Y-181051D02*
X-418675Y-181051D01*
X-418675Y-179669D02*
X-414525Y-179669D01*
X-414525Y-178287D02*
X-418675Y-178287D01*
X-418675Y-176905D02*
X-414525Y-176905D01*
X-414525Y-175523D02*
X-418675Y-175523D01*
X-418675Y-174141D02*
X-414525Y-174141D01*
X-414525Y-172759D02*
X-418675Y-172759D01*
X-419525Y-172175D02*
X-419525Y-190725D01*
X-423675Y-190725D01*
X-423675Y-172175D01*
X-419525Y-172175D01*
X-419525Y-189343D02*
X-423675Y-189343D01*
X-423675Y-187961D02*
X-419525Y-187961D01*
X-419525Y-186579D02*
X-423675Y-186579D01*
X-423675Y-185197D02*
X-419525Y-185197D01*
X-419525Y-183815D02*
X-423675Y-183815D01*
X-423675Y-182433D02*
X-419525Y-182433D01*
X-419525Y-181051D02*
X-423675Y-181051D01*
X-423675Y-179669D02*
X-419525Y-179669D01*
X-419525Y-178287D02*
X-423675Y-178287D01*
X-423675Y-176905D02*
X-419525Y-176905D01*
X-419525Y-175523D02*
X-423675Y-175523D01*
X-423675Y-174141D02*
X-419525Y-174141D01*
X-419525Y-172759D02*
X-423675Y-172759D01*
X-424525Y-172175D02*
X-424525Y-190725D01*
X-428675Y-190725D01*
X-428675Y-172175D01*
X-424525Y-172175D01*
X-424525Y-189343D02*
X-428675Y-189343D01*
X-428675Y-187961D02*
X-424525Y-187961D01*
X-424525Y-186579D02*
X-428675Y-186579D01*
X-428675Y-185197D02*
X-424525Y-185197D01*
X-424525Y-183815D02*
X-428675Y-183815D01*
X-428675Y-182433D02*
X-424525Y-182433D01*
X-424525Y-181051D02*
X-428675Y-181051D01*
X-428675Y-179669D02*
X-424525Y-179669D01*
X-424525Y-178287D02*
X-428675Y-178287D01*
X-428675Y-176905D02*
X-424525Y-176905D01*
X-424525Y-175523D02*
X-428675Y-175523D01*
X-428675Y-174141D02*
X-424525Y-174141D01*
X-424525Y-172759D02*
X-428675Y-172759D01*
X-429525Y-172175D02*
X-429525Y-190725D01*
X-433675Y-190725D01*
X-433675Y-172175D01*
X-429525Y-172175D01*
X-429525Y-189343D02*
X-433675Y-189343D01*
X-433675Y-187961D02*
X-429525Y-187961D01*
X-429525Y-186579D02*
X-433675Y-186579D01*
X-433675Y-185197D02*
X-429525Y-185197D01*
X-429525Y-183815D02*
X-433675Y-183815D01*
X-433675Y-182433D02*
X-429525Y-182433D01*
X-429525Y-181051D02*
X-433675Y-181051D01*
X-433675Y-179669D02*
X-429525Y-179669D01*
X-429525Y-178287D02*
X-433675Y-178287D01*
X-433675Y-176905D02*
X-429525Y-176905D01*
X-429525Y-175523D02*
X-433675Y-175523D01*
X-433675Y-174141D02*
X-429525Y-174141D01*
X-429525Y-172759D02*
X-433675Y-172759D01*
X-434525Y-172175D02*
X-434525Y-190725D01*
X-438675Y-190725D01*
X-438675Y-172175D01*
X-434525Y-172175D01*
X-434525Y-189343D02*
X-438675Y-189343D01*
X-438675Y-187961D02*
X-434525Y-187961D01*
X-434525Y-186579D02*
X-438675Y-186579D01*
X-438675Y-185197D02*
X-434525Y-185197D01*
X-434525Y-183815D02*
X-438675Y-183815D01*
X-438675Y-182433D02*
X-434525Y-182433D01*
X-434525Y-181051D02*
X-438675Y-181051D01*
X-438675Y-179669D02*
X-434525Y-179669D01*
X-434525Y-178287D02*
X-438675Y-178287D01*
X-438675Y-176905D02*
X-434525Y-176905D01*
X-434525Y-175523D02*
X-438675Y-175523D01*
X-438675Y-174141D02*
X-434525Y-174141D01*
X-434525Y-172759D02*
X-438675Y-172759D01*
X-439525Y-172175D02*
X-439525Y-190725D01*
X-443675Y-190725D01*
X-443675Y-172175D01*
X-439525Y-172175D01*
X-439525Y-189343D02*
X-443675Y-189343D01*
X-443675Y-187961D02*
X-439525Y-187961D01*
X-439525Y-186579D02*
X-443675Y-186579D01*
X-443675Y-185197D02*
X-439525Y-185197D01*
X-439525Y-183815D02*
X-443675Y-183815D01*
X-443675Y-182433D02*
X-439525Y-182433D01*
X-439525Y-181051D02*
X-443675Y-181051D01*
X-443675Y-179669D02*
X-439525Y-179669D01*
X-439525Y-178287D02*
X-443675Y-178287D01*
X-443675Y-176905D02*
X-439525Y-176905D01*
X-439525Y-175523D02*
X-443675Y-175523D01*
X-443675Y-174141D02*
X-439525Y-174141D01*
X-439525Y-172759D02*
X-443675Y-172759D01*
X-444525Y-172175D02*
X-444525Y-190725D01*
X-448675Y-190725D01*
X-448675Y-172175D01*
X-444525Y-172175D01*
X-444525Y-189343D02*
X-448675Y-189343D01*
X-448675Y-187961D02*
X-444525Y-187961D01*
X-444525Y-186579D02*
X-448675Y-186579D01*
X-448675Y-185197D02*
X-444525Y-185197D01*
X-444525Y-183815D02*
X-448675Y-183815D01*
X-448675Y-182433D02*
X-444525Y-182433D01*
X-444525Y-181051D02*
X-448675Y-181051D01*
X-448675Y-179669D02*
X-444525Y-179669D01*
X-444525Y-178287D02*
X-448675Y-178287D01*
X-448675Y-176905D02*
X-444525Y-176905D01*
X-444525Y-175523D02*
X-448675Y-175523D01*
X-448675Y-174141D02*
X-444525Y-174141D01*
X-444525Y-172759D02*
X-448675Y-172759D01*
X-449525Y-172175D02*
X-449525Y-190725D01*
X-453675Y-190725D01*
X-453675Y-172175D01*
X-449525Y-172175D01*
X-449525Y-189343D02*
X-453675Y-189343D01*
X-453675Y-187961D02*
X-449525Y-187961D01*
X-449525Y-186579D02*
X-453675Y-186579D01*
X-453675Y-185197D02*
X-449525Y-185197D01*
X-449525Y-183815D02*
X-453675Y-183815D01*
X-453675Y-182433D02*
X-449525Y-182433D01*
X-449525Y-181051D02*
X-453675Y-181051D01*
X-453675Y-179669D02*
X-449525Y-179669D01*
X-449525Y-178287D02*
X-453675Y-178287D01*
X-453675Y-176905D02*
X-449525Y-176905D01*
X-449525Y-175523D02*
X-453675Y-175523D01*
X-453675Y-174141D02*
X-449525Y-174141D01*
X-449525Y-172759D02*
X-453675Y-172759D01*
X-454525Y-172175D02*
X-454525Y-190725D01*
X-458675Y-190725D01*
X-458675Y-172175D01*
X-454525Y-172175D01*
X-454525Y-189343D02*
X-458675Y-189343D01*
X-458675Y-187961D02*
X-454525Y-187961D01*
X-454525Y-186579D02*
X-458675Y-186579D01*
X-458675Y-185197D02*
X-454525Y-185197D01*
X-454525Y-183815D02*
X-458675Y-183815D01*
X-458675Y-182433D02*
X-454525Y-182433D01*
X-454525Y-181051D02*
X-458675Y-181051D01*
X-458675Y-179669D02*
X-454525Y-179669D01*
X-454525Y-178287D02*
X-458675Y-178287D01*
X-458675Y-176905D02*
X-454525Y-176905D01*
X-454525Y-175523D02*
X-458675Y-175523D01*
X-458675Y-174141D02*
X-454525Y-174141D01*
X-454525Y-172759D02*
X-458675Y-172759D01*
X-459525Y-172175D02*
X-459525Y-190725D01*
X-463675Y-190725D01*
X-463675Y-172175D01*
X-459525Y-172175D01*
X-459525Y-189343D02*
X-463675Y-189343D01*
X-463675Y-187961D02*
X-459525Y-187961D01*
X-459525Y-186579D02*
X-463675Y-186579D01*
X-463675Y-185197D02*
X-459525Y-185197D01*
X-459525Y-183815D02*
X-463675Y-183815D01*
X-463675Y-182433D02*
X-459525Y-182433D01*
X-459525Y-181051D02*
X-463675Y-181051D01*
X-463675Y-179669D02*
X-459525Y-179669D01*
X-459525Y-178287D02*
X-463675Y-178287D01*
X-463675Y-176905D02*
X-459525Y-176905D01*
X-459525Y-175523D02*
X-463675Y-175523D01*
X-463675Y-174141D02*
X-459525Y-174141D01*
X-459525Y-172759D02*
X-463675Y-172759D01*
D39*
X-422446Y-202276D02*
X-422446Y-225924D01*
X-456254Y-225924D01*
X-456254Y-202276D01*
X-422446Y-202276D01*
X-422446Y-224680D02*
X-456254Y-224680D01*
X-456254Y-223436D02*
X-422446Y-223436D01*
X-422446Y-222192D02*
X-456254Y-222192D01*
X-456254Y-220948D02*
X-422446Y-220948D01*
X-422446Y-219704D02*
X-456254Y-219704D01*
X-456254Y-218460D02*
X-422446Y-218460D01*
X-422446Y-217216D02*
X-456254Y-217216D01*
X-456254Y-215972D02*
X-422446Y-215972D01*
X-422446Y-214728D02*
X-456254Y-214728D01*
X-456254Y-213484D02*
X-422446Y-213484D01*
X-422446Y-212240D02*
X-456254Y-212240D01*
X-456254Y-210996D02*
X-422446Y-210996D01*
X-422446Y-209752D02*
X-456254Y-209752D01*
X-456254Y-208508D02*
X-422446Y-208508D01*
X-422446Y-207264D02*
X-456254Y-207264D01*
X-456254Y-206020D02*
X-422446Y-206020D01*
X-422446Y-204776D02*
X-456254Y-204776D01*
X-456254Y-203532D02*
X-422446Y-203532D01*
X-422446Y-202288D02*
X-456254Y-202288D01*
X-422446Y-231276D02*
X-422446Y-254924D01*
X-456254Y-254924D01*
X-456254Y-231276D01*
X-422446Y-231276D01*
X-422446Y-253680D02*
X-456254Y-253680D01*
X-456254Y-252436D02*
X-422446Y-252436D01*
X-422446Y-251192D02*
X-456254Y-251192D01*
X-456254Y-249948D02*
X-422446Y-249948D01*
X-422446Y-248704D02*
X-456254Y-248704D01*
X-456254Y-247460D02*
X-422446Y-247460D01*
X-422446Y-246216D02*
X-456254Y-246216D01*
X-456254Y-244972D02*
X-422446Y-244972D01*
X-422446Y-243728D02*
X-456254Y-243728D01*
X-456254Y-242484D02*
X-422446Y-242484D01*
X-422446Y-241240D02*
X-456254Y-241240D01*
X-456254Y-239996D02*
X-422446Y-239996D01*
X-422446Y-238752D02*
X-456254Y-238752D01*
X-456254Y-237508D02*
X-422446Y-237508D01*
X-422446Y-236264D02*
X-456254Y-236264D01*
X-456254Y-235020D02*
X-422446Y-235020D01*
X-422446Y-233776D02*
X-456254Y-233776D01*
X-456254Y-232532D02*
X-422446Y-232532D01*
X-422446Y-231288D02*
X-456254Y-231288D01*
D40*
X-382447Y-253503D02*
X-382447Y-203697D01*
X-382447Y-253503D02*
X-415253Y-253503D01*
X-415253Y-203697D01*
X-382447Y-203697D01*
X-382447Y-251777D02*
X-415253Y-251777D01*
X-415253Y-250051D02*
X-382447Y-250051D01*
X-382447Y-248325D02*
X-415253Y-248325D01*
X-415253Y-246599D02*
X-382447Y-246599D01*
X-382447Y-244873D02*
X-415253Y-244873D01*
X-415253Y-243147D02*
X-382447Y-243147D01*
X-382447Y-241421D02*
X-415253Y-241421D01*
X-415253Y-239695D02*
X-382447Y-239695D01*
X-382447Y-237969D02*
X-415253Y-237969D01*
X-415253Y-236243D02*
X-382447Y-236243D01*
X-382447Y-234517D02*
X-415253Y-234517D01*
X-415253Y-232791D02*
X-382447Y-232791D01*
X-382447Y-231065D02*
X-415253Y-231065D01*
X-415253Y-229339D02*
X-382447Y-229339D01*
X-382447Y-227613D02*
X-415253Y-227613D01*
X-415253Y-225887D02*
X-382447Y-225887D01*
X-382447Y-224161D02*
X-415253Y-224161D01*
X-415253Y-222435D02*
X-382447Y-222435D01*
X-382447Y-220709D02*
X-415253Y-220709D01*
X-415253Y-218983D02*
X-382447Y-218983D01*
X-382447Y-217257D02*
X-415253Y-217257D01*
X-415253Y-215531D02*
X-382447Y-215531D01*
X-382447Y-213805D02*
X-415253Y-213805D01*
X-415253Y-212079D02*
X-382447Y-212079D01*
X-382447Y-210353D02*
X-415253Y-210353D01*
X-415253Y-208627D02*
X-382447Y-208627D01*
X-382447Y-206901D02*
X-415253Y-206901D01*
X-415253Y-205175D02*
X-382447Y-205175D01*
D17*
X-372500Y-304800D03*
X-389500Y-304800D03*
X-414900Y-152400D03*
X-397900Y-152400D03*
D18*
X-419100Y-313300D03*
X-419100Y-296300D03*
X-444500Y-296300D03*
X-444500Y-313300D03*
X-381000Y-148200D03*
X-381000Y-131200D03*
X-508000Y-237100D03*
X-508000Y-220100D03*
D41*
X-299720Y-241300D03*
D45*
X-335280Y-241300D03*
D43*
X-488950Y-238600D03*
X-488950Y-218600D03*
D46*
G36*
X122369Y-90201D02*
X102901Y-109669D01*
X83433Y-90201D01*
X102901Y-70733D01*
X122369Y-90201D01*
G37*
D47*
X74899Y-62199D03*
D43*
X139700Y-181130D03*
X139700Y-161130D03*
X139700Y-141130D03*
X139700Y-121130D03*
D37*
X-46241Y325989D02*
X-46241Y334411D01*
X-37819Y334411D01*
X-37819Y325989D01*
X-46241Y325989D01*
X-46241Y329598D02*
X-37819Y329598D01*
X-37819Y333207D02*
X-46241Y333207D01*
X-63781Y334411D02*
X-63781Y325989D01*
X-63781Y334411D02*
X-55359Y334411D01*
X-55359Y325989D01*
X-63781Y325989D01*
X-63781Y329598D02*
X-55359Y329598D01*
X-55359Y333207D02*
X-63781Y333207D01*
D17*
X-97400Y330200D03*
X-80400Y330200D03*
D48*
X208280Y-279400D03*
X177800Y-139700D03*
X177800Y-177800D03*
X198120Y-157480D03*
X139700Y-63500D03*
X-317500Y25400D03*
M02*
