G04 EAGLE Gerber X2 export*
%TF.Part,Single*%
%TF.FileFunction,Soldermask,Bot,1*%
%TF.FilePolarity,Negative*%
%TF.GenerationSoftware,Autodesk,EAGLE,8.6.0*%
%TF.CreationDate,2019-04-04T15:37:23Z*%
G75*
%MOMM*%
%FSLAX34Y34*%
%LPD*%
%AMOC8*
5,1,8,0,0,1.08239X$1,22.5*%
G01*
%ADD10C,3.203200*%
%ADD11C,6.203200*%
%ADD12C,2.203200*%
%ADD13P,2.144431X8X202.500000*%
%ADD14C,1.828800*%
%ADD15C,1.662800*%
%ADD16C,1.662800*%
%ADD17C,1.828800*%
%ADD18C,4.083200*%
%ADD19C,2.387600*%
%ADD20C,2.133600*%
%ADD21R,2.133600X2.133600*%
%ADD22R,2.078200X2.078200*%
%ADD23C,2.063200*%
%ADD24R,6.553200X6.553200*%
%ADD25C,6.553200*%
%ADD26C,1.812800*%
%ADD27R,0.812800X2.209800*%
%ADD28R,2.870200X3.810000*%
%ADD29C,1.612800*%
%ADD30C,1.803400*%
%ADD31P,1.951982X8X112.500000*%
%ADD32P,2.034460X8X112.500000*%
%ADD33P,1.951982X8X292.500000*%
%ADD34P,1.951982X8X202.500000*%
%ADD35R,2.753200X2.753200*%
%ADD36C,2.753200*%
%ADD37C,2.108200*%


D10*
X52070Y144780D03*
X52070Y-144780D03*
X248740Y600520D03*
X-248740Y600520D03*
X-644440Y84840D03*
X-395690Y-515680D03*
X395690Y-515680D03*
X644440Y84840D03*
X-150000Y259810D03*
X290000Y0D03*
X-150000Y-259810D03*
D11*
X-395690Y515680D03*
X-248740Y-600522D03*
X248740Y-600522D03*
X395690Y515680D03*
X644440Y-84842D03*
X-644440Y-84842D03*
D10*
X149860Y508000D03*
X-149860Y508000D03*
D12*
X-584200Y-57150D03*
X-355600Y-57150D03*
D13*
X-166370Y161290D03*
X-191770Y161290D03*
X-217170Y161290D03*
X-242570Y161290D03*
X-267970Y161290D03*
X-293370Y161290D03*
X-318770Y161290D03*
X-344170Y161290D03*
X-166370Y-161290D03*
X-191770Y-161290D03*
X-217170Y-161290D03*
X-242570Y-161290D03*
X-267970Y-161290D03*
X-293370Y-161290D03*
X-318770Y-161290D03*
X-344170Y-161290D03*
D14*
X342900Y292100D03*
X495300Y292100D03*
X495300Y266700D03*
X469900Y266700D03*
X495300Y241300D03*
X495300Y215900D03*
X469900Y215900D03*
X469900Y190500D03*
X469900Y165100D03*
X495300Y165100D03*
X495300Y190500D03*
X495300Y139700D03*
X495300Y114300D03*
X495300Y88900D03*
X495300Y38100D03*
X495300Y-12700D03*
X495300Y12700D03*
X342900Y266700D03*
X342900Y241300D03*
X342900Y215900D03*
X342900Y190500D03*
X342900Y165100D03*
X342900Y139700D03*
X342900Y114300D03*
X342900Y88900D03*
X342900Y63500D03*
X342900Y38100D03*
X342900Y12700D03*
X342900Y-12700D03*
X342900Y-38100D03*
X342900Y-63500D03*
X342900Y-88900D03*
X342900Y-114300D03*
X342900Y-139700D03*
X342900Y-165100D03*
X342900Y-190500D03*
X342900Y-215900D03*
X342900Y-241300D03*
X342900Y-266700D03*
X342900Y-292100D03*
X368300Y-165100D03*
X393700Y-165100D03*
X419100Y-165100D03*
X444500Y-165100D03*
X469900Y-165100D03*
X495300Y-292100D03*
X495300Y-266700D03*
X495300Y-241300D03*
X495300Y-215900D03*
X495300Y-190500D03*
X495300Y-165100D03*
X495300Y-139700D03*
X495300Y-114300D03*
X495300Y-88900D03*
X495300Y-63500D03*
X495300Y-38100D03*
X495300Y63500D03*
X444500Y-215900D03*
X444500Y-190500D03*
X444500Y-241300D03*
X444500Y-292100D03*
X444500Y-266700D03*
X419100Y-292100D03*
X419100Y-266700D03*
X419100Y-215900D03*
X419100Y-190500D03*
X419100Y-241300D03*
X444500Y-139700D03*
X419100Y-139700D03*
X419100Y-114300D03*
X444500Y-114300D03*
X444500Y-88900D03*
X419100Y-88900D03*
X444500Y139700D03*
X419100Y139700D03*
X419100Y114300D03*
X444500Y114300D03*
X444500Y88900D03*
X419100Y88900D03*
X419100Y63500D03*
X444500Y63500D03*
D15*
X0Y650000D03*
D16*
X18102Y650000D02*
X32698Y650000D01*
X-18102Y650000D02*
X-32698Y650000D01*
D15*
X168232Y627852D03*
D16*
X185718Y623167D02*
X199816Y619389D01*
X150747Y632537D02*
X136649Y636315D01*
D15*
X325000Y562917D03*
D16*
X340677Y553866D02*
X353317Y546568D01*
X309323Y571968D02*
X296683Y579266D01*
D15*
X459619Y459619D03*
D16*
X472419Y446819D02*
X482740Y436498D01*
X446819Y472419D02*
X436498Y482740D01*
D15*
X562917Y325000D03*
D16*
X571968Y309323D02*
X579266Y296683D01*
X553866Y340677D02*
X546568Y353317D01*
D15*
X627852Y168232D03*
D16*
X632537Y150747D02*
X636315Y136649D01*
X623167Y185718D02*
X619389Y199816D01*
D15*
X650000Y0D03*
D16*
X650000Y-18102D02*
X650000Y-32698D01*
X650000Y18102D02*
X650000Y32698D01*
D15*
X627852Y-168232D03*
D16*
X623167Y-185718D02*
X619389Y-199816D01*
X632537Y-150747D02*
X636315Y-136649D01*
D15*
X562917Y-325000D03*
D16*
X553866Y-340677D02*
X546568Y-353317D01*
X571968Y-309323D02*
X579266Y-296683D01*
D15*
X459619Y-459619D03*
D16*
X446819Y-472419D02*
X436498Y-482740D01*
X472419Y-446819D02*
X482740Y-436498D01*
D15*
X325000Y-562917D03*
D16*
X309323Y-571968D02*
X296683Y-579266D01*
X340677Y-553866D02*
X353317Y-546568D01*
D15*
X168232Y-627852D03*
D16*
X150747Y-632537D02*
X136649Y-636315D01*
X185718Y-623167D02*
X199816Y-619389D01*
D15*
X0Y-650000D03*
D16*
X-18102Y-650000D02*
X-32698Y-650000D01*
X18102Y-650000D02*
X32698Y-650000D01*
D15*
X-168232Y-627852D03*
D16*
X-185718Y-623167D02*
X-199816Y-619389D01*
X-150747Y-632537D02*
X-136649Y-636315D01*
D15*
X-325000Y-562917D03*
D16*
X-340677Y-553865D02*
X-353317Y-546568D01*
X-309323Y-571968D02*
X-296683Y-579265D01*
D15*
X-459619Y-459619D03*
D16*
X-472419Y-446819D02*
X-482740Y-436498D01*
X-446819Y-472419D02*
X-436498Y-482740D01*
D15*
X-562917Y-325000D03*
D16*
X-571968Y-309323D02*
X-579265Y-296683D01*
X-553865Y-340677D02*
X-546568Y-353317D01*
D15*
X-627852Y-168232D03*
D16*
X-632537Y-150747D02*
X-636315Y-136649D01*
X-623167Y-185718D02*
X-619389Y-199816D01*
D15*
X-650000Y0D03*
D16*
X-650000Y18102D02*
X-650000Y32698D01*
X-650000Y-18102D02*
X-650000Y-32698D01*
D15*
X-627852Y168232D03*
D16*
X-623167Y185718D02*
X-619389Y199816D01*
X-632537Y150747D02*
X-636315Y136649D01*
D15*
X-562917Y325000D03*
D16*
X-553866Y340677D02*
X-546568Y353317D01*
X-571968Y309323D02*
X-579266Y296683D01*
D15*
X-459619Y459619D03*
D16*
X-446819Y472419D02*
X-436498Y482740D01*
X-472419Y446819D02*
X-482740Y436498D01*
D15*
X-325000Y562917D03*
D16*
X-309323Y571968D02*
X-296683Y579265D01*
X-340677Y553865D02*
X-353317Y546568D01*
D15*
X-168232Y627852D03*
D16*
X-150747Y632537D02*
X-136649Y636315D01*
X-185718Y623167D02*
X-199816Y619389D01*
D17*
X-406400Y452628D02*
X-406400Y436372D01*
X-381000Y436372D02*
X-381000Y452628D01*
X-355600Y452628D02*
X-355600Y436372D01*
X-330200Y436372D02*
X-330200Y452628D01*
X-304800Y452628D02*
X-304800Y436372D01*
X-279400Y436372D02*
X-279400Y452628D01*
D18*
X177800Y-241300D03*
D19*
X160500Y-279400D03*
X195100Y-203200D03*
D18*
X266700Y-241300D03*
D19*
X249400Y-279400D03*
X284000Y-203200D03*
D20*
X266700Y-431400D03*
D21*
X266700Y-381400D03*
D22*
X158000Y-88900D03*
D23*
X197600Y-88900D03*
D22*
X246900Y-88900D03*
D23*
X286500Y-88900D03*
D24*
X-38100Y-406400D03*
D25*
X33530Y-406400D03*
D17*
X-63500Y499872D02*
X-63500Y516128D01*
X-38100Y516128D02*
X-38100Y499872D01*
X-12700Y499872D02*
X-12700Y516128D01*
X12700Y516128D02*
X12700Y499872D01*
X38100Y499872D02*
X38100Y516128D01*
X63500Y516128D02*
X63500Y499872D01*
X131572Y444500D02*
X147828Y444500D01*
X147828Y419100D02*
X131572Y419100D01*
X203200Y414528D02*
X203200Y398272D01*
X177800Y398272D02*
X177800Y414528D01*
X203200Y449072D02*
X203200Y465328D01*
X177800Y465328D02*
X177800Y449072D01*
D26*
X-119472Y333100D02*
X-135568Y333100D01*
X-184472Y333100D02*
X-200568Y333100D01*
X-135568Y378100D02*
X-119472Y378100D01*
X-184472Y378100D02*
X-200568Y378100D01*
X-200568Y454300D02*
X-184472Y454300D01*
X-135568Y454300D02*
X-119472Y454300D01*
X-184472Y409300D02*
X-200568Y409300D01*
X-135568Y409300D02*
X-119472Y409300D01*
X-259402Y543200D02*
X-275498Y543200D01*
X-210498Y543200D02*
X-194402Y543200D01*
X-259402Y498200D02*
X-275498Y498200D01*
X-210498Y498200D02*
X-194402Y498200D01*
D27*
X-474917Y-175133D03*
X-484950Y-175133D03*
X-454851Y-175133D03*
X-464884Y-175133D03*
D28*
X-546100Y-147066D03*
X-393700Y-147066D03*
D27*
X-494983Y-175133D03*
X-505016Y-175133D03*
X-515049Y-175133D03*
X-444818Y-175133D03*
X-434785Y-175133D03*
X-424752Y-175133D03*
D17*
X-95286Y-157509D02*
X-83791Y-146014D01*
X-101751Y-128054D02*
X-113246Y-139549D01*
X-131207Y-121588D02*
X-119712Y-110093D01*
X-137672Y-92133D02*
X-149167Y-103628D01*
X-167128Y-85667D02*
X-155633Y-74172D01*
X-173593Y-56212D02*
X-185088Y-67707D01*
X-203049Y-49746D02*
X-191554Y-38251D01*
X-209514Y-20291D02*
X-221009Y-31786D01*
D27*
X-5017Y383667D03*
X-15050Y383667D03*
X15050Y383667D03*
X5017Y383667D03*
D28*
X-76200Y411734D03*
X76200Y411734D03*
D27*
X-25083Y383667D03*
X-35116Y383667D03*
X-45149Y383667D03*
X25083Y383667D03*
X35116Y383667D03*
X45149Y383667D03*
D29*
X272352Y63500D02*
X286448Y63500D01*
X286448Y88900D02*
X272352Y88900D01*
X272352Y114300D02*
X286448Y114300D01*
D17*
X0Y-68072D02*
X0Y-84328D01*
X25400Y-84328D02*
X25400Y-68072D01*
X-63500Y-68072D02*
X-63500Y-84328D01*
X-38100Y-84328D02*
X-38100Y-68072D01*
X322072Y364490D02*
X338328Y364490D01*
X338328Y389890D02*
X322072Y389890D01*
X322072Y415290D02*
X338328Y415290D01*
X338328Y440690D02*
X322072Y440690D01*
D30*
X-304800Y287020D03*
D31*
X-304800Y322580D03*
D32*
X-476250Y294800D03*
X-476250Y314800D03*
D30*
X-419100Y101600D03*
D33*
X-419100Y66040D03*
D32*
X-563880Y91600D03*
X-563880Y111600D03*
D30*
X-199390Y-241300D03*
D34*
X-234950Y-241300D03*
D32*
X-323850Y-365600D03*
X-323850Y-345600D03*
D30*
X-299720Y-241300D03*
D34*
X-335280Y-241300D03*
D32*
X-488950Y-238600D03*
X-488950Y-218600D03*
D35*
G36*
X122369Y-90201D02*
X102901Y-109669D01*
X83433Y-90201D01*
X102901Y-70733D01*
X122369Y-90201D01*
G37*
D36*
X74899Y-62199D03*
D32*
X139700Y-181130D03*
X139700Y-161130D03*
X139700Y-141130D03*
X139700Y-121130D03*
D37*
X208280Y-279400D03*
X177800Y-139700D03*
X177800Y-177800D03*
X198120Y-157480D03*
X139700Y-63500D03*
X-317500Y25400D03*
M02*
