G04 EAGLE Gerber X2 export*
G75*
%MOMM*%
%FSLAX34Y34*%
%LPD*%
%AMOC8*
5,1,8,0,0,1.08239X$1,22.5*%
G01*
%ADD10C,3.703200*%
%ADD11P,1.869504X8X22.500000*%
%ADD12C,1.727200*%
%ADD13R,2.209800X0.812800*%
%ADD14R,3.810000X2.870200*%
%ADD15R,0.812800X2.209800*%
%ADD16R,2.870200X3.810000*%


D10*
X190500Y0D03*
X0Y-190500D03*
X-190500Y0D03*
D11*
X-63500Y-12700D03*
X-63500Y12700D03*
X-38100Y-12700D03*
X-38100Y12700D03*
X-12700Y-12700D03*
X-12700Y12700D03*
X12700Y-12700D03*
X12700Y12700D03*
X38100Y-12700D03*
X38100Y12700D03*
X63500Y-12700D03*
X63500Y12700D03*
D12*
X-12700Y93980D02*
X-12700Y109220D01*
X12700Y109220D02*
X12700Y93980D01*
D13*
G36*
X114291Y196119D02*
X125339Y215255D01*
X132379Y211191D01*
X121331Y192055D01*
X114291Y196119D01*
G37*
G36*
X122870Y191166D02*
X133918Y210302D01*
X140958Y206238D01*
X129910Y187102D01*
X122870Y191166D01*
G37*
G36*
X96913Y206152D02*
X107961Y225288D01*
X115001Y221224D01*
X103953Y202088D01*
X96913Y206152D01*
G37*
G36*
X105492Y201199D02*
X116540Y220335D01*
X123580Y216271D01*
X112532Y197135D01*
X105492Y201199D01*
G37*
D14*
G36*
X149841Y198764D02*
X168891Y231759D01*
X193747Y217408D01*
X174697Y184413D01*
X149841Y198764D01*
G37*
G36*
X72191Y243595D02*
X91241Y276590D01*
X116097Y262239D01*
X97047Y229244D01*
X72191Y243595D01*
G37*
D15*
X-5080Y-300863D03*
X-14986Y-300863D03*
X14986Y-300863D03*
X5080Y-300863D03*
D16*
X-44831Y-328930D03*
X44831Y-328930D03*
D13*
G36*
X-145279Y-251237D02*
X-156327Y-270373D01*
X-163367Y-266309D01*
X-152319Y-247173D01*
X-145279Y-251237D01*
G37*
G36*
X-153858Y-246284D02*
X-164906Y-265420D01*
X-171946Y-261356D01*
X-160898Y-242220D01*
X-153858Y-246284D01*
G37*
G36*
X-127901Y-261270D02*
X-138949Y-280406D01*
X-145989Y-276342D01*
X-134941Y-257206D01*
X-127901Y-261270D01*
G37*
G36*
X-136480Y-256317D02*
X-147528Y-275453D01*
X-154568Y-271389D01*
X-143520Y-252253D01*
X-136480Y-256317D01*
G37*
D14*
G36*
X-180829Y-253882D02*
X-199879Y-286877D01*
X-224735Y-272526D01*
X-205685Y-239531D01*
X-180829Y-253882D01*
G37*
G36*
X-103179Y-298713D02*
X-122229Y-331708D01*
X-147085Y-317357D01*
X-128035Y-284362D01*
X-103179Y-298713D01*
G37*
D13*
G36*
X-252253Y-143520D02*
X-271389Y-154568D01*
X-275453Y-147528D01*
X-256317Y-136480D01*
X-252253Y-143520D01*
G37*
G36*
X-257206Y-134941D02*
X-276342Y-145989D01*
X-280406Y-138949D01*
X-261270Y-127901D01*
X-257206Y-134941D01*
G37*
G36*
X-242220Y-160898D02*
X-261356Y-171946D01*
X-265420Y-164906D01*
X-246284Y-153858D01*
X-242220Y-160898D01*
G37*
G36*
X-247173Y-152319D02*
X-266309Y-163367D01*
X-270373Y-156327D01*
X-251237Y-145279D01*
X-247173Y-152319D01*
G37*
D14*
G36*
X-284362Y-128035D02*
X-317357Y-147085D01*
X-331708Y-122229D01*
X-298713Y-103179D01*
X-284362Y-128035D01*
G37*
G36*
X-239531Y-205685D02*
X-272526Y-224735D01*
X-286877Y-199879D01*
X-253882Y-180829D01*
X-239531Y-205685D01*
G37*
D15*
X5080Y237871D03*
X14986Y237871D03*
X-14986Y237871D03*
X-5080Y237871D03*
D16*
X44831Y265938D03*
X-44831Y265938D03*
D13*
G36*
X-112532Y197135D02*
X-123580Y216271D01*
X-116540Y220335D01*
X-105492Y201199D01*
X-112532Y197135D01*
G37*
G36*
X-103953Y202088D02*
X-115001Y221224D01*
X-107961Y225288D01*
X-96913Y206152D01*
X-103953Y202088D01*
G37*
G36*
X-129910Y187102D02*
X-140958Y206238D01*
X-133918Y210302D01*
X-122870Y191166D01*
X-129910Y187102D01*
G37*
G36*
X-121331Y192055D02*
X-132379Y211191D01*
X-125339Y215255D01*
X-114291Y196119D01*
X-121331Y192055D01*
G37*
D14*
G36*
X-97047Y229244D02*
X-116097Y262239D01*
X-91241Y276590D01*
X-72191Y243595D01*
X-97047Y229244D01*
G37*
G36*
X-174697Y184413D02*
X-193747Y217408D01*
X-168891Y231759D01*
X-149841Y198764D01*
X-174697Y184413D01*
G37*
D13*
G36*
X-251237Y145279D02*
X-270373Y156327D01*
X-266309Y163367D01*
X-247173Y152319D01*
X-251237Y145279D01*
G37*
G36*
X-246284Y153858D02*
X-265420Y164906D01*
X-261356Y171946D01*
X-242220Y160898D01*
X-246284Y153858D01*
G37*
G36*
X-261270Y127901D02*
X-280406Y138949D01*
X-276342Y145989D01*
X-257206Y134941D01*
X-261270Y127901D01*
G37*
G36*
X-256317Y136480D02*
X-275453Y147528D01*
X-271389Y154568D01*
X-252253Y143520D01*
X-256317Y136480D01*
G37*
D14*
G36*
X-253882Y180829D02*
X-286877Y199879D01*
X-272526Y224735D01*
X-239531Y205685D01*
X-253882Y180829D01*
G37*
G36*
X-298713Y103179D02*
X-331708Y122229D01*
X-317357Y147085D01*
X-284362Y128035D01*
X-298713Y103179D01*
G37*
D13*
X-300863Y5080D03*
X-300863Y14986D03*
X-300863Y-14986D03*
X-300863Y-5080D03*
D14*
X-328930Y44831D03*
X-328930Y-44831D03*
D13*
G36*
X252253Y143520D02*
X271389Y154568D01*
X275453Y147528D01*
X256317Y136480D01*
X252253Y143520D01*
G37*
G36*
X257206Y134941D02*
X276342Y145989D01*
X280406Y138949D01*
X261270Y127901D01*
X257206Y134941D01*
G37*
G36*
X242220Y160898D02*
X261356Y171946D01*
X265420Y164906D01*
X246284Y153858D01*
X242220Y160898D01*
G37*
G36*
X247173Y152319D02*
X266309Y163367D01*
X270373Y156327D01*
X251237Y145279D01*
X247173Y152319D01*
G37*
D14*
G36*
X284362Y128035D02*
X317357Y147085D01*
X331708Y122229D01*
X298713Y103179D01*
X284362Y128035D01*
G37*
G36*
X239531Y205685D02*
X272526Y224735D01*
X286877Y199879D01*
X253882Y180829D01*
X239531Y205685D01*
G37*
D13*
X300863Y-5080D03*
X300863Y-14986D03*
X300863Y14986D03*
X300863Y5080D03*
D14*
X328930Y-44831D03*
X328930Y44831D03*
D13*
G36*
X251237Y-145279D02*
X270373Y-156327D01*
X266309Y-163367D01*
X247173Y-152319D01*
X251237Y-145279D01*
G37*
G36*
X246284Y-153858D02*
X265420Y-164906D01*
X261356Y-171946D01*
X242220Y-160898D01*
X246284Y-153858D01*
G37*
G36*
X261270Y-127901D02*
X280406Y-138949D01*
X276342Y-145989D01*
X257206Y-134941D01*
X261270Y-127901D01*
G37*
G36*
X256317Y-136480D02*
X275453Y-147528D01*
X271389Y-154568D01*
X252253Y-143520D01*
X256317Y-136480D01*
G37*
D14*
G36*
X253882Y-180829D02*
X286877Y-199879D01*
X272526Y-224735D01*
X239531Y-205685D01*
X253882Y-180829D01*
G37*
G36*
X298713Y-103179D02*
X331708Y-122229D01*
X317357Y-147085D01*
X284362Y-128035D01*
X298713Y-103179D01*
G37*
D13*
G36*
X143520Y-252253D02*
X154568Y-271389D01*
X147528Y-275453D01*
X136480Y-256317D01*
X143520Y-252253D01*
G37*
G36*
X134941Y-257206D02*
X145989Y-276342D01*
X138949Y-280406D01*
X127901Y-261270D01*
X134941Y-257206D01*
G37*
G36*
X160898Y-242220D02*
X171946Y-261356D01*
X164906Y-265420D01*
X153858Y-246284D01*
X160898Y-242220D01*
G37*
G36*
X152319Y-247173D02*
X163367Y-266309D01*
X156327Y-270373D01*
X145279Y-251237D01*
X152319Y-247173D01*
G37*
D14*
G36*
X128035Y-284362D02*
X147085Y-317357D01*
X122229Y-331708D01*
X103179Y-298713D01*
X128035Y-284362D01*
G37*
G36*
X205685Y-239531D02*
X224735Y-272526D01*
X199879Y-286877D01*
X180829Y-253882D01*
X205685Y-239531D01*
G37*
M02*
