M48
;GenerationSoftware,Autodesk,EAGLE,8.6.0*%
;CreationDate,2018-04-30T07:54:42Z*%
FMAT,2
ICI,OFF
METRIC,TZ,000.000
T3C0.550
T2C0.914
T1C3.500
%
G90
M71
T1
X19050Y0
X0Y-19050
X-19050Y0
T2
X1270Y10160
X-6350Y-1270
X-6350Y1270
X-3810Y-1270
X-3810Y1270
X-1270Y-1270
X-1270Y1270
X1270Y-1270
X1270Y1270
X3810Y-1270
X3810Y1270
X6350Y-1270
X6350Y1270
X-1270Y10160
T3
X-2921Y-26289
X-16602Y-23714
X25709Y11430
X-26670Y-11430
X-23876Y-11430
X22860Y10160
X14097Y17907
X12573Y16383
X2982Y21048
X2540Y17780
X-22860Y15240
X-22860Y12700
X-29207Y2540
X-26670Y2540
X29207Y-2667
X26670Y-3810
X23841Y-16729
X21590Y-15240
X11430Y-25836
X11430Y-22860
X-2770Y-28699
X-15240Y-21590
M30