M48
;GenerationSoftware,Autodesk,EAGLE,8.6.0*%
;CreationDate,2018-03-12T05:46:33Z*%
FMAT,2
ICI,OFF
METRIC,TZ,000.000
T10C0.813
T9C0.900
T8C1.000
T7C1.016
T6C1.240
T5C1.250
T4C1.370
T3C1.499
T2C3.000
T1C3.880
%
G90
M71
T1
X59436Y29972
X38100Y25400
T2
X5080Y34290
X88900Y34290
X88900Y5080
X5080Y5080
T3
X27940Y31750
X12700Y31750
T4
X34290Y27130
X41910Y23670
X63246Y28242
X55626Y31702
T5
X6350Y26110
X76910Y29210
X54610Y15800
T6
X87630Y26820
X87630Y22860
X69850Y14120
X69850Y10160
X69850Y6200
X54610Y19760
X6350Y22150
X87630Y18900
X72950Y29210
T7
X18415Y6350
X23495Y8890
X26035Y6350
X26035Y8890
X15875Y6350
X20955Y8890
X23495Y6350
X20955Y6350
X13335Y8890
X15875Y8890
X13335Y6350
X18415Y8890
T8
X30480Y12700
X30480Y10160
X30480Y7620
T9
X17780Y15280
X17780Y20280
T10
X44450Y12700
X44450Y17780
X44450Y7620
X44450Y2540
M30