0
SECTION
2
HEADER
9
$INSUNITS
70
4
9
$ACADVER
1
AC1014
9
$HANDSEED
5
FFFF
0
ENDSEC
0
SECTION
2
TABLES
0
TABLE
2
VPORT
5
8
100
AcDbSymbolTable
0
ENDTAB
0
TABLE
2
LTYPE
5
5
100
AcDbSymbolTable
0
LTYPE
5
14
100
AcDbSymbolTableRecord
100
AcDbLinetypeTableRecord
2
BYBLOCK
70
0
0
LTYPE
5
15
100
AcDbSymbolTableRecord
100
AcDbLinetypeTableRecord
2
BYLAYER
70
0
0
ENDTAB
0
TABLE
2
LAYER
5
2
100
AcDbSymbolTable
70
2
0
LAYER
5
50
100
AcDbSymbolTableRecord
100
AcDbLayerTableRecord
2
0
70
0
6
CONTINUOUS
0
ENDTAB
0
TABLE
2
STYLE
5
3
100
AcDbSymbolTable
70
1
0
STYLE
5
11
100
AcDbSymbolTableRecord
100
AcDbTextStyleTableRecord
2
STANDARD
70
0
0
ENDTAB
0
TABLE
2
VIEW
5
6
100
AcDbSymbolTable
70
0
0
ENDTAB
0
TABLE
2
UCS
5
7
100
AcDbSymbolTable
70
0
0
ENDTAB
0
TABLE
2
APPID
5
9
100
AcDbSymbolTable
70
2
0
APPID
5
12
100
AcDbSymbolTableRecord
100
AcDbRegAppTableRecord
2
ACAD
70
0
0
ENDTAB
0
TABLE
2
DIMSTYLE
5
A
100
AcDbSymbolTable
70
1
0
ENDTAB
0
TABLE
2
BLOCK_RECORD
5
1
100
AcDbSymbolTable
70
1
0
BLOCK_RECORD
5
1F
100
AcDbSymbolTableRecord
100
AcDbBlockTableRecord
2
*MODEL_SPACE
0
BLOCK_RECORD
5
1B
100
AcDbSymbolTableRecord
100
AcDbBlockTableRecord
2
*PAPER_SPACE
0
ENDTAB
0
ENDSEC
0
SECTION
2
BLOCKS
0
BLOCK
5
20
100
AcDbEntity
100
AcDbBlockBegin
2
*MODEL_SPACE
0
ENDBLK
5
21
100
AcDbEntity
100
AcDbBlockEnd
0
BLOCK
5
1C
100
AcDbEntity
100
AcDbBlockBegin
2
*PAPER_SPACE
0
ENDBLK
5
1D
100
AcDbEntity
100
AcDbBlockEnd
0
ENDSEC
0
SECTION
2
ENTITIES
0
CIRCLE
5
100
100
AcDbEntity
8
0
100
AcDbCircle
10
42.261826174069945
20
90.630778703664916
30
0
40
1.5000000000000036
0
CIRCLE
5
101
100
AcDbEntity
8
0
100
AcDbCircle
10
-42.261826174069938
20
90.63077870366493
30
0
40
1.5000000000000036
0
CIRCLE
5
102
100
AcDbEntity
8
0
100
AcDbCircle
10
90.630778703665001
20
42.261826174069874
30
0
40
1.5000000000000036
0
CIRCLE
5
103
100
AcDbEntity
8
0
100
AcDbCircle
10
-90.630778703664987
20
42.261826174069874
30
0
40
1.5000000000000036
0
LINE
5
104
100
AcDbEntity
8
0
100
AcDbLine
10
-53.725973234553884
20
-39.583837610822897
30
0
11
-39.583837610822947
21
-53.725973234553848
31
0
0
ARC
5
105
100
AcDbEntity
8
0
100
AcDbCircle
10
-41.705157954382592
20
-55.847293578113494
30
0
40
3.0000000000000067
100
AcDbArc
50
-134.99999999999991
51
45
0
LINE
5
106
100
AcDbEntity
8
0
100
AcDbLine
10
-43.826478297942238
20
-57.968613921673146
30
0
11
-57.96861389006304
21
-43.826478329552316
31
0
0
ARC
5
107
100
AcDbEntity
8
0
100
AcDbCircle
10
-55.847293578113536
20
-41.705157954382543
30
0
40
3.0000000000000036
100
AcDbArc
50
44.999999999999908
51
225.00000120741817
0
LWPOLYLINE
5
108
100
AcDbEntity
8
0
100
AcDbPolyline
90
4
70
1
43
0.0
10
-53.725973234553834
20
39.583837610822947
10
-39.583837610822876
20
53.725973234553884
42
0.99999999999999989
10
-43.826478297942167
20
57.968613921673182
10
-57.968613921673125
20
43.826478297942238
42
0.99999999999999989
0
LINE
5
109
100
AcDbEntity
8
0
100
AcDbLine
10
39.583837610822869
20
-53.725973234553891
30
0
11
53.72597323455382
21
-39.583837610822954
31
0
0
ARC
5
110
100
AcDbEntity
8
0
100
AcDbCircle
10
55.847293578113472
20
-41.705157954382599
30
0
40
3.0000000000000067
100
AcDbArc
50
-45
51
135.00000000000011
0
LINE
5
111
100
AcDbEntity
8
0
100
AcDbLine
10
57.968613921673118
20
-43.826478297942245
30
0
11
43.826478329552288
21
-57.968613890063054
31
0
0
ARC
5
112
100
AcDbEntity
8
0
100
AcDbCircle
10
41.705157954382514
20
-55.84729357811355
30
0
40
3.0000000000000098
100
AcDbArc
50
134.9999999999998
51
315.00000120741811
0
LINE
5
113
100
AcDbEntity
8
0
100
AcDbLine
10
53.725973234553891
20
39.583837610822862
30
0
11
39.583837642433089
21
53.725973202943685
31
0
0
ARC
5
114
100
AcDbEntity
8
0
100
AcDbCircle
10
41.705157954382614
20
55.847293578113472
30
0
40
3.0000000000000004
100
AcDbArc
50
45.000000000000199
51
225.00000120741845
0
LINE
5
115
100
AcDbEntity
8
0
100
AcDbLine
10
43.826478297942245
20
57.968613921673118
30
0
11
57.968613921673189
21
43.82647829794216
31
0
0
ARC
5
116
100
AcDbEntity
8
0
100
AcDbCircle
10
55.847293578113543
20
41.705157954382514
30
0
40
3.0000000000000098
100
AcDbArc
50
-135
51
45
0
CIRCLE
5
117
100
AcDbEntity
8
0
100
AcDbCircle
10
20.699999999999996
20
97.834094261663125
30
0
40
1.5000000000000036
0
CIRCLE
5
118
100
AcDbEntity
8
0
100
AcDbCircle
10
-18.300000000000004
20
62.370746347947446
30
0
40
1.5000000000000013
0
CIRCLE
5
119
100
AcDbEntity
8
0
100
AcDbCircle
10
18.300000000000004
20
62.370746347947446
30
0
40
1.5000000000000013
0
CIRCLE
5
120
100
AcDbEntity
8
0
100
AcDbCircle
10
-20.700000000000003
20
97.834094261663125
30
0
40
1.5000000000000036
0
LWPOLYLINE
5
121
100
AcDbEntity
8
0
100
AcDbPolyline
90
8
70
1
43
0.0
10
-30.320305563466938
20
90.031544863664323
42
-0.1638656024074579
10
30.320305563466956
20
90.03154486366428
42
-0.55652313788306018
10
32.260033913427783
20
81.757508596486076
10
20.112158770786877
20
69.609633453845063
42
-0.25754274367713298
10
15.471516540530514
20
68.268822869125927
42
0.1118944691904583
10
-15.471516540530219
20
68.268822869125984
42
-0.25754274367712987
10
-20.112158770786543
20
69.609633453845078
10
-32.260033913427669
20
81.757508596486076
42
-0.55652313788306251
0
CIRCLE
5
122
100
AcDbEntity
8
0
100
AcDbCircle
10
0
20
-64.719999999999999
30
0
40
1.5000000000000002
0
CIRCLE
5
123
100
AcDbEntity
8
0
100
AcDbCircle
10
41.741999999999997
20
-85.807000000000002
30
0
40
1.5000000000000036
0
CIRCLE
5
124
100
AcDbEntity
8
0
100
AcDbCircle
10
-41.741999999999997
20
-85.807000000000002
30
0
40
1.5000000000000036
0
CIRCLE
5
125
100
AcDbEntity
8
0
100
AcDbCircle
10
89.202005106330404
20
-46.304649237687627
30
0
40
1.7500000000000071
0
CIRCLE
5
126
100
AcDbEntity
8
0
100
AcDbCircle
10
-89.202005106330404
20
-46.304649237687613
30
0
40
1.7500000000000071
0
LWPOLYLINE
5
127
100
AcDbEntity
8
0
100
AcDbPolyline
90
16
70
1
43
0.0
10
75.291669955135262
20
-28.393220934475778
42
-0.13536841823351006
10
81.303137700829197
20
-31.805663017770879
10
81.757508596486048
20
-32.260033913427769
42
0.55652313788306185
10
90.031544863664251
20
-30.320305563466952
42
0.050973455951309719
10
94.303947368421063
20
-11.478915921552431
42
0.065064240178353827
10
94.303947368421049
20
11.478915921552542
42
0.050973455951309303
10
90.031544863664266
20
30.320305563466899
42
0.55652313788306351
10
81.757508596486034
20
32.260033913427684
10
81.303137700829197
20
31.805663017770833
42
-0.13536841823350929
10
75.291669955135504
20
28.393220934475849
10
71.368073775279186
20
27.403072956940235
10
70.217926464818007
20
27.067566579672146
42
0.41938225613979346
10
66.843565835209162
20
20.783111086506104
42
-0.15187495999288514
10
66.843565835209191
20
-20.783111086506171
42
0.41938225613979374
10
70.217926464818021
20
-27.067566579672182
10
71.368073775279115
20
-27.403072956940232
0
LWPOLYLINE
5
128
100
AcDbEntity
8
0
100
AcDbPolyline
90
16
70
1
43
0.0
10
-75.291669955135518
20
28.393220934475856
42
-0.13536841823350929
10
-81.303137700829197
20
31.80566301777084
10
-81.757508596486019
20
32.260033913427662
42
0.55652313788306351
10
-90.03154486366428
20
30.320305563466881
42
0.050973455951309303
10
-94.303947368421063
20
11.478915921552542
42
0.074757400851770642
10
-94.303947368421092
20
-11.478915921552439
42
0.050973455951309997
10
-90.031544863664294
20
-30.320305563466952
42
0.55652313788306218
10
-81.757508596486076
20
-32.260033913427755
10
-81.303137700829197
20
-31.80566301777089
42
-0.13536841823351017
10
-75.291669955135248
20
-28.393220934475785
10
-71.368073775279115
20
-27.403072956940232
10
-70.217926464818049
20
-27.067566579672157
42
0.41938225613979535
10
-66.843565835209247
20
-20.783111086506175
42
-0.15187495999288525
10
-66.843565835209205
20
20.783111086506164
42
0.41938225613979263
10
-70.217926464818021
20
27.067566579672153
10
-71.368073775279186
20
27.403072956940235
0
LWPOLYLINE
5
129
100
AcDbEntity
8
0
100
AcDbPolyline
90
6
70
1
43
0.0
10
46.696495521964152
20
-94.044868578605488
42
-0.28711761787989715
10
43.528853856742018
20
-93.732412037701337
10
22.61262497285702
20
-77.582340119931928
42
0.3411373214803694
10
-22.612624972857034
20
-77.582340119931942
10
-43.528853856741989
20
-93.732412037701366
42
-0.28711761787988727
10
-46.696495521964103
20
-94.044868578605502
42
-4.2625226230303026
0
LWPOLYLINE
5
130
100
AcDbEntity
8
0
100
AcDbPolyline
90
8
70
1
43
0.0
10
81.519318049940054
20
-49.395558349640218
42
-0.12089627479328707
10
49.39555834964024
20
-81.519318049940068
42
-0.34536858054270042
10
45.719565100643734
20
-81.074904159971126
10
38.876730829636358
20
-74.232069888963778
42
-0.41421356237309537
10
38.876730829636358
20
-69.989429201844487
10
69.989429201844388
20
-38.87673082963633
42
-0.41421356237308615
10
74.232069888963721
20
-38.876730829636365
10
81.074904159971126
20
-45.719565100643734
42
-0.34536858054270203
0
ARC
5
131
100
AcDbEntity
8
0
100
AcDbCircle
10
2.2204460492503131e-15
20
-7.1054273576010019e-14
30
0
40
60.000000000000099
100
AcDbArc
50
88.62812482153258
51
170.98301736299106
0
LWPOLYLINE
5
132
100
AcDbEntity
8
0
100
AcDbPolyline
90
8
70
1
43
0.0
10
-81.519318049940068
20
49.395558349640282
42
-0.12089627479328685
10
-49.39555834964024
20
81.519318049940068
42
-0.3453685805427012
10
-45.71956510064372
20
81.074904159971126
10
-38.876730829636358
20
74.232069888963792
42
-0.4142135623730957
10
-38.876730829636351
20
69.989429201844487
10
-69.9894292018447
20
38.876730829636621
42
-0.41421356237313917
10
-74.232069888963721
20
38.876730829636365
10
-81.074904159971126
20
45.719565100643734
42
-0.34536858054270203
0
CIRCLE
5
133
100
AcDbEntity
8
0
100
AcDbCircle
10
-36.401857095483471
20
-61.1505944370126
30
0
40
1.5000000000000036
0
CIRCLE
5
134
100
AcDbEntity
8
0
100
AcDbCircle
10
-61.150594437012629
20
-36.401857095483422
30
0
40
1.4999999999999947
0
CIRCLE
5
135
100
AcDbEntity
8
0
100
AcDbCircle
10
61.150594437012629
20
-36.401857095483464
30
0
40
1.5000000000000036
0
LWPOLYLINE
5
136
100
AcDbEntity
8
0
100
AcDbPolyline
90
8
70
1
43
0.0
10
49.395558349640197
20
81.519318049940082
42
-0.12089627479328696
10
81.519318049940082
20
49.395558349640282
42
-0.34536858054270131
10
81.07490415997114
20
45.719565100643763
10
74.232069888963991
20
38.876730829636188
42
-0.41421356237314255
10
69.989429201844501
20
38.876730829636379
10
38.876730829636372
20
69.989429201844459
42
-0.41421356237309626
10
38.876730829636365
20
74.232069888963764
10
45.719565100643763
20
81.074904159971169
42
-0.34536858054269703
0
LWPOLYLINE
5
137
100
AcDbEntity
8
0
100
AcDbPolyline
90
8
70
1
43
0.0
10
-49.39555834964024
20
-81.519318049940082
42
-0.12089627479328707
10
-81.519318049940054
20
-49.39555834964024
42
-0.34536858054270358
10
-81.074904159971126
20
-45.719565100643706
10
-74.232069888963693
20
-38.87673082963645
42
-0.41421356237308526
10
-69.989429201844487
20
-38.876730829636358
10
-38.876730829636386
20
-69.989429201844445
42
-0.41421356237309626
10
-38.876730829636386
20
-74.232069888963736
10
-45.71956510064372
20
-81.074904159971126
42
-0.34536858054270275
0
CIRCLE
5
138
100
AcDbEntity
8
0
100
AcDbCircle
10
-36.401857095483415
20
61.150594437012636
30
0
40
1.4999999999999947
0
CIRCLE
5
139
100
AcDbEntity
8
0
100
AcDbCircle
10
-61.150594437012593
20
36.401857095483486
30
0
40
1.5000000000000036
0
CIRCLE
5
140
100
AcDbEntity
8
0
100
AcDbCircle
10
36.40185709548345
20
-61.150594437012636
30
0
40
1.4999999999999947
0
CIRCLE
5
141
100
AcDbEntity
8
0
100
AcDbCircle
10
61.150594437012636
20
36.401857095483415
30
0
40
1.4999999999999947
0
CIRCLE
5
142
100
AcDbEntity
8
0
100
AcDbCircle
10
36.401857095483479
20
61.150594437012593
30
0
40
1.5000000000000036
0
LINE
5
143
100
AcDbEntity
8
0
100
AcDbLine
10
-55.51785701583028
20
9.0635728258708497
30
0
11
-59.258515774515885
21
9.4036327130238213
31
0
0
CIRCLE
5
144
100
AcDbEntity
8
0
100
AcDbCircle
10
55.879999999892348
20
-5.0799999999853815
30
0
40
1.5000000000000036
0
LINE
5
145
100
AcDbEntity
8
0
100
AcDbLine
10
1.4364870612897274
20
59.982801742855841
30
0
11
1.0964271741298814
21
56.242142984177789
31
0
0
ARC
5
146
100
AcDbEntity
8
0
100
AcDbCircle
10
5.0800000000000001
20
55.88000000000001
30
0
40
4.0000000000000044
100
AcDbArc
50
174.80557109215439
51
354.8055710921542
0
LINE
5
147
100
AcDbEntity
8
0
100
AcDbLine
10
9.0635728258701178
20
55.517857015822223
30
0
11
9.403632713031282
21
59.258515774514713
31
0
0
ARC
5
148
100
AcDbEntity
8
0
100
AcDbCircle
10
2.2204460492503131e-15
20
-7.1054273576010019e-14
30
0
40
59.999999999999993
100
AcDbArc
50
-1.3718751784557077
51
80.983017362983901
0
LINE
5
149
100
AcDbEntity
8
0
100
AcDbLine
10
59.982801742856104
20
-1.4364870612776326
30
0
11
56.242142984062426
21
-1.0964271741145615
31
0
0
ARC
5
150
100
AcDbEntity
8
0
100
AcDbCircle
10
55.879999999892348
20
-5.0799999999853815
30
0
40
4.0000000000000053
100
AcDbArc
50
84.805571092265154
51
264.80557109226515
0
LINE
5
151
100
AcDbEntity
8
0
100
AcDbLine
10
55.517857015722271
20
-9.0635728258562018
30
0
11
59.258515774516603
21
-9.4036327130193271
31
0
0
ARC
5
152
100
AcDbEntity
8
0
100
AcDbCircle
10
2.2204460492503131e-15
20
-7.1054273576010019e-14
30
0
40
59.999999999999936
100
AcDbArc
50
268.62812482154646
51
350.9830173629955
0
LINE
5
153
100
AcDbEntity
8
0
100
AcDbLine
10
-1.436487061275149
20
-59.982801742856182
30
0
11
-1.0964271741284852
21
-56.242142984162378
31
0
0
ARC
5
154
100
AcDbEntity
8
0
100
AcDbCircle
10
-5.0800000000000001
20
-55.88000000000001
30
0
40
3.9999999999999987
100
AcDbArc
50
-5.1944289076238821
51
174.80557109237614
0
LINE
5
155
100
AcDbEntity
8
0
100
AcDbLine
10
-9.0635728258715158
20
-55.517857015837642
30
0
11
-9.4036327130168864
21
-59.258515774516987
31
0
0
ARC
5
156
100
AcDbEntity
8
0
100
AcDbCircle
10
2.2204460492503131e-15
20
-7.1054273576010019e-14
30
0
40
60.000000000000007
100
AcDbArc
50
178.62812482153976
51
260.98301736299777
0
LINE
5
157
100
AcDbEntity
8
0
100
AcDbLine
10
-59.982801742856005
20
1.4364870612821101
30
0
11
-56.242142984169746
21
1.0964271741291514
31
0
0
ARC
5
158
100
AcDbEntity
8
0
100
AcDbCircle
10
-55.88000000000001
20
5.0800000000000001
30
0
40
4.0000000000000027
100
AcDbArc
50
-95.194428907729943
51
84.805571092270171
0
CIRCLE
5
159
100
AcDbEntity
8
0
100
AcDbCircle
10
-5.0800000000000001
20
-55.88000000000001
30
0
40
1.4999999999999991
0
CIRCLE
5
160
100
AcDbEntity
8
0
100
AcDbCircle
10
5.0800000000000001
20
55.88000000000001
30
0
40
1.5000000000000036
0
CIRCLE
5
161
100
AcDbEntity
8
0
100
AcDbCircle
10
-55.88000000000001
20
5.0800000000000001
30
0
40
1.5000000000000036
0
ENDSEC
0
SECTION
2
OBJECTS
0
DICTIONARY
5
C
100
AcDbDictionary
3
ACAD_GROUP
350
D
3
ACAD_MLINESTYLE
350
17
0
DICTIONARY
5
D
100
AcDbDictionary
0
DICTIONARY
5
1A
330
C
100
AcDbDictionary
0
DICTIONARY
5
17
100
AcDbDictionary
0
ENDSEC
0
EOF
