0
SECTION
2
HEADER
9
$INSUNITS
70
4
9
$ACADVER
1
AC1014
9
$HANDSEED
5
FFFF
0
ENDSEC
0
SECTION
2
TABLES
0
TABLE
2
VPORT
5
8
100
AcDbSymbolTable
0
ENDTAB
0
TABLE
2
LTYPE
5
5
100
AcDbSymbolTable
0
LTYPE
5
14
100
AcDbSymbolTableRecord
100
AcDbLinetypeTableRecord
2
BYBLOCK
70
0
0
LTYPE
5
15
100
AcDbSymbolTableRecord
100
AcDbLinetypeTableRecord
2
BYLAYER
70
0
0
ENDTAB
0
TABLE
2
LAYER
5
2
100
AcDbSymbolTable
70
2
0
LAYER
5
50
100
AcDbSymbolTableRecord
100
AcDbLayerTableRecord
2
0
70
0
6
CONTINUOUS
0
ENDTAB
0
TABLE
2
STYLE
5
3
100
AcDbSymbolTable
70
1
0
STYLE
5
11
100
AcDbSymbolTableRecord
100
AcDbTextStyleTableRecord
2
STANDARD
70
0
0
ENDTAB
0
TABLE
2
VIEW
5
6
100
AcDbSymbolTable
70
0
0
ENDTAB
0
TABLE
2
UCS
5
7
100
AcDbSymbolTable
70
0
0
ENDTAB
0
TABLE
2
APPID
5
9
100
AcDbSymbolTable
70
2
0
APPID
5
12
100
AcDbSymbolTableRecord
100
AcDbRegAppTableRecord
2
ACAD
70
0
0
ENDTAB
0
TABLE
2
DIMSTYLE
5
A
100
AcDbSymbolTable
70
1
0
ENDTAB
0
TABLE
2
BLOCK_RECORD
5
1
100
AcDbSymbolTable
70
1
0
BLOCK_RECORD
5
1F
100
AcDbSymbolTableRecord
100
AcDbBlockTableRecord
2
*MODEL_SPACE
0
BLOCK_RECORD
5
1B
100
AcDbSymbolTableRecord
100
AcDbBlockTableRecord
2
*PAPER_SPACE
0
ENDTAB
0
ENDSEC
0
SECTION
2
BLOCKS
0
BLOCK
5
20
100
AcDbEntity
100
AcDbBlockBegin
2
*MODEL_SPACE
0
ENDBLK
5
21
100
AcDbEntity
100
AcDbBlockEnd
0
BLOCK
5
1C
100
AcDbEntity
100
AcDbBlockBegin
2
*PAPER_SPACE
0
ENDBLK
5
1D
100
AcDbEntity
100
AcDbBlockEnd
0
ENDSEC
0
SECTION
2
ENTITIES
0
CIRCLE
5
100
100
AcDbEntity
8
0
100
AcDbCircle
10
-35.190950988220628
20
-78.684559569053278
30
0
40
1.4999999999999991
0
CIRCLE
5
101
100
AcDbEntity
8
0
100
AcDbCircle
10
35.190950988220621
20
-78.684559569053263
30
0
40
1.5000000000000036
0
CIRCLE
5
102
100
AcDbEntity
8
0
100
AcDbCircle
10
5.0800000000000001
20
55.88000000000001
30
0
40
1.5000000000000002
0
CIRCLE
5
103
100
AcDbEntity
8
0
100
AcDbCircle
10
55.88000000000001
20
-5.0800000000000001
30
0
40
1.5000000000000036
0
LWPOLYLINE
5
104
100
AcDbEntity
8
0
100
AcDbPolyline
90
4
70
1
43
0.0
10
-54.38000000000001
20
3.8100000000000001
42
-0.99999999999999989
10
-57.38000000000001
20
3.8100000000000001
10
-57.38000000000001
20
5.0799999999999876
42
-0.99999999999999989
10
-54.38000000000001
20
5.0799999999999876
0
CIRCLE
5
105
100
AcDbEntity
8
0
100
AcDbCircle
10
-5.0800000000000001
20
-55.88000000000001
30
0
40
1.5000000000000002
0
CIRCLE
5
106
100
AcDbEntity
8
0
100
AcDbCircle
10
20.700000000013347
20
97.834093999999993
30
0
40
1.5000000000000036
0
CIRCLE
5
107
100
AcDbEntity
8
0
100
AcDbCircle
10
-20.699999999986648
20
97.834093999999993
30
0
40
1.5000000000000036
0
CIRCLE
5
108
100
AcDbEntity
8
0
100
AcDbCircle
10
18.300000000013348
20
62.371093999999999
30
0
40
1.5000000000000036
0
CIRCLE
5
109
100
AcDbEntity
8
0
100
AcDbCircle
10
-18.299999999986653
20
62.371093999999999
30
0
40
1.5000000000000036
0
LWPOLYLINE
5
110
100
AcDbEntity
8
0
100
AcDbPolyline
90
12
70
1
43
0.0
10
67.614807840235216
20
18.117333157176851
42
-0.13165249758739886
10
67.614807840235173
20
-18.117333157176873
42
0.26794919243112386
10
68.650084020645238
20
-21.981036462333169
10
76.34389996889044
20
-29.674852410578364
42
0.37130263164238264
10
81.550516791970409
20
-30.062667465572225
42
-0.20932790178169824
10
88.98066281219586
20
-28.369861700574326
42
0.39176802491823126
10
93.590351590573164
20
-25.492078949212864
42
0.13375325002797206
10
93.590351590573164
20
25.492078949212949
42
0.39176802491823348
10
88.980662812195817
20
28.369861700574379
42
-0.20932790178170205
10
81.550516791970409
20
30.062667465572183
42
0.37130263164238136
10
76.34389996889044
20
29.674852410578328
10
68.650084020645266
20
21.981036462333194
42
0.2679491924311283
0
LWPOLYLINE
5
111
100
AcDbEntity
8
0
100
AcDbPolyline
90
12
70
1
43
0.0
10
-67.614807840234207
20
-18.117333157176709
42
-0.13165249758739886
10
-67.614807840234164
20
18.117333157177015
42
0.2679491924311237
10
-68.650084020644229
20
21.981036462333307
10
-76.343899968889431
20
29.674852410578509
42
0.3713026316423832
10
-81.550516791969386
20
30.06266746557236
42
-0.20932790178169811
10
-88.980662812194851
20
28.369861700574472
42
0.39176802491823243
10
-93.590351590572141
20
25.492078949212992
42
0.13375325002797206
10
-93.590351590572155
20
-25.492078949212807
42
0.39176802491823415
10
-88.980662812194794
20
-28.369861700574226
42
-0.2093279017817023
10
-81.550516791969386
20
-30.062667465572034
42
0.3713026316423807
10
-76.343899968889431
20
-29.674852410578183
10
-68.650084020644272
20
-21.981036462333069
42
0.26794919243112986
0
LWPOLYLINE
5
112
100
AcDbEntity
8
0
100
AcDbPolyline
90
16
70
1
43
0.0
10
-18.117333157176255
20
67.614807840234747
42
-0.13165249758739875
10
18.117333157177423
20
67.614807840234732
42
0.2679491924311237
10
21.981036462333709
20
68.650084020644812
10
29.674852410578907
20
76.343899968890014
42
0.37130263164238325
10
30.062667465572773
20
81.550516791969997
42
-0.2075527770294649
10
28.357951979777255
20
88.917123445354946
42
0.60599860825055107
10
22.768852746332342
20
93.282187709886017
42
-0.33304714918728767
10
16.912810338987228
20
94.569557734104393
42
0.17926914093185667
10
14.480179572394459
20
95.913108590802949
42
0.075060630550972895
10
-14.480179572353881
20
95.913108590808889
42
0.1792691409323168
10
-16.912810338951878
20
94.56955773410597
42
-0.33304714918849754
10
-22.768852746321528
20
93.282187709887182
42
0.6059986082517419
10
-28.357951979776978
20
88.917123445359167
42
-0.20755277702958799
10
-30.062667465571629
20
81.550516791969983
42
0.37130263164238142
10
-29.674852410577763
20
76.343899968890014
10
-21.981036462332632
20
68.65008402064484
42
0.26794919243112786
0
CIRCLE
5
113
100
AcDbEntity
8
0
100
AcDbCircle
10
-14.869712718288392
20
-62.748737341528553
30
0
40
1.5000000000000013
0
CIRCLE
5
114
100
AcDbEntity
8
0
100
AcDbCircle
10
37.701242642455405
20
87.198717325512717
30
0
40
1.5000000000000036
0
CIRCLE
5
115
100
AcDbEntity
8
0
100
AcDbCircle
10
-87.198717325511964
20
-37.701242642454474
30
0
40
1.5000000000000036
0
CIRCLE
5
116
100
AcDbEntity
8
0
100
AcDbCircle
10
87.198717325512973
20
37.701242642454631
30
0
40
1.5000000000000036
0
CIRCLE
5
117
100
AcDbEntity
8
0
100
AcDbCircle
10
14.869712718288827
20
-62.748737341529186
30
0
40
1.5000000000000013
0
CIRCLE
5
118
100
AcDbEntity
8
0
100
AcDbCircle
10
-37.701242642454076
20
87.198717325512547
30
0
40
1.5000000000000036
0
CIRCLE
5
119
100
AcDbEntity
8
0
100
AcDbCircle
10
-87.198717325512135
20
37.701242642454986
30
0
40
1.5000000000000036
0
CIRCLE
5
120
100
AcDbEntity
8
0
100
AcDbCircle
10
87.198717325513144
20
-37.701242642454858
30
0
40
1.5000000000000036
0
CIRCLE
5
121
100
AcDbEntity
8
0
100
AcDbCircle
10
-35.695026278172627
20
-60.443763619701762
30
0
40
1.4999999999999991
0
CIRCLE
5
122
100
AcDbEntity
8
0
100
AcDbCircle
10
35.69502627817262
20
60.443763619701762
30
0
40
1.4999999999999991
0
CIRCLE
5
123
100
AcDbEntity
8
0
100
AcDbCircle
10
-35.695026278172612
20
60.443763619701784
30
0
40
1.5000000000000036
0
CIRCLE
5
124
100
AcDbEntity
8
0
100
AcDbCircle
10
35.695026278172577
20
-60.443763619701784
30
0
40
1.5000000000000036
0
CIRCLE
5
125
100
AcDbEntity
8
0
100
AcDbCircle
10
-60.44376361970177
20
-35.695026278172584
30
0
40
1.5000000000000036
0
CIRCLE
5
126
100
AcDbEntity
8
0
100
AcDbCircle
10
60.44376361970177
20
35.695026278172591
30
0
40
1.5000000000000036
0
CIRCLE
5
127
100
AcDbEntity
8
0
100
AcDbCircle
10
-60.443763619701791
20
35.695026278172612
30
0
40
1.4999999999999947
0
CIRCLE
5
128
100
AcDbEntity
8
0
100
AcDbCircle
10
60.443763619701755
20
-35.695026278172634
30
0
40
1.4999999999999947
0
LWPOLYLINE
5
129
100
AcDbEntity
8
0
100
AcDbPolyline
90
16
70
1
43
0.0
10
-9.9988082720248848
20
-59.160999257444331
42
-0.37346722667073246
10
-59.97919305892669
20
1.5800000000000136
10
-55.88000000000001
20
1.5799999999999914
42
0.83909963117727993
10
-54.682929498360167
20
8.3689241727506634
10
-59.16099925744345
20
9.9988082720246965
42
-0.37346722667073368
10
1.5800000000000058
20
59.979193058926711
10
1.5800000000000003
20
55.88000000000001
42
0.83909963117728015
10
8.3689241727506776
20
54.682929498360167
10
9.9988082720247444
20
59.160999257443677
42
-0.37346722667073795
10
59.979193058926711
20
-1.5800000000000025
10
55.880000000000017
20
-1.5800000000000169
42
0.83909963117728248
10
54.682929498360181
20
-8.3689241727506882
10
59.160999257444573
20
-9.9988082720249132
42
-0.37346722667073656
10
-1.579999999999947
20
-59.979193058926711
10
-1.5799999999999947
20
-55.88000000000001
42
0.83909963117727959
10
-8.3689241727506687
20
-54.682929498360167
0
LWPOLYLINE
5
130
100
AcDbEntity
8
0
100
AcDbPolyline
90
5
43
0.0
10
-43.24963047318624
20
-92.44559082986413
10
-44.27075220523257
20
-93.2721656710922
10
-45.50505684062985
20
-93.72342679060213
10
-46.82054758532637
20
-93.75008252239792
10
-48.074126164956624
20
-93.34815688312135
0
LWPOLYLINE
5
131
100
AcDbEntity
8
0
100
AcDbPolyline
90
17
43
0.0
10
-43.249630473186265
20
-92.44559082986416
10
-37.84342666404712
20
-86.68009071173351
10
-32.43722285490478
20
-81.58794261865533
10
-27.031019045759425
20
-77.18946249824154
10
-21.62481523661133
20
-73.51374202701317
10
-16.21861142746084
20
-70.5960109572169
10
-10.812407618308391
20
-68.47391266628487
10
-5.406203809154473
20
-67.18263508529247
10
3.4594745703880234e-13
20
-66.74873734152918
10
5.406203809155454
20
-67.18263508524723
10
10.812407618310132
20
-68.47391266619866
10
16.21861142746364
20
-70.59601095709802
10
21.62481523661518
20
-73.51374202687393
10
27.03101904576404
20
-77.18946249809811
10
32.43722285490953
20
-81.5879426185272
10
37.84342666405106
20
-86.68009071164299
10
43.249630473188105
20
-92.44559082983558
0
LWPOLYLINE
5
132
100
AcDbEntity
8
0
100
AcDbPolyline
90
5
43
0.0
10
48.07412616497599
20
-93.34815688311134
10
46.8232507512154
20
-93.74968678121942
10
45.50928884222739
20
-93.72421851292091
10
44.273129490591366
20
-93.2735118624269
10
43.249630473188105
20
-92.44559082983554
0
ARC
5
133
100
AcDbEntity
8
0
100
AcDbCircle
10
5.0626169922907138e-13
20
7.1054273576010019e-14
30
0
40
104.99999999999983
100
AcDbArc
50
297.24838271017018
51
298.31386590896386
0
ARC
5
134
100
AcDbEntity
8
0
100
AcDbCircle
10
47.904428851538412
20
-88.916622160358131
30
0
40
4.0000000000000266
100
AcDbArc
50
-61.68613409103542
51
45.000000000000135
0
LINE
5
135
100
AcDbEntity
8
0
100
AcDbLine
10
50.732855976284611
20
-86.088195035611918
30
0
11
38.877006793512066
21
-74.232345852839444
31
0
0
ARC
5
136
100
AcDbEntity
8
0
100
AcDbCircle
10
41.705433918258244
20
-71.403918728093259
30
0
40
4.0000000000000018
100
AcDbArc
50
135
51
225.00000000000006
0
LINE
5
137
100
AcDbEntity
8
0
100
AcDbLine
10
38.877006793512059
20
-68.575491603347075
30
0
11
68.575491603347061
21
-38.877006793512081
31
0
0
ARC
5
138
100
AcDbEntity
8
0
100
AcDbCircle
10
71.403918728093259
20
-41.705433918258272
30
0
40
4.0000000000000018
100
AcDbArc
50
45.000000000000135
51
135.00000000000009
0
LINE
5
139
100
AcDbEntity
8
0
100
AcDbLine
10
74.232345852839444
20
-38.877006793512074
30
0
11
86.088195035611989
21
-50.732855976284561
31
0
0
ARC
5
140
100
AcDbEntity
8
0
100
AcDbCircle
10
88.916622160358187
20
-47.904428851538363
30
0
40
4.0000000000000178
100
AcDbArc
50
225
51
331.68613409103585
0
ARC
5
141
100
AcDbEntity
8
0
100
AcDbCircle
10
5.0626169922907138e-13
20
7.1054273576010019e-14
30
0
40
104.9999999999996
100
AcDbArc
50
-28.313865908964221
51
28.313865908964146
0
ARC
5
142
100
AcDbEntity
8
0
100
AcDbCircle
10
88.916622160358187
20
47.90442885153837
30
0
40
3.9999999999999893
100
AcDbArc
50
28.313865908963493
51
135.00000000000031
0
LINE
5
143
100
AcDbEntity
8
0
100
AcDbLine
10
86.088195035611989
20
50.73285597628454
30
0
11
74.232345852839444
21
38.877006793512052
31
0
0
ARC
5
144
100
AcDbEntity
8
0
100
AcDbCircle
10
71.403918728093259
20
41.705433918258237
30
0
40
4.0000000000000018
100
AcDbArc
50
225.00000000000006
51
315
0
LINE
5
145
100
AcDbEntity
8
0
100
AcDbLine
10
68.575491603347075
20
38.877006793512045
30
0
11
38.877006793512081
21
68.575491603347075
31
0
0
ARC
5
146
100
AcDbEntity
8
0
100
AcDbCircle
10
41.705433918258272
20
71.403918728093259
30
0
40
4.0000000000000018
100
AcDbArc
50
135.00000000000017
51
224.99999999999991
0
LINE
5
147
100
AcDbEntity
8
0
100
AcDbLine
10
38.877006793512074
20
74.232345852839444
30
0
11
50.732855976284583
21
86.088195035611946
31
0
0
ARC
5
148
100
AcDbEntity
8
0
100
AcDbCircle
10
47.904428851538377
20
88.916622160358145
30
0
40
4.0000000000000178
100
AcDbArc
50
-44.99999999999995
51
61.686134091036045
0
ARC
5
149
100
AcDbEntity
8
0
100
AcDbCircle
10
5.0626169922907138e-13
20
7.1054273576010019e-14
30
0
40
104.99999999999966
100
AcDbArc
50
61.686134091036138
51
118.31386590896432
0
ARC
5
150
100
AcDbEntity
8
0
100
AcDbCircle
10
-47.90442885153837
20
88.916622160358187
30
0
40
3.9999999999999964
100
AcDbArc
50
118.31386590896322
51
225.0000000000004
0
LINE
5
151
100
AcDbEntity
8
0
100
AcDbLine
10
-50.732855976284526
20
86.088195035611989
30
0
11
-38.877006793512052
21
74.232345852839472
31
0
0
ARC
5
152
100
AcDbEntity
8
0
100
AcDbCircle
10
-41.705433918258237
20
71.403918728093274
30
0
40
4.0000000000000018
100
AcDbArc
50
-45.00000000000005
51
45.000000000000135
0
LINE
5
153
100
AcDbEntity
8
0
100
AcDbLine
10
-38.877006793512045
20
68.575491603347075
30
0
11
-68.575491603347061
21
38.877006793512088
31
0
0
ARC
5
154
100
AcDbEntity
8
0
100
AcDbCircle
10
-71.403918728093231
20
41.705433918258279
30
0
40
4.0000000000000044
100
AcDbArc
50
224.99999999999991
51
314.99999999999977
0
LINE
5
155
100
AcDbEntity
8
0
100
AcDbLine
10
-74.23234585283943
20
38.877006793512088
30
0
11
-86.088195035611946
21
50.732855976284611
31
0
0
ARC
5
156
100
AcDbEntity
8
0
100
AcDbCircle
10
-88.916622160358145
20
47.904428851538427
30
0
40
4.0000000000000044
100
AcDbArc
50
44.999999999999858
51
151.68613409103605
0
ARC
5
157
100
AcDbEntity
8
0
100
AcDbCircle
10
5.0626169922907138e-13
20
7.1054273576010019e-14
30
0
40
105.0000000000004
100
AcDbArc
50
151.68613409103608
51
208.31386590896395
0
ARC
5
158
100
AcDbEntity
8
0
100
AcDbCircle
10
-88.916622160358173
20
-47.90442885153837
30
0
40
4.0000000000000018
100
AcDbArc
50
208.31386590896383
51
315.00000000000034
0
LINE
5
159
100
AcDbEntity
8
0
100
AcDbLine
10
-86.08819503561196
20
-50.732855976284547
30
0
11
-74.232345852839444
21
-38.877006793512066
31
0
0
ARC
5
160
100
AcDbEntity
8
0
100
AcDbCircle
10
-71.403918728093259
20
-41.705433918258244
30
0
40
3.9999999999999987
100
AcDbArc
50
45.000000000000071
51
135.00000000000009
0
LINE
5
161
100
AcDbEntity
8
0
100
AcDbLine
10
-68.575491603347075
20
-38.877006793512052
30
0
11
-38.877006793512081
21
-68.575491603347061
31
0
0
ARC
5
162
100
AcDbEntity
8
0
100
AcDbCircle
10
-41.705433918258272
20
-71.403918728093245
30
0
40
4.0000000000000018
100
AcDbArc
50
-44.999999999999851
51
44.999999999999922
0
LINE
5
163
100
AcDbEntity
8
0
100
AcDbLine
10
-38.877006793512074
20
-74.23234585283943
30
0
11
-50.73285597628459
21
-86.08819503561196
31
0
0
ARC
5
164
100
AcDbEntity
8
0
100
AcDbCircle
10
-47.904428851538377
20
-88.916622160358145
30
0
40
4.0000000000000107
100
AcDbArc
50
135.00000000000031
51
241.68613409103565
0
ARC
5
165
100
AcDbEntity
8
0
100
AcDbCircle
10
5.0626169922907138e-13
20
7.1054273576010019e-14
30
0
40
105.00000000000031
100
AcDbArc
50
241.68613409103568
51
242.75161728984122
0
ENDSEC
0
SECTION
2
OBJECTS
0
DICTIONARY
5
C
100
AcDbDictionary
3
ACAD_GROUP
350
D
3
ACAD_MLINESTYLE
350
17
0
DICTIONARY
5
D
100
AcDbDictionary
0
DICTIONARY
5
1A
330
C
100
AcDbDictionary
0
DICTIONARY
5
17
100
AcDbDictionary
0
ENDSEC
0
EOF
