0
SECTION
2
HEADER
9
$INSUNITS
70
4
9
$ACADVER
1
AC1014
9
$HANDSEED
5
FFFF
0
ENDSEC
0
SECTION
2
TABLES
0
TABLE
2
VPORT
5
8
100
AcDbSymbolTable
0
ENDTAB
0
TABLE
2
LTYPE
5
5
100
AcDbSymbolTable
0
LTYPE
5
14
100
AcDbSymbolTableRecord
100
AcDbLinetypeTableRecord
2
BYBLOCK
70
0
0
LTYPE
5
15
100
AcDbSymbolTableRecord
100
AcDbLinetypeTableRecord
2
BYLAYER
70
0
0
ENDTAB
0
TABLE
2
LAYER
5
2
100
AcDbSymbolTable
70
2
0
LAYER
5
50
100
AcDbSymbolTableRecord
100
AcDbLayerTableRecord
2
0
70
0
6
CONTINUOUS
0
ENDTAB
0
TABLE
2
STYLE
5
3
100
AcDbSymbolTable
70
1
0
STYLE
5
11
100
AcDbSymbolTableRecord
100
AcDbTextStyleTableRecord
2
STANDARD
70
0
0
ENDTAB
0
TABLE
2
VIEW
5
6
100
AcDbSymbolTable
70
0
0
ENDTAB
0
TABLE
2
UCS
5
7
100
AcDbSymbolTable
70
0
0
ENDTAB
0
TABLE
2
APPID
5
9
100
AcDbSymbolTable
70
2
0
APPID
5
12
100
AcDbSymbolTableRecord
100
AcDbRegAppTableRecord
2
ACAD
70
0
0
ENDTAB
0
TABLE
2
DIMSTYLE
5
A
100
AcDbSymbolTable
70
1
0
ENDTAB
0
TABLE
2
BLOCK_RECORD
5
1
100
AcDbSymbolTable
70
1
0
BLOCK_RECORD
5
1F
100
AcDbSymbolTableRecord
100
AcDbBlockTableRecord
2
*MODEL_SPACE
0
BLOCK_RECORD
5
1B
100
AcDbSymbolTableRecord
100
AcDbBlockTableRecord
2
*PAPER_SPACE
0
ENDTAB
0
ENDSEC
0
SECTION
2
BLOCKS
0
BLOCK
5
20
100
AcDbEntity
100
AcDbBlockBegin
2
*MODEL_SPACE
0
ENDBLK
5
21
100
AcDbEntity
100
AcDbBlockEnd
0
BLOCK
5
1C
100
AcDbEntity
100
AcDbBlockBegin
2
*PAPER_SPACE
0
ENDBLK
5
1D
100
AcDbEntity
100
AcDbBlockEnd
0
ENDSEC
0
SECTION
2
ENTITIES
0
CIRCLE
5
100
100
AcDbEntity
8
0
100
AcDbCircle
10
-35.695026278172627
20
-60.443763619701762
30
0
40
1.749999999999998
0
CIRCLE
5
101
100
AcDbEntity
8
0
100
AcDbCircle
10
-60.443763619701784
20
-35.695026278172591
30
0
40
1.749999999999998
0
CIRCLE
5
102
100
AcDbEntity
8
0
100
AcDbCircle
10
60.443763619703496
20
35.695026278170914
30
0
40
1.5000000000000036
0
CIRCLE
5
103
100
AcDbEntity
8
0
100
AcDbCircle
10
-87.198717325515844
20
37.701242642448534
30
0
40
1.5000000000000036
0
CIRCLE
5
104
100
AcDbEntity
8
0
100
AcDbCircle
10
-60.443763619698359
20
35.695026278172655
30
0
40
1.4999999999999947
0
CIRCLE
5
105
100
AcDbEntity
8
0
100
AcDbCircle
10
60.443763619701755
20
-35.695026278172634
30
0
40
1.4999999999999947
0
CIRCLE
5
106
100
AcDbEntity
8
0
100
AcDbCircle
10
87.198717325519226
20
-37.701242642448527
30
0
40
1.5000000000000036
0
CIRCLE
5
107
100
AcDbEntity
8
0
100
AcDbCircle
10
-37.701242642459427
20
87.198717325512149
30
0
40
1.5000000000000036
0
CIRCLE
5
108
100
AcDbEntity
8
0
100
AcDbCircle
10
35.695026278174332
20
60.443763619700093
30
0
40
1.4999999999999947
0
CIRCLE
5
109
100
AcDbEntity
8
0
100
AcDbCircle
10
87.198717325513826
20
37.701242642461139
30
0
40
1.5000000000000036
0
CIRCLE
5
110
100
AcDbEntity
8
0
100
AcDbCircle
10
-87.198717325510444
20
-37.701242642461132
30
0
40
1.5000000000000036
0
CIRCLE
5
111
100
AcDbEntity
8
0
100
AcDbCircle
10
37.701242642450239
20
87.198717325517549
30
0
40
1.5000000000000036
0
CIRCLE
5
112
100
AcDbEntity
8
0
100
AcDbCircle
10
35.695026278172577
20
-60.443763619701784
30
0
40
1.5000000000000036
0
CIRCLE
5
113
100
AcDbEntity
8
0
100
AcDbCircle
10
-35.695026278169173
20
60.443763619701798
30
0
40
1.5000000000000036
0
CIRCLE
5
114
100
AcDbEntity
8
0
100
AcDbCircle
10
39.569492885568536
20
-51.567967118930284
30
0
40
1.5000000000000036
0
CIRCLE
5
115
100
AcDbEntity
8
0
100
AcDbCircle
10
-64.443915989297679
20
8.4842024943033536
30
0
40
1.5000000000000036
0
LWPOLYLINE
5
116
100
AcDbEntity
8
0
100
AcDbPolyline
90
14
70
1
43
0.0
10
96.821428571427816
20
-5.8831088199822625
42
-0.81953754706211945
10
96.821428571427802
20
5.8831088199822892
42
0.051355158671605838
10
93.590351590572283
20
25.492078949212903
42
0.39176802491824603
10
88.980662812194979
20
28.369861700574177
42
-0.20932790178155303
10
81.550516791969528
20
30.062667465572162
42
0.37130263164237937
10
76.343899968889573
20
29.674852410578325
10
67.831714701729936
20
21.162667143418719
42
0.26582624864884602
10
66.788353233244464
20
17.329624127238418
42
-0.12762231601315269
10
66.788353233244521
20
-17.329624127238397
42
0.2658262486488473
10
67.831714701729908
20
-21.162667143418716
10
76.343899968889588
20
-29.674852410578367
42
0.37130263164238481
10
81.550516791973436
20
-30.062667465577505
42
-0.20932790178179997
10
88.980662812194993
20
-28.36986170057434
42
0.39176802491822998
10
93.590351590572283
20
-25.492078949212917
42
0.0513551586716057
0
CIRCLE
5
117
100
AcDbEntity
8
0
100
AcDbCircle
10
-39.569492885568536
20
-51.567967118930284
30
0
40
1.5000000000000036
0
CIRCLE
5
118
100
AcDbEntity
8
0
100
AcDbCircle
10
64.443915989297679
20
8.4842024943033536
30
0
40
1.5000000000000036
0
CIRCLE
5
119
100
AcDbEntity
8
0
100
AcDbCircle
10
-24.874423103730905
20
60.052169613233694
30
0
40
1.5000000000000036
0
CIRCLE
5
120
100
AcDbEntity
8
0
100
AcDbCircle
10
-98
20
0
30
0
40
1.5000000000000036
0
CIRCLE
5
121
100
AcDbEntity
8
0
100
AcDbCircle
10
24.874423103730905
20
60.052169613233694
30
0
40
1.5000000000000036
0
LWPOLYLINE
5
122
100
AcDbEntity
8
0
100
AcDbPolyline
90
4
70
1
43
0.0
10
48.372695807836301
20
26.552890654441658
10
54.917610999506117
20
26.552890654441661
42
0.16910181353660519
10
26.552890654441676
20
54.91761099950908
10
26.552890654441683
20
48.37269580783628
0
CIRCLE
5
123
100
AcDbEntity
8
0
100
AcDbCircle
10
21.552890654441683
20
46.301627995970819
30
0
40
1.5000000000000036
0
CIRCLE
5
124
100
AcDbEntity
8
0
100
AcDbCircle
10
46.30162799597084
20
21.552890654441658
30
0
40
1.5000000000000036
0
LWPOLYLINE
5
125
100
AcDbEntity
8
0
100
AcDbPolyline
90
4
70
1
43
0.0
10
26.552890654441647
20
-48.372695807836301
10
26.552890654441647
20
-54.917610999493448
42
0.16910181353656323
10
54.91761099949855
20
-26.552890654441686
10
48.372695807836266
20
-26.552890654441686
0
CIRCLE
5
126
100
AcDbEntity
8
0
100
AcDbCircle
10
-21.55289065444164
20
46.30162799597084
30
0
40
1.4999999999999991
0
CIRCLE
5
127
100
AcDbEntity
8
0
100
AcDbCircle
10
-46.301627995970804
20
21.55289065444169
30
0
40
1.5000000000000036
0
LWPOLYLINE
5
128
100
AcDbEntity
8
0
100
AcDbPolyline
90
4
70
1
43
0.0
10
-54.917610999506266
20
26.552890654443779
42
-0.16910181353658865
10
-26.55289065444197
20
54.91761099950773
10
-26.55289065444164
20
48.372695807836301
10
-48.372695807836266
20
26.552890654441693
0
CIRCLE
5
129
100
AcDbEntity
8
0
100
AcDbCircle
10
21.552890654441647
20
-46.30162799597084
30
0
40
1.4999999999999991
0
CIRCLE
5
130
100
AcDbEntity
8
0
100
AcDbCircle
10
46.301627995970804
20
-21.552890654441686
30
0
40
1.5000000000000036
0
LWPOLYLINE
5
131
100
AcDbEntity
8
0
100
AcDbPolyline
90
4
70
1
43
0.0
10
-48.372695807836308
20
-26.552890654441637
10
-54.917610999494421
20
-26.552890654441633
42
0.16910181353654677
10
-26.552890654441697
20
-54.917610999491416
10
-26.552890654441693
20
-48.372695807836251
0
CIRCLE
5
132
100
AcDbEntity
8
0
100
AcDbCircle
10
-46.301627995970847
20
-21.552890654441637
30
0
40
1.5000000000000036
0
CIRCLE
5
133
100
AcDbEntity
8
0
100
AcDbCircle
10
-21.552890654441693
20
-46.301627995970797
30
0
40
1.5000000000000036
0
CIRCLE
5
134
100
AcDbEntity
8
0
100
AcDbCircle
10
-44.849035811836842
20
-86.989610828980446
30
0
40
1.5000000000000036
0
CIRCLE
5
135
100
AcDbEntity
8
0
100
AcDbCircle
10
-44.491068974475603
20
87.318639370460062
30
0
40
1.4999999999999947
0
CIRCLE
5
136
100
AcDbEntity
8
0
100
AcDbCircle
10
44.491068974475603
20
87.318639370460062
30
0
40
1.4999999999999947
0
CIRCLE
5
137
100
AcDbEntity
8
0
100
AcDbCircle
10
44.849035811836842
20
-86.989610828980446
30
0
40
1.5000000000000036
0
CIRCLE
5
138
100
AcDbEntity
8
0
100
AcDbCircle
10
98
20
1.6167622796103842e-14
30
0
40
1.5000000000000036
0
LWPOLYLINE
5
139
100
AcDbEntity
8
0
100
AcDbPolyline
90
14
70
1
43
0.0
10
-96.821428571427617
20
5.8831088199823185
42
-0.051355158671604659
10
-93.590351590572126
20
25.492078949213006
42
-0.39176802491823232
10
-88.980662812194851
20
28.369861700574472
42
0.20932790178181845
10
-81.550516791969414
20
30.06266746557236
42
-0.37130263164238381
10
-76.343899968889431
20
29.674852410578502
10
-67.831714701729766
20
21.162667143418869
42
-0.26582624864884791
10
-66.788353233244379
20
17.329624127238542
42
0.12762231601314794
10
-66.788353233244408
20
-17.329624127238251
42
-0.26582624864884769
10
-67.83171470172978
20
-21.162667143418581
10
-76.343899968889431
20
-29.674852410578175
42
-0.37130263164238042
10
-81.550516791969386
20
-30.062667465572027
42
0.20932790178156566
10
-88.980662812194765
20
-28.369861700574226
42
-0.39176802491823948
10
-93.590351590572283
20
-25.492078949212864
42
-0.051355158671604437
10
-96.82142857142766
20
-5.8831088199822474
42
0.81953754706209836
0
CIRCLE
5
140
100
AcDbEntity
8
0
100
AcDbCircle
10
-35.190950988220628
20
-78.684559569053278
30
0
40
1.7000000000000037
0
CIRCLE
5
141
100
AcDbEntity
8
0
100
AcDbCircle
10
35.190950988220628
20
-78.684559569053263
30
0
40
1.7000000000000037
0
CIRCLE
5
142
100
AcDbEntity
8
0
100
AcDbCircle
10
-14.869712718288392
20
-62.748737341528553
30
0
40
1.6999999999999993
0
CIRCLE
5
143
100
AcDbEntity
8
0
100
AcDbCircle
10
14.869712718288827
20
-62.748737341529186
30
0
40
1.7000000000000015
0
ARC
5
144
100
AcDbEntity
8
0
100
AcDbCircle
10
89.8908920886511
20
-46.050271655085091
30
0
40
4.0000000000000231
100
AcDbArc
50
225.00000000000006
51
332.87435679904701
0
ARC
5
145
100
AcDbEntity
8
0
100
AcDbCircle
10
1.3145040611561853e-12
20
-1.5543122344752192e-13
30
0
40
105.000000000002
100
AcDbArc
50
-27.125643200952528
51
27.125643200954119
0
ARC
5
146
100
AcDbEntity
8
0
100
AcDbCircle
10
89.890892088649935
20
46.050271655087379
30
0
40
4.0000000000000053
100
AcDbArc
50
27.125643200953629
51
135
0
LINE
5
147
100
AcDbEntity
8
0
100
AcDbLine
10
87.062464963903722
20
48.878698779833591
30
0
11
75.646559415212536
21
37.462793231142385
31
0
0
ARC
5
148
100
AcDbEntity
8
0
100
AcDbCircle
10
72.818132290466338
20
40.291220355888584
30
0
40
4.0000000000000018
100
AcDbArc
50
224.99999999999991
51
315
0
LINE
5
149
100
AcDbEntity
8
0
100
AcDbLine
10
69.989705165720139
20
37.462793231142392
30
0
11
37.462793231137233
21
69.989705165721873
31
0
0
ARC
5
150
100
AcDbEntity
8
0
100
AcDbCircle
10
40.291220355885152
20
72.818132290469777
30
0
40
4.0000000000000018
100
AcDbArc
50
134.99999999999986
51
224.99999999999986
0
LINE
5
151
100
AcDbEntity
8
0
100
AcDbLine
10
37.462793231138967
20
75.646559415215975
30
0
11
48.878698779828476
21
87.062464963905484
31
0
0
ARC
5
152
100
AcDbEntity
8
0
100
AcDbCircle
10
46.050271655082291
20
89.890892088651682
30
0
40
4.0000000000000044
100
AcDbArc
50
-45.000000000000156
51
62.874356799050098
0
ARC
5
153
100
AcDbEntity
8
0
100
AcDbCircle
10
1.3145040611561853e-12
20
-1.5543122344752192e-13
30
0
40
105.00000000000199
100
AcDbArc
50
62.874356799049991
51
79.156979475440252
0
ARC
5
154
100
AcDbEntity
8
0
100
AcDbCircle
10
19.00000000000281
20
99.196774141096625
30
0
40
4.0000000000028093
100
AcDbArc
50
79.156979475448324
51
259.15697947539968
0
ARC
5
155
100
AcDbEntity
8
0
100
AcDbCircle
10
1.3145040611561853e-12
20
-1.5543122344752192e-13
30
0
40
96.999999999999034
100
AcDbArc
50
74.763437462441047
51
79.156979475441574
0
ARC
5
156
100
AcDbEntity
8
0
100
AcDbCircle
10
24.440859198730077
20
89.730955648692969
30
0
40
3.9999999999999787
100
AcDbArc
50
-10.81119321473146
51
74.763437462440606
0
ARC
5
157
100
AcDbEntity
8
0
100
AcDbCircle
10
37.701242642450239
20
87.198717325517549
30
0
40
9.4999999999943192
100
AcDbArc
50
169.18880678529428
51
216.48037574589961
0
ARC
5
158
100
AcDbEntity
8
0
100
AcDbCircle
10
26.84642528583236
20
79.172327093635758
30
0
40
3.9999999999999734
100
AcDbArc
50
-45.000000000000306
51
36.480375745857543
0
LINE
5
159
100
AcDbEntity
8
0
100
AcDbLine
10
29.674852410578517
20
76.343899968889573
30
0
11
21.565364862132192
21
68.234412420443235
31
0
0
ARC
5
160
100
AcDbEntity
8
0
100
AcDbCircle
10
18.029830956199454
20
71.769946326375958
30
0
40
4.9999999999999991
100
AcDbArc
50
276.18831245393494
51
315.00000000000011
0
ARC
5
161
100
AcDbEntity
8
0
100
AcDbCircle
10
19.000000000002583
20
62.822389563412891
30
0
40
4.0000000000000027
100
AcDbArc
50
96.18831245393487
51
180
0
LINE
5
162
100
AcDbEntity
8
0
100
AcDbLine
10
15.00000000000259
20
62.822389563412919
30
0
11
15.000000000002585
21
62.16108107167954
31
0
0
ARC
5
163
100
AcDbEntity
8
0
100
AcDbCircle
10
19.000000000002608
20
62.161081071679519
30
0
40
4.0000000000000231
100
AcDbArc
50
180
51
232.281872796551
0
LINE
5
164
100
AcDbEntity
8
0
100
AcDbLine
10
16.552890654441672
20
58.996960996387095
30
0
11
16.552890654441679
21
46.301627995970811
31
0
0
ARC
5
165
100
AcDbEntity
8
0
100
AcDbCircle
10
21.552890654441683
20
46.301627995970819
30
0
40
5.0000000000000018
100
AcDbArc
50
180
51
225.00000000000003
0
LINE
5
166
100
AcDbEntity
8
0
100
AcDbLine
10
18.017356748508941
20
42.766094090038074
30
0
11
42.766094090038116
21
18.017356748508927
31
0
0
ARC
5
167
100
AcDbEntity
8
0
100
AcDbCircle
10
46.30162799597084
20
21.552890654441658
30
0
40
4.999999999999984
100
AcDbArc
50
225.00000000000006
51
270
0
LINE
5
168
100
AcDbEntity
8
0
100
AcDbLine
10
46.30162799597084
20
16.552890654441676
30
0
11
58.711172795148343
21
16.552890654441661
31
0
0
ARC
5
169
100
AcDbEntity
8
0
100
AcDbCircle
10
1.3145040611561853e-12
20
-1.5543122344752192e-13
30
0
40
60.999999999998735
100
AcDbArc
50
-15.745143133690766
51
15.745143133689915
0
LINE
5
170
100
AcDbEntity
8
0
100
AcDbLine
10
58.711172795150659
20
-16.552890654443601
30
0
11
46.301627995970804
21
-16.552890654441693
31
0
0
ARC
5
171
100
AcDbEntity
8
0
100
AcDbCircle
10
46.301627995970804
20
-21.552890654441686
30
0
40
4.9999999999999911
100
AcDbArc
50
90
51
134.99999999999997
0
LINE
5
172
100
AcDbEntity
8
0
100
AcDbLine
10
42.766094090038074
20
-18.017356748508952
30
0
11
18.017356749276722
21
-42.76609408927029
31
0
0
ARC
5
173
100
AcDbEntity
8
0
100
AcDbCircle
10
21.552890654441647
20
-46.30162799597084
30
0
40
4.9999999999999991
100
AcDbArc
50
134.99999998755709
51
180
0
LINE
5
174
100
AcDbEntity
8
0
100
AcDbLine
10
16.552890654441644
20
-46.30162799597084
30
0
11
16.552890654441647
21
-58.711172795136839
31
0
0
LINE
5
175
100
AcDbEntity
8
0
100
AcDbLine
10
-16.552890654445704
20
-58.71117279514992
30
0
11
-16.552890654441697
21
-46.301627995970804
31
0
0
ARC
5
176
100
AcDbEntity
8
0
100
AcDbCircle
10
-21.552890654441693
20
-46.301627995970797
30
0
40
4.9999999999999982
100
AcDbArc
50
0
51
44.999999999999922
0
LINE
5
177
100
AcDbEntity
8
0
100
AcDbLine
10
-18.017356748508952
20
-42.766094090038067
30
0
11
-42.766094090038109
21
-18.017356748508906
31
0
0
ARC
5
178
100
AcDbEntity
8
0
100
AcDbCircle
10
-46.301627995970847
20
-21.552890654441637
30
0
40
4.9999999999999964
100
AcDbArc
50
44.99999999999995
51
89.999999999999929
0
LINE
5
179
100
AcDbEntity
8
0
100
AcDbLine
10
-46.30162799597084
20
-16.55289065444164
30
0
11
-58.711172795139781
21
-16.552890654441633
31
0
0
ARC
5
180
100
AcDbEntity
8
0
100
AcDbCircle
10
1.3145040611561853e-12
20
-1.5543122344752192e-13
30
0
40
61.000000000001279
100
AcDbArc
50
164.25485686630972
51
195.74514313369107
0
LINE
5
181
100
AcDbEntity
8
0
100
AcDbLine
10
-58.711172795150624
20
16.552890654443445
30
0
11
-46.301627995970804
21
16.552890654441693
31
0
0
ARC
5
182
100
AcDbEntity
8
0
100
AcDbCircle
10
-46.301627995970804
20
21.55289065444169
30
0
40
4.9999999999999982
100
AcDbArc
50
270
51
314.99999999999994
0
LINE
5
183
100
AcDbEntity
8
0
100
AcDbLine
10
-42.766094090038074
20
18.017356748508952
30
0
11
-18.017356748508909
21
42.766094090038109
31
0
0
ARC
5
184
100
AcDbEntity
8
0
100
AcDbCircle
10
-21.55289065444164
20
46.30162799597084
30
0
40
4.9999999999999902
100
AcDbArc
50
-45
51
0
0
LINE
5
185
100
AcDbEntity
8
0
100
AcDbLine
10
-16.552890654441651
20
46.30162799597084
30
0
11
-16.55289065444164
21
58.996960996384658
31
0
0
ARC
5
186
100
AcDbEntity
8
0
100
AcDbCircle
10
-18.999999999997435
20
62.161081071681046
30
0
40
4.0000000000000169
100
AcDbArc
50
307.71812720335595
51
360
0
LINE
5
187
100
AcDbEntity
8
0
100
AcDbLine
10
-14.999999999997417
20
62.161081071681025
30
0
11
-14.999999999997414
21
62.822389563412386
31
0
0
ARC
5
188
100
AcDbEntity
8
0
100
AcDbCircle
10
-18.999999999997414
20
62.822389563412415
30
0
40
3.9999999999999991
100
AcDbArc
50
0
51
83.811687546096238
0
ARC
5
189
100
AcDbEntity
8
0
100
AcDbCircle
10
-18.029830956199145
20
71.769946326376001
30
0
40
4.9999999999999991
100
AcDbArc
50
224.99999999999986
51
263.81168754609621
0
LINE
5
190
100
AcDbEntity
8
0
100
AcDbLine
10
-21.565364862131887
20
68.234412420443277
30
0
11
-29.674852410578168
21
76.343899968889588
31
0
0
ARC
5
191
100
AcDbEntity
8
0
100
AcDbCircle
10
-26.846425285831931
20
79.172327093635758
30
0
40
4.0000000000000169
100
AcDbArc
50
143.51962425414334
51
224.99999999999932
0
ARC
5
192
100
AcDbEntity
8
0
100
AcDbCircle
10
-37.701242642459427
20
87.198717325512149
30
0
40
9.5000000000037783
100
AcDbArc
50
-36.480375745839311
51
10.811193214726622
0
ARC
5
193
100
AcDbEntity
8
0
100
AcDbCircle
10
-24.440859198729811
20
89.730955648692984
30
0
40
3.999999999999988
100
AcDbArc
50
105.23656253755937
51
190.81119321473273
0
ARC
5
194
100
AcDbEntity
8
0
100
AcDbCircle
10
1.3145040611561853e-12
20
-1.5543122344752192e-13
30
0
40
96.999999999999588
100
AcDbArc
50
100.84302052455834
51
105.23656253756029
0
ARC
5
195
100
AcDbEntity
8
0
100
AcDbCircle
10
-18.999999999997211
20
99.196774141099894
30
0
40
4.0000000000021982
100
AcDbArc
50
-79.156979475448097
51
100.84302052452585
0
ARC
5
196
100
AcDbEntity
8
0
100
AcDbCircle
10
1.3145040611561853e-12
20
-1.5543122344752192e-13
30
0
40
105.00000000000179
100
AcDbArc
50
100.84302052455683
51
117.12564320095105
0
ARC
5
197
100
AcDbEntity
8
0
100
AcDbCircle
10
-46.050271655081175
20
89.890892088650546
30
0
40
4
100
AcDbArc
50
117.12564320095056
51
225.00000000000023
0
LINE
5
198
100
AcDbEntity
8
0
100
AcDbLine
10
-48.878698779827339
20
87.062464963904361
30
0
11
-37.462793231137248
21
75.646559415214284
31
0
0
ARC
5
199
100
AcDbEntity
8
0
100
AcDbCircle
10
-40.291220355883439
20
72.818132290468085
30
0
40
3.9999999999999987
100
AcDbArc
50
-44.99999999999995
51
45.000000000000071
0
LINE
5
200
100
AcDbEntity
8
0
100
AcDbLine
10
-37.462793231137248
20
69.989705165721901
30
0
11
-69.989705165718448
21
37.462793231140694
31
0
0
ARC
5
201
100
AcDbEntity
8
0
100
AcDbCircle
10
-72.818132290464646
20
40.291220355886892
30
0
40
4.0000000000000018
100
AcDbArc
50
224.99999999999986
51
315
0
LINE
5
202
100
AcDbEntity
8
0
100
AcDbLine
10
-75.646559415210845
20
37.462793231140708
30
0
11
-87.06246496390149
21
48.878698779831353
31
0
0
ARC
5
203
100
AcDbEntity
8
0
100
AcDbCircle
10
-89.890892088647675
20
46.05027165508514
30
0
40
4.0000000000000107
100
AcDbArc
50
45.000000000000291
51
152.87435679904704
0
ARC
5
204
100
AcDbEntity
8
0
100
AcDbCircle
10
1.3145040611561853e-12
20
-1.5543122344752192e-13
30
0
40
105.00000000000144
100
AcDbArc
50
152.87435679904706
51
207.12564320095134
0
ARC
5
205
100
AcDbEntity
8
0
100
AcDbCircle
10
-89.890892088648812
20
-46.050271655082859
30
0
40
4.0000000000000409
100
AcDbArc
50
207.1256432009518
51
314.99999999999977
0
LINE
5
206
100
AcDbEntity
8
0
100
AcDbLine
10
-87.062464963902627
20
-48.878698779829065
30
0
11
-75.646559415212565
21
-37.46279323113896
31
0
0
ARC
5
207
100
AcDbEntity
8
0
100
AcDbCircle
10
-72.818132290466366
20
-40.291220355885144
30
0
40
4.0000000000000018
100
AcDbArc
50
45.000000000000071
51
135.00000000000017
0
LINE
5
208
100
AcDbEntity
8
0
100
AcDbLine
10
-69.989705165720181
20
-37.462793231138953
30
0
11
-37.462793231138981
21
-69.989705165720153
31
0
0
ARC
5
209
100
AcDbEntity
8
0
100
AcDbCircle
10
-40.29122035588518
20
-72.818132290466352
30
0
40
3.9999999999999987
100
AcDbArc
50
-44.99999999999995
51
45
0
LINE
5
210
100
AcDbEntity
8
0
100
AcDbLine
10
-37.462793231138988
20
-75.646559415212536
30
0
11
-49.264369874312663
21
-87.448136058386225
31
0
0
ARC
5
211
100
AcDbEntity
8
0
100
AcDbCircle
10
-46.435942749566493
20
-90.27656318313241
30
0
40
3.9999999999999796
100
AcDbArc
50
134.99999999999986
51
212.7093297058675
0
LINE
5
212
100
AcDbEntity
8
0
100
AcDbLine
10
-49.801633954569624
20
-92.438072542946628
30
0
11
-48.074126164956617
21
-93.348156883121334
31
0
0
ARC
5
213
100
AcDbEntity
8
0
100
AcDbCircle
10
-46.242731520479374
20
-89.792033210613596
30
0
40
4.0000027397478002
100
AcDbArc
50
242.75164777973635
51
318.44115154758481
0
LWPOLYLINE
5
214
100
AcDbEntity
8
0
100
AcDbPolyline
90
17
43
0.0
10
-43.249630473186265
20
-92.44559082986416
10
-37.843426393322055
20
-86.6877914539564
10
-32.4372223450588
20
-81.6021624189371
10
-27.031018329250767
20
-77.20686402153025
10
-21.62481434723506
20
-73.5303223618005
10
-16.218610400701728
20
-70.60846708620954
10
-10.812406491504502
20
-68.48070929918691
10
-5.406202621408176
20
-67.18456839798334
10
1.2082375416833102e-06
20
-66.7487373415292
10
5.40620499689835
20
-67.18456835296394
10
10.812408745107605
20
-68.48070921595244
10
16.218612454214085
20
-70.60846697663348
10
21.624816125981614
20
-73.53032224062967
10
27.031019762263043
20
-77.2068639050768
10
32.437223364747524
20
-81.60216232423274
10
37.84342693477134
20
-86.68779139811258
10
43.249630473188105
20
-92.44559082983561
0
ARC
5
215
100
AcDbEntity
8
0
100
AcDbCircle
10
46.24273221150608
20
-89.792029516951573
30
0
40
4.0000057071405495
100
AcDbArc
50
221.55888147528324
51
297.24831919704383
0
LINE
5
216
100
AcDbEntity
8
0
100
AcDbLine
10
48.074126164975993
20
-93.348156883111372
30
0
11
49.801633954571514
21
-92.438072542948433
31
0
0
ARC
5
217
100
AcDbEntity
8
0
100
AcDbCircle
10
46.435942749568333
20
-90.276563183134257
30
0
40
4.0000000000000062
100
AcDbArc
50
-32.709329705866629
51
44.999999999999922
0
LINE
5
218
100
AcDbEntity
8
0
100
AcDbLine
10
49.264369874314525
20
-87.448136058388073
30
0
11
37.462793231140701
21
-75.646559415214242
31
0
0
ARC
5
219
100
AcDbEntity
8
0
100
AcDbCircle
10
40.291220355886885
20
-72.818132290468057
30
0
40
3.9999999999999987
100
AcDbArc
50
135.00000000000009
51
225
0
LINE
5
220
100
AcDbEntity
8
0
100
AcDbLine
10
37.462793231140694
20
-69.989705165721873
30
0
11
69.98970516572021
21
-37.462793231138988
31
0
0
ARC
5
221
100
AcDbEntity
8
0
100
AcDbCircle
10
72.818132290468071
20
-40.291220355886857
30
0
40
3.9999999999999987
100
AcDbArc
50
45.000000000000071
51
134.99999999999994
0
LINE
5
222
100
AcDbEntity
8
0
100
AcDbLine
10
75.646559415214256
20
-37.462793231140665
30
0
11
87.062464963904901
21
-48.878698779831296
31
0
0
LINE
5
223
100
AcDbEntity
8
0
100
AcDbLine
10
16.552890654441647
20
-58.711172795136839
30
0
11
-16.552890654445704
21
-58.71117279514992
31
0
0
ENDSEC
0
SECTION
2
OBJECTS
0
DICTIONARY
5
C
100
AcDbDictionary
3
ACAD_GROUP
350
D
3
ACAD_MLINESTYLE
350
17
0
DICTIONARY
5
D
100
AcDbDictionary
0
DICTIONARY
5
1A
330
C
100
AcDbDictionary
0
DICTIONARY
5
17
100
AcDbDictionary
0
ENDSEC
0
EOF
