0
SECTION
2
HEADER
9
$INSUNITS
70
4
9
$ACADVER
1
AC1014
9
$HANDSEED
5
FFFF
0
ENDSEC
0
SECTION
2
TABLES
0
TABLE
2
VPORT
5
8
100
AcDbSymbolTable
0
ENDTAB
0
TABLE
2
LTYPE
5
5
100
AcDbSymbolTable
0
LTYPE
5
14
100
AcDbSymbolTableRecord
100
AcDbLinetypeTableRecord
2
BYBLOCK
70
0
0
LTYPE
5
15
100
AcDbSymbolTableRecord
100
AcDbLinetypeTableRecord
2
BYLAYER
70
0
0
ENDTAB
0
TABLE
2
LAYER
5
2
100
AcDbSymbolTable
70
2
0
LAYER
5
50
100
AcDbSymbolTableRecord
100
AcDbLayerTableRecord
2
0
70
0
6
CONTINUOUS
0
ENDTAB
0
TABLE
2
STYLE
5
3
100
AcDbSymbolTable
70
1
0
STYLE
5
11
100
AcDbSymbolTableRecord
100
AcDbTextStyleTableRecord
2
STANDARD
70
0
0
ENDTAB
0
TABLE
2
VIEW
5
6
100
AcDbSymbolTable
70
0
0
ENDTAB
0
TABLE
2
UCS
5
7
100
AcDbSymbolTable
70
0
0
ENDTAB
0
TABLE
2
APPID
5
9
100
AcDbSymbolTable
70
2
0
APPID
5
12
100
AcDbSymbolTableRecord
100
AcDbRegAppTableRecord
2
ACAD
70
0
0
ENDTAB
0
TABLE
2
DIMSTYLE
5
A
100
AcDbSymbolTable
70
1
0
ENDTAB
0
TABLE
2
BLOCK_RECORD
5
1
100
AcDbSymbolTable
70
1
0
BLOCK_RECORD
5
1F
100
AcDbSymbolTableRecord
100
AcDbBlockTableRecord
2
*MODEL_SPACE
0
BLOCK_RECORD
5
1B
100
AcDbSymbolTableRecord
100
AcDbBlockTableRecord
2
*PAPER_SPACE
0
ENDTAB
0
ENDSEC
0
SECTION
2
BLOCKS
0
BLOCK
5
20
100
AcDbEntity
100
AcDbBlockBegin
2
*MODEL_SPACE
0
ENDBLK
5
21
100
AcDbEntity
100
AcDbBlockEnd
0
BLOCK
5
1C
100
AcDbEntity
100
AcDbBlockBegin
2
*PAPER_SPACE
0
ENDBLK
5
1D
100
AcDbEntity
100
AcDbBlockEnd
0
ENDSEC
0
SECTION
2
ENTITIES
0
LINE
5
100
100
AcDbEntity
8
0
100
AcDbLine
10
44.427886417705523
20
-47.821726647923427
30
0
11
53.195646815980766
21
-39.053969158506973
31
0
0
ARC
5
101
100
AcDbEntity
8
0
100
AcDbCircle
10
55.847296805564355
20
-41.705620027822405
30
0
40
3.7500000000000067
100
AcDbArc
50
-45.000009504442957
51
134.99999049555683
0
LINE
5
102
100
AcDbEntity
8
0
100
AcDbLine
10
58.498946795147965
20
-44.357270897137838
30
0
11
44.356808825465649
21
-58.499404174917046
31
0
0
ARC
5
103
100
AcDbEntity
8
0
100
AcDbCircle
10
41.705158835882045
20
-55.8477533056016
30
0
40
3.7500000000000062
100
AcDbArc
50
248.2106631108735
51
314.99999049555686
0
ARC
5
104
100
AcDbEntity
8
0
100
AcDbCircle
10
40.86997001394608
20
-57.93700188624328
30
0
40
1.5000000000000018
100
AcDbArc
50
101.54125153594214
51
248.21066311087347
0
ARC
5
105
100
AcDbEntity
8
0
100
AcDbCircle
10
39.569492887334647
20
-51.568425966686348
30
0
40
4.9999999999999964
100
AcDbArc
50
-78.458748464058132
51
24.408326144858382
0
ARC
5
106
100
AcDbEntity
8
0
100
AcDbCircle
10
45.48854641353897
20
-48.882386995649597
30
0
40
1.4999999999999989
100
AcDbArc
50
134.9999904955572
51
204.40832614485839
0
ARC
5
107
100
AcDbEntity
8
0
100
AcDbCircle
10
-41.705157072896029
20
-55.847751546145226
30
0
40
3.75
100
AcDbArc
50
224.99999049555709
51
291.78924068269589
0
LINE
5
108
100
AcDbEntity
8
0
100
AcDbLine
10
-44.356807942211454
20
-58.499401535728836
30
0
11
-58.498941219990357
21
-44.357263566046839
31
0
0
ARC
5
109
100
AcDbEntity
8
0
100
AcDbCircle
10
-55.847290350674911
20
-41.705613576463243
30
0
40
3.7499999999999938
100
AcDbArc
50
44.999990495557036
51
224.99999049555674
0
LINE
5
110
100
AcDbEntity
8
0
100
AcDbLine
10
-53.195639481359493
20
-39.053963586879647
30
0
11
-44.427883850727483
21
-47.821722126369806
31
0
0
ARC
5
111
100
AcDbEntity
8
0
100
AcDbCircle
10
-45.488544198453639
20
-48.882382122203239
30
0
40
1.5000000000000004
100
AcDbArc
50
-24.408373319285872
51
44.999990495557192
0
ARC
5
112
100
AcDbEntity
8
0
100
AcDbCircle
10
-39.569492883799029
20
-51.568425966686355
30
0
40
5.0000000000000089
100
AcDbArc
50
155.59162668071437
51
258.45873273210503
0
ARC
5
113
100
AcDbEntity
8
0
100
AcDbCircle
10
-40.869971759058181
20
-57.93700152916535
30
0
40
1.4999999999999944
100
AcDbArc
50
-68.210759317304195
51
78.458732732105148
0
LWPOLYLINE
5
114
100
AcDbEntity
8
0
100
AcDbPolyline
90
8
70
1
43
0.0
10
36.051879611217629
20
-47.961505298242486
42
-0.33393414379309555
10
-36.051879607682046
20
-47.961505298242528
42
-0.45608542505445449
10
-36.370605970769212
20
-43.442132632158554
10
-36.067058336999821
20
-43.138584998389149
42
-0.37324242678039143
10
-32.145698859801215
20
-42.859934692676518
42
0.33334239212606426
10
32.14569886333684
20
-42.859934692676532
42
-0.37324242678039193
10
36.067058340535439
20
-43.138584998389149
10
36.370605974304787
20
-43.442132632158447
42
-0.45608542505445632
0
LWPOLYLINE
5
115
100
AcDbEntity
8
0
100
AcDbPolyline
90
8
70
1
43
0.0
10
43.138126152400929
20
-36.067517186523681
42
-0.37324242678039349
10
42.859475846688312
20
-32.146157709325074
42
0.33334239212606465
10
42.859475846688312
20
32.145240013812938
42
-0.37324242678039499
10
43.138126152400893
20
36.066599491011566
10
43.441673786170433
20
36.370147124781084
42
-0.45608542505445565
10
47.961046452254337
20
36.051420761693876
42
-0.33393414379309638
10
47.961046452254223
20
-36.052338457205892
42
-0.45608542505445265
10
43.441673786170256
20
-36.371064820293014
0
CIRCLE
5
116
100
AcDbEntity
8
0
100
AcDbCircle
10
-19.758844426022598
20
-44.206493846100734
30
0
40
1.4999999999999991
0
CIRCLE
5
117
100
AcDbEntity
8
0
100
AcDbCircle
10
-44.507581767551741
20
-19.457756504571563
30
0
40
1.5000000000000036
0
CIRCLE
5
118
100
AcDbEntity
8
0
100
AcDbCircle
10
44.206035000112493
20
-19.759303275546483
30
0
40
1.5000000000000036
0
CIRCLE
5
119
100
AcDbEntity
8
0
100
AcDbCircle
10
44.507581771087388
20
19.456838809059441
30
0
40
1.5000000000000036
0
CIRCLE
5
120
100
AcDbEntity
8
0
100
AcDbCircle
10
19.758844429558231
20
44.205576150588612
30
0
40
1.4999999999999991
0
CIRCLE
5
121
100
AcDbEntity
8
0
100
AcDbCircle
10
19.457297658583315
20
-44.508040617075636
30
0
40
1.4999999999999991
0
CIRCLE
5
122
100
AcDbEntity
8
0
100
AcDbCircle
10
-19.457297655047682
20
44.5071229215635
30
0
40
1.4999999999999991
0
CIRCLE
5
123
100
AcDbEntity
8
0
100
AcDbCircle
10
-44.206034996576861
20
19.758385580034346
30
0
40
1.5000000000000036
0
CIRCLE
5
124
100
AcDbEntity
8
0
100
AcDbCircle
10
42.261826175837768
20
90.630319855908908
30
0
40
1.5000000000000036
0
CIRCLE
5
125
100
AcDbEntity
8
0
100
AcDbCircle
10
-42.261826172302115
20
90.630319855908937
30
0
40
1.5000000000000036
0
CIRCLE
5
126
100
AcDbEntity
8
0
100
AcDbCircle
10
90.630778705432817
20
42.261367326313881
30
0
40
1.5000000000000036
0
CIRCLE
5
127
100
AcDbEntity
8
0
100
AcDbCircle
10
-90.630778701897171
20
42.261367326313881
30
0
40
1.5000000000000036
0
LWPOLYLINE
5
128
100
AcDbEntity
8
0
100
AcDbPolyline
90
8
70
1
43
0.0
10
-42.859475843152552
20
-32.146157709324982
42
-0.33334239212606487
10
-42.859475843152659
20
32.145240013812966
42
0.37324242678039182
10
-43.138126148865283
20
36.066599491011551
10
-43.441673782634886
20
36.37014712478117
42
0.45608542505445554
10
-47.961046448718712
20
36.051420761693905
42
0.33393414379309661
10
-47.96104644871869
20
-36.052338457205963
42
0.45608542505445276
10
-43.441673782634716
20
-36.371064820293114
10
-43.13812614886529
20
-36.067517186523673
42
0.3732424267803936
0
CIRCLE
5
129
100
AcDbEntity
8
0
100
AcDbCircle
10
-39.569492883799029
20
-51.568425966686355
30
0
40
1.5000000000000036
0
CIRCLE
5
130
100
AcDbEntity
8
0
100
AcDbCircle
10
1.7677713298341206e-09
20
-64.72045884775595
30
0
40
1.5000000000000013
0
CIRCLE
5
131
100
AcDbEntity
8
0
100
AcDbCircle
10
89.201999951806329
20
-46.305458847755965
30
0
40
1.5000000000000036
0
CIRCLE
5
132
100
AcDbEntity
8
0
100
AcDbCircle
10
-41.741999998232231
20
-85.807458847755939
30
0
40
1.4999999999999947
0
CIRCLE
5
133
100
AcDbEntity
8
0
100
AcDbCircle
10
41.742000001767764
20
-85.807458847755953
30
0
40
1.4999999999999947
0
CIRCLE
5
134
100
AcDbEntity
8
0
100
AcDbCircle
10
-89.201999948270782
20
-46.305458847755936
30
0
40
1.5000000000000036
0
CIRCLE
5
135
100
AcDbEntity
8
0
100
AcDbCircle
10
49.999999998232205
20
86.602999226199827
30
0
40
1.5000000000000036
0
CIRCLE
5
136
100
AcDbEntity
8
0
100
AcDbCircle
10
-49.999999998232198
20
-86.602999226199827
30
0
40
1.5000000000000036
0
CIRCLE
5
137
100
AcDbEntity
8
0
100
AcDbCircle
10
100.00039737292923
20
0.00022942540891968122
30
0
40
1.5000000000000036
0
CIRCLE
5
138
100
AcDbEntity
8
0
100
AcDbCircle
10
-50.000397374697002
20
86.602769800790895
30
0
40
1.5000000000000036
0
CIRCLE
5
139
100
AcDbEntity
8
0
100
AcDbCircle
10
-100.00039737292923
20
-0.00022942540886639051
30
0
40
1.5000000000000036
0
CIRCLE
5
140
100
AcDbEntity
8
0
100
AcDbCircle
10
50.000397374697023
20
-86.602769800790895
30
0
40
1.5000000000000036
0
LWPOLYLINE
5
141
100
AcDbEntity
8
0
100
AcDbPolyline
90
8
70
1
43
0.0
10
69.207794160697119
20
10.501028078163845
42
-0.23836348526002832
10
73.713011917672418
20
24.215078322706173
10
80.605698787105837
20
31.107762905351382
42
-0.56249767791157768
10
90.568451496411541
20
28.676284235488147
42
-0.15453458256126329
10
90.568451433008335
20
-28.677202131243526
42
-0.56249768292372704
10
80.605698653712039
20
-31.108680714464828
10
73.713011719487071
20
-24.21599582660037
42
-0.238363480669816
10
69.207794159992801
20
-10.501945778317106
42
0.075437492503313511
0
LWPOLYLINE
5
142
100
AcDbEntity
8
0
100
AcDbPolyline
90
8
70
1
43
0.0
10
-69.20779415716224
20
-10.501945773671807
42
-0.075437492503246467
10
-69.207794156459556
20
10.501028082790725
42
0.23836348066975993
10
-73.713011715954366
20
24.215078131070623
10
-80.605698650181367
20
31.107763018937177
42
0.56249768292378932
10
-90.568451429478003
20
28.676284435714798
42
0.15453458256120298
10
-90.56845149287733
20
-28.677201930995476
42
0.56249767791159433
10
-80.605698783571555
20
-31.108680600859021
10
-73.713011914137653
20
-24.215996018213332
42
0.2383634852600148
0
LWPOLYLINE
5
143
100
AcDbEntity
8
0
100
AcDbPolyline
90
8
70
1
43
0.0
10
-51.285772349113316
20
-79.967761880768236
42
-0.10798631559890851
10
-79.967301493869911
20
-51.286233595787152
42
-0.35251588873057654
10
-79.159375066947305
20
-43.804490641843401
10
-76.353386007991887
20
-40.998502513831539
42
-0.41421356237271306
10
-67.868104633758975
20
-40.998503921408016
10
-40.998045347664615
20
-67.868572122120256
42
-0.41421356237354789
10
-40.998046755242079
20
-76.353853496365275
10
-43.804030954151479
20
-79.159836764331374
42
-0.35251578705545311
0
LWPOLYLINE
5
144
100
AcDbEntity
8
0
100
AcDbPolyline
90
8
70
1
43
0.0
10
51.285772352626807
20
79.96684418527056
42
-0.10798631559896692
10
79.96730149740317
20
51.285315900278938
42
-0.35251588873059181
10
79.159375070480763
20
43.803572946334917
10
76.35338601152462
20
40.997584818322338
42
-0.41421356237271273
10
67.868104637291694
20
40.9975862258988
10
40.998045351187471
20
67.867654426620902
42
-0.41421356237309476
10
40.998046758758392
20
76.35293580085937
10
43.804030957659847
20
79.158919068826179
42
-0.352515787055805
0
CIRCLE
5
145
100
AcDbEntity
8
0
100
AcDbCircle
10
61.150594438780494
20
36.401398247727343
30
0
40
1.5000000000000036
0
LWPOLYLINE
5
146
100
AcDbEntity
8
0
100
AcDbPolyline
90
8
70
1
43
0.0
10
-79.967303031255923
20
51.285313503107268
42
-0.10798631559895243
10
-51.285774746267393
20
79.966842647879204
42
-0.35251588873069695
10
-43.80403179232178
20
79.158916220955163
10
-40.998043664310238
20
76.352927161997883
42
-0.41421356237260115
10
-40.998045071888313
20
67.867645787766577
10
-67.868113272607914
20
40.997586501664848
42
-0.41421356237332163
10
-76.353394646849665
20
40.997587909239044
10
-79.159377914815011
20
43.803572108143356
42
-0.35251578705560349
0
LWPOLYLINE
5
147
100
AcDbEntity
8
0
100
AcDbPolyline
90
8
70
1
43
0.0
10
79.967303034794739
20
-51.286231198614274
42
-0.10798631559898825
10
51.28577474979663
20
-79.967760343395241
42
-0.3525158887305091
10
43.804031795853902
20
-79.159833916473445
10
40.998043667841841
20
-76.353844857519007
42
-0.41421356237277435
10
40.998045075417416
20
-67.868563483285186
10
67.868113276143134
20
-40.998504197177368
42
-0.41421356237286722
10
76.353394650378277
20
-40.99850560474502
10
79.159377918347062
20
-43.804489803644096
42
-0.35251578705602071
0
CIRCLE
5
148
100
AcDbEntity
8
0
100
AcDbCircle
10
-36.401857093728886
20
-61.151053284776012
30
0
40
1.5000000000000036
0
CIRCLE
5
149
100
AcDbEntity
8
0
100
AcDbCircle
10
36.401857097251337
20
61.150135589256507
30
0
40
1.5000000000000036
0
CIRCLE
5
150
100
AcDbEntity
8
0
100
AcDbCircle
10
-61.150594435244855
20
-36.402315943239486
30
0
40
1.5000000000000036
0
CIRCLE
5
151
100
AcDbEntity
8
0
100
AcDbCircle
10
61.150594438777475
20
-36.402315943249867
30
0
40
1.5000000000000036
0
CIRCLE
5
152
100
AcDbEntity
8
0
100
AcDbCircle
10
36.401857097251259
20
-61.151053284768736
30
0
40
1.4999999999999991
0
CIRCLE
5
153
100
AcDbEntity
8
0
100
AcDbCircle
10
-36.401857093715584
20
61.150135589256614
30
0
40
1.4999999999999991
0
CIRCLE
5
154
100
AcDbEntity
8
0
100
AcDbCircle
10
-61.150594435255286
20
36.401398247730391
30
0
40
1.5000000000000036
0
ARC
5
155
100
AcDbEntity
8
0
100
AcDbCircle
10
17.500000001767862
20
45.312680802901546
30
0
40
4.9999999999999938
100
AcDbArc
50
68.883367156688053
51
248.88336801046162
0
ARC
5
156
100
AcDbEntity
8
0
100
AcDbCircle
10
1.7678036812185383e-09
20
-0.00045884775594196014
30
0
40
43.574999999999889
100
AcDbArc
50
-248.88336715668828
51
68.883367156688138
0
ARC
5
157
100
AcDbEntity
8
0
100
AcDbCircle
10
-17.499999998232141
20
45.312680802901603
30
0
40
5.0000000000000142
100
AcDbArc
50
-68.883367156688578
51
111.11663284331149
0
ARC
5
158
100
AcDbEntity
8
0
100
AcDbCircle
10
1.7678036812185383e-09
20
-0.00045884775594196014
30
0
40
53.57499999999991
100
AcDbArc
50
111.11663284331169
51
126.87083189836891
0
ARC
5
159
100
AcDbEntity
8
0
100
AcDbCircle
10
-33.945737993440154
20
45.25898764643668
30
0
40
3.0000000000000004
100
AcDbArc
50
224.99999999999989
51
306.87083189836937
0
LINE
5
160
100
AcDbEntity
8
0
100
AcDbLine
10
-36.0670583369998
20
43.137667302877041
30
0
11
-36.370605970769432
21
43.441214936646659
31
0
0
ARC
5
161
100
AcDbEntity
8
0
100
AcDbCircle
10
-34.24928562720978
20
45.562535280206319
30
0
40
2.9999999999999978
100
AcDbArc
50
126.93184949994787
51
225.00000000000011
0
ARC
5
162
100
AcDbEntity
8
0
100
AcDbCircle
10
1.7678036812185383e-09
20
-0.00045884775594196014
30
0
40
59.999999999999922
100
AcDbArc
50
106.80183759508135
51
126.93184949994775
0
ARC
5
163
100
AcDbEntity
8
0
100
AcDbCircle
10
-18.5
20
61.267395692244129
30
0
40
4.0000000000002052
100
AcDbArc
50
286.80183759508122
51
360
0
LINE
5
164
100
AcDbEntity
8
0
100
AcDbLine
10
-14.499999999999986
20
61.267395692244122
30
0
11
-14.500000000000002
21
65.825726970044713
31
0
0
ARC
5
165
100
AcDbEntity
8
0
100
AcDbCircle
10
-18.500000000000004
20
65.825726970044713
30
0
40
4.0000000000000018
100
AcDbArc
50
0
51
73.745246649678606
0
ARC
5
166
100
AcDbEntity
8
0
100
AcDbCircle
10
-12.901826792940255
20
85.026259690356412
30
0
40
16.000000000000043
100
AcDbArc
50
224.99999049546375
51
253.74524664967856
0
LINE
5
167
100
AcDbEntity
8
0
100
AcDbLine
10
-24.215537168704529
20
73.712553068151422
30
0
11
-31.108221751343194
21
80.605239937582667
31
0
0
ARC
5
168
100
AcDbEntity
8
0
100
AcDbCircle
10
-26.865580360431576
20
84.847879920909548
30
0
40
6.0000000000000089
100
AcDbArc
50
107.56938059465129
51
224.99999049546372
0
ARC
5
169
100
AcDbEntity
8
0
100
AcDbCircle
10
1.7678036812185383e-09
20
-0.00045884775594196014
30
0
40
95.000000000000114
100
AcDbArc
50
100.77010045372599
51
107.56938059465126
0
ARC
5
170
100
AcDbEntity
8
0
100
AcDbCircle
10
-18.5
20
97.255646358727702
30
0
40
4.000000000000024
100
AcDbArc
50
280.77010045372606
51
360
0
LINE
5
171
100
AcDbEntity
8
0
100
AcDbLine
10
-14.499999999999975
20
97.255646358727688
30
0
11
-14.500000000000002
21
99.291812657194427
31
0
0
ARC
5
172
100
AcDbEntity
8
0
100
AcDbCircle
10
-18.500000000000018
20
99.291812657194441
30
0
40
4.0000000000000142
100
AcDbArc
50
0
51
100.55425261865395
0
ARC
5
173
100
AcDbEntity
8
0
100
AcDbCircle
10
1.7678036812185383e-09
20
-0.00045884775594196014
30
0
40
105.00101574082407
100
AcDbArc
50
100.55425261865396
51
244.6215345818093
0
LINE
5
174
100
AcDbEntity
8
0
100
AcDbLine
10
-45.002971778614764
20
-94.868503191143333
30
0
11
-22.610886717839847
21
-77.580998041420031
31
0
0
ARC
5
175
100
AcDbEntity
8
0
100
AcDbCircle
10
-6.6613381477509392e-15
20
-106.86832980505137
30
0
40
36.99999999999995
100
AcDbArc
50
52.332012714738262
51
127.66944797502455
0
LINE
5
176
100
AcDbEntity
8
0
100
AcDbLine
10
22.610140063774821
20
-77.580421612480151
30
0
11
45.003702790667965
21
-94.868156415964947
31
0
0
ARC
5
177
100
AcDbEntity
8
0
100
AcDbCircle
10
1.7678036812185383e-09
20
-0.00045884775594196014
30
0
40
105.0010157408243
100
AcDbArc
50
-64.621093086681128
51
79.445747383386262
0
ARC
5
178
100
AcDbEntity
8
0
100
AcDbCircle
10
18.499999999999982
20
99.291812657853185
30
0
40
3.9999999999999973
100
AcDbArc
50
79.445747383386021
51
180
0
LINE
5
179
100
AcDbEntity
8
0
100
AcDbLine
10
14.500000000000002
20
99.291812657853171
30
0
11
14.500000000000002
21
97.255646359400203
31
0
0
ARC
5
180
100
AcDbEntity
8
0
100
AcDbCircle
10
18.499999999999979
20
97.255646359400188
30
0
40
3.9999999999999769
100
AcDbArc
50
180
51
259.22989954835737
0
ARC
5
181
100
AcDbEntity
8
0
100
AcDbCircle
10
1.7678036812185383e-09
20
-0.00045884775594196014
30
0
40
95.000000000000114
100
AcDbArc
50
72.430619278678193
51
79.229899548356883
0
ARC
5
182
100
AcDbEntity
8
0
100
AcDbCircle
10
26.865580551551442
20
84.847879861514627
30
0
40
6.0000000000000044
100
AcDbArc
50
-44.999991494765695
51
72.430619278678392
0
LINE
5
183
100
AcDbEntity
8
0
100
AcDbLine
10
31.108221868466686
20
80.605239804191399
30
0
11
24.215536980600938
21
73.712552869965208
31
0
0
ARC
5
184
100
AcDbEntity
8
0
100
AcDbCircle
10
12.901826802160263
20
85.026259689493813
30
0
40
16.000000000000011
100
AcDbArc
50
286.2547533228082
51
315.0000085052344
0
ARC
5
185
100
AcDbEntity
8
0
100
AcDbCircle
10
18.499999999999993
20
65.825726966493932
30
0
40
4
100
AcDbArc
50
106.25475332280836
51
180
0
LINE
5
186
100
AcDbEntity
8
0
100
AcDbLine
10
14.499999999999996
20
65.825726966493932
30
0
11
14.500000000000002
21
61.26739569331167
31
0
0
ARC
5
187
100
AcDbEntity
8
0
100
AcDbCircle
10
18.499999999999996
20
61.26739569331167
30
0
40
3.9999999999999947
100
AcDbArc
50
180
51
253.19816240822493
0
ARC
5
188
100
AcDbEntity
8
0
100
AcDbCircle
10
1.7678036812185383e-09
20
-0.00045884775594196014
30
0
40
59.999999999999922
100
AcDbArc
50
53.068150500052262
51
73.198162408225045
0
ARC
5
189
100
AcDbEntity
8
0
100
AcDbCircle
10
34.249285630745334
20
45.562535280206255
30
0
40
3.0000000000000036
100
AcDbArc
50
-44.999999999999794
51
53.06815050005234
0
LINE
5
190
100
AcDbEntity
8
0
100
AcDbLine
10
36.370605974304986
20
43.441214936646617
30
0
11
36.067058340535425
21
43.137667302877048
31
0
0
ARC
5
191
100
AcDbEntity
8
0
100
AcDbCircle
10
33.945737996975772
20
45.258987646436694
30
0
40
2.9999999999999982
100
AcDbArc
50
233.12916810163117
51
315.00000000000011
0
ARC
5
192
100
AcDbEntity
8
0
100
AcDbCircle
10
1.7678036812185383e-09
20
-0.00045884775594196014
30
0
40
53.574999999999932
100
AcDbArc
50
53.129168101631095
51
68.883367156688138
0
CIRCLE
5
193
100
AcDbEntity
8
0
100
AcDbCircle
10
-24.874423101963032
20
60.05171076547758
30
0
40
1.4999999999999991
0
CIRCLE
5
194
100
AcDbEntity
8
0
100
AcDbCircle
10
-64.443915987529863
20
8.4837436465472891
30
0
40
1.5000000000000036
0
CIRCLE
5
195
100
AcDbEntity
8
0
100
AcDbCircle
10
24.874423105498646
20
60.05171076547758
30
0
40
1.4999999999999991
0
CIRCLE
5
196
100
AcDbEntity
8
0
100
AcDbCircle
10
64.443915991065495
20
8.4837436465472891
30
0
40
1.5000000000000036
0
LWPOLYLINE
5
197
100
AcDbEntity
8
0
100
AcDbPolyline
90
4
70
1
43
0.0
10
-53.195643146904004
20
39.053048677179675
10
-39.053507523169202
20
53.195184300906782
42
0.99999999999999989
10
-44.356808382066859
20
58.498485159807331
10
-58.498944005801661
20
44.356349536080231
42
0.99999999999999989
0
CIRCLE
5
198
100
AcDbEntity
8
0
100
AcDbCircle
10
39.569492887334647
20
-51.568425966686348
30
0
40
1.4999999999999947
0
LWPOLYLINE
5
199
100
AcDbEntity
8
0
100
AcDbPolyline
90
4
70
1
43
0.0
10
58.498944009330955
20
44.356349536076003
10
44.356808385600004
20
58.498485159806954
42
0.99999999999999989
10
39.053507526700891
20
53.19518430090784
10
53.195643150431842
20
39.053048677176889
42
0.99999999999999989
0
ENDSEC
0
SECTION
2
OBJECTS
0
DICTIONARY
5
C
100
AcDbDictionary
3
ACAD_GROUP
350
D
3
ACAD_MLINESTYLE
350
17
0
DICTIONARY
5
D
100
AcDbDictionary
0
DICTIONARY
5
1A
330
C
100
AcDbDictionary
0
DICTIONARY
5
17
100
AcDbDictionary
0
ENDSEC
0
EOF
