0
SECTION
2
HEADER
9
$INSUNITS
70
4
9
$ACADVER
1
AC1014
9
$HANDSEED
5
FFFF
0
ENDSEC
0
SECTION
2
TABLES
0
TABLE
2
VPORT
5
8
100
AcDbSymbolTable
0
ENDTAB
0
TABLE
2
LTYPE
5
5
100
AcDbSymbolTable
0
LTYPE
5
14
100
AcDbSymbolTableRecord
100
AcDbLinetypeTableRecord
2
BYBLOCK
70
0
0
LTYPE
5
15
100
AcDbSymbolTableRecord
100
AcDbLinetypeTableRecord
2
BYLAYER
70
0
0
ENDTAB
0
TABLE
2
LAYER
5
2
100
AcDbSymbolTable
70
2
0
LAYER
5
50
100
AcDbSymbolTableRecord
100
AcDbLayerTableRecord
2
0
70
0
6
CONTINUOUS
0
ENDTAB
0
TABLE
2
STYLE
5
3
100
AcDbSymbolTable
70
1
0
STYLE
5
11
100
AcDbSymbolTableRecord
100
AcDbTextStyleTableRecord
2
STANDARD
70
0
0
ENDTAB
0
TABLE
2
VIEW
5
6
100
AcDbSymbolTable
70
0
0
ENDTAB
0
TABLE
2
UCS
5
7
100
AcDbSymbolTable
70
0
0
ENDTAB
0
TABLE
2
APPID
5
9
100
AcDbSymbolTable
70
2
0
APPID
5
12
100
AcDbSymbolTableRecord
100
AcDbRegAppTableRecord
2
ACAD
70
0
0
ENDTAB
0
TABLE
2
DIMSTYLE
5
A
100
AcDbSymbolTable
70
1
0
ENDTAB
0
TABLE
2
BLOCK_RECORD
5
1
100
AcDbSymbolTable
70
1
0
BLOCK_RECORD
5
1F
100
AcDbSymbolTableRecord
100
AcDbBlockTableRecord
2
*MODEL_SPACE
0
BLOCK_RECORD
5
1B
100
AcDbSymbolTableRecord
100
AcDbBlockTableRecord
2
*PAPER_SPACE
0
ENDTAB
0
ENDSEC
0
SECTION
2
BLOCKS
0
BLOCK
5
20
100
AcDbEntity
100
AcDbBlockBegin
2
*MODEL_SPACE
0
ENDBLK
5
21
100
AcDbEntity
100
AcDbBlockEnd
0
BLOCK
5
1C
100
AcDbEntity
100
AcDbBlockBegin
2
*PAPER_SPACE
0
ENDBLK
5
1D
100
AcDbEntity
100
AcDbBlockEnd
0
ENDSEC
0
SECTION
2
ENTITIES
0
LWPOLYLINE
5
100
100
AcDbEntity
8
0
100
AcDbPolyline
90
6
70
1
43
0.0
10
-48.131395869468292
20
93.318639370460033
10
48.13140049396354
20
93.318639370460062
42
-0.62621590928111148
10
43.533863872979033
20
-95.549998332358598
42
-0.10728687745756957
10
41.460822810382211
20
-95.999998249634729
10
-41.46081818588695
20
-95.9999982496347
42
-0.10728687745759023
10
-43.533859248483836
20
-95.549998332358555
42
-0.62621590928111115
0
CIRCLE
5
101
100
AcDbEntity
8
0
100
AcDbCircle
10
-90.000001341104579
20
1.7763568394002505e-14
30
0
40
1.5000000000000036
0
CIRCLE
5
102
100
AcDbEntity
8
0
100
AcDbCircle
10
90.000001341104507
20
-4.4408920985006262e-14
30
0
40
1.5000000000000036
0
CIRCLE
5
103
100
AcDbEntity
8
0
100
AcDbCircle
10
44.849035811836842
20
-86.989610828980446
30
0
40
1.5000000000000036
0
CIRCLE
5
104
100
AcDbEntity
8
0
100
AcDbCircle
10
-98
20
0
30
0
40
1.5000000000000036
0
CIRCLE
5
105
100
AcDbEntity
8
0
100
AcDbCircle
10
98
20
0
30
0
40
1.5000000000000036
0
LWPOLYLINE
5
106
100
AcDbEntity
8
0
100
AcDbPolyline
90
4
70
1
43
0.0
10
-94.999999999999588
20
10
10
-86.299999999999599
20
10
10
-86.299999999999599
20
24.000000000000004
10
-94.999999999999588
20
24.000000000000004
0
CIRCLE
5
107
100
AcDbEntity
8
0
100
AcDbCircle
10
-44.849035811836842
20
-86.989610828980446
30
0
40
1.5000000000000036
0
CIRCLE
5
108
100
AcDbEntity
8
0
100
AcDbCircle
10
-44.491068974475603
20
87.318639370460062
30
0
40
1.5000000000000036
0
CIRCLE
5
109
100
AcDbEntity
8
0
100
AcDbCircle
10
44.491068974475603
20
87.318639370460062
30
0
40
1.5000000000000036
0
LWPOLYLINE
5
110
100
AcDbEntity
8
0
100
AcDbPolyline
90
4
70
1
43
0.0
10
-82.999999999999986
20
4.000000000000016
10
-86
20
4.0000000000000169
10
-86
20
-3.9999999999999836
10
-82.999999999999986
20
-3.9999999999999849
0
LWPOLYLINE
5
111
100
AcDbEntity
8
0
100
AcDbPolyline
90
4
70
1
43
0.0
10
82.999999999999986
20
3.9999999999999831
10
82.999999999999986
20
-4.0000000000000178
10
86
20
-4.0000000000000178
10
86
20
3.9999999999999831
0
LINE
5
112
100
AcDbEntity
8
0
100
AcDbLine
10
-69.299999999999599
20
10
30
0
11
-81.299999999999599
21
10
31
0
0
LINE
5
113
100
AcDbEntity
8
0
100
AcDbLine
10
-81.299999999999599
20
10
30
0
11
-81.299999999999599
21
30
31
0
0
LINE
5
114
100
AcDbEntity
8
0
100
AcDbLine
10
-81.299999999999599
20
30
30
0
11
-69.299999999999599
21
30
31
0
0
LINE
5
115
100
AcDbEntity
8
0
100
AcDbLine
10
-69.299999999999599
20
30
30
0
11
-69.299999999999599
21
10
31
0
0
LWPOLYLINE
5
116
100
AcDbEntity
8
0
100
AcDbPolyline
90
33
70
1
43
0.0
10
-76.999999999999986
20
-8.7535721577320338
42
-0.13593295954572876
10
-77.641281834293537
20
-11.068803057155904
10
-79.358718165706449
20
-13.931196942844068
42
0.1359329595457261
10
-80
20
-16.246427842267941
10
-80
20
-32.323651154820652
42
0.19891236737965792
10
-77.071067811865476
20
-39.394718966686128
10
-42.322328158088681
20
-74.143458620462937
42
0.19891236737965792
10
-24.644658628424999
20
-81.465789090799234
10
24.644663252920246
20
-81.465789090799234
42
0.19891236737965803
10
42.322332782583928
20
-74.143458620462923
10
77.071067811865476
20
-39.394723591181389
42
0.19891236737965803
10
80
20
-32.323655779315906
10
80
20
-16.246427842267966
42
0.13593295954572568
10
79.358718165706449
20
-13.931196942844101
10
77.641281834293522
20
-11.068803057155927
42
-0.13593295954572435
10
77
20
-8.7535721577320658
10
77
20
8.7535721577320338
42
-0.13593295954572682
10
77.641281834293551
20
11.068803057155904
10
79.358718165706449
20
13.931196942844061
42
0.1359329595457261
10
80
20
16.246427842267931
10
80
20
32.176506058976727
42
0.19891236737965809
10
77.071067811865476
20
39.247573870842203
10
42.322332782583942
20
73.996308900123722
42
0.19891236737965795
10
24.644663252920253
20
81.318639370460033
10
-24.644658628424992
20
81.318639370460033
42
0.19891236737965803
10
-42.322328158088681
20
73.996308900123722
10
-67.300682324804512
20
49.01795473340789
42
0.45463744957474261
10
-66.276538170979421
20
33.982295640514145
42
-0.23451700335821973
10
-64.299999999999599
20
30
10
-64.299999999999585
20
9.999999999999984
42
-0.41421356237309459
10
-69.299999999999613
20
4.9999999999999822
10
-72.499999999999986
20
4.9999999999999858
42
0.41421356237309503
10
-77
20
0.49999999999998601
0
ENDSEC
0
SECTION
2
OBJECTS
0
DICTIONARY
5
C
100
AcDbDictionary
3
ACAD_GROUP
350
D
3
ACAD_MLINESTYLE
350
17
0
DICTIONARY
5
D
100
AcDbDictionary
0
DICTIONARY
5
1A
330
C
100
AcDbDictionary
0
DICTIONARY
5
17
100
AcDbDictionary
0
ENDSEC
0
EOF
