0
SECTION
2
HEADER
9
$INSUNITS
70
4
9
$ACADVER
1
AC1014
9
$HANDSEED
5
FFFF
0
ENDSEC
0
SECTION
2
TABLES
0
TABLE
2
VPORT
5
8
100
AcDbSymbolTable
0
ENDTAB
0
TABLE
2
LTYPE
5
5
100
AcDbSymbolTable
0
LTYPE
5
14
100
AcDbSymbolTableRecord
100
AcDbLinetypeTableRecord
2
BYBLOCK
70
0
0
LTYPE
5
15
100
AcDbSymbolTableRecord
100
AcDbLinetypeTableRecord
2
BYLAYER
70
0
0
ENDTAB
0
TABLE
2
LAYER
5
2
100
AcDbSymbolTable
70
2
0
LAYER
5
50
100
AcDbSymbolTableRecord
100
AcDbLayerTableRecord
2
0
70
0
6
CONTINUOUS
0
ENDTAB
0
TABLE
2
STYLE
5
3
100
AcDbSymbolTable
70
1
0
STYLE
5
11
100
AcDbSymbolTableRecord
100
AcDbTextStyleTableRecord
2
STANDARD
70
0
0
ENDTAB
0
TABLE
2
VIEW
5
6
100
AcDbSymbolTable
70
0
0
ENDTAB
0
TABLE
2
UCS
5
7
100
AcDbSymbolTable
70
0
0
ENDTAB
0
TABLE
2
APPID
5
9
100
AcDbSymbolTable
70
2
0
APPID
5
12
100
AcDbSymbolTableRecord
100
AcDbRegAppTableRecord
2
ACAD
70
0
0
ENDTAB
0
TABLE
2
DIMSTYLE
5
A
100
AcDbSymbolTable
70
1
0
ENDTAB
0
TABLE
2
BLOCK_RECORD
5
1
100
AcDbSymbolTable
70
1
0
BLOCK_RECORD
5
1F
100
AcDbSymbolTableRecord
100
AcDbBlockTableRecord
2
*MODEL_SPACE
0
BLOCK_RECORD
5
1B
100
AcDbSymbolTableRecord
100
AcDbBlockTableRecord
2
*PAPER_SPACE
0
ENDTAB
0
ENDSEC
0
SECTION
2
BLOCKS
0
BLOCK
5
20
100
AcDbEntity
100
AcDbBlockBegin
2
*MODEL_SPACE
0
ENDBLK
5
21
100
AcDbEntity
100
AcDbBlockEnd
0
BLOCK
5
1C
100
AcDbEntity
100
AcDbBlockBegin
2
*PAPER_SPACE
0
ENDBLK
5
1D
100
AcDbEntity
100
AcDbBlockEnd
0
ENDSEC
0
SECTION
2
ENTITIES
0
ARC
5
100
100
AcDbEntity
8
0
100
AcDbCircle
10
-22.000000000002117
20
-8.5487172896137054e-13
30
0
40
25.000000000002245
100
AcDbArc
50
15.436315679895102
51
29.563684320105196
0
LINE
5
101
100
AcDbEntity
8
0
100
AcDbLine
10
-0.25480427234910785
20
12.334766425277483
30
0
11
-7.8488644503590006
21
7.2605776392575949
31
0
0
ARC
5
102
100
AcDbEntity
8
0
100
AcDbCircle
10
-8.8627801256197749
20
8.7780096817097668
30
1.7763568394002501e-14
40
1.8250000000000193
100
AcDbArc
50
123.75000000000172
51
303.74999999999955
0
LINE
5
103
100
AcDbEntity
8
0
100
AcDbLine
10
-9.8766958008806043
20
10.295441724161897
30
1.7763568394002501e-14
11
-2.2826356228707012
21
15.369630510181802
31
0
0
ARC
5
104
100
AcDbEntity
8
0
100
AcDbCircle
10
-22.000000000002117
20
-8.5487172896137054e-13
30
0
40
25.000000000002171
100
AcDbArc
50
37.936315679893035
51
52.063684320103171
0
LINE
5
105
100
AcDbEntity
8
0
100
AcDbLine
10
-6.6303694898182686
20
19.7173643771294
30
1.637578961322099e-14
11
-11.704558275838101
21
12.123304199119499
31
1.7208456881689926e-14
0
ARC
5
106
100
AcDbEntity
8
0
100
AcDbCircle
10
-13.221990318290262
20
13.137219874380259
30
-7.7037197775489434e-32
40
1.8250000000000024
100
AcDbArc
50
146.25000000000159
51
326.25000000000068
0
LINE
5
107
100
AcDbEntity
8
0
100
AcDbLine
10
-14.739422360742438
20
14.151135549640992
30
1.5358539158027227e-30
11
-9.6652335747227021
21
21.745195727651002
31
0
0
ARC
5
108
100
AcDbEntity
8
0
100
AcDbCircle
10
-22.000000000002117
20
-8.5487172896137054e-13
30
0
40
25.000000000001776
100
AcDbArc
50
60.436315679891337
51
74.563684320101743
0
LINE
5
109
100
AcDbEntity
8
0
100
AcDbLine
10
-15.345821626415157
20
24.098172340916587
30
0
11
-17.12763977540925
21
15.140367592691602
31
1.7763568394002505e-14
0
ARC
5
110
100
AcDbEntity
8
0
100
AcDbCircle
10
-18.917572912145165
20
15.496407430371015
30
-7.7037197775489434e-33
40
1.8250000000000153
100
AcDbArc
50
168.74999999999864
51
348.7500000000008
0
LINE
5
111
100
AcDbEntity
8
0
100
AcDbLine
10
-20.707506048881065
20
15.852447268050495
30
-2.5326962749265429e-17
11
-18.925687899887023
21
24.810252016275388
31
1.7763568394002505e-14
0
ARC
5
112
100
AcDbEntity
8
0
100
AcDbCircle
10
-22.000000000002117
20
-8.5487172896137054e-13
30
0
40
25.000000000001073
100
AcDbArc
50
82.936315679889915
51
97.063684320100847
0
LINE
5
113
100
AcDbEntity
8
0
100
AcDbLine
10
-25.07431210011314
20
24.810252016275371
30
1.7763568394002505e-14
11
-23.292493951118935
21
15.852447268050485
31
1.7763568394002505e-14
0
ARC
5
114
100
AcDbEntity
8
0
100
AcDbCircle
10
-25.082427087854832
20
15.496407430371077
30
1.7763568394002505e-14
40
1.8249999999999933
100
AcDbArc
50
-168.74999999999818
51
11.24999999999916
0
LINE
5
115
100
AcDbEntity
8
0
100
AcDbLine
10
-26.872360224590711
20
15.140367592691586
30
1.7763568394002505e-14
11
-28.654178373585015
21
24.098172340916495
31
0
0
ARC
5
116
100
AcDbEntity
8
0
100
AcDbCircle
10
-22.000000000002117
20
-8.5487172896137054e-13
30
0
40
25.000000000000245
100
AcDbArc
50
105.43631567988935
51
119.56368432010078
0
LINE
5
117
100
AcDbEntity
8
0
100
AcDbLine
10
-34.334766425277522
20
21.745195727650902
30
1.3877787807815845e-15
11
-29.260577639257598
21
14.151135549640996
31
0
0
ARC
5
118
100
AcDbEntity
8
0
100
AcDbCircle
10
-30.778009681709765
20
13.137219874380222
30
0
40
1.8250000000000242
100
AcDbArc
50
-146.24999999999852
51
33.749999999999623
0
LINE
5
119
100
AcDbEntity
8
0
100
AcDbLine
10
-32.295441724161904
20
12.123304199119394
30
1.0130785099704681e-16
11
-37.3696305101818
21
19.717364377129286
31
0
0
ARC
5
120
100
AcDbEntity
8
0
100
AcDbCircle
10
-22.000000000002117
20
-8.5487172896137054e-13
30
0
40
24.999999999999339
100
AcDbArc
50
127.93631567988945
51
142.06368432010132
0
LINE
5
121
100
AcDbEntity
8
0
100
AcDbLine
10
-41.717364377129407
20
15.36963051018172
30
-1.2942249226282225e-30
11
-34.123304199119509
21
10.295441724161902
31
0
0
ARC
5
122
100
AcDbEntity
8
0
100
AcDbCircle
10
-35.137219874380264
20
8.7780096817097331
30
0
40
1.825000000000002
100
AcDbArc
50
-123.74999999999872
51
56.250000000000924
0
LINE
5
123
100
AcDbEntity
8
0
100
AcDbLine
10
-36.151135549641005
20
7.2605776392575638
30
0
11
-43.745195727651009
21
12.334766425277286
31
1.7763568394002505e-14
0
ARC
5
124
100
AcDbEntity
8
0
100
AcDbCircle
10
-22.000000000002117
20
-8.5487172896137054e-13
30
0
40
24.999999999998572
100
AcDbArc
50
150.43631567989055
51
164.56368432010274
0
LINE
5
125
100
AcDbEntity
8
0
100
AcDbLine
10
-46.098172340916591
20
6.654178373584843
30
2.3419308123748788e-30
11
-37.140367592691604
21
4.8723602245907287
31
0
0
ARC
5
126
100
AcDbEntity
8
0
100
AcDbCircle
10
-37.496407430371001
20
3.0824270878548274
30
-4.622231866529366e-32
40
1.8249999999999977
100
AcDbArc
50
-101.250000000002
51
78.750000853771681
0
LINE
5
127
100
AcDbEntity
8
0
100
AcDbLine
10
-37.852447268050497
20
1.2924939511189462
30
1.01307850997044e-16
11
-46.810252016275406
21
3.0743121001129614
31
1.7763568394002505e-14
0
ARC
5
128
100
AcDbEntity
8
0
100
AcDbCircle
10
-22.000000000002117
20
-8.5487172896137054e-13
30
0
40
24.999999999997979
100
AcDbArc
50
172.936315679892
51
187.06368432010464
0
LINE
5
129
100
AcDbEntity
8
0
100
AcDbLine
10
-46.810252016275399
20
-3.074312100113179
30
3.4694469519534209e-16
11
-37.852447268050504
21
-1.2924939511189319
31
1.7902346272080649e-14
0
ARC
5
130
100
AcDbEntity
8
0
100
AcDbCircle
10
-37.496407430371086
20
-3.0824270878548274
30
1.7763568394002505e-14
40
1.8249999999999984
100
AcDbArc
50
-78.749999999998209
51
101.24999999999952
0
LINE
5
131
100
AcDbEntity
8
0
100
AcDbLine
10
-37.140367592691597
20
-4.8723602245907109
30
1.7459644841011367e-14
11
-46.098172340916506
21
-6.6541783735850135
31
-1.3877787807814457e-16
0
ARC
5
132
100
AcDbEntity
8
0
100
AcDbCircle
10
-22.000000000002117
20
-8.5487172896137054e-13
30
0
40
24.99999999999773
100
AcDbArc
50
195.43631567989394
51
209.56368432010663
0
LINE
5
133
100
AcDbEntity
8
0
100
AcDbLine
10
-43.745195727650888
20
-12.334766425277499
30
0
11
-36.151135549640998
21
-7.2605776392575949
31
1.7763568394002505e-14
0
ARC
5
134
100
AcDbEntity
8
0
100
AcDbCircle
10
-35.137219874380207
20
-8.7780096817097082
30
-3.4666738998970694e-32
40
1.8249999999999769
100
AcDbArc
50
-56.249999999998437
51
123.75000000000098
0
LINE
5
135
100
AcDbEntity
8
0
100
AcDbLine
10
-34.123304199119403
20
-10.295441724161808
30
1.0130785099704524e-16
11
-41.7173643771293
21
-15.369630510181814
31
0
0
ARC
5
136
100
AcDbEntity
8
0
100
AcDbCircle
10
-22.000000000002117
20
-8.5487172896137054e-13
30
0
40
24.99999999999779
100
AcDbArc
50
217.93631567989593
51
232.06368432010845
0
LINE
5
137
100
AcDbEntity
8
0
100
AcDbLine
10
-37.369630510181693
20
-19.717364377129385
30
6.1629758220391547e-32
11
-32.295441724161904
21
-12.123304199119502
31
5.5511151231257827e-16
0
ARC
5
138
100
AcDbEntity
8
0
100
AcDbCircle
10
-30.778009681709744
20
-13.137219874380266
30
1.2325951644078309e-31
40
1.8250000000000044
100
AcDbArc
50
-33.749999999998565
51
146.25000000000054
0
LINE
5
139
100
AcDbEntity
8
0
100
AcDbLine
10
-29.260577639257569
20
-14.151135549641005
30
-1.2209258512965212e-30
11
-34.334766425277301
21
-21.745195727651002
31
0
0
ARC
5
140
100
AcDbEntity
8
0
100
AcDbCircle
10
-22.000000000002117
20
-8.5487172896137054e-13
30
0
40
24.999999999998206
100
AcDbArc
50
240.4363156798978
51
254.56368432011007
0
LINE
5
141
100
AcDbEntity
8
0
100
AcDbLine
10
-28.654178373584841
20
-24.098172340916626
30
2.7755575615630961e-15
11
-26.872360224590743
21
-15.140367592691605
31
0
0
ARC
5
142
100
AcDbEntity
8
0
100
AcDbCircle
10
-25.082427087854832
20
-15.496407430371008
30
1.9259299443872359e-32
40
1.825000000000006
100
AcDbArc
50
-11.250000000001693
51
168.75000085377195
0
LINE
5
143
100
AcDbEntity
8
0
100
AcDbLine
10
-23.292493951118942
20
-15.852447268050497
30
-5.0653925498522969e-17
11
-25.074312100112973
21
-24.810252016275413
31
0
0
ARC
5
144
100
AcDbEntity
8
0
100
AcDbCircle
10
-22.000000000002117
20
-8.5487172896137054e-13
30
0
40
24.999999999998877
100
AcDbArc
50
262.93631567989911
51
277.06368432011095
0
LINE
5
145
100
AcDbEntity
8
0
100
AcDbLine
10
-18.92568789988686
20
-24.810252016275406
30
1.3877787807813686e-15
11
-20.707506048881072
21
-15.852447268050502
31
0
0
ARC
5
146
100
AcDbEntity
8
0
100
AcDbCircle
10
-18.917572912145175
20
-15.496407430371093
30
-1.3866695599588098e-31
40
1.8249999999999986
100
AcDbArc
50
11.250000000001636
51
191.24999999999923
0
LINE
5
147
100
AcDbEntity
8
0
100
AcDbLine
10
-17.127639775409293
20
-15.140367592691607
30
-2.5326962749253679e-17
11
-15.345821626414988
21
-24.098172340916506
31
0
0
ARC
5
148
100
AcDbEntity
8
0
100
AcDbCircle
10
-22.000000000002117
20
-8.5487172896137054e-13
30
0
40
24.999999999999734
100
AcDbArc
50
285.43631567989974
51
299.56368432011107
0
LINE
5
149
100
AcDbEntity
8
0
100
AcDbLine
10
-9.6652335747225031
20
-21.745195727650895
30
-9.2444637330587321e-32
11
-14.73942236074242
21
-14.15113554964101
31
0
0
ARC
5
150
100
AcDbEntity
8
0
100
AcDbCircle
10
-13.221990318290297
20
-13.137219874380213
30
1.7763568394002505e-14
40
1.8249999999999851
100
AcDbArc
50
33.750000000001933
51
213.75000000000099
0
LINE
5
151
100
AcDbEntity
8
0
100
AcDbLine
10
-11.704558275838199
20
-12.123304199119396
30
1.7864876244999553e-14
11
-6.630369489818202
21
-19.717364377129304
31
0
0
ARC
5
152
100
AcDbEntity
8
0
100
AcDbCircle
10
-22.000000000002117
20
-8.5487172896137054e-13
30
0
40
25.000000000000604
100
AcDbArc
50
307.93631567989951
51
322.06368432011038
0
LINE
5
153
100
AcDbEntity
8
0
100
AcDbLine
10
-2.2826356228705942
20
-15.369630510181702
30
1.3877787807812376e-15
11
-9.8766958008804995
21
-10.295441724161902
31
1.7763568394002505e-14
0
ARC
5
154
100
AcDbEntity
8
0
100
AcDbCircle
10
-8.8627801256197465
20
-8.7780096817097419
30
1.7763568394002505e-14
40
1.8250000000000024
100
AcDbArc
50
56.250000000001194
51
236.25000000000082
0
LINE
5
155
100
AcDbEntity
8
0
100
AcDbLine
10
-7.8488644503590024
20
-7.2605776392575736
30
1.7763568394002505e-14
11
-0.2548042723489985
21
-12.334766425277303
31
0
0
ARC
5
156
100
AcDbEntity
8
0
100
AcDbCircle
10
-22.000000000002117
20
-8.5487172896137054e-13
30
0
40
25.000000000001414
100
AcDbArc
50
330.43631567989866
51
344.56368432010913
0
LINE
5
157
100
AcDbEntity
8
0
100
AcDbLine
10
2.0981723409166215
20
-6.6541783735848368
30
0
11
-6.8596324073083998
21
-4.8723602245907465
31
0
0
ARC
5
158
100
AcDbEntity
8
0
100
AcDbCircle
10
-6.5035925696289931
20
-3.0824270878548266
30
1.7763568394002501e-14
40
1.8250000000000082
100
AcDbArc
50
78.74999999999811
51
258.75000000000102
0
LINE
5
159
100
AcDbEntity
8
0
100
AcDbLine
10
-6.1475527319494985
20
-1.2924939511189346
30
1.766226054300546e-14
11
2.8102520162754008
21
-3.0743121001129792
31
0
0
ARC
5
160
100
AcDbEntity
8
0
100
AcDbCircle
10
-22.000000000002117
20
-8.5487172896137054e-13
30
0
40
25.000000000001968
100
AcDbArc
50
-7.0636843201029622
51
7.0636843201071118
0
LINE
5
161
100
AcDbEntity
8
0
100
AcDbLine
10
2.810252016275391
20
3.0743121001131102
30
8.0118685686509011e-31
11
-6.1475527319494994
21
1.2924939511188445
31
-1.3877787807814457e-16
0
ARC
5
162
100
AcDbEntity
8
0
100
AcDbCircle
10
-6.5035925696289141
20
3.0824270878547373
30
6.1629758220391547e-32
40
1.8249999999999993
100
AcDbArc
50
101.25000000000121
51
281.24999999999937
0
LINE
5
163
100
AcDbEntity
8
0
100
AcDbLine
10
-6.8596324073083856
20
4.8723602245906248
30
-2.0261570199409015e-16
11
2.0981723409164932
21
6.6541783735849949
31
0
0
CIRCLE
5
164
100
AcDbEntity
8
0
100
AcDbCircle
10
-15.888727436784373
20
9.1461657353279957
30
0
40
1.7000000000000006
0
CIRCLE
5
165
100
AcDbEntity
8
0
100
AcDbCircle
10
-22.000000000002117
20
-8.5487172896137054e-13
30
0
40
2.1000000000000001
0
CIRCLE
5
166
100
AcDbEntity
8
0
100
AcDbCircle
10
-12.853834264672003
20
-6.1112725632156373
30
0
40
1.7000000000000006
0
CIRCLE
5
167
100
AcDbEntity
8
0
100
AcDbCircle
10
-31.146165735328005
20
6.1112725632156284
30
0
40
1.699999999999996
0
CIRCLE
5
168
100
AcDbEntity
8
0
100
AcDbCircle
10
-28.111272563215621
20
-9.1461657353279957
30
1.7763568394002505e-14
40
1.7000000000000002
0
ENDSEC
0
SECTION
2
OBJECTS
0
DICTIONARY
5
C
100
AcDbDictionary
3
ACAD_GROUP
350
D
3
ACAD_MLINESTYLE
350
17
0
DICTIONARY
5
D
100
AcDbDictionary
0
DICTIONARY
5
1A
330
C
100
AcDbDictionary
0
DICTIONARY
5
17
100
AcDbDictionary
0
ENDSEC
0
EOF
