0
SECTION
2
HEADER
9
$INSUNITS
70
4
9
$ACADVER
1
AC1014
9
$HANDSEED
5
FFFF
0
ENDSEC
0
SECTION
2
TABLES
0
TABLE
2
VPORT
5
8
100
AcDbSymbolTable
0
ENDTAB
0
TABLE
2
LTYPE
5
5
100
AcDbSymbolTable
0
LTYPE
5
14
100
AcDbSymbolTableRecord
100
AcDbLinetypeTableRecord
2
BYBLOCK
70
0
0
LTYPE
5
15
100
AcDbSymbolTableRecord
100
AcDbLinetypeTableRecord
2
BYLAYER
70
0
0
ENDTAB
0
TABLE
2
LAYER
5
2
100
AcDbSymbolTable
70
2
0
LAYER
5
50
100
AcDbSymbolTableRecord
100
AcDbLayerTableRecord
2
0
70
0
6
CONTINUOUS
0
ENDTAB
0
TABLE
2
STYLE
5
3
100
AcDbSymbolTable
70
1
0
STYLE
5
11
100
AcDbSymbolTableRecord
100
AcDbTextStyleTableRecord
2
STANDARD
70
0
0
ENDTAB
0
TABLE
2
VIEW
5
6
100
AcDbSymbolTable
70
0
0
ENDTAB
0
TABLE
2
UCS
5
7
100
AcDbSymbolTable
70
0
0
ENDTAB
0
TABLE
2
APPID
5
9
100
AcDbSymbolTable
70
2
0
APPID
5
12
100
AcDbSymbolTableRecord
100
AcDbRegAppTableRecord
2
ACAD
70
0
0
ENDTAB
0
TABLE
2
DIMSTYLE
5
A
100
AcDbSymbolTable
70
1
0
ENDTAB
0
TABLE
2
BLOCK_RECORD
5
1
100
AcDbSymbolTable
70
1
0
BLOCK_RECORD
5
1F
100
AcDbSymbolTableRecord
100
AcDbBlockTableRecord
2
*MODEL_SPACE
0
BLOCK_RECORD
5
1B
100
AcDbSymbolTableRecord
100
AcDbBlockTableRecord
2
*PAPER_SPACE
0
ENDTAB
0
ENDSEC
0
SECTION
2
BLOCKS
0
BLOCK
5
20
100
AcDbEntity
100
AcDbBlockBegin
2
*MODEL_SPACE
0
ENDBLK
5
21
100
AcDbEntity
100
AcDbBlockEnd
0
BLOCK
5
1C
100
AcDbEntity
100
AcDbBlockBegin
2
*PAPER_SPACE
0
ENDBLK
5
1D
100
AcDbEntity
100
AcDbBlockEnd
0
ENDSEC
0
SECTION
2
ENTITIES
0
ARC
5
100
100
AcDbEntity
8
0
100
AcDbCircle
10
21.99999999999725
20
-3.730349362740526e-13
30
0
40
24.999999999997225
100
AcDbArc
50
184.18631567989377
51
198.31368432010686
0
LINE
5
101
100
AcDbEntity
8
0
100
AcDbLine
10
-1.7337614430683113
20
-7.8554801103128913
30
5.0695240725039647e-16
11
6.7043061222554012
21
-4.3603180845353364
31
0
0
ARC
5
102
100
AcDbEntity
8
0
100
AcDbCircle
10
7.4027033863217078
20
-6.0463982313684284
30
3.0814879110195774e-32
40
1.8250000000000024
100
AcDbArc
50
-67.499999999999972
51
112.5000000000006
0
LINE
5
103
100
AcDbEntity
8
0
100
AcDbLine
10
8.1011006503879983
20
-7.7324783782015283
30
-2.026157019940904e-16
11
-0.33696691493580122
21
-11.227640403979102
31
0
0
ARC
5
104
100
AcDbEntity
8
0
100
AcDbCircle
10
21.99999999999725
20
-3.730349362740526e-13
30
0
40
24.999999999997389
100
AcDbArc
50
206.68631567989621
51
220.81368432010922
0
LINE
5
105
100
AcDbEntity
8
0
100
AcDbLine
10
3.0790256647339036
20
-16.3400345839352
30
0
11
9.5372429815871023
21
-9.8818172670820132
31
0
0
ARC
5
106
100
AcDbEntity
8
0
100
AcDbCircle
10
10.827712857252552
20
-11.172287142747448
30
0
40
1.8249999999999946
100
AcDbArc
50
-45
51
135.00000000000031
0
LINE
5
107
100
AcDbEntity
8
0
100
AcDbLine
10
12.118182732917997
20
-12.462757018412894
30
0
11
5.6599654160646997
21
-18.920974335266088
31
0
0
ARC
5
108
100
AcDbEntity
8
0
100
AcDbCircle
10
21.99999999999725
20
-3.730349362740526e-13
30
0
40
24.999999999997911
100
AcDbArc
50
229.18631567989823
51
243.31368432011107
0
LINE
5
109
100
AcDbEntity
8
0
100
AcDbLine
10
10.772359596020891
20
-22.3369669149358
30
1.6845327936627499e-15
11
14.267521621798469
21
-13.898899349611998
31
5.5511151231257827e-16
0
ARC
5
110
100
AcDbEntity
8
0
100
AcDbCircle
10
15.953601768631573
20
-14.597296613678289
30
7.7037197775489434e-33
40
1.8250000000000055
100
AcDbArc
50
-22.500000000000639
51
157.50000000000003
0
LINE
5
111
100
AcDbEntity
8
0
100
AcDbLine
10
17.639681915464671
20
-15.295693877744599
30
-5.0653925498522932e-17
11
14.144519889687059
21
-23.733761443068403
31
-5.5511151231257827e-16
0
ARC
5
112
100
AcDbEntity
8
0
100
AcDbCircle
10
21.99999999999725
20
-3.730349362740526e-13
30
0
40
24.999999999998831
100
AcDbArc
50
251.68631567989996
51
265.81368432011203
0
LINE
5
113
100
AcDbEntity
8
0
100
AcDbLine
10
20.175000000000004
20
-24.933298518246598
30
-1.6936331888148975e-16
11
20.175000000000011
21
-15.799999999999997
31
0
0
ARC
5
114
100
AcDbEntity
8
0
100
AcDbCircle
10
22.000000000000011
20
-15.799999999999994
30
3.543711097672514e-31
40
1.8250000000000011
100
AcDbArc
50
0
51
180
0
LINE
5
115
100
AcDbEntity
8
0
100
AcDbLine
10
23.82500000000001
20
-15.799999999999997
30
6.1744949546719861e-31
11
23.825000000000003
21
-24.933298518246588
31
0
0
ARC
5
116
100
AcDbEntity
8
0
100
AcDbCircle
10
21.99999999999725
20
-3.730349362740526e-13
30
0
40
24.99999999999978
100
AcDbArc
50
274.18631567990059
51
288.31368432011192
0
LINE
5
117
100
AcDbEntity
8
0
100
AcDbLine
10
29.855480110312918
20
-23.733761443068389
30
1.3458061558995477e-15
11
26.360318069817723
21
-15.295693842213192
31
0
0
ARC
5
118
100
AcDbEntity
8
0
100
AcDbCircle
10
28.046398231368428
20
-14.597296613678317
30
0
40
1.8250000000000133
100
AcDbArc
50
22.500000000000821
51
202.50000000000085
0
LINE
5
119
100
AcDbEntity
8
0
100
AcDbLine
10
29.732478378201531
20
-13.898899349611998
30
0
11
33.227640403979095
21
-22.336966914935793
31
-5.5511151231257827e-16
0
ARC
5
120
100
AcDbEntity
8
0
100
AcDbCircle
10
21.99999999999725
20
-3.730349362740526e-13
30
0
40
25.000000000000906
100
AcDbArc
50
296.68631567990013
51
310.81368432011129
0
LINE
5
121
100
AcDbEntity
8
0
100
AcDbLine
10
38.340034583935307
20
-18.920974335266095
30
-1.5151694747809982e-15
11
31.881817267082013
21
-12.4627570184129
31
0
0
ARC
5
122
100
AcDbEntity
8
0
100
AcDbCircle
10
33.17228714274745
20
-11.172287142747448
30
5.0602210727817051e-32
40
1.8249999999999931
100
AcDbArc
50
44.999999999999687
51
225.00000085377334
0
LINE
5
123
100
AcDbEntity
8
0
100
AcDbLine
10
34.462757018412901
20
-9.8818172670820115
30
1.0130785099704425e-16
11
40.920974335266102
21
-16.340034583935296
31
0
0
ARC
5
124
100
AcDbEntity
8
0
100
AcDbCircle
10
21.99999999999725
20
-3.730349362740526e-13
30
0
40
25.00000000000184
100
AcDbArc
50
319.18631567989883
51
333.31368432010947
0
LINE
5
125
100
AcDbEntity
8
0
100
AcDbLine
10
44.336966914935807
20
-11.227640403979098
30
-6.7745327552597143e-16
11
35.898899349612002
21
-7.7324783782015158
31
2.7755575615628914e-16
0
ARC
5
126
100
AcDbEntity
8
0
100
AcDbCircle
10
36.597296613678296
20
-6.0463982313684186
30
-6.1629758220391547e-32
40
1.8249999999999997
100
AcDbArc
50
67.499999999999332
51
247.50000085377289
0
LINE
5
127
100
AcDbEntity
8
0
100
AcDbLine
10
37.295693877744604
20
-4.3603180845353284
30
2.0261570199409166e-16
11
45.733761443068403
21
-7.8554801103129428
31
0
0
ARC
5
128
100
AcDbEntity
8
0
100
AcDbCircle
10
21.99999999999725
20
-3.730349362740526e-13
30
0
40
25.00000000000254
100
AcDbArc
50
341.68631567989701
51
355.81368432010709
0
LINE
5
129
100
AcDbEntity
8
0
100
AcDbLine
10
46.933298518246588
20
-1.8250000000000166
30
-1.3503563534757318e-15
11
37.800000000000004
21
-1.8249999999999993
31
0
0
ARC
5
130
100
AcDbEntity
8
0
100
AcDbCircle
10
37.800000000000004
20
1.1102230246251565e-15
30
1.3866695599588098e-31
40
1.8249999999999984
100
AcDbArc
50
90
51
270
0
LINE
5
131
100
AcDbEntity
8
0
100
AcDbLine
10
37.800000000000004
20
1.8249999999999993
30
2.0261570199409099e-16
11
46.933298518246602
21
1.8249999999999904
31
0
0
ARC
5
132
100
AcDbEntity
8
0
100
AcDbCircle
10
21.99999999999725
20
-3.730349362740526e-13
30
0
40
25.000000000002732
100
AcDbArc
50
4.1863156798945722
51
18.313684320104535
0
LINE
5
133
100
AcDbEntity
8
0
100
AcDbLine
10
45.73376144306841
20
7.8554801103129259
30
1.6822576948744221e-16
11
37.295693842213197
21
4.3603180698177173
31
0
0
ARC
5
134
100
AcDbEntity
8
0
100
AcDbCircle
10
36.597296613678331
20
6.0463982313684195
30
-3.0814879110195774e-32
40
1.8250000000000168
100
AcDbArc
50
112.50000000000115
51
292.4999985212217
0
LINE
5
135
100
AcDbEntity
8
0
100
AcDbLine
10
35.898899349612002
20
7.7324783782015203
30
1.0130785206449693e-16
11
44.3369669149358
21
11.227640403979102
31
0
0
ARC
5
136
100
AcDbEntity
8
0
100
AcDbCircle
10
21.99999999999725
20
-3.730349362740526e-13
30
0
40
25.000000000002636
100
AcDbArc
50
26.686315679892076
51
40.813684320102261
0
LINE
5
137
100
AcDbEntity
8
0
100
AcDbLine
10
40.920974335266109
20
16.340034583935193
30
-3.3872663776297975e-16
11
34.462757018412901
21
9.8818172670819919
31
0
0
ARC
5
138
100
AcDbEntity
8
0
100
AcDbCircle
10
33.17228714274745
20
11.172287142747447
30
-4.622231866529366e-32
40
1.8249999999999991
100
AcDbArc
50
134.99999999999955
51
314.99999999999994
0
LINE
5
139
100
AcDbEntity
8
0
100
AcDbLine
10
31.881817267082013
20
12.462757018412905
30
1.0130785099704594e-16
11
38.340034583935307
21
18.920974335266106
31
0
0
ARC
5
140
100
AcDbEntity
8
0
100
AcDbCircle
10
21.99999999999725
20
-3.730349362740526e-13
30
0
40
25.000000000002089
100
AcDbArc
50
49.186315679889852
51
63.313684320100606
0
LINE
5
141
100
AcDbEntity
8
0
100
AcDbLine
10
33.227640403979109
20
22.336966914935804
30
1.6845327936627495e-15
11
29.732478392919145
21
13.898899385143499
31
0
0
ARC
5
142
100
AcDbEntity
8
0
100
AcDbCircle
10
28.046398231368428
20
14.59729661367833
30
0
40
1.8250000000000011
100
AcDbArc
50
157.5000000000004
51
337.50000147877984
0
LINE
5
143
100
AcDbEntity
8
0
100
AcDbLine
10
26.360318084535326
20
15.295693877744608
30
5.0653925498522828e-17
11
29.855480110312953
21
23.73376144306831
31
-1.1102230246251565e-15
0
ARC
5
144
100
AcDbEntity
8
0
100
AcDbCircle
10
21.99999999999725
20
-3.730349362740526e-13
30
0
40
25.000000000001187
100
AcDbArc
50
71.686315679888438
51
85.813684320099497
0
LINE
5
145
100
AcDbEntity
8
0
100
AcDbLine
10
23.825000000000021
20
24.933298518246612
30
2.6916123117987069e-15
11
23.825000000000003
21
15.799999999999992
31
0
0
ARC
5
146
100
AcDbEntity
8
0
100
AcDbCircle
10
22
20
15.800000000000008
30
4.7895943604852146e-47
40
1.8250000000000011
100
AcDbArc
50
180
51
360
0
LINE
5
147
100
AcDbEntity
8
0
100
AcDbLine
10
20.175000000000001
20
15.80000000000001
30
8.9979447001771657e-32
11
20.175000000000011
21
24.933298518246609
31
0
0
ARC
5
148
100
AcDbEntity
8
0
100
AcDbCircle
10
21.99999999999725
20
-3.730349362740526e-13
30
0
40
25.000000000000142
100
AcDbArc
50
94.186315679887855
51
108.31368432009958
0
LINE
5
149
100
AcDbEntity
8
0
100
AcDbLine
10
14.144519889687061
20
23.733761443068303
30
1.3034653261789632e-15
11
17.639681915464664
21
15.295693877744604
31
1.1102230246251565e-15
0
ARC
5
150
100
AcDbEntity
8
0
100
AcDbCircle
10
15.953601768631579
20
14.597296613678283
30
0
40
1.8249999999999964
100
AcDbArc
50
-157.50000000000009
51
22.500000000001087
0
LINE
5
151
100
AcDbEntity
8
0
100
AcDbLine
10
14.267521621798483
20
13.898899349611998
30
0
11
10.772359596020904
21
22.336966914935807
31
5.5511151231257827e-16
0
ARC
5
152
100
AcDbEntity
8
0
100
AcDbCircle
10
21.99999999999725
20
-3.730349362740526e-13
30
0
40
24.999999999999112
100
AcDbArc
50
116.68631567988812
51
130.81368432010046
0
LINE
5
153
100
AcDbEntity
8
0
100
AcDbLine
10
5.6599654160647939
20
18.920974335266095
30
1.3458061558996158e-15
11
12.118182732917999
21
12.462757018412905
31
0
0
ARC
5
154
100
AcDbEntity
8
0
100
AcDbCircle
10
10.827712857252552
20
11.172287142747447
30
4.622231866529366e-32
40
1.825
100
AcDbArc
50
-135.00000000000017
51
45.000000000000249
0
LINE
5
155
100
AcDbEntity
8
0
100
AcDbLine
10
9.5372429815870987
20
9.8818172670820008
30
-1.0130785099704578e-16
11
3.0790256647339032
21
16.340034583935299
31
0
0
ARC
5
156
100
AcDbEntity
8
0
100
AcDbCircle
10
21.99999999999725
20
-3.730349362740526e-13
30
0
40
24.99999999999816
100
AcDbArc
50
139.1863156798893
51
153.31368432010225
0
LINE
5
157
100
AcDbEntity
8
0
100
AcDbLine
10
-0.336966914935799
20
11.227640403979107
30
-1.6845327936627507e-15
11
8.1011006148565023
21
7.7324783929191412
31
-2.7755575615628914e-16
0
ARC
5
158
100
AcDbEntity
8
0
100
AcDbCircle
10
7.4027033863216847
20
6.0463982313684284
30
1.5407439555097887e-32
40
1.8250000000000031
100
AcDbArc
50
-112.49999999999976
51
67.500000000000185
0
LINE
5
159
100
AcDbEntity
8
0
100
AcDbLine
10
6.7043061222554012
20
4.3603180845353249
30
2.0261570199409131e-16
11
-1.7337614430682979
21
7.8554801103129632
31
-2.7755575615628914e-16
0
ARC
5
160
100
AcDbEntity
8
0
100
AcDbCircle
10
21.99999999999725
20
-3.730349362740526e-13
30
0
40
24.999999999997463
100
AcDbArc
50
161.68631567989135
51
175.81368432010447
0
LINE
5
161
100
AcDbEntity
8
0
100
AcDbLine
10
-2.9332985182465965
20
1.8250000000000088
30
-3.3872663776298049e-16
11
6.2000000000000011
21
1.8249999999999993
31
0
0
ARC
5
162
100
AcDbEntity
8
0
100
AcDbCircle
10
6.200000000000002
20
4.163336342344337e-16
30
1.5407439555097887e-32
40
1.825
100
AcDbArc
50
-90.000000000000057
51
90.000000000000014
0
LINE
5
163
100
AcDbEntity
8
0
100
AcDbLine
10
6.2000000000000002
20
-1.8249999999999993
30
-2.0261570199409099e-16
11
-2.933298518246632
21
-1.8249999999999988
31
1.7347234759766121e-16
0
CIRCLE
5
164
100
AcDbEntity
8
0
100
AcDbCircle
10
31.146165735328001
20
6.1112725632156195
30
0
40
1.7000000000000057
0
CIRCLE
5
165
100
AcDbEntity
8
0
100
AcDbCircle
10
15.888727436784373
20
9.1461657353280081
30
0
40
1.7000000000000011
0
CIRCLE
5
166
100
AcDbEntity
8
0
100
AcDbCircle
10
28.111272563215621
20
-9.1461657353279957
30
0
40
1.7000000000000002
0
CIRCLE
5
167
100
AcDbEntity
8
0
100
AcDbCircle
10
12.853834264672003
20
-6.1112725632156284
30
0
40
1.7000000000000006
0
CIRCLE
5
168
100
AcDbEntity
8
0
100
AcDbCircle
10
21.99999999999725
20
-3.730349362740526e-13
30
0
40
2.1000000000000001
0
ENDSEC
0
SECTION
2
OBJECTS
0
DICTIONARY
5
C
100
AcDbDictionary
3
ACAD_GROUP
350
D
3
ACAD_MLINESTYLE
350
17
0
DICTIONARY
5
D
100
AcDbDictionary
0
DICTIONARY
5
1A
330
C
100
AcDbDictionary
0
DICTIONARY
5
17
100
AcDbDictionary
0
ENDSEC
0
EOF
